<svg xmlns="http://www.w3.org/2000/svg" viewBox="0 0 325.34 57.79"><g style="isolation:isolate"><g style="isolation:isolate"><path d="M4,44.24,2.13,47.13V57.37H0V30.68H2.13V43.4l8.53-12.72h2.47L5.33,42.22l9.78,15.15H12.56Z" style="fill:#7e9a3d"/><path d="M45.94,48H37.27l-3,9.33H32.05l8.53-26.65h2l8.67,26.65H49ZM37.88,46h7.49L41.57,34Z" style="fill:#7e9a3d"/><path d="M72.32,32.66l-2.55-.07V30.72h4.69V57.37H72.32Z" style="fill:#7e9a3d"/><path d="M97.56,34.64V57.37H95.43V30.72h2.13L112,53.45V30.72h2.13V57.37H112Z" style="fill:#7e9a3d"/><path d="M148.09,56a8.94,8.94,0,0,1-5.61,1.81A10.08,10.08,0,0,1,138.6,57a6.57,6.57,0,0,1-3-2.41,7.35,7.35,0,0,1-1.16-4.3V38.07a7.75,7.75,0,0,1,2.15-5.94,8.32,8.32,0,0,1,5.92-2,7.74,7.74,0,0,1,5.84,2.14,8,8,0,0,1,2.07,5.86V50.33Q150.43,54.17,148.09,56Zm-1.37-22.44a6.27,6.27,0,0,0-4.28-1.41,6.19,6.19,0,0,0-4.26,1.41,5.27,5.27,0,0,0-1.6,4.19V50.29a5.05,5.05,0,0,0,1.65,4.09,6.32,6.32,0,0,0,4.21,1.39,6.47,6.47,0,0,0,4.24-1.35,5,5,0,0,0,1.66-4.17V37.73A5.25,5.25,0,0,0,146.72,33.54Z" style="fill:#7e9a3d"/><path d="M177.42,32.63H171V30.72h15.3v1.91h-6.7V57.37h-2.13Z" style="fill:#7e9a3d"/><path d="M218.74,56a8.94,8.94,0,0,1-5.61,1.81,10.08,10.08,0,0,1-3.88-.75,6.57,6.57,0,0,1-3-2.41,7.35,7.35,0,0,1-1.17-4.3V38.07a7.75,7.75,0,0,1,2.16-5.94,8.32,8.32,0,0,1,5.92-2A7.76,7.76,0,0,1,219,32.25a8,8,0,0,1,2.07,5.86V50.33Q221.08,54.17,218.74,56Zm-1.37-22.44a6.27,6.27,0,0,0-4.28-1.41,6.19,6.19,0,0,0-4.26,1.41,5.27,5.27,0,0,0-1.6,4.19V50.29a5.05,5.05,0,0,0,1.65,4.09,6.32,6.32,0,0,0,4.21,1.39,6.49,6.49,0,0,0,4.24-1.35A5,5,0,0,0,219,50.25V37.73A5.25,5.25,0,0,0,217.37,33.54Z" style="fill:#7e9a3d"/><path d="M260,37,253,57.37H250.7L243.81,37V57.37h-2.13V30.72h2.13l8,23.37L260,30.72h2.13V57.37H260Z" style="fill:#7e9a3d"/><path d="M285.6,32.66l-2.55-.07V30.72h4.69V57.37H285.6Z" style="fill:#7e9a3d"/><path d="M320,48h-8.68l-3,9.33h-2.25l8.53-26.65h2l8.67,26.65h-2.28ZM311.94,46h7.5L315.64,34Z" style="fill:#7e9a3d"/></g></g><g style="isolation:isolate"><g style="isolation:isolate"><path d="M72.66,11.89,76.88,0h.84V13.19h-.84V2.47L73.11,13.19H72.2L68.47,2.47V13.19h-.85V0h.85Z" style="fill:#7e9a3d"/><path d="M87.88,4.35a2.92,2.92,0,0,0-1.55.38,1.31,1.31,0,0,0-.62,1.21A1.71,1.71,0,0,0,86.1,7a1.33,1.33,0,0,0,1.12.49h2.4l-.29.83H87.41a2.17,2.17,0,0,0-1.52.53,1.89,1.89,0,0,0-.59,1.49A2,2,0,0,0,86,12a2.72,2.72,0,0,0,1.87.59,6.26,6.26,0,0,0,1.31-.14,9.19,9.19,0,0,0,1-.29l.52-.19.24.77a4.43,4.43,0,0,1-.56.21,11.44,11.44,0,0,1-1.16.29,7.83,7.83,0,0,1-1.48.14,3.43,3.43,0,0,1-2.32-.76,2.75,2.75,0,0,1-1-1.92l0-.35A2.35,2.35,0,0,1,86,7.9a1.63,1.63,0,0,1-.79-.74,2.38,2.38,0,0,1-.34-1.26,1.84,1.84,0,0,1,0-.36,2,2,0,0,1,1-1.5,3.88,3.88,0,0,1,2-.48,5.6,5.6,0,0,1,1.79.28v.8A5.22,5.22,0,0,0,87.88,4.35Z" style="fill:#7e9a3d"/><path d="M109.29,4.35a3,3,0,0,0-1.56.38,1.32,1.32,0,0,0-.61,1.21A1.71,1.71,0,0,0,107.51,7a1.33,1.33,0,0,0,1.12.49H111l-.28.83h-1.92a2.17,2.17,0,0,0-1.52.53,1.86,1.86,0,0,0-.59,1.49,2,2,0,0,0,.66,1.63,2.71,2.71,0,0,0,1.86.59,6.43,6.43,0,0,0,1.32-.14,9.19,9.19,0,0,0,1-.29l.52-.19.24.77a4.19,4.19,0,0,1-.57.21,11.16,11.16,0,0,1-1.15.29,7.91,7.91,0,0,1-1.48.14,3.43,3.43,0,0,1-2.32-.76,2.75,2.75,0,0,1-1-1.92l0-.35a2.35,2.35,0,0,1,1.53-2.45,1.65,1.65,0,0,1-.8-.74,2.48,2.48,0,0,1-.34-1.26,3.21,3.21,0,0,1,0-.36,2,2,0,0,1,1-1.5,4,4,0,0,1,2-.48,5.65,5.65,0,0,1,1.79.28v.8A5.22,5.22,0,0,0,109.29,4.35Z" style="fill:#7e9a3d"/><path d="M125.17,11.85a1.34,1.34,0,0,0,.12.41.87.87,0,0,0,.39.46l-.41.53s-.09,0-.27-.13a1.88,1.88,0,0,1-.48-.52,1.71,1.71,0,0,1-.21-.9l0-7.21h-5.45v8.7H118V3.75h7.14Z" style="fill:#7e9a3d"/><path d="M133,13.19h-.85V3.75H133ZM133.71.4a.5.5,0,0,1,.39.16.54.54,0,0,1,.14.36.46.46,0,0,1-.1.29l-1.28,1.84h-.68l1-2.28A.58.58,0,0,1,133.71.4Z" style="fill:#7e9a3d"/><path d="M141,8.42l4.27-4.67h1.13l-3.56,3.88,2.4,3.38c.71,1,1.33,1.45,1.84,1.45l0,.75a2.21,2.21,0,0,1-1.43-.53,8.6,8.6,0,0,1-1.32-1.49l-2.11-2.92L141,9.57v3.62h-.85V3.54l.85.21Z" style="fill:#7e9a3d"/><path d="M156.4,4.35a3,3,0,0,0-1.56.38,1.32,1.32,0,0,0-.61,1.21A1.71,1.71,0,0,0,154.62,7a1.33,1.33,0,0,0,1.12.49h2.39l-.28.83h-1.92a2.17,2.17,0,0,0-1.52.53,1.89,1.89,0,0,0-.59,1.49,2,2,0,0,0,.66,1.63,2.71,2.71,0,0,0,1.86.59,6.35,6.35,0,0,0,1.32-.14,9.19,9.19,0,0,0,1.05-.29l.52-.19.24.77a4.43,4.43,0,0,1-.56.21c-.31.1-.69.19-1.16.29a7.91,7.91,0,0,1-1.48.14,3.43,3.43,0,0,1-2.32-.76,2.75,2.75,0,0,1-1-1.92l0-.35A2.35,2.35,0,0,1,154.5,7.9a1.65,1.65,0,0,1-.8-.74,2.47,2.47,0,0,1-.33-1.26c0-.15,0-.27,0-.36a2,2,0,0,1,1-1.5,4,4,0,0,1,2-.48,5.6,5.6,0,0,1,1.79.28v.8A5.22,5.22,0,0,0,156.4,4.35Z" style="fill:#7e9a3d"/><path d="M169,12.21l2.75-8.46h.88l-3.09,9.44h-1.09l-3.07-9.44h.88Z" style="fill:#7e9a3d"/><path d="M184.19,4.58h-2.44V10.7a2.48,2.48,0,0,0,.3,1.38,1.76,1.76,0,0,0,1,.7l-.25.66a2.45,2.45,0,0,1-1.46-1,3.23,3.23,0,0,1-.42-1.78V4.58h-2.38V3.77h5.67Z" style="fill:#7e9a3d"/><path d="M196.23,12.5a3.6,3.6,0,0,1-2.63.88,3.16,3.16,0,0,1-2.7-1.22v4.76l-.81.25V7.26A3.7,3.7,0,0,1,191,4.61a4,4,0,0,1,5.24,0,4.08,4.08,0,0,1,.87,2.78V10A3.42,3.42,0,0,1,196.23,12.5ZM191.68,12a2.84,2.84,0,0,0,1.92.65,3,3,0,0,0,1.93-.61,2.42,2.42,0,0,0,.74-2V7.35c0-1.95-.91-2.92-2.73-2.92a2.67,2.67,0,0,0-1.86.67,2.8,2.8,0,0,0-.74,2.17v2.79A2.44,2.44,0,0,0,191.68,12Z" style="fill:#7e9a3d"/><path d="M203.93,4.5a3.47,3.47,0,0,1,2.63-1,3.31,3.31,0,0,1,2.56,1,3.79,3.79,0,0,1,.93,2.71V9.72a3.93,3.93,0,0,1-.87,2.62,3.23,3.23,0,0,1-2.62,1,3.29,3.29,0,0,1-2.65-1.05A3.88,3.88,0,0,1,203,9.72V7.24A3.78,3.78,0,0,1,203.93,4.5Zm.64,7.34a2.53,2.53,0,0,0,2,.79,2.45,2.45,0,0,0,2-.78,2.91,2.91,0,0,0,.68-2V7.22A2.94,2.94,0,0,0,208.47,5a2.58,2.58,0,0,0-1.91-.71,2.72,2.72,0,0,0-2,.7,2.93,2.93,0,0,0-.73,2.2V9.86A2.84,2.84,0,0,0,204.57,11.84Z" style="fill:#7e9a3d"/><path d="M230.63,4.58h-2.45V10.7a2.57,2.57,0,0,0,.3,1.38,1.8,1.8,0,0,0,1,.7l-.25.66a2.48,2.48,0,0,1-1.46-1,3.23,3.23,0,0,1-.42-1.78V4.58H225V3.77h5.68Z" style="fill:#7e9a3d"/><path d="M237.37,4.26a4.08,4.08,0,0,1,1.2-.49A6.07,6.07,0,0,1,240,3.6a4.3,4.3,0,0,1,1.89.36,2.72,2.72,0,0,1,1.6,2.71v10.5l-.83-.38V6.71a2.07,2.07,0,0,0-.76-1.79,3,3,0,0,0-1.9-.57,5.47,5.47,0,0,0-1.36.18,5.89,5.89,0,0,0-1.26.48v8.18h-.85V3.75h.85Z" style="fill:#7e9a3d"/><path d="M253,12.21l2.76-8.46h.88l-3.09,9.44h-1.09l-3.07-9.44h.88Z" style="fill:#7e9a3d"/></g></g><g style="isolation:isolate"><g style="isolation:isolate"><path d="M140.36,22.48a.34.34,0,0,0-.2-.12.62.62,0,0,1-.39-.08c0-.05.08-.16.23-.31h.32l1.73-.24,2.68-.24,1.89-.15a5.53,5.53,0,0,1,1-.08,4.86,4.86,0,0,0,1-.08,9.62,9.62,0,0,1,1.3-.08,8,8,0,0,0,1.22-.08.3.3,0,0,0,.31-.16c.11.16.21.21.32.16a3.47,3.47,0,0,1,1.06-.16h.75c1.58-.1,2.81-.15,3.7-.15s2.1.08,3.78.08a.88.88,0,0,0,.2,0q.12,0,.12-.12h1.34c0,.1.1.13.31.08h2.6c1.16,0,2,0,2.52.08a3.58,3.58,0,0,0,.4,0,1.19,1.19,0,0,1,.55,0,2.69,2.69,0,0,0,.79.15,4.22,4.22,0,0,1,.94-.08h.87l.47,0a1.1,1.1,0,0,0,.55,0,.38.38,0,0,1,.28.12.21.21,0,0,0,.27,0,.34.34,0,0,1,.28,0,1.31,1.31,0,0,0,.27,0h1.42a1.75,1.75,0,0,1,.32,0,.7.7,0,0,0,.39,0,.72.72,0,0,1,.24.08c.1,0,.18,0,.23,0a.43.43,0,0,1,.2.08.28.28,0,0,0,.28,0h1.65a.54.54,0,0,1,.28.08c.07,0,.17,0,.27-.08a.34.34,0,0,1,.2.12c.08.08.14.09.2,0h.62a.85.85,0,0,1,.24,0,.27.27,0,0,0,.24,0,.48.48,0,0,1,.23.08.28.28,0,0,0,.32-.08q.08.15.39.15h1.18a2.6,2.6,0,0,1,.4.08.77.77,0,0,1,.47.32v.31h-.16a6.88,6.88,0,0,0-2.75-.23l-.24-.08-.08-.08-.16.16a.57.57,0,0,1-.27-.16c-.13-.1-.23-.08-.28.08a.38.38,0,0,0-.27-.08h-1.3a.33.33,0,0,1-.24-.08.32.32,0,0,0-.23-.08c-.06,0-.14.06-.24.16a.58.58,0,0,0-.4-.16h-1.73a2.94,2.94,0,0,1-1.1-.16.41.41,0,0,0-.63.16.37.37,0,0,0-.39-.19l-.32,0h-1.34a.43.43,0,0,1-.31-.15l-.16.15c-.47-.2-.82-.2-1,0a.22.22,0,0,0-.23,0,.26.26,0,0,1-.24,0,1.86,1.86,0,0,0-.63-.08h-2.44a.49.49,0,0,1-.32-.08,2.7,2.7,0,0,1-.7.16,3.49,3.49,0,0,1-.87-.12,1.68,1.68,0,0,0-.79,0c-.1-.11-.29-.08-.55.08a.16.16,0,0,0-.24-.08c-.1,0-.18,0-.23,0a1,1,0,0,0-.4-.08h-2a.45.45,0,0,0-.32.16.31.31,0,0,0-.31-.12,1,1,0,0,1-.24,0,1,1,0,0,1-.28-.08q-.19-.08-.27,0h-.4a.31.31,0,0,0-.31.16l-.16-.16a.48.48,0,0,1-.43.12.46.46,0,0,0-.36,0q-.08-.24-.27-.12c-.13.08-.23.07-.28,0a.5.5,0,0,1-.39.16h-4.37a.36.36,0,0,0-.28.08.39.39,0,0,1-.27,0,.58.58,0,0,0-.2,0,1.12,1.12,0,0,1-.55.07h-1.26l-.16.16-.16-.16a1.24,1.24,0,0,1-.71.16,6.61,6.61,0,0,0-1.57,0,14.51,14.51,0,0,1-1.5.12,2.47,2.47,0,0,1-.71.08,2.87,2.87,0,0,0-.79.08,3.17,3.17,0,0,1-.86.08,3,3,0,0,0-.79.07,6.41,6.41,0,0,1-1.26.08l-.24.32A.21.21,0,0,1,140.36,22.48Z" style="fill:#7e9a3d"/></g></g></svg>