<svg xmlns="http://www.w3.org/2000/svg" viewBox="0 0 912.12 181.83"><g style="isolation:isolate"><text transform="translate(0 159.71)" style="isolation:isolate;font-size:101px;fill:#7e9a3d;font-family:AdventPro-Regular, Advent Pro;letter-spacing:0.39999903310643564em">ΚΑΙΝΟΤΟΜΙΑ</text></g><g style="isolation:isolate"><text transform="translate(183.31 42.5)" style="isolation:isolate;font-size:50px;fill:#7e9a3d;font-family:AdventPro-Light, Advent Pro;font-weight:300;letter-spacing:0.2em">Με επίκεντρο την</text></g><g style="isolation:isolate"><g style="isolation:isolate"><path d="M380.29,67.14a.84.84,0,0,0-.52-.31c-.56,0-.91-.07-1-.21s.2-.42.62-.84h.84c.14,0,1.67-.21,4.6-.62l7.1-.63,5-.42a14.17,14.17,0,0,1,2.71-.21,12.4,12.4,0,0,0,2.72-.21,26.14,26.14,0,0,1,3.45-.21,19.25,19.25,0,0,0,3.24-.21.84.84,0,0,0,.84-.41c.27.41.55.56.83.41a9.19,9.19,0,0,1,2.82-.41h2q6.27-.42,9.82-.42,3.35.21,10,.21a1.51,1.51,0,0,0,.53-.11c.21-.06.31-.17.31-.31h3.55q0,.42.84.21h6.9q4.59,0,6.68.21a5.67,5.67,0,0,0,1.05-.11,3.79,3.79,0,0,1,1.46.11,6.86,6.86,0,0,0,2.09.42,11.09,11.09,0,0,1,2.51-.21h2.3a10.74,10.74,0,0,1,1.25.1,3.33,3.33,0,0,0,1.47-.1,1,1,0,0,1,.73.31.56.56,0,0,0,.73.1.82.82,0,0,1,.73-.1,4.22,4.22,0,0,0,.73.1H473a3.46,3.46,0,0,1,.84.11,1.8,1.8,0,0,0,1-.11,1.8,1.8,0,0,1,.63.21q.42.21.63,0a1.1,1.1,0,0,1,.52.21.68.68,0,0,0,.73,0h4.39a1.36,1.36,0,0,1,.73.21c.21.14.45.07.74-.21a.89.89,0,0,1,.52.32c.21.21.38.24.52.1h1.67a3,3,0,0,1,.63.11.63.63,0,0,0,.63-.11,1.63,1.63,0,0,1,.62.21.69.69,0,0,0,.84-.21c.14.28.49.42,1,.42h3.14a6.09,6.09,0,0,1,1,.21,2.07,2.07,0,0,1,1.26.83v.84h-.42a18.57,18.57,0,0,0-7.32-.63l-.62-.21-.21-.21-.42.42a1.51,1.51,0,0,1-.73-.42c-.35-.27-.59-.2-.73.21a1.08,1.08,0,0,0-.73-.21h-3.45a.85.85,0,0,1-.63-.2.86.86,0,0,0-.63-.21c-.14,0-.35.14-.62.41a1.46,1.46,0,0,0-1.05-.41H473a8.06,8.06,0,0,1-2.92-.42,1.07,1.07,0,0,0-1.67.42,1,1,0,0,0-1.05-.53,5.22,5.22,0,0,1-.84.11H463a1.17,1.17,0,0,1-.83-.42l-.42.42c-1.26-.56-2.16-.56-2.72,0a.65.65,0,0,0-.63-.11.58.58,0,0,1-.62-.1,5.46,5.46,0,0,0-1.68-.21h-6.47a1.22,1.22,0,0,1-.84-.21,6.62,6.62,0,0,1-1.88.42,9.49,9.49,0,0,1-2.3-.31,4.51,4.51,0,0,0-2.09-.11c-.28-.28-.77-.21-1.46.21a.42.42,0,0,0-.63-.21q-.42.21-.63,0a2.43,2.43,0,0,0-1-.21h-5.44a1.19,1.19,0,0,0-.83.42.87.87,0,0,0-.84-.31,2.81,2.81,0,0,1-.62.1,2.35,2.35,0,0,1-.74-.21c-.35-.13-.59-.13-.73,0h-1a.85.85,0,0,0-.84.42l-.42-.42a1.28,1.28,0,0,1-1.15.32c-.49-.07-.8,0-.94.1-.14-.42-.38-.52-.73-.31s-.59.17-.73-.11a1.42,1.42,0,0,1-1.05.42H411a1,1,0,0,0-.74.21.9.9,0,0,1-.73.1,2,2,0,0,0-.52-.1,2.77,2.77,0,0,1-1.46.21h-3.35l-.42.42-.41-.42a3.42,3.42,0,0,1-1.88.42,17.32,17.32,0,0,0-4.18.1,38.5,38.5,0,0,1-4,.31,5.94,5.94,0,0,1-1.88.21,7.73,7.73,0,0,0-2.09.21,8.32,8.32,0,0,1-2.3.21,7.21,7.21,0,0,0-2.08.21,19,19,0,0,1-3.35.21l-.63.84A.58.58,0,0,1,380.29,67.14Z" style="fill:#7e9a3d"/></g></g></svg>