<svg xmlns="http://www.w3.org/2000/svg" width="22.805" height="14.402" viewBox="0 0 22.805 14.402"><path d="M669.7,541.487a1.8,1.8,0,0,1,1.8,1.793v10.8a1.8,1.8,0,0,1-1.8,1.8H650.5a1.8,1.8,0,0,1-1.8-1.8v-10.8a1.8,1.8,0,0,1,1.8-1.793Zm0,1.2H650.5a.252.252,0,0,0-.058.006.186.186,0,0,1-.047.006l9.035,6.023a1.152,1.152,0,0,0,.662.176,1.209,1.209,0,0,0,.674-.176l9.035-6.023a.255.255,0,0,1-.053-.006.283.283,0,0,0-.053-.006Zm0,12a.6.6,0,0,0,.6-.6V543.807l-8.871,5.906a1.958,1.958,0,0,1-.621.281,2.707,2.707,0,0,1-1.412,0,2.117,2.117,0,0,1-.627-.281l-8.871-5.906v10.277a.575.575,0,0,0,.176.422.589.589,0,0,0,.433.176Z" transform="translate(-648.7 -541.487)" fill="#aaacb1"/></svg>