<svg xmlns="http://www.w3.org/2000/svg" viewBox="0 0 411.04 189.21"><g style="isolation:isolate"><text transform="translate(93.52 42)" style="isolation:isolate;font-size:54px;fill:#7e9a3d;font-family:NF-Takhie-Free-Regular, NF-Takhie-Free;letter-spacing:0.40000180844907407em">Σ<tspan x="40.68" y="0" style="letter-spacing:0.3777759693287037em">υ</tspan><tspan x="77.4" y="0" style="letter-spacing:0.3999927662037037em">χν</tspan><tspan x="154.56" y="0" style="letter-spacing:0.37778501157407407em">έ</tspan><tspan x="189.6" y="0">ς</tspan></text></g><g style="isolation:isolate"><text transform="translate(0 107.31)" style="isolation:isolate;font-size:54px;fill:#7e9a3d;font-family:AdventPro-Regular, Advent Pro;letter-spacing:0.3999927662037037em">Ερωτήσεις</text></g><path d="M325.13,22.2c0-1.24.67-2,1.77-2s2,1.16,1.91,2.7a1.83,1.83,0,0,1-1.65,2H327C325.85,24.88,325.1,23.79,325.13,22.2Z" style="fill:#7e9a3d"/><path d="M67.93,22.2c0-1.24.68-2,1.78-2s2,1.16,1.9,2.7a1.82,1.82,0,0,1-1.65,2h-.15C68.66,24.88,67.91,23.79,67.93,22.2Z" style="fill:#7e9a3d"/><g style="isolation:isolate"><g style="isolation:isolate"><path d="M150.25,189.06a.69.69,0,0,0-.41-.24,1.31,1.31,0,0,1-.83-.17c0-.11.17-.33.5-.66h.66c.11,0,1.32-.16,3.63-.49l5.61-.5,4-.33a11.31,11.31,0,0,1,2.14-.16,9.81,9.81,0,0,0,2.15-.17,19.51,19.51,0,0,1,2.72-.16,16.09,16.09,0,0,0,2.56-.17.67.67,0,0,0,.66-.33q.33.49.66.33a7,7,0,0,1,2.22-.33h1.57q4.95-.33,7.76-.33,2.64.17,7.92.17a1.61,1.61,0,0,0,.41-.08c.16-.06.25-.14.25-.25h2.8c0,.22.22.27.66.16h5.45c2.42,0,4.18.06,5.28.17a5.73,5.73,0,0,0,.82-.08,2.8,2.8,0,0,1,1.16.08,5.43,5.43,0,0,0,1.65.33,8.74,8.74,0,0,1,2-.17H216a8,8,0,0,1,1,.09,2.71,2.71,0,0,0,1.16-.09.79.79,0,0,1,.57.25.46.46,0,0,0,.58.08c.11-.11.3-.13.58-.08a2.91,2.91,0,0,0,.58.08h3a2.5,2.5,0,0,1,.66.09,1.55,1.55,0,0,0,.82-.09,1.31,1.31,0,0,1,.5.17c.22.11.38.11.49,0a.77.77,0,0,1,.41.16.55.55,0,0,0,.58,0h3.47a1,1,0,0,1,.57.17c.17.11.36.05.58-.17a.69.69,0,0,1,.41.25c.17.17.31.19.42.08h1.32a2.05,2.05,0,0,1,.49.09.51.51,0,0,0,.5-.09,1.28,1.28,0,0,1,.49.17.54.54,0,0,0,.66-.17c.11.22.39.33.83.33h2.47a5.23,5.23,0,0,1,.83.17,1.6,1.6,0,0,1,1,.66v.66h-.33a14.59,14.59,0,0,0-5.78-.5l-.49-.16-.17-.17-.33.33a1.29,1.29,0,0,1-.58-.33c-.27-.22-.46-.16-.57.17a.82.82,0,0,0-.58-.17h-2.72a.68.68,0,0,1-.5-.16.66.66,0,0,0-.49-.17c-.11,0-.28.11-.5.33a1.11,1.11,0,0,0-.82-.33h-3.63a6.43,6.43,0,0,1-2.31-.33.85.85,0,0,0-1.32.33.8.8,0,0,0-.83-.41,4.17,4.17,0,0,1-.66.08h-2.8a1,1,0,0,1-.66-.33l-.33.33c-1-.44-1.71-.44-2.15,0a.49.49,0,0,0-.49-.08.49.49,0,0,1-.5-.08,4.27,4.27,0,0,0-1.32-.17H205a1,1,0,0,1-.66-.16,5.26,5.26,0,0,1-1.49.33,7.26,7.26,0,0,1-1.81-.25,3.52,3.52,0,0,0-1.65-.08c-.22-.22-.61-.17-1.16.16a.32.32,0,0,0-.49-.16c-.22.11-.39.11-.5,0a1.81,1.81,0,0,0-.82-.17h-4.29a.93.93,0,0,0-.66.33.67.67,0,0,0-.66-.24,2.6,2.6,0,0,1-.5.08,2,2,0,0,1-.58-.17q-.41-.17-.57,0h-.83a.67.67,0,0,0-.66.33l-.33-.33a1,1,0,0,1-.91.25c-.38-.05-.63,0-.74.08-.11-.33-.3-.41-.58-.24s-.46.13-.57-.09a1.13,1.13,0,0,1-.83.33H174.5a.79.79,0,0,0-.57.17.74.74,0,0,1-.58.08,1.53,1.53,0,0,0-.41-.08,2.24,2.24,0,0,1-1.16.16h-2.64l-.33.33-.33-.33a2.68,2.68,0,0,1-1.48.33,14,14,0,0,0-3.3.08,29.49,29.49,0,0,1-3.14.25,4.94,4.94,0,0,1-1.48.17,5.83,5.83,0,0,0-1.65.16,6.63,6.63,0,0,1-1.82.17,5.83,5.83,0,0,0-1.65.16,14.84,14.84,0,0,1-2.64.17l-.49.66A.45.45,0,0,1,150.25,189.06Z" style="fill:#7e9a3d"/></g></g></svg>