<!-- <svg xmlns="http://www.w3.org/2000/svg" viewBox="0 0 411.04 189.21"><g style="isolation:isolate"><text transform="translate(93.52 42)" style="isolation:isolate;font-size:54px;fill:#7e9a3d;font-family:NF-Takhie-Free-Regular, NF-Takhie-Free;letter-spacing:0.40000180844907407em">Σ<tspan x="40.68" y="0" style="letter-spacing:0.3777759693287037em">υ</tspan><tspan x="77.4" y="0" style="letter-spacing:0.3999927662037037em">χν</tspan><tspan x="154.56" y="0" style="letter-spacing:0.37778501157407407em">έ</tspan><tspan x="189.6" y="0">ς</tspan></text></g><g style="isolation:isolate"><text transform="translate(0 107.31)" style="isolation:isolate;font-size:54px;fill:#7e9a3d;font-family:AdventPro-Regular, Advent Pro;letter-spacing:0.3999927662037037em">Ερωτήσεις</text></g><path d="M325.13,22.2c0-1.24.67-2,1.77-2s2,1.16,1.91,2.7a1.83,1.83,0,0,1-1.65,2H327C325.85,24.88,325.1,23.79,325.13,22.2Z" style="fill:#7e9a3d"/><path d="M67.93,22.2c0-1.24.68-2,1.78-2s2,1.16,1.9,2.7a1.82,1.82,0,0,1-1.65,2h-.15C68.66,24.88,67.91,23.79,67.93,22.2Z" style="fill:#7e9a3d"/><g style="isolation:isolate"><g style="isolation:isolate"><path d="M150.25,189.06a.69.69,0,0,0-.41-.24,1.31,1.31,0,0,1-.83-.17c0-.11.17-.33.5-.66h.66c.11,0,1.32-.16,3.63-.49l5.61-.5,4-.33a11.31,11.31,0,0,1,2.14-.16,9.81,9.81,0,0,0,2.15-.17,19.51,19.51,0,0,1,2.72-.16,16.09,16.09,0,0,0,2.56-.17.67.67,0,0,0,.66-.33q.33.49.66.33a7,7,0,0,1,2.22-.33h1.57q4.95-.33,7.76-.33,2.64.17,7.92.17a1.61,1.61,0,0,0,.41-.08c.16-.06.25-.14.25-.25h2.8c0,.22.22.27.66.16h5.45c2.42,0,4.18.06,5.28.17a5.73,5.73,0,0,0,.82-.08,2.8,2.8,0,0,1,1.16.08,5.43,5.43,0,0,0,1.65.33,8.74,8.74,0,0,1,2-.17H216a8,8,0,0,1,1,.09,2.71,2.71,0,0,0,1.16-.09.79.79,0,0,1,.57.25.46.46,0,0,0,.58.08c.11-.11.3-.13.58-.08a2.91,2.91,0,0,0,.58.08h3a2.5,2.5,0,0,1,.66.09,1.55,1.55,0,0,0,.82-.09,1.31,1.31,0,0,1,.5.17c.22.11.38.11.49,0a.77.77,0,0,1,.41.16.55.55,0,0,0,.58,0h3.47a1,1,0,0,1,.57.17c.17.11.36.05.58-.17a.69.69,0,0,1,.41.25c.17.17.31.19.42.08h1.32a2.05,2.05,0,0,1,.49.09.51.51,0,0,0,.5-.09,1.28,1.28,0,0,1,.49.17.54.54,0,0,0,.66-.17c.11.22.39.33.83.33h2.47a5.23,5.23,0,0,1,.83.17,1.6,1.6,0,0,1,1,.66v.66h-.33a14.59,14.59,0,0,0-5.78-.5l-.49-.16-.17-.17-.33.33a1.29,1.29,0,0,1-.58-.33c-.27-.22-.46-.16-.57.17a.82.82,0,0,0-.58-.17h-2.72a.68.68,0,0,1-.5-.16.66.66,0,0,0-.49-.17c-.11,0-.28.11-.5.33a1.11,1.11,0,0,0-.82-.33h-3.63a6.43,6.43,0,0,1-2.31-.33.85.85,0,0,0-1.32.33.8.8,0,0,0-.83-.41,4.17,4.17,0,0,1-.66.08h-2.8a1,1,0,0,1-.66-.33l-.33.33c-1-.44-1.71-.44-2.15,0a.49.49,0,0,0-.49-.08.49.49,0,0,1-.5-.08,4.27,4.27,0,0,0-1.32-.17H205a1,1,0,0,1-.66-.16,5.26,5.26,0,0,1-1.49.33,7.26,7.26,0,0,1-1.81-.25,3.52,3.52,0,0,0-1.65-.08c-.22-.22-.61-.17-1.16.16a.32.32,0,0,0-.49-.16c-.22.11-.39.11-.5,0a1.81,1.81,0,0,0-.82-.17h-4.29a.93.93,0,0,0-.66.33.67.67,0,0,0-.66-.24,2.6,2.6,0,0,1-.5.08,2,2,0,0,1-.58-.17q-.41-.17-.57,0h-.83a.67.67,0,0,0-.66.33l-.33-.33a1,1,0,0,1-.91.25c-.38-.05-.63,0-.74.08-.11-.33-.3-.41-.58-.24s-.46.13-.57-.09a1.13,1.13,0,0,1-.83.33H174.5a.79.79,0,0,0-.57.17.74.74,0,0,1-.58.08,1.53,1.53,0,0,0-.41-.08,2.24,2.24,0,0,1-1.16.16h-2.64l-.33.33-.33-.33a2.68,2.68,0,0,1-1.48.33,14,14,0,0,0-3.3.08,29.49,29.49,0,0,1-3.14.25,4.94,4.94,0,0,1-1.48.17,5.83,5.83,0,0,0-1.65.16,6.63,6.63,0,0,1-1.82.17,5.83,5.83,0,0,0-1.65.16,14.84,14.84,0,0,1-2.64.17l-.49.66A.45.45,0,0,1,150.25,189.06Z" style="fill:#7e9a3d"/></g></g></svg> -->

<svg xmlns="http://www.w3.org/2000/svg" viewBox="0 0 188.05 92.26"><g style="isolation:isolate"><g style="isolation:isolate"><path d="M46.14,17.37q-.27-.15-.21-.36a1.38,1.38,0,0,1-.24-.78,2.27,2.27,0,0,1,.18-.84c.12-.31.2-.5.24-.58a30.31,30.31,0,0,1,2.2-4.3c.2-.32.37-.6.5-.84l.31-.61c.22-.44.48-.91.79-1.41a2.4,2.4,0,0,0,.51-.82,3.19,3.19,0,0,0-.62-1.26C49.39,5,49,4.36,48.52,3.79c-.24-.32-.44-.59-.59-.81a2.64,2.64,0,0,1-.34-.72L47.14.57V.48A.8.8,0,0,1,47.2.11.18.18,0,0,1,47.41,0a9.7,9.7,0,0,0,1.26.06c.46,0,1.16,0,2.08-.06a3.57,3.57,0,0,1,.54,0h1.63q.51,0,1.2.9a1.05,1.05,0,0,1,.24.73,1.15,1.15,0,0,1-.19.67c-.13.19-.26.29-.38.29a.51.51,0,0,1-.24-.09A3.13,3.13,0,0,0,52,2.14a8.82,8.82,0,0,1-1,0c-.5-.08-1-.14-1.57-.18l-.84-.09a1.86,1.86,0,0,0-.36,0A3.28,3.28,0,0,0,48.88,3a19.93,19.93,0,0,1,2,2.92,2.55,2.55,0,0,0,.44.62L51.8,7a.84.84,0,0,1,.21.57,2.18,2.18,0,0,1-.18.64,2.86,2.86,0,0,1-.27.59A6.68,6.68,0,0,1,51,10l-.33.66a6.22,6.22,0,0,0-.33.75,15.21,15.21,0,0,1-1,1.81,6.58,6.58,0,0,0-.42.89c-.2.47-.34.8-.42,1s0,.14,0,.18a.18.18,0,0,0,.18,0,2.22,2.22,0,0,1,.57-.09l.61,0,.33,0,.39-.06A9.09,9.09,0,0,1,52.22,15a.75.75,0,0,1,.62.22,1,1,0,0,1,.17.6l0,.69a2.28,2.28,0,0,1-.08.68.32.32,0,0,1-.25.25,14.23,14.23,0,0,1-1.51.06H49.6q-.81,0-2.37.06a.92.92,0,0,1-.46.15A1.06,1.06,0,0,1,46.14,17.37Z" style="fill:#7e9a3d"/><path d="M68.57,17.55c-1.46-.82-2.3-1.66-2.5-2.53a10.25,10.25,0,0,1-.27-2.31,13.37,13.37,0,0,1,.39-3.07,6.68,6.68,0,0,1,.52-1.42q.36-.75.45-1,.15-.36,1.11-.36a1.74,1.74,0,0,1,.42,0,.89.89,0,0,1,.53.34.93.93,0,0,1,.08.62c-.06.58-.15,1.16-.27,1.75s-.21,1.12-.25,1.44a19.41,19.41,0,0,0-.15,2.26,4.93,4.93,0,0,1,0,.56,5.73,5.73,0,0,0,0,.67A4.52,4.52,0,0,0,69,16.52c.29.59.65.88,1.09.88A1.06,1.06,0,0,0,70.8,17a2.86,2.86,0,0,0,.74-1.19,9.93,9.93,0,0,0,.32-1.67l.09-.81a13.05,13.05,0,0,0,.15-2.11,18.27,18.27,0,0,0-.36-3.58.92.92,0,0,0,0-.09.24.24,0,0,1,0-.15.19.19,0,0,1,.08-.15.22.22,0,0,1,.14-.06.19.19,0,0,1,.21.18,12.75,12.75,0,0,1,.54,2.26,16,16,0,0,1,.15,2.07,9.49,9.49,0,0,1-.12,1.6l-.09.63a10.39,10.39,0,0,1-.48,2.42,2.07,2.07,0,0,1-1.3,1.28,2.39,2.39,0,0,1-1,.22A2.3,2.3,0,0,1,68.57,17.55Z" style="fill:#7e9a3d"/><path d="M90.61,17.43l-.31-.16a1,1,0,0,1-.41-.41q-.48-1-.69-1.47c-.1-.26-.23-.56-.39-.88s-.27-.55-.33-.69a.23.23,0,0,0-.4,0,1.1,1.1,0,0,0-.18.21l-1.26,1.72a7.87,7.87,0,0,1-.81,1l-.49.57a.5.5,0,0,1-.27.18H85a.16.16,0,0,1-.18-.18.65.65,0,0,1,.27-.54l1.72-2.53.33-.51a4.93,4.93,0,0,0,.48-.71,1.17,1.17,0,0,0,.15-.55.86.86,0,0,0-.15-.52q-.42-.81-1.08-1.89c-.4-.63-.81-1.33-1.23-2.11a13.94,13.94,0,0,1-.79-1.36q0-.21.39-.24a1.23,1.23,0,0,0,.4-.12,1.16,1.16,0,0,1,.45-.12A1.86,1.86,0,0,1,87.21,7c.32.56.6,1,.83,1.46s.48.9.74,1.49q.24.36.36.36t.33-.36c.3-.51.7-1.11,1.2-1.81a18,18,0,0,0,1.12-1.69.8.8,0,0,1,.15-.21.17.17,0,0,1,.21,0,.28.28,0,0,1,.18.3.53.53,0,0,1-.06.24,3.24,3.24,0,0,0-.33.76,2.27,2.27,0,0,1-.3.75L91.19,9a10.3,10.3,0,0,1-1.27,1.93.68.68,0,0,0-.18.45,33.4,33.4,0,0,0,2.47,4.37,2.22,2.22,0,0,1,.33,1,.78.78,0,0,1-.19.53.89.89,0,0,1-.47.28.93.93,0,0,0-.54.23c-.06.05-.13,0-.21,0A5.2,5.2,0,0,0,90.61,17.43Z" style="fill:#7e9a3d"/><path d="M107.57,17.58a2.73,2.73,0,0,1-1.13-1.08,3.24,3.24,0,0,1-.59-1.51,11.12,11.12,0,0,0-.21-1.2q0-.21-.12-.75c-.06-.36-.1-.68-.12-1,0-.54-.11-1.13-.21-1.76S105,9.26,105,9.06c-.12-.64-.21-1.12-.25-1.44a2.36,2.36,0,0,1,0-.3c0-.18.1-.3.33-.36a2.42,2.42,0,0,1,.63-.1,1.2,1.2,0,0,1,1.14.82,21,21,0,0,1,1.27,5.57c.06.58.11,1.05.16,1.41s.15.57.29.61.17-.15.27-.46a19.56,19.56,0,0,0,.87-3.7l.18-1A10.12,10.12,0,0,0,110.15,8l0-1.27c0-.26.09-.42.28-.48s.4.33.48.76,0,.83,0,1,0,.28,0,.36q0,.39-.06,1.08l-.15,1.39a11.7,11.7,0,0,1-.33,1.41c-.15.57-.37,1.28-.67,2.14l-.27,1q-.15.54-.3,1a6.13,6.13,0,0,1-.53,1,.74.74,0,0,1-.64.37A1.17,1.17,0,0,1,107.57,17.58Z" style="fill:#7e9a3d"/><path d="M124.89,17.27a2.7,2.7,0,0,1-1.25-1.1,2.49,2.49,0,0,1-.39-1.39,5.2,5.2,0,0,1,.94-3.19l.16-.25a.59.59,0,0,0,.11-.29,5.59,5.59,0,0,0-.35-.74,2.65,2.65,0,0,1-.35-1.13,2.51,2.51,0,0,1,.67-1.7,2.92,2.92,0,0,1,1.5-1,4.1,4.1,0,0,1,.82-.12,2.65,2.65,0,0,1,1.2.29.88.88,0,0,1,.57.8,1,1,0,0,1-.18.54l-.15.09a2,2,0,0,1-.23-.36,1.68,1.68,0,0,0-.19-.32.3.3,0,0,0-.24-.1,1.84,1.84,0,0,0-1.22.72,2.07,2.07,0,0,0-.68,1.35.69.69,0,0,0,.12.43,1.41,1.41,0,0,0,.75.3,2.82,2.82,0,0,1,.74.25.54.54,0,0,1,.23.5q0,.45-.3.54a2.1,2.1,0,0,0-1.07.77,5.76,5.76,0,0,0-.68,1.34,5.5,5.5,0,0,0-.3,1.56,4.21,4.21,0,0,0,0,.46,2.94,2.94,0,0,0,.09.48l.15.33a1.13,1.13,0,0,0,.3.42.8.8,0,0,0,.42.18,3.6,3.6,0,0,0,.51.06,1.24,1.24,0,0,0,1.06-.54,3.18,3.18,0,0,0,.66-1.48.87.87,0,0,1,0-.28c0-.09.07-.14.13-.14a.21.21,0,0,1,.18.15,1.22,1.22,0,0,1,.09.49,2,2,0,0,1-.34,1,4.61,4.61,0,0,1-.86,1,1.57,1.57,0,0,1-1.12.39A3.82,3.82,0,0,1,124.89,17.27ZM126.75,4.7a1.54,1.54,0,0,1,.17-.67l.07-.21s.12-.24.3-.6a1.73,1.73,0,0,1,.63-.75,1.84,1.84,0,0,1,.72-.24.72.72,0,0,1,.42.15.14.14,0,0,1,.09.15,1.61,1.61,0,0,1-.21.63l-.21.48a4.1,4.1,0,0,1-.34.62,5.07,5.07,0,0,1-.5.59l-.12.09a1.65,1.65,0,0,1-.41.16l-.22.05Q126.75,5.15,126.75,4.7Z" style="fill:#7e9a3d"/><path d="M143,21a.84.84,0,0,1-.48-.76.73.73,0,0,1,.09-.42.83.83,0,0,1,.24-.21,1.2,1.2,0,0,0,.29.47.66.66,0,0,0,.5.19,1.75,1.75,0,0,0,1.11-.52,1.45,1.45,0,0,0,.6-1,.74.74,0,0,0-.27-.57,1.46,1.46,0,0,0-.59-.38l-.91-.29a4.24,4.24,0,0,1-1.39-.54,2,2,0,0,1-.59-.6,6.73,6.73,0,0,1-.36-.71c-.11-.25-.18-.42-.22-.53a3,3,0,0,1-.21-1.14,7.58,7.58,0,0,1,.18-1.35A10.1,10.1,0,0,1,143.25,8a9,9,0,0,1,2.31-2,.75.75,0,0,1,.33-.06c.61,0,.91.14.91.42a.43.43,0,0,1-.18.33,6.79,6.79,0,0,0-1.12,1.15l-.63.81a9.62,9.62,0,0,0-1.32,2.27,6.42,6.42,0,0,0-.58,2.55,2.89,2.89,0,0,0,1.51,2.71l1.56.36a1.62,1.62,0,0,1,.86.83,2.83,2.83,0,0,1,.29,1.25,2.44,2.44,0,0,1-.66,1.65,2.79,2.79,0,0,1-1.57.94,2,2,0,0,1-.63.09A3,3,0,0,1,143,21Z" style="fill:#7e9a3d"/></g></g><g style="isolation:isolate"><g style="isolation:isolate"><path d="M0,31.16H8.85v1.38H1.48v6.22H6.54L6,40.22H1.48v8.16H8.79V49.7H0Z" style="fill:#7e9a3d"/><path d="M22.38,41.36a5.16,5.16,0,0,1,1.3-3.72,4.78,4.78,0,0,1,3.65-1.36,4.6,4.6,0,0,1,3.73,1.41,5.83,5.83,0,0,1,1.2,3.88v3.58A4.83,4.83,0,0,1,31,48.72,4.93,4.93,0,0,1,27.36,50a4.31,4.31,0,0,1-3.55-1.43v6.33l-1.43.42Zm7.41-2.86a4,4,0,0,0-4.94,0,3.63,3.63,0,0,0-1,2.89v3.94a3.13,3.13,0,0,0,.95,2.49,3.78,3.78,0,0,0,2.55.82,3.63,3.63,0,0,0,2.5-.81,3.15,3.15,0,0,0,.91-2.5V41.41A3.66,3.66,0,0,0,29.79,38.5Z" style="fill:#7e9a3d"/><path d="M57.49,38.8a2.91,2.91,0,0,0-1.61-1.17l.85-1.17a3.93,3.93,0,0,1,2.11,1.79,6.08,6.08,0,0,1,.72,3.06v3.41q0,5.3-4.27,5.3a3.83,3.83,0,0,1-1.56-.33,2.84,2.84,0,0,1-1.22-1.07,3.15,3.15,0,0,1-1.24,1.06,3.75,3.75,0,0,1-1.54.34q-4.26,0-4.26-5.3V41.31a6.08,6.08,0,0,1,.72-3.06,3.93,3.93,0,0,1,2.11-1.79l.85,1.17a2.88,2.88,0,0,0-1.61,1.17A3.92,3.92,0,0,0,47,41v4a4.07,4.07,0,0,0,.78,2.74,2.48,2.48,0,0,0,1.92.89,1.71,1.71,0,0,0,1.57-.77,4.85,4.85,0,0,0,.53-2.33V41.78h1.53v3.74a4.65,4.65,0,0,0,.51,2.33,1.71,1.71,0,0,0,1.59.77,2.46,2.46,0,0,0,1.91-.89A4,4,0,0,0,58.08,45V41A3.92,3.92,0,0,0,57.49,38.8Z" style="fill:#7e9a3d"/><path d="M77,48.7a4.22,4.22,0,0,1-.66-2.49V37.86H73.2v-1.4h8v1.4H77.86v8.35a2.53,2.53,0,0,0,1.75,2.7l-.43,1.14A3.86,3.86,0,0,1,77,48.7Z" style="fill:#7e9a3d"/><path d="M103,40.62a2.81,2.81,0,0,0-.94-2.35,3.9,3.9,0,0,0-2.43-.72,6.76,6.76,0,0,0-1.82.25,7.28,7.28,0,0,0-1.65.65V49.7H94.7V36.43h1.48l-.1.9a4.16,4.16,0,0,1,1.61-.83,7.33,7.33,0,0,1,2-.28,5.88,5.88,0,0,1,2.49.48,3.68,3.68,0,0,1,1.66,1.43,4.44,4.44,0,0,1,.59,2.41V55.26L103,54.63Zm-2.44-8.29a.92.92,0,0,1,.9-.61.81.81,0,0,1,.64.27.82.82,0,0,1,.23.58.81.81,0,0,1-.13.45l-1.82,2.43H99.23Z" style="fill:#7e9a3d"/><path d="M123,50.21a4.79,4.79,0,0,1-3.74-1.37A5.43,5.43,0,0,1,118,45.07V40.33a3.63,3.63,0,0,1,1.25-3.1,5.15,5.15,0,0,1,3.22-.95,6.68,6.68,0,0,1,1,0,13.84,13.84,0,0,0,1.65.13,4.23,4.23,0,0,0,1.53-.25,4.58,4.58,0,0,0,1.38-.89l1.09.4a4.78,4.78,0,0,1-1.1,1.34,3.81,3.81,0,0,1-1.42.67,2.83,2.83,0,0,1,.89,1.41,7.35,7.35,0,0,1,.35,2.35v3.58C127.88,48.49,126.25,50.21,123,50.21Zm3.12-10.68a4.93,4.93,0,0,0-.67-1.27c-.23-.3-.39-.44-.46-.42a13,13,0,0,0-2.41-.27,3.52,3.52,0,0,0-2.26.65,2.64,2.64,0,0,0-.81,2.19v4.92a3.49,3.49,0,0,0,1,2.65,4.08,4.08,0,0,0,5,.05,3.51,3.51,0,0,0,.91-2.7V41.49A5.73,5.73,0,0,0,126.1,39.53Z" style="fill:#7e9a3d"/><path d="M151,49.38a12,12,0,0,1-1.63.41,10,10,0,0,1-2.08.2,4.71,4.71,0,0,1-3.25-1.08,3.94,3.94,0,0,1-1.36-2.7l0-.51a3.29,3.29,0,0,1,2-3.39,2.59,2.59,0,0,1-1-1.1,3.46,3.46,0,0,1-.45-1.73c0-.11,0-.28.05-.53a2.77,2.77,0,0,1,1.38-2.11,5.49,5.49,0,0,1,2.81-.67,7.47,7.47,0,0,1,2.51.4v1.35a8.59,8.59,0,0,0-2.49-.37,3.84,3.84,0,0,0-2,.45,1.55,1.55,0,0,0-.77,1.45,2.57,2.57,0,0,0,.53,1.58,1.79,1.79,0,0,0,1.51.7H150l-.51,1.43h-2.65a2.6,2.6,0,0,0-1.93.69,2.55,2.55,0,0,0-.69,1.88,2.76,2.76,0,0,0,.82,2.13,3.56,3.56,0,0,0,2.47.76,8.34,8.34,0,0,0,1.8-.2,12.87,12.87,0,0,0,1.43-.4,5.31,5.31,0,0,0,.71-.28l.43,1.35A7.31,7.31,0,0,1,151,49.38Z" style="fill:#7e9a3d"/><path d="M165,36.43h1.48V49.7H165Z" style="fill:#7e9a3d"/><path d="M186.68,52a2.28,2.28,0,0,0-.3-1.1,2.43,2.43,0,0,0-.87-.91c-.32-.21-.55-.36-.71-.45-1.06-.67-1.9-1.24-2.51-1.72a6.42,6.42,0,0,1-1.52-1.72,4.44,4.44,0,0,1-.61-2.36V40a3.63,3.63,0,0,1,.44-1.68,3.57,3.57,0,0,1,1.45-1.4,5.45,5.45,0,0,1,2.67-.57,6.08,6.08,0,0,1,1.49.16,4.88,4.88,0,0,1,1,.33,4.7,4.7,0,0,1,.45.22l-.5,1.22-.37-.2a6.12,6.12,0,0,0-.82-.29,4.42,4.42,0,0,0-1.19-.14,3.87,3.87,0,0,0-2.23.62,1.89,1.89,0,0,0-.93,1.65v3.29a4.72,4.72,0,0,0,.4,2,5,5,0,0,0,1.31,1.62,22.72,22.72,0,0,0,2.74,1.89,3.86,3.86,0,0,1,1.47,1.45,3.47,3.47,0,0,1,.49,1.76,3,3,0,0,1-.5,1.67l-1.14-.72A1.78,1.78,0,0,0,186.68,52Z" style="fill:#7e9a3d"/></g></g><path d="M161.19,7.82c0-.62.33-1,.89-1s1,.58.95,1.36a.92.92,0,0,1-.83,1h-.07C161.55,9.17,161.17,8.62,161.19,7.82Z" style="fill:#7e9a3d"/><path d="M32,7.82c0-.62.34-1,.89-1s1,.58,1,1.36a.92.92,0,0,1-.83,1H33C32.37,9.17,32,8.62,32,7.82Z" style="fill:#7e9a3d"/><g style="isolation:isolate"><g style="isolation:isolate"><path d="M73.68,92.18c-.09-.08-.15-.12-.21-.12a.67.67,0,0,1-.41-.08c0-.06.08-.17.25-.33h.33l1.81-.25,2.81-.25,2-.16a5.14,5.14,0,0,1,1.07-.09,4.6,4.6,0,0,0,1.07-.08,10.76,10.76,0,0,1,1.37-.08A8.78,8.78,0,0,0,85,90.66a.35.35,0,0,0,.33-.17c.1.17.21.22.33.17a3.5,3.5,0,0,1,1.11-.17h.78c1.65-.11,3-.16,3.88-.16s2.2.08,4,.08a1,1,0,0,0,.21,0c.08,0,.12-.07.12-.13h1.41q0,.17.33.09h2.72c1.21,0,2.09,0,2.64.08a3.73,3.73,0,0,0,.41,0,1.31,1.31,0,0,1,.58,0,2.71,2.71,0,0,0,.83.16,4.75,4.75,0,0,1,1-.08h.91a3.87,3.87,0,0,1,.49,0,1.22,1.22,0,0,0,.58,0,.42.42,0,0,1,.29.12.23.23,0,0,0,.29,0c0-.06.15-.07.28,0l.29,0h1.49a1.24,1.24,0,0,1,.33,0,.76.76,0,0,0,.41,0,.54.54,0,0,1,.25.08c.11.05.19.05.25,0a.43.43,0,0,1,.2.08.26.26,0,0,0,.29,0h1.74a.54.54,0,0,1,.28.08c.09.06.18,0,.29-.08a.33.33,0,0,1,.21.12c.08.09.15.1.21,0h.66a1,1,0,0,1,.24,0,.26.26,0,0,0,.25,0,.57.57,0,0,1,.25.08.27.27,0,0,0,.33-.08c0,.11.19.16.41.16h1.24l.41.08a.86.86,0,0,1,.5.33v.33h-.17a7.38,7.38,0,0,0-2.89-.24l-.24-.09-.09-.08-.16.17c-.06,0-.15-.06-.29-.17s-.24-.08-.29.08a.44.44,0,0,0-.29-.08h-1.36a.37.37,0,0,1-.25-.08.32.32,0,0,0-.25-.08s-.13.05-.24.16a.57.57,0,0,0-.42-.16h-1.81a3.23,3.23,0,0,1-1.16-.17.43.43,0,0,0-.66.17.38.38,0,0,0-.41-.21,2.09,2.09,0,0,1-.33,0h-1.4A.47.47,0,0,1,106,91l-.17.16c-.49-.22-.85-.22-1.07,0a.26.26,0,0,0-.25,0,.26.26,0,0,1-.25,0,2,2,0,0,0-.66-.08H101a.43.43,0,0,1-.33-.09,2.67,2.67,0,0,1-.75.17,3.5,3.5,0,0,1-.91-.13,1.81,1.81,0,0,0-.82,0c-.11-.11-.3-.08-.58.09a.17.17,0,0,0-.25-.09q-.16.09-.24,0a1,1,0,0,0-.42-.08H94.6a.48.48,0,0,0-.33.17.34.34,0,0,0-.33-.13,1,1,0,0,1-.25,0,.79.79,0,0,1-.29-.08c-.14,0-.23,0-.29,0H92.7a.34.34,0,0,0-.33.17l-.16-.17a.52.52,0,0,1-.46.12c-.19,0-.32,0-.37,0-.06-.17-.15-.21-.29-.13s-.23.07-.29,0a.57.57,0,0,1-.41.17H85.81a.37.37,0,0,0-.29.08.39.39,0,0,1-.29,0,.58.58,0,0,0-.2,0,1.2,1.2,0,0,1-.58.08H83.13l-.17.17-.16-.17a1.39,1.39,0,0,1-.75.17,6.28,6.28,0,0,0-1.65,0,15.58,15.58,0,0,1-1.56.12,2.43,2.43,0,0,1-.75.08,2.63,2.63,0,0,0-.82.09,3.62,3.62,0,0,1-.91.08,3.16,3.16,0,0,0-.83.08,7,7,0,0,1-1.32.08l-.24.33A.23.23,0,0,1,73.68,92.18Z" style="fill:#7e9a3d"/></g></g></svg>