<svg xmlns="http://www.w3.org/2000/svg" viewBox="0 0 495.68 210.81"><g style="isolation:isolate"><g style="isolation:isolate"><path d="M8.74,159.84v49.53H0v-67.2H8.74L38.4,191.52V142.17h8.83v67.2H38.4Z" style="fill:#7e9a3d"/><path d="M81.6,142.17h32.06v8.64H90.34v18.92h15l-2.59,8.44H90.34V201.5h23.13v7.87H81.6Z" style="fill:#7e9a3d"/><path d="M172.13,189.69H154.46l-5.08,19.68h-9.7l17.76-67.2h11.42l18.72,67.2H177.41Zm-15.55-9.12H170l-6.92-24Z" style="fill:#7e9a3d"/><path d="M241.05,188.83a9.48,9.48,0,0,1-2.2.19H224v20.35h-8.74v-67.2h23q9.21,0,13.92,6.24t4.7,15.84a67.74,67.74,0,0,1-.43,8.16,24.74,24.74,0,0,1-2.11,7.25,15.81,15.81,0,0,1-5.23,6.29L257,209.37h-8.93Zm3.22-10.9a11.85,11.85,0,0,0,2.93-6,46.07,46.07,0,0,0,.57-7.73q0-7.49-3.12-10.41t-9.07-2.93H224v29.66h13C240.25,180.57,242.7,179.7,244.27,177.93Z" style="fill:#7e9a3d"/></g></g><g style="isolation:isolate"><g style="isolation:isolate"><path d="M344.86,201.5q1.92-2.2,1.92-7.49v-8.25a18.21,18.21,0,0,1-5.28,2.35,23.73,23.73,0,0,1-6.62.91q-10,0-16-5.47t-6-15.17V142.17h8.73v25.92q0,6.15,3.46,9.22t9.79,3.07a16.27,16.27,0,0,0,7.92-1.68,8.29,8.29,0,0,0,4-4.17V142.17h8.74V194.4q0,7.4-3,11.52t-9.84,4.89l-2.6-6.52A8.37,8.37,0,0,0,344.86,201.5Z" style="fill:#7e9a3d"/><path d="M416.72,205.87a22.49,22.49,0,0,1-14.16,4.56,25.69,25.69,0,0,1-9.79-1.87,16.65,16.65,0,0,1-7.54-6.1q-2.93-4.22-2.93-10.85V160.7q0-9.88,5.43-15t14.93-5.09q9.49,0,14.73,5.37t5.23,14.79v30.81Q422.62,201.32,416.72,205.87Zm-5.47-52.75q-2.64-3.27-8.79-3.27c-4.09,0-7,1.08-8.78,3.22S391,158.4,391,162.62v27.75c0,3.58,1,6.37,3,8.35s4.82,3,8.4,3a11.41,11.41,0,0,0,8.31-3c2.08-2,3.12-4.81,3.12-8.4V162.72C413.89,158.49,413,155.3,411.25,153.12Z" style="fill:#7e9a3d"/><path d="M495.68,142.08v49.44q0,9.69-5.9,14.11a25.28,25.28,0,0,1-28.56,0q-6-4.41-6-14.11V142.08H464V189q0,12.58,11.42,12.58T486.94,189V142.08Z" style="fill:#7e9a3d"/></g></g><path d="M344.7,95.45a80.19,80.19,0,0,1,.27-8c.4-5.64,1.08-11.41,1.48-17.18.54-6.17,1.07-12.34,1.48-18.51a29.65,29.65,0,0,0-.54-9.67c-.4-1.74-1.34-2.14-2.42-.8a82.46,82.46,0,0,0-7.78,10.6c-6.17,10.33-11,21.47-15.43,32.74-.8,2.15-1.61,4.16-2.42,6.31a3.12,3.12,0,0,1-2.55,1.88c-1.88.27-3.08-.54-3.22-2.42s-.13-4-.13-5.9c.27-6.44.67-13,.67-19.45,0-4.84-.4-9.8-.81-14.77a6.9,6.9,0,0,0-.4-1.61c-1.2-3.08-2.81-3.62-5.36-1.34A42.2,42.2,0,0,0,301.23,54c-7.92,11.27-14.09,23.35-17.58,36.77a12.93,12.93,0,0,1-.94,3.22c-.54.67-1.47,1.61-2.28,1.61s-1.61-1.07-2-1.74A4.9,4.9,0,0,1,278,91c.13-8.86.4-17.72.53-26.57a91.51,91.51,0,0,0-.4-13.55c-2.14,5-4.16,9.93-6.44,14.76-3.35,6.84-6.57,13.68-10.2,20.4a34.93,34.93,0,0,1-6.44,7.64c-4,3.63-9.39,3.23-12.61-1.07A32.65,32.65,0,0,1,239,85.4c-.94-2.29-.81-2.29-2.82-1.88-5.64,1.2-9.8-.4-13.15-5.24A35.31,35.31,0,0,1,218.57,68c-.8-2.42-1.88-4.7-2.68-7-2.55,1.48-3.09,4.16-4.16,6.44a125.61,125.61,0,0,0-9.26,25.77c-.14.53-.14,1.07-.27,1.61-.4,1.07-1.07,2.41-2.42,2a7.55,7.55,0,0,1-2.28-2.29c-.26-.27,0-1.08,0-1.61-.4-11-.67-22-.93-33,0-1.08-.14-2.15-.27-4-2.15,7.38-3.89,14-5.77,20.67a61.09,61.09,0,0,1-6.18,14.22,12.1,12.1,0,0,1-5.1,5A7.59,7.59,0,0,1,170,94.24a17.76,17.76,0,0,1-4.83-6.84c-4.29-10.6-4.83-21.6-3.75-32.75.26-2.41.4-2.28-2-2-4,.4-8,.94-12.07,1.34a9.5,9.5,0,0,1-3.36-.27,1.84,1.84,0,0,1-1.75-1.93.22.22,0,0,1,0-.08,2.21,2.21,0,0,1,2.14-2.15c2.82-.26,5.64-.53,8.32-.8s5.1-.67,7.65-.94a2.29,2.29,0,0,0,2.41-2.18.34.34,0,0,0,0-.1c.4-2.68.94-5.23,1.47-7.92a3.85,3.85,0,0,1,.54-1.61c.54-.94,1.34-2,2.68-1.34a2.81,2.81,0,0,1,1.21,2.28c-.4,3-.94,5.9-1.47,8.72a4.93,4.93,0,0,0,.13,1.21c3.22-.4,6.58-.8,9.93-1.07,1.88-.14,3.89-.4,5.77-.4s2.55.94,2.55,2.28-.94,2-2,2.28l-7.92.8c-2.28.14-4.56.27-6.71.54S166.1,52,166,54.12c-.27,9.53-.94,19.19,2.41,28.45A39.69,39.69,0,0,0,172,89.68c2.15,3.09,5.1,2.95,7.38,0a39,39,0,0,0,6.17-13.29c2.82-10.6,5.77-21.33,8.59-32.07a31.3,31.3,0,0,1,2.28-5.9A3,3,0,0,1,198.7,37a2.59,2.59,0,0,1,2.55,2.28,16.88,16.88,0,0,1,.27,3.75c0,10.47-.13,20.94-.13,31.27,0,1.34.27,2.55.27,3.89,2.55-5.5,5.1-10.87,7.64-16.23a20.45,20.45,0,0,1,3-4.57c2.55-3.08,6.57-2.41,8.05,1.21,1.34,3.36,2.14,6.71,3.22,10.07a21.8,21.8,0,0,0,4.29,8.18,6.47,6.47,0,0,0,6.31,2.42c2.41-.4,3.09-1.08,3.22-3.63.4-6.3,1.07-12.61,3.36-18.51a23.74,23.74,0,0,1,5.36-8.59c3.36-3,7.65-1.61,8.86,2.68,1.21,4.7.27,9.26-1.48,13.55a33.74,33.74,0,0,1-8.32,13.16c-2.28,2.14-2.55,4.42-1.47,7.11a29.5,29.5,0,0,0,2,4.16c1.48,2.41,3.89,2.95,6.17,1.21a19.85,19.85,0,0,0,4.3-4.57,71.33,71.33,0,0,0,5.77-9.8c3.08-6.44,5.63-13.15,8.59-19.72,1.47-3.36,3.22-6.58,4.83-9.93,1.07-2,2.28-4.16,5.1-3.49s2.81,3.09,2.95,5.1c.13,4.83-.14,9.8-.27,14.76V76.8c3.36-6.31,6.44-12.61,9.93-18.79A52.73,52.73,0,0,1,305,43.25c3-2.55,6.71-3,9.53-.67a9.79,9.79,0,0,1,3.09,5.9c1.47,7.52.67,15.17.8,22.68.14,2.55,0,5.1,0,7.51a.8.8,0,0,0,.54.14c2.28-5.23,4.56-10.47,7-15.7,3.75-8,7.91-15.84,13.42-22.81a17.39,17.39,0,0,1,4.16-3.63c3.35-1.88,6.57-.8,7.91,2.69a12.64,12.64,0,0,1,1.08,5,261.27,261.27,0,0,1-1.61,27c-.54,4.57-.67,9.26-1.08,13.82L349,95.58c-.13,1.34-.8,2.15-2.14,2.15a2,2,0,0,1-2.17-1.85A3.09,3.09,0,0,1,344.7,95.45ZM248,66.06c1.75-3.75,3.36-7.78,2.69-12.07a2.23,2.23,0,0,0-1.08-1.75c-.26-.13-1.2.54-1.47.94-4,6.17-5.5,13-6,20.26l.8.4c1.75-2.54,3.76-5,5.11-7.78Z" style="fill:#7e9a3d"/><g style="isolation:isolate"><g style="isolation:isolate"><path d="M211.64,0H224V2H213.71v8.66H220l-.85,2h-5.48V25.94h-2.07Z" style="fill:#7e9a3d"/><path d="M237.54,1.92l-2.48-.07V0h4.55v25.9h-2.07Z" style="fill:#7e9a3d"/><path d="M254.74,3.85V25.94h-2.07V0h2.07L268.8,22.13V0h2.08v25.9H268.8Z" style="fill:#7e9a3d"/><path d="M284.12,0h7c2.79,0,4.91.76,6.38,2.29a8.45,8.45,0,0,1,2.2,6.11V18.54q0,7.4-7.84,7.4h-7.7Zm12.56,4.53a5.32,5.32,0,0,0-2.31-2,7.07,7.07,0,0,0-2.92-.63h-5.26v22.2h5A8.88,8.88,0,0,0,295.76,23c1.22-.7,1.83-2.08,1.83-4.12V8A6.24,6.24,0,0,0,296.68,4.53Z" style="fill:#7e9a3d"/></g></g><path d="M183.55,13.41c0-.4-.33-.57-.66-.7l-1.49-.6c-.82-.33-1.64-.68-2.43-1,0-1.28,0-2.46-.1-3.64a12,12,0,0,0-.32-2.15c-.19-.71-.74-.84-1.28-.34a2.64,2.64,0,0,0-.55.74c-.72,1.34-1.42,2.68-2.19,4.14l-3.84.07a4.12,4.12,0,0,0-.92.07c-.59.15-.76.63-.36,1.08a4.33,4.33,0,0,0,1,.76c.84.5,1.7,1,2.6,1.48-.47.77-.92,1.44-1.31,2.15s-.87,1.64-1.25,2.48c-.24.54.1.88.67.75a1.29,1.29,0,0,0,.47-.19c1.1-.73,2.19-1.47,3.29-2.22.27-.19.52-.39.83-.63.32.5.61.92.86,1.35.55.92,1.08,1.85,1.61,2.77.15.25.34.55.65.38a1.32,1.32,0,0,0,.58-.65,2.84,2.84,0,0,0,0-.92c0-1.17,0-2.34-.08-3.52.6-.11,1.18-.19,1.75-.33s1.24-.36,1.85-.58A.73.73,0,0,0,183.55,13.41Z" style="fill:#7e9a3d"/><path d="M342.1,13.41c0-.4-.33-.57-.65-.7-.5-.2-1-.39-1.49-.6-.83-.33-1.65-.68-2.44-1,0-1.28,0-2.46-.1-3.64a12,12,0,0,0-.32-2.15c-.18-.71-.74-.84-1.28-.34a2.61,2.61,0,0,0-.54.74c-.72,1.34-1.43,2.68-2.2,4.14l-3.83.07a4,4,0,0,0-.92.07c-.59.15-.76.63-.36,1.08a4.13,4.13,0,0,0,1,.76c.83.5,1.69,1,2.6,1.48-.48.77-.92,1.44-1.31,2.15s-.88,1.64-1.26,2.48c-.23.54.1.88.68.75a1.32,1.32,0,0,0,.46-.19c1.1-.73,2.2-1.47,3.29-2.22.27-.19.52-.39.83-.63.33.5.61.92.87,1.35l1.61,2.77c.15.25.34.55.65.38a1.25,1.25,0,0,0,.57-.65,2.58,2.58,0,0,0,0-.92c0-1.17-.05-2.34-.08-3.52.6-.11,1.18-.19,1.75-.33a18.93,18.93,0,0,0,1.85-.58A.73.73,0,0,0,342.1,13.41Z" style="fill:#7e9a3d"/><g style="isolation:isolate"><g style="isolation:isolate"><path d="M190.56,118.92a.84.84,0,0,0-.52-.31,1.66,1.66,0,0,1-1-.21q0-.21.63-.84h.84c.13,0,1.67-.21,4.59-.62l7.11-.63,5-.42a14.17,14.17,0,0,1,2.71-.21,12.4,12.4,0,0,0,2.72-.21,26.14,26.14,0,0,1,3.45-.21,19.25,19.25,0,0,0,3.24-.21.83.83,0,0,0,.83-.41c.28.41.56.56.84.41a9.19,9.19,0,0,1,2.82-.41h2q6.27-.42,9.82-.42,3.35.21,10,.21a1.43,1.43,0,0,0,.52-.11c.21-.07.32-.17.32-.31H250q0,.42.84.21h6.89q4.61,0,6.69.21a5.67,5.67,0,0,0,1.05-.11,3.62,3.62,0,0,1,1.46.11,6.86,6.86,0,0,0,2.09.42,11.09,11.09,0,0,1,2.51-.21h2.3a10.9,10.9,0,0,1,1.25.1,3.27,3.27,0,0,0,1.46-.1,1,1,0,0,1,.74.31.56.56,0,0,0,.73.1.81.81,0,0,1,.73-.1,4.1,4.1,0,0,0,.73.1h3.76a3.46,3.46,0,0,1,.84.11,1.8,1.8,0,0,0,1-.11,1.8,1.8,0,0,1,.63.21q.42.21.63,0a1.14,1.14,0,0,1,.52.21.68.68,0,0,0,.73,0H292a1.28,1.28,0,0,1,.73.21c.21.14.45.07.73-.21a.88.88,0,0,1,.53.32c.2.21.38.24.52.1h1.67a3,3,0,0,1,.63.11.61.61,0,0,0,.62-.11,1.61,1.61,0,0,1,.63.21.69.69,0,0,0,.84-.21c.13.28.48.42,1,.42h3.14a6.49,6.49,0,0,1,1,.21,2.1,2.1,0,0,1,1.26.83v.84H305a18.57,18.57,0,0,0-7.32-.63l-.62-.21-.21-.21-.42.42a1.47,1.47,0,0,1-.73-.42c-.35-.27-.6-.2-.73.21a1.09,1.09,0,0,0-.74-.21h-3.44a.85.85,0,0,1-.63-.2.86.86,0,0,0-.63-.21c-.14,0-.35.14-.62.41a1.47,1.47,0,0,0-1-.41h-4.6a8.06,8.06,0,0,1-2.92-.42,1.08,1.08,0,0,0-1.68.42,1,1,0,0,0-1-.53,5.22,5.22,0,0,1-.84.11h-3.55a1.21,1.21,0,0,1-.84-.42l-.41.42c-1.26-.56-2.17-.56-2.72,0a.65.65,0,0,0-.63-.11.58.58,0,0,1-.62-.1,5.46,5.46,0,0,0-1.68-.21h-6.48a1.2,1.2,0,0,1-.83-.21,6.69,6.69,0,0,1-1.88.42,9.42,9.42,0,0,1-2.3-.31,4.38,4.38,0,0,0-2.09-.11q-.42-.42-1.47.21a.41.41,0,0,0-.62-.21q-.42.21-.63,0a2.32,2.32,0,0,0-1-.21h-5.44a1.17,1.17,0,0,0-.83.42.87.87,0,0,0-.84-.31,2.8,2.8,0,0,1-.63.1,2.39,2.39,0,0,1-.73-.21c-.35-.13-.59-.13-.73,0h-1.05a.84.84,0,0,0-.83.42l-.42-.42a1.28,1.28,0,0,1-1.15.32c-.49-.07-.8,0-.94.1-.14-.42-.38-.52-.73-.31s-.6.17-.73-.11a1.42,1.42,0,0,1-1.05.42h-11.6a1,1,0,0,0-.73.21.9.9,0,0,1-.73.1,2,2,0,0,0-.52-.1,2.79,2.79,0,0,1-1.47.21h-3.34l-.42.42-.42-.42a3.38,3.38,0,0,1-1.88.42,17.32,17.32,0,0,0-4.18.1,38.16,38.16,0,0,1-4,.31,5.94,5.94,0,0,1-1.88.21,7.73,7.73,0,0,0-2.09.21,8.37,8.37,0,0,1-2.3.21,7.33,7.33,0,0,0-2.09.21,18.85,18.85,0,0,1-3.34.21l-.63.84A.58.58,0,0,1,190.56,118.92Z" style="fill:#7e9a3d"/></g></g></svg>