<svg xmlns="http://www.w3.org/2000/svg" viewBox="0 0 210.8 134.93"><g style="isolation:isolate"><g style="isolation:isolate"><path d="M50.42,26.82a1.28,1.28,0,0,1-.62-.39,1,1,0,0,1-.21-.67,8.18,8.18,0,0,0,0-1q0-.42,0-.69a10,10,0,0,1,0-1.1l0-1.33c0-.28,0-.45-.13-.53a1.73,1.73,0,0,0-.69-.21,5.77,5.77,0,0,1-2.3-.92,4.26,4.26,0,0,1-1.38-1.53,9.06,9.06,0,0,1-.73-2.19,11.22,11.22,0,0,1-.23-2.11,15.17,15.17,0,0,1,.46-3.63A16.48,16.48,0,0,1,45.87,7a3.2,3.2,0,0,1,1.52-1.56,1.89,1.89,0,0,1,.92-.28,1.48,1.48,0,0,1,1.19.64,1.41,1.41,0,0,0,.48.46l.44.28a.73.73,0,0,0,.23-.6A15.3,15.3,0,0,1,50.83,4c.06-.33.13-.78.19-1.33a1.32,1.32,0,0,1,.46-.92,1.41,1.41,0,0,1,1-.37,2.7,2.7,0,0,1,.55.1l.37.41.23,2.25c.06.61.09,1,.09,1.06a1.71,1.71,0,0,1,0,.5v.18c0,.34.22.43.65.28a2.51,2.51,0,0,1,.5-.09A1.59,1.59,0,0,1,56.21,7l.69,1.61c0,.18.1.57.23,1.17a8.36,8.36,0,0,1,.18,1.63v1.06a11.86,11.86,0,0,1-.14,2.11L57,16.12l-.09.74-.73,2.7a9.3,9.3,0,0,1-.92,1.8l-1.38.41a1.45,1.45,0,0,1-.41-.09q-.33-.13-.33.18v3a10.78,10.78,0,0,1-.09,1.29c0,.4-.26.58-.69.55h-.18a2.07,2.07,0,0,0-.69.14,2.74,2.74,0,0,1-.46.09A1.64,1.64,0,0,1,50.42,26.82Zm-.69-8.73c0-.3,0-.82.05-1.56s.07-1.37.13-1.93l.42-5.18,0-.42a1.6,1.6,0,0,0-.13-.69c-.1-.18-.26-.44-.49-.78s-.39-.58-.48-.73-.29-.32-.5-.14A1.45,1.45,0,0,0,48,7.85q0,.6-.09,1.89a19,19,0,0,0-.09,2.57,12.22,12.22,0,0,0,.5,3.76,6,6,0,0,1,.28.95A7.76,7.76,0,0,0,49,18.23c.12.25.24.37.36.37S49.67,18.43,49.73,18.09ZM54.92,20a5.78,5.78,0,0,0,.6-1.86,17.6,17.6,0,0,0,.36-2.25c0-.34,0-.72.07-1.15a8.62,8.62,0,0,0,.07-.92c.06-.67.09-1.11.09-1.33a2.81,2.81,0,0,0,0-.59,7.33,7.33,0,0,0,0-.92,12.19,12.19,0,0,0-.29-2.6c-.2-.87-.49-1.32-.85-1.35a.64.64,0,0,0-.53.27.84.84,0,0,0-.21.42,4.57,4.57,0,0,0-.6,2.25l-.09,2.2c-.15,3.06-.23,4.84-.23,5.33l0,2.34a1.29,1.29,0,0,0,.21.76.57.57,0,0,0,.48.3Q54.46,20.9,54.92,20Z" style="fill:#f6f6f6"/><path d="M68.28,25.9q0-.78-.09-2.43c0-.34,0-.94-.07-1.82s-.05-1.64,0-2.32a5.1,5.1,0,0,0,0-.87c0-.27,0-.52,0-.73v-1c0-.65,0-1.38.09-2.21s.11-1.4.14-1.74c.12-1.26.2-2.25.23-3,.06-1,.21-2.37.46-4.18l.14-1c.09-.68.26-1.66.5-2.94a1,1,0,0,1,.69-1,1.45,1.45,0,0,1,.41-.09,1.35,1.35,0,0,1,1.08.53,1.53,1.53,0,0,1,.35,1.22c0,.43-.11,1-.23,1.83l1.1-1.4a7.9,7.9,0,0,1,2-1.88A4.25,4.25,0,0,1,77.33.18,1.55,1.55,0,0,1,78.85,1a4.59,4.59,0,0,1,.36,1.93,15.09,15.09,0,0,1-.87,4.32,7.49,7.49,0,0,1-.59,1.28,15.45,15.45,0,0,1-1.54,2.55A3.45,3.45,0,0,1,74.3,12.4a9.65,9.65,0,0,1-2.62.14.37.37,0,0,0-.27.09.94.94,0,0,0-.19.37,28.44,28.44,0,0,1-.13,3.07l0,1.38a10,10,0,0,0,0,1.2c0,.33,0,.61,0,.82v1c0,.77,0,1.35-.05,1.75s0,1.33.05,2.43q.09.82.09,1.2l.05.27c0,.22-.2.43-.6.65a2.56,2.56,0,0,1-1.19.32Q68.37,27.1,68.28,25.9Zm4.78-15.41a4.91,4.91,0,0,0,1.19-1.17,7.09,7.09,0,0,1,.56-.57,4.63,4.63,0,0,0,.55-.62,12.5,12.5,0,0,0,2.16-6c0-.61-.17-.92-.51-.92-.58,0-1.33.51-2.25,1.54A20.85,20.85,0,0,0,72,6.89,2.33,2.33,0,0,0,71.64,8a7.43,7.43,0,0,0-.09,1.33,9.22,9.22,0,0,1,0,1.06v.28c0,.27.12.41.37.41A2.35,2.35,0,0,0,73.06,10.49Z" style="fill:#f6f6f6"/><path d="M91.62,27h-.1l-.82,0a1.79,1.79,0,0,1-1.2-.43,1.84,1.84,0,0,1-.59-1.22,21.68,21.68,0,0,1,0-2.32q0-1.58.18-2.73c.06-.64.15-1.29.27-1.93,0-.28.08-.62.14-1s.11-.88.14-1.4l.09-1.29A8.2,8.2,0,0,1,90,12a2.59,2.59,0,0,0,.05-.9,4.25,4.25,0,0,1,0-.89c.15-1.32.35-3.49.59-6.53a11.93,11.93,0,0,0,.19-1.79l-.05-.82a.69.69,0,0,1,0-.28.58.58,0,0,1,.13-.44.8.8,0,0,1,.46-.11,9.53,9.53,0,0,1,1.29.14H93l2.21,0a8.9,8.9,0,0,1,1,0,4.47,4.47,0,0,0,.74,0A7.35,7.35,0,0,0,98.41.28a1.7,1.7,0,0,1,1,.32c.42.24.67.46.73.64a.37.37,0,0,1,0,.23c0,.21-.13.34-.37.37l-.74,0-4.22-.36-.64-.05c-.22,0-.31.14-.28.41a2.79,2.79,0,0,0,0,.55A41.33,41.33,0,0,1,94.14,7a6.9,6.9,0,0,0,.41,2v1.43c0,.7,0,1.24,0,1.6l.05,1.7a7.79,7.79,0,0,1-.05,1c0,.28.15.42.46.42a17.58,17.58,0,0,1,1.79,0c.28,0,.41.12.41.37a.41.41,0,0,1-.36.41l-2,.05a.51.51,0,0,0-.5.41A27.56,27.56,0,0,0,94,20.21L93.68,23c0,.19-.07.43-.11.74a4.77,4.77,0,0,0-.07.78,1.7,1.7,0,0,0,.09.73c.06.1.23.14.5.14h2.44c.31,0,.58,0,.83,0a2.16,2.16,0,0,0,.55,0,2.32,2.32,0,0,1,1.33.41,1.79,1.79,0,0,1,.25.23.27.27,0,0,1,0,.33,1,1,0,0,1-.62.5,3.73,3.73,0,0,1-.84.09H97.4l-1-.09-1.1-.09a5.13,5.13,0,0,0-1.11.18,5.86,5.86,0,0,1-1.38.23A3.93,3.93,0,0,1,91.62,27Z" style="fill:#f6f6f6"/><path d="M110.49,26.5c-.28-.15-.38-.34-.32-.55a2.1,2.1,0,0,1-.37-1.2,3.37,3.37,0,0,1,.28-1.28q.27-.69.36-.87A46.09,46.09,0,0,1,113.8,16c.3-.49.56-.92.75-1.29s.36-.67.49-.92c.33-.67.73-1.39,1.19-2.15a3.94,3.94,0,0,0,.78-1.24,4.77,4.77,0,0,0-.94-1.93c-.63-1-1.28-1.86-1.95-2.71-.37-.49-.67-.91-.9-1.24a4,4,0,0,1-.52-1.11L112,.87V.74a1.31,1.31,0,0,1,.09-.58.27.27,0,0,1,.32-.11,15.15,15.15,0,0,0,1.93.09c.7,0,1.76,0,3.17-.09a5.36,5.36,0,0,1,.82,0h2.48c.52,0,1.14.46,1.84,1.38a1.56,1.56,0,0,1,.37,1.1,1.76,1.76,0,0,1-.3,1c-.2.29-.39.44-.57.44a.78.78,0,0,1-.37-.14,4.76,4.76,0,0,0-2.32-.55,11,11,0,0,1-1.54,0c-.76-.12-1.56-.21-2.39-.27l-1.28-.14a2.79,2.79,0,0,0-.55.05,4.92,4.92,0,0,0,1,1.74,30.12,30.12,0,0,1,3.12,4.46,4.71,4.71,0,0,0,.67.94c.29.32.51.56.67.71a1.32,1.32,0,0,1,.32.87,3.46,3.46,0,0,1-.28,1,4.8,4.8,0,0,1-.41.9,10.25,10.25,0,0,1-.83,1.79l-.5,1a8.44,8.44,0,0,0-.51,1.15,22.74,22.74,0,0,1-1.47,2.75,11.08,11.08,0,0,0-.64,1.36c-.31.72-.52,1.23-.64,1.54q-.11.18,0,.27a.27.27,0,0,0,.27.05,3.53,3.53,0,0,1,.87-.14l.92.05a3.36,3.36,0,0,0,.51-.05l.59-.09a13.17,13.17,0,0,1,2.44-.32,1.12,1.12,0,0,1,.94.32,1.44,1.44,0,0,1,.25.92l0,1.05a3.39,3.39,0,0,1-.12,1,.53.53,0,0,1-.39.39,21.65,21.65,0,0,1-2.3.09h-2.34q-1.23,0-3.63.09a1.31,1.31,0,0,1-.68.23A1.6,1.6,0,0,1,110.49,26.5Z" style="fill:#f6f6f6"/><path d="M144.2,27.1A13.92,13.92,0,0,1,143,24.71c-.38-.95-1-2.82-2-5.6l-1.93-5.61a2.91,2.91,0,0,1-.12-.32.72.72,0,0,0-.25-.37,2.87,2.87,0,0,0-.78.83c-.09.12-.21.3-.35.53a2,2,0,0,1-.43.53.47.47,0,0,0-.19.41v.32a6.33,6.33,0,0,0,.05,1.24,7.64,7.64,0,0,1,.09,1l0,4.31a13.25,13.25,0,0,1-.28,3.36,1.44,1.44,0,0,1-.73,1c-.34.15-.48.33-.42.55a6.37,6.37,0,0,1-1.24.18,2.12,2.12,0,0,1-1-.23.56.56,0,0,0-.13-.32,3.31,3.31,0,0,1-.39-1.45,17,17,0,0,1-.12-1.95v-.73a3.42,3.42,0,0,0-.05-.74,12.69,12.69,0,0,1-.09-1.28l.05-.88c.06-.52.1-1,.11-1.35s0-.7,0-.94c0-.8,0-1.38,0-1.75s0-1,0-2q.31-6.06.5-8.22c.13-1.53.23-2.68.33-3.45,0-.37,0-.58-.1-.64l.1-.37a5.55,5.55,0,0,1,.87-.09,6.7,6.7,0,0,1,.85.05l.57.09a2.2,2.2,0,0,1,.37.46l0,.55.28,1.1c0,.12.08.43.14.92a7.21,7.21,0,0,1,0,1.38,4.56,4.56,0,0,0,0,1c0,.38.07.65.07.8,0,.59,0,1.08,0,1.5s0,.75,0,1l0,1.1c0,.09,0,.41-.09,1a25.54,25.54,0,0,0,2.32-3.1,36.91,36.91,0,0,0,2-3.47c.4-.8.84-1.66,1.33-2.57s.82-1.38,1-1.38.25.14.39.41a1.64,1.64,0,0,1,.21.69,1.23,1.23,0,0,1-.14.51L141.9,7.49l-.59,1.24c-.16.27-.48.81-1,1.6a4.57,4.57,0,0,0-.82,1.57,1.13,1.13,0,0,0,.13.5l.51,1.15c.21.49.47,1,.78,1.61a7.42,7.42,0,0,1,.57,1.26c.17.47.29.79.35.94q1.38,3.81,2.34,6.84l.41,1.06q0,.14.3.69a2.31,2.31,0,0,1,.26.92c0,.36-.28.5-.83.41Z" style="fill:#f6f6f6"/><path d="M155.71,26.57c-.45-.29-.67-.56-.67-.81a31.06,31.06,0,0,1,.37-3.94c.3-2.21.55-3.86.73-5a67.07,67.07,0,0,1,1.79-7.95l.37-1.38c.15-.7.34-1.39.55-2.06.06-.25.21-.79.46-1.61s.47-1.52.69-2.07a7.47,7.47,0,0,1,.6-1.28l1.19-.1a1.69,1.69,0,0,1,1.4.78A4.3,4.3,0,0,1,164,2.85l1.79,13.32a48,48,0,0,1,.46,5.55,20.08,20.08,0,0,0,.37,3.31c.06.28.12.63.18,1.06a1.15,1.15,0,0,1,.05.36q0,.51-.42.51a1,1,0,0,1-1-.71,4.34,4.34,0,0,1-.3-1.68,26.14,26.14,0,0,0-.32-3.67c0-.34-.08-.76-.14-1.27s-.11-1.08-.14-1.72c0-.3-.14-.46-.41-.46l-1.79,0c-.22,0-.72,0-1.52.09a.79.79,0,0,0-.67.43,6,6,0,0,0-.34.83c-.09.29-.15.5-.18.62a7.9,7.9,0,0,0-.49,1.95c-.1.78-.17,1.31-.2,1.59s-.11.55-.23,1.19a11.89,11.89,0,0,1-.42,1.63c-.15.45-.3.7-.45.76l-.88.46A1.94,1.94,0,0,1,155.71,26.57Zm8.47-10a.73.73,0,0,0,.23-.62l-1-7.81L163,4.82a6.09,6.09,0,0,0-.3,1.45c0,.54-.08.9-.11,1.08a39.43,39.43,0,0,1-.88,4.27c-.52,2.14-.84,3.37-1,3.67a2.13,2.13,0,0,0-.09.65c0,.43.17.64.5.64a12.67,12.67,0,0,1,1.29.09l1,0A1.4,1.4,0,0,0,164.18,16.56Z" style="fill:#f6f6f6"/></g></g><g style="isolation:isolate"><g style="isolation:isolate"><path d="M48.18,134.93H46.53l-7.13-21.7-7,21.7H30.79l7.88-24.11h1.48Z" style="fill:#f6f6f6"/><path d="M67.23,134.93H65.57l-3-8.81H54.35l-2.9,8.81H49.83l7.93-24.11H59.2Zm-5-10.33-3.72-11.26L54.83,124.6Z" style="fill:#f6f6f6"/><path d="M80.11,121.19l6.37-10.37h1.79L81,122.67l7.78,12.23-1.89,0-6.82-10.67-6.82,10.67H71.36l7.82-12.26L72,110.82h1.73Z" style="fill:#f6f6f6"/><path d="M108.53,134.93h-1.66l-3-8.81H95.64l-2.89,8.81H91.13l7.92-24.11h1.45Zm-5-10.33-3.72-11.26L96.13,124.6Z" style="fill:#f6f6f6"/><path d="M128.16,132.11V110.82h1.51v24.11h-1.51l-13.88-21.32v21.32h-1.55V110.82h1.55Z" style="fill:#f6f6f6"/><path d="M139.53,134.93H138V112.27l-2.48-.07v-1.38h4Z" style="fill:#f6f6f6"/><path d="M148,122.91l8.55-12.12h1.79L151.1,121l9,13.91h-1.83l-8.13-12.47-2.17,3.1v9.37h-1.55V110.79H148Z" style="fill:#f6f6f6"/><path d="M179.79,134.93h-1.65l-3-8.81h-8.27L164,134.93H162.4l7.92-24.11h1.45Zm-5-10.33L171,113.34l-3.65,11.26Z" style="fill:#f6f6f6"/></g></g><g style="isolation:isolate"><g style="isolation:isolate"><path d="M26.26,63.5a.69.69,0,0,1-.41-.41,5,5,0,0,1-.64-2.62l0-2.62c.06-1.74.08-3.05.05-3.9q0-2.49.09-3.72c0-.58,0-1.47,0-2.67.07-.67.19-1.8.37-3.39L26,42.56l.13-1.33c.06-.62.13-1.08.19-1.38a5.42,5.42,0,0,1,.16-.69c.07-.28.13-.51.16-.69a.85.85,0,0,0-.12-.32.48.48,0,0,1-.06-.37,1.1,1.1,0,0,1,1.14-.64,1.08,1.08,0,0,1,.88.41,8.12,8.12,0,0,1,.64,1l.5,1q.74,1.24,2.3,3.72a6.37,6.37,0,0,1,.37.65,1.64,1.64,0,0,0,.5.64,14.81,14.81,0,0,1,1.11-2.34l.5-1.06a12.61,12.61,0,0,0,.83-1.7,19.17,19.17,0,0,1,1-1.93A1.05,1.05,0,0,1,37.1,37a1.1,1.1,0,0,1,.64.22.67.67,0,0,1,.32.56l0,.73c0,.55,0,1,0,1.42s.07.72.1,1c0,.82,0,2,0,3.67v1.52c0,.43,0,1.05,0,1.88v1.93c0,.31,0,.68,0,1.13s0,1,0,1.58a7.79,7.79,0,0,0,0,1c0,2.3,0,3.67-.09,4.13S38,59.09,38,60.29c0,.39,0,1,0,1.79a1.56,1.56,0,0,1-.3.92c-.2.27-.36.41-.48.41s-.27-.18-.35-.53a3.54,3.54,0,0,1-.07-1.08l.09-1.33a10.88,10.88,0,0,0,0-1.15c0-1.19,0-2.1,0-2.71,0-.34,0-.78,0-1.33s0-1.2,0-1.93a19.13,19.13,0,0,1,0-2.16c.06-.73.09-1.3.09-1.7V45.31a12.56,12.56,0,0,0-.14-2.89c-.09.09-.72,1.45-1.88,4.09-.09.24-.43.37-1,.37s-1.15-.43-1.61-1.29c-.88-1.53-1.59-2.82-2.11-3.86l-.55-.83a4.12,4.12,0,0,1-.69-1c0,.16-.08.43-.14.81a2.45,2.45,0,0,0,0,.94,15.15,15.15,0,0,1,.09,1.93c0,.67,0,1.18,0,1.51a2.45,2.45,0,0,1,.05.6c0,.4,0,.77-.05,1.13s0,.63,0,.85a5.79,5.79,0,0,1,0,1.1,6.8,6.8,0,0,1,0,1.15l-.18,3.3.05.87a19.64,19.64,0,0,1,.09,3.36c-.09,1-.17,2.34-.23,4.18a1.93,1.93,0,0,1-.07.64.61.61,0,0,1-.3.32.83.83,0,0,0-.41.51.67.67,0,0,1-.92.55A3.48,3.48,0,0,1,26.26,63.5Z" style="fill:#f6f6f6"/><path d="M54.09,63.45a1.86,1.86,0,0,1-.78-1.1l.09-7v-1.1c0-.25,0-.54,0-.9s0-.77,0-1.26.1-1.21.12-1.79a11.19,11.19,0,0,1,.07-1.2l-.23-.5-2.94-6.29a11.4,11.4,0,0,1-.69-2,2,2,0,0,0-.37-.92.83.83,0,0,1-.14-.32.93.93,0,0,1,.19-.46,4,4,0,0,1,.5-.67.52.52,0,0,1,.39-.09,3.13,3.13,0,0,0,.39,0c.56,0,.89.19,1,.55.31.74.94,2,1.89,3.82l1,1.79a2.55,2.55,0,0,0,.41.64,2.74,2.74,0,0,1,.33.41L56,44c.74-1.11,1.27-2,1.61-2.53s.92-1.62,1.65-2.85a2.91,2.91,0,0,1,.39-.62c.2-.26.35-.39.44-.39s.24.14.37.42a1.76,1.76,0,0,1,.18.69,1.28,1.28,0,0,1-.14.55,38.31,38.31,0,0,0-1.88,3.49c-.12.21-.43.77-.92,1.67a16.41,16.41,0,0,0-1.15,2.64,5.49,5.49,0,0,0-.27,1.7v.42l0,1.51c.06.74.09,1.27.09,1.61l-.09,1.06-.13,2.06c0,.49,0,1.23.09,2.21,0,.21,0,.59.07,1.15a11,11,0,0,1,0,1.51,16.12,16.12,0,0,1-.16,2.55c-.11.66-.45,1-1,1A2,2,0,0,1,54.09,63.45Z" style="fill:#f6f6f6"/><path d="M71.41,62.35c0-.52,0-1.33-.1-2.43,0-.34,0-.94-.06-1.82a23.07,23.07,0,0,1,0-2.32,6.43,6.43,0,0,0,0-.87c0-.27,0-.52,0-.73v-1c0-.65,0-1.38.09-2.21s.11-1.41.14-1.74c.12-1.26.2-2.25.23-3,.06-1,.22-2.37.46-4.18l.14-1c.09-.68.26-1.66.5-2.94a1,1,0,0,1,.69-1,1.51,1.51,0,0,1,.42-.09,1.38,1.38,0,0,1,1.08.53,1.53,1.53,0,0,1,.34,1.22c0,.42-.11,1-.23,1.83l1.1-1.4a8.1,8.1,0,0,1,2-1.88,4.22,4.22,0,0,1,2.22-.67,1.55,1.55,0,0,1,1.52.83,4.58,4.58,0,0,1,.37,1.93,14.83,14.83,0,0,1-.88,4.32A7.49,7.49,0,0,1,80.87,45a14.79,14.79,0,0,1-1.54,2.55,3.45,3.45,0,0,1-1.91,1.31A9.65,9.65,0,0,1,74.8,49a.37.37,0,0,0-.27.09,1,1,0,0,0-.18.37,28.07,28.07,0,0,1-.14,3.07l0,1.38a10,10,0,0,0,0,1.2c0,.33,0,.61,0,.82v1c0,.77,0,1.35,0,1.75a23.7,23.7,0,0,0,0,2.43q.09.82.09,1.2l0,.27c0,.22-.2.43-.6.64a2.43,2.43,0,0,1-1.19.33C71.84,63.55,71.47,63.15,71.41,62.35Zm4.77-15.41a5.16,5.16,0,0,0,1.2-1.17,5.4,5.4,0,0,1,.55-.57,4,4,0,0,0,.55-.62,12.4,12.4,0,0,0,2.16-6c0-.61-.17-.92-.51-.92-.58,0-1.33.51-2.25,1.54a20.85,20.85,0,0,0-2.75,4.11,2.22,2.22,0,0,0-.37,1.1,7.43,7.43,0,0,0-.09,1.33,9.22,9.22,0,0,1,0,1.06v.27c0,.28.12.42.37.42A2.35,2.35,0,0,0,76.18,46.94Z" style="fill:#f6f6f6"/><path d="M100.55,63.71a2,2,0,0,0-.35,0,4.25,4.25,0,0,0-2.2-.32,7.93,7.93,0,0,1-1,0h-.5a2.38,2.38,0,0,1-.55,0,.67.67,0,0,0-.28-.05.76.76,0,0,0-.37.1,8.17,8.17,0,0,1-1.83-.19A2.76,2.76,0,0,1,93,61.62a3,3,0,0,1,.46-1.68,1.59,1.59,0,0,1,1.43-.71l.41,0a3.25,3.25,0,0,0,.69,0l.59,0c.22,0,.34-.13.37-.41a4,4,0,0,1,0-.64c0-.18.06-.34.09-.46a10,10,0,0,0,0-1.06c0-.43,0-.79,0-1.1l0-.37q0-.18-.39-.36a7.22,7.22,0,0,0-.81-.33c-.27-.09-.52-.18-.73-.27a5,5,0,0,1-2.57-3,10.62,10.62,0,0,1-.74-4c.09-1.07.21-2,.35-2.83A11.82,11.82,0,0,1,93,42.14a27.78,27.78,0,0,1,1.35-2.89,3.93,3.93,0,0,1,1.45-1.61,4.12,4.12,0,0,0,.73-.34,5.28,5.28,0,0,0,.83-.53,2.64,2.64,0,0,0,1.06-.23,2.6,2.6,0,0,1,.78-.09,2.22,2.22,0,0,1,2.11,1.19,10.63,10.63,0,0,1,.83,4c.06,1.41.09,2.53.09,3.35a20.14,20.14,0,0,1-1.47,8.59,1.92,1.92,0,0,1-1.43,1.29c-.39.06-.58.26-.55.59a3.9,3.9,0,0,1,0,.69c0,.28,0,.69-.09,1.24s-.1,1.06-.1,1.33a2.43,2.43,0,0,0,.07.74c0,.09.23.17.53.23a9,9,0,0,1,1.82.57,1,1,0,0,1,.62.94,3.36,3.36,0,0,1-.07.67,1.91,1.91,0,0,0-.07.44l-.32,1.42ZM99.15,52.8a26.77,26.77,0,0,0,1-3.63c.12-.83.21-1.72.26-2.69s.08-1.6.11-1.9q0-.69.09-2a6.25,6.25,0,0,0-1-4.08c-.19,0-.28.06-.28.18a8.51,8.51,0,0,1-.71,1.17l-.67.94a9.22,9.22,0,0,0-1.12,2.57c-.23.89-.47,2.16-.72,3.82A7.63,7.63,0,0,0,96,48.57q0,.6.09,1.89a3.07,3.07,0,0,0,.26,1,7.23,7.23,0,0,0,.46.87,5.8,5.8,0,0,0,.39.6,1.08,1.08,0,0,0,1,.69C98.61,53.63,98.93,53.35,99.15,52.8Z" style="fill:#f6f6f6"/><path d="M118,63.36H116.5a5,5,0,0,1-.71,0,3.61,3.61,0,0,0-.53,0q-.14,0-.78.09a1,1,0,0,1-.57-.14.94.94,0,0,0-.67,0L113,63v-.14a1.82,1.82,0,0,0-.13-.51,1.81,1.81,0,0,1-.14-.6,1.25,1.25,0,0,1,.05-.45c.36-2,.78-4.14,1.24-6.25s1.16-4.52,2.11-7.58a25.38,25.38,0,0,1,.78-2.43c.24-.65.49-1.36.73-2.16l.28-.92c.06-.18.17-.52.34-1s.35-.93.53-1.33a15,15,0,0,0,.74-1.79c.12-.4.49-.6,1.1-.6a1.46,1.46,0,0,1,.73.18,4.37,4.37,0,0,1,.62.44c.2.17.36.3.49.39a.33.33,0,0,1,.18.32,1.79,1.79,0,0,0,.09.94,3.25,3.25,0,0,1,.18.81c0,.46.11,1.22.23,2.29l.19,1.84a17.43,17.43,0,0,0,.18,2q.42,2.67.87,8.08a29.5,29.5,0,0,0,.42,3c.18,1.35.3,2.36.37,3a4.22,4.22,0,0,0,.16,1,4.8,4.8,0,0,1,.16.91.87.87,0,0,1-.3.74,1.88,1.88,0,0,1-1.08.23Zm1.15-1.28a6.62,6.62,0,0,1,.73-.1,6.39,6.39,0,0,1,.74.1c.43,0,.89,0,1.4,0h1.08a.86.86,0,0,0,.48-.16c.08-.07.1-.22.07-.43-.25-2.09-.44-3.65-.6-4.69l-.36-2.66c-.07-.62-.14-1.15-.21-1.61s-.15-.84-.21-1.15c-.3-1.87-.49-3.23-.55-4.09a2.72,2.72,0,0,0-.21-1.17c-.13-.29-.22-.48-.25-.57-.15.43-.27.81-.37,1.15q-.82,2.34-1.65,5.28l-2.85,9v0a1.14,1.14,0,0,0-.13.3.46.46,0,0,0,0,.34l.27.37.83.09c.31,0,.6.05.87.05S118.68,62.14,119.17,62.08Z" style="fill:#f6f6f6"/><path d="M137.54,63.36a2.86,2.86,0,0,0-.51-.64,2.7,2.7,0,0,1-.43-1,6.91,6.91,0,0,1-.16-1c0-.35-.05-.59-.05-.71l-.09-1.88a19.87,19.87,0,0,0-.09-2.21v-.55a6.09,6.09,0,0,0,0-.87,22.38,22.38,0,0,0-.18-2.3V49.86a5.42,5.42,0,0,0,.05-.83c0-1.37,0-2.23,0-2.57L136.3,44c.12-2.51.28-4.38.46-5.61a1,1,0,0,0,0-.36v-.6l.37-.87.88-.19a2.57,2.57,0,0,1,.87.28l.32.55.18,1a8.71,8.71,0,0,1,.51,2.81,8.4,8.4,0,0,0,.14,1.54c.09.53.15.91.18,1.12a50.61,50.61,0,0,1,.32,5.83q0,1.38-.09,2.76l-.14,1.93c-.3,3.89-.58,6.73-.83,8.54a1.65,1.65,0,0,1-.57.37,8.51,8.51,0,0,1-1.22.32Z" style="fill:#f6f6f6"/><path d="M163.12,63.55a13.92,13.92,0,0,1-1.22-2.39c-.38-.95-1.05-2.82-2-5.61L158,50a2.91,2.91,0,0,1-.12-.32.68.68,0,0,0-.25-.37,2.87,2.87,0,0,0-.78.83c-.09.12-.21.3-.35.53a2,2,0,0,1-.43.53.47.47,0,0,0-.19.41v.32a6.33,6.33,0,0,0,0,1.24,7.67,7.67,0,0,1,.09,1l.05,4.32a13.11,13.11,0,0,1-.28,3.35,1.44,1.44,0,0,1-.73,1c-.34.15-.48.33-.42.55a6.37,6.37,0,0,1-1.24.18,2.12,2.12,0,0,1-1-.23.56.56,0,0,0-.13-.32,3.31,3.31,0,0,1-.39-1.45,17,17,0,0,1-.12-2v-.73a4.14,4.14,0,0,0,0-.74,12.67,12.67,0,0,1-.09-1.29l0-.87c.06-.52.1-1,.11-1.35s0-.7,0-.94c0-.8,0-1.38,0-1.75s.05-1,.05-2q.31-6.07.5-8.23c.13-1.53.23-2.67.33-3.44,0-.37,0-.58-.1-.64l.1-.37a5.55,5.55,0,0,1,.87-.09,6.92,6.92,0,0,1,.85,0c.23,0,.42.07.57.1a2.2,2.2,0,0,1,.37.46l0,.55.28,1.1c0,.12.08.43.14.92a7.13,7.13,0,0,1,0,1.37,4.63,4.63,0,0,0,0,1c0,.38.07.65.07.8,0,.58,0,1.08,0,1.49s0,.76,0,1l0,1.1q0,.14-.09,1a24,24,0,0,0,2.32-3.1,35.67,35.67,0,0,0,2-3.46c.4-.8.84-1.66,1.33-2.57s.82-1.38,1-1.38.25.14.39.41a1.64,1.64,0,0,1,.21.69,1.23,1.23,0,0,1-.14.51l-2.21,4.73-.59,1.24c-.16.27-.48.81-1,1.6a4.65,4.65,0,0,0-.82,1.56,1.13,1.13,0,0,0,.13.51l.51,1.15c.21.49.47,1,.78,1.61a7.42,7.42,0,0,1,.57,1.26c.17.47.29.79.35.94q1.38,3.81,2.34,6.84l.41,1.06q0,.13.3.69a2.31,2.31,0,0,1,.26.92c0,.36-.28.5-.83.41Z" style="fill:#f6f6f6"/><path d="M174.63,63c-.45-.29-.67-.56-.67-.81a31.34,31.34,0,0,1,.37-4c.3-2.2.55-3.85.73-5a66.87,66.87,0,0,1,1.79-7.94l.37-1.38c.15-.7.34-1.39.55-2.06.06-.25.21-.79.46-1.61s.47-1.52.69-2.07a7.47,7.47,0,0,1,.6-1.28l1.19-.1a1.69,1.69,0,0,1,1.4.78,4.3,4.3,0,0,1,.76,1.66l1.79,13.32a48,48,0,0,1,.46,5.55,20.08,20.08,0,0,0,.37,3.31c.06.27.12.63.18,1.06a1.15,1.15,0,0,1,.05.36q0,.51-.42.51a1,1,0,0,1-1-.71A4.34,4.34,0,0,1,184,61a26.14,26.14,0,0,0-.32-3.67c0-.34-.08-.76-.14-1.27s-.11-1.08-.14-1.72c0-.31-.14-.46-.41-.46l-1.8,0c-.21,0-.71,0-1.51.09a.79.79,0,0,0-.67.43,5.55,5.55,0,0,0-.34.83c-.09.29-.15.5-.18.62a7.9,7.9,0,0,0-.49,2c-.1.78-.17,1.31-.2,1.59s-.11.55-.23,1.19a11.89,11.89,0,0,1-.42,1.63c-.15.45-.3.7-.46.76l-.87.46A1.94,1.94,0,0,1,174.63,63Zm8.47-10a.73.73,0,0,0,.23-.62l-1-7.81L182,41.27a6.09,6.09,0,0,0-.3,1.45c0,.53-.08.89-.11,1.08a39.43,39.43,0,0,1-.88,4.27c-.52,2.14-.84,3.37-1,3.67a2.13,2.13,0,0,0-.09.65c0,.43.17.64.5.64a12.67,12.67,0,0,1,1.29.09l1,.05A1.4,1.4,0,0,0,183.1,53Z" style="fill:#f6f6f6"/></g></g><g style="isolation:isolate"><g style="isolation:isolate"><path d="M110.35,100.77a3.89,3.89,0,0,1-1.14-2.1,6.92,6.92,0,0,1-2.42,2.52,6.6,6.6,0,0,1-3.41.82,5.88,5.88,0,0,1-3.27-.88A5.73,5.73,0,0,1,98,98.74a8.14,8.14,0,0,1,.37-7.42A8.62,8.62,0,0,1,101,88.66a25,25,0,0,1,3.49-1.84,3.2,3.2,0,0,1-2.14-1.41,4.85,4.85,0,0,1-.92-3,4.71,4.71,0,0,1,.73-2.61,5,5,0,0,1,2-1.77,5.89,5.89,0,0,1,2.7-.63,6.89,6.89,0,0,1,2.29.41l-1.06,1.56a4.75,4.75,0,0,0-1.43-.23,3.25,3.25,0,0,0-2.4.93,3,3,0,0,0-.94,2.23,1.39,1.39,0,0,0,0,.41,3.22,3.22,0,0,0,1.29,2.3,4,4,0,0,0,2.45.8,4.24,4.24,0,0,0,.92-.1l.92-.17V80.89h1.94v4.26l2.49-.54.41,1.8-2.9.65v9.77a4.87,4.87,0,0,0,.55,2.34,2.84,2.84,0,0,0,1.7,1.38l-.54,1.46A5.14,5.14,0,0,1,110.35,100.77ZM102,90.16a5.88,5.88,0,0,0-2.8,5.31,4.94,4.94,0,0,0,1.15,3.41,4.1,4.1,0,0,0,3.25,1.29,4.61,4.61,0,0,0,2.77-.87,5.85,5.85,0,0,0,1.88-2.24,6.6,6.6,0,0,0,.66-2.88V87.47A21.54,21.54,0,0,0,102,90.16Z" style="fill:#f6f6f6"/></g></g><g style="isolation:isolate"><g style="isolation:isolate"><path d="M5.21,24.1A3.75,3.75,0,0,0,3,23.17,18,18,0,0,1,1.11,23C.39,22.9,0,22.58,0,22a1.41,1.41,0,0,1,.32-.72A1,1,0,0,1,.75,21a6.66,6.66,0,0,1,3.18.14,4.7,4.7,0,0,1,2.69,1.33c.52.83.62,1.43.31,1.8C6.52,24.77,6,24.73,5.21,24.1ZM2.59,40.59a1,1,0,0,1,.2-1.53C6,36.74,8.55,35,10.35,34a1.13,1.13,0,0,1,1.44.63c.23.36.07.75-.5,1.2s-3,2.12-7,4.93A1.2,1.2,0,0,1,2.59,40.59ZM11.49,16a2.65,2.65,0,0,0-.55-.47L5,11.58,4.17,11c-.44-.57-.57-1-.39-1.36.28-.5.8-.64,1.55-.44l1.86,1.35,4.85,3a8,8,0,0,1,1.58,1.85c.15.52.08.89-.2,1.11a.78.78,0,0,1-.93.06A2.23,2.23,0,0,1,11.49,16Z" style="fill:#f6f6f6"/></g></g><g style="isolation:isolate"><g style="isolation:isolate"><path d="M198.32,17.54a.78.78,0,0,1-.93-.05q-.44-.33-.21-1.11a8.29,8.29,0,0,1,1.58-1.86l4.86-3,1.85-1.35c.76-.21,1.28-.06,1.55.44.19.34.06.79-.39,1.36l-.8.61-6,3.95a2.38,2.38,0,0,0-.55.47A2.28,2.28,0,0,1,198.32,17.54Zm8.16,24.17c-3.94-2.81-6.27-4.46-7-4.94s-.74-.84-.5-1.19a1.13,1.13,0,0,1,1.44-.64q2.69,1.62,7.56,5.11a1,1,0,0,1,.19,1.52A1.19,1.19,0,0,1,206.48,41.71Zm-2.61-16.49c-.31-.37-.21-1,.31-1.8a4.73,4.73,0,0,1,2.69-1.32,6.7,6.7,0,0,1,3.19-.14.93.93,0,0,1,.42.34,1.41,1.41,0,0,1,.32.72c0,.55-.38.87-1.11.94-.29.05-.91.12-1.84.2a3.69,3.69,0,0,0-2.26.93C204.85,25.71,204.28,25.76,203.87,25.22Z" style="fill:#f6f6f6"/></g></g></svg>