<svg xmlns="http://www.w3.org/2000/svg" viewBox="0 0 550.8 385.83"><g style="isolation:isolate"><text transform="translate(111.7 84)" style="isolation:isolate;font-size:108px;fill:#f6f6f6;font-family:NF-Takhie-Free-Regular, NF-Takhie-Free;letter-spacing:0.19999638310185186em">ΦΡEΣ<tspan x="231.36" y="0" style="letter-spacing:0.17778410734953703em">Κ</tspan><tspan x="289.8" y="0">Α</tspan></text></g><g style="isolation:isolate"><text transform="translate(79.36 366.12)" style="isolation:isolate;font-size:90px;fill:#f6f6f6;font-family:AdventPro-Light, Advent Pro;font-weight:300;letter-spacing:0.01999782986111111em">ΛΑΧΑΝΙΚΑ</text></g><g style="isolation:isolate"><text transform="translate(62.26 179.24)" style="isolation:isolate;font-size:108px;fill:#f6f6f6;font-family:NF-Takhie-Free-Regular, NF-Takhie-Free;letter-spacing:0.20000090422453703em">ΜΥΡΩΔΙ<tspan x="330.24" y="0" style="letter-spacing:0.17778410734953703em">Κ</tspan><tspan x="388.68" y="0" style="letter-spacing:0.19999638310185186em">Α</tspan></text></g><g style="isolation:isolate"><text transform="translate(251.17 279.12)" style="isolation:isolate;font-size:89px;fill:#f6f6f6;font-family:AdventPro-Regular, Advent Pro">&amp;</text></g><g style="isolation:isolate"><g style="isolation:isolate"><path d="M13.61,76.53a9.58,9.58,0,0,0-5.9-2.42c-2.44-.21-4-.39-4.81-.54C1,73.39.05,72.57,0,71.11a4,4,0,0,1,.83-1.88A2.6,2.6,0,0,1,2,68.36c2-.58,4.8-.46,8.33.35s5.86,2,7,3.47c1.35,2.18,1.62,3.74.8,4.71Q16.51,79,13.61,76.53ZM6.78,119.61a2.5,2.5,0,0,1,.5-4Q20,106.5,27,102.29A2.94,2.94,0,0,1,30.8,104q.93,1.38-1.3,3.11Q26.76,109,11.27,120C9.77,121.13,8.28,121,6.78,119.61ZM30,55.38a6.35,6.35,0,0,0-1.45-1.23L13,43.81l-2.1-1.59q-1.74-2.23-1-3.55c.72-1.3,2.06-1.69,4-1.16l4.85,3.54,12.68,7.88q3.84,3.84,4.13,4.85c.39,1.35.2,2.32-.54,2.89a2,2,0,0,1-2.43.15A5.84,5.84,0,0,1,30,55.38Z" style="fill:#f6f6f6"/></g></g><g style="isolation:isolate"><g style="isolation:isolate"><path d="M518.18,59.39a2,2,0,0,1-2.43-.14c-.74-.58-.92-1.55-.54-2.9.2-.67,1.58-2.29,4.14-4.84L532,43.63l4.86-3.54c2-.52,3.33-.14,4,1.17q.74,1.31-1,3.54l-2.1,1.59L522.24,56.72A6.67,6.67,0,0,0,520.79,58,5.85,5.85,0,0,1,518.18,59.39Zm21.34,63.15q-15.46-11-18.23-12.91-2.24-1.74-1.3-3.12a2.94,2.94,0,0,1,3.77-1.65q7,4.2,19.74,13.34c1.5,1.17,1.67,2.49.5,4Q541.75,124.28,539.52,122.54ZM532.7,79.46q-1.23-1.44.8-4.7c1.17-1.49,3.5-2.64,7-3.46s6.29-.94,8.32-.36a2.68,2.68,0,0,1,1.12.87,4,4,0,0,1,.83,1.89c0,1.45-1,2.27-2.9,2.45-.77.15-2.37.33-4.81.54a9.58,9.58,0,0,0-5.9,2.42C535.26,80.75,533.76,80.86,532.7,79.46Z" style="fill:#f6f6f6"/></g></g></svg>