<svg xmlns="http://www.w3.org/2000/svg" viewBox="0 0 150.12 91.18"><g style="isolation:isolate"><g style="isolation:isolate"><path d="M39.27,72.31a3.84,3.84,0,0,0,.41-2V66.93a4.38,4.38,0,0,1-1.7.86,7.52,7.52,0,0,1-2,.3,5.89,5.89,0,0,1-4-1.25,4.57,4.57,0,0,1-1.46-3.68V57.32h1.33V63.4A3,3,0,0,0,33,65.92a4.75,4.75,0,0,0,3,.86,4.82,4.82,0,0,0,2.44-.59,2.57,2.57,0,0,0,1.3-1.77v-7.1H41V70.19a4.89,4.89,0,0,1-.65,2.71,2.53,2.53,0,0,1-1.84,1.15l-.3-.87A2.19,2.19,0,0,0,39.27,72.31Z" style="fill:#7e9a3d"/><path d="M54.19,58.62H46.66V73.89H45.34V57.32H55.52V73.89H54.19Z" style="fill:#7e9a3d"/><path d="M67.3,68.09H61.91l-1.85,5.8h-1.4L64,57.32h1.25l5.4,16.57H69.2Zm-5-1.31H67l-2.37-7.41Z" style="fill:#7e9a3d"/><path d="M75.42,58.52l-1.58,0V57.32h2.91V73.89H75.42Z" style="fill:#7e9a3d"/><path d="M91.46,73A5.53,5.53,0,0,1,88,74.15a6.36,6.36,0,0,1-2.42-.47,4,4,0,0,1-1.85-1.5A4.53,4.53,0,0,1,83,69.51V61.88a4.84,4.84,0,0,1,1.34-3.69A5.19,5.19,0,0,1,88,56.94a4.87,4.87,0,0,1,3.64,1.32,5,5,0,0,1,1.29,3.65v7.6A4.16,4.16,0,0,1,91.46,73Zm.15-7.61V61.67a3.25,3.25,0,0,0-1-2.6,4.46,4.46,0,0,0-5.32,0,3.28,3.28,0,0,0-1,2.6v3.74Zm-7.31,1.3v2.77a3.14,3.14,0,0,0,1,2.55,4,4,0,0,0,2.61.86,4,4,0,0,0,2.64-.84,3.13,3.13,0,0,0,1-2.59V66.71Z" style="fill:#7e9a3d"/><path d="M96.73,57.32h5.82a4,4,0,0,1,3.35,1.37,5.73,5.73,0,0,1,1.1,3.69,13.72,13.72,0,0,1-.24,2.69,3.9,3.9,0,0,1-1.18,2.1,4,4,0,0,1-2.87.92H98.05v5.8H96.73Zm8,8.75a3.11,3.11,0,0,0,.8-1.61,12.29,12.29,0,0,0,.15-2,4.47,4.47,0,0,0-.8-2.91,2.73,2.73,0,0,0-2.23-1H98.05v8.21h4.69A2.55,2.55,0,0,0,104.72,66.07Z" style="fill:#7e9a3d"/><path d="M118.92,73a5.55,5.55,0,0,1-3.49,1.13,6.32,6.32,0,0,1-2.42-.47,4,4,0,0,1-1.86-1.5,4.6,4.6,0,0,1-.72-2.67V61.88a4.84,4.84,0,0,1,1.34-3.69,5.19,5.19,0,0,1,3.68-1.25,4.84,4.84,0,0,1,3.63,1.32,5,5,0,0,1,1.29,3.65v7.6A4.16,4.16,0,0,1,118.92,73Zm-.85-13.95a3.91,3.91,0,0,0-2.67-.88,3.84,3.84,0,0,0-2.65.88,3.28,3.28,0,0,0-1,2.6v7.81a3.14,3.14,0,0,0,1,2.55,3.93,3.93,0,0,0,2.61.86,4,4,0,0,0,2.64-.84,3.13,3.13,0,0,0,1-2.59V61.67A3.25,3.25,0,0,0,118.07,59.07Z" style="fill:#7e9a3d"/></g></g><g style="isolation:isolate"><g style="isolation:isolate"><path d="M1.21,31.25a.8.8,0,0,1-.47-.48,5.56,5.56,0,0,1-.74-3l.05-3c.07-2,.09-3.49.06-4.48,0-1.89,0-3.31.1-4.26,0-.66.05-1.68.05-3,.07-.77.21-2.07.42-3.89L.89,7.26l.16-1.53c.07-.7.14-1.22.21-1.57s.1-.48.19-.79.15-.58.18-.79a1,1,0,0,0-.13-.37.59.59,0,0,1-.08-.42,1.29,1.29,0,0,1,1.32-.74,1.17,1.17,0,0,1,1,.48,6.9,6.9,0,0,1,.74,1.18c.25.47.44.85.58,1.13Q5.89,5.27,7.68,8.1a5.44,5.44,0,0,1,.42.74,1.88,1.88,0,0,0,.58.73A17.3,17.3,0,0,1,9.94,6.89l.58-1.21a13.41,13.41,0,0,0,1-1.95,20.72,20.72,0,0,1,1.18-2.2,1.22,1.22,0,0,1,1-.69,1.31,1.31,0,0,1,.74.26.77.77,0,0,1,.37.64l-.05.84c0,.63,0,1.17.05,1.63s.07.82.1,1.1c0,1,.06,2.35.06,4.21v1.74c0,.49-.06,1.21-.06,2.15v2.21q0,.53,0,1.29c0,.51,0,1.11,0,1.82a10.15,10.15,0,0,0-.05,1.15c0,2.63,0,4.21-.1,4.74s-.06,1.58-.06,2.94c0,.46,0,1.14,0,2.05a1.76,1.76,0,0,1-.34,1.06c-.23.31-.41.47-.55.47s-.31-.2-.4-.6a4.3,4.3,0,0,1-.08-1.24l.11-1.53c0-.59,0-1-.05-1.31,0-1.37,0-2.4.05-3.11,0-.38,0-.89,0-1.52s0-1.37,0-2.21a20,20,0,0,1,0-2.47c.07-.84.11-1.49.11-1.95V10.41a15.5,15.5,0,0,0-.16-3.31q-.17.17-2.16,4.68c-.1.28-.49.42-1.16.42s-1.31-.49-1.84-1.47C7.14,9,6.33,7.5,5.73,6.31L5.1,5.37a5.67,5.67,0,0,1-.79-1.16c0,.17-.08.48-.15.92a2.43,2.43,0,0,0,0,1.08,17.15,17.15,0,0,1,.1,2.21c0,.77,0,1.35,0,1.73a2.48,2.48,0,0,1,.06.69c0,.45,0,.88-.06,1.28s0,.73,0,1a7.6,7.6,0,0,1,0,1.26,8.66,8.66,0,0,1,0,1.31l-.21,3.79,0,1a21.92,21.92,0,0,1,.11,3.84C4.1,25.39,4,27,4,29.09a2.46,2.46,0,0,1-.08.74.75.75,0,0,1-.35.36,1,1,0,0,0-.47.58.77.77,0,0,1-1,.63A4.28,4.28,0,0,1,1.21,31.25Z" style="fill:#7e9a3d"/><path d="M21.2,31.14h-.11l-.94.05a2,2,0,0,1-1.37-.5,2,2,0,0,1-.69-1.39c0-.56,0-1.45,0-2.66s.11-2.25.22-3.13a21.34,21.34,0,0,1,.31-2.21c0-.31.09-.71.16-1.18s.12-1,.16-1.6L19,17a9.44,9.44,0,0,1,.26-3,2.94,2.94,0,0,0,.06-1,4.27,4.27,0,0,1,0-1q.26-2.26.68-7.47a14.74,14.74,0,0,0,.21-2l-.05-.95a.64.64,0,0,1-.05-.31.65.65,0,0,1,.15-.5.83.83,0,0,1,.53-.13A10.86,10.86,0,0,1,22.3.68h.48L25.3.63a11.85,11.85,0,0,1,1.21.05,4.24,4.24,0,0,0,.84.06A8.66,8.66,0,0,0,29,.58,2,2,0,0,1,30.09,1c.49.28.77.52.84.73A.5.5,0,0,1,31,2q0,.36-.42.42l-.84,0L24.88,2,24.14,2c-.24,0-.35.15-.31.47a3.74,3.74,0,0,0,.05.63,46.4,46.4,0,0,1,.21,5.21,7.77,7.77,0,0,0,.47,2.31V12.2c0,.81,0,1.42.06,1.84l.05,2a10.35,10.35,0,0,1-.05,1.16c0,.31.17.47.52.47,1.23,0,1.91,0,2.05.05q.48,0,.48.42a.47.47,0,0,1-.42.48L25,18.62a.58.58,0,0,0-.58.47,33.09,33.09,0,0,0-.53,4.32l-.31,3.15c0,.21-.08.5-.14.85a6.47,6.47,0,0,0-.08.89,1.89,1.89,0,0,0,.11.84c.07.11.26.16.58.16h2.79c.35,0,.66,0,.94,0a2.78,2.78,0,0,0,.63,0,2.66,2.66,0,0,1,1.53.47,1.23,1.23,0,0,1,.29.27.3.3,0,0,1,0,.36,1.11,1.11,0,0,1-.71.58,4.32,4.32,0,0,1-1,.11h-.73L26.72,31l-1.26-.1a5.74,5.74,0,0,0-1.26.21,7.59,7.59,0,0,1-1.58.26A4.46,4.46,0,0,1,21.2,31.14Z" style="fill:#7e9a3d"/><path d="M35.4,31.93l-.5-.19a1.06,1.06,0,0,1-.5-.34,1.08,1.08,0,0,1-.16-.63l.06-.63a10,10,0,0,0-.16-1.74c0-.21-.07-.45-.11-.73a9.37,9.37,0,0,1-.05-1,2.79,2.79,0,0,0,0-.47,2.65,2.65,0,0,1-.06-.58,6,6,0,0,0,.06-1c0-.39,0-.84-.06-1.37s-.07-.93-.1-1.21-.07-.49-.11-.84,0-.77,0-1.26q0-3.11.21-7.58l.11-2.16A30.75,30.75,0,0,1,34.09,7l.26-2.27A24.25,24.25,0,0,1,34.87.89a1,1,0,0,1,1-.73l1.48,0a4.49,4.49,0,0,0,.79,0A5.94,5.94,0,0,1,39.56,0a8,8,0,0,1,1.76.21A3,3,0,0,1,42.4.58a2.9,2.9,0,0,0,.36.29.53.53,0,0,1,.27.44.49.49,0,0,1-.29.5,1.41,1.41,0,0,0-.4.24,1.54,1.54,0,0,1-.94.26,21.77,21.77,0,0,1-2.58-.52A.46.46,0,0,0,38.4,2a2,2,0,0,0-.21.63,16.18,16.18,0,0,0-.11,2.52,30,30,0,0,0-.21,5.1q-.25,2.69-.26,6.53l0,4.68a29.22,29.22,0,0,0,.31,4.68,7,7,0,0,1-.08,1.1,7.79,7.79,0,0,0-.08.85l.16,1.42a3.74,3.74,0,0,1-.08.94.45.45,0,0,1-.39.37,2.2,2.2,0,0,0-.87.76c-.26.37-.5.56-.71.56A1,1,0,0,1,35.4,31.93Z" style="fill:#7e9a3d"/><path d="M44.32,30.69c-.51-.33-.77-.64-.77-.92A36.67,36.67,0,0,1,44,25.25q.53-3.8.85-5.68a73.29,73.29,0,0,1,2-9.1l.42-1.58a22.9,22.9,0,0,1,.63-2.37c.07-.28.24-.89.52-1.84S49,3,49.23,2.31A10.47,10.47,0,0,1,49.92.84l1.37-.1a1.92,1.92,0,0,1,1.6.89,4.9,4.9,0,0,1,.87,1.89l2.05,15.26a55.74,55.74,0,0,1,.52,6.36,22.63,22.63,0,0,0,.43,3.79c.07.32.14.72.21,1.21a1.61,1.61,0,0,1,.05.42c0,.39-.16.58-.47.58a1.17,1.17,0,0,1-1.14-.82,5.07,5.07,0,0,1-.34-1.92,28.68,28.68,0,0,0-.37-4.2c0-.39-.08-.87-.15-1.45s-.13-1.24-.16-2c0-.35-.16-.53-.47-.53l-2.06-.05c-.24,0-.82,0-1.73.1a.92.92,0,0,0-.76.5,6.15,6.15,0,0,0-.4.95c-.1.33-.18.57-.21.71a8.94,8.94,0,0,0-.55,2.24c-.13.89-.2,1.5-.24,1.81s-.12.63-.26,1.37a13.23,13.23,0,0,1-.48,1.87c-.17.5-.35.79-.52.86l-1,.53A2.22,2.22,0,0,1,44.32,30.69ZM54,19.23a.81.81,0,0,0,.26-.71l-1.1-8.95-.47-3.78a6.68,6.68,0,0,0-.35,1.65c0,.62-.09,1-.13,1.24a40.71,40.71,0,0,1-1,4.89c-.59,2.46-1,3.86-1.1,4.21a2.35,2.35,0,0,0-.11.74c0,.49.19.73.58.73a14.51,14.51,0,0,1,1.47.11l1.11.05A1.54,1.54,0,0,0,54,19.23Z" style="fill:#7e9a3d"/><path d="M61.7,31a2.73,2.73,0,0,0-.89-.05c-.08,0-.2-.13-.37-.5a2.18,2.18,0,0,1-.27-.87s.06-.42.16-1.16c.42-2,.81-4.33,1.16-7l.68-4.21q.48-2.62,1.11-5.21c.17-.7.4-1.75.68-3.15a26.39,26.39,0,0,1,.74-3.21c.14-.56.38-1.4.73-2.53l.37-1.26A1.7,1.7,0,0,1,66.33,1a1.65,1.65,0,0,1,1-.24,2,2,0,0,1,1.81.87,8.2,8.2,0,0,1,.92,2.76c.07.49.32,1.58.74,3.26a31.68,31.68,0,0,1,.79,3.42q.25,2.1.89,6.21a8.82,8.82,0,0,1,.11,1.05,5,5,0,0,0,.16,1.26L73,21.09c.07.63.14,1.13.21,1.48a11.41,11.41,0,0,1,.21,1.36,11.52,11.52,0,0,0,.26,1.74c.21.7.46,1.75.74,3.16L74.69,30a.82.82,0,0,1,.11.31v.21a.42.42,0,0,1-.48.47.51.51,0,0,1-.47-.28,3.25,3.25,0,0,1-.24-.64,2,2,0,0,0-.13-.44,39.52,39.52,0,0,1-1-3.9c-.27-1.26-.59-3.05-1-5.36-.1-.77-.35-2.26-.73-4.47L70,10.1a4.13,4.13,0,0,1-.13-.61,3.84,3.84,0,0,0-.24-.81A6.53,6.53,0,0,0,69,10.41c-.1.6-.16.95-.16,1.06a31.42,31.42,0,0,1-1.21,5.26,40.12,40.12,0,0,0-1.26,5.78c-.07.56-.21,1.41-.42,2.53l-.74,4.31a1.62,1.62,0,0,1,0,.26.35.35,0,0,1-.16.29.42.42,0,0,1-.39,0h-.06c-.1,0-.22.13-.34.39a1.68,1.68,0,0,0-.18.66,1.09,1.09,0,0,0-.58-.32.38.38,0,0,0-.24.14,1.06,1.06,0,0,1-.24.18.87.87,0,0,1-.52.16A3.88,3.88,0,0,1,61.7,31Z" style="fill:#7e9a3d"/><path d="M86.19,31.48a2.61,2.61,0,0,0-.4,0,4.76,4.76,0,0,0-2.52-.37A7.6,7.6,0,0,1,82.16,31h-.58A2.55,2.55,0,0,1,81,31a.8.8,0,0,0-.31-.05.92.92,0,0,0-.42.1,9.35,9.35,0,0,1-2.11-.21,3.22,3.22,0,0,1-.58-1.73,3.45,3.45,0,0,1,.53-1.92,1.81,1.81,0,0,1,1.63-.82l.47.06a4.25,4.25,0,0,0,.79,0c.25,0,.48,0,.69,0s.38-.16.42-.48a4,4,0,0,1,0-.73c0-.21.07-.39.1-.53a10,10,0,0,0,.06-1.21,11.57,11.57,0,0,1,0-1.26l.05-.42c0-.14-.15-.28-.44-.42A7.5,7.5,0,0,0,81,21c-.31-.11-.59-.21-.84-.32a5.73,5.73,0,0,1-2.94-3.42,12.12,12.12,0,0,1-.84-4.57q.15-1.85.39-3.24a15,15,0,0,1,.71-2.65A30.33,30.33,0,0,1,79,3.47a4.46,4.46,0,0,1,1.66-1.84,4.88,4.88,0,0,0,.84-.39,5.86,5.86,0,0,0,1-.61A3.26,3.26,0,0,0,83.69.37a2.93,2.93,0,0,1,.89-.11A2.54,2.54,0,0,1,87,1.63a12,12,0,0,1,1,4.58c.07,1.61.1,2.89.1,3.84q0,6.36-1.68,9.83a2.2,2.2,0,0,1-1.63,1.48c-.46.07-.67.29-.63.68a5,5,0,0,1,0,.79,13.86,13.86,0,0,1-.1,1.42C84,25,84,25.46,84,25.77a2.69,2.69,0,0,0,.08.85c0,.1.25.19.6.26a10,10,0,0,1,2.08.66,1.1,1.1,0,0,1,.71,1.07,3,3,0,0,1-.08.77,2.72,2.72,0,0,0-.08.5l-.36,1.63A5.34,5.34,0,0,1,86.19,31.48ZM84.58,19a30.65,30.65,0,0,0,1.21-4.16,30.27,30.27,0,0,0,.29-3.07c0-1.11.1-1.84.13-2.19,0-.52,0-1.28.11-2.26a7.18,7.18,0,0,0-1.21-4.68c-.21,0-.32.07-.32.21A10.62,10.62,0,0,1,84,4.18c-.34.48-.59.84-.77,1.08a10.49,10.49,0,0,0-1.28,3,42,42,0,0,0-.82,4.36A8.66,8.66,0,0,0,81,14.15c0,.46,0,1.17.11,2.16a3.3,3.3,0,0,0,.29,1.15,7.91,7.91,0,0,0,.53,1c.19.32.34.55.44.69a1.26,1.26,0,0,0,1.11.79C84,19.94,84.34,19.62,84.58,19Z" style="fill:#7e9a3d"/><path d="M91.89,31.25a.8.8,0,0,1-.47-.48,5.65,5.65,0,0,1-.74-3l.06-3c.07-2,.08-3.49.05-4.48,0-1.89,0-3.31.1-4.26,0-.66.06-1.68.06-3,.07-.77.21-2.07.42-3.89l.21-1.84.16-1.53A12.31,12.31,0,0,1,92,4.16a6,6,0,0,1,.18-.79,6.35,6.35,0,0,0,.18-.79,1,1,0,0,0-.13-.37.59.59,0,0,1-.08-.42,1.29,1.29,0,0,1,1.32-.74,1.2,1.2,0,0,1,1,.48,7.6,7.6,0,0,1,.73,1.18c.25.47.44.85.58,1.13q.84,1.43,2.63,4.26a4.53,4.53,0,0,1,.42.74,1.88,1.88,0,0,0,.58.73,17.3,17.3,0,0,1,1.26-2.68l.58-1.21a13.41,13.41,0,0,0,1-1.95,22.77,22.77,0,0,1,1.18-2.2,1.24,1.24,0,0,1,1-.69,1.28,1.28,0,0,1,.73.26.77.77,0,0,1,.37.64l0,.84c0,.63,0,1.17,0,1.63s.07.82.11,1.1c0,1,0,2.35,0,4.21v1.74c0,.49,0,1.21,0,2.15v2.21c0,.35,0,.78,0,1.29s0,1.11,0,1.82a7.85,7.85,0,0,0-.06,1.15c0,2.63,0,4.21-.1,4.74s0,1.58,0,2.94c0,.46-.06,1.14-.06,2.05a1.76,1.76,0,0,1-.34,1.06c-.23.31-.41.47-.55.47s-.31-.2-.39-.6a4,4,0,0,1-.08-1.24l.1-1.53c0-.59,0-1,0-1.31,0-1.37,0-2.4,0-3.11,0-.38,0-.89,0-1.52s0-1.37,0-2.21a22.22,22.22,0,0,1,.05-2.47c.07-.84.11-1.49.11-1.95V10.41A14.74,14.74,0,0,0,104,7.1q-.15.17-2.16,4.68c-.1.28-.49.42-1.15.42s-1.32-.49-1.84-1.47C97.82,9,97,7.5,96.42,6.31l-.63-.94A5.29,5.29,0,0,1,95,4.21c0,.17-.09.48-.16.92a2.77,2.77,0,0,0,0,1.08,17.15,17.15,0,0,1,.1,2.21c0,.77,0,1.35.06,1.73a3.16,3.16,0,0,1,0,.69c0,.45,0,.88,0,1.28s-.06.73-.06,1A7.11,7.11,0,0,1,95,14.36a8.13,8.13,0,0,1-.06,1.31l-.21,3.79.06,1a22,22,0,0,1,.1,3.84c-.1,1.09-.19,2.68-.26,4.79a2.46,2.46,0,0,1-.08.74.73.73,0,0,1-.34.36,1,1,0,0,0-.48.58.77.77,0,0,1-1,.63A4.45,4.45,0,0,1,91.89,31.25Z" style="fill:#7e9a3d"/><path d="M111.88,31.14h-.1l-1,.05a2,2,0,0,1-1.37-.5,2.08,2.08,0,0,1-.68-1.39c0-.56,0-1.45,0-2.66s.1-2.25.21-3.13.17-1.47.31-2.21c0-.31.09-.71.16-1.18s.12-1,.16-1.6l.1-1.48a9.16,9.16,0,0,1,.27-3,3,3,0,0,0,.05-1,4.27,4.27,0,0,1,0-1c.18-1.51.4-4,.68-7.47a14.74,14.74,0,0,0,.21-2l-.05-.95a.8.8,0,0,1,0-.31.61.61,0,0,1,.16-.5.79.79,0,0,1,.52-.13A11.13,11.13,0,0,1,113,.68h.47L116,.63a11.85,11.85,0,0,1,1.21.05,4.29,4.29,0,0,0,.85.06,8.75,8.75,0,0,0,1.63-.16,2,2,0,0,1,1.1.37c.49.28.77.52.84.73,0,0,0,.13,0,.27s-.14.38-.42.42l-.84,0L115.56,2,114.83,2c-.25,0-.35.15-.32.47a3.74,3.74,0,0,0,0,.63,46.4,46.4,0,0,1,.21,5.21,7.53,7.53,0,0,0,.48,2.31V12.2c0,.81,0,1.42,0,1.84l0,2a10.35,10.35,0,0,1,0,1.16c0,.31.18.47.53.47,1.22,0,1.91,0,2,.05.31,0,.47.14.47.42a.47.47,0,0,1-.42.48l-2.26.05a.59.59,0,0,0-.58.47,33.09,33.09,0,0,0-.53,4.32l-.31,3.15c0,.21-.08.5-.13.85a5.21,5.21,0,0,0-.08.89,2,2,0,0,0,.1.84c.07.11.27.16.58.16h2.79c.35,0,.67,0,.95,0a2.78,2.78,0,0,0,.63,0,2.63,2.63,0,0,1,1.52.47,1.23,1.23,0,0,1,.29.27.3.3,0,0,1,0,.36,1.09,1.09,0,0,1-.71.58,4.23,4.23,0,0,1-1,.11h-.74L117.4,31l-1.26-.1a5.74,5.74,0,0,0-1.26.21,7.49,7.49,0,0,1-1.58.26A4.51,4.51,0,0,1,111.88,31.14Z" style="fill:#7e9a3d"/><path d="M131.08,29.67c-.14-2.53-.21-4.44-.21-5.74s0-3.1.11-5.62a6.47,6.47,0,0,0-.48-1.9c-.07-.24-.25-.8-.55-1.66a21.43,21.43,0,0,0-1-2.34,16.16,16.16,0,0,1-.79-1.94,24.88,24.88,0,0,0-1.48-3.11l0,3.53c0,2,0,3.93.16,5.89a4.57,4.57,0,0,1,.05.74c0,.28,0,.62-.05,1a4.4,4.4,0,0,0,0,1l0,2.73q0,1.64-.21,4.89a.9.9,0,0,0-.06.48,5.22,5.22,0,0,1-.52,2.42,1,1,0,0,0-.27.73,2.72,2.72,0,0,1-1.1.37.54.54,0,0,1-.47-.21l-.21-.21a3.15,3.15,0,0,1-1.11-2.42c-.07-1.4-.1-2.43-.1-3.1,0-.84,0-2.11.1-3.79V20.09c0-.59,0-1.05.05-1.36,0-.71.06-1.77.06-3.21,0-.56-.06-1.39-.06-2.47s.08-2.76.24-4.9a30.67,30.67,0,0,1,.5-4.26,2,2,0,0,0,0-.58l0-1.05a1.26,1.26,0,0,1,.29-.71.86.86,0,0,1,.71-.39,2.76,2.76,0,0,1,.84.18,2.89,2.89,0,0,0,.74.19c.21,0,.37.29.47.89a7.62,7.62,0,0,1,0,2.05.93.93,0,0,0,.16.42,9.1,9.1,0,0,1,.53,1,5.5,5.5,0,0,0,.47,1,6.67,6.67,0,0,1,.79,1.89,20.57,20.57,0,0,0,1,2.79l.53,1.26a5.21,5.21,0,0,1,.23.66,1.77,1.77,0,0,0,.45.76l.16-2.52c.21-2.66.42-4.65.63-5.94s.35-2.21.42-2.84l.21-1.42a2.23,2.23,0,0,1,.24-.69.53.53,0,0,1,.5-.21,2.26,2.26,0,0,1,.47.05,6.6,6.6,0,0,1,1.26.42c.18.11.28.37.32.79A25.37,25.37,0,0,1,135,4.52l-.21,2.63a51.47,51.47,0,0,0-.43,5.26c0,.67,0,1.69,0,3.05l-.1,3.11a8.47,8.47,0,0,0,0,1.21c0,.35,0,.65,0,.89s0,.79,0,1.42l-.11,2.47c0,.32,0,.83.11,1.53a3.54,3.54,0,0,1,.05.68c0,.32,0,.64-.05.95a8.07,8.07,0,0,0,0,1l0,.53v.21a1.39,1.39,0,0,1-.53.92,4.79,4.79,0,0,0-.58.6.68.68,0,0,1-.84.27A1.74,1.74,0,0,1,131.08,29.67Z" style="fill:#7e9a3d"/><path d="M137.42,30.69c-.51-.33-.76-.64-.76-.92a36.67,36.67,0,0,1,.42-4.52q.53-3.8.84-5.68a75.15,75.15,0,0,1,2.05-9.1l.42-1.58q.27-1.22.63-2.37c.07-.28.25-.89.53-1.84s.54-1.73.79-2.37A9.55,9.55,0,0,1,143,.84l1.37-.1a1.92,1.92,0,0,1,1.6.89,4.9,4.9,0,0,1,.87,1.89l2,15.26a56.26,56.26,0,0,1,.53,6.36,23.52,23.52,0,0,0,.42,3.79c.07.32.14.72.21,1.21a1.61,1.61,0,0,1,.05.42c0,.39-.16.58-.47.58a1.16,1.16,0,0,1-1.13-.82,4.88,4.88,0,0,1-.34-1.92,30.14,30.14,0,0,0-.37-4.2c0-.39-.09-.87-.16-1.45s-.12-1.24-.16-2c0-.35-.16-.53-.47-.53L145,20.2c-.25,0-.83,0-1.74.1a.94.94,0,0,0-.76.5,6.15,6.15,0,0,0-.4.95l-.21.71a9.4,9.4,0,0,0-.55,2.24c-.12.89-.2,1.5-.24,1.81s-.12.63-.26,1.37a14.9,14.9,0,0,1-.47,1.87c-.18.5-.35.79-.53.86l-1,.53A2.23,2.23,0,0,1,137.42,30.69Zm9.7-11.46a.81.81,0,0,0,.27-.71l-1.11-8.95-.47-3.78a6.26,6.26,0,0,0-.34,1.65c-.06.62-.1,1-.14,1.24a42.1,42.1,0,0,1-1,4.89c-.6,2.46-1,3.86-1.11,4.21a2.37,2.37,0,0,0-.1.74c0,.49.19.73.57.73a14.67,14.67,0,0,1,1.48.11l1.1.05A1.5,1.5,0,0,0,147.12,19.23Z" style="fill:#7e9a3d"/></g></g><g style="isolation:isolate"><g style="isolation:isolate"><path d="M62.69,43.18l-2.25-3.41H65l-.19.57H61.52l1.88,2.8-2.14,3.6h2.42a1.21,1.21,0,0,0,.71-.2,1.11,1.11,0,0,0,.43-.56l.46.17a1.58,1.58,0,0,1-.55.87,1.67,1.67,0,0,1-1,.27H60.27Z" style="fill:#7e9a3d"/><path d="M70.43,40.33H68.61v-.54h4.3v.54H71v7h-.6Z" style="fill:#7e9a3d"/><path d="M80.27,43.45H76.86v3.84h-.6v-7.5h.6v3.08h3.41V39.79h.6v7.5h-.6Z" style="fill:#7e9a3d"/><path d="M85.23,40.9v6.39h-.6v-7.5h.6l4.07,6.4v-6.4h.6v7.5h-.6Z" style="fill:#7e9a3d"/></g></g><g style="isolation:isolate"><g style="isolation:isolate"><path d="M104.79,44.05l-.06,0c-.06,0-.1,0-.11,0s0,0,.07-.09h.09l.51-.07.78-.07.56,0a1.26,1.26,0,0,1,.3,0,1.15,1.15,0,0,0,.3,0,2.18,2.18,0,0,1,.38,0,1.73,1.73,0,0,0,.36,0s.08,0,.09,0,.06.06.09,0a1.08,1.08,0,0,1,.32,0h.22c.46,0,.82,0,1.08,0s.62,0,1.11,0h.06a0,0,0,0,0,0,0h.4s0,0,.09,0h.76l.74,0h.28a.56.56,0,0,0,.23.05l.28,0h.39a.42.42,0,0,0,.16,0,.11.11,0,0,1,.08,0,.05.05,0,0,0,.08,0,.1.1,0,0,1,.08,0h.5l.09,0a.3.3,0,0,0,.12,0l.07,0h.07a.06.06,0,0,1,0,0,.06.06,0,0,0,.08,0H116l.08,0s0,0,.08,0a.07.07,0,0,1,.06,0,0,0,0,0,0,.06,0h.25a.08.08,0,0,0,.07,0,.11.11,0,0,1,.07,0s.06,0,.09,0,.06,0,.12,0h.34l.12,0a.19.19,0,0,1,.14.09V44h0a2,2,0,0,0-.81-.07l-.07,0,0,0,0,0a.16.16,0,0,1-.09,0s-.06,0-.08,0,0,0-.08,0h-.38a.09.09,0,0,1-.07,0l-.07,0a.11.11,0,0,0-.07,0,.13.13,0,0,0-.11,0H115a.85.85,0,0,1-.32-.05.13.13,0,0,0-.19.05.1.1,0,0,0-.11-.06h-.49a.12.12,0,0,1-.09,0l0,0q-.21-.09-.3,0a.08.08,0,0,0-.07,0,.06.06,0,0,1-.07,0,.44.44,0,0,0-.18,0h-.72s-.08,0-.09,0a.76.76,0,0,1-.21.05l-.25,0a.49.49,0,0,0-.23,0s-.09,0-.17,0,0,0-.07,0-.05,0-.06,0l-.12,0h-.6a.14.14,0,0,0-.09,0,.1.1,0,0,0-.1,0h-.06a.18.18,0,0,1-.09,0,.06.06,0,0,0-.08,0h-.11c-.05,0-.08,0-.09,0l0,0a.17.17,0,0,1-.13,0s-.09,0-.1,0,0-.06-.08,0-.07,0-.08,0a.17.17,0,0,1-.12,0h-1.28s-.07,0-.08,0a.08.08,0,0,1-.08,0H108s-.07,0-.16,0h-.37l0,.05,0-.05a.41.41,0,0,1-.21.05,1.82,1.82,0,0,0-.46,0l-.44,0-.21,0-.23,0a.83.83,0,0,1-.26,0,.63.63,0,0,0-.23,0l-.37,0-.07.09A.06.06,0,0,1,104.79,44.05Z" style="fill:#7e9a3d"/></g></g><g style="isolation:isolate"><g style="isolation:isolate"><path d="M35,44.05,35,44c-.06,0-.1,0-.11,0s0,0,.07-.09H35l.51-.07.78-.07.56,0a1.15,1.15,0,0,1,.3,0,1.15,1.15,0,0,0,.3,0,2.12,2.12,0,0,1,.38,0,1.86,1.86,0,0,0,.36,0,.1.1,0,0,0,.09,0s.06.06.09,0a1,1,0,0,1,.31,0h.22c.47,0,.83,0,1.09,0s.61,0,1.11,0h.06a0,0,0,0,0,0,0h.39s0,0,.1,0h.76l.74,0h.27a.6.6,0,0,0,.24.05l.27,0h.4a.42.42,0,0,0,.16,0,.11.11,0,0,1,.08,0,.05.05,0,0,0,.08,0,.09.09,0,0,1,.08,0h.5l.09,0a.3.3,0,0,0,.12,0l.06,0h.07a.07.07,0,0,1,.06,0,.06.06,0,0,0,.08,0h.49l.08,0s0,0,.08,0l.06,0a0,0,0,0,0,.06,0h.25a.08.08,0,0,0,.07,0,.12.12,0,0,1,.07,0s.06,0,.09,0,0,0,.12,0h.34l.12,0a.19.19,0,0,1,.14.09V44h0a2,2,0,0,0-.81-.07l-.07,0,0,0-.05,0a.18.18,0,0,1-.08,0s-.06,0-.08,0,0,0-.08,0H46.1a.09.09,0,0,1-.07,0l-.07,0a.11.11,0,0,0-.07,0,.13.13,0,0,0-.11,0h-.51a1,1,0,0,1-.33-.05.12.12,0,0,0-.18.05.11.11,0,0,0-.12-.06h-.48a.12.12,0,0,1-.09,0l0,0q-.21-.09-.3,0a.08.08,0,0,0-.07,0,.06.06,0,0,1-.07,0,.5.5,0,0,0-.18,0h-.72s-.08,0-.09,0a.85.85,0,0,1-.21.05l-.26,0a.47.47,0,0,0-.23,0s-.08,0-.16,0a.05.05,0,0,0-.07,0s0,0-.07,0l-.11,0h-.6a.19.19,0,0,0-.1,0s-.06,0-.09,0h-.07l-.08,0s-.06,0-.08,0h-.11a.11.11,0,0,0-.1,0l0,0a.18.18,0,0,1-.13,0s-.09,0-.1,0,0-.06-.09,0a0,0,0,0,1-.08,0,.16.16,0,0,1-.11,0H38.42s-.07,0-.08,0a.1.1,0,0,1-.09,0h0s-.07,0-.17,0h-.36l-.05.05,0-.05a.36.36,0,0,1-.21.05,1.82,1.82,0,0,0-.46,0l-.44,0-.2,0-.24,0a.76.76,0,0,1-.25,0,.63.63,0,0,0-.23,0l-.37,0-.07.09A.06.06,0,0,1,35,44.05Z" style="fill:#7e9a3d"/></g></g><g style="isolation:isolate"><g style="isolation:isolate"><path d="M23.53,89.15a.53.53,0,0,1-.21-.23,1.48,1.48,0,0,1-1.09.36H22a3.76,3.76,0,0,1-.71-.16c-.19-.08-.34-.14-.45-.2l-.2-.11v2.37l-.55-.08V84.36h.55v3.79a2.63,2.63,0,0,0,.58.4,2.06,2.06,0,0,0,1,.23c.66,0,1-.36,1-1.09v-3.3l.55-.12V88.5a.59.59,0,0,0,.06.18.47.47,0,0,0,.2.22l-.26.32A.4.4,0,0,1,23.53,89.15Z" style="fill:#7e9a3d"/><path d="M28.22,89.05a4.13,4.13,0,0,1-.58.14,3.77,3.77,0,0,1-.76.08,1.74,1.74,0,0,1-1.18-.4,1.42,1.42,0,0,1-.48-1v-.19a1.18,1.18,0,0,1,.72-1.22,1,1,0,0,1-.37-.4,1.26,1.26,0,0,1-.16-.63.8.8,0,0,1,0-.19,1,1,0,0,1,.5-.76,2,2,0,0,1,1-.25,2.63,2.63,0,0,1,.91.15v.49a3.13,3.13,0,0,0-.9-.14,1.38,1.38,0,0,0-.71.17.56.56,0,0,0-.28.52.92.92,0,0,0,.2.57.63.63,0,0,0,.54.26h1.14l-.18.51h-1A1,1,0,0,0,26,87a1,1,0,0,0-.25.68,1,1,0,0,0,.3.77,1.24,1.24,0,0,0,.89.28,3.5,3.5,0,0,0,.65-.07,4.36,4.36,0,0,0,.52-.15l.26-.1.15.49Z" style="fill:#7e9a3d"/><path d="M35.9,89.16a.89.89,0,0,1-.28-.27.87.87,0,0,1-.12-.49V84.81H33v4.35h-.54v-4.8H36V88.5a.62.62,0,0,0,.07.18.49.49,0,0,0,.21.22l-.26.32S36,89.21,35.9,89.16Z" style="fill:#7e9a3d"/><path d="M40.9,89.13h-.19l-.2,0-.44,0-.59,0a2.4,2.4,0,0,1-1.4-.36,1.5,1.5,0,0,1-.51-1.31V85.77A1.28,1.28,0,0,1,39,84.29a3.2,3.2,0,0,1,.79.11,4.11,4.11,0,0,1,.77.29l.18-.4.42.21c0,.07,0,.21,0,.43s0,.38,0,.5v3a.74.74,0,0,0,.07.18.52.52,0,0,0,.22.22l-.26.32ZM39,84.79c-.6,0-.9.34-.9,1v1.81a1,1,0,0,0,.34.87,1.65,1.65,0,0,0,1,.25,7.59,7.59,0,0,0,1.09-.09V85.18A4.56,4.56,0,0,0,39,84.79Z" style="fill:#7e9a3d"/><path d="M42.55,86.14A1.83,1.83,0,0,1,43,84.8a1.73,1.73,0,0,1,1.32-.5,1.68,1.68,0,0,1,1.35.51,2.12,2.12,0,0,1,.43,1.41v1.29a1.57,1.57,0,0,1-1.77,1.75,1.56,1.56,0,0,1-1.28-.52V91l-.52.15Zm2.68-1a1.45,1.45,0,0,0-1.79,0,1.3,1.3,0,0,0-.36,1v1.43a1.13,1.13,0,0,0,.35.9,1.36,1.36,0,0,0,.92.3,1.29,1.29,0,0,0,.9-.3,1.13,1.13,0,0,0,.33-.9V86.16A1.3,1.3,0,0,0,45.23,85.11Z" style="fill:#7e9a3d"/><path d="M50.67,89.13h-.2l-.2,0-.44,0-.59,0a2.4,2.4,0,0,1-1.4-.36,1.5,1.5,0,0,1-.51-1.31V85.77a1.46,1.46,0,0,1,.39-1.13,1.49,1.49,0,0,1,1-.35,3.26,3.26,0,0,1,.79.11,4,4,0,0,1,.76.29l.18-.4.42.21c0,.07,0,.21,0,.43s0,.38,0,.5v3a.46.46,0,0,0,.07.18.56.56,0,0,0,.21.22l-.26.32Zm-1.91-4.34c-.6,0-.9.34-.9,1v1.81a1,1,0,0,0,.33.87,1.67,1.67,0,0,0,1,.25,7.35,7.35,0,0,0,1.08-.09V85.18A4.58,4.58,0,0,0,48.76,84.79Z" style="fill:#7e9a3d"/><path d="M54.11,89.26a1.72,1.72,0,0,1-1.35-.5,1.94,1.94,0,0,1-.45-1.36V86.19a2.1,2.1,0,0,1,.34-1.25,1.47,1.47,0,0,1,1-.61,1,1,0,0,1-.27-.41,1.1,1.1,0,0,1-.1-.47,1.06,1.06,0,0,1,.29-.74,1.11,1.11,0,0,1,.83-.3h.43l-.2.48h-.32a.44.44,0,0,0-.34.16.55.55,0,0,0-.13.38.77.77,0,0,0,.1.38,1,1,0,0,0,.33.33,9.84,9.84,0,0,1,.89.66,2.22,2.22,0,0,1,.54.67,1.94,1.94,0,0,1,.21.93v1Q55.88,89.26,54.11,89.26Zm1.12-3.48a1.75,1.75,0,0,0-.38-.58,2.1,2.1,0,0,0-.69-.49,1.5,1.5,0,0,0-1,.41,1.46,1.46,0,0,0-.34,1.07v1.3a1.26,1.26,0,0,0,.34,1,1.28,1.28,0,0,0,.92.33,1.3,1.3,0,0,0,.91-.31,1.27,1.27,0,0,0,.33-1V86.28A1.33,1.33,0,0,0,55.23,85.78Z" style="fill:#7e9a3d"/><path d="M60.22,88.73a1.63,1.63,0,0,1-1.33.53,1.65,1.65,0,0,1-1.34-.54,1.91,1.91,0,0,1-.46-1.32V86.13a1.93,1.93,0,0,1,.47-1.39,1.77,1.77,0,0,1,1.33-.49,1.7,1.7,0,0,1,1.31.51,1.93,1.93,0,0,1,.47,1.37V87.4A2,2,0,0,1,60.22,88.73Zm-.42-3.65a1.23,1.23,0,0,0-.91-.34,1.29,1.29,0,0,0-.93.34,1.44,1.44,0,0,0-.33,1v1.36a1.25,1.25,0,0,0,.34.93,1.19,1.19,0,0,0,.92.36,1.21,1.21,0,0,0,.92-.35,1.37,1.37,0,0,0,.32-.94V86.13A1.44,1.44,0,0,0,59.8,85.08Z" style="fill:#7e9a3d"/><path d="M63.66,89.34a1.73,1.73,0,0,1-1.35-.49,2,2,0,0,1-.45-1.37V85.77a1.3,1.3,0,0,1,.46-1.12,1.86,1.86,0,0,1,1.16-.35l.38,0a5.56,5.56,0,0,0,.59.05,1.6,1.6,0,0,0,.56-.09A1.64,1.64,0,0,0,65.5,84l.4.14a1.85,1.85,0,0,1-.4.49,1.41,1.41,0,0,1-.51.24,1.09,1.09,0,0,1,.32.51,2.76,2.76,0,0,1,.13.85v1.29C65.44,88.72,64.85,89.34,63.66,89.34Zm1.13-3.86a1.51,1.51,0,0,0-.24-.46c-.09-.11-.14-.16-.17-.15a4.37,4.37,0,0,0-.87-.1,1.27,1.27,0,0,0-.82.24,1,1,0,0,0-.29.79v1.78a1.26,1.26,0,0,0,.34,1,1.32,1.32,0,0,0,.92.32,1.11,1.11,0,0,0,1.24-1.28V86.19A2.16,2.16,0,0,0,64.79,85.48Z" style="fill:#7e9a3d"/><path d="M67,84.36h.54v4.8H67Z" style="fill:#7e9a3d"/><path d="M72.11,89.13h-.2l-.2,0-.43,0-.59,0a2.43,2.43,0,0,1-1.41-.36,1.5,1.5,0,0,1-.51-1.31V85.77a1.46,1.46,0,0,1,.39-1.13,1.49,1.49,0,0,1,1-.35,3.26,3.26,0,0,1,.79.11,4,4,0,0,1,.76.29l.18-.4.42.21c0,.07,0,.21,0,.43s0,.38,0,.5v3a.46.46,0,0,0,.07.18.52.52,0,0,0,.22.22l-.26.32ZM70.2,84.79c-.6,0-.9.34-.9,1v1.81a1,1,0,0,0,.33.87,1.71,1.71,0,0,0,1,.25,7.35,7.35,0,0,0,1.08-.09V85.18A4.58,4.58,0,0,0,70.2,84.79Z" style="fill:#7e9a3d"/><path d="M76.71,89a1.94,1.94,0,0,1-.44-.35q-.18-.21-.45-.57l-1-1.38-.53.53v1.9h-.54V84.25l.54.13v2.15l2-2.17H77l-1.8,2L76.41,88a2.41,2.41,0,0,0,.47.51.79.79,0,0,0,.4.16l0,.46A1.22,1.22,0,0,1,76.71,89Z" style="fill:#7e9a3d"/><path d="M81.52,89.05a4,4,0,0,1-.59.14,3.67,3.67,0,0,1-.75.08,1.74,1.74,0,0,1-1.18-.4,1.47,1.47,0,0,1-.49-1v-.19a1.17,1.17,0,0,1,.71-1.22,1,1,0,0,1-.36-.4,1.26,1.26,0,0,1-.16-.63.8.8,0,0,1,0-.19,1,1,0,0,1,.49-.76,2.05,2.05,0,0,1,1-.25,2.63,2.63,0,0,1,.91.15v.49a3.13,3.13,0,0,0-.9-.14,1.38,1.38,0,0,0-.71.17.54.54,0,0,0-.28.52,1,1,0,0,0,.19.57.65.65,0,0,0,.55.26h1.14l-.18.51H80a1,1,0,0,0-.7.25.92.92,0,0,0-.25.68,1,1,0,0,0,.3.77,1.24,1.24,0,0,0,.89.28,3.5,3.5,0,0,0,.65-.07,5,5,0,0,0,.52-.15l.26-.1.15.49ZM80.4,82.87a.35.35,0,0,1,.33-.22.33.33,0,0,1,.23.1A.28.28,0,0,1,81,83a.29.29,0,0,1,0,.16l-.66.89h-.43Z" style="fill:#7e9a3d"/><path d="M85.37,90a.81.81,0,0,0-.1-.39.92.92,0,0,0-.32-.33l-.26-.17c-.38-.24-.68-.45-.9-.62a2.17,2.17,0,0,1-.55-.62A1.6,1.6,0,0,1,83,87V85.64a1.28,1.28,0,0,1,.68-1.11,2,2,0,0,1,1-.21,2.23,2.23,0,0,1,.54.06,2.7,2.7,0,0,1,.37.12l.16.08-.18.44L85.42,85a1.79,1.79,0,0,0-.29-.11,2,2,0,0,0-.44,0,1.4,1.4,0,0,0-.8.23.7.7,0,0,0-.34.6V86.8a1.65,1.65,0,0,0,.15.74,1.74,1.74,0,0,0,.47.58,7.92,7.92,0,0,0,1,.69,1.42,1.42,0,0,1,.54.52,1.35,1.35,0,0,1,.17.63,1.07,1.07,0,0,1-.18.61l-.41-.26A.69.69,0,0,0,85.37,90Z" style="fill:#7e9a3d"/><path d="M93.32,89.15a.53.53,0,0,1-.21-.23,1.49,1.49,0,0,1-1.1.36h-.22a3.64,3.64,0,0,1-.7-.16,3.54,3.54,0,0,1-.45-.2,1.47,1.47,0,0,0-.21-.11v2.37l-.54-.08V84.36h.54v3.79a3,3,0,0,0,.59.4,2,2,0,0,0,1,.23c.65,0,1-.36,1-1.09v-3.3l.55-.12V88.5a.59.59,0,0,0,.06.18.42.42,0,0,0,.2.22l-.26.32A.4.4,0,0,1,93.32,89.15Z" style="fill:#7e9a3d"/><path d="M98,89.05a4,4,0,0,1-.59.14,3.67,3.67,0,0,1-.75.08,1.74,1.74,0,0,1-1.18-.4,1.47,1.47,0,0,1-.49-1v-.19a1.18,1.18,0,0,1,.72-1.22,1,1,0,0,1-.36-.4,1.26,1.26,0,0,1-.16-.63,1.58,1.58,0,0,1,0-.19,1,1,0,0,1,.5-.76,2,2,0,0,1,1-.25,2.67,2.67,0,0,1,.91.15v.49a3.13,3.13,0,0,0-.9-.14,1.36,1.36,0,0,0-.71.17.54.54,0,0,0-.28.52.91.91,0,0,0,.19.57.65.65,0,0,0,.55.26h1.14l-.18.51h-1a1,1,0,0,0-.7.25.92.92,0,0,0-.25.68,1,1,0,0,0,.3.77,1.24,1.24,0,0,0,.89.28,3.5,3.5,0,0,0,.65-.07,5,5,0,0,0,.52-.15l.26-.1.15.49Z" style="fill:#7e9a3d"/><path d="M102.52,88.7a1.73,1.73,0,0,1-1.35.52,1.81,1.81,0,0,1-1.35-.52,2,2,0,0,1-.47-1.37V85.89a1.11,1.11,0,0,1,.51-.93,2.18,2.18,0,0,1-.32-1.13,1.42,1.42,0,0,1,.43-1.06,1.64,1.64,0,0,1,1.18-.41,1.82,1.82,0,0,1,1.38.53,2.08,2.08,0,0,1,.46,1.43v3A1.92,1.92,0,0,1,102.52,88.7Zm-.27-3.88a4.45,4.45,0,0,0-1,.14,3,3,0,0,0-.94.39.67.67,0,0,0-.38.54v1.5a1.37,1.37,0,0,0,.18.72,1.3,1.3,0,0,0,.48.45,1.38,1.38,0,0,0,1.25,0,1.24,1.24,0,0,0,.66-1.17V84.83Zm-1-.41a4.53,4.53,0,0,1,.94-.11h.26a1.42,1.42,0,0,0-.38-1.11,1.33,1.33,0,0,0-.92-.33,1,1,0,0,0-.79.27,1,1,0,0,0-.26.7,1.86,1.86,0,0,0,.23.88A4.15,4.15,0,0,1,101.26,84.41Z" style="fill:#7e9a3d"/><path d="M107.6,88.73a1.64,1.64,0,0,1-1.33.53,1.68,1.68,0,0,1-1.35-.54,2,2,0,0,1-.45-1.32V86.13a1.93,1.93,0,0,1,.46-1.39,1.79,1.79,0,0,1,1.34-.49,1.67,1.67,0,0,1,1.3.51,1.89,1.89,0,0,1,.47,1.37V87.4A2,2,0,0,1,107.6,88.73Zm-.42-3.65a1.25,1.25,0,0,0-.91-.34,1.26,1.26,0,0,0-.93.34,1.44,1.44,0,0,0-.33,1v1.36a1.25,1.25,0,0,0,.34.93,1.19,1.19,0,0,0,.92.36,1.21,1.21,0,0,0,.92-.35,1.37,1.37,0,0,0,.32-.94V86.13A1.44,1.44,0,0,0,107.18,85.08Zm-.68-2.21a.34.34,0,0,1,.33-.22.31.31,0,0,1,.31.31.24.24,0,0,1,0,.16l-.66.89H106Z" style="fill:#7e9a3d"/><path d="M111.05,89.26a1.71,1.71,0,0,1-1.35-.5,1.94,1.94,0,0,1-.45-1.36V86.19a2.1,2.1,0,0,1,.34-1.25,1.45,1.45,0,0,1,1-.61,1,1,0,0,1-.27-.41,1.1,1.1,0,0,1-.1-.47,1.06,1.06,0,0,1,.29-.74,1.11,1.11,0,0,1,.83-.3h.43l-.2.48h-.32a.44.44,0,0,0-.34.16.56.56,0,0,0-.14.38.79.79,0,0,0,.11.38,1,1,0,0,0,.33.33,9.84,9.84,0,0,1,.89.66,2.22,2.22,0,0,1,.54.67,1.94,1.94,0,0,1,.21.93v1Q112.82,89.26,111.05,89.26Zm1.12-3.48a1.75,1.75,0,0,0-.38-.58,2.1,2.1,0,0,0-.69-.49,1.5,1.5,0,0,0-1,.41,1.46,1.46,0,0,0-.34,1.07v1.3a1.26,1.26,0,0,0,.34,1,1.28,1.28,0,0,0,.92.33,1.32,1.32,0,0,0,.91-.31,1.27,1.27,0,0,0,.33-1V86.28A1.33,1.33,0,0,0,112.17,85.78Z" style="fill:#7e9a3d"/><path d="M117.16,88.73a1.63,1.63,0,0,1-1.33.53,1.65,1.65,0,0,1-1.34-.54A1.91,1.91,0,0,1,114,87.4V86.13a1.93,1.93,0,0,1,.47-1.39,1.77,1.77,0,0,1,1.33-.49,1.7,1.7,0,0,1,1.31.51,1.93,1.93,0,0,1,.46,1.37V87.4A2,2,0,0,1,117.16,88.73Zm-.42-3.65a1.23,1.23,0,0,0-.91-.34,1.29,1.29,0,0,0-.93.34,1.44,1.44,0,0,0-.33,1v1.36a1.25,1.25,0,0,0,.34.93,1.19,1.19,0,0,0,.92.36,1.21,1.21,0,0,0,.92-.35,1.37,1.37,0,0,0,.32-.94V86.13A1.44,1.44,0,0,0,116.74,85.08Z" style="fill:#7e9a3d"/><path d="M122.33,84.36v3.15c0,1.16-.61,1.75-1.84,1.75a1.57,1.57,0,0,1-1.8-1.75V84.36h.53v3.22a1.13,1.13,0,0,0,.34.9,1.37,1.37,0,0,0,.93.3,1.47,1.47,0,0,0,1-.29,1.12,1.12,0,0,0,.34-.91V84.36Z" style="fill:#7e9a3d"/><path d="M125.93,90a.81.81,0,0,0-.1-.39,1,1,0,0,0-.32-.33l-.26-.17c-.38-.24-.68-.45-.91-.62a2.34,2.34,0,0,1-.55-.62,1.69,1.69,0,0,1-.22-.86V85.64a1.35,1.35,0,0,1,.16-.6,1.25,1.25,0,0,1,.53-.51,1.92,1.92,0,0,1,1-.21,2.12,2.12,0,0,1,.54.06,2.3,2.3,0,0,1,.37.12l.16.08-.18.44L126,85a1.62,1.62,0,0,0-.3-.11,1.88,1.88,0,0,0-.43,0,1.4,1.4,0,0,0-.8.23.68.68,0,0,0-.34.6V86.8a1.81,1.81,0,0,0,.14.74,1.92,1.92,0,0,0,.48.58,7.92,7.92,0,0,0,1,.69,1.39,1.39,0,0,1,.53.52,1.26,1.26,0,0,1,.18.63,1.07,1.07,0,0,1-.18.61l-.42-.26A.61.61,0,0,0,125.93,90Z" style="fill:#7e9a3d"/></g></g></svg>