<svg xmlns="http://www.w3.org/2000/svg" viewBox="0 0 271.97 172"><g style="isolation:isolate"><text transform="translate(54.43 141.18)" style="isolation:isolate;font-size:42px;fill:#7e9a3d;font-family:AdventPro-Regular, Advent Pro;letter-spacing:0.05000232514880952em">ΥΠΑΙΘΡΟ</text></g><g style="isolation:isolate"><text transform="translate(0 65.33)" style="isolation:isolate;font-size:84px;fill:#7e9a3d;font-family:NF-Takhie-Free-Regular, NF-Takhie-Free">ΜΕΓΑ<tspan x="106.77" y="0" style="letter-spacing:-0.022210984002976192em">Λ</tspan><tspan x="135.52" y="0" style="letter-spacing:-0.0000058128720238095235em">ΩΜΕ</tspan><tspan x="218.67" y="0" style="letter-spacing:-0.022216796875em">Ν</tspan><tspan x="242.47" y="0">Α</tspan></text></g><g style="isolation:isolate"><text transform="translate(108.25 93.99)" style="isolation:isolate;font-size:19px;fill:#7e9a3d;font-family:AdventPro-Regular, Advent Pro;letter-spacing:0.19998972039473684em">ΣΤΗΝ</text></g><g style="isolation:isolate"><g style="isolation:isolate"><path d="M188.74,88.24a.17.17,0,0,0-.11-.06c-.11,0-.17,0-.2,0s0-.08.12-.16h.17l.9-.13,1.39-.12,1-.08a2.53,2.53,0,0,1,.53,0,3.07,3.07,0,0,0,.53,0,4.52,4.52,0,0,1,.68,0,3.48,3.48,0,0,0,.63,0c.09,0,.14,0,.17-.08s.11.11.16.08a1.94,1.94,0,0,1,.56-.08h.39c.82-.05,1.46-.08,1.92-.08s1.09,0,2,0l.1,0s.06,0,.06-.06h.7s.06.07.16,0h1.36c.6,0,1,0,1.31,0l.21,0a.7.7,0,0,1,.28,0,1.22,1.22,0,0,0,.41.08,2.72,2.72,0,0,1,.49,0h.45l.25,0a.55.55,0,0,0,.29,0,.2.2,0,0,1,.14.06.12.12,0,0,0,.15,0,.18.18,0,0,1,.14,0,.45.45,0,0,0,.14,0h.74l.16,0a.32.32,0,0,0,.21,0,.28.28,0,0,1,.12,0q.09,0,.12,0a.19.19,0,0,1,.11,0,.17.17,0,0,0,.14,0h.86a.26.26,0,0,1,.15,0s.08,0,.14,0,.06,0,.1.06.08.05.1,0h.33l.13,0a.12.12,0,0,0,.12,0,.27.27,0,0,1,.12,0c.06,0,.11,0,.17,0s.09.08.2.08h.61l.21,0a.41.41,0,0,1,.25.17v.16h-.09a3.44,3.44,0,0,0-1.43-.12l-.12,0,0,0-.09.09a.36.36,0,0,1-.14-.09c-.07,0-.12,0-.14,0a.21.21,0,0,0-.15,0h-.67a.17.17,0,0,1-.13,0,.19.19,0,0,0-.12,0s-.07,0-.12.08a.32.32,0,0,0-.21-.08h-.9a1.44,1.44,0,0,1-.57-.08.22.22,0,0,0-.33.08.21.21,0,0,0-.21-.1l-.16,0H205a.24.24,0,0,1-.16-.08l-.08.08q-.37-.17-.54,0s-.07,0-.12,0-.1,0-.12,0a1,1,0,0,0-.33,0h-1.27a.32.32,0,0,1-.17,0,1.4,1.4,0,0,1-.36.08,2,2,0,0,1-.46-.06.84.84,0,0,0-.41,0c-.05-.06-.15,0-.28,0s-.07-.07-.13,0a.13.13,0,0,1-.12,0,.4.4,0,0,0-.2,0h-1.07a.19.19,0,0,0-.16.08c-.06-.06-.11-.08-.17-.06l-.12,0-.14,0q-.1,0-.15,0h-.2c-.09,0-.14,0-.17.08l-.08-.08a.26.26,0,0,1-.22.06c-.1,0-.16,0-.19,0s-.07-.1-.14-.06-.12,0-.15,0a.28.28,0,0,1-.2.08h-2.28a.18.18,0,0,0-.14,0,.19.19,0,0,1-.14,0l-.11,0s-.12,0-.28,0h-.66l-.08.08-.08-.08a.64.64,0,0,1-.37.08,3.92,3.92,0,0,0-.82,0q-.54.06-.78.06a1.13,1.13,0,0,1-.37,0,1.35,1.35,0,0,0-.41,0,2,2,0,0,1-.45,0,1.35,1.35,0,0,0-.41,0,3.57,3.57,0,0,1-.66,0l-.12.16A.11.11,0,0,1,188.74,88.24Z" style="fill:#7e9a3d"/></g></g><g style="isolation:isolate"><g style="isolation:isolate"><path d="M64.94,88.24a.17.17,0,0,0-.11-.06c-.11,0-.17,0-.2,0s0-.08.12-.16h.17l.9-.13,1.39-.12,1-.08a2.53,2.53,0,0,1,.53,0,3,3,0,0,0,.53,0,4.52,4.52,0,0,1,.68,0,3.48,3.48,0,0,0,.63,0c.09,0,.14,0,.17-.08s.11.11.16.08a1.94,1.94,0,0,1,.56-.08h.39c.82-.05,1.46-.08,1.92-.08s1.09,0,2,0l.1,0s.06,0,.06-.06h.7s.06.07.17,0h1.35c.6,0,1,0,1.31,0l.21,0a.7.7,0,0,1,.28,0,1.22,1.22,0,0,0,.41.08,2.72,2.72,0,0,1,.49,0h.45l.25,0a.55.55,0,0,0,.29,0,.2.2,0,0,1,.14.06.12.12,0,0,0,.15,0,.18.18,0,0,1,.14,0,.45.45,0,0,0,.14,0h.74l.16,0a.32.32,0,0,0,.21,0,.28.28,0,0,1,.12,0q.09,0,.12,0a.19.19,0,0,1,.11,0,.17.17,0,0,0,.14,0h.86a.26.26,0,0,1,.15,0s.08,0,.14,0,.06,0,.1.06.08.05.1,0h.33l.13,0a.12.12,0,0,0,.12,0,.24.24,0,0,1,.12,0c.06,0,.11,0,.17,0s.09.08.2.08H87l.2,0a.41.41,0,0,1,.25.17v.16h-.09A3.44,3.44,0,0,0,86,88l-.12,0,0,0L85.7,88a.36.36,0,0,1-.14-.09c-.07,0-.12,0-.14,0a.21.21,0,0,0-.15,0H84.6a.17.17,0,0,1-.13,0,.19.19,0,0,0-.12,0s-.07,0-.12.08a.32.32,0,0,0-.21-.08h-.9a1.44,1.44,0,0,1-.57-.08.22.22,0,0,0-.33.08.21.21,0,0,0-.21-.1l-.16,0h-.7a.24.24,0,0,1-.16-.08l-.08.08q-.37-.17-.54,0s-.07,0-.12,0-.1,0-.12,0a1,1,0,0,0-.33,0H78.53a.32.32,0,0,1-.17,0,1.4,1.4,0,0,1-.36.08,2,2,0,0,1-.46-.06.84.84,0,0,0-.41,0c0-.06-.15,0-.28,0s-.07-.07-.13,0a.13.13,0,0,1-.12,0,.4.4,0,0,0-.2,0H75.33a.19.19,0,0,0-.16.08c-.06-.06-.11-.08-.17-.06l-.12,0-.14,0q-.1,0-.15,0h-.2a.17.17,0,0,0-.17.08l-.08-.08a.26.26,0,0,1-.22.06c-.1,0-.16,0-.19,0s-.07-.1-.14-.06-.12,0-.15,0a.28.28,0,0,1-.2.08H71a.2.2,0,0,0-.14,0,.18.18,0,0,1-.14,0l-.11,0s-.12,0-.28,0h-.66l-.08.08-.08-.08a.64.64,0,0,1-.37.08,3.92,3.92,0,0,0-.82,0q-.54.06-.78.06a1.13,1.13,0,0,1-.37,0,1.35,1.35,0,0,0-.41,0,2,2,0,0,1-.45,0,1.35,1.35,0,0,0-.41,0,3.57,3.57,0,0,1-.66,0l-.12.16A.11.11,0,0,1,64.94,88.24Z" style="fill:#7e9a3d"/></g></g><g style="isolation:isolate"><text transform="translate(37.14 168.28)" style="isolation:isolate;font-size:17px;fill:#7e9a3d;font-family:AdventPro-Regular, Advent Pro;letter-spacing:0.015021829044117647em">με π<tspan x="30.99" y="0" style="letter-spacing:0.013987821691176471em">α</tspan><tspan x="39.83" y="0" style="letter-spacing:0.01499310661764706em">ρ</tspan><tspan x="48.31" y="0" style="letter-spacing:0.013987821691176471em">α</tspan><tspan x="57.15" y="0" style="letter-spacing:0.01499310661764706em">δ</tspan><tspan x="65.64" y="0" style="letter-spacing:0.01401654411764706em">ο</tspan><tspan x="74.1" y="0" style="letter-spacing:0.01499310661764706em">σι</tspan><tspan x="86.36" y="0" style="letter-spacing:0.013987821691176471em">α</tspan><tspan x="95.2" y="0">κές μεθόδ</tspan><tspan x="166.67" y="0" style="letter-spacing:0.013987821691176471em">ο</tspan><tspan x="175.13" y="0" style="letter-spacing:0.01499310661764706em">υς</tspan></text></g></svg>