<svg xmlns="http://www.w3.org/2000/svg" viewBox="0 0 249.1 104.7"><g style="isolation:isolate"><text transform="translate(25.33 68.62)" style="isolation:isolate;font-size:59px;fill:#7e9a3d;font-family:NF-Takhie-Free-Regular, NF-Takhie-Free;letter-spacing:-0.03221828654661017em">Κ<tspan x="19.54" y="0" style="letter-spacing:-0.04333289194915254em">α</tspan><tspan x="39.46" y="0" style="letter-spacing:-0.009997351694915254em">λλιέργει</tspan><tspan x="157.92" y="0" style="letter-spacing:-0.03221001059322034em">έ</tspan><tspan x="172.01" y="0" style="letter-spacing:-0.010005627648305085em">ς</tspan></text></g><g style="isolation:isolate"><g style="isolation:isolate"><path d="M178.71,74.08a.19.19,0,0,0-.14-.08.41.41,0,0,1-.27-.06s0-.11.16-.22h.22l1.21-.16,1.87-.17,1.32-.11a3.68,3.68,0,0,1,.72,0,2.92,2.92,0,0,0,.71-.06,6.15,6.15,0,0,1,.91,0,4.88,4.88,0,0,0,.85-.06.22.22,0,0,0,.22-.11c.08.11.15.15.22.11a2.47,2.47,0,0,1,.75-.11H188c1.1-.07,2-.11,2.58-.11s1.47.06,2.64.06l.14,0c.06,0,.08-.05.08-.08h.94c0,.07.07.09.22,0h1.81c.81,0,1.4,0,1.76.06l.28,0a.85.85,0,0,1,.38,0,2,2,0,0,0,.55.11A2.73,2.73,0,0,1,200,73h.61l.33,0a.78.78,0,0,0,.38,0,.3.3,0,0,1,.2.08.14.14,0,0,0,.19,0,.19.19,0,0,1,.19,0l.19,0h1a.78.78,0,0,1,.22,0,.47.47,0,0,0,.28,0,.35.35,0,0,1,.16.06c.08,0,.13,0,.17,0a.24.24,0,0,1,.14,0,.16.16,0,0,0,.19,0h1.15a.34.34,0,0,1,.2.06s.12,0,.19-.06.08,0,.14.08.1.07.13,0h.44l.17,0a.14.14,0,0,0,.16,0,.38.38,0,0,1,.17.06.2.2,0,0,0,.22-.06.29.29,0,0,0,.27.11h.83l.27.06a.49.49,0,0,1,.33.22v.22h-.11a4.77,4.77,0,0,0-1.92-.17l-.17,0,0-.06-.11.11s-.1,0-.19-.11-.16,0-.2.06a.24.24,0,0,0-.19-.06h-.91a.25.25,0,0,1-.16,0,.22.22,0,0,0-.17-.06.34.34,0,0,0-.16.11.39.39,0,0,0-.28-.11H203.1a2.25,2.25,0,0,1-.77-.11.29.29,0,0,0-.44.11.25.25,0,0,0-.27-.14l-.22,0h-.94a.35.35,0,0,1-.22-.11l-.11.11c-.33-.15-.56-.15-.71,0a.16.16,0,0,0-.17,0,.17.17,0,0,1-.16,0,1.33,1.33,0,0,0-.44-.06h-1.71a.37.37,0,0,1-.22,0,1.85,1.85,0,0,1-.49.11,2.37,2.37,0,0,1-.61-.09,1.16,1.16,0,0,0-.55,0c-.07-.08-.2-.06-.38,0a.11.11,0,0,0-.17,0,.15.15,0,0,1-.16,0,.58.58,0,0,0-.28-.06h-1.43a.35.35,0,0,0-.22.11.22.22,0,0,0-.22-.08l-.16,0a.55.55,0,0,1-.19-.06c-.09,0-.16,0-.2,0h-.27a.23.23,0,0,0-.22.11l-.11-.11a.33.33,0,0,1-.3.08c-.13,0-.21,0-.25,0,0-.11-.1-.14-.19-.08s-.16,0-.2,0a.37.37,0,0,1-.27.11h-3a.28.28,0,0,0-.2.06.26.26,0,0,1-.19,0,.36.36,0,0,0-.14,0,.79.79,0,0,1-.38,0H185l-.11.11-.11-.11a1,1,0,0,1-.5.11,4.22,4.22,0,0,0-1.1,0c-.47,0-.82.08-1,.08a1.57,1.57,0,0,1-.5.06,1.88,1.88,0,0,0-.55,0,2,2,0,0,1-.6.06,1.84,1.84,0,0,0-.55,0,4.58,4.58,0,0,1-.88.06l-.17.22A.17.17,0,0,1,178.71,74.08Z" style="fill:#7e9a3d"/></g></g><g style="isolation:isolate"><text transform="translate(172.35 97.39)" style="isolation:isolate;font-size:26px;fill:#7e9a3d;font-family:AdventPro-Regular, Advent Pro;letter-spacing:0.20000751201923078em">μ<tspan x="18.67" y="0" style="letter-spacing:0.19901216947115385em">α</tspan><tspan x="37" y="0" style="letter-spacing:0.19998873197115385em">ς</tspan></text></g><g style="isolation:isolate"><text transform="translate(132.85 22.1)" style="isolation:isolate;font-size:26px;fill:#7e9a3d;font-family:AdventPro-Regular, Advent Pro;letter-spacing:0.020000751201923076em">Οι</text></g><g style="isolation:isolate"><g style="isolation:isolate"><path d="M4.52,25.47a3.21,3.21,0,0,0-2-.8c-.81-.07-1.34-.13-1.6-.18-.63-.06-.94-.33-1-.82a1.31,1.31,0,0,1,.28-.62.77.77,0,0,1,.37-.29,5.78,5.78,0,0,1,2.76.12A4.1,4.1,0,0,1,5.75,24c.44.72.53,1.24.26,1.56S5.16,26,4.52,25.47ZM2.25,39.78a.84.84,0,0,1,.17-1.33C5.24,36.43,7.42,35,9,34a1,1,0,0,1,1.25.56c.2.3.06.65-.44,1l-6,4.29A1,1,0,0,1,2.25,39.78ZM10,18.45A2.28,2.28,0,0,0,9.49,18L4.32,14.61l-.7-.53c-.39-.5-.5-.89-.34-1.18s.69-.56,1.35-.39l1.61,1.18,4.21,2.62a6.59,6.59,0,0,1,1.37,1.61q.19.67-.18,1a.68.68,0,0,1-.8.05A2.07,2.07,0,0,1,10,18.45Z" style="fill:#7e9a3d"/></g></g><g style="isolation:isolate"><g style="isolation:isolate"><path d="M238.27,83.46a.65.65,0,0,1-.8,0q-.37-.28-.18-1a6.8,6.8,0,0,1,1.37-1.61l4.21-2.61,1.61-1.17c.66-.18,1.11,0,1.35.38s0,.68-.34,1.18l-.7.53-5.17,3.43a2,2,0,0,0-.48.4A1.88,1.88,0,0,1,238.27,83.46Zm7.09,21-6.05-4.29c-.5-.38-.64-.72-.43-1a1,1,0,0,1,1.25-.55q2.33,1.39,6.55,4.43a.83.83,0,0,1,.17,1.32A1,1,0,0,1,245.36,104.43Zm-2.27-14.3q-.41-.48.27-1.56a4.07,4.07,0,0,1,2.33-1.15,5.82,5.82,0,0,1,2.77-.12.87.87,0,0,1,.37.29,1.22,1.22,0,0,1,.27.62c0,.49-.33.76-1,.82-.25,0-.79.11-1.6.18a3.21,3.21,0,0,0-2,.8C243.94,90.55,243.45,90.59,243.09,90.13Z" style="fill:#7e9a3d"/></g></g></svg>