<svg xmlns="http://www.w3.org/2000/svg" viewBox="0 0 249.1 101.21"><g style="isolation:isolate"><g style="isolation:isolate"><path d="M43.75,65.34A19.58,19.58,0,0,1,42,61.93c-.54-1.36-1.49-4-2.85-8l-2.75-8a3.19,3.19,0,0,1-.16-.46,1,1,0,0,0-.36-.52,4.12,4.12,0,0,0-1.12,1.18c-.13.17-.29.42-.49.75a3.12,3.12,0,0,1-.62.76.67.67,0,0,0-.27.59v.46a8.92,8.92,0,0,0,.07,1.77,10.17,10.17,0,0,1,.13,1.37L33.66,58a18.87,18.87,0,0,1-.4,4.79,2,2,0,0,1-1,1.44c-.48.22-.67.48-.59.79a9.2,9.2,0,0,1-1.77.26,3,3,0,0,1-1.44-.33.82.82,0,0,0-.19-.46,4.81,4.81,0,0,1-.56-2.06,25.11,25.11,0,0,1-.17-2.79V58.58a6.29,6.29,0,0,0-.06-1,17.07,17.07,0,0,1-.13-1.84l.06-1.25c.09-.74.14-1.38.17-1.93s0-1,0-1.34c0-1.14,0-2,.07-2.49s.06-1.47.06-2.82q.46-8.65.72-11.74c.18-2.18.33-3.82.46-4.92,0-.52,0-.82-.13-.91l.13-.53a9.11,9.11,0,0,1,1.25-.13,8.3,8.3,0,0,1,1.21.07c.33,0,.6.09.82.13a3.61,3.61,0,0,1,.52.65l.07.79.39,1.57c0,.18.11.62.2,1.32a9.36,9.36,0,0,1,.06,2,6.83,6.83,0,0,0,0,1.48c.06.54.1.93.1,1.14q.06,1.24,0,2.13c0,.59,0,1.09,0,1.48l.06,1.57c0,.13,0,.59-.13,1.38a35.65,35.65,0,0,0,3.31-4.43,50.89,50.89,0,0,0,2.92-4.94c.57-1.14,1.2-2.36,1.9-3.68s1.16-2,1.38-2,.36.19.55.59a2.27,2.27,0,0,1,.3,1,1.64,1.64,0,0,1-.2.72l-3.15,6.75-.85,1.77c-.22.4-.68,1.16-1.37,2.3a6.52,6.52,0,0,0-1.18,2.23,1.61,1.61,0,0,0,.19.72L38,46c.31.7.68,1.46,1.12,2.29a11.58,11.58,0,0,1,.82,1.8c.24.68.4,1.13.49,1.35q2,5.45,3.34,9.77l.59,1.5c0,.13.19.46.43,1A3.29,3.29,0,0,1,45.13,65c0,.52-.39.72-1.18.59Z" style="fill:#7e9a3d"/><path d="M49.59,64.78a4.29,4.29,0,0,1-2.3-2.46,14.48,14.48,0,0,1-1.11-5.7,22.31,22.31,0,0,1,.46-4.07,13.7,13.7,0,0,1,1.64-4.26C49,46.85,49.53,45.76,50,45a12.63,12.63,0,0,1,1.54-2.16c1-1.18,1.9-1.77,2.69-1.77a1.74,1.74,0,0,1,.78.2,16.55,16.55,0,0,0,1.67.42,4.23,4.23,0,0,1,1.74.76c.35.26.61.22.79-.13a1.26,1.26,0,0,1,.52-.5,1.38,1.38,0,0,1,.66-.22,1,1,0,0,1,.69.26,1.14,1.14,0,0,1,.36.65c0,.18.08.4.13.66a6.66,6.66,0,0,1,.06,1,4.82,4.82,0,0,1-.16,1,4.91,4.91,0,0,0-.16,1.08,5.26,5.26,0,0,0,.19,1.38,7.88,7.88,0,0,1,.2,2.82q-.33,3.4-.46,7.73c0,.35-.1.82-.16,1.41a12.4,12.4,0,0,0-.1,1.41,7.32,7.32,0,0,0,.13,1.11,3.89,3.89,0,0,0,.95-1,10.05,10.05,0,0,0,.75-1.64c.27-.61.48-1.07.66-1.38s.3-.7.65-1.44a11,11,0,0,0,.79-2.23,2.1,2.1,0,0,1,.39-.62.64.64,0,0,1,.4-.1c.26.17.39.33.39.46a4.3,4.3,0,0,1-.13,1c-.09.37-.15.63-.2.76a36.41,36.41,0,0,1-1.64,4.85c-.35.61-.7,1.16-1,1.64l-.79,1.24a1.45,1.45,0,0,1-1.25.59,9,9,0,0,1-2.19-.78,2.51,2.51,0,0,1-1.15-1.58c0-.13-.1-.27-.16-.42l-.23-.5a7.63,7.63,0,0,0-1.18,1.61,7.69,7.69,0,0,1-.86,1.28,8.56,8.56,0,0,1-1.41,1.28,2.54,2.54,0,0,1-1.47.42A6.91,6.91,0,0,1,49.59,64.78Zm3.47-1.25a4.67,4.67,0,0,0,1-1.21A17.73,17.73,0,0,0,56.86,56a52.45,52.45,0,0,0,.53-6c.08-2,.19-3.43.33-4.4a4.15,4.15,0,0,0-.56-1.7c-.29-.44-.56-.63-.82-.59a.66.66,0,0,0-.56.36c-.15.24-.25.41-.29.49l-1.05,2.43a52.86,52.86,0,0,0-2.69,7.14A28.27,28.27,0,0,0,51,58.32c0,.18-.08.43-.13.76a7.22,7.22,0,0,0-.06.88,5.66,5.66,0,0,0,.13,1.12,2.7,2.7,0,0,1,.06,1v.26a2.46,2.46,0,0,0,.33,1.28c.22.37.44.56.66.56A2.05,2.05,0,0,0,53.06,63.53Z" style="fill:#7e9a3d"/><path d="M61.65,71.24l-.13-.33c0-.22.25-.54.75-1a16,16,0,0,1,1.67-1.21,17.86,17.86,0,0,0,1.84-1.45,70.76,70.76,0,0,0,5.57-6.42,21.66,21.66,0,0,0,3.44-6.46A26.57,26.57,0,0,0,75.68,47a10.25,10.25,0,0,0-.33-3,3,3,0,0,0-.85-1.5,1.94,1.94,0,0,0-1.31-.53,2.48,2.48,0,0,0-1.77.86,8.82,8.82,0,0,0-1.58,2c-.48.81-.81,1.37-1,1.68,0,.08-.14.26-.3.52a1.09,1.09,0,0,1-.68.52c-.4.18-.59.07-.59-.32a5.3,5.3,0,0,1,.42-1.64A15.37,15.37,0,0,1,68.4,44a7.25,7.25,0,0,1,4.79-3.34,3.65,3.65,0,0,1,.85-.06,10.05,10.05,0,0,1,2.1.23,4.15,4.15,0,0,1,1.7.68,5.43,5.43,0,0,1,1.64,2.36,19.62,19.62,0,0,1,.79,6.23l-.07,4.66a62.14,62.14,0,0,1-.65,9.17,2.47,2.47,0,0,1-.73,1.64c-1.44.13-2.6.2-3.47.2A2,2,0,0,1,74,64.55a4,4,0,0,1-.2-1.38,16.06,16.06,0,0,1,.1-1.7c.07-.66.12-1.12.16-1.38L74.43,59a3.09,3.09,0,0,0-.46.72,46.92,46.92,0,0,1-8.39,9.83,22.25,22.25,0,0,1-1.87,1.41,3.26,3.26,0,0,1-1.41.69A.68.68,0,0,1,61.65,71.24Z" style="fill:#7e9a3d"/><path d="M77.84,71.24l-.13-.33c0-.22.25-.54.75-1a17.09,17.09,0,0,1,1.67-1.21A16.76,16.76,0,0,0,82,67.3a70.76,70.76,0,0,0,5.57-6.42A21.43,21.43,0,0,0,91,54.42,26.57,26.57,0,0,0,91.87,47a10.25,10.25,0,0,0-.33-3,3,3,0,0,0-.85-1.5,1.92,1.92,0,0,0-1.31-.53,2.52,2.52,0,0,0-1.77.86,9.11,9.11,0,0,0-1.58,2c-.48.81-.8,1.37-1,1.68l-.29.52a1.13,1.13,0,0,1-.69.52c-.39.18-.59.07-.59-.32a5.3,5.3,0,0,1,.42-1.64A15.37,15.37,0,0,1,84.59,44a7.25,7.25,0,0,1,4.79-3.34,3.65,3.65,0,0,1,.85-.06,10,10,0,0,1,2.1.23,4.15,4.15,0,0,1,1.7.68,5.43,5.43,0,0,1,1.64,2.36,19.33,19.33,0,0,1,.79,6.23l-.07,4.66a62.14,62.14,0,0,1-.65,9.17A2.51,2.51,0,0,1,95,65.53c-1.45.13-2.6.2-3.48.2a2,2,0,0,1-1.31-1.18,4,4,0,0,1-.2-1.38c0-.48,0-1.05.1-1.7s.12-1.12.17-1.38L90.62,59a3.09,3.09,0,0,0-.46.72,46.92,46.92,0,0,1-8.39,9.83,22,22,0,0,1-1.86,1.41,3.37,3.37,0,0,1-1.41.69A.68.68,0,0,1,77.84,71.24Z" style="fill:#7e9a3d"/><path d="M100.82,64.52a4.6,4.6,0,0,1-1.22-2.59c0-.26-.08-.57-.13-.92s-.11-.74-.19-1.18a11.2,11.2,0,0,1-.13-2c0-.7,0-1.32.06-1.87s.09-1,.13-1.41l.2-1.84q.19-1.83.85-5.5l.59-3,.2-1.9c0-.79.26-1.18.78-1.18a1.56,1.56,0,0,1,.66.2,2.7,2.7,0,0,1,1.47,1.83,12.62,12.62,0,0,1,.37,3.28c0,.66,0,1.6-.14,2.82l-.06,1.38c-.26,3.54-.59,7-1,10.55a4,4,0,0,1-.1.82,3.71,3.71,0,0,0-.1.88,2.57,2.57,0,0,0,.06.63.46.46,0,0,0,.4.29.36.36,0,0,0,.36-.23,1,1,0,0,1,.16-.29l.66-1.05a.64.64,0,0,1,.92-.13.6.6,0,0,1,.32.78q-.92,2.82-2.82,2.82A4,4,0,0,1,100.82,64.52Z" style="fill:#7e9a3d"/><path d="M112.22,64.25a5.8,5.8,0,0,1-2.72-2.39,5.38,5.38,0,0,1-.85-3,11.41,11.41,0,0,1,2-7l.36-.56a1.16,1.16,0,0,0,.23-.62,11.09,11.09,0,0,0-.75-1.61,5.74,5.74,0,0,1-.76-2.46,5.55,5.55,0,0,1,1.45-3.7,6.25,6.25,0,0,1,3.28-2.13,8.46,8.46,0,0,1,1.77-.26,5.74,5.74,0,0,1,2.62.62,1.9,1.9,0,0,1,1.24,1.74,2.15,2.15,0,0,1-.39,1.18l-.33.19a4.36,4.36,0,0,1-.49-.78,3.21,3.21,0,0,0-.43-.69.65.65,0,0,0-.52-.23,4,4,0,0,0-2.66,1.57,4.51,4.51,0,0,0-1.47,3,1.48,1.48,0,0,0,.26.92,3.16,3.16,0,0,0,1.64.66,6.22,6.22,0,0,1,1.61.55,1.18,1.18,0,0,1,.49,1.08c0,.66-.22,1-.66,1.18a4.59,4.59,0,0,0-2.32,1.68,12.3,12.3,0,0,0-1.48,2.91,11.92,11.92,0,0,0-.65,3.41q0,.39.06,1a5.65,5.65,0,0,0,.2,1l.32.72a2.45,2.45,0,0,0,.66.92,1.78,1.78,0,0,0,.92.4,9,9,0,0,0,1.11.13,2.72,2.72,0,0,0,2.3-1.18,7.1,7.1,0,0,0,1.44-3.21,1.89,1.89,0,0,1,.1-.63c.06-.19.16-.29.29-.29a.46.46,0,0,1,.4.32,2.69,2.69,0,0,1,.19,1A4.38,4.38,0,0,1,120,62a9.93,9.93,0,0,1-1.87,2.19,3.41,3.41,0,0,1-2.43.85A8.26,8.26,0,0,1,112.22,64.25Zm4-27.37a3.32,3.32,0,0,1,.39-1.44l.13-.46.65-1.31A3.92,3.92,0,0,1,118.81,32a4,4,0,0,1,1.57-.52,1.55,1.55,0,0,1,.92.33.3.3,0,0,1,.2.33,3.46,3.46,0,0,1-.46,1.37c-.09.22-.24.57-.46,1.05a9.1,9.1,0,0,1-.75,1.34,9.3,9.3,0,0,1-1.08,1.28l-.27.2a3.56,3.56,0,0,1-.88.36c-.15,0-.32.06-.49.1C116.54,37.87,116.26,37.54,116.26,36.88Z" style="fill:#7e9a3d"/><path d="M125.56,85.2a2.1,2.1,0,0,1-.65-1.51q-.39-3.54-.66-8.45l-.06-2.36c-.09-2.1-.13-3.68-.13-4.72,0-1.32,0-2.3.06-3l.07-2.23c.13-3.54.32-6.57.59-9.08a27.15,27.15,0,0,1,1.7-7.12,8.34,8.34,0,0,1,3.87-4.65,5.84,5.84,0,0,1,2.56-.72,3.62,3.62,0,0,1,1.63.39c.75.44,1.42.85,2,1.25s1.15,1.46,1.24,3l.2,1.31a13.77,13.77,0,0,1,.26,2.16,35.07,35.07,0,0,1-2.56,12.65,7.42,7.42,0,0,1-1.83,2.43,3.43,3.43,0,0,1-2.16,1,4,4,0,0,1-1.61-.39,5.26,5.26,0,0,0-1.34-.46,22,22,0,0,0-.33,3.27v2.17a25.19,25.19,0,0,0,.19,3.21c.09,1,.14,3.15.14,6.42a16.5,16.5,0,0,0,.19,2.56,7.61,7.61,0,0,1,.13,1.18,4.42,4.42,0,0,1-.19,1.25,2.68,2.68,0,0,1-.76,1.37.76.76,0,0,1-1.08.13C126.15,85.61,125.65,85.24,125.56,85.2Zm7.8-22.49a30.55,30.55,0,0,0,1.32-3.08c.52-1.7.95-3.21,1.27-4.52a18.35,18.35,0,0,0,.56-3.93l.07-2.36q0-3.68-1.58-4.86a1.76,1.76,0,0,0-1.18-.45c-1,0-1.82.9-2.59,2.72a27.87,27.87,0,0,0-1.73,6.36,37.53,37.53,0,0,0-.59,5.86,6.51,6.51,0,0,0,2.16,5.25,1.41,1.41,0,0,0,.72.33C132.4,64,132.93,63.59,133.36,62.71Z" style="fill:#7e9a3d"/><path d="M144.15,85.72a2.7,2.7,0,0,1-1.08-1.44,15.48,15.48,0,0,1-.79-4.85,14.93,14.93,0,0,1,.46-3.8,38.88,38.88,0,0,1,4.06-10.36,2.28,2.28,0,0,0,.53-1.57,29.66,29.66,0,0,0-1.25-5.9l-1-3.94a48.78,48.78,0,0,0-1.57-5.5,18.83,18.83,0,0,0-2.23-5.25,1.81,1.81,0,0,1-.33-.72c0-.22.2-.41.59-.59a2.68,2.68,0,0,1,1.05-.26c1,0,2,.75,3.08,2.26a19.83,19.83,0,0,1,2.62,5.08c1.14,3.41,2,6.27,2.69,8.59a6.81,6.81,0,0,0,1.05-1.64c.3-.66.54-1.16.72-1.51.35-.65.69-1.33,1-2a8.86,8.86,0,0,0,.69-2,22.3,22.3,0,0,1,.59-2.43,24,24,0,0,0,.66-3.27,6,6,0,0,1,.1-.73,2.33,2.33,0,0,1,.36-1,.81.81,0,0,1,.72-.39,1.31,1.31,0,0,1,1,.39,1.49,1.49,0,0,1,.37,1,15,15,0,0,1-1.91,6.82l-.78,1.51c-.18.3-.64,1.12-1.38,2.45a35.18,35.18,0,0,1-2.36,3.71,1.57,1.57,0,0,0-.33,1,1.9,1.9,0,0,0,.13.78,34.73,34.73,0,0,1,1.71,11.08q0,6.95-1.31,9.77a19.35,19.35,0,0,1-2,3.41,4.91,4.91,0,0,1-2.63,1.7,7.65,7.65,0,0,1-1.24.13A3.27,3.27,0,0,1,144.15,85.72Zm2.52-2.42a9.46,9.46,0,0,0,1.18-3.21c.13-1.31.2-2.82.2-4.53a67,67,0,0,0-.4-7.6c-.17.52-.33,1-.49,1.37s-.27.75-.36,1a36.73,36.73,0,0,0-1.18,4.13c-.13.48-.27,1-.42,1.54s-.32,1.13-.49,1.74a6.06,6.06,0,0,0-.27,1.84,12.07,12.07,0,0,0,.17,1.83c.11.7.18,1.23.23,1.58,0,.52.3.83.91.91A1.09,1.09,0,0,0,146.67,83.3Z" style="fill:#7e9a3d"/><path d="M163.88,64.25a5.8,5.8,0,0,1-2.72-2.39,5.38,5.38,0,0,1-.85-3,11.34,11.34,0,0,1,2-7c.09-.13.21-.32.36-.56a1.25,1.25,0,0,0,.23-.62,11.09,11.09,0,0,0-.75-1.61,5.6,5.6,0,0,1-.76-2.46,5.53,5.53,0,0,1,1.44-3.7,6.29,6.29,0,0,1,3.28-2.13,8.64,8.64,0,0,1,1.77-.26,5.71,5.71,0,0,1,2.62.62,1.91,1.91,0,0,1,1.25,1.74,2.15,2.15,0,0,1-.39,1.18l-.33.19a3.86,3.86,0,0,1-.49-.78,3.66,3.66,0,0,0-.43-.69.67.67,0,0,0-.52-.23A4,4,0,0,0,167,44.16a4.51,4.51,0,0,0-1.47,3,1.42,1.42,0,0,0,.26.92,3.12,3.12,0,0,0,1.64.66,6,6,0,0,1,1.6.55,1.16,1.16,0,0,1,.49,1.08c0,.66-.21,1-.65,1.18a4.62,4.62,0,0,0-2.33,1.68,12.21,12.21,0,0,0-2.13,6.32,8.12,8.12,0,0,0,.07,1,6.7,6.7,0,0,0,.19,1q.08.13.33.72a2.35,2.35,0,0,0,.66.92,1.75,1.75,0,0,0,.91.4,9.27,9.27,0,0,0,1.12.13,2.7,2.7,0,0,0,2.29-1.18,7,7,0,0,0,1.45-3.21,2.18,2.18,0,0,1,.09-.63c.07-.19.17-.29.3-.29a.43.43,0,0,1,.39.32,2.69,2.69,0,0,1,.2,1,4.31,4.31,0,0,1-.76,2.27,9.88,9.88,0,0,1-1.86,2.19,3.43,3.43,0,0,1-2.43.85A8.26,8.26,0,0,1,163.88,64.25Z" style="fill:#7e9a3d"/><path d="M177.38,64.52a4.59,4.59,0,0,1-1.21-2.59c0-.26-.09-.57-.13-.92s-.11-.74-.2-1.18a12.21,12.21,0,0,1-.13-2c0-.7,0-1.32.07-1.87s.08-1,.13-1.41l.2-1.84q.19-1.83.85-5.5l.59-3,.19-1.9c0-.79.27-1.18.79-1.18a1.65,1.65,0,0,1,.66.2,2.7,2.7,0,0,1,1.47,1.83,12.66,12.66,0,0,1,.36,3.28c0,.66,0,1.6-.13,2.82l-.06,1.38c-.27,3.54-.59,7-1,10.55a3.4,3.4,0,0,1-.1.82,4.31,4.31,0,0,0-.09.88,2.57,2.57,0,0,0,.06.63.43.43,0,0,0,.39.29.34.34,0,0,0,.36-.23.94.94,0,0,1,.17-.29l.65-1.05a.65.65,0,0,1,.92-.13.6.6,0,0,1,.33.78q-.92,2.82-2.82,2.82A4,4,0,0,1,177.38,64.52Z" style="fill:#7e9a3d"/><path d="M188.79,64.25a5.8,5.8,0,0,1-2.72-2.39,5.38,5.38,0,0,1-.85-3,11.34,11.34,0,0,1,2-7c.09-.13.21-.32.36-.56a1.25,1.25,0,0,0,.23-.62,10.61,10.61,0,0,0-.76-1.61,5.7,5.7,0,0,1-.75-2.46,5.53,5.53,0,0,1,1.44-3.7,6.29,6.29,0,0,1,3.28-2.13,8.64,8.64,0,0,1,1.77-.26,5.71,5.71,0,0,1,2.62.62,1.91,1.91,0,0,1,1.25,1.74,2.15,2.15,0,0,1-.39,1.18l-.33.19a3.86,3.86,0,0,1-.49-.78,3.66,3.66,0,0,0-.43-.69.67.67,0,0,0-.52-.23,4,4,0,0,0-2.66,1.57,4.51,4.51,0,0,0-1.47,3,1.42,1.42,0,0,0,.26.92,3.12,3.12,0,0,0,1.64.66,6.12,6.12,0,0,1,1.6.55,1.16,1.16,0,0,1,.49,1.08c0,.66-.21,1-.65,1.18a4.62,4.62,0,0,0-2.33,1.68,12.21,12.21,0,0,0-2.13,6.32,8.12,8.12,0,0,0,.07,1,5.69,5.69,0,0,0,.19,1q.08.13.33.72a2.35,2.35,0,0,0,.66.92,1.75,1.75,0,0,0,.91.4,9.27,9.27,0,0,0,1.12.13,2.7,2.7,0,0,0,2.29-1.18,7,7,0,0,0,1.45-3.21,2.18,2.18,0,0,1,.09-.63c.07-.19.17-.29.3-.29a.43.43,0,0,1,.39.32,2.69,2.69,0,0,1,.2,1,4.31,4.31,0,0,1-.76,2.27,9.88,9.88,0,0,1-1.86,2.19,3.43,3.43,0,0,1-2.43.85A8.26,8.26,0,0,1,188.79,64.25Zm4-27.37a3.32,3.32,0,0,1,.39-1.44l.14-.46.65-1.31A3.78,3.78,0,0,1,195.38,32a4,4,0,0,1,1.57-.52,1.57,1.57,0,0,1,.92.33.3.3,0,0,1,.2.33,3.63,3.63,0,0,1-.46,1.37c-.09.22-.24.57-.46,1.05a8.31,8.31,0,0,1-.76,1.34,8.07,8.07,0,0,1-1.08,1.28l-.26.2a3.58,3.58,0,0,1-.89.36c-.15,0-.31.06-.49.1C193.1,37.87,192.82,37.54,192.82,36.88Z" style="fill:#7e9a3d"/><path d="M204.1,72.35a1.81,1.81,0,0,1-1-1.64,1.62,1.62,0,0,1,.19-.92,2.2,2.2,0,0,1,.53-.46,2.53,2.53,0,0,0,.62,1,1.5,1.5,0,0,0,1.08.43,3.88,3.88,0,0,0,2.43-1.15,3.15,3.15,0,0,0,1.31-2.26,1.64,1.64,0,0,0-.59-1.25,3.37,3.37,0,0,0-1.28-.82c-.46-.15-1.12-.36-2-.62a9.19,9.19,0,0,1-3-1.18,4.17,4.17,0,0,1-1.28-1.31,13.07,13.07,0,0,1-.79-1.54c-.24-.55-.4-.93-.49-1.15a6.39,6.39,0,0,1-.46-2.49,16.75,16.75,0,0,1,.39-2.95,22.17,22.17,0,0,1,4.86-10,19.57,19.57,0,0,1,5-4.26,1.63,1.63,0,0,1,.72-.13c1.32,0,2,.3,2,.92a.94.94,0,0,1-.39.72,14.74,14.74,0,0,0-2.43,2.49l-1.37,1.77a20.49,20.49,0,0,0-2.89,5A14.09,14.09,0,0,0,204,56a6.27,6.27,0,0,0,3.27,5.9l3.41.78a3.62,3.62,0,0,1,1.87,1.81,6.06,6.06,0,0,1,.62,2.72,5.33,5.33,0,0,1-1.44,3.6,6.12,6.12,0,0,1-3.41,2,4.36,4.36,0,0,1-1.37.19A6.28,6.28,0,0,1,204.1,72.35Z" style="fill:#7e9a3d"/></g></g><g style="isolation:isolate"><g style="isolation:isolate"><path d="M178.71,70.59a.23.23,0,0,0-.14-.08.5.5,0,0,1-.27-.05s0-.11.16-.22h.22l1.21-.17,1.87-.16,1.32-.11a3.59,3.59,0,0,1,.72-.06,3.76,3.76,0,0,0,.71,0,6,6,0,0,1,.91-.06,6.36,6.36,0,0,0,.85,0,.22.22,0,0,0,.22-.11c.08.11.15.14.22.11a2.19,2.19,0,0,1,.75-.11H188c1.1-.08,2-.11,2.58-.11s1.47,0,2.64,0l.14,0c.06,0,.08,0,.08-.08h.94c0,.08.07.09.22.06h1.81c.81,0,1.4,0,1.76,0l.28,0a1.29,1.29,0,0,1,.38,0,1.66,1.66,0,0,0,.55.11,3.53,3.53,0,0,1,.66,0h.61l.33,0a1.13,1.13,0,0,0,.38,0,.3.3,0,0,1,.2.08.17.17,0,0,0,.19,0,.19.19,0,0,1,.19,0l.19,0h1l.22,0a.55.55,0,0,0,.28,0,.47.47,0,0,1,.16,0c.08,0,.13,0,.17,0a.27.27,0,0,1,.14.06.21.21,0,0,0,.19,0h1.15a.42.42,0,0,1,.2,0s.12,0,.19,0,.08,0,.14.08.1.06.13,0h.44l.17,0a.19.19,0,0,0,.16,0,.51.51,0,0,1,.17,0,.18.18,0,0,0,.22,0,.29.29,0,0,0,.27.11h.83l.27,0a.53.53,0,0,1,.33.22v.22h-.11a4.76,4.76,0,0,0-1.92-.16l-.17-.06,0-.05-.11.11s-.1,0-.19-.11-.16-.06-.2.05a.29.29,0,0,0-.19-.05h-.91a.21.21,0,0,1-.16-.06.26.26,0,0,0-.17,0,.27.27,0,0,0-.16.11.36.36,0,0,0-.28-.11H203.1a2.25,2.25,0,0,1-.77-.11.28.28,0,0,0-.44.11.25.25,0,0,0-.27-.14l-.22,0h-.94a.35.35,0,0,1-.22-.11l-.11.11c-.33-.15-.56-.15-.71,0a.16.16,0,0,0-.17,0,.15.15,0,0,1-.16,0,1.72,1.72,0,0,0-.44,0h-1.71a.3.3,0,0,1-.22-.06,1.51,1.51,0,0,1-.49.11,2.33,2.33,0,0,1-.61-.08,1.33,1.33,0,0,0-.55,0c-.07-.07-.2,0-.38.06,0-.08-.09-.09-.17-.06s-.12,0-.16,0a.74.74,0,0,0-.28,0h-1.43a.31.31,0,0,0-.22.11.2.2,0,0,0-.22-.08l-.16,0a.76.76,0,0,1-.19,0c-.09,0-.16,0-.2,0h-.27a.21.21,0,0,0-.22.11l-.11-.11a.33.33,0,0,1-.3.08c-.13,0-.21,0-.25,0s-.1-.14-.19-.08-.16,0-.2,0a.37.37,0,0,1-.27.11h-3a.34.34,0,0,0-.2,0,.22.22,0,0,1-.19,0l-.14,0s-.16.06-.38.06H185l-.11.11-.11-.11a1,1,0,0,1-.5.11,4.22,4.22,0,0,0-1.1,0c-.47,0-.82.08-1,.08a2,2,0,0,1-.5.05,1.81,1.81,0,0,0-.55.06,2.57,2.57,0,0,1-.6.05,1.76,1.76,0,0,0-.55.06,5.9,5.9,0,0,1-.88.05l-.17.22A.14.14,0,0,1,178.71,70.59Z" style="fill:#7e9a3d"/></g></g><g style="isolation:isolate"><g style="isolation:isolate"><path d="M183.7,93.88a1.67,1.67,0,0,1-.58-.62,4,4,0,0,1-3,1l-.59,0a8.84,8.84,0,0,1-1.92-.43,10.13,10.13,0,0,1-1.22-.55l-.56-.3v6.45l-1.48-.24V80.88h1.48v10.3a8,8,0,0,0,1.59,1.07,5.52,5.52,0,0,0,2.65.62c1.79,0,2.68-1,2.68-2.94V81l1.48-.31V92.12a1.51,1.51,0,0,0,.16.49,1.29,1.29,0,0,0,.54.6l-.7.86A1.27,1.27,0,0,1,183.7,93.88Z" style="fill:#7e9a3d"/><path d="M202.11,93.82a1.92,1.92,0,0,0-.53,0l-.55,0-1.18.1c-.6.05-1.13.08-1.6.08a6.55,6.55,0,0,1-3.81-1c-.93-.65-1.39-1.83-1.39-3.54V84.71a3.93,3.93,0,0,1,1-3.06,4,4,0,0,1,2.77-1A8.42,8.42,0,0,1,199,81a10.87,10.87,0,0,1,2.06.77l.5-1.07,1.14.57c0,.19-.05.57-.1,1.15s-.08,1-.08,1.37v8.12a1.48,1.48,0,0,0,.19.48,1.57,1.57,0,0,0,.59.61l-.7.86Zm-5.19-11.77c-1.63,0-2.44.91-2.44,2.73V89.7a2.75,2.75,0,0,0,.91,2.36,4.62,4.62,0,0,0,2.76.68,20.42,20.42,0,0,0,2.93-.24V83.12A12.29,12.29,0,0,0,196.92,82.05Z" style="fill:#7e9a3d"/><path d="M217.78,96.12a2.27,2.27,0,0,0-.29-1.08,2.46,2.46,0,0,0-.86-.9c-.31-.2-.54-.35-.7-.44-1-.66-1.86-1.22-2.46-1.69A6.19,6.19,0,0,1,212,90.32a4.37,4.37,0,0,1-.6-2.31V84.37a3.44,3.44,0,0,1,.43-1.65,3.35,3.35,0,0,1,1.43-1.38,5.37,5.37,0,0,1,2.61-.56,5.85,5.85,0,0,1,1.47.16,5.37,5.37,0,0,1,1,.32c.24.11.39.19.44.22l-.49,1.2a3.36,3.36,0,0,0-.36-.2,4.61,4.61,0,0,0-.81-.28,4.25,4.25,0,0,0-1.17-.15,3.85,3.85,0,0,0-2.18.61,1.87,1.87,0,0,0-.91,1.63v3.22a4.58,4.58,0,0,0,.39,2,4.82,4.82,0,0,0,1.28,1.59A22.64,22.64,0,0,0,217.2,93a3.93,3.93,0,0,1,1.45,1.41,3.48,3.48,0,0,1,.48,1.73,2.84,2.84,0,0,1-.5,1.64l-1.11-.7A1.83,1.83,0,0,0,217.78,96.12Z" style="fill:#7e9a3d"/></g></g><g style="isolation:isolate"><g style="isolation:isolate"><path d="M143.79,17.67A6.13,6.13,0,0,1,140,18.9a7.1,7.1,0,0,1-2.65-.5,4.51,4.51,0,0,1-2-1.66,5,5,0,0,1-.8-2.93V5.43a5.29,5.29,0,0,1,1.47-4A5.68,5.68,0,0,1,140,0a5.33,5.33,0,0,1,4,1.46,5.5,5.5,0,0,1,1.41,4v8.35A4.59,4.59,0,0,1,143.79,17.67Zm-.94-15.33a4.31,4.31,0,0,0-2.93-1,4.26,4.26,0,0,0-2.91,1,3.61,3.61,0,0,0-1.09,2.86v8.58a3.48,3.48,0,0,0,1.13,2.8,4.33,4.33,0,0,0,2.87.94,4.4,4.4,0,0,0,2.9-.92A3.43,3.43,0,0,0,144,13.75V5.2A3.58,3.58,0,0,0,142.85,2.34Z" style="fill:#7e9a3d"/><path d="M149.21,5.59h1.45v13h-1.45Z" style="fill:#7e9a3d"/></g></g><g style="isolation:isolate"><g style="isolation:isolate"><path d="M4.52,22a3.21,3.21,0,0,0-2-.81c-.81-.06-1.34-.13-1.6-.17-.63-.07-.94-.34-1-.82a1.35,1.35,0,0,1,.28-.63.8.8,0,0,1,.37-.28,5.63,5.63,0,0,1,2.76.11,4.23,4.23,0,0,1,2.34,1.15c.44.73.53,1.25.26,1.57S5.16,22.53,4.52,22ZM2.25,36.29A.83.83,0,0,1,2.42,35c2.82-2,5-3.5,6.56-4.43a1,1,0,0,1,1.25.55c.2.31.06.65-.44,1s-2.62,1.84-6,4.28A1,1,0,0,1,2.25,36.29ZM10,15a2.19,2.19,0,0,0-.48-.4L4.32,11.12l-.7-.52c-.39-.5-.5-.89-.34-1.18S4,8.86,4.63,9l1.61,1.18,4.21,2.61a6.8,6.8,0,0,1,1.37,1.61q.19.68-.18,1a.65.65,0,0,1-.8,0A1.88,1.88,0,0,1,10,15Z" style="fill:#7e9a3d"/></g></g><g style="isolation:isolate"><g style="isolation:isolate"><path d="M238.27,80a.66.66,0,0,1-.8,0q-.37-.29-.18-1a6.8,6.8,0,0,1,1.37-1.61l4.21-2.61,1.61-1.18q1-.25,1.35.39c.16.29,0,.68-.34,1.17l-.7.53-5.17,3.43a2.06,2.06,0,0,0-.48.41A2.07,2.07,0,0,1,238.27,80Zm7.09,21-6.05-4.29c-.5-.38-.64-.73-.43-1a1,1,0,0,1,1.25-.55q2.33,1.4,6.55,4.43a.83.83,0,0,1,.17,1.32A1,1,0,0,1,245.36,101Zm-2.27-14.31q-.41-.48.27-1.56a4.19,4.19,0,0,1,2.33-1.15,5.67,5.67,0,0,1,2.77-.11.92.92,0,0,1,.37.28,1.25,1.25,0,0,1,.27.63c0,.48-.33.75-1,.82-.25,0-.79.11-1.6.17a3.21,3.21,0,0,0-2,.81C243.94,87.07,243.45,87.11,243.09,86.64Z" style="fill:#7e9a3d"/></g></g></svg>