<svg xmlns="http://www.w3.org/2000/svg" viewBox="0 0 232.66 88.17"><g style="isolation:isolate"><g style="isolation:isolate"><path d="M86.28,79.52a21,21,0,0,1-2-3.81q-.92-2.28-3.19-8.95l-3.08-9a4.31,4.31,0,0,1-.18-.51,1.16,1.16,0,0,0-.4-.59A4.71,4.71,0,0,0,76.23,58a10,10,0,0,0-.55.85,3,3,0,0,1-.7.84.79.79,0,0,0-.29.66v.51a10.25,10.25,0,0,0,.07,2,11.81,11.81,0,0,1,.15,1.54l.07,6.9a21.29,21.29,0,0,1-.44,5.35,2.2,2.2,0,0,1-1.17,1.61c-.54.25-.76.54-.66.88a9.86,9.86,0,0,1-2,.3,3.3,3.3,0,0,1-1.61-.37.92.92,0,0,0-.22-.51,5.53,5.53,0,0,1-.63-2.31,28.83,28.83,0,0,1-.18-3.12V72A6.73,6.73,0,0,0,68,70.79a19.36,19.36,0,0,1-.15-2.05l.07-1.39c.1-.83.16-1.56.19-2.17s0-1.11,0-1.5c0-1.27,0-2.2.08-2.79s.07-1.63.07-3.15q.51-9.68.81-13.13.28-3.66.51-5.5c.05-.58,0-.93-.15-1l.15-.59A8.81,8.81,0,0,1,71,37.35a10.25,10.25,0,0,1,1.36.08l.92.14a3.75,3.75,0,0,1,.58.74l.08.88L74.4,41c0,.19.12.68.22,1.46a11.84,11.84,0,0,1,.07,2.2,7.15,7.15,0,0,0,0,1.65c.07.62.11,1,.11,1.29,0,.93.06,1.72,0,2.38s0,1.21,0,1.65l.07,1.76c0,.15,0,.66-.15,1.54a39.42,39.42,0,0,0,3.71-5,56.54,56.54,0,0,0,3.26-5.54q1-1.91,2.13-4.1c.78-1.47,1.29-2.2,1.54-2.2s.4.22.62.66a2.57,2.57,0,0,1,.33,1.1,1.76,1.76,0,0,1-.22.8l-3.52,7.56-1,2c-.25.44-.76,1.29-1.54,2.56a7.43,7.43,0,0,0-1.32,2.5,1.76,1.76,0,0,0,.22.8l.8,1.84c.35.78.76,1.64,1.25,2.56a12.24,12.24,0,0,1,.92,2c.27.76.45,1.26.55,1.5q2.19,6.09,3.74,10.93l.66,1.69c0,.14.21.51.47,1.1a3.66,3.66,0,0,1,.41,1.46q0,.88-1.32.66Z" style="fill:#7e9a3d"/><path d="M91.81,78.2a5,5,0,0,1-2-2.2A16.72,16.72,0,0,1,88,68.3a21.63,21.63,0,0,1,.22-3.15,17.41,17.41,0,0,1,1.32-4.92c.15-.29.57-1.27,1.28-2.93a15.49,15.49,0,0,1,2.39-4,3.57,3.57,0,0,1,2.56-1.54,2.69,2.69,0,0,1,.74.14,11.41,11.41,0,0,0,1.79.33,4.87,4.87,0,0,1,2.09.7l1.1,1,.88,1.83.3,1.32.29,1.76a30.69,30.69,0,0,1-.29,6.31c-.3,1.66-.76,3.61-1.4,5.86l-.66,2.2a1.07,1.07,0,0,1-.07.41.85.85,0,0,0-.07.33l-.74,1.32a16.52,16.52,0,0,1-1,1.68,14.44,14.44,0,0,1-2,1.84,2.66,2.66,0,0,1-1.91.36A8,8,0,0,1,91.81,78.2Zm4.07-1A49.42,49.42,0,0,0,99,72.15a13.55,13.55,0,0,0,1-4,23.12,23.12,0,0,0,.15-3.08l.07-4.76q0-4.41-.81-5.5a1.91,1.91,0,0,1-.44-.48c-.14-.22-.29-.33-.44-.33-.53,0-.9.34-1.1,1-.14.44-.49,1.44-1,3A74,74,0,0,0,94,66a31.54,31.54,0,0,0-.51,6.3c0,.49.1,1.52.29,3.08a3,3,0,0,0,.41,1.47c.27.49.55.73.84.73A1.62,1.62,0,0,0,95.88,77.25Z" style="fill:#7e9a3d"/><path d="M112.66,79.08a6.81,6.81,0,0,1-2.75-2.64,8.27,8.27,0,0,1-1.43-3.67,25.6,25.6,0,0,0-.51-2.93c0-.34-.15-1-.29-1.83s-.25-1.67-.3-2.35q-.15-2-.51-4.29c-.25-1.54-.39-2.55-.44-3-.29-1.57-.49-2.74-.59-3.52a3.09,3.09,0,0,1-.07-.74c0-.44.27-.73.81-.88a6.09,6.09,0,0,1,1.54-.22,2.9,2.9,0,0,1,2.78,2A51.09,51.09,0,0,1,114,68.52c.15,1.42.28,2.57.41,3.45s.35,1.37.69,1.46.42-.36.66-1.1a47.85,47.85,0,0,0,2.13-9l.44-2.56a24.37,24.37,0,0,0,.66-5.06l-.07-3.08c0-.64.22-1,.66-1.18.58.2,1,.81,1.17,1.84,0,1.22,0,2,0,2.42s0,.68,0,.88c0,.63,0,1.51-.14,2.64l-.37,3.37a27.4,27.4,0,0,1-.81,3.45q-.51,2.06-1.61,5.2l-.66,2.35c-.25.88-.49,1.66-.73,2.35a14.63,14.63,0,0,1-1.29,2.45,1.83,1.83,0,0,1-1.57.92A2.79,2.79,0,0,1,112.66,79.08Z" style="fill:#7e9a3d"/><path d="M126.41,78.31a2.93,2.93,0,0,1-.92-1.94v-3l-.07-6.23v-1c.09-2.49.24-4.66.44-6.49a26.87,26.87,0,0,1,1.1-5.32l.14-1.1a.5.5,0,0,0-.22-.44.51.51,0,0,0-.51,0,15.19,15.19,0,0,1-2.27.44c-.64,0-1-.27-1-.8,0-.35.22-.56.66-.66.78-.25,1.71-.49,2.79-.74l5.72-1.24a6,6,0,0,1,1.1-.15A3.2,3.2,0,0,1,135,50c.46.27.69.55.69.85s-.19.51-.58.66a2.29,2.29,0,0,1-1.1.22h-1c-1,.14-1.54.36-1.54.66a1.12,1.12,0,0,0,.15.44,1.19,1.19,0,0,1,.14.44,35.23,35.23,0,0,1-.36,7.26,34.7,34.7,0,0,0-.37,5.64c0,.83,0,2.08.15,3.74l.07,3.45a22.54,22.54,0,0,1-.59,4.18,1.77,1.77,0,0,1-.8,1.17,2.54,2.54,0,0,1-1.47.44A2.67,2.67,0,0,1,126.41,78.31Z" style="fill:#7e9a3d"/><path d="M140.37,78.9a4.86,4.86,0,0,1-2.57-2.75,16.17,16.17,0,0,1-1.25-6.38,24.6,24.6,0,0,1,.52-4.55,15.39,15.39,0,0,1,1.83-4.77c.78-1.61,1.41-2.83,1.87-3.66a14.14,14.14,0,0,1,1.72-2.42c1.13-1.32,2.13-2,3-2a1.91,1.91,0,0,1,.88.22c.44.14,1.06.3,1.87.47a4.57,4.57,0,0,1,1.94.85c.39.29.69.24.88-.15a1.44,1.44,0,0,1,.59-.55,1.57,1.57,0,0,1,.73-.26,1.1,1.1,0,0,1,.77.3,1.22,1.22,0,0,1,.41.73,6.83,6.83,0,0,1,.14.73,6.71,6.71,0,0,1,.08,1.1A5.06,5.06,0,0,1,153.6,57a4.82,4.82,0,0,0,0,2.75,9,9,0,0,1,.22,3.15c-.24,2.55-.42,5.43-.51,8.66,0,.39-.11.91-.19,1.57s-.11,1.19-.11,1.58a8.77,8.77,0,0,0,.15,1.25,4.53,4.53,0,0,0,1.06-1.18,11.55,11.55,0,0,0,.85-1.83c.29-.68.54-1.2.73-1.54s.34-.78.73-1.61a12.23,12.23,0,0,0,.88-2.5,2.58,2.58,0,0,1,.44-.69.7.7,0,0,1,.44-.11c.3.19.44.36.44.51a5.52,5.52,0,0,1-.14,1.14c-.1.41-.17.69-.22.84a43,43,0,0,1-1.84,5.43,20.83,20.83,0,0,1-1.17,1.83l-.88,1.39a1.63,1.63,0,0,1-1.39.66,9.23,9.23,0,0,1-2.46-.88,2.79,2.79,0,0,1-1.28-1.76c0-.14-.11-.3-.19-.47s-.16-.36-.25-.55a8.93,8.93,0,0,0-1.32,1.79,7.79,7.79,0,0,1-1,1.43,9.13,9.13,0,0,1-1.57,1.43,2.86,2.86,0,0,1-1.65.48A7.73,7.73,0,0,1,140.37,78.9Zm3.88-1.4a5.22,5.22,0,0,0,1.18-1.35,20,20,0,0,0,3.08-7,59.15,59.15,0,0,0,.58-6.75c.1-2.2.22-3.84.37-4.91a4.67,4.67,0,0,0-.62-1.91c-.32-.49-.63-.71-.92-.66a.73.73,0,0,0-.62.4c-.17.27-.28.46-.33.55l-1.18,2.72a58.66,58.66,0,0,0-3,8,30.59,30.59,0,0,0-.88,5.13,8.23,8.23,0,0,0-.15.85,7.19,7.19,0,0,0-.07,1,7.1,7.1,0,0,0,.14,1.24,3,3,0,0,1,.08,1.1v.3a2.84,2.84,0,0,0,.36,1.43c.25.41.49.62.74.62A2.26,2.26,0,0,0,144.25,77.5Zm7.34-30.1a3.53,3.53,0,0,1,.44-1.61l.14-.52c.05-.09.3-.58.74-1.46A4.26,4.26,0,0,1,154.45,42a4.48,4.48,0,0,1,1.76-.58,1.76,1.76,0,0,1,1,.36c.15,0,.22.17.22.37a4,4,0,0,1-.51,1.54q-.15.38-.51,1.17a10.51,10.51,0,0,1-.85,1.51,9.9,9.9,0,0,1-1.21,1.43l-.29.22a4.22,4.22,0,0,1-1,.4l-.55.11C151.9,48.5,151.59,48.13,151.59,47.4Z" style="fill:#7e9a3d"/><path d="M179.26,77.5a9.48,9.48,0,0,1-2.83-4.8,7.86,7.86,0,0,1-.51-2.86,21.35,21.35,0,0,1,.44-3.52,27.23,27.23,0,0,1,5.57-11.81,25.16,25.16,0,0,1,5.94-5,1.5,1.5,0,0,1,.88-.15c1.52,0,2.28.34,2.28,1a1.13,1.13,0,0,1-.44.88l-2.5,2.2c-.39.39-.71.73-1,1a1.32,1.32,0,0,0-.37.81,1.48,1.48,0,0,0,.3.81,9.86,9.86,0,0,0,.8,1A6.14,6.14,0,0,1,189.34,61c.1,1.17.19,2.05.29,2.64a38.4,38.4,0,0,1,.3,3.89,10.61,10.61,0,0,1-.08,1.46,24.88,24.88,0,0,1-1.13,5.8q-1,3.23-2.61,3.88a6.14,6.14,0,0,1-2.56.59A6.34,6.34,0,0,1,179.26,77.5Zm5.61-.4a2.69,2.69,0,0,0,.4-.55c.12-.22.23-.4.33-.55a31.14,31.14,0,0,0,2.13-8.43c0-.54.07-1.32.07-2.35a19,19,0,0,0-.44-4.33c-.05-.09-.25-.86-.59-2.31s-.76-2-1.24-1.72a2.88,2.88,0,0,0-.92.88,6.39,6.39,0,0,0-.59,1.17c-.17.44-.33.84-.47,1.18a21.24,21.24,0,0,0-2.06,9.09,21.82,21.82,0,0,0,.74,5.72,5.8,5.8,0,0,0,.36,1.17,10.72,10.72,0,0,0,.81,1,1.1,1.1,0,0,0,.81.29A.89.89,0,0,0,184.87,77.1Z" style="fill:#7e9a3d"/><path d="M197.91,78.9a4.86,4.86,0,0,1-2.57-2.75,16.17,16.17,0,0,1-1.24-6.38,25.36,25.36,0,0,1,.51-4.55,15.39,15.39,0,0,1,1.83-4.77c.79-1.61,1.41-2.83,1.87-3.66A14.21,14.21,0,0,1,200,54.37q1.68-2,3-2a1.88,1.88,0,0,1,.88.22c.44.14,1.07.3,1.87.47a4.62,4.62,0,0,1,2,.85c.39.29.68.24.88-.15a1.35,1.35,0,0,1,.58-.55,1.6,1.6,0,0,1,.74-.26,1.11,1.11,0,0,1,.77.3,1.21,1.21,0,0,1,.4.73c0,.2.1.44.15.73a6.84,6.84,0,0,1,.07,1.1,5.53,5.53,0,0,1-.18,1.14,5.21,5.21,0,0,0-.19,1.21,6.15,6.15,0,0,0,.22,1.54,8.74,8.74,0,0,1,.22,3.15c-.24,2.55-.41,5.43-.51,8.66,0,.39-.11.91-.18,1.57a13.48,13.48,0,0,0-.11,1.58,10,10,0,0,0,.14,1.25,4.57,4.57,0,0,0,1.07-1.18,10.8,10.8,0,0,0,.84-1.83c.29-.68.54-1.2.73-1.54s.35-.78.74-1.61a12.86,12.86,0,0,0,.88-2.5,2.15,2.15,0,0,1,.44-.69.68.68,0,0,1,.44-.11c.29.19.44.36.44.51a5,5,0,0,1-.15,1.14c-.1.41-.17.69-.22.84a41.13,41.13,0,0,1-1.83,5.43,20.81,20.81,0,0,1-1.18,1.83l-.88,1.39a1.63,1.63,0,0,1-1.39.66,9.23,9.23,0,0,1-2.46-.88,2.79,2.79,0,0,1-1.28-1.76c-.05-.14-.11-.3-.18-.47s-.16-.36-.26-.55a8.93,8.93,0,0,0-1.32,1.79,8.53,8.53,0,0,1-.95,1.43,9.53,9.53,0,0,1-1.58,1.43,2.82,2.82,0,0,1-1.65.48A7.73,7.73,0,0,1,197.91,78.9Zm3.89-1.4A5.16,5.16,0,0,0,203,76.15a20,20,0,0,0,3.08-7,61.3,61.3,0,0,0,.59-6.75c.09-2.2.22-3.84.36-4.91a4.39,4.39,0,0,0-.62-1.91c-.32-.49-.62-.71-.92-.66a.73.73,0,0,0-.62.4c-.17.27-.28.46-.33.55l-1.17,2.72a59,59,0,0,0-3,8,31.65,31.65,0,0,0-.88,5.13,8.23,8.23,0,0,0-.15.85,7.19,7.19,0,0,0-.07,1,6.36,6.36,0,0,0,.15,1.24,3,3,0,0,1,.07,1.1v.3a2.75,2.75,0,0,0,.37,1.43c.24.41.49.62.73.62A2.31,2.31,0,0,0,201.8,77.5Z" style="fill:#7e9a3d"/><path d="M222.54,87.37a2,2,0,0,1-1.17-1.84,1.71,1.71,0,0,1,.22-1,2,2,0,0,1,.59-.52,2.89,2.89,0,0,0,.69,1.14,1.64,1.64,0,0,0,1.21.48,4.31,4.31,0,0,0,2.72-1.29,3.53,3.53,0,0,0,1.46-2.53,1.79,1.79,0,0,0-.66-1.39,3.61,3.61,0,0,0-1.43-.92c-.51-.17-1.26-.4-2.23-.69a10.42,10.42,0,0,1-3.38-1.32A4.84,4.84,0,0,1,219.13,76a16.3,16.3,0,0,1-.88-1.72c-.27-.61-.45-1-.55-1.29a7.28,7.28,0,0,1-.51-2.78,18.7,18.7,0,0,1,.44-3.3,24.87,24.87,0,0,1,5.43-11.22,22,22,0,0,1,5.64-4.77,1.83,1.83,0,0,1,.81-.15c1.47,0,2.2.35,2.2,1a1.08,1.08,0,0,1-.44.81,16.27,16.27,0,0,0-2.71,2.78c-.83,1.08-1.35,1.74-1.54,2a23.43,23.43,0,0,0-3.23,5.54,15.78,15.78,0,0,0-1.39,6.2,7,7,0,0,0,3.66,6.6l3.82.88a4,4,0,0,1,2.09,2,7,7,0,0,1,.69,3.05,6,6,0,0,1-1.61,4A6.78,6.78,0,0,1,227.24,88a4.81,4.81,0,0,1-1.54.22A7.14,7.14,0,0,1,222.54,87.37Z" style="fill:#7e9a3d"/></g></g><g style="isolation:isolate"><g style="isolation:isolate"><path d="M97.37,33.48c-.08-.08-.14-.12-.19-.12a.62.62,0,0,1-.39-.08c0-.05.07-.16.23-.31h.31l1.72-.24,2.65-.23,1.87-.16a5.62,5.62,0,0,1,1-.07,4.81,4.81,0,0,0,1-.08,9.46,9.46,0,0,1,1.29-.08A8,8,0,0,0,108.1,32a.33.33,0,0,0,.31-.15c.1.15.2.2.31.15a3.41,3.41,0,0,1,1-.15h.74c1.56-.11,2.78-.16,3.67-.16s2.08.08,3.74.08a.58.58,0,0,0,.2,0c.08,0,.11-.07.11-.12h1.33c0,.11.1.13.31.08h2.58c1.14,0,2,0,2.49.08a2,2,0,0,0,.39,0,1.34,1.34,0,0,1,.55,0,2.63,2.63,0,0,0,.78.15,4.42,4.42,0,0,1,.94-.07h.85a3.38,3.38,0,0,1,.47,0,1.39,1.39,0,0,0,.55,0,.4.4,0,0,1,.27.11.21.21,0,0,0,.27,0,.34.34,0,0,1,.28,0,1.31,1.31,0,0,0,.27,0H132a1.55,1.55,0,0,1,.31,0,.73.73,0,0,0,.4,0,.69.69,0,0,1,.23.08c.1,0,.18,0,.23,0a.43.43,0,0,1,.2.08.26.26,0,0,0,.27,0h1.64a.43.43,0,0,1,.27.08c.08,0,.17,0,.28-.08s.11,0,.19.12.14.09.2,0h.62l.23,0a.22.22,0,0,0,.24,0,.62.62,0,0,1,.23.08.25.25,0,0,0,.31-.08c.05.11.18.16.39.16h1.17a2.83,2.83,0,0,1,.39.08.72.72,0,0,1,.47.31v.31h-.15a7,7,0,0,0-2.73-.23l-.24-.08-.08-.08-.15.16a.54.54,0,0,1-.28-.16c-.13-.1-.22-.08-.27.08a.38.38,0,0,0-.27-.08h-1.29a.28.28,0,0,1-.23-.08.34.34,0,0,0-.24-.07c-.05,0-.13.05-.23.15a.56.56,0,0,0-.39-.15H132a2.92,2.92,0,0,1-1.09-.16.4.4,0,0,0-.62.16.39.39,0,0,0-.39-.2l-.32,0h-1.32a.41.41,0,0,1-.31-.16l-.16.16c-.47-.21-.81-.21-1,0a.27.27,0,0,0-.24,0,.22.22,0,0,1-.23,0,2.12,2.12,0,0,0-.62-.08h-2.42a.45.45,0,0,1-.31-.07,2.63,2.63,0,0,1-.71.15,4.05,4.05,0,0,1-.86-.11,1.48,1.48,0,0,0-.77,0c-.11-.11-.29-.08-.55.07a.15.15,0,0,0-.24-.07c-.1,0-.18,0-.23,0a.75.75,0,0,0-.39-.08h-2a.45.45,0,0,0-.31.15.31.31,0,0,0-.31-.11l-.23,0a.94.94,0,0,1-.28-.08q-.2-.07-.27,0h-.39a.31.31,0,0,0-.31.15l-.16-.15a.51.51,0,0,1-.43.12c-.18,0-.3,0-.35,0,0-.15-.14-.19-.27-.11s-.22.06-.27,0a.56.56,0,0,1-.39.15h-4.33a.41.41,0,0,0-.28.08.34.34,0,0,1-.27,0,.93.93,0,0,0-.19,0,1.1,1.1,0,0,1-.55.08H106.3l-.15.16L106,32.5a1.23,1.23,0,0,1-.7.16,6.52,6.52,0,0,0-1.56,0c-.68.07-1.17.11-1.48.11a2.19,2.19,0,0,1-.71.08,2.84,2.84,0,0,0-.78.08,3.13,3.13,0,0,1-.85.08,3,3,0,0,0-.79.07,6.24,6.24,0,0,1-1.24.08l-.24.31A.21.21,0,0,1,97.37,33.48Z" style="fill:#7e9a3d"/></g></g><g style="isolation:isolate"><g style="isolation:isolate"><path d="M0,0H6.09A5.78,5.78,0,0,1,10,1.3a4.69,4.69,0,0,1,1.52,3.78,6.28,6.28,0,0,1-.37,2.18A3.92,3.92,0,0,1,9.6,9.08l0,.05v0A5.08,5.08,0,0,1,11.7,11a5.86,5.86,0,0,1,.86,3.3A7.33,7.33,0,0,1,12,17.21a5,5,0,0,1-2,2.22,6.52,6.52,0,0,1-3.56.87H0ZM7.67,7.63A2.78,2.78,0,0,0,8.5,5.39a2.52,2.52,0,0,0-.82-2.17,3.82,3.82,0,0,0-2.34-.61H2.64V8.32H5.19A3.8,3.8,0,0,0,7.67,7.63Zm.87,9.49c.69-.49,1-1.45,1-2.88a3,3,0,0,0-1-2.58,4.31,4.31,0,0,0-2.64-.78H2.64v7h2.9A5.07,5.07,0,0,0,8.54,17.12Z" style="fill:#7e9a3d"/><path d="M21.69,0h6.79a5.15,5.15,0,0,1,4.36,1.86,7.56,7.56,0,0,1,1.44,4.78,12.36,12.36,0,0,1-1.06,5.25q-1.06,2.27-4.48,2.26H24.33V20.3H21.69Zm8.85,10.8A3.28,3.28,0,0,0,31.48,9a14.33,14.33,0,0,0,.16-2.36,4.31,4.31,0,0,0-.93-3.16A3.78,3.78,0,0,0,28,2.61H24.33v9H28.1A3.32,3.32,0,0,0,30.54,10.8Z" style="fill:#7e9a3d"/><path d="M43.41,0H53.1V2.61H46.05V8.32h4.53l-.79,2.56H46.05v7h7V20.3H43.41Z" style="fill:#7e9a3d"/><path d="M64.12,2.55l-1.83-.06V0h4.5V20.3H64.12Z" style="fill:#7e9a3d"/><path d="M81.34,2.61H76.91V0H88.56V2.61H84V20.3H81.34Z" style="fill:#7e9a3d"/><path d="M97.7,0h9.69V2.61h-7V8.32h4.52l-.78,2.56h-3.74v7h7V20.3H97.7Z" style="fill:#7e9a3d"/><path d="M134.82,2.61h-4.44V0H142V2.61h-4.58V20.3h-2.64Z" style="fill:#7e9a3d"/><path d="M159.24,14.35H153.9l-1.54,6h-2.92L154.8,0h3.45l5.66,20.3h-3.08Zm-4.7-2.75h4.06l-2.09-7.25Z" style="fill:#7e9a3d"/></g></g></svg>