<svg xmlns="http://www.w3.org/2000/svg" viewBox="0 0 83.48 49.81"><path d="M5.21.48H78.27A4.75,4.75,0,0,1,83,5.21V44.6a4.75,4.75,0,0,1-4.73,4.73H5.21A4.75,4.75,0,0,1,.48,44.6V5.21A4.74,4.74,0,0,1,5.21.48" style="fill:none"/><path d="M5.21,49.81A5.24,5.24,0,0,1,0,44.6V5.21A5.24,5.24,0,0,1,5.21,0H78.27a5.24,5.24,0,0,1,5.21,5.21V44.6a5.25,5.25,0,0,1-5.21,5.21ZM5.21,1A4.27,4.27,0,0,0,1,5.21V44.6a4.28,4.28,0,0,0,4.25,4.25H78.27a4.28,4.28,0,0,0,4.25-4.25V5.21A4.27,4.27,0,0,0,78.27,1Z" style="fill:#d8d8d8"/><path d="M36.76,41.92V36.06h3.78v1H38v1.42h2.35v1H38v2.5H36.76" style="fill:#d8d8d8"/><path d="M43.12,42a2.16,2.16,0,1,1,2.13-2.19v0A2,2,0,0,1,43.42,42Zm0-.81c.75,0,.87-.7.87-1.35s-.12-1.35-.87-1.35-.87.7-.87,1.35.12,1.35.87,1.35" style="fill:#d8d8d8"/><path d="M48,42a2.16,2.16,0,1,1,2.13-2.19v0A2,2,0,0,1,48.3,42Zm0-.81c.75,0,.87-.7.87-1.35s-.12-1.35-.87-1.35-.86.7-.86,1.35.12,1.35.86,1.35" style="fill:#d8d8d8"/><path d="M53.74,36.05H55V41.1c0,.27,0,.55,0,.82H53.78c0-.2,0-.38,0-.58h0a1.36,1.36,0,0,1-1.25.7c-1.19,0-1.75-1.11-1.75-2.16a2,2,0,0,1,1.76-2.15h.15a1.34,1.34,0,0,1,1.08.59h0Zm-.88,5.18c.66,0,.88-.79.88-1.35s-.22-1.35-.88-1.35-.87.72-.87,1.35.1,1.35.87,1.35" style="fill:#d8d8d8"/><path d="M22.11,13.17h5.46l2.74,4.74-2.74,4.74H22.1l-2.73-4.74,2.74-4.74" style="fill:#d8d8d8"/><path d="M22.08,24.21h5.47L30.28,29l-2.73,4.73H22.08L19.34,29l2.74-4.74" style="fill:#d8d8d8"/><path d="M12.94,7.18h5.47l2.74,4.73-2.74,4.74H12.94l-2.73-4.74,2.73-4.73" style="fill:#d8d8d8"/><path d="M40.68,31.29H36.84V13.38h3.84V31.29" style="fill:#d8d8d8"/><path d="M45.54,31.29V13.38H57.1v3H49.38v4.31h7.19v3H49.38v7.64H45.54" style="fill:#d8d8d8"/><path d="M68.88,18.49a2.63,2.63,0,0,0-2.54-2.72,2.2,2.2,0,0,0-.44,0c-1.41,0-2.85.74-2.85,2.31,0,1.93,1.73,2.15,3.27,2.52,2.73.7,6.75,1.47,6.75,5.06,0,4.44-3.87,6-7.71,6-4.1,0-7-1.58-6.87-6.1H62.4a2.84,2.84,0,0,0,2.29,3.29,2.8,2.8,0,0,0,.71,0c1.54,0,3.57-.47,3.57-2.38,0-2.1-2.55-2.25-4.09-2.65-2.5-.62-5.93-1.76-5.93-4.94,0-4.09,3.77-5.9,7.45-5.9,3.47,0,6.17,1.89,6.17,5.48h-3.7" style="fill:#d8d8d8"/></svg>