<svg xmlns="http://www.w3.org/2000/svg" viewBox="0 0 690.73 135.72"><g style="isolation:isolate"><g style="isolation:isolate"><path d="M270.49,132.78a8.64,8.64,0,0,0,5.43,1.62,13.61,13.61,0,0,0,4.38-.66,7,7,0,0,0,3.07-1.91,4.23,4.23,0,0,0,1.13-3v-5.73a19.85,19.85,0,0,1,.07-2,2.5,2.5,0,0,1,.5-1.22,3.08,3.08,0,0,1,1.35-.91l.39.93q-1,.45-1,2.1l0,6.57a5.69,5.69,0,0,1-1.55,4.14,8.75,8.75,0,0,1-3.82,2.28,15.87,15.87,0,0,1-4.62.69,11.32,11.32,0,0,1-4.43-.84,6.85,6.85,0,0,1-4.36-6.72v-4.65a6.15,6.15,0,0,1,1.69-4.71,8.15,8.15,0,0,1,3.83-2.07,15.75,15.75,0,0,1,3.24-.36,8,8,0,0,1,4.63,1.26,4.69,4.69,0,0,1,1.85,4.17l1.11.48v1.23l-1.11-.48v8a25.2,25.2,0,0,1-6.33,1.08,6,6,0,0,1-3.68-1,4.47,4.47,0,0,1-1.54-3.45v-3a5.16,5.16,0,0,1,.66-2.82,3.78,3.78,0,0,1,2-1.5,6,6,0,0,1,2.07-.33,10,10,0,0,1,2.76.41,16.22,16.22,0,0,1,2.64,1,3.53,3.53,0,0,0-1.46-2.81,6.09,6.09,0,0,0-3.55-.94,9.46,9.46,0,0,0-5.34,1.4,5,5,0,0,0-2.1,4.48V128A5.62,5.62,0,0,0,270.49,132.78Zm2.65-2.7a4.85,4.85,0,0,0,3,.81,15.46,15.46,0,0,0,4.8-.9v-7.41a16.77,16.77,0,0,0-2.6-1,9.48,9.48,0,0,0-2.68-.42A4,4,0,0,0,273,122a3.3,3.3,0,0,0-1,2.68v2.91A3,3,0,0,0,273.14,130.08Z" style="fill:#7e9a3d"/><path d="M298.25,119.38a3.78,3.78,0,0,1,1.68,2.18,13.69,13.69,0,0,1,.32,3.24v8.94q-3.24.33-4.68.33a9.33,9.33,0,0,1-5-1.17c-1.25-.78-1.86-2.19-1.86-4.23v-2.49q0-3,2.1-4a5.75,5.75,0,0,1,2.58-.51,10.35,10.35,0,0,1,3,.45,8.18,8.18,0,0,1,2.55,1.23,3.79,3.79,0,0,0-1-2.78c-.7-.7-2-1-3.93-1l.09-1.08A7.83,7.83,0,0,1,298.25,119.38ZM291.47,132a7.65,7.65,0,0,0,4.07.91,29,29,0,0,0,3.36-.27v-8.13a14.07,14.07,0,0,0-2.64-1.09,9.56,9.56,0,0,0-2.82-.47,3.78,3.78,0,0,0-2.48.78,3.17,3.17,0,0,0-.94,2.58v2.61A3.35,3.35,0,0,0,291.47,132Z" style="fill:#7e9a3d"/><path d="M304.45,119.91a5.4,5.4,0,0,1,4-1.47,12.63,12.63,0,0,1,2.25.27L310.3,120a6.8,6.8,0,0,0-2-.3,5.62,5.62,0,0,0-2.69.6,1.82,1.82,0,0,0-1.12,1.65v11.82h-1.35v-15h1.35Z" style="fill:#7e9a3d"/><path d="M312.32,119.9a5.55,5.55,0,0,1,4.19-1.52,5.33,5.33,0,0,1,4.08,1.58,6.08,6.08,0,0,1,1.47,4.3v4a6.28,6.28,0,0,1-1.38,4.17,5.13,5.13,0,0,1-4.17,1.65,5.25,5.25,0,0,1-4.22-1.66,6.18,6.18,0,0,1-1.42-4.16v-4A6,6,0,0,1,312.32,119.9Zm1,11.7a4.06,4.06,0,0,0,3.17,1.24,3.94,3.94,0,0,0,3.12-1.23,4.64,4.64,0,0,0,1.08-3.18v-4.2a4.7,4.7,0,0,0-1.16-3.48,4.13,4.13,0,0,0-3-1.14,4.3,4.3,0,0,0-3.12,1.13,4.6,4.6,0,0,0-1.17,3.49v4.2A4.55,4.55,0,0,0,313.34,131.6Z" style="fill:#7e9a3d"/><path d="M326.67,119.61a8.87,8.87,0,0,1,4.18-1.11,5.91,5.91,0,0,1,2.18.38,4,4,0,0,1,1.62,1.09c.29-.16.74-.4,1.38-.72a8,8,0,0,1,3.39-.81,4.7,4.7,0,0,1,3.43,1.31,4.88,4.88,0,0,1,1.31,3.61v10.38h-1.31V123.45a3.78,3.78,0,0,0-1-2.88,3.64,3.64,0,0,0-2.61-1,6.16,6.16,0,0,0-2.69.66l-1.27.63a5.66,5.66,0,0,1,.45,2.58v10.26h-1.32V123.15a3.2,3.2,0,0,0-1-2.64,4.09,4.09,0,0,0-2.66-.84,7.79,7.79,0,0,0-2,.29,7.46,7.46,0,0,0-1.86.76v13h-1.35v-15h1.35Z" style="fill:#7e9a3d"/><path d="M355.88,119.38a3.78,3.78,0,0,1,1.68,2.18,13.76,13.76,0,0,1,.31,3.24v8.94q-3.24.33-4.68.33a9.27,9.27,0,0,1-5-1.17q-1.87-1.17-1.87-4.23v-2.49q0-3,2.1-4a5.75,5.75,0,0,1,2.58-.51,10.3,10.3,0,0,1,3,.45,8.18,8.18,0,0,1,2.55,1.23,3.79,3.79,0,0,0-1-2.78c-.7-.7-2-1-3.93-1l.09-1.08A7.87,7.87,0,0,1,355.88,119.38ZM349.1,132a7.61,7.61,0,0,0,4.06.91,29,29,0,0,0,3.36-.27v-8.13a14.07,14.07,0,0,0-2.64-1.09,9.56,9.56,0,0,0-2.82-.47,3.75,3.75,0,0,0-2.47.78,3.17,3.17,0,0,0-.94,2.58v2.61A3.35,3.35,0,0,0,349.1,132Z" style="fill:#7e9a3d"/><path d="M362.23,119.52a6.42,6.42,0,0,1,1.9-.78,9.41,9.41,0,0,1,2.27-.27,6.92,6.92,0,0,1,3,.57,4.33,4.33,0,0,1,2.54,4.32v10.38h-1.32V123.42a3.35,3.35,0,0,0-1.18-2.85,4.85,4.85,0,0,0-3-.9,9.41,9.41,0,0,0-4.2,1v13h-1.36v-21h1.36Z" style="fill:#7e9a3d"/><path d="M376.31,119.79a5.78,5.78,0,0,1,4-1.35,5.4,5.4,0,0,1,3.89,1.34,4.87,4.87,0,0,1,1.39,3.7v3.6l-9.45.51v2.16a2.83,2.83,0,0,0,1,2.36,4.09,4.09,0,0,0,2.62.79,9.66,9.66,0,0,0,4.53-1.26l.54,1.05a8.54,8.54,0,0,1-2.46,1.05,10.9,10.9,0,0,1-2.76.36,5.24,5.24,0,0,1-3.52-1.1,4,4,0,0,1-1.31-3.28v-6.15A4.8,4.8,0,0,1,376.31,119.79Zm7.93,6.06v-2.52a3.26,3.26,0,0,0-1.23-2.87,4.74,4.74,0,0,0-2.73-.85,4.53,4.53,0,0,0-2.95,1,3.64,3.64,0,0,0-1.19,3v2.7Z" style="fill:#7e9a3d"/><path d="M389.88,119.91a5.41,5.41,0,0,1,4-1.47,12.63,12.63,0,0,1,2.25.27l-.36,1.26a6.8,6.8,0,0,0-2-.3,5.61,5.61,0,0,0-2.68.6,1.83,1.83,0,0,0-1.13,1.65v11.82h-1.35v-15h1.35Z" style="fill:#7e9a3d"/><path d="M400.44,119.49a6.54,6.54,0,0,1,1.89-.75,9.61,9.61,0,0,1,2.28-.27,7.11,7.11,0,0,1,3,.57,4.32,4.32,0,0,1,2.55,4.32V129a4.93,4.93,0,0,1-.63,2.58,4.09,4.09,0,0,1-1.71,1.59,8.13,8.13,0,0,1-1.93.69,9.94,9.94,0,0,1-2.09.21,30.37,30.37,0,0,1-3.06-.21l-1.65-.15v-21h1.35Zm3.18,13.35a7.24,7.24,0,0,0,3.8-.88,3.15,3.15,0,0,0,1.42-2.9v-5.61a3.37,3.37,0,0,0-1.2-2.88,4.91,4.91,0,0,0-3-.9,9.15,9.15,0,0,0-2.22.29,8,8,0,0,0-1.95.73v11.85A18.84,18.84,0,0,0,403.62,132.84Z" style="fill:#7e9a3d"/><path d="M420.2,120.11a5.56,5.56,0,0,0-1-.38,5.13,5.13,0,0,0-1.41-.18,4.71,4.71,0,0,0-2.76.8,2.31,2.31,0,0,0-1,2.29,2,2,0,0,0,1.05,1.61,14.13,14.13,0,0,0,2.85,1.12,25.51,25.51,0,0,1,2.7,1,4.77,4.77,0,0,1,1.74,1.35,3.46,3.46,0,0,1,.72,2.26,3.86,3.86,0,0,1-1.33,3,5.69,5.69,0,0,1-3.92,1.2,6.87,6.87,0,0,1-2.95-.58,4.61,4.61,0,0,1-1.89-1.55,4.13,4.13,0,0,1-.71-2.13h1.29a3,3,0,0,0,1.37,2.2,5.48,5.48,0,0,0,5.62.05,2.41,2.41,0,0,0,1.17-2.16,2.28,2.28,0,0,0-.57-1.59,4.33,4.33,0,0,0-1.39-1c-.55-.24-1.3-.52-2.24-.82a22.29,22.29,0,0,1-2.41-.89,4.87,4.87,0,0,1-1.61-1.12,3,3,0,0,1-.81-1.8,2.26,2.26,0,0,1,0-.42,3.74,3.74,0,0,1,.54-1.91,4.15,4.15,0,0,1,1.7-1.51,6.15,6.15,0,0,1,2.86-.6,7.19,7.19,0,0,1,1.68.19,6.94,6.94,0,0,1,1.17.41l.51.27-.48,1.14Z" style="fill:#7e9a3d"/></g></g><g style="isolation:isolate"><g style="isolation:isolate"><path d="M32.83,68.16H24l3.74-16.8H16.42l-3.84,16.8H4.13l3.93-16.8H0V43.1H10L12.67,32H0V23.14H14.78L19.87,1h8.45L23.14,23.14H34.56L39.74,1h8.93L43.49,23.14h9.12V32H41.38L38.78,43.1H52.61v8.26H36.77ZM21,32,18.43,43.1H29.76L32.45,32Z" style="fill:#7e9a3d"/><path d="M82.27,1h32.06V9.6H91V28.51H105.5L102.43,37H91v31.2H82.27Z" style="fill:#7e9a3d"/><path d="M170.4,47.62a9.64,9.64,0,0,1-2.21.19H153.31V68.16h-8.74V1h23q9.22,0,13.92,6.24T186.24,23a70.12,70.12,0,0,1-.43,8.16,24.78,24.78,0,0,1-2.12,7.25,15.88,15.88,0,0,1-5.23,6.29l7.87,23.42h-8.92Zm3.21-10.9a11.81,11.81,0,0,0,2.93-5.95,45,45,0,0,0,.58-7.73q0-7.48-3.12-10.42c-2.08-1.95-5.11-2.92-9.07-2.92H153.31V39.36h13C169.6,39.36,172,38.48,173.61,36.72Z" style="fill:#7e9a3d"/><path d="M217.92,1H250V9.6H226.65V28.51h15L239,37H226.65V60.29h23.14v7.87H217.92Z" style="fill:#7e9a3d"/><path d="M291.16,57.6a13.58,13.58,0,0,0,9.22,3.07q6.33,0,9.89-2.88a9.08,9.08,0,0,0,3.55-7.39,11.3,11.3,0,0,0-2.16-7.06,16.23,16.23,0,0,0-5.33-4.51,93,93,0,0,0-8.73-3.89A82.26,82.26,0,0,1,288,30.67,18.49,18.49,0,0,1,282,25.3a14.29,14.29,0,0,1-2.5-8.69,14.76,14.76,0,0,1,2.4-8,17.42,17.42,0,0,1,7.3-6.19,27.07,27.07,0,0,1,12-2.4,38,38,0,0,1,7.78.67,28.68,28.68,0,0,1,6.24,2.21l-2.79,8.26a29.38,29.38,0,0,0-11.14-2.31c-4,0-7,.72-9.16,2.16a6.67,6.67,0,0,0-3.22,5.81A6,6,0,0,0,290.59,21a15.25,15.25,0,0,0,4.27,3.12c1.7.87,4.11,2,7.25,3.32A92.42,92.42,0,0,1,313,32.59a23.71,23.71,0,0,1,7.34,6.63,17.06,17.06,0,0,1,3.07,10.41,18.76,18.76,0,0,1-5.66,14.11q-5.67,5.48-17.28,5.48a25.89,25.89,0,0,1-12.15-2.64,19.58,19.58,0,0,1-7.68-6.82,17.47,17.47,0,0,1-2.83-8.69l9.31-1A11.33,11.33,0,0,0,291.16,57.6Z" style="fill:#7e9a3d"/><path d="M387.45,37h-23.9v31.2h-8.74V1h8.74V28.51h23.9V1h8.64v67.2h-8.64Z" style="fill:#7e9a3d"/></g></g><g style="isolation:isolate"><g style="isolation:isolate"><path d="M433.54,6.34V68.16h-3V1h3l41.28,61.73V1h3v67.2h-3Z" style="fill:#7e9a3d"/><path d="M512.17,1h32.06v3h-29V28.51h20.64l-1.06,3.07H515.24v33.7H544v2.88H512.17Z" style="fill:#7e9a3d"/><path d="M577.69,58.13a17.28,17.28,0,0,0,6.57,5.81,21.84,21.84,0,0,0,10.37,2.3q8.64,0,14.16-3.84t5.52-12.19a11,11,0,0,0-2.69-7.54A19.91,19.91,0,0,0,605,37.82a102.54,102.54,0,0,0-10.51-3.93,109.11,109.11,0,0,1-11-4.18,20.6,20.6,0,0,1-6.86-5.09,11.79,11.79,0,0,1-2.83-8.11,14.75,14.75,0,0,1,2.4-8,17.1,17.1,0,0,1,7.25-6.15A27.19,27.19,0,0,1,595.4,0a37.82,37.82,0,0,1,7.77.67,28.31,28.31,0,0,1,6.24,2.21l-1,3.07a26.16,26.16,0,0,0-6.19-2.21A30.09,30.09,0,0,0,595.59,3q-8.07,0-13.3,3.6a11.69,11.69,0,0,0-5.23,10.22,8.73,8.73,0,0,0,2.45,6.29,18.7,18.7,0,0,0,6.1,4.13q3.64,1.58,9.88,3.69a121,121,0,0,1,11.72,4.51A22,22,0,0,1,614.6,41a13.31,13.31,0,0,1,3.07,9q0,8.83-5.61,14t-17.33,5.19a25.89,25.89,0,0,1-12.15-2.64,19.58,19.58,0,0,1-7.68-6.82,17.47,17.47,0,0,1-2.83-8.69h3.26A13.67,13.67,0,0,0,577.69,58.13Z" style="fill:#7e9a3d"/><path d="M650.74,58.13a17.31,17.31,0,0,0,6.58,5.81,21.81,21.81,0,0,0,10.37,2.3q8.64,0,14.16-3.84t5.52-12.19a11,11,0,0,0-2.69-7.54A20,20,0,0,0,678,37.82a102,102,0,0,0-10.52-3.93,109.74,109.74,0,0,1-10.94-4.18,20.4,20.4,0,0,1-6.86-5.09,11.8,11.8,0,0,1-2.84-8.11,14.75,14.75,0,0,1,2.4-8,17.16,17.16,0,0,1,7.25-6.15,27.22,27.22,0,0,1,12-2.35,37.93,37.93,0,0,1,7.78.67,28.31,28.31,0,0,1,6.24,2.21L681.41,6a26,26,0,0,0-6.19-2.21A29.94,29.94,0,0,0,668.65,3q-8.07,0-13.3,3.6a11.66,11.66,0,0,0-5.23,10.22,8.69,8.69,0,0,0,2.45,6.29,18.76,18.76,0,0,0,6.09,4.13q3.65,1.58,9.89,3.69a120.68,120.68,0,0,1,11.71,4.51A22,22,0,0,1,687.65,41a13.31,13.31,0,0,1,3.08,9q0,8.83-5.62,14t-17.33,5.19a25.88,25.88,0,0,1-12.14-2.64A19.58,19.58,0,0,1,648,59.76a17.37,17.37,0,0,1-2.83-8.69h3.26A13.65,13.65,0,0,0,650.74,58.13Z" style="fill:#7e9a3d"/></g></g></svg>