<svg xmlns="http://www.w3.org/2000/svg" width="57.97" height="64.081" viewBox="0 0 57.97 64.081"><g transform="matrix(-0.809, -0.588, 0.588, -0.809, 188.953, 405.643)"><path d="M363.845,203.28a38.71,38.71,0,0,0-2.392-18.576c-.337-.926-.7-1.844-1.116-2.737-1.623,3.782-5.472,6.1-9.3,7.611s-7.532,2.227-10.963,4.5a21.538,21.538,0,0,0-7.777,9.655,26.041,26.041,0,0,0,.452,19.359c7.356-20.832,26.322-32.753,26.322-32.753a101.114,101.114,0,0,0-24.307,33.441,45.975,45.975,0,0,0-2.968,8.473c2.762-3.481,6.936-5.508,11.063-7.153s8.432-3.063,11.986-5.729C359.89,215.586,362.951,209.523,363.845,203.28Z" fill="#f0f0f0"/><g transform="translate(332.027 187.76)"><path d="M379.7,234.74c-.178-.969-.383-1.934-.645-2.885a11,11,0,0,1-3.351,3.265,36.053,36.053,0,0,1,.311,14.249c-1.206,6.19-4.568,12.092-9.8,15.618-3.684,2.484-8.054,3.685-12.259,5.12s-8.475,3.251-11.409,6.588c3.3-2.973,7.755-4.278,12.1-5.214s8.824-1.619,12.772-3.657c5.6-2.893,9.631-8.363,11.55-14.37A38.709,38.709,0,0,0,379.7,234.74Z" transform="translate(-342.546 -231.855)" fill="#f0f0f0"/></g></g></svg>