<svg xmlns="http://www.w3.org/2000/svg" width="93.99" height="67.454" viewBox="0 0 93.99 67.454"><g transform="translate(-599 -326.278)"><path d="M701.2,418.474a6.309,6.309,0,0,1-.773-1.125,5.276,5.276,0,0,1-.206-1.263,5.95,5.95,0,0,1,1.2.157c1.432.488,2.033.361,2.414-1.124a53.476,53.476,0,0,0,1.133-6.453,35.845,35.845,0,0,0,.1-3.838c.041-2.021.19-4.062-1.719-5.494-.185-.138-.108-.625-.153-.95.25.026.563-.037.737.091.906.663,1.1.248.988-.622-.569-4.248-1.156-8.494-1.722-12.743a5.326,5.326,0,0,1,.05-1c.368.2.95.305,1.067.6a25.09,25.09,0,0,1,1.771,5.133c.432,2.692.456,5.448.688,8.174a9.637,9.637,0,0,0,.38,1.53c.572-.182,1.327-.193,1.682-.575a27.1,27.1,0,0,0,3.634-4.421,30.924,30.924,0,0,0,4.1-11.543,2.408,2.408,0,0,1,.235-1.048,1.7,1.7,0,0,1,1.023-.745,1.286,1.286,0,0,1,1.022.673,15.849,15.849,0,0,1,.473,2.661c.558,4.244,1.1,8.49,1.657,12.734a6.2,6.2,0,0,0,.33,1.326c.377,1.02.824,1.121,1.371.085a.745.745,0,0,1,.629-.325c.185.046.455.4.422.566a6.87,6.87,0,0,1-.648,2.285,1.364,1.364,0,0,1-2.328.24,9.325,9.325,0,0,1-1.986-3.2c-.694-2.164-1.07-4.429-1.591-6.65a4.184,4.184,0,0,0-.293-.683c-.133.231-.27.46-.4.694-1.014,1.84-1.947,3.731-3.06,5.509-1.269,2.028-2.7,3.955-5.291,4.45-.844.161-.878.807-.884,1.468-.014,1.647.074,3.3-.053,4.939-.283,3.643-.547,7.309-2.7,10.478Z" transform="translate(-45.584 -24.741)" fill="#b5d963"/><path d="M599,390.553c.753-1.549,1.433-3.139,2.273-4.638a15.485,15.485,0,0,1,6.336-6.267c2.514-1.326,4.67-.516,5.71,2.173a9.625,9.625,0,0,1,.552,3.2c.072,3.013.018,6.029.032,9.043a10.5,10.5,0,0,0,.163,1.9c.02.105.729.222.758.161a21.709,21.709,0,0,0,1.158-2.76c.437-1.39.751-2.819,1.16-4.218a.754.754,0,0,1,.534-.463c.168,0,.451.3.482.5a11.98,11.98,0,0,1-1.857,8.893c-1.318,1.918-3.359,1.85-4.286-.249a34.15,34.15,0,0,1-1.453-5.494c-.066-.26-.127-.521-.19-.782a5.411,5.411,0,0,0-.8.532,42.68,42.68,0,0,1-4.533,4.28c-2.766,1.941-3.8,1.668-6.038-.867Zm2.632,2.121c.207.578.279,1.391.585,1.491a4.14,4.14,0,0,0,1.778-.213c.081-.014.149-.1.223-.156a19.9,19.9,0,0,0,6.573-8.27,7.457,7.457,0,0,0,.6-2.387c.162-1.839-.909-2.556-2.506-1.635C604.57,383.99,602.866,388.168,601.632,392.673Z" transform="translate(0 -23.753)" fill="#b5d963"/><path d="M757.013,399.216c-2.705-.347-4.463-2.221-4.922-5.3-.12-.806-.141-1.626-.207-2.44-.482.633-.917,1.308-1.456,1.888a20.374,20.374,0,0,1-2.917,2.886c-2.441,1.736-4.866.862-5.864-1.951-1.113-3.136-.17-6.046,1.4-8.638a26.125,26.125,0,0,1,4.65-5.354,7.807,7.807,0,0,1,3.423-1.489,2.72,2.72,0,0,1,3.174,1.6.682.682,0,0,0,.624.228c1.775-.937,1.606.516,1.564,1.394a8.818,8.818,0,0,1-.7,2.619,18.18,18.18,0,0,0-1.448,8.575c.241,2.093.608,4.2,2.678,5.427ZM743.875,391.3c0,.871-.031,1.238,0,1.6.169,1.708,1.046,2.317,2.566,1.623a6.3,6.3,0,0,0,2.157-1.608c2.378-2.833,3.714-6.235,4.951-9.661a2.244,2.244,0,0,0-.723-2.713,2.348,2.348,0,0,0-2.806-.017,8.377,8.377,0,0,0-1.33.941A14.517,14.517,0,0,0,743.875,391.3Z" transform="translate(-64.023 -23.622)" fill="#b5d963"/><path d="M660.131,330.289c1.208.347,2.437.635,3.616,1.059,1.07.385,1.947.491,2.506-.746,1.242-2.747,3.912-3.354,6.394-4.248.742-.267.983.208,1.193.734a4.952,4.952,0,0,1-.616,5.182c-.758.969-.524,1.359.584,1.676a13.388,13.388,0,0,1,2.486,1.1c.635.335,1.215.777,1.819,1.171-.646.125-1.293.241-1.935.383a1.592,1.592,0,0,0-.408.233,3.721,3.721,0,0,0,.615.5c1.615.832,3.247,1.633,4.859,2.471a4.548,4.548,0,0,1,1.1.793c.346.345.579.718-.214.9a11.712,11.712,0,0,1-5.669.291,9.358,9.358,0,0,0-5.934.27,22.74,22.74,0,0,0-3.871,2.169c-.236.158-.221,1-.038,1.4.225.486.682.71,1.35.322a11.461,11.461,0,0,1,3.226-1.415,2.72,2.72,0,0,1,2.167.649c.324.325.208,1.435-.1,1.977a5.873,5.873,0,0,1-4.142,3.12c-2.862.456-3.459,1.154-2.87,3.956a10,10,0,0,1,.209,2.162c0,.253-.348.5-.536.753-.155-.29-.426-.572-.444-.87-.059-1,.029-2.018-.043-3.02-.152-2.121-.743-2.557-2.763-2.158-1.961.387-2.626.138-3.674-1.451a3.937,3.937,0,0,1-.323-.949,6.789,6.789,0,0,1,1.2-.3c.35-.026.72.185,1.065.145.734-.085,1.187-.5,1.022-1.3a22.987,22.987,0,0,0-.616-2.381c-.37-1.147-.393-2.139.768-2.9a1.116,1.116,0,0,0-.013-.983,24,24,0,0,0-3.7-1.657c-2.519-.788-5.1-1.373-7.623-2.152a12.944,12.944,0,0,1-2.657-1.355c-.774-.458-.479-.876.188-1.1a21.37,21.37,0,0,1,2.886-.816c1.522-.274,3.066-.422,4.6-.632a6.152,6.152,0,0,1,5.211,1.89c.536.5,1.039,1.035,1.591,1.516.967.845,1.181-.373,1.694-.7a1.326,1.326,0,0,0-.339-.944c-1.65-.973-3.341-1.875-5.027-2.786a12.169,12.169,0,0,1-1.216-.578c-.164-.114-.217-.461-.22-.7,0-.111.229-.311.367-.325.728-.069,1.46-.091,2.19-.13Z" transform="translate(-21.918)" fill="#b5d963"/><path d="M675.235,389.382a52.128,52.128,0,0,0,1.139,5.86,3,3,0,0,0,5.815-.394,6.259,6.259,0,0,0,.379-2.408,50.812,50.812,0,0,0-1.563-6.088c-.2-.622-.956-1.05-1.409-1.608a24.915,24.915,0,0,1-1.933-2.56c-.634-1.029,0-1.757.86-2.241.961-.543,1.527.086,1.986.849.047.078.074.168.123.245,1.464,2.325,2.8,2.25,4.211-.217a13.767,13.767,0,0,1,.9-1.242,8.256,8.256,0,0,1-.024,1.777c-.327,1.436-.746,2.878-2.13,3.694-.806.474-.846,1.033-.571,1.84.441,1.295.818,2.615,1.148,3.943a9,9,0,0,1-.391,5.395,4.812,4.812,0,0,1-7.812,2.215,10.548,10.548,0,0,1-3.5-5.765c-.1-.344-.262-.67-.395-1-.241.259-.492.509-.72.779-1.059,1.256-2.07,2.555-3.184,3.76a5.979,5.979,0,0,1-1.777,1.258c-1.845.892-3.32.095-3.467-1.981a10.453,10.453,0,0,1,.36-3.782,54.811,54.811,0,0,1,2.289-5.571c.478-1.088,1.11-2.112,1.553-3.213.291-.722.767-1.82.46-2.24-.686-.943-1.365.211-2.067.453a1.015,1.015,0,0,1-.693-.19c-.057-.032-.025-.4.077-.5a20.824,20.824,0,0,1,2-1.829,2.1,2.1,0,0,1,2.785.152,2.078,2.078,0,0,1,.7,2.466c-.441,1.1-.848,2.219-1.358,3.287-1.062,2.223-2.233,4.4-3.257,6.636a15,15,0,0,0-.929,3.145,1.035,1.035,0,0,0,1.629,1.135,11.57,11.57,0,0,0,2.322-2.294c1.2-1.725,2.233-3.561,3.318-5.362a7.505,7.505,0,0,1,.772-1.445c.6-.611,1.413-1.6,2.005-1.51,1.227.177.635,1.462.7,2.3.055.728.012,1.464.012,2.2Z" transform="translate(-28.77 -23.365)" fill="#b5d963"/><path d="M633.931,404.076a39.792,39.792,0,0,1,4.571-18.694,17.873,17.873,0,0,1,4.391-5.559c2.106-1.806,4.4-2.222,6.029-1.185,1.436.916,1.989,3.186,1.285,5.773-1.018,3.738-2.437,7.283-5.311,10.048-.132.127-.257.261-.391.385-2.451,2.283-4.151,1.99-5.746-.978a3.928,3.928,0,0,0-.492-.6c-.158.172-.4.317-.462.518a29.183,29.183,0,0,0-1.52,13.737,9.435,9.435,0,0,0,4.25,6.764,11.878,11.878,0,0,1,1.352.935,3.786,3.786,0,0,1,.568.82c-.3.148-.612.445-.9.419-2.145-.195-4.123-.729-5.43-2.688a12.982,12.982,0,0,1-2.183-6.4C633.867,406.276,633.931,405.173,633.931,404.076Zm6.129-14.015a17.577,17.577,0,0,0,.012,1.911,2.459,2.459,0,0,0,1.862,2.131,2,2,0,0,0,2.355-.965c2.252-3.306,3.779-6.883,3.331-10.992-.212-1.949-1.5-2.4-3.062-1.225A10.362,10.362,0,0,0,640.059,390.061Z" transform="translate(-15.72 -23.329)" fill="#b5d963"/><path d="M620.1,350.339c0-.818-.032-1.638.01-2.454.041-.787.359-1.5,1.25-1.491a1.487,1.487,0,0,1,1.6,1.508,8.086,8.086,0,0,1-.056,2.445c-.864,3.147-1.832,6.265-2.791,9.385-.057.185-.371.291-.565.434-.128-.213-.384-.438-.364-.636.164-1.713.378-3.421.577-5.13q.235-2.022.472-4.044Z" transform="translate(-9.089 -9.059)" fill="#b5d963"/></g></svg>