<svg xmlns="http://www.w3.org/2000/svg" width="14.391" height="24" viewBox="0 0 14.391 24"><path d="M659.7,457.28a.605.605,0,0,0,.264-.058.563.563,0,0,0,.205-.164q.024-.035.322-.428t.768-1.084q.469-.691,1.06-1.641t1.213-2.109q.363-.68.691-1.354t.615-1.342q.287-.668.539-1.318t.463-1.283q.258-.809.457-1.588t.334-1.535q.135-.756.2-1.477t.065-1.412a7.035,7.035,0,0,0-.562-2.8,7.241,7.241,0,0,0-1.541-2.291,7.323,7.323,0,0,0-2.291-1.547,7.185,7.185,0,0,0-5.6,0,7.318,7.318,0,0,0-2.291,1.547,7.237,7.237,0,0,0-1.541,2.291,7.035,7.035,0,0,0-.562,2.8q0,.691.065,1.412t.2,1.477q.135.756.334,1.535t.457,1.588q.211.633.463,1.283t.539,1.318q.287.668.615,1.342t.691,1.354q.621,1.16,1.213,2.109t1.061,1.641q.469.691.768,1.084t.322.428a.562.562,0,0,0,.205.164.605.605,0,0,0,.264.058Zm0-22.793a5.841,5.841,0,0,1,2.332.469,6.041,6.041,0,0,1,1.9,1.283,6.1,6.1,0,0,1,1.289,1.91,5.819,5.819,0,0,1,.475,2.338,14.708,14.708,0,0,1-.3,2.935,24.4,24.4,0,0,1-.762,2.859,26.442,26.442,0,0,1-1.037,2.642q-.574,1.254-1.125,2.285-.4.75-.8,1.43t-.768,1.248q-.363.569-.674,1.02t-.533.768q-.223-.3-.533-.756t-.674-1.02q-.363-.568-.762-1.242t-.8-1.436q-.562-1.02-1.131-2.279t-1.037-2.648a23.563,23.563,0,0,1-.768-2.865,14.8,14.8,0,0,1-.3-2.941,5.819,5.819,0,0,1,.475-2.338,6.024,6.024,0,0,1,3.193-3.193,5.84,5.84,0,0,1,2.332-.469Zm0,9.6a3.492,3.492,0,0,0,1.4-.281,3.631,3.631,0,0,0,1.916-1.922,3.626,3.626,0,0,0,0-2.8,3.561,3.561,0,0,0-.773-1.143,3.7,3.7,0,0,0-1.143-.767,3.626,3.626,0,0,0-2.8,0,3.7,3.7,0,0,0-1.143.767,3.562,3.562,0,0,0-1.055,2.549,3.5,3.5,0,0,0,.281,1.395A3.631,3.631,0,0,0,658.3,443.8a3.492,3.492,0,0,0,1.4.281Zm0-6a2.35,2.35,0,0,1,.932.188,2.415,2.415,0,0,1,1.283,1.277,2.391,2.391,0,0,1-.516,2.631,2.546,2.546,0,0,1-.768.516,2.341,2.341,0,0,1-1.863,0,2.545,2.545,0,0,1-.768-.516,2.406,2.406,0,0,1-.516-2.631,2.414,2.414,0,0,1,1.283-1.277,2.351,2.351,0,0,1,.932-.187Z" transform="translate(-652.505 -433.28)" fill="#707070"/></svg>