<svg xmlns="http://www.w3.org/2000/svg" viewBox="0 0 759.5 109.25"><g style="isolation:isolate"><g style="isolation:isolate"><path d="M565,108c-1.14-1-1.92-1.72-2.34-2q-1.39-.78-1.71-3.57-.61-5-1.32-15.25t-.7-14.78q0-3.1.31-9.33l.94-26.44a91.71,91.71,0,0,1,.93-18.2A60.08,60.08,0,0,0,562.17,12c.1-.52.28-1.84.54-4A27.71,27.71,0,0,1,564,2.18a2.93,2.93,0,0,1,1.25-1.4A3.41,3.41,0,0,1,567.15,0a6.2,6.2,0,0,1,2.8.7,4.64,4.64,0,0,1,2,1.79c.1.21.26.49.46.85a2.34,2.34,0,0,1,.32,1.17l-.32,2a125.83,125.83,0,0,0-1.24,20.85q0,7.31.16,10.89.46,7.62,1.16,13.61t2.41,8.32c1.35,2.08,2.91,3.11,4.67,3.11q3.74,0,6.84-5.75a28.62,28.62,0,0,0,3.43-12.45V31.58a11,11,0,0,1,.62-3.66,2.25,2.25,0,0,1,2.18-1.79,3.41,3.41,0,0,1,1.86.78,9.36,9.36,0,0,1,2.8,2.72,7.45,7.45,0,0,1,1.09,3.5q.15,3.59.62,8.79c.32,3.48.63,6,.94,7.55a12.69,12.69,0,0,0,1.24,3c.42.94.8,1.92,1.17,3a8.65,8.65,0,0,1,.54,2.8,3.53,3.53,0,0,1-1.86,3.26,2,2,0,0,1-1.09.47q-1.87,0-4.82-4.51a18.85,18.85,0,0,1-1.4-2.26c-.42-.77-.89-1.58-1.4-2.41A5.21,5.21,0,0,0,591,55.14c-.26,1-.49,1.79-.7,2.42q-2.33,5.28-5.21,7.54a10.66,10.66,0,0,1-6.76,2.26q-2.8,0-8.87-2v9.49a65.09,65.09,0,0,0,.31,7.47,60.67,60.67,0,0,1,.31,7.31,31.59,31.59,0,0,1,.16,3.58,29.22,29.22,0,0,0,.46,6.06,16.41,16.41,0,0,1,.16,2.65,10.14,10.14,0,0,1-.7,4.35,8.94,8.94,0,0,1-2.88,3C566.89,109.41,566.11,109,565,108Z" style="fill:#7e9a3d"/><path d="M615.83,65.57a10.19,10.19,0,0,1-5.44-5.84,34,34,0,0,1-2.64-13.53,53.87,53.87,0,0,1,1.08-9.64,32.79,32.79,0,0,1,3.89-10.12q2.49-5.13,4-7.77a29.71,29.71,0,0,1,3.65-5.14q3.58-4.2,6.38-4.2a4.17,4.17,0,0,1,1.87.47,37.48,37.48,0,0,0,4,1,9.84,9.84,0,0,1,4.12,1.79c.83.62,1.45.52,1.86-.31a3.17,3.17,0,0,1,1.25-1.17,3.3,3.3,0,0,1,1.55-.54,2.41,2.41,0,0,1,1.64.62,2.61,2.61,0,0,1,.85,1.55c.11.42.21.94.32,1.56a15.06,15.06,0,0,1,.15,2.33,11.69,11.69,0,0,1-.39,2.42,11.7,11.7,0,0,0-.39,2.56,12.47,12.47,0,0,0,.47,3.27,19.08,19.08,0,0,1,.47,6.69q-.78,8.09-1.09,18.35c-.11.83-.24,2-.39,3.35a30.52,30.52,0,0,0-.23,3.34,18.35,18.35,0,0,0,.31,2.65,9.43,9.43,0,0,0,2.25-2.49,23.63,23.63,0,0,0,1.79-3.89,33,33,0,0,1,1.56-3.27c.2-.52.72-1.66,1.55-3.42a27,27,0,0,0,1.87-5.29,5,5,0,0,1,.93-1.48,1.59,1.59,0,0,1,.93-.23c.63.42.94.78.94,1.09a11,11,0,0,1-.31,2.41c-.21.88-.37,1.48-.47,1.79A88.53,88.53,0,0,1,650.21,56a42.5,42.5,0,0,1-2.49,3.89l-1.86,3a3.48,3.48,0,0,1-3,1.4,20.4,20.4,0,0,1-5.21-1.86A5.92,5.92,0,0,1,635,58.64c-.11-.31-.24-.64-.39-1s-.34-.75-.55-1.16a18.81,18.81,0,0,0-2.8,3.81,17.69,17.69,0,0,1-2,3,20.43,20.43,0,0,1-3.34,3,6,6,0,0,1-3.5,1A16.39,16.39,0,0,1,615.83,65.57Zm8.25-3a10.91,10.91,0,0,0,2.49-2.88Q632,51.18,633.1,44.8a125.93,125.93,0,0,0,1.24-14.31q.31-7,.78-10.42A9.67,9.67,0,0,0,633.8,16c-.68-1-1.32-1.5-1.94-1.4a1.59,1.59,0,0,0-1.33.86c-.36.57-.59,1-.7,1.16l-2.49,5.76a124.54,124.54,0,0,0-6.37,17,65.72,65.72,0,0,0-1.87,10.88,17.54,17.54,0,0,0-.31,1.79,16.84,16.84,0,0,0-.16,2.1,14.5,14.5,0,0,0,.31,2.65,6.5,6.5,0,0,1,.16,2.33v.62a5.85,5.85,0,0,0,.78,3c.52.88,1,1.32,1.55,1.32A4.85,4.85,0,0,0,624.08,62.61Z" style="fill:#7e9a3d"/><path d="M668,83.53a4.3,4.3,0,0,1-2.49-3.89,3.76,3.76,0,0,1,.46-2.17,4.19,4.19,0,0,1,1.25-1.09,6.06,6.06,0,0,0,1.48,2.41,3.47,3.47,0,0,0,2.56,1q2.64,0,5.76-2.72t3.11-5.37a3.85,3.85,0,0,0-1.4-3,7.79,7.79,0,0,0-3-1.94c-1.09-.36-2.68-.85-4.75-1.48a22,22,0,0,1-7.15-2.8,10,10,0,0,1-3-3.11,33.7,33.7,0,0,1-1.86-3.65q-.87-2-1.17-2.73a15.29,15.29,0,0,1-1.09-5.91,39.49,39.49,0,0,1,.93-7A52.76,52.76,0,0,1,669,16.33,46.83,46.83,0,0,1,681,6.22a4,4,0,0,1,1.71-.31q4.66,0,4.67,2.18a2.23,2.23,0,0,1-.93,1.71,34.41,34.41,0,0,0-5.76,5.91q-2.64,3.42-3.27,4.2a49.8,49.8,0,0,0-6.84,11.75,33.48,33.48,0,0,0-3,13.14q0,9.64,7.78,14l8.09,1.87a8.46,8.46,0,0,1,4.43,4.27,14.53,14.53,0,0,1,1.48,6.46A12.7,12.7,0,0,1,686,80a14.35,14.35,0,0,1-8.09,4.82,10.37,10.37,0,0,1-3.27.46A14.89,14.89,0,0,1,668,83.53Z" style="fill:#7e9a3d"/></g></g><g style="isolation:isolate"><g style="isolation:isolate"><path d="M233.5,107.92a1.65,1.65,0,0,0-1-.6,3.12,3.12,0,0,1-2-.4c0-.26.4-.8,1.2-1.6h1.6c.26,0,3.2-.4,8.8-1.2l13.6-1.2,9.6-.8a27.91,27.91,0,0,1,5.2-.4,23.64,23.64,0,0,0,5.2-.4,48.25,48.25,0,0,1,6.6-.4,38.66,38.66,0,0,0,6.2-.4,1.6,1.6,0,0,0,1.6-.8c.53.8,1.06,1.07,1.6.8a17.12,17.12,0,0,1,5.4-.8h3.8q12-.8,18.8-.8,6.39.4,19.2.4a3.13,3.13,0,0,0,1-.2q.6-.2.6-.6h6.8c0,.54.53.67,1.6.4h13.2q8.79,0,12.8.4a11.87,11.87,0,0,0,2-.2,7.13,7.13,0,0,1,2.8.2,12.94,12.94,0,0,0,4,.8,21.64,21.64,0,0,1,4.8-.4h4.4a22.17,22.17,0,0,1,2.4.2,6.2,6.2,0,0,0,2.8-.2,1.92,1.92,0,0,1,1.4.6,1.1,1.1,0,0,0,1.4.2,1.54,1.54,0,0,1,1.4-.2,7.64,7.64,0,0,0,1.4.2h7.2a6.81,6.81,0,0,1,1.6.2,3.56,3.56,0,0,0,2-.2,3.26,3.26,0,0,1,1.2.4q.8.4,1.2,0a2,2,0,0,1,1,.4,1.31,1.31,0,0,0,1.4,0h8.4a2.53,2.53,0,0,1,1.4.4c.4.27.86.14,1.4-.4a1.65,1.65,0,0,1,1,.6c.4.4.73.47,1,.2h3.2a5.82,5.82,0,0,1,1.2.2,1.17,1.17,0,0,0,1.2-.2,3.26,3.26,0,0,1,1.2.4,1.3,1.3,0,0,0,1.6-.4c.26.54.93.8,2,.8h6a13.06,13.06,0,0,1,2,.4,3.93,3.93,0,0,1,2.4,1.6v1.6h-.8a35.44,35.44,0,0,0-14-1.2l-1.2-.4-.4-.4-.8.8a3,3,0,0,1-1.4-.8c-.67-.53-1.14-.4-1.4.4a2,2,0,0,0-1.4-.4h-6.6a1.6,1.6,0,0,1-1.2-.4,1.67,1.67,0,0,0-1.2-.4c-.27,0-.67.27-1.2.8a2.74,2.74,0,0,0-2-.8h-8.8a15.42,15.42,0,0,1-5.6-.8,2.06,2.06,0,0,0-3.2.8,1.93,1.93,0,0,0-2-1,11.26,11.26,0,0,1-1.6.2h-6.8a2.26,2.26,0,0,1-1.6-.8l-.8.8c-2.4-1.06-4.14-1.06-5.2,0a1.22,1.22,0,0,0-1.2-.2,1.16,1.16,0,0,1-1.2-.2,10.63,10.63,0,0,0-3.2-.4H366.1a2.29,2.29,0,0,1-1.6-.4,12.46,12.46,0,0,1-3.6.8,18.22,18.22,0,0,1-4.4-.6,8.48,8.48,0,0,0-4-.2c-.54-.53-1.47-.4-2.8.4a.8.8,0,0,0-1.2-.4q-.81.41-1.2,0a4.56,4.56,0,0,0-2-.4H334.9a2.3,2.3,0,0,0-1.6.8,1.68,1.68,0,0,0-1.6-.6,5.19,5.19,0,0,1-1.2.2,4.42,4.42,0,0,1-1.4-.4c-.67-.26-1.14-.26-1.4,0h-2a1.61,1.61,0,0,0-1.6.8l-.8-.8a2.42,2.42,0,0,1-2.2.6c-.94-.13-1.54-.06-1.8.2-.27-.8-.74-1-1.4-.6s-1.14.34-1.4-.2a2.7,2.7,0,0,1-2,.8H292.3a2,2,0,0,0-1.4.4,1.78,1.78,0,0,1-1.4.2,3.44,3.44,0,0,0-1-.2c-.27.27-1.2.4-2.8.4h-6.4l-.8.8-.8-.8a6.49,6.49,0,0,1-3.6.8,33.77,33.77,0,0,0-8,.2,74.38,74.38,0,0,1-7.6.6,12,12,0,0,1-3.6.4,14.27,14.27,0,0,0-4,.4,16,16,0,0,1-4.4.4,14.27,14.27,0,0,0-4,.4,36,36,0,0,1-6.4.4l-1.2,1.6A1.1,1.1,0,0,1,233.5,107.92Z" style="fill:#7e9a3d"/></g></g><g style="isolation:isolate"><g style="isolation:isolate"><path d="M119.83,44.07H96V70.92h-4.2V18.42H96V40h23.85V18.42H124v52.5h-4.2Z" style="fill:#7e9a3d"/><path d="M191.23,22.25l-5-.15V18.42h9.23v52.5h-4.2Z" style="fill:#7e9a3d"/><path d="M238.55,42.12,222.8,18.27h32.1l-1.35,4H230.38l13.2,19.65-15,25.2h16.94a8.87,8.87,0,0,0,5-1.39,7.63,7.63,0,0,0,3-3.94L256.7,63a10.84,10.84,0,0,1-3.82,6.08,11.94,11.94,0,0,1-7,1.87H221.6Z" style="fill:#7e9a3d"/><path d="M292.77,22.17H280V18.42h30.15v3.75H297V70.92h-4.2Z" style="fill:#7e9a3d"/><path d="M359.19,68.18a17.57,17.57,0,0,1-11.07,3.57,20,20,0,0,1-7.65-1.47,12.92,12.92,0,0,1-5.88-4.76,14.5,14.5,0,0,1-2.29-8.47V32.9q0-7.72,4.24-11.7t11.66-4q7.43,0,11.51,4.2T363.8,33V57.05Q363.8,64.63,359.19,68.18ZM356.49,24a12.41,12.41,0,0,0-8.44-2.77,12.25,12.25,0,0,0-8.4,2.77q-3.15,2.78-3.15,8.25V57q0,5.33,3.26,8.06a12.44,12.44,0,0,0,8.29,2.74,12.81,12.81,0,0,0,8.36-2.66c2.18-1.78,3.26-4.51,3.26-8.21V32.22Q359.67,26.75,356.49,24Z" style="fill:#7e9a3d"/><path d="M389.22,18.42h18.45q7.13,0,10.62,4.35t3.48,11.7A44,44,0,0,1,421,43a12.47,12.47,0,0,1-3.75,6.68c-2,1.92-5,2.89-9.07,2.89H393.42V70.92h-4.2Zm25.32,27.75a10,10,0,0,0,2.55-5.1,38.51,38.51,0,0,0,.48-6.37q0-6.15-2.55-9.23a8.66,8.66,0,0,0-7-3.07H393.42v26h14.85Q412.47,48.42,414.54,46.17Z" style="fill:#7e9a3d"/><path d="M450.27,22.25l-5-.15V18.42h9.22v52.5h-4.2Z" style="fill:#7e9a3d"/><path d="M503.07,52.55H486l-5.85,18.37H475.7l16.8-52.5h4l17.1,52.5h-4.5Zm-15.9-4.13H502L494.45,25Z" style="fill:#7e9a3d"/></g></g><g style="isolation:isolate"><g style="isolation:isolate"><path d="M13.2,42.85A9.34,9.34,0,0,0,7.48,40.5c-2.37-.2-3.92-.38-4.67-.52C1,39.8.05,39,0,37.6a3.85,3.85,0,0,1,.8-1.83,2.51,2.51,0,0,1,1.09-.84c2-.57,4.66-.45,8.07.34s5.69,1.92,6.82,3.36q2,3.16.77,4.57C16.52,44.55,15.07,44.44,13.2,42.85ZM6.57,84.62a2.43,2.43,0,0,1,.49-3.86q12.35-8.85,19.15-12.94a2.84,2.84,0,0,1,3.65,1.62c.61.88.19,1.89-1.26,3Q25.94,74.3,10.92,85C9.47,86.1,8,86,6.57,84.62ZM29.12,22.34a6,6,0,0,0-1.41-1.19l-15.1-10-2-1.54C9.44,8.13,9.12,7,9.59,6.14c.7-1.26,2-1.64,3.93-1.13l4.7,3.44,12.29,7.64q3.72,3.72,4,4.7c.37,1.31.19,2.25-.53,2.81a2,2,0,0,1-2.35.14A5.6,5.6,0,0,1,29.12,22.34Z" style="fill:#7e9a3d"/></g></g><g style="isolation:isolate"><g style="isolation:isolate"><path d="M727.87,23.78a2,2,0,0,1-2.35-.15c-.72-.55-.9-1.49-.52-2.81.18-.65,1.52-2.22,4-4.69L741.29,8.5,746,5.06c1.93-.51,3.23-.13,3.93,1.13.47.85.14,2-1,3.44l-2,1.54-15.11,10a6.32,6.32,0,0,0-1.4,1.2A5.8,5.8,0,0,1,727.87,23.78ZM748.56,85q-15-10.68-17.67-12.51c-1.45-1.13-1.86-2.13-1.26-3a2.85,2.85,0,0,1,3.65-1.61q6.81,4.08,19.14,12.94a2.42,2.42,0,0,1,.49,3.86Q750.74,86.7,748.56,85ZM742,43.24c-.8-.94-.53-2.46.78-4.57,1.13-1.44,3.39-2.56,6.81-3.35s6.11-.91,8.07-.34a2.51,2.51,0,0,1,1.09.84,3.85,3.85,0,0,1,.8,1.82c0,1.41-1,2.21-2.81,2.39-.75.14-2.3.32-4.67.52a9.34,9.34,0,0,0-5.72,2.34C744.43,44.48,743,44.59,742,43.24Z" style="fill:#7e9a3d"/></g></g></svg>