<svg xmlns="http://www.w3.org/2000/svg" viewBox="0 0 440.77 172.02"><g style="isolation:isolate"><g style="isolation:isolate"><path d="M67.24,104.82H99.3v8.64H76v18.91H90.47l-3.07,8.45H76V172H67.24Z" style="fill:#7e9a3d"/><path d="M162.47,152.34H144.81L139.72,172H130l17.76-67.2h11.43L177.93,172H167.75Zm-15.55-9.12h13.44l-6.91-24Z" style="fill:#7e9a3d"/><path d="M250.6,151.47a9.48,9.48,0,0,1-2.21.2H233.51V172h-8.74v-67.2h23q9.23,0,13.93,6.24t4.7,15.84a70.12,70.12,0,0,1-.43,8.16,25.14,25.14,0,0,1-2.11,7.25,15.9,15.9,0,0,1-5.24,6.28L266.54,172h-8.93Zm3.21-10.89a11.85,11.85,0,0,0,2.93-6,45,45,0,0,0,.58-7.73q0-7.49-3.12-10.42c-2.08-2-5.11-2.93-9.07-2.93H233.51v29.67h13Q251.47,143.22,253.81,140.58Z" style="fill:#7e9a3d"/><path d="M360,130.93,346.6,172h-7.3l-13.25-41v41h-8.73v-67.2h8.73L343,154.35,360,104.82h8.74V172H360Z" style="fill:#7e9a3d"/></g></g><path d="M255.53,76.48a10.64,10.64,0,0,1-.5-4c0-12.83.17-25.65.17-38.48,0-1.66-.17-3.5-.33-5.16.16,0,.33-.17.5-.17v-.33c0,.17-.17.33-.34.66-2,2-2.33,4.84-3.33,7.33-2,5.5-4.16,11.16-7.5,16a24.77,24.77,0,0,1-6,6.5c-4,2.83-8,1.84-11-2a28.66,28.66,0,0,1-5.67-12.32L220,38c-2.5,5.66-4.83,11.32-7.5,17a18.17,18.17,0,0,1-3.5,4.5c-4.33,3.83-9,3.33-11.65-2a44.09,44.09,0,0,1-3.32-10.32c-1.5-6.17-1-12.66-.83-18.82,0-3.67.5-7.33.83-11a8.45,8.45,0,0,0-.33-2c-.5.17-.83,0-1.17.17-4.16,3.33-8.16,6.66-12.32,9.66-2,1.5-3.17,3.16-2.83,5.83,1,9.16-1.84,17.49-7,25.15a25.65,25.65,0,0,1-9.5,8.83c-7.66,4-14.32,1-18.15-4.83-4.17-6.33-5-13.33-5.33-20.49-.17-2.83-.84-4.33-3.33-5.66-6.17-3.17-6.34-10.5-4.5-15.16a17.69,17.69,0,0,1,7.5-8.5c7.16-4.33,14.49-6.83,23-4.66,5.67,1.33,9.5,4.83,12.83,9.33a24.14,24.14,0,0,1,2.16,4.16c.84,1.5,1.67,1.5,3,.5,3.67-2.83,7.33-5.83,11.16-8.66a19.34,19.34,0,0,1,4.33-2.83c2.67-1.17,4.83-.34,5.67,2.66a32.59,32.59,0,0,1,.83,7.17c-.33,8-1,16-.83,24,0,6.5,1.33,9.33,4.5,14a12.73,12.73,0,0,0,5.33-6.5,106.72,106.72,0,0,0,7.16-21.32c1.17-4.66,2.17-9.49,3.17-14.32a8,8,0,0,1,.5-2c.66-2.33,2.16-3.33,3.66-2.83,1.5.33,2.5,2.16,2.5,4.16-.17,4.33-.67,8.66-.67,13a58.22,58.22,0,0,0,3,20.66,24.83,24.83,0,0,0,2.5,5.16c1.5,2.67,3,3,5.5,1a9,9,0,0,0,2.34-2.66c4.33-6.17,6.83-13,9-20,2.5-8.5,4.5-17.32,7.33-25.65a14.37,14.37,0,0,1,.83-2.5,2.73,2.73,0,0,1,3-2.17,3.26,3.26,0,0,1,3.17,3,17.58,17.58,0,0,1,.16,4.16c-.5,7.33-.66,14.66-.83,22a14.87,14.87,0,0,0,0,2.83c3.33-6.33,5.66-12.32,9.66-17.49,3-4.16,6.33-8,10.83-10.49,4.83-2.5,9.66-3.83,15-1.67,6.16,2.5,9.83,12.16,8,18.33a37.17,37.17,0,0,1-14,19.65c-5.17,3.83-10.66,7.16-17.16,8.66-.5.17-.83.67-1.33,1,9,9.33,22,10,31.31,7,1.5-.5,2.67-1.67,4-2.5,1.33-.67,2.83-1,3.83.5a3,3,0,0,1-.5,3.83,12.36,12.36,0,0,1-6,4c-11.16,3.33-21.49,1.66-31.15-4.33-3.5-2.17-6.66-4.67-10.16-7.16-.5,1.66-1.16,3-1.16,4.5,0,6.33.16,12.66.33,18.82,0,2.16-.5,3.66-2.16,4.16C258.86,79.48,256,78.48,255.53,76.48Zm-116.6-49.3c1.5-4.16,2.67-8.5,4.17-13.16-3.83.67-5.66,3.5-7.66,6-2,2.33-1.67,5.33.16,7.66a3.16,3.16,0,0,0,2.17,1.17c.33,0,1-1,1.17-1.67Zm32.82,3.5c-2.5,1.17-4.33,2-6.33,2.83a48.63,48.63,0,0,1-18.83,3.67c-3,0-3,.16-3.16,3.33A29.58,29.58,0,0,0,147.09,56c3,5.5,8.5,6.66,13.16,2.66,8.33-7.17,12-16.33,11.5-28Zm-22.16.5c7.17,0,13.5-2.83,19.66-6.16,1.16-.67,1.5-1.17,1-2.5a17.09,17.09,0,0,0-12-11.33c-1.34-.33-3.34-.33-4,.33-2.17,2.5-5.17,4-6.33,7.5-.84,2.83-2.17,5.83-3.17,8.83-.83,2.83-.33,3.33,2.67,3.33Zm119.93,13c10-2,18-7.17,24.49-15,2.66-3.33,5.5-7.17,5.33-12.16.83-8-7-12.83-14.16-8.33a29.34,29.34,0,0,0-4.5,3.5c-8.33,8-12.83,18-15.49,29-.67,2.67.17,3.67,2.66,3.33A7.27,7.27,0,0,0,269.52,44.17Z" style="fill:#7e9a3d"/><g style="isolation:isolate"><g style="isolation:isolate"><path d="M12.76,57.35a9,9,0,0,0-5.53-2.27c-2.29-.19-3.79-.37-4.51-.5C1,54.4,0,53.63,0,52.27a3.71,3.71,0,0,1,.78-1.76,2.45,2.45,0,0,1,1.05-.82q2.85-.81,7.8.33c3.31.77,5.5,1.86,6.59,3.25q1.91,3.06.75,4.41Q15.47,59.66,12.76,57.35ZM6.35,97.73A2.34,2.34,0,0,1,6.83,94q11.93-8.55,18.51-12.51a2.76,2.76,0,0,1,3.53,1.56c.58.86.18,1.84-1.22,2.92q-2.58,1.77-17.09,12.09C9.16,99.16,7.76,99,6.35,97.73Zm21.8-60.21a6.09,6.09,0,0,0-1.36-1.15l-14.6-9.69-2-1.49c-1.09-1.4-1.41-2.5-1-3.33.68-1.22,1.94-1.58,3.8-1.08l4.55,3.32L29.5,31.48q3.6,3.6,3.87,4.54c.36,1.27.19,2.18-.51,2.72a1.9,1.9,0,0,1-2.27.13A5.36,5.36,0,0,1,28.15,37.52Z" style="fill:#7e9a3d"/></g></g><g style="isolation:isolate"><g style="isolation:isolate"><path d="M410.19,40.26a1.9,1.9,0,0,1-2.28-.14c-.69-.53-.87-1.44-.5-2.71.18-.63,1.47-2.15,3.87-4.54l11.89-7.38,4.55-3.32q2.79-.74,3.79,1.09c.46.82.14,1.93-.95,3.33l-2,1.48L414,37.76a6.09,6.09,0,0,0-1.36,1.15A5.45,5.45,0,0,1,410.19,40.26Zm20,59.19q-14.51-10.33-17.08-12.1c-1.4-1.08-1.8-2.06-1.22-2.92a2.74,2.74,0,0,1,3.53-1.55q6.57,3.95,18.51,12.51a2.34,2.34,0,0,1,.46,3.73Q432.29,101.09,430.19,99.45ZM423.8,59.07q-1.16-1.35.75-4.41c1.09-1.39,3.28-2.47,6.59-3.24s5.9-.88,7.8-.33a2.49,2.49,0,0,1,1.05.81,3.79,3.79,0,0,1,.78,1.77c0,1.36-.95,2.13-2.72,2.3-.72.14-2.22.31-4.51.51A9,9,0,0,0,428,58.74C426.2,60.28,424.79,60.39,423.8,59.07Z" style="fill:#7e9a3d"/></g></g></svg>