<svg xmlns="http://www.w3.org/2000/svg" viewBox="0 0 843.15 181.28"><g style="isolation:isolate"><g style="isolation:isolate"><path d="M6.36,118.36,0,118.16v-8.69H15.66v70.7H6.36Z" style="fill:#7e9a3d"/><path d="M81,128.06v52.11H71.81v-70.7H81l31.21,51.92V109.47h9.29v70.7h-9.29Z" style="fill:#7e9a3d"/><path d="M187.05,128.06v52.11h-9.19v-70.7h9.19l31.21,51.92V109.47h9.29v70.7h-9.29Z" style="fill:#7e9a3d"/><path d="M315.67,176.49a23.67,23.67,0,0,1-14.89,4.79,26.94,26.94,0,0,1-10.3-2,17.44,17.44,0,0,1-7.93-6.41q-3.09-4.44-3.08-11.41V129q0-10.4,5.7-15.75t15.71-5.35q10,0,15.5,5.65t5.51,15.56v32.42Q321.89,171.69,315.67,176.49ZM309.92,121q-2.79-3.43-9.24-3.44t-9.25,3.39q-2.78,3.38-2.77,10.05v29.18c0,3.78,1.06,6.7,3.18,8.79s5.06,3.13,8.84,3.13a12,12,0,0,0,8.73-3.18q3.29-3.18,3.28-8.84v-29Q312.69,124.42,309.92,121Z" style="fill:#7e9a3d"/><path d="M373.7,109.47H384l13.84,54,13.63-54H422l-18.49,70.7H392.28Z" style="fill:#7e9a3d"/><path d="M489.65,159.47H471.06l-5.35,20.7h-10.2l18.68-70.7h12l19.7,70.7H495.2Zm-16.36-9.6h14.14l-7.28-25.25Z" style="fill:#7e9a3d"/><path d="M555.2,118.56H539.74v-9.09h40.6v9.09h-16v61.61H555.2Z" style="fill:#7e9a3d"/><path d="M633.47,118.36l-6.36-.2v-8.69h15.65v70.7h-9.29Z" style="fill:#7e9a3d"/><path d="M708.11,128.06v52.11h-9.19v-70.7h9.19l31.21,51.92V109.47h9.29v70.7h-9.29Z" style="fill:#7e9a3d"/><path d="M834,178.15a19.07,19.07,0,0,1-11,3,26,26,0,0,1-10.51-2.12,17.69,17.69,0,0,1-7.83-6.67,20.26,20.26,0,0,1-3-11.31V129.37q0-7.07,2.27-11.36a17.8,17.8,0,0,1,6.51-6.92,21.71,21.71,0,0,1,10.91-2.53,30.13,30.13,0,0,1,14.24,3.34l-2.73,7.87a28,28,0,0,0-9.79-1.92,16.17,16.17,0,0,0-8.79,2.18c-2.29,1.44-3.43,4.26-3.43,8.43v32.82c0,3.71,1.07,6.42,3.23,8.13s5.08,2.58,8.79,2.58a12.12,12.12,0,0,0,8-2.63c2.13-1.75,3.19-4.4,3.19-8v-2.63H828l-3-8.89h18.18v30.3h-8.29Z" style="fill:#7e9a3d"/></g></g><path d="M381.57,70c-3.22-6.3-4.4-13-5.27-19.92-.15-1.61-.15-3.08-1.18-4.4,0-.29.15-.44.3-.14.14.58.14-.3-.15.14-2.2,5.42-4.54,10.84-6.59,16.26a40.54,40.54,0,0,1-5,9.23c-4.69,6.74-11.13,6.74-16.11-.15a23.88,23.88,0,0,1-3.37-7c-.73-2.34-1.61-2.2-3.08-.59a20.36,20.36,0,0,1-3.81,3.37c-4.1,3.08-8.78,2.79-12.6-.58a19.85,19.85,0,0,1-5.27-8.06c-2.63-6.3-3.81-12.89-4.39-20.21-1.76,1.9-2.2,3.81-2.93,5.71-2.64,6.45-5.13,13.18-9.08,19a8.61,8.61,0,0,1-1.61,2.35c-2.93,2.78-6.3,2-8.06-1.76a26.94,26.94,0,0,1-1.76-11.72c.44-7.62,1.76-15.23,5.86-22.12,2.79-4.68,6.45-8.64,12.45-9.08A10.76,10.76,0,0,1,320.64,27c.43,1.32,1,2.49,1.46,3.81s1,2.93.29,4.1c-4.39,6.88-.44,13.18,1,19.63a15.9,15.9,0,0,0,2.93,6.15c2.63,3.66,5.42,4.1,9.08,1.32,5-3.81,6.59-8.5,5.71-14.8a86,86,0,0,1,2.78-35.59,39.55,39.55,0,0,1,3.52-8.06c1.32-2,3.08-3.66,5.57-3.51s4.24,2.2,5.12,4.69c2.2,6.59,1.47,13.33.15,20.06A118.47,118.47,0,0,1,348.76,52c-2.35,4.83.58,15.52,5,18.31,2.49,1.61,4.25.14,5.56-1.61a47,47,0,0,0,4.4-8.06A258.43,258.43,0,0,0,373.51,33c1-3.37,1.9-6.59,3.08-9.67.44-1.32,1.17-2.78,2.93-2.34,1.61.29,2.2,1.46,2.2,3.07-.15,2.2-.3,4.25-.59,6.45-1.17,12-.29,23.58,4,35,.43.88.58,2.49,1.61,2.49s1.46-1.61,1.75-2.78c3.67-11.28,6.45-22.7,9.09-34.27a37.1,37.1,0,0,1,2-6.6,2.57,2.57,0,0,1,2.49-1.61,2.51,2.51,0,0,1,2.34,2.05,46,46,0,0,1,.59,6.3,117.73,117.73,0,0,0,2.63,24.76,53.46,53.46,0,0,0,4.25,12.6c.59,1.32,1.17,2.93,2.64,2.93,1.9.14,2.34-1.76,2.93-3.08a48.42,48.42,0,0,0,3.37-10.11c2.34-11.86,4.39-23.87,5.56-35.88a11.56,11.56,0,0,1,.15-2.35c.44-1,1-1.9,2.34-1.9a2.39,2.39,0,0,1,2.35,1.9,5.28,5.28,0,0,1,.29,2.64c-1.9,14.36-3.66,28.71-7.47,42.62a28.84,28.84,0,0,1-3.81,8.35c-3.07,4.4-7.32,4.69-10.69.59a25.44,25.44,0,0,1-4.4-8.64c-1.76-6-3.52-12-4-18.31a3,3,0,0,0-1.61-2.64c-1.61,6.15-3.22,12.16-5,18.16-.73,2.35-1.61,4.54-2.49,6.89S389.91,74,387,74.27,382.59,72.08,381.57,70Zm-81.15-12.3c4.69-9.67,8.64-19.63,12.45-29.59.73-1.76-.44-3.22-2.63-2.78-2.35.43-4.84,1.46-6.16,3.51-6.59,9.52-8.35,20.07-6.59,31.64a5.93,5.93,0,0,0,2.93-2.79ZM352,29.31a54,54,0,0,0,2.2-18.75C354,9,354.18,6.31,352.86,6c-2.05-.29-2.49,2.34-3.07,4-4,11.13-4.84,22.7-3.67,34.27,3.22-4.69,4.4-9.82,5.86-14.94Zm81.88,47.9a10.57,10.57,0,0,1-.44-3.66c.88-5,.88-10.11,2.2-14.94.58-2.2,1.76-4.69-.73-6.74-1.18-1-.3-2.64.88-3.08,2.92-.87,3.36-3.36,4.1-5.56A152,152,0,0,1,449,21.11a2.86,2.86,0,0,1,.58-1.17c1.32-1.76,2.35-3.81,5-3.52,2.79.44,3.81,2.49,4.54,4.69,1.76,5.27,2.2,10.84,2.79,16.4,1.17,10.4,2.2,21,3.36,31.49.15,2,1.47,5-1.61,6-1.9.74-3.07-1.31-3.51-5.42-.59-5.71-1.47-11.27-1.61-17-.15-3.22-1.47-3.07-3.66-2.49a38.63,38.63,0,0,1-10,2,3.59,3.59,0,0,0-3.37,3.08c-1.32,6.3-2.64,12.6-2.79,19.19v2.2a2.56,2.56,0,0,1-2.2,2.63c-1.31.3-2.2-.87-2.63-2Zm21.53-32.37a2.28,2.28,0,0,0,1.94-2.57,1.55,1.55,0,0,0,0-.21c-1-6.16-.88-12.75-3.37-19.63-4.54,7.62-7,15.23-9.52,22.85-.44,1.17.44,1.9,1.61,1.61,3.08-.59,6.16-1.32,9.38-2.06Zm21.68,31.05c-.15-3.22,1-6.3,2.49-9.23,3.95-8.5,9.37-16,15.23-23,4.39-5.12,5.42-10.69,4.1-17.13-1.17,2-2.49,4.24-3.81,6.15-2.78,4.25-6,8.2-10.69,10.54s-9.67.74-11.86-4.1a34,34,0,0,1-1.9-21.23,5.38,5.38,0,0,1,.73-1.62c.73-1.46,1.61-2.49,3.22-1.75a2.47,2.47,0,0,1,1.56,3.13l-.09.24c-1.47,3.95-1,7.91-.88,11.86a13.48,13.48,0,0,0,2.2,7.47c1.17,1.9,2.78,2.49,5,1.32a22.46,22.46,0,0,0,6.59-5.72,62.76,62.76,0,0,0,8.93-17c.73-2.05,1-5.12,4.1-4.83,3.22.44,2.78,3.52,2.78,5.86.15,3.51,0,6.88,0,10.25,0,1-.43,2.49.44,2.93,1.18.59,1.61-.88,2.35-1.61a62.73,62.73,0,0,1,10.25-8.5C528.19,13.78,536.25,17,538.88,30a36.26,36.26,0,0,1,.88,10.54c-.15,2.2.88,2.79,2.78,2.2a18.67,18.67,0,0,1,6.3-.73,5.82,5.82,0,0,1,3.52.88,2.85,2.85,0,0,1,1.32,3.22c-.44,1.47-1.61,1.76-2.93,1.47a8.32,8.32,0,0,0-1.9-.44,16.91,16.91,0,0,0-7.62,1c-3.22,1.18-2.78,4.1-3.51,6.45-2.2,7.47-5.28,14.5-11.43,19.63a21.29,21.29,0,0,1-3.81,2.48c-6,2.06-10.84-2.05-9.81-8.64,1.17-7.17,5-12.74,10.69-17.14a32.21,32.21,0,0,1,8.5-4.54c2-.73,2.78-2,2.64-4.24-.15-5,.44-10.11-1.61-14.94s-4.69-6.3-9.82-4.4a26.49,26.49,0,0,0-7.61,5c-2.05,1.9-3.81,4.1-5.86,5.86a19.05,19.05,0,0,0-6.3,12.89c-1.17,10.25-4.25,20.07-11,28.42a24.65,24.65,0,0,1-6.44,5.86c-4.56,2.49-8.66.14-8.8-5Zm8.35-1.32c6.15-5.12,8.78-12.3,11-19.62.44-1.62,1.76-3.37.29-5.57-1.75,2.34-3.51,4.39-5,6.74-3.37,5.27-7.47,10.4-9.08,16.7-.29,1-.73,2.34.15,3.07,1.17.73,1.9-.59,2.64-1.32Zm38.66-5.27A27.61,27.61,0,0,0,531.7,57c.59-1.61,2-3.66.88-4.54-1.46-1.32-3.22.73-4.69,1.61-5.42,3.52-9.22,8.35-10.25,14.5-.15,3.52,1.32,4.39,4,2.78a8.65,8.65,0,0,0,2.49-2.06Z" style="fill:#7e9a3d"/></svg>