<svg xmlns="http://www.w3.org/2000/svg" viewBox="0 0 448.74 131.56"><g style="isolation:isolate"><text transform="translate(0 85.85)" style="isolation:isolate;font-size:101px;fill:#7e9a3d;font-family:AdventPro-Regular, Advent Pro;letter-spacing:0.020000193378712873em">ΣΥΝΤΑΓΕΣ</text></g><g style="isolation:isolate"><g style="isolation:isolate"><path d="M115,131.19a1.65,1.65,0,0,0-1-.6,3.12,3.12,0,0,1-2-.4c0-.26.4-.8,1.2-1.6h1.6c.26,0,3.2-.4,8.8-1.2l13.6-1.2,9.6-.8a27.91,27.91,0,0,1,5.2-.4,23.64,23.64,0,0,0,5.2-.4,48.25,48.25,0,0,1,6.6-.4,38.66,38.66,0,0,0,6.2-.4,1.6,1.6,0,0,0,1.6-.8c.53.8,1.06,1.07,1.6.8a17.12,17.12,0,0,1,5.4-.8h3.8q12-.8,18.8-.8,6.39.41,19.2.4a3.13,3.13,0,0,0,1-.2q.6-.19.6-.6h6.8c0,.54.53.67,1.6.4h13.2q8.79,0,12.8.4a11.87,11.87,0,0,0,2-.2,7.13,7.13,0,0,1,2.8.2,12.94,12.94,0,0,0,4,.8,21.64,21.64,0,0,1,4.8-.4h4.4a22.17,22.17,0,0,1,2.4.2,6.2,6.2,0,0,0,2.8-.2,1.92,1.92,0,0,1,1.4.6,1.1,1.1,0,0,0,1.4.2,1.54,1.54,0,0,1,1.4-.2,7.64,7.64,0,0,0,1.4.2h7.2a6.81,6.81,0,0,1,1.6.2,3.56,3.56,0,0,0,2-.2,3.26,3.26,0,0,1,1.2.4q.79.41,1.2,0a2,2,0,0,1,1,.4,1.31,1.31,0,0,0,1.4,0h8.4a2.53,2.53,0,0,1,1.4.4c.4.27.86.14,1.4-.4a1.65,1.65,0,0,1,1,.6c.4.4.73.47,1,.2h3.2a5.82,5.82,0,0,1,1.2.2,1.17,1.17,0,0,0,1.2-.2,3.26,3.26,0,0,1,1.2.4,1.3,1.3,0,0,0,1.6-.4c.26.54.93.8,2,.8h6a13.06,13.06,0,0,1,2,.4,3.93,3.93,0,0,1,2.4,1.6v1.6H334a35.44,35.44,0,0,0-14-1.2l-1.2-.4-.4-.4-.8.8a3,3,0,0,1-1.4-.8c-.67-.53-1.14-.4-1.4.4a2,2,0,0,0-1.4-.4h-6.6a1.6,1.6,0,0,1-1.2-.4,1.67,1.67,0,0,0-1.2-.4c-.27,0-.67.27-1.2.8a2.74,2.74,0,0,0-2-.8h-8.8a15.42,15.42,0,0,1-5.6-.8,2.06,2.06,0,0,0-3.2.8,1.93,1.93,0,0,0-2-1,11.26,11.26,0,0,1-1.6.2h-6.8a2.26,2.26,0,0,1-1.6-.8l-.8.8c-2.4-1.06-4.14-1.06-5.2,0a1.22,1.22,0,0,0-1.2-.2,1.16,1.16,0,0,1-1.2-.2,10.63,10.63,0,0,0-3.2-.4h-12.4a2.29,2.29,0,0,1-1.6-.4,12.46,12.46,0,0,1-3.6.8,18.22,18.22,0,0,1-4.4-.6,8.48,8.48,0,0,0-4-.2c-.54-.53-1.47-.4-2.8.4a.8.8,0,0,0-1.2-.4q-.81.41-1.2,0a4.56,4.56,0,0,0-2-.4h-10.4a2.3,2.3,0,0,0-1.6.8,1.68,1.68,0,0,0-1.6-.6,5.19,5.19,0,0,1-1.2.2,4.42,4.42,0,0,1-1.4-.4c-.67-.26-1.14-.26-1.4,0h-2a1.61,1.61,0,0,0-1.6.8l-.8-.8a2.42,2.42,0,0,1-2.2.6c-.94-.13-1.54-.06-1.8.2-.27-.8-.74-1-1.4-.6s-1.14.34-1.4-.2a2.7,2.7,0,0,1-2,.8h-22.2a2,2,0,0,0-1.4.4,1.78,1.78,0,0,1-1.4.2,3.44,3.44,0,0,0-1-.2c-.27.27-1.2.4-2.8.4h-6.4l-.8.8-.8-.8a6.49,6.49,0,0,1-3.6.8,33.77,33.77,0,0,0-8,.2,74.38,74.38,0,0,1-7.6.6,12,12,0,0,1-3.6.4,14.27,14.27,0,0,0-4,.4,16,16,0,0,1-4.4.4,14.27,14.27,0,0,0-4,.4,36,36,0,0,1-6.4.4l-1.2,1.6A1.1,1.1,0,0,1,115,131.19Z" style="fill:#7e9a3d"/></g></g></svg>