<svg xmlns="http://www.w3.org/2000/svg" viewBox="0 0 837.49 232.05"><g style="isolation:isolate"><g style="isolation:isolate"><path d="M15.45,169.73H0v-9.09H40.6v9.09h-16v61.61H15.45Z" style="fill:#7e9a3d"/><path d="M123.22,198.51H98.07v32.83H88.88v-70.7h9.19v29h25.15v-29h9.09v70.7h-9.09Z" style="fill:#7e9a3d"/><path d="M188.67,160.64H222.4v9.09H197.86v19.9h15.75l-2.72,8.88h-13v24.55H222.2v8.28H188.67Z" style="fill:#7e9a3d"/><path d="M344.51,160.64h33.73v9.09H353.7v19.9H369l-3.23,8.88h-12v32.83h-9.19Z" style="fill:#7e9a3d"/><path d="M472.38,160.54v52q0,10.2-6.22,14.85a26.58,26.58,0,0,1-30,0q-6.27-4.65-6.27-14.85v-52H439v49.39q0,13.23,12,13.23t12.12-13.23V160.54Z" style="fill:#7e9a3d"/><path d="M535.4,169.73H520v-9.09h40.6v9.09h-16v61.61H535.4Z" style="fill:#7e9a3d"/><path d="M650.94,160.54v52q0,10.2-6.21,14.85a26.6,26.6,0,0,1-30.05,0q-6.25-4.65-6.26-14.85v-52h9.19v49.39q0,13.23,12,13.23t12.12-13.23V160.54Z" style="fill:#7e9a3d"/><path d="M733.56,209.72a9.77,9.77,0,0,1-2.32.21H715.58v21.41h-9.19v-70.7h24.24q9.69,0,14.65,6.56t4.94,16.67a72.5,72.5,0,0,1-.45,8.58,26.11,26.11,0,0,1-2.22,7.63A16.77,16.77,0,0,1,742,206.7l8.29,24.64h-9.4Zm3.38-11.46A12.45,12.45,0,0,0,740,192a47.29,47.29,0,0,0,.61-8.13q0-7.87-3.28-11t-9.55-3.08H715.58V201h13.64Q734.47,201,736.94,198.26Z" style="fill:#7e9a3d"/><path d="M803.75,160.64h33.74v9.09H812.94v19.9H828.7L826,198.51h-13v24.55h24.35v8.28H803.75Z" style="fill:#7e9a3d"/></g></g><g style="isolation:isolate"><g style="isolation:isolate"><path d="M253.49,57.2a10.27,10.27,0,0,1-3.82-8.51V47.32a5.41,5.41,0,0,1,.49-2.24,1.2,1.2,0,0,1,1.08-.69c.78,0,1.11.46,1,1.37a15.18,15.18,0,0,0-.3,2.84,11.69,11.69,0,0,0,1.18,4.69q1.17,2.64,2.25,2.64a2.25,2.25,0,0,0,1.71-1.18,7.21,7.21,0,0,0,1.12-2.24c.33-1.31.78-2.81,1.37-4.5.85-2.61,1.48-4.86,1.91-6.75a26.07,26.07,0,0,0,.63-5.67A14.25,14.25,0,0,0,261,30a7.68,7.68,0,0,0-3.33-3.82,17.88,17.88,0,0,1-5.57-4.69,13.32,13.32,0,0,1-2.54-8A14.9,14.9,0,0,1,251,7.14a14.06,14.06,0,0,1,4-5.14,8.84,8.84,0,0,1,5.58-2,11.18,11.18,0,0,1,3.08.44A5.22,5.22,0,0,1,266,1.66l1.86,1.86a5.45,5.45,0,0,1,1.66,4,7.73,7.73,0,0,1-1.17,4,1.07,1.07,0,0,1-.88.58,1,1,0,0,1-.88-.39,1.06,1.06,0,0,1-.2-.88l.49-2.54a3.89,3.89,0,0,0,.1-1,5,5,0,0,0-1.27-3.13,3.52,3.52,0,0,0-2.64-1.56,4,4,0,0,0-2.88,1.56,12.48,12.48,0,0,0-2.3,3.72,8.3,8.3,0,0,0-.78,3.62,25.4,25.4,0,0,0,.78,6.35,7.84,7.84,0,0,0,2.54,4.4,56.24,56.24,0,0,1,4.89,4.35,14.85,14.85,0,0,1,3,4.55,16.63,16.63,0,0,1,1.17,6.55,17.27,17.27,0,0,1-1.27,6.94,5.06,5.06,0,0,0-.29,1.23,3.37,3.37,0,0,1-.39,1.22c-.26.39-.65,1.11-1.18,2.15A50.83,50.83,0,0,1,262,56.17a5.61,5.61,0,0,1-8.46,1Z" style="fill:#7e9a3d"/><path d="M292.45,59a3.21,3.21,0,0,1-1-2.3,20.73,20.73,0,0,1,.2-3.91c.13-1.17.2-2,.2-2.35a5.48,5.48,0,0,0-.1-1.17,1.17,1.17,0,0,0-1,.54,9.6,9.6,0,0,0-.78,1.32,7.51,7.51,0,0,1-.69,1.17,13.46,13.46,0,0,1-3.61,3.91,9.49,9.49,0,0,1-6,2.25,5.83,5.83,0,0,1-3.23-.88,4.35,4.35,0,0,1-1.85-2.54A17,17,0,0,1,274,50l.1-4.2a82.76,82.76,0,0,1,.73-10.22,73.52,73.52,0,0,1,2-10.41,8.63,8.63,0,0,1,1.36-2.84c.26-.32.69-.35,1.28-.09l2.54,1c.78.26,1.37,1.11,1.76,2.54l.29,2.35q-4.2,14.28-4.2,23.08a22.28,22.28,0,0,0,.49,4.79q3.12,0,5.81-4.26a36.93,36.93,0,0,0,4.31-10.26,42.13,42.13,0,0,0,1.61-10.71,4.81,4.81,0,0,1,.73-2.69,2.06,2.06,0,0,1,1.71-1.12c1.05,0,1.94,1,2.69,3s1.13,5.22,1.13,9.58l.09,9.88a30,30,0,0,1-.68,4.5c-.39,1.82-.68,3-.88,3.61a4.14,4.14,0,0,1-.83,2,1.84,1.84,0,0,1-1.42.59A3.12,3.12,0,0,1,292.45,59Z" style="fill:#7e9a3d"/><path d="M303.35,58a6.12,6.12,0,0,1-1.85-4.5,5.91,5.91,0,0,1,2.15-4.69l1.12-1.12a6.8,6.8,0,0,1,1.42-1.13c.32-.19.83-.47,1.52-.83a9.22,9.22,0,0,0,1.61-1,1.76,1.76,0,0,0,.58-1.27,9,9,0,0,0-.63-2.93c-.43-1.17-.91-2.41-1.47-3.72s-1-2.24-1.22-2.83A15.82,15.82,0,0,1,305.41,29a7,7,0,0,1,2.15-5.28,23.44,23.44,0,0,1,2.34-2.1,3.53,3.53,0,0,1,2.16-.74A3.16,3.16,0,0,1,315,22.73a7.34,7.34,0,0,1-1.37,9.05c-.39.39-.72.49-1,.29s-.26-.65,0-1.17a11.46,11.46,0,0,1,.78-1.86,11.19,11.19,0,0,0,.79-2.74,1.57,1.57,0,0,0-.3-1,10.38,10.38,0,0,0-1.85,5.48,7.77,7.77,0,0,0,.88,3.52,46.54,46.54,0,0,1,2.54,5.47,2.78,2.78,0,0,0,.44.79.79.79,0,0,0,.63.29,16.25,16.25,0,0,0,3.23-1.08,1.8,1.8,0,0,1,.68-.09c.4,0,.62.16.69.49v.09a.7.7,0,0,1-.44.69,2,2,0,0,1-.54.19,3.77,3.77,0,0,0-.93.44l-.83.54A2.86,2.86,0,0,0,316.75,45l.1,2.34a15,15,0,0,1-3.43,9.39A8.65,8.65,0,0,1,310.74,59a6.76,6.76,0,0,1-3.28.88A5.71,5.71,0,0,1,303.35,58Zm7-8.5A5.4,5.4,0,0,0,309.9,47c-.32,0-1.17.6-2.54,1.81a12.62,12.62,0,0,0-2.74,3.08,4.61,4.61,0,0,0,.44,4.5c.56.78,1.16.91,1.81.39Q310.4,53.29,310.39,49.48Z" style="fill:#7e9a3d"/><path d="M332.44,57.93a2.81,2.81,0,0,1-1.32-1.12,15.07,15.07,0,0,1-2-6.26,59.28,59.28,0,0,1-.64-8.8l.1-3.32q0-1.77.88-9.19l.29-3.43v-.88c0-.52-.09-.83-.29-.93a7.42,7.42,0,0,0-1.47-.34c-.13,0-.42,0-.88-.05a2.87,2.87,0,0,1-1.07-.24.63.63,0,0,1-.39-.59c0-.32.09-.54.29-.63a2.32,2.32,0,0,1,1-.15,9.36,9.36,0,0,0,1.32-.1,3.86,3.86,0,0,0,.93-.19,1.17,1.17,0,0,0,1.07-1.27,18.26,18.26,0,0,1,.49-4.11c.33-1.43.52-2.31.59-2.64.39-1.57.65-2.74.78-3.52a28.12,28.12,0,0,1,1-3.81l.68-2.55c.26-.91.75-1.27,1.47-1.07a5.71,5.71,0,0,1,.68,0,2,2,0,0,1,.88.29,1.12,1.12,0,0,1,.49.83c.07.26.26,1,.59,2.3a15,15,0,0,1,.49,3.67l.1,2.15c.12,1.82.19,3.22.19,4.2a18.1,18.1,0,0,1-.19,3l-.1.69a.65.65,0,0,0,.29.63,6.08,6.08,0,0,0,1.17.34h.4l1.95-.19c.59-.07,1-.1,1.17-.1q.89,0,1.08,1.08c0,.19-.16.45-.49.78a3.1,3.1,0,0,1-1.86,1l-1.76.29a3.83,3.83,0,0,0-2.1.64,3.82,3.82,0,0,0-.54,2.2l-.58,6.15-.3,3.53c-.26,2.6-.39,4.53-.39,5.76a64.42,64.42,0,0,0,.3,7.24c.06.39.14,1.12.24,2.2a12.67,12.67,0,0,0,.54,2.79,2.64,2.64,0,0,1,.1.78,3.27,3.27,0,0,1-.88,2.54,3.42,3.42,0,0,1-2.35.78A4.34,4.34,0,0,1,332.44,57.93Z" style="fill:#7e9a3d"/><path d="M350.09,57.83a6.38,6.38,0,0,1-3.42-3.66A21.49,21.49,0,0,1,345,45.66a33.21,33.21,0,0,1,.68-6.06,20.76,20.76,0,0,1,2.44-6.36q1.58-3.23,2.5-4.88a18.44,18.44,0,0,1,2.3-3.23c1.49-1.76,2.83-2.64,4-2.64a2.67,2.67,0,0,1,1.18.29,23.92,23.92,0,0,0,2.49.64,6.12,6.12,0,0,1,2.59,1.12c.52.39.91.33,1.18-.19a1.93,1.93,0,0,1,.78-.74,2.16,2.16,0,0,1,1-.34,1.48,1.48,0,0,1,1,.39,1.63,1.63,0,0,1,.54,1c.06.26.13.59.2,1a9.89,9.89,0,0,1,.09,1.46,7.4,7.4,0,0,1-.24,1.52,7.51,7.51,0,0,0-.24,1.61,7.63,7.63,0,0,0,.29,2.06,12.06,12.06,0,0,1,.29,4.2q-.49,5.09-.68,11.54c-.07.52-.15,1.22-.25,2.1a19.15,19.15,0,0,0-.14,2.1,11.68,11.68,0,0,0,.19,1.67,5.84,5.84,0,0,0,1.42-1.57,14.8,14.8,0,0,0,1.12-2.44,21.12,21.12,0,0,1,1-2.06c.13-.32.46-1,1-2.15a16.88,16.88,0,0,0,1.17-3.32,3.24,3.24,0,0,1,.59-.93,1,1,0,0,1,.59-.15c.39.26.58.49.58.69a6.63,6.63,0,0,1-.19,1.51c-.13.56-.23.93-.3,1.13a54.79,54.79,0,0,1-2.44,7.23,24.24,24.24,0,0,1-1.57,2.45L369,56.12a2.16,2.16,0,0,1-1.86.88,12.61,12.61,0,0,1-3.27-1.17,3.69,3.69,0,0,1-1.71-2.35c-.07-.19-.15-.4-.25-.63s-.21-.47-.34-.73a11.48,11.48,0,0,0-1.76,2.39,11.64,11.64,0,0,1-1.27,1.91,12.53,12.53,0,0,1-2.1,1.9,3.77,3.77,0,0,1-2.2.64A10.3,10.3,0,0,1,350.09,57.83ZM355.27,56a7.12,7.12,0,0,0,1.57-1.81,26.56,26.56,0,0,0,4.1-9.39,82.21,82.21,0,0,0,.79-9q.19-4.41.48-6.55a6,6,0,0,0-.83-2.55c-.42-.65-.83-.94-1.22-.88a1,1,0,0,0-.83.54c-.23.36-.37.6-.44.73l-1.56,3.62a77.68,77.68,0,0,0-4,10.66,41.86,41.86,0,0,0-1.18,6.84c-.06.27-.13.64-.19,1.13a9.36,9.36,0,0,0-.1,1.32,8.71,8.71,0,0,0,.2,1.66,3.94,3.94,0,0,1,.09,1.47v.39a3.77,3.77,0,0,0,.49,1.91c.33.55.65.83,1,.83A3.09,3.09,0,0,0,355.27,56Z" style="fill:#7e9a3d"/><path d="M380.79,57.64a9.59,9.59,0,0,1-2.15-4.94V50.36a93.9,93.9,0,0,1,.59-11.54A79,79,0,0,1,381,28c.06-.26.18-.73.34-1.41a8.15,8.15,0,0,1,.63-1.81c.07-.13.15-.28.25-.44a.45.45,0,0,0,.05-.44v-.3c0-1,.58-1.53,1.76-1.66l1.47,1a4.56,4.56,0,0,1,.88,3.52,43.69,43.69,0,0,0-.69,8.6L385,43.71l-.2,2.73c-.13,1.31-.26,3.26-.39,5.87s.23,4,.68,4.3a1.55,1.55,0,0,0,1-.24,2.91,2.91,0,0,0,.59-.73c.59-.72,1.15-1.45,1.71-2.2a11.43,11.43,0,0,0,1.32-2.3,6,6,0,0,0,.34-.59c.1-.19.21-.39.34-.59.39-.39.69-.58.88-.58s.53.06.59.19a1.46,1.46,0,0,1,.1.59q0,3.92-3.23,8a4.19,4.19,0,0,1-3.42,1.56A5.6,5.6,0,0,1,380.79,57.64Zm2.4-41.95a3,3,0,0,1-1-2.1,7.33,7.33,0,0,1,.49-2.15,2.43,2.43,0,0,1,.64-1.52,2.8,2.8,0,0,1,1.61-.34A4.59,4.59,0,0,1,387,10c1.37.78,2.05,1.63,2.05,2.55a4,4,0,0,1-.68,1.76A8.88,8.88,0,0,1,387,15.94a2.41,2.41,0,0,1-1.71.58A3,3,0,0,1,383.19,15.69Z" style="fill:#7e9a3d"/><path d="M398.78,60.13A6.59,6.59,0,0,1,397,58.67a6.1,6.1,0,0,1-1-2.06,54.2,54.2,0,0,1-1.37-13.1l-.1-10.36a27.35,27.35,0,0,1,.73-4.4q.65-2.74.93-3.72a4.35,4.35,0,0,1,.83-2,1.82,1.82,0,0,1,1.42-.59,3.06,3.06,0,0,1,2.2,1,3.15,3.15,0,0,1,1,2.29l.1,2a6.9,6.9,0,0,1-.39,2.05,10.81,10.81,0,0,0-.2,2.25,4.17,4.17,0,0,0,.1,1.17,1.18,1.18,0,0,0,1-.53,10.73,10.73,0,0,0,.78-1.32,8.77,8.77,0,0,1,.68-1.18,15.13,15.13,0,0,1,4.26-4.3,9.31,9.31,0,0,1,5.32-1.86,5.86,5.86,0,0,1,3.28.93,4.59,4.59,0,0,1,1.91,2.59,18.37,18.37,0,0,1,.68,5.09,18.11,18.11,0,0,1-.29,3.42l-.59,2.84c-.13.52-.37,1.77-.73,3.76a54.07,54.07,0,0,0-.74,5.62c-.13,1.31-.26,2.28-.39,2.94a32.37,32.37,0,0,0-.39,4.3l.1,1.76a2.6,2.6,0,0,1-.59,1.56q-.58.78-.78,1.08c-.26.32-.68.35-1.27.1a13.5,13.5,0,0,0-1.71-.64,3.64,3.64,0,0,1-1.81-1.08,4.72,4.72,0,0,1-.78-1.8,20.13,20.13,0,0,1-.3-4,37,37,0,0,1,.3-5.19,69.35,69.35,0,0,1,1.12-7.82c.56-2.8,1.13-5.51,1.71-8.11.07-.26.2-.87.39-1.81a14.41,14.41,0,0,0,.3-3A6,6,0,0,0,407.73,29a19.87,19.87,0,0,0-3.18,6.89A88.38,88.38,0,0,0,401,54.66c-.06.65-.1,1.5-.1,2.54a9.22,9.22,0,0,1-.24,2.4c-.16.55-.47.83-.93.83A2.27,2.27,0,0,1,398.78,60.13Z" style="fill:#7e9a3d"/><path d="M428.7,57.83a6.38,6.38,0,0,1-3.42-3.66,21.49,21.49,0,0,1-1.66-8.51,34.13,34.13,0,0,1,.68-6.06,20.52,20.52,0,0,1,2.45-6.36q1.56-3.23,2.49-4.88a18.44,18.44,0,0,1,2.3-3.23c1.5-1.76,2.83-2.64,4-2.64a2.66,2.66,0,0,1,1.17.29,23.92,23.92,0,0,0,2.49.64,6.12,6.12,0,0,1,2.59,1.12c.53.39.92.33,1.18-.19a1.93,1.93,0,0,1,.78-.74,2.16,2.16,0,0,1,1-.34,1.48,1.48,0,0,1,1,.39,1.58,1.58,0,0,1,.54,1c.07.26.13.59.2,1a9.73,9.73,0,0,1,.1,1.46,7.59,7.59,0,0,1-.25,1.52,7.51,7.51,0,0,0-.24,1.61,8.05,8.05,0,0,0,.29,2.06,11.83,11.83,0,0,1,.29,4.2Q446.21,41.56,446,48c-.07.52-.15,1.22-.25,2.1s-.14,1.58-.14,2.1a11.68,11.68,0,0,0,.19,1.67,5.84,5.84,0,0,0,1.42-1.57,15.58,15.58,0,0,0,1.13-2.44,21.54,21.54,0,0,1,1-2.06c.13-.32.46-1,1-2.15a17.61,17.61,0,0,0,1.18-3.32,3.3,3.3,0,0,1,.58-.93,1,1,0,0,1,.59-.15c.39.26.59.49.59.69a6.68,6.68,0,0,1-.2,1.51c-.13.56-.23.93-.29,1.13a55.07,55.07,0,0,1-2.45,7.23,26.15,26.15,0,0,1-1.56,2.45l-1.18,1.85a2.14,2.14,0,0,1-1.85.88,12.56,12.56,0,0,1-3.28-1.17,3.69,3.69,0,0,1-1.71-2.35l-.24-.63c-.1-.23-.22-.47-.35-.73a11.85,11.85,0,0,0-1.76,2.39,11,11,0,0,1-1.27,1.91,12.53,12.53,0,0,1-2.1,1.9,3.75,3.75,0,0,1-2.2.64A10.3,10.3,0,0,1,428.7,57.83ZM433.88,56a7.12,7.12,0,0,0,1.57-1.81,26.79,26.79,0,0,0,4.11-9.39,80,80,0,0,0,.78-9q.2-4.41.49-6.55a6.08,6.08,0,0,0-.83-2.55c-.43-.65-.83-.94-1.23-.88a1,1,0,0,0-.83.54c-.23.36-.37.6-.44.73l-1.56,3.62a79,79,0,0,0-4,10.66,40.78,40.78,0,0,0-1.17,6.84,8.94,8.94,0,0,0-.2,1.13,11.15,11.15,0,0,0-.1,1.32,8.71,8.71,0,0,0,.2,1.66,4.22,4.22,0,0,1,.1,1.47v.39a3.67,3.67,0,0,0,.49,1.91c.32.55.65.83,1,.83A3.05,3.05,0,0,0,433.88,56Z" style="fill:#7e9a3d"/><path d="M460.68,57.05a9.94,9.94,0,0,1-1.86-3.27A33.81,33.81,0,0,1,457.25,43a58.63,58.63,0,0,1,.49-7A162.88,162.88,0,0,1,463,13.2a22.63,22.63,0,0,1,.78-2.54A19.42,19.42,0,0,0,465,6.75a4,4,0,0,1,1.46-2.06,3.67,3.67,0,0,1,2.16-.78,1.91,1.91,0,0,1,1.51.44,2.1,2.1,0,0,1,.34,1.32q0,3.72-3,15.06c-.13.59-.49,2.05-1.07,4.4s-1,4.33-1.32,6a22.3,22.3,0,0,0-.44,3.82,7,7,0,0,0,.09,1.37l1.76-3.43a46.14,46.14,0,0,1,5.09-7.92,7.7,7.7,0,0,1,6.16-3.13,5.71,5.71,0,0,1,3.86,1.62,12.24,12.24,0,0,1,2.93,4A10.55,10.55,0,0,1,485.61,32a10.6,10.6,0,0,1-.78,3.72,53.29,53.29,0,0,1-7.78,13.64,30,30,0,0,1-7.92,7.19c-2.44,1.36-4.38,2-5.81,2A3.52,3.52,0,0,1,460.68,57.05ZM466,51.53a20.41,20.41,0,0,0,2.83-2.35c.85-.84,1.66-1.72,2.45-2.64l1.66-1.95a21.27,21.27,0,0,0,4.15-7.19,31.86,31.86,0,0,0,1.81-8.65c0-2-.58-3-1.76-3s-2.15.69-3.32,2.06A51.16,51.16,0,0,0,470,33a38.77,38.77,0,0,0-4.59,9.58c-.07.26-.29,1-.69,2.35a12.65,12.65,0,0,0-.58,3.62,9.58,9.58,0,0,0,.29,2.25,2,2,0,0,0,.15.88.47.47,0,0,0,.44.29A2.49,2.49,0,0,0,466,51.53Z" style="fill:#7e9a3d"/><path d="M492.26,57.64a9.5,9.5,0,0,1-2.15-4.94V50.36a94.16,94.16,0,0,1,.58-11.54A82.18,82.18,0,0,1,492.45,28c.07-.26.18-.73.34-1.41a8.69,8.69,0,0,1,.64-1.81c.07-.13.15-.28.25-.44a.44.44,0,0,0,0-.44v-.3c0-1,.59-1.53,1.76-1.66l1.47,1a4.52,4.52,0,0,1,.88,3.52,43.79,43.79,0,0,0-.68,8.6l-.69,8.71-.19,2.73c-.14,1.31-.27,3.26-.39,5.87s.22,4,.68,4.3a1.58,1.58,0,0,0,1-.24,2.9,2.9,0,0,0,.58-.73c.59-.72,1.16-1.45,1.71-2.2a11,11,0,0,0,1.33-2.3,6,6,0,0,0,.34-.59c.1-.19.21-.39.34-.59.39-.39.68-.58.88-.58s.52.06.59.19a1.49,1.49,0,0,1,.09.59,13.08,13.08,0,0,1-3.22,8,4.2,4.2,0,0,1-3.43,1.56A5.6,5.6,0,0,1,492.26,57.64Zm2.39-41.95a3,3,0,0,1-1-2.1,7.33,7.33,0,0,1,.49-2.15,2.49,2.49,0,0,1,.63-1.52,2.8,2.8,0,0,1,1.61-.34,4.64,4.64,0,0,1,2.06.39c1.37.78,2.05,1.63,2.05,2.55a4.17,4.17,0,0,1-.68,1.76,8.88,8.88,0,0,1-1.32,1.66,2.45,2.45,0,0,1-1.72.58A3,3,0,0,1,494.65,15.69Z" style="fill:#7e9a3d"/><path d="M512.69,62.24c-.19-.3-.32-.51-.39-.64a14.42,14.42,0,0,1-2.25-6.26Q510,53.59,510,45.08a.88.88,0,0,0-.3-.79,1.66,1.66,0,0,0-1.07-.09.61.61,0,0,1-.69-.69,3.25,3.25,0,0,1,.49-1.56,2.28,2.28,0,0,1,1-1.08,3.15,3.15,0,0,0,.88-2,97.62,97.62,0,0,1,1-11.64c.26-1.89.42-3.19.48-3.91a94.48,94.48,0,0,1,4.6-20c.39-.92.88-1.37,1.47-1.37A4.75,4.75,0,0,1,521.05,3a5.81,5.81,0,0,1,1.71,3.52,24.76,24.76,0,0,1,.49,3.86c.13,1.8.2,3.28.2,4.45a48,48,0,0,1-2.84,15.65,8.21,8.21,0,0,1-.44,1.07c-.16.33-.31.62-.44.88-.85,1.83-1.51,3.44-2,4.84a15.19,15.19,0,0,0-.83,4.45,19.13,19.13,0,0,1-.25,2.69c-.16,1.08-.27,1.91-.34,2.49-.19,2-.29,3.59-.29,4.89a23.39,23.39,0,0,0,.29,3.91c.2,1.11.33,1.8.39,2.06a4.65,4.65,0,0,1-.63,3,3.75,3.75,0,0,1-2.2,1.81,1.49,1.49,0,0,1-.59.09C513.08,62.67,512.89,62.53,512.69,62.24Zm6.9-44.84a35,35,0,0,0,.44-5.28,18.92,18.92,0,0,0-.2-2.64l-.39,2.74a75.94,75.94,0,0,0-1,10.07A30.4,30.4,0,0,0,519.59,17.4Z" style="fill:#7e9a3d"/><path d="M530.1,57.64A9.5,9.5,0,0,1,528,52.7V50.36a94.16,94.16,0,0,1,.58-11.54A82.18,82.18,0,0,1,530.29,28c.07-.26.18-.73.34-1.41a8.69,8.69,0,0,1,.64-1.81,4.26,4.26,0,0,1,.25-.44.44.44,0,0,0,0-.44v-.3c0-1,.59-1.53,1.76-1.66l1.47,1a4.52,4.52,0,0,1,.88,3.52A43.79,43.79,0,0,0,535,35l-.69,8.71-.19,2.73c-.14,1.31-.27,3.26-.4,5.87s.23,4,.69,4.3a1.58,1.58,0,0,0,1-.24,2.9,2.9,0,0,0,.58-.73c.59-.72,1.16-1.45,1.71-2.2a11,11,0,0,0,1.33-2.3c.12-.2.24-.39.34-.59s.21-.39.34-.59c.39-.39.68-.58.88-.58s.52.06.59.19a1.49,1.49,0,0,1,.09.59,13.08,13.08,0,0,1-3.22,8,4.2,4.2,0,0,1-3.43,1.56A5.6,5.6,0,0,1,530.1,57.64Zm2.39-41.95a3,3,0,0,1-1-2.1,7.33,7.33,0,0,1,.49-2.15,2.43,2.43,0,0,1,.63-1.52,2.8,2.8,0,0,1,1.61-.34,4.64,4.64,0,0,1,2.06.39c1.37.78,2,1.63,2,2.55a4.17,4.17,0,0,1-.68,1.76,8.88,8.88,0,0,1-1.32,1.66,2.45,2.45,0,0,1-1.72.58A3,3,0,0,1,532.49,15.69Z" style="fill:#7e9a3d"/><path d="M552.54,57.93a2.81,2.81,0,0,1-1.32-1.12,15.05,15.05,0,0,1-2-6.26,60.67,60.67,0,0,1-.63-8.8l.09-3.32c0-1.18.3-4.24.88-9.19l.3-3.43v-.88q0-.78-.3-.93a7.24,7.24,0,0,0-1.46-.34c-.13,0-.43,0-.88-.05a2.88,2.88,0,0,1-1.08-.24.63.63,0,0,1-.39-.59.62.62,0,0,1,.3-.63,2.27,2.27,0,0,1,1-.15,9.36,9.36,0,0,0,1.32-.1,3.86,3.86,0,0,0,.93-.19,1.18,1.18,0,0,0,1.08-1.27,18.26,18.26,0,0,1,.49-4.11c.32-1.43.52-2.31.58-2.64.39-1.57.65-2.74.79-3.52a29.31,29.31,0,0,1,1-3.81l.69-2.55c.26-.91.75-1.27,1.46-1.07a6,6,0,0,1,.69,0,2,2,0,0,1,.88.29,1.15,1.15,0,0,1,.49.83c.06.26.26,1,.58,2.3a14.55,14.55,0,0,1,.49,3.67l.1,2.15c.13,1.82.2,3.22.2,4.2a16.85,16.85,0,0,1-.2,3l-.1.69a.63.63,0,0,0,.3.63,5.64,5.64,0,0,0,1.17.34h.39l2-.19a11.56,11.56,0,0,1,1.17-.1c.59,0,.94.36,1.07,1.08a1.37,1.37,0,0,1-.48.78,3.1,3.1,0,0,1-1.86,1l-1.76.29a3.83,3.83,0,0,0-2.1.64,3.66,3.66,0,0,0-.54,2.2l-.59,6.15-.29,3.53c-.26,2.6-.39,4.53-.39,5.76a64.94,64.94,0,0,0,.29,7.24c.06.39.15,1.12.25,2.2a12.14,12.14,0,0,0,.53,2.79,2.34,2.34,0,0,1,.1.78,3.23,3.23,0,0,1-.88,2.54,3.42,3.42,0,0,1-2.35.78A4.3,4.3,0,0,1,552.54,57.93Z" style="fill:#7e9a3d"/><path d="M573.9,83.79a26.14,26.14,0,0,1-.19-2.73,26.06,26.06,0,0,1,1.46-8.22A33.54,33.54,0,0,1,580,64a5.08,5.08,0,0,0,1.27-3.13l.4-4.11-.49-.1a11.91,11.91,0,0,1-1.52.3c-.81.13-1.48.23-2,.29A9.45,9.45,0,0,1,570,53.29a11.89,11.89,0,0,1-2.74-7.43c-.13-2-.19-3.42-.19-4.4a52.88,52.88,0,0,1,2-14.18l.59-2.05c.13-.46.28-1,.44-1.71a23.43,23.43,0,0,1,.73-2.4,4.18,4.18,0,0,1,.78-1.47,1.61,1.61,0,0,1,1.18-.39,4.06,4.06,0,0,1,2.49.54,2.8,2.8,0,0,1,.73,2,5.93,5.93,0,0,0,0,.93,1.56,1.56,0,0,1,0,.35,5.66,5.66,0,0,1-.19,1.36,5.53,5.53,0,0,0-.39,1.72c-.07.68-.14,1.22-.2,1.61a29.46,29.46,0,0,0-.59,6.45q0,.69-.09,2c-.07.88-.14,1.61-.2,2.2-.13,1.56-.2,2.73-.2,3.52l.1,4.69A11.58,11.58,0,0,0,576,52.9q1.18,2,2.64,2a2.3,2.3,0,0,0,2-1.17,8.75,8.75,0,0,0,1.37-2.84,37.91,37.91,0,0,0,.78-4.2,138.56,138.56,0,0,1,3-14.57,2,2,0,0,1,.69-.88,4.28,4.28,0,0,0,.78-.78,1.48,1.48,0,0,1,1.17-.59c1,0,1.47.43,1.47,1.27v3.62a32.81,32.81,0,0,1-.49,6.16,11.49,11.49,0,0,0-.29,2.64c-.14,1.17-.27,2.09-.39,2.74a29.76,29.76,0,0,0-.74,4.35c-.16,1.6-.28,2.72-.34,3.37a1.93,1.93,0,0,0,1.17-.58,2.15,2.15,0,0,1,1.37-.59,1.38,1.38,0,0,1,1.18.54,1.77,1.77,0,0,1,.39,1,1.42,1.42,0,0,1-.49,1l-1.76,1.76a20.18,20.18,0,0,0-1.76,2,8.1,8.1,0,0,0-1.52,3.22,24,24,0,0,0-.44,3.47c-.06,1.21-.13,2.14-.19,2.79a75.2,75.2,0,0,1-1.57,8.8l-.68,3.23A15.13,15.13,0,0,1,579,87.9a2.28,2.28,0,0,1-1.67.69Q574.68,88.59,573.9,83.79Zm4.21,1.08a10.33,10.33,0,0,0,2-6.16,53.15,53.15,0,0,1,.29-6.45v-.49a1.74,1.74,0,0,0-.39-1.27l-1,1.76a22.18,22.18,0,0,0-1.37,2.44,8.94,8.94,0,0,0-.78,2l-.78,1.86a6.72,6.72,0,0,0-.59,2.15c-.06.72-.09,1.41-.09,2.06v1.27a1.88,1.88,0,0,0,.29,1.27,2.27,2.27,0,0,0,1.07.49C577.29,85.85,577.71,85.52,578.11,84.87Z" style="fill:#7e9a3d"/></g></g><path d="M421.06,130a7.13,7.13,0,0,1-.18-7.41c1.34-2.06,3.66-2.77,6.26-2,1.34.45,2.68,1,3.93,1.52,2.05.8,2,.8,3.12-1.25a18.48,18.48,0,0,0,2-6.43c.71-4.74.8-9.56-1-14.12-1.34-3.48-3.76-4-6.44-1.34a29.74,29.74,0,0,0-5.09,7.42c-3.21,5.9-6.43,11.88-10.18,17.51a23.14,23.14,0,0,1-5.27,5.72c-2.77,2-5.27,1.25-7-1.79-1.79-3.31-1.43-6.88-1.61-10.45A48,48,0,0,1,402,101.93c.09-.27,0-.54.18-.8a1.79,1.79,0,0,1,2.19-1.26h.05c1.07.27,1,1.34.71,2.14a60.71,60.71,0,0,0-1.88,7.86,43.83,43.83,0,0,0-.17,13.67c.17,1.52.35,3.58,2.14,4,1.52.36,2.5-1.34,3.31-2.32,4-4.82,6.88-10.27,9.82-15.63,2.33-4.29,4.56-8.67,7.78-12.33,4.37-4.92,9.82-3.93,11.88,2.23a30.44,30.44,0,0,1-.9,22.25c-1.07,2.59-.89,2.86,1.88,3.12a15.2,15.2,0,0,0,2.86-.09c.8,0,1.52.18,1.7,1.17.09.8-.45,1.25-1.16,1.6-2.06,1-4.2.54-6.08-.09s-2.77-.08-3.93,1.08a12,12,0,0,1-5.09,3.3A5.62,5.62,0,0,1,421.06,130ZM403.64,93.26a1.55,1.55,0,0,1,1.39-1.7,1.61,1.61,0,0,1,.31,0,1.33,1.33,0,0,1,1.45,1.21,1.08,1.08,0,0,1,0,.4c-.09,1-.54,1.79-1.7,1.79C404.09,94.78,403.55,94.25,403.64,93.26Zm26.8,33c.09-.18.09-.36.27-.8-.18-.09-.45-.36-.8-.54-1.43-.44-2.68-1.25-4.2-1.34-1.88-.18-2.77.63-2.86,2.5a2.88,2.88,0,0,0,2.32,3c1.25.09,4.73-1.79,5.27-2.86Z" style="fill:#7e9a3d"/><g style="isolation:isolate"><g style="isolation:isolate"><path d="M234.09,114.34a.81.81,0,0,0-.52-.31c-.56,0-.91-.07-1-.21s.21-.42.62-.84H234c.14,0,1.67-.21,4.6-.62l7.1-.63,5-.42a15.16,15.16,0,0,1,2.72-.21,12.3,12.3,0,0,0,2.71-.21,26.53,26.53,0,0,1,3.45-.2,20.2,20.2,0,0,0,3.24-.21.85.85,0,0,0,.84-.42c.28.42.55.56.83.42a8.91,8.91,0,0,1,2.83-.42h2q6.27-.42,9.82-.42,3.35.21,10,.21a1.51,1.51,0,0,0,.52-.11c.21-.06.31-.17.31-.31h3.55q0,.42.84.21h6.9q4.59,0,6.69.21a5.66,5.66,0,0,0,1-.11,3.78,3.78,0,0,1,1.46.11,6.91,6.91,0,0,0,2.09.42,11.09,11.09,0,0,1,2.51-.21h2.3a10.58,10.58,0,0,1,1.25.1,3.33,3.33,0,0,0,1.47-.1,1,1,0,0,1,.73.31.58.58,0,0,0,.73.11.78.78,0,0,1,.73-.11,4.56,4.56,0,0,0,.73.11h3.77a3.42,3.42,0,0,1,.83.1,1.91,1.91,0,0,0,1.05-.1,1.63,1.63,0,0,1,.62.21q.42.21.63,0a1.07,1.07,0,0,1,.52.2.7.7,0,0,0,.74,0h4.38a1.39,1.39,0,0,1,.74.21c.2.14.45.08.73-.21a.89.89,0,0,1,.52.32c.21.21.38.24.52.1h1.67a3,3,0,0,1,.63.11.63.63,0,0,0,.63-.11,1.63,1.63,0,0,1,.62.21.69.69,0,0,0,.84-.21q.21.42,1.05.42h3.13a6.31,6.31,0,0,1,1.05.21,2.07,2.07,0,0,1,1.25.83v.84h-.42a18.73,18.73,0,0,0-7.31-.63l-.63-.21-.21-.2L340,113a1.55,1.55,0,0,1-.73-.41c-.35-.28-.59-.21-.73.2a1.06,1.06,0,0,0-.73-.2h-3.45a.86.86,0,0,1-.63-.21.85.85,0,0,0-.62-.21q-.21,0-.63.42a1.42,1.42,0,0,0-1.05-.42h-4.59a8.12,8.12,0,0,1-2.93-.42,1.07,1.07,0,0,0-1.67.42,1,1,0,0,0-1.05-.52,6.23,6.23,0,0,1-.83.1h-3.56a1.19,1.19,0,0,1-.83-.42l-.42.42c-1.25-.55-2.16-.55-2.72,0a.61.61,0,0,0-.62-.1.63.63,0,0,1-.63-.11,5.44,5.44,0,0,0-1.67-.21h-6.48a1.22,1.22,0,0,1-.84-.21,6.55,6.55,0,0,1-1.88.42,9.49,9.49,0,0,1-2.3-.31,4.5,4.5,0,0,0-2.09-.11c-.28-.27-.77-.21-1.46.21a.42.42,0,0,0-.63-.21q-.42.21-.63,0a2.43,2.43,0,0,0-1-.21h-5.43a1.19,1.19,0,0,0-.84.42.87.87,0,0,0-.84-.31,2.81,2.81,0,0,1-.62.1,2.32,2.32,0,0,1-.73-.21c-.35-.13-.6-.13-.74,0h-1a.85.85,0,0,0-.84.42l-.41-.42a1.27,1.27,0,0,1-1.15.32c-.49-.07-.81,0-.94.1-.14-.42-.39-.52-.74-.31s-.59.18-.73-.11a1.38,1.38,0,0,1-1,.42h-11.6a1,1,0,0,0-.73.21,1,1,0,0,1-.74.11,1.67,1.67,0,0,0-.52-.11,2.74,2.74,0,0,1-1.46.21H258l-.42.42-.42-.42a3.42,3.42,0,0,1-1.88.42,17.32,17.32,0,0,0-4.18.1,39.1,39.1,0,0,1-4,.32,6.4,6.4,0,0,1-1.88.2,7.62,7.62,0,0,0-2.09.21,8.42,8.42,0,0,1-2.3.21,7.62,7.62,0,0,0-2.09.21,19,19,0,0,1-3.35.21l-.62.84A.59.59,0,0,1,234.09,114.34Z" style="fill:#7e9a3d"/></g></g><g style="isolation:isolate"><g style="isolation:isolate"><path d="M494.61,114.34a.86.86,0,0,0-.53-.31,1.64,1.64,0,0,1-1-.21q0-.21.63-.84h.83c.14,0,1.67-.21,4.6-.62l7.11-.63,5-.42a15.16,15.16,0,0,1,2.72-.21,12.47,12.47,0,0,0,2.72-.21,26.3,26.3,0,0,1,3.45-.2,20.15,20.15,0,0,0,3.23-.21.85.85,0,0,0,.84-.42q.42.63.84.42a8.8,8.8,0,0,1,2.82-.42h2q6.27-.42,9.83-.42c2.22.14,5.57.21,10,.21a1.47,1.47,0,0,0,.52-.11c.21-.06.31-.17.31-.31h3.56c0,.28.27.35.83.21h6.9q4.59,0,6.69.21a5.49,5.49,0,0,0,1-.11,3.84,3.84,0,0,1,1.47.11,6.8,6.8,0,0,0,2.09.42,11,11,0,0,1,2.5-.21h2.3a10.87,10.87,0,0,1,1.26.1,3.3,3.3,0,0,0,1.46-.1,1,1,0,0,1,.73.31.58.58,0,0,0,.73.11.79.79,0,0,1,.73-.11,4.64,4.64,0,0,0,.74.11h3.76a3.37,3.37,0,0,1,.83.1,1.91,1.91,0,0,0,1-.1,1.61,1.61,0,0,1,.63.21c.27.14.48.14.62,0a1.1,1.1,0,0,1,.53.2.68.68,0,0,0,.73,0h4.39a1.38,1.38,0,0,1,.73.21c.21.14.45.08.73-.21a.87.87,0,0,1,.52.32c.21.21.38.24.52.1h1.68a3,3,0,0,1,.62.11.63.63,0,0,0,.63-.11,1.61,1.61,0,0,1,.63.21.67.67,0,0,0,.83-.21q.21.42,1,.42h3.13a6.31,6.31,0,0,1,1.05.21,2.07,2.07,0,0,1,1.25.83v.84H609a18.71,18.71,0,0,0-7.31-.63l-.63-.21-.21-.2-.42.41a1.59,1.59,0,0,1-.73-.41c-.35-.28-.59-.21-.73.2a1.06,1.06,0,0,0-.73-.2h-3.45a.82.82,0,0,1-.62-.21.87.87,0,0,0-.63-.21q-.21,0-.63.42a1.42,1.42,0,0,0-1-.42h-4.6a8.12,8.12,0,0,1-2.93-.42,1.07,1.07,0,0,0-1.67.42,1,1,0,0,0-1-.52,6.14,6.14,0,0,1-.84.1h-3.55a1.21,1.21,0,0,1-.84-.42l-.42.42c-1.25-.55-2.16-.55-2.72,0a.61.61,0,0,0-.62-.1.63.63,0,0,1-.63-.11,5.44,5.44,0,0,0-1.67-.21h-6.48a1.22,1.22,0,0,1-.84-.21,6.55,6.55,0,0,1-1.88.42,9.35,9.35,0,0,1-2.29-.31,4.55,4.55,0,0,0-2.1-.11c-.28-.27-.76-.21-1.46.21a.42.42,0,0,0-.63-.21c-.28.14-.48.14-.62,0a2.48,2.48,0,0,0-1.05-.21h-5.43a1.21,1.21,0,0,0-.84.42.86.86,0,0,0-.83-.31,2.8,2.8,0,0,1-.63.1,2.32,2.32,0,0,1-.73-.21c-.35-.13-.6-.13-.73,0h-1.05a.82.82,0,0,0-.83.42l-.42-.42a1.26,1.26,0,0,1-1.15.32c-.49-.07-.81,0-.94.1-.14-.42-.39-.52-.73-.31s-.6.18-.74-.11a1.37,1.37,0,0,1-1,.42h-11.6a1,1,0,0,0-.73.21,1,1,0,0,1-.73.11,1.78,1.78,0,0,0-.53-.11,2.74,2.74,0,0,1-1.46.21h-3.34l-.42.42-.42-.42a3.4,3.4,0,0,1-1.88.42,17.32,17.32,0,0,0-4.18.1,38.89,38.89,0,0,1-4,.32,6.4,6.4,0,0,1-1.88.2,7.67,7.67,0,0,0-2.09.21,8.42,8.42,0,0,1-2.3.21,7.67,7.67,0,0,0-2.09.21,18.9,18.9,0,0,1-3.35.21l-.62.84A.58.58,0,0,1,494.61,114.34Z" style="fill:#7e9a3d"/></g></g></svg>