<svg xmlns="http://www.w3.org/2000/svg" viewBox="0 0 258.17 62.54"><g style="isolation:isolate"><g style="isolation:isolate"><path d="M117.49,12h-7.42V7.66h19.48V12H121.9V41.57h-4.41Z" style="fill:#7e9a3d"/><path d="M151.2,20.3l-4.4,21.27h-5.48l-7-33.91h4.84l5,24.8,5.19-24.8h3.77l5.19,24.8L163,7.66h5l-7,33.91h-5.38Z" style="fill:#7e9a3d"/><path d="M176.88,11.92l-3-.09V7.66h7.51V41.57h-4.46Z" style="fill:#7e9a3d"/><path d="M194.61,36.24a6.84,6.84,0,0,0,4.65,1.55,7.7,7.7,0,0,0,5-1.45A4.57,4.57,0,0,0,206,32.61,5.67,5.67,0,0,0,205,29.05a8.19,8.19,0,0,0-2.68-2.28,47.67,47.67,0,0,0-4.41-2A40.55,40.55,0,0,1,193,22.65,9.28,9.28,0,0,1,190,19.94a7.23,7.23,0,0,1-1.26-4.38,7.45,7.45,0,0,1,1.21-4.05,8.81,8.81,0,0,1,3.68-3.12,13.67,13.67,0,0,1,6.06-1.21,19.29,19.29,0,0,1,3.92.33,14,14,0,0,1,3.15,1.12l-1.4,4.16a15,15,0,0,0-5.62-1.16,8.32,8.32,0,0,0-4.63,1.09,3.38,3.38,0,0,0-1.62,2.93,3,3,0,0,0,.87,2.13,7.74,7.74,0,0,0,2.16,1.58c.85.44,2.07,1,3.65,1.67a46.28,46.28,0,0,1,5.5,2.59A12.05,12.05,0,0,1,209.34,27a8.62,8.62,0,0,1,1.55,5.25A9.44,9.44,0,0,1,208,39.34c-1.91,1.84-4.81,2.76-8.72,2.76a13.06,13.06,0,0,1-6.13-1.33,9.8,9.8,0,0,1-3.87-3.44A8.71,8.71,0,0,1,187.88,33l4.7-.53A5.71,5.71,0,0,0,194.61,36.24Z" style="fill:#7e9a3d"/><path d="M220.34,12h-7.42V7.66H232.4V12h-7.66V41.57h-4.4Z" style="fill:#7e9a3d"/><path d="M241.89,36.24a6.84,6.84,0,0,0,4.65,1.55,7.69,7.69,0,0,0,5-1.45,4.58,4.58,0,0,0,1.8-3.73,5.74,5.74,0,0,0-1.09-3.56,8.33,8.33,0,0,0-2.69-2.28,47.67,47.67,0,0,0-4.41-2,41.31,41.31,0,0,1-4.82-2.16,9.28,9.28,0,0,1-3.08-2.71A7.23,7.23,0,0,1,236,15.56a7.53,7.53,0,0,1,1.21-4.05,8.78,8.78,0,0,1,3.69-3.12,13.59,13.59,0,0,1,6.05-1.21,19.47,19.47,0,0,1,3.93.33A14.12,14.12,0,0,1,254,8.63l-1.4,4.16A15,15,0,0,0,247,11.63a8.34,8.34,0,0,0-4.63,1.09,3.38,3.38,0,0,0-1.62,2.93,3,3,0,0,0,.87,2.13,7.74,7.74,0,0,0,2.16,1.58c.85.44,2.07,1,3.66,1.67a46.05,46.05,0,0,1,5.49,2.59A11.94,11.94,0,0,1,256.62,27a8.62,8.62,0,0,1,1.55,5.25,9.44,9.44,0,0,1-2.86,7.12q-2.85,2.76-8.72,2.76a13.06,13.06,0,0,1-6.13-1.33,9.87,9.87,0,0,1-3.87-3.44A8.71,8.71,0,0,1,235.16,33l4.7-.53A5.71,5.71,0,0,0,241.89,36.24Z" style="fill:#7e9a3d"/></g></g><g style="isolation:isolate"><g style="isolation:isolate"><path d="M2.88,39.7a2.3,2.3,0,0,1-.58-1.25l.07-1.92L2.3,33.78c0-.38-.06-1-.06-1.85,0-1,0-2,.06-2.82,0-.51.07-1.3.07-2.36.08-2.43.21-4.27.38-5.5a7.63,7.63,0,0,0,.16-1.41c0-.55,0-1,0-1.28L3.07,16c0-.6,0-1.45.13-2.56,0-.89,0-2.19.13-3.9l.06-3.9V5A.49.49,0,0,0,3,4.46a5.2,5.2,0,0,0-1.22-.1A5,5,0,0,1,.45,4.23.58.58,0,0,1,0,3.59a.79.79,0,0,1,.45-.7,4.89,4.89,0,0,1,1.4-.32,15.49,15.49,0,0,1,1.67-.13l.64.07A22.06,22.06,0,0,0,7,2.44l1.86-.06c1.87,0,2.81.32,2.81,1a1.41,1.41,0,0,1-.32.7,3,3,0,0,1-2,.51,4.33,4.33,0,0,0-.9.07c-.17,0-.25.17-.25.38a3.84,3.84,0,0,0,.19,1.09,3.72,3.72,0,0,1,.19,1,3.35,3.35,0,0,1-.06.71,1.91,1.91,0,0,0-.13.63,5.49,5.49,0,0,0,.06.8,6.53,6.53,0,0,1,.07.93c0,.34,0,.9-.13,1.66A56.84,56.84,0,0,0,8,18.69a11.73,11.73,0,0,1-.09,1.18A5,5,0,0,1,7.67,21a6.89,6.89,0,0,0-.38,2.11l.06,1.6c0-.64,0-.54-.12.29S7.07,27,7,28.5s-.09,3.13-.09,4.83q0,2.94.06,4.35a2.46,2.46,0,0,1-.89,2,2.91,2.91,0,0,1-2.18.57A1.4,1.4,0,0,1,2.88,39.7Z" style="fill:#7e9a3d"/><path d="M14.45,39.7A6.27,6.27,0,0,1,13,36.47V34.93a62.72,62.72,0,0,1,.38-7.55,52.33,52.33,0,0,1,1.16-7.09c0-.17.11-.48.22-.93a5.1,5.1,0,0,1,.41-1.18l.16-.29a.29.29,0,0,0,0-.29v-.19c0-.64.38-1,1.15-1.09l1,.64a3,3,0,0,1,.57,2.3,28.72,28.72,0,0,0-.45,5.63l-.44,5.69-.13,1.79c-.09.86-.17,2.14-.26,3.84s.15,2.64.45,2.81a1,1,0,0,0,.64-.16,1.58,1.58,0,0,0,.38-.47c.39-.47.76-1,1.12-1.44a7.26,7.26,0,0,0,.87-1.51,2.88,2.88,0,0,0,.22-.38,2.88,2.88,0,0,1,.22-.38c.26-.26.45-.39.58-.39s.34.05.38.13a.78.78,0,0,1,.07.38,8.6,8.6,0,0,1-2.11,5.25,2.75,2.75,0,0,1-2.24,1A3.66,3.66,0,0,1,14.45,39.7ZM16,12.26a2,2,0,0,1-.67-1.37,4.89,4.89,0,0,1,.32-1.41,1.64,1.64,0,0,1,.42-1,1.77,1.77,0,0,1,1.05-.23,3.06,3.06,0,0,1,1.35.26c.89.51,1.34,1.06,1.34,1.66a2.62,2.62,0,0,1-.45,1.15,5.59,5.59,0,0,1-.86,1.09,1.57,1.57,0,0,1-1.12.38A2,2,0,0,1,16,12.26Z" style="fill:#7e9a3d"/><path d="M24.35,52.26c0-.81,0-1.85-.12-3.13,0-.3,0-.87-.1-1.73a21.6,21.6,0,0,1,0-2.68q.51-16,1.47-22.64c.13-.94.36-2.31.7-4.1a1.43,1.43,0,0,1,1-1.34,2.3,2.3,0,0,1,.58-.13,1.89,1.89,0,0,1,1.5.74,2.14,2.14,0,0,1,.48,1.69c0,.6-.15,1.45-.32,2.56A28.54,28.54,0,0,1,33.79,17a7.59,7.59,0,0,1,4.89-1.79,1.89,1.89,0,0,1,2,1.25,8.92,8.92,0,0,1,.48,3.17,20.13,20.13,0,0,1-1.22,6,28.15,28.15,0,0,1-3.16,6.65q-1.95,3-4,3.48a12.77,12.77,0,0,1-3.64.19.57.57,0,0,0-.39.13,1.49,1.49,0,0,0-.25.51c-.05.56-.1,1.35-.16,2.37s-.1,2.07-.1,3.13l-.06,4.61a37.93,37.93,0,0,0,.06,3.84,15.65,15.65,0,0,1,.13,1.66l.06.38c0,.3-.28.6-.83.9a3.46,3.46,0,0,1-1.66.45C25,53.93,24.44,53.37,24.35,52.26Zm6.14-18.8a9.12,9.12,0,0,0,5-5.76,38.19,38.19,0,0,0,1.73-8.95c0-.85-.24-1.28-.71-1.28-.72,0-1.67.63-2.84,1.89a26.88,26.88,0,0,0-3.2,4.22A8,8,0,0,0,29,26.87c-.08,1.15-.13,2.52-.13,4.1q0,1.47-.06,2v.38c0,.22,0,.35.13.42a1.36,1.36,0,0,0,.64.09Z" style="fill:#7e9a3d"/><path d="M44.62,39.92A4,4,0,0,1,43.4,37a3.87,3.87,0,0,1,1.41-3.07l.74-.74a4.64,4.64,0,0,1,.92-.73l1-.55a5.48,5.48,0,0,0,1.05-.67,1.14,1.14,0,0,0,.39-.83,5.86,5.86,0,0,0-.42-1.92c-.28-.77-.6-1.57-1-2.43s-.63-1.47-.8-1.85A10.4,10.4,0,0,1,46,21a4.54,4.54,0,0,1,1.41-3.45,14.82,14.82,0,0,1,1.54-1.38,2.26,2.26,0,0,1,1.4-.48,2.08,2.08,0,0,1,1.92,1.18,4.86,4.86,0,0,1,.64,2.34,4.91,4.91,0,0,1-1.53,3.58c-.26.26-.47.32-.64.19s-.18-.42,0-.77A7,7,0,0,1,51.21,21a7.63,7.63,0,0,0,.51-1.79,1,1,0,0,0-.19-.64,6.79,6.79,0,0,0-1.22,3.58,5,5,0,0,0,.58,2.3A29.86,29.86,0,0,1,52.55,28a1.92,1.92,0,0,0,.29.52.52.52,0,0,0,.41.19A10.6,10.6,0,0,0,55.36,28a1.21,1.21,0,0,1,.45-.06c.26,0,.41.11.45.32v.06a.45.45,0,0,1-.29.45,1.28,1.28,0,0,1-.35.13,2.18,2.18,0,0,0-.61.29l-.54.35a1.86,1.86,0,0,0-1.09,1.85L53.45,33a9.86,9.86,0,0,1-2.24,6.14,5.6,5.6,0,0,1-1.76,1.47,4.47,4.47,0,0,1-2.14.58A3.73,3.73,0,0,1,44.62,39.92Zm4.6-5.56a3.59,3.59,0,0,0-.31-1.6c-.22,0-.77.39-1.67,1.18a8.43,8.43,0,0,0-1.79,2,2.89,2.89,0,0,0-.25,1.28,2.84,2.84,0,0,0,.54,1.67c.36.51.76.59,1.18.25A6.75,6.75,0,0,0,49.22,34.36Z" style="fill:#7e9a3d"/></g></g><g style="isolation:isolate"><g style="isolation:isolate"><path d="M91.56,46.58a19.15,19.15,0,0,1-6.41,6.8,16,16,0,0,1-8.17,2,13.23,13.23,0,0,1-7.37-2A13,13,0,0,1,64.93,48a16.92,16.92,0,0,1-1.61-7.37,16.84,16.84,0,0,1,2.49-9.36,20,20,0,0,1,5.91-6A60.34,60.34,0,0,1,79.82,21a7.54,7.54,0,0,1-5.18-3.19,10.79,10.79,0,0,1-2.11-6.71,10.32,10.32,0,0,1,1.65-5.76,11.28,11.28,0,0,1,4.45-3.95A13.26,13.26,0,0,1,84.73,0a15.92,15.92,0,0,1,5.14.92L88.57,3a11.84,11.84,0,0,0-3.91-.61,9.85,9.85,0,0,0-6.84,2.49A7.93,7.93,0,0,0,75.06,11a8.56,8.56,0,0,0,.08,1.31,8.28,8.28,0,0,0,2.91,5.45,8.58,8.58,0,0,0,5.38,1.76,13.45,13.45,0,0,0,2.45-.3L91.33,18V7.83h2.46v9.59l5.6-1.23.54,2.38L93.79,20V44.67q0,7.13,4.53,8.67l-.7,2.07Q92,53.72,91.56,46.58ZM79.47,23.87A26.64,26.64,0,0,0,70,30,14.25,14.25,0,0,0,65.78,40.6a13.29,13.29,0,0,0,3,8.86q3,3.57,8.67,3.57a12.48,12.48,0,0,0,7.25-2.19,15,15,0,0,0,4.92-5.52,14.65,14.65,0,0,0,1.72-6.79V20.41A91.26,91.26,0,0,0,79.47,23.87Z" style="fill:#7e9a3d"/></g></g><g style="isolation:isolate"><g style="isolation:isolate"><path d="M125.27,62.36a.79.79,0,0,0-.48-.29,1.52,1.52,0,0,1-1-.19c0-.12.19-.38.58-.76h.77c.12,0,1.53-.2,4.22-.58l6.52-.58,4.6-.38a13,13,0,0,1,2.5-.19,11.28,11.28,0,0,0,2.49-.19,22.34,22.34,0,0,1,3.17-.2,18.43,18.43,0,0,0,3-.19.76.76,0,0,0,.77-.38c.26.38.51.51.77.38a8.34,8.34,0,0,1,2.59-.38h1.82c3.84-.26,6.84-.38,9-.38s5.11.19,9.21.19a1.46,1.46,0,0,0,.48-.1c.19-.06.29-.16.29-.29h3.26c0,.26.25.32.76.2H187q4.22,0,6.14.19a5.38,5.38,0,0,0,1-.1,3.41,3.41,0,0,1,1.35.1,6.14,6.14,0,0,0,1.92.38,10.67,10.67,0,0,1,2.3-.19h2.11a9.14,9.14,0,0,1,1.15.1,3,3,0,0,0,1.34-.1.92.92,0,0,1,.67.29.54.54,0,0,0,.68.09.73.73,0,0,1,.67-.09,4.25,4.25,0,0,0,.67.09h3.45a3.39,3.39,0,0,1,.77.1,1.77,1.77,0,0,0,1-.1,1.64,1.64,0,0,1,.58.19q.38.2.57,0a.93.93,0,0,1,.48.2.62.62,0,0,0,.67,0h4a1.15,1.15,0,0,1,.67.19c.19.13.42.06.67-.19a.77.77,0,0,1,.48.28c.2.2.35.23.48.1h1.54a2.33,2.33,0,0,1,.57.1.58.58,0,0,0,.58-.1,1.64,1.64,0,0,1,.58.19.61.61,0,0,0,.76-.19c.13.26.45.38,1,.38h2.88a5.85,5.85,0,0,1,1,.2,1.85,1.85,0,0,1,1.15.76v.77h-.38a16.89,16.89,0,0,0-6.72-.57l-.57-.2-.2-.19-.38.39a1.45,1.45,0,0,1-.67-.39c-.32-.25-.55-.19-.67.19a1,1,0,0,0-.67-.19h-3.17a.78.78,0,0,1-.58-.19.76.76,0,0,0-.57-.19c-.13,0-.32.13-.58.38a1.3,1.3,0,0,0-1-.38h-4.22a7.33,7.33,0,0,1-2.68-.39,1,1,0,0,0-1.54.39.92.92,0,0,0-1-.48,6.28,6.28,0,0,1-.76.09h-3.27a1.07,1.07,0,0,1-.76-.38L200,60q-1.73-.76-2.49,0a.61.61,0,0,0-.58-.09.56.56,0,0,1-.57-.1,5.32,5.32,0,0,0-1.54-.19h-5.95a1.07,1.07,0,0,1-.76-.19,6,6,0,0,1-1.73.38,8.39,8.39,0,0,1-2.11-.29,4,4,0,0,0-1.92-.09c-.26-.26-.7-.19-1.34.19a.38.38,0,0,0-.58-.19q-.39.2-.57,0a2.13,2.13,0,0,0-1-.19h-5a1.13,1.13,0,0,0-.77.38.83.83,0,0,0-.77-.29,2.33,2.33,0,0,1-.57.1,2,2,0,0,1-.67-.19c-.32-.13-.55-.13-.67,0h-1a.77.77,0,0,0-.77.38l-.39-.38a1.15,1.15,0,0,1-1.05.28c-.45-.06-.74,0-.86.1-.13-.38-.36-.48-.68-.29s-.54.16-.67-.09a1.3,1.3,0,0,1-1,.38H153.48a1,1,0,0,0-.68.19.88.88,0,0,1-.67.1,1.71,1.71,0,0,0-.48-.1c-.13.13-.57.19-1.34.19h-3.07l-.38.39-.39-.39a3.08,3.08,0,0,1-1.72.39,16,16,0,0,0-3.84.09,33.69,33.69,0,0,1-3.65.29,5.73,5.73,0,0,1-1.72.19,6.56,6.56,0,0,0-1.92.2,8.13,8.13,0,0,1-2.11.19,6.64,6.64,0,0,0-1.92.19,17.21,17.21,0,0,1-3.07.19l-.58.77A.53.53,0,0,1,125.27,62.36Z" style="fill:#7e9a3d"/></g></g></svg>