<svg xmlns="http://www.w3.org/2000/svg" viewBox="0 0 34.7 80.93"><g style="isolation:isolate"><g style="isolation:isolate"><path d="M3.07,18.93a2,2,0,0,1-2.36-.14C0,18.23-.18,17.29.19,16c.19-.65,1.53-2.22,4-4.69L16.49,3.65,21.2.22c1.92-.51,3.23-.14,3.93,1.13.47.85.14,2-1,3.44l-2,1.54L7,16.34a6.53,6.53,0,0,0-1.41,1.19A5.6,5.6,0,0,1,3.07,18.93ZM23.76,80.16Q8.76,69.48,6.09,67.64q-2.18-1.68-1.26-3A2.84,2.84,0,0,1,8.48,63Q15.27,67.1,27.62,76a2.43,2.43,0,0,1,.49,3.86C26.65,81.18,25.21,81.29,23.76,80.16ZM17.14,38.39Q16,37,17.92,33.83q1.7-2.16,6.82-3.36c3.41-.78,6.1-.9,8.07-.34a2.48,2.48,0,0,1,1.08.85,3.86,3.86,0,0,1,.81,1.82c-.05,1.41-1,2.21-2.81,2.39-.75.14-2.3.31-4.67.52a9.34,9.34,0,0,0-5.72,2.34Q18.7,40.44,17.14,38.39Z" style="fill:#7e9a3e"/></g></g></svg>