<svg xmlns="http://www.w3.org/2000/svg" viewBox="0 0 229.13 89.37"><g style="isolation:isolate"><g style="isolation:isolate"><path d="M40.5,72.32a1.08,1.08,0,0,1-.62-.62,7.48,7.48,0,0,1-1-3.93L39,63.84c.09-2.61.11-4.57.07-5.85,0-2.48,0-4.34.14-5.58,0-.87.06-2.21.06-4,.1-1,.28-2.71.56-5.1l.27-2.41.21-2q.14-1.38.27-2.07c0-.28.13-.62.24-1a10.67,10.67,0,0,0,.25-1,1.31,1.31,0,0,0-.18-.48.75.75,0,0,1-.1-.55,1.69,1.69,0,0,1,1.72-1,1.56,1.56,0,0,1,1.31.63,10.63,10.63,0,0,1,1,1.54c.32.62.57,1.12.75,1.49Q46.64,38.29,49,42a6.44,6.44,0,0,1,.55,1,2.47,2.47,0,0,0,.76,1,22.27,22.27,0,0,1,1.65-3.52l.76-1.58a19.15,19.15,0,0,0,1.24-2.55,26.86,26.86,0,0,1,1.55-2.89,1.6,1.6,0,0,1,1.27-.9,1.68,1.68,0,0,1,1,.34,1,1,0,0,1,.48.83l-.07,1.1c0,.83,0,1.54.07,2.14s.09,1.08.14,1.44c0,1.25.07,3.08.07,5.52v2.27c-.05.64-.07,1.58-.07,2.82v2.9q0,.69,0,1.68c0,.67,0,1.46,0,2.38a11.16,11.16,0,0,0-.07,1.52q0,5.16-.14,6.2c0,.78-.07,2.06-.07,3.85,0,.6-.07,1.5-.07,2.69a2.28,2.28,0,0,1-.45,1.38c-.29.41-.54.62-.72.62s-.4-.26-.52-.79a5.85,5.85,0,0,1-.1-1.62l.14-2a14.37,14.37,0,0,0-.07-1.72c0-1.79,0-3.15.07-4.07,0-.5,0-1.17,0-2s0-1.8,0-2.9a27.32,27.32,0,0,1,.07-3.24c.09-1.1.14-2,.14-2.54V45a19.54,19.54,0,0,0-.21-4.34c-.14.13-1.08,2.18-2.83,6.13-.13.37-.64.55-1.51.55s-1.72-.64-2.41-1.93c-1.33-2.3-2.39-4.22-3.17-5.79l-.83-1.24a6.74,6.74,0,0,1-1-1.51q-.07.35-.21,1.2a3.72,3.72,0,0,0,0,1.42,22.38,22.38,0,0,1,.14,2.89c0,1,0,1.77.07,2.27a3.92,3.92,0,0,1,.07.9c0,.6,0,1.16-.07,1.69s-.07.95-.07,1.27a10,10,0,0,1,.07,1.65,11.71,11.71,0,0,1-.07,1.73l-.28,5,.07,1.3a28.33,28.33,0,0,1,.14,5q-.21,2.15-.34,6.27a3.07,3.07,0,0,1-.11,1,1,1,0,0,1-.44.48,1.22,1.22,0,0,0-.62.76,1,1,0,0,1-1.38.82A4.92,4.92,0,0,1,40.5,72.32Z" style="fill:#7e9a3d"/><path d="M63.55,71.59c-.67-.43-1-.83-1-1.2a47.57,47.57,0,0,1,.55-5.93q.69-4.95,1.1-7.44a99.47,99.47,0,0,1,2.69-11.91L67.44,43a31.36,31.36,0,0,1,.83-3.1c.09-.37.32-1.17.69-2.41s.71-2.28,1-3.1a13.55,13.55,0,0,1,.89-1.93l1.8-.14a2.56,2.56,0,0,1,2.1,1.17A6.38,6.38,0,0,1,75.91,36L78.6,56a73.16,73.16,0,0,1,.69,8.34,30.69,30.69,0,0,0,.55,5c.09.41.18.94.28,1.58a2,2,0,0,1,.06.55c0,.51-.2.76-.62.76a1.54,1.54,0,0,1-1.48-1.07,6.43,6.43,0,0,1-.44-2.51,38.54,38.54,0,0,0-.49-5.51c0-.51-.11-1.14-.2-1.9s-.16-1.62-.21-2.58c0-.46-.21-.69-.62-.69l-2.69-.07c-.32,0-1.08,0-2.27.14a1.18,1.18,0,0,0-1,.65,7.55,7.55,0,0,0-.52,1.24c-.13.44-.23.75-.27.93a12.17,12.17,0,0,0-.72,2.93c-.17,1.17-.27,2-.31,2.38,0,.23-.17.82-.35,1.79a17.17,17.17,0,0,1-.62,2.44q-.34,1-.69,1.14l-1.31.69A2.94,2.94,0,0,1,63.55,71.59Zm12.71-15a1.06,1.06,0,0,0,.34-.93L75.16,43.94l-.62-5a8.17,8.17,0,0,0-.45,2.17c-.07.8-.13,1.34-.17,1.61a56.58,56.58,0,0,1-1.31,6.41c-.79,3.22-1.27,5-1.45,5.51a3.15,3.15,0,0,0-.14,1c0,.64.25,1,.76,1s1.1,0,1.93.14l1.45.07A2,2,0,0,0,76.26,56.58Z" style="fill:#7e9a3d"/><path d="M85.28,72.66a2.81,2.81,0,0,0-.82-.62.82.82,0,0,1-.45-.31,6.37,6.37,0,0,1-.38-1.07q1.25-6.06,2.13-9a31.85,31.85,0,0,1,1.66-4.07c.27-.64.54-1.34.79-2.1s.42-1.29.52-1.62a14,14,0,0,1,.55-1.79c.41-1.1.73-2.09,1-3,.14-.46.43-1.31.86-2.55s.86-2.36,1.28-3.37l.55-1.45a8.57,8.57,0,0,1,.48-1.38L96,34.15c0-.27-.31-.41-.93-.41H94c-.87,0-1.54,0-2,.07a1.91,1.91,0,0,1-1.24-.35l-.41-1.58,7.78-.55A4.27,4.27,0,0,0,99,32a2.87,2.87,0,0,1,.83.75c.55.42.82,1.29.82,2.62a6.71,6.71,0,0,1-.48,2.69,7.34,7.34,0,0,0-.45,1.65c-.11.69-.21,1.22-.31,1.59l-.55,1.37c-.23.6-.45,1.19-.65,1.76a11.81,11.81,0,0,0-.38,1.14A29.54,29.54,0,0,0,96.65,49c-.05.23-.21.78-.48,1.66a14.07,14.07,0,0,1-1,2.34,4,4,0,0,0-.14.76,3,3,0,0,1-.2,1.1,7.52,7.52,0,0,0-.62,1.72,10,10,0,0,1-.9,2.14,9.07,9.07,0,0,0-.65,1.48q-.31.86-.45,1.2a12.62,12.62,0,0,1-1.1,2.76,4.54,4.54,0,0,0-.24.76,2.74,2.74,0,0,1-.25.69,4.3,4.3,0,0,0-1,2.06,5.49,5.49,0,0,1-.69,1.66l-.14.34c0,.18.19.28.56.28a2.28,2.28,0,0,0,1.13-.25,2.08,2.08,0,0,1,1-.24,8.09,8.09,0,0,1,1.93.49,1.64,1.64,0,0,1,.79.69c.21.32.15.55-.17.68a19.72,19.72,0,0,1-2.72,1.11,10.86,10.86,0,0,1-1.76.27,15.89,15.89,0,0,0-3,.41l-.27.07A1.38,1.38,0,0,1,85.28,72.66Z" style="fill:#7e9a3d"/><path d="M108.36,72.11a4.91,4.91,0,0,0-.76-1A4,4,0,0,1,107,69.7a11.38,11.38,0,0,1-.25-1.55c0-.53-.06-.88-.06-1.07l-.14-2.82a29.5,29.5,0,0,0-.14-3.31v-.83a8.21,8.21,0,0,0,.07-1.31,31.47,31.47,0,0,0-.28-3.44V51.86a7.7,7.7,0,0,0,.07-1.24c0-2.07,0-3.35.07-3.86l.21-3.65q.27-5.65.69-8.41a1.52,1.52,0,0,0,.07-.55v-.89l.55-1.31,1.31-.28a3.57,3.57,0,0,1,1.3.42l.49.82.27,1.45a13,13,0,0,1,.76,4.2,13.4,13.4,0,0,0,.21,2.31c.13.8.23,1.37.27,1.69a74.71,74.71,0,0,1,.48,8.75c0,1.37,0,2.75-.13,4.13l-.21,2.89q-.69,8.76-1.24,12.82a2.59,2.59,0,0,1-.86.55,13.27,13.27,0,0,1-1.83.48Z" style="fill:#7e9a3d"/><path d="M132.4,72.32a1.05,1.05,0,0,1-.62-.62,7.48,7.48,0,0,1-1-3.93l.06-3.93c.1-2.61.12-4.57.07-5.85,0-2.48.05-4.34.14-5.58,0-.87.07-2.21.07-4,.09-1,.28-2.71.55-5.1L132,40.9l.2-2c.09-.92.19-1.61.28-2.07a7.63,7.63,0,0,1,.24-1c.11-.42.19-.76.24-1a1.44,1.44,0,0,0-.17-.48.7.7,0,0,1-.1-.55,1.67,1.67,0,0,1,1.72-1,1.58,1.58,0,0,1,1.31.63,9.85,9.85,0,0,1,1,1.54l.76,1.49q1.09,1.86,3.44,5.58a6.44,6.44,0,0,1,.55,1,2.56,2.56,0,0,0,.76,1,22.27,22.27,0,0,1,1.65-3.52l.76-1.58a18,18,0,0,0,1.24-2.55,28.81,28.81,0,0,1,1.55-2.89,1.61,1.61,0,0,1,1.28-.9,1.63,1.63,0,0,1,1,.34,1,1,0,0,1,.48.83l-.06,1.1c0,.83,0,1.54.06,2.14s.1,1.08.14,1.44c0,1.25.07,3.08.07,5.52v2.27c-.05.64-.07,1.58-.07,2.82v2.9c0,.46,0,1,0,1.68s0,1.46,0,2.38a13.11,13.11,0,0,0-.07,1.52q0,5.16-.13,6.2c0,.78-.07,2.06-.07,3.85-.05.6-.07,1.5-.07,2.69a2.28,2.28,0,0,1-.45,1.38c-.3.41-.54.62-.72.62s-.41-.26-.52-.79a5.17,5.17,0,0,1-.1-1.62l.13-2c0-.78,0-1.35-.06-1.72,0-1.79,0-3.15.06-4.07,0-.5,0-1.17,0-2s0-1.8,0-2.9a29.7,29.7,0,0,1,.07-3.24c.09-1.1.14-2,.14-2.54V45a19.54,19.54,0,0,0-.21-4.34c-.13.13-1.08,2.18-2.82,6.13-.14.37-.64.55-1.52.55s-1.72-.64-2.41-1.93c-1.33-2.3-2.39-4.22-3.17-5.79l-.82-1.24a6.85,6.85,0,0,1-1-1.51c0,.23-.11.63-.2,1.2a3.72,3.72,0,0,0,0,1.42,22.38,22.38,0,0,1,.14,2.89c0,1,0,1.77.06,2.27a3.4,3.4,0,0,1,.07.9c0,.6,0,1.16-.07,1.69s-.06.95-.06,1.27a12.19,12.19,0,0,1,.06,1.65,14.26,14.26,0,0,1-.06,1.73l-.28,5,.07,1.3a29.31,29.31,0,0,1,.14,5q-.21,2.15-.35,6.27a3.15,3.15,0,0,1-.1,1,1,1,0,0,1-.45.48,1.25,1.25,0,0,0-.62.76,1,1,0,0,1-1.38.82A5,5,0,0,1,132.4,72.32Z" style="fill:#7e9a3d"/><path d="M155.44,71.59c-.66-.43-1-.83-1-1.2a49.61,49.61,0,0,1,.55-5.93q.69-4.95,1.11-7.44a99.62,99.62,0,0,1,2.68-11.91l.55-2.07c.23-1.06.51-2.09.83-3.1.09-.37.32-1.17.69-2.41s.71-2.28,1-3.1a12.41,12.41,0,0,1,.9-1.93l1.79-.14a2.53,2.53,0,0,1,2.1,1.17A6.41,6.41,0,0,1,167.81,36l2.68,20a73.16,73.16,0,0,1,.69,8.34,31.88,31.88,0,0,0,.55,5c.1.41.19.94.28,1.58a1.67,1.67,0,0,1,.07.55c0,.51-.21.76-.62.76A1.53,1.53,0,0,1,170,71.11a6.43,6.43,0,0,1-.45-2.51,38.35,38.35,0,0,0-.48-5.51c-.05-.51-.12-1.14-.21-1.9s-.16-1.62-.21-2.58c0-.46-.2-.69-.62-.69l-2.68-.07c-.32,0-1.08,0-2.28.14a1.17,1.17,0,0,0-1,.65,7.55,7.55,0,0,0-.52,1.24c-.14.44-.23.75-.28.93a12.17,12.17,0,0,0-.72,2.93c-.16,1.17-.26,2-.31,2.38,0,.23-.16.82-.34,1.79a18.64,18.64,0,0,1-.62,2.44q-.35,1-.69,1.14l-1.31.69A3,3,0,0,1,155.44,71.59Zm12.71-15a1.07,1.07,0,0,0,.35-.93l-1.45-11.71-.62-5a8.58,8.58,0,0,0-.45,2.17c-.07.8-.12,1.34-.17,1.61a54.32,54.32,0,0,1-1.31,6.41c-.78,3.22-1.26,5-1.45,5.51a3.16,3.16,0,0,0-.13,1q0,1,.75,1a19.21,19.21,0,0,1,1.93.14l1.45.07A2,2,0,0,0,168.15,56.58Z" style="fill:#7e9a3d"/><path d="M177.25,71.49c-.42-.23-.58-.5-.49-.83a3.2,3.2,0,0,1-.55-1.79,5.18,5.18,0,0,1,.42-1.93c.27-.69.45-1.12.55-1.31a68.72,68.72,0,0,1,5-9.85c.45-.73.83-1.37,1.13-1.93s.54-1,.73-1.37c.5-1,1.1-2.09,1.79-3.24A5.75,5.75,0,0,0,187,47.38a7.19,7.19,0,0,0-1.41-2.89c-1-1.43-1.92-2.78-2.93-4.07q-.83-1.1-1.35-1.86a6.28,6.28,0,0,1-.79-1.65l-1-3.86v-.21a1.78,1.78,0,0,1,.14-.86.41.41,0,0,1,.48-.17A22.49,22.49,0,0,0,183,32c1.06,0,2.64-.05,4.76-.14a8.87,8.87,0,0,1,1.24-.07h3.72c.78,0,1.69.69,2.75,2.07a2.37,2.37,0,0,1,.55,1.65A2.65,2.65,0,0,1,195.6,37c-.29.44-.58.66-.86.66a1.19,1.19,0,0,1-.55-.21,7.16,7.16,0,0,0-3.48-.83,18.58,18.58,0,0,1-2.3-.07c-1.15-.18-2.35-.32-3.59-.41l-1.93-.21a4.73,4.73,0,0,0-.82.07,7.57,7.57,0,0,0,1.44,2.62,46.17,46.17,0,0,1,4.69,6.68,6.51,6.51,0,0,0,1,1.42c.43.48.77.83,1,1.06a1.94,1.94,0,0,1,.48,1.31,5.13,5.13,0,0,1-.41,1.48,8,8,0,0,1-.62,1.35,15,15,0,0,1-1.24,2.68l-.76,1.52a14.22,14.22,0,0,0-.76,1.72,34.73,34.73,0,0,1-2.2,4.13,15.76,15.76,0,0,0-1,2c-.46,1.08-.78,1.84-1,2.3q-.15.29,0,.42a.42.42,0,0,0,.41.07,5,5,0,0,1,1.31-.21l1.38.07a4.11,4.11,0,0,0,.75-.07l.9-.14a20.42,20.42,0,0,1,3.65-.48,1.71,1.71,0,0,1,1.41.48,2.14,2.14,0,0,1,.38,1.38l-.07,1.58a5,5,0,0,1-.17,1.55.76.76,0,0,1-.58.59,32.45,32.45,0,0,1-3.45.14h-3.51c-1.24,0-3.06,0-5.44.13a2,2,0,0,1-1,.35A2.41,2.41,0,0,1,177.25,71.49Z" style="fill:#7e9a3d"/></g></g><g style="isolation:isolate"><g style="isolation:isolate"><path d="M27.44,5.67a4.19,4.19,0,0,0-2.23.54,1.87,1.87,0,0,0-.88,1.73,2.44,2.44,0,0,0,.55,1.56,1.93,1.93,0,0,0,1.61.71h3.43l-.41,1.18H26.76a3.15,3.15,0,0,0-2.17.76,2.69,2.69,0,0,0-.85,2.13,3,3,0,0,0,.94,2.35,3.89,3.89,0,0,0,2.67.84,9,9,0,0,0,1.89-.2,12.59,12.59,0,0,0,1.5-.41c.39-.13.64-.23.75-.28l.35,1.1A6.34,6.34,0,0,1,31,18a12.79,12.79,0,0,1-1.66.42,10.52,10.52,0,0,1-2.12.2,4.81,4.81,0,0,1-3.32-1.09,4,4,0,0,1-1.38-2.74l0-.51a3.36,3.36,0,0,1,2.19-3.51,2.43,2.43,0,0,1-1.14-1.06,3.47,3.47,0,0,1-.48-1.81,3.49,3.49,0,0,1,0-.51,2.82,2.82,0,0,1,1.4-2.15,5.71,5.71,0,0,1,2.86-.68,7.78,7.78,0,0,1,2.57.4V6.08A7.34,7.34,0,0,0,27.44,5.67Z" style="fill:#7e9a3d"/><path d="M47.5,16.42a2,2,0,0,0,.16.58,1.31,1.31,0,0,0,.57.66l-.6.75s-.12,0-.38-.19a2.26,2.26,0,0,1-.69-.74,2.45,2.45,0,0,1-.31-1.28l0-10.34h-7.8V18.33H37.26V4.81H47.5Z" style="fill:#7e9a3d"/><path d="M55.22,18.33H54V4.81h1.22Z" style="fill:#7e9a3d"/><path d="M62.37,11.5,68.5,4.81h1.62L65,10.37l3.43,4.83c1,1.39,1.91,2.08,2.64,2.08l.06,1.08a3.18,3.18,0,0,1-2.05-.76,11.63,11.63,0,0,1-1.89-2.13l-3-4.18-1.81,1.86v5.18H61.16V4.51l1.21.3Z" style="fill:#7e9a3d"/><path d="M78.18,5.87A5,5,0,0,1,82,4.51a4.76,4.76,0,0,1,3.67,1.42A5.44,5.44,0,0,1,86.94,9.8v3.57a5.63,5.63,0,0,1-1.24,3.75A4.61,4.61,0,0,1,82,18.6a4.73,4.73,0,0,1-3.8-1.5,5.54,5.54,0,0,1-1.28-3.73V9.8A5.47,5.47,0,0,1,78.18,5.87ZM79.1,16.4A3.62,3.62,0,0,0,82,17.52a3.57,3.57,0,0,0,2.81-1.1,4.24,4.24,0,0,0,1-2.87V9.77a4.25,4.25,0,0,0-1-3.13,3.74,3.74,0,0,0-2.74-1,3.86,3.86,0,0,0-2.81,1,4.18,4.18,0,0,0-1,3.14v3.78A4,4,0,0,0,79.1,16.4Z" style="fill:#7e9a3d"/><path d="M93.26,18.33H92.05V4.81h1.21Z" style="fill:#7e9a3d"/><path d="M104.38,16.93l4-12.12h1.27l-4.43,13.52H103.6L99.2,4.81h1.27Z" style="fill:#7e9a3d"/><path d="M116.89,7.09a4.39,4.39,0,0,0-.65,2.49V13.5a4.3,4.3,0,0,0,.9,3.06,2.87,2.87,0,0,0,2.15.94,2,2,0,0,0,1.69-.76,4.16,4.16,0,0,0,.6-2.29V10.26h1.25v4.19a3.93,3.93,0,0,0,.58,2.29,2,2,0,0,0,1.71.76,2.94,2.94,0,0,0,2.15-.92,4.31,4.31,0,0,0,.9-3.08V9.58a4.39,4.39,0,0,0-.65-2.49,2.82,2.82,0,0,0-1.75-1.26l.73-1a4.06,4.06,0,0,1,2.16,1.83,6.25,6.25,0,0,1,.73,3.11v3.49q0,5.4-4.35,5.4a3.66,3.66,0,0,1-1.61-.38,2.93,2.93,0,0,1-1.23-1.14A2.84,2.84,0,0,1,121,18.28a3.64,3.64,0,0,1-1.59.38q-4.35,0-4.35-5.4V9.77a6.25,6.25,0,0,1,.73-3.11,4.06,4.06,0,0,1,2.16-1.83l.7,1A2.94,2.94,0,0,0,116.89,7.09Z" style="fill:#7e9a3d"/><path d="M141.48,16.93l3.94-12.12h1.27l-4.42,13.52H140.7L136.3,4.81h1.27Z" style="fill:#7e9a3d"/><path d="M153.66,5.54a5.9,5.9,0,0,1,1.71-.71,8.63,8.63,0,0,1,2-.24,6.19,6.19,0,0,1,2.7.51A3.9,3.9,0,0,1,162.41,9V24l-1.19-.54V9a3,3,0,0,0-1.08-2.56,4.42,4.42,0,0,0-2.73-.81,7.79,7.79,0,0,0-1.94.26,7.92,7.92,0,0,0-1.81.69V18.33h-1.22V4.81h1.22ZM159.25,0a.7.7,0,0,1,.55.23.75.75,0,0,1,.2.53.66.66,0,0,1-.13.4L158,3.81h-1l1.4-3.27A.83.83,0,0,1,159.25,0Z" style="fill:#7e9a3d"/><path d="M169.44,5.62a5.26,5.26,0,0,1,3.28-1,6.69,6.69,0,0,1,1.05.06,14.26,14.26,0,0,0,1.68.13A4.4,4.4,0,0,0,177,4.58a4.78,4.78,0,0,0,1.41-.91l.89.35a3.73,3.73,0,0,1-2.65,1.87,3.16,3.16,0,0,1,1.15,1.58,6.88,6.88,0,0,1,.42,2.49v3.65q0,5.24-5,5.24a4.92,4.92,0,0,1-3.82-1.39,5.57,5.57,0,0,1-1.25-3.85V8.78A3.69,3.69,0,0,1,169.44,5.62Zm1,11.15a4,4,0,0,0,2.82,1c2.54,0,3.81-1.32,3.81-3.94V10a5.43,5.43,0,0,0-.38-2.14,4.55,4.55,0,0,0-.81-1.34c-.29-.31-.48-.47-.59-.49a13.44,13.44,0,0,0-2.4-.29q-3.5,0-3.49,3.16V13.8A3.9,3.9,0,0,0,170.41,16.77Z" style="fill:#7e9a3d"/><path d="M193.19,6h-3.51v8.78a3.67,3.67,0,0,0,.43,2,2.55,2.55,0,0,0,1.4,1l-.35.94a3.5,3.5,0,0,1-2.09-1.36,4.58,4.58,0,0,1-.61-2.55V6h-3.4V4.83h8.13Z" style="fill:#7e9a3d"/><path d="M203.85,5.67a4.21,4.21,0,0,0-2.23.54,1.89,1.89,0,0,0-.87,1.73,2.44,2.44,0,0,0,.55,1.56,1.92,1.92,0,0,0,1.61.71h3.42l-.4,1.18h-2.75a3.18,3.18,0,0,0-2.18.76,2.73,2.73,0,0,0-.85,2.13,3,3,0,0,0,.95,2.35,3.89,3.89,0,0,0,2.67.84,9,9,0,0,0,1.89-.2,13.76,13.76,0,0,0,1.5-.41c.38-.13.63-.23.74-.28l.35,1.1a6.34,6.34,0,0,1-.81.3,12,12,0,0,1-1.66.42,10.38,10.38,0,0,1-2.12.2,4.85,4.85,0,0,1-3.32-1.09A4,4,0,0,1,199,14.77l0-.51a3.36,3.36,0,0,1,2.18-3.51A2.37,2.37,0,0,1,200,9.69a3.48,3.48,0,0,1-.49-1.81,3.49,3.49,0,0,1,0-.51,2.82,2.82,0,0,1,1.4-2.15,5.75,5.75,0,0,1,2.87-.68,7.72,7.72,0,0,1,2.56.4V6.08A7.3,7.3,0,0,0,203.85,5.67Z" style="fill:#7e9a3d"/></g></g><g style="isolation:isolate"><g style="isolation:isolate"><path d="M92.93,89.29a.36.36,0,0,0-.21-.13.75.75,0,0,1-.43-.08c0-.06.09-.17.26-.34h.34l1.87-.26,2.89-.25,2-.17a5.46,5.46,0,0,1,1.1-.09,5.71,5.71,0,0,0,1.11-.08,9.4,9.4,0,0,1,1.4-.09,9.3,9.3,0,0,0,1.32-.08.35.35,0,0,0,.34-.17c.11.17.22.22.34.17a3.41,3.41,0,0,1,1.14-.17h.81c1.7-.12,3-.17,4-.17s2.26.08,4.08.08a.68.68,0,0,0,.21,0c.08,0,.13-.07.13-.13h1.44c0,.12.11.14.34.09h2.81c1.24,0,2.15,0,2.72.08a2.43,2.43,0,0,0,.42,0,1.59,1.59,0,0,1,.6,0,2.59,2.59,0,0,0,.85.17,5,5,0,0,1,1-.08h.93a4.12,4.12,0,0,1,.51,0,1.45,1.45,0,0,0,.6,0,.4.4,0,0,1,.29.12.24.24,0,0,0,.3,0,.34.34,0,0,1,.3,0,1.8,1.8,0,0,0,.3,0h1.53a1.37,1.37,0,0,1,.34,0,.81.81,0,0,0,.42,0,.79.79,0,0,1,.26.08c.11.06.19.06.25,0a.37.37,0,0,1,.21.09.32.32,0,0,0,.3,0h1.79a.55.55,0,0,1,.29.08c.09.06.19,0,.3-.08A.33.33,0,0,1,135,88c.09.09.16.1.22,0h.68a1,1,0,0,1,.25,0,.28.28,0,0,0,.26,0,.76.76,0,0,1,.25.08.28.28,0,0,0,.34-.08c.06.11.2.17.43.17h1.27a3.21,3.21,0,0,1,.43.08.88.88,0,0,1,.51.34V89h-.17a7.48,7.48,0,0,0-3-.25l-.25-.09-.09-.08-.17.17c-.06,0-.15-.06-.3-.17s-.24-.09-.29.08a.47.47,0,0,0-.3-.08h-1.4a.34.34,0,0,1-.26-.09.37.37,0,0,0-.25-.08c-.06,0-.15,0-.26.17a.54.54,0,0,0-.42-.17h-1.87a3.37,3.37,0,0,1-1.19-.17.43.43,0,0,0-.68.17.44.44,0,0,0-.43-.22l-.34,0h-1.44a.48.48,0,0,1-.34-.17l-.17.17q-.77-.35-1.11,0a.26.26,0,0,0-.25,0,.25.25,0,0,1-.26,0,2.48,2.48,0,0,0-.68-.08h-2.63a.46.46,0,0,1-.34-.09,2.5,2.5,0,0,1-.77.17,3.64,3.64,0,0,1-.93-.13,1.94,1.94,0,0,0-.85,0q-.18-.16-.6.09a.17.17,0,0,0-.25-.09c-.12.06-.2.06-.26,0a1,1,0,0,0-.42-.08h-2.21a.45.45,0,0,0-.34.17.34.34,0,0,0-.34-.13,1.09,1.09,0,0,1-.26,0,1.21,1.21,0,0,1-.3-.08c-.14-.06-.24-.06-.29,0h-.43a.34.34,0,0,0-.34.17l-.17-.17a.52.52,0,0,1-.47.12c-.19,0-.32,0-.38,0-.06-.17-.16-.22-.3-.13s-.24.07-.29,0a.61.61,0,0,1-.43.17h-4.72a.42.42,0,0,0-.29.08.37.37,0,0,1-.3,0l-.21,0a1.11,1.11,0,0,1-.6.09h-1.36l-.17.17-.17-.17a1.4,1.4,0,0,1-.76.17,6.66,6.66,0,0,0-1.7,0c-.74.08-1.28.13-1.62.13a2.82,2.82,0,0,1-.76.08,2.81,2.81,0,0,0-.85.09,3.86,3.86,0,0,1-.94.08,2.81,2.81,0,0,0-.85.09,8.56,8.56,0,0,1-1.36.08l-.25.34A.24.24,0,0,1,92.93,89.29Z" style="fill:#7e9a3d"/></g></g><g style="isolation:isolate"><g style="isolation:isolate"><path d="M5.89,37.34a4.23,4.23,0,0,0-2.55-1.05c-1.06-.09-1.75-.16-2.09-.23C.44,36,0,35.63,0,35a1.72,1.72,0,0,1,.36-.82,1.19,1.19,0,0,1,.48-.37A7.56,7.56,0,0,1,4.45,34a5.46,5.46,0,0,1,3,1.5c.58.94.7,1.62.34,2C7.37,38.1,6.72,38.05,5.89,37.34ZM2.93,56a1.09,1.09,0,0,1,.22-1.73q5.51-3.95,8.54-5.77a1.28,1.28,0,0,1,1.63.72c.27.4.09.85-.56,1.35S9.34,53,4.88,56.13A1.35,1.35,0,0,1,2.93,56ZM13,28.19a2.52,2.52,0,0,0-.63-.53L5.63,23.19l-.91-.69c-.51-.65-.65-1.16-.44-1.54.31-.56.89-.73,1.75-.5L8.13,22l5.48,3.41a8.89,8.89,0,0,1,1.79,2.1,1.08,1.08,0,0,1-.23,1.25.88.88,0,0,1-1.05.06A2.54,2.54,0,0,1,13,28.19Z" style="fill:#7e9a3d"/></g></g><g style="isolation:isolate"><g style="isolation:isolate"><path d="M215,40.62a.87.87,0,0,1-1-.07c-.32-.24-.4-.66-.23-1.25a8.73,8.73,0,0,1,1.79-2.09L221,33.8l2.1-1.53c.86-.23,1.44-.06,1.75.5.21.38.07.89-.44,1.54l-.91.68-6.73,4.47a2.76,2.76,0,0,0-.63.53A2.54,2.54,0,0,1,215,40.62Zm9.23,27.32q-6.69-4.77-7.88-5.59c-.65-.5-.83-1-.56-1.35a1.27,1.27,0,0,1,1.63-.71q3,1.82,8.54,5.77a1.08,1.08,0,0,1,.21,1.72A1.35,1.35,0,0,1,224.24,67.94Zm-3-18.64c-.35-.42-.23-1.09.35-2a5.3,5.3,0,0,1,3-1.5,7.42,7.42,0,0,1,3.6-.16,1.18,1.18,0,0,1,.49.38,1.77,1.77,0,0,1,.36.82c0,.62-.44,1-1.26,1.06-.33.06-1,.14-2.08.23a4.07,4.07,0,0,0-2.55,1Q222,50.22,221.29,49.3Z" style="fill:#7e9a3d"/></g></g></svg>