<svg xmlns="http://www.w3.org/2000/svg" viewBox="0 0 499.92 175.29"><g style="isolation:isolate"><g style="isolation:isolate"><path d="M225.51,36.52a10,10,0,0,1-5.78,1.59A13.47,13.47,0,0,1,214.22,37a9.32,9.32,0,0,1-4.11-3.49,10.63,10.63,0,0,1-1.56-5.94V10.92a12.82,12.82,0,0,1,1.19-6,9.32,9.32,0,0,1,3.42-3.63A11.38,11.38,0,0,1,218.89,0a15.83,15.83,0,0,1,7.47,1.75l-1.43,4.13a14.75,14.75,0,0,0-5.14-1A8.47,8.47,0,0,0,215.18,6q-1.81,1.14-1.81,4.42V27.67a5.12,5.12,0,0,0,1.7,4.26,7.21,7.21,0,0,0,4.61,1.35,6.36,6.36,0,0,0,4.21-1.37,5.11,5.11,0,0,0,1.67-4.19V26.34h-3.18l-1.59-4.66h9.54v15.9H226Z" style="fill:#7e9a3d"/><path d="M258.9.48h17.7V5.25H263.72V15.69H272l-1.43,4.66h-6.84V33.23H276.5v4.35H258.9Z" style="fill:#7e9a3d"/><path d="M308.72,5.25h-8.11V.48h21.31V5.25h-8.38V37.58h-4.82Z" style="fill:#7e9a3d"/></g></g><g style="isolation:isolate"><g style="isolation:isolate"><path d="M161.68,109.5h-8.26v-4.86h21.71v4.86h-8.54v32.94h-4.91Z" style="fill:#7e9a3d"/><path d="M218.41,140.47a12.66,12.66,0,0,1-8,2.56,14.47,14.47,0,0,1-5.5-1.05,9.33,9.33,0,0,1-4.24-3.43,10.46,10.46,0,0,1-1.65-6.1V115.06q0-5.57,3-8.42t8.4-2.87q5.34,0,8.29,3c2,2,2.94,4.79,2.94,8.31v17.34C221.73,136.08,220.62,138.76,218.41,140.47Zm-3.08-29.68q-1.49-1.83-4.94-1.83c-2.31,0-3.95.6-4.94,1.81a8.29,8.29,0,0,0-1.49,5.37v15.61a6.29,6.29,0,0,0,1.7,4.69,7.38,7.38,0,0,0,9.4,0,6.29,6.29,0,0,0,1.75-4.73v-15.5A8.46,8.46,0,0,0,215.33,110.79Z" style="fill:#7e9a3d"/><path d="M273.62,104.58v27.81c0,3.64-1.1,6.29-3.32,7.94a14.19,14.19,0,0,1-16.06,0c-2.24-1.65-3.35-4.3-3.35-7.94V104.58h4.91V131q0,7.08,6.43,7.07t6.48-7.07V104.58Z" style="fill:#7e9a3d"/><path d="M313.15,143a11.3,11.3,0,0,1-7.61-2.49c-2-1.65-2.92-4.3-2.92-7.93V115.22a13.26,13.26,0,0,1,1.16-6.21,9.65,9.65,0,0,1,3.54-3.56,11.64,11.64,0,0,1,5.83-1.35,16.09,16.09,0,0,1,7.61,1.78l-1.4,4.21a15.66,15.66,0,0,0-5.56-1,7.15,7.15,0,0,0-4.43,1.38,5,5,0,0,0-1.83,4.24v17.71q0,5.56,6.31,5.56a24.76,24.76,0,0,0,7.45-1.35l.82,4.54A26.13,26.13,0,0,1,313.15,143Z" style="fill:#7e9a3d"/><path d="M366.56,124.89H353.11v17.55H348.2v-37.8h4.91v15.5h13.45v-15.5h4.86v37.8h-4.86Z" style="fill:#7e9a3d"/></g></g><g style="isolation:isolate"><g style="isolation:isolate"><path d="M220.8,175.14a.68.68,0,0,0-.42-.25,1.3,1.3,0,0,1-.82-.16c0-.11.16-.33.49-.66h.66c.11,0,1.33-.17,3.64-.5l5.61-.49,4-.33a11.12,11.12,0,0,1,2.14-.17,10,10,0,0,0,2.15-.16,19.27,19.27,0,0,1,2.72-.17,15,15,0,0,0,2.56-.17.63.63,0,0,0,.65-.33c.22.33.44.45.66.33a7.36,7.36,0,0,1,2.23-.33h1.57c3.3-.21,5.88-.33,7.76-.33s4.39.17,7.92.17a1.61,1.61,0,0,0,.41-.08c.16-.06.25-.14.25-.25h2.8c0,.22.22.28.66.16h5.45c2.41,0,4.17.06,5.27.17a5.86,5.86,0,0,0,.83-.08,2.8,2.8,0,0,1,1.16.08,5.37,5.37,0,0,0,1.65.33,8.61,8.61,0,0,1,2-.17h1.81a8,8,0,0,1,1,.09,2.56,2.56,0,0,0,1.16-.09.81.81,0,0,1,.57.25.44.44,0,0,0,.58.08.68.68,0,0,1,.58-.08,2.82,2.82,0,0,0,.58.08h3a2.5,2.5,0,0,1,.66.09,1.49,1.49,0,0,0,.83-.09,1.37,1.37,0,0,1,.5.17c.21.11.38.11.49,0a.79.79,0,0,1,.41.17.55.55,0,0,0,.58,0h3.47a1,1,0,0,1,.57.16c.17.11.36.06.58-.16a.66.66,0,0,1,.41.24c.17.17.3.2.41.09h1.33a2,2,0,0,1,.49.08.52.52,0,0,0,.5-.08,1.27,1.27,0,0,1,.49.16.54.54,0,0,0,.66-.16c.11.22.38.33.83.33h2.47a4.71,4.71,0,0,1,.82.16,1.6,1.6,0,0,1,1,.66v.66h-.33a14.54,14.54,0,0,0-5.77-.49l-.49-.17-.17-.16-.33.33a1.29,1.29,0,0,1-.58-.33c-.27-.22-.47-.17-.58.16a.79.79,0,0,0-.57-.16h-2.72a.67.67,0,0,1-.5-.17.67.67,0,0,0-.49-.16c-.12,0-.28.11-.5.33a1.11,1.11,0,0,0-.82-.33H294a6.37,6.37,0,0,1-2.3-.33.85.85,0,0,0-1.32.33.82.82,0,0,0-.83-.42,4.66,4.66,0,0,1-.66.09h-2.81a1,1,0,0,1-.66-.33l-.32.33c-1-.44-1.71-.44-2.15,0a.5.5,0,0,0-.49-.09.49.49,0,0,1-.5-.08,4.31,4.31,0,0,0-1.32-.16H275.5a.93.93,0,0,1-.66-.17,5.26,5.26,0,0,1-1.49.33,7.26,7.26,0,0,1-1.81-.25,3.56,3.56,0,0,0-1.66-.08c-.22-.22-.6-.16-1.15.17a.32.32,0,0,0-.49-.17c-.23.11-.39.11-.5,0a1.82,1.82,0,0,0-.82-.16h-4.3a1,1,0,0,0-.66.33.68.68,0,0,0-.66-.25,2.52,2.52,0,0,1-.49.08,1.88,1.88,0,0,1-.58-.16c-.27-.11-.47-.11-.57,0h-.83a.67.67,0,0,0-.66.33l-.33-.33a1,1,0,0,1-.91.24c-.38,0-.63,0-.74.09-.11-.33-.3-.42-.58-.25s-.47.14-.57-.08a1.15,1.15,0,0,1-.83.33h-9.16a.82.82,0,0,0-.58.16.71.71,0,0,1-.57.08,1.61,1.61,0,0,0-.41-.08,2.2,2.2,0,0,1-1.16.17h-2.64l-.33.33-.33-.33a2.7,2.7,0,0,1-1.49.33,13.41,13.41,0,0,0-3.29.08c-1.44.16-2.48.25-3.14.25a5,5,0,0,1-1.49.16,5.75,5.75,0,0,0-1.65.17,6.65,6.65,0,0,1-1.81.16,5.75,5.75,0,0,0-1.65.17,15.07,15.07,0,0,1-2.64.16l-.49.66A.46.46,0,0,1,220.8,175.14Z" style="fill:#7e9a3d"/></g></g><path d="M279.1,80a6.24,6.24,0,0,1-.24-1.82c-.06-4.36,0-8.65-.06-13a24.09,24.09,0,0,0-.41-4.06c-.12-.94-.82-1.18-1.59-.65a5.69,5.69,0,0,0-1.53,1.36,32.66,32.66,0,0,0-4.35,7.53c-1,2.41-1.77,4.94-2.71,7.41a3,3,0,0,1-.35.89c-.36.41-.77.82-1.42.64s-.64-.64-.64-1.17c0-1.71-.06-3.36-.06-5,.06-3.12.11-6.18.17-9.3,0-.41-.11-.83-.17-1.71-1.53,2.53-2.83,4.65-4.12,6.83s-2.42,4.3-3.71,6.41a22.46,22.46,0,0,1-2.18,3c-1.47,1.7-3.41,1.41-4.35-.53a11,11,0,0,1-1.24-4.6c-.06-1.88-.29-3.82-.18-5.7.18-2.24.53-4.42.89-6.6a1.54,1.54,0,0,1,.94-1.29.86.86,0,0,1,1.29.76,3.34,3.34,0,0,1-.17.71A29.54,29.54,0,0,0,252,70a35.13,35.13,0,0,0,.77,4.88,1.83,1.83,0,0,0,.17.53c.42,1,1,1.12,1.59.3s1.18-1.77,1.71-2.65c2.12-3.53,4.12-7.12,6.3-10.71A16,16,0,0,1,264,60.25a4.66,4.66,0,0,1,1.3-1.12,1.34,1.34,0,0,1,1.9.06,1.31,1.31,0,0,1,.33.64A6.19,6.19,0,0,1,268,62c0,2.83-.05,5.65-.05,8.54.58-.3.64-.95.88-1.47a37.63,37.63,0,0,1,4.12-7.42,9.65,9.65,0,0,1,2.82-2.94c2.06-1.24,3.71-.65,4.48,1.59a10.11,10.11,0,0,1,.47,3.23c-.06,2.24.17,4.48.23,6.65.06,2.89.06,5.71.06,8.54a7,7,0,0,1-.06,1.12.9.9,0,0,1-.88.82.77.77,0,0,1-.93-.58A.15.15,0,0,1,279.1,80ZM252.37,53.42a1.31,1.31,0,0,1,1.24-1.3,1.12,1.12,0,0,1-.12,2.24C252.79,54.36,252.37,54,252.37,53.42Z" style="fill:#7e9a3d"/><g style="isolation:isolate"><g style="isolation:isolate"><path d="M11.91,82.75a8.42,8.42,0,0,0-5.16-2.12c-2.14-.18-3.54-.34-4.21-.47C.88,80,0,79.28,0,78a3.4,3.4,0,0,1,.73-1.64,2.32,2.32,0,0,1,1-.77A15.17,15.17,0,0,1,9,75.92q4.62,1.06,6.14,3,1.78,2.85.7,4.11C14.91,84.29,13.59,84.19,11.91,82.75Zm-6,37.68A2.19,2.19,0,0,1,6.37,117q11.13-8,17.28-11.67a2.57,2.57,0,0,1,3.29,1.46c.54.8.17,1.71-1.14,2.72q-2.4,1.65-15.94,11.29A2.73,2.73,0,0,1,5.93,120.43ZM26.27,64.25A5.65,5.65,0,0,0,25,63.17l-13.62-9L9.54,52.74c-1-1.31-1.32-2.34-.89-3.1q.94-1.71,3.54-1l4.25,3.1,11.09,6.89c2.23,2.24,3.44,3.65,3.61,4.24.34,1.18.18,2-.47,2.53a1.77,1.77,0,0,1-2.12.13A5.06,5.06,0,0,1,26.27,64.25Z" style="fill:#7e9a3d"/></g></g><g style="isolation:isolate"><g style="isolation:isolate"><path d="M471.38,59.12a1.78,1.78,0,0,1-2.12-.13c-.65-.51-.81-1.35-.47-2.54.17-.59,1.38-2,3.61-4.23l11.09-6.89,4.25-3.1q2.6-.69,3.54,1c.43.77.13,1.8-.89,3.1l-1.84,1.39-13.62,9a5.57,5.57,0,0,0-1.27,1.07A5.16,5.16,0,0,1,471.38,59.12ZM490,114.35q-13.52-9.64-15.93-11.29-2-1.52-1.14-2.73a2.58,2.58,0,0,1,3.29-1.45q6.14,3.69,17.27,11.68A2.19,2.19,0,0,1,494,114,2.73,2.73,0,0,1,490,114.35Zm-6-37.68c-.71-.84-.48-2.21.71-4.11q1.51-2,6.14-3t7.28-.31a2.2,2.2,0,0,1,1,.76,3.43,3.43,0,0,1,.73,1.65c0,1.27-.89,2-2.54,2.15-.67.13-2.07.28-4.21.47A8.42,8.42,0,0,0,488,76.36C486.32,77.79,485,77.9,484.08,76.67Z" style="fill:#7e9a3d"/></g></g></svg>