<svg xmlns="http://www.w3.org/2000/svg" viewBox="0 0 441.92 215.56"><g style="isolation:isolate"><g style="isolation:isolate"><path d="M176.22,182.61c-.17-.16-.3-.25-.41-.25a1.33,1.33,0,0,1-.83-.16c0-.11.17-.33.5-.66h.66c.11,0,1.32-.17,3.63-.5l5.61-.49,4-.33a11.2,11.2,0,0,1,2.14-.17,10,10,0,0,0,2.15-.16,19.37,19.37,0,0,1,2.72-.17,16.26,16.26,0,0,0,2.56-.16.67.67,0,0,0,.66-.33q.33.5.66.33a7,7,0,0,1,2.22-.33H204q4.95-.33,7.76-.33,2.64.16,7.92.16a1.22,1.22,0,0,0,.41-.08c.16,0,.25-.14.25-.25h2.8c0,.22.22.28.66.17h5.45c2.42,0,4.18,0,5.28.16a4.57,4.57,0,0,0,.82-.08,3,3,0,0,1,1.16.08,5.43,5.43,0,0,0,1.65.33,8.86,8.86,0,0,1,2-.16H242c.22,0,.55,0,1,.08a2.57,2.57,0,0,0,1.16-.08.75.75,0,0,1,.57.25.47.47,0,0,0,.58.08.61.61,0,0,1,.58-.08,4,4,0,0,0,.58.08h3a3,3,0,0,1,.66.08,1.44,1.44,0,0,0,.82-.08,1.25,1.25,0,0,1,.5.16c.22.11.38.11.49,0a.79.79,0,0,1,.41.17.55.55,0,0,0,.58,0h3.47a1,1,0,0,1,.57.16c.17.11.36.06.58-.16a.64.64,0,0,1,.41.25c.17.16.31.19.42.08h1.32a2.52,2.52,0,0,1,.49.08.49.49,0,0,0,.5-.08,1.22,1.22,0,0,1,.49.16.54.54,0,0,0,.66-.16c.11.22.39.33.83.33h2.47a4.75,4.75,0,0,1,.83.16,1.6,1.6,0,0,1,1,.66V182h-.33a14.59,14.59,0,0,0-5.78-.49l-.49-.17-.17-.16-.33.33a1.29,1.29,0,0,1-.58-.33c-.27-.22-.46-.17-.57.16a.82.82,0,0,0-.58-.16h-2.72a.69.69,0,0,1-.5-.17.66.66,0,0,0-.49-.16c-.11,0-.28.11-.5.33a1.11,1.11,0,0,0-.82-.33H249.4a6.43,6.43,0,0,1-2.31-.33.85.85,0,0,0-1.32.33.79.79,0,0,0-.83-.41,6,6,0,0,1-.66.08h-2.8a1,1,0,0,1-.66-.33l-.33.33c-1-.44-1.71-.44-2.15,0a.47.47,0,0,0-.49-.08.51.51,0,0,1-.5-.09,4.31,4.31,0,0,0-1.32-.16h-5.11a1,1,0,0,1-.66-.17,5.26,5.26,0,0,1-1.49.33,7.71,7.71,0,0,1-1.81-.24,3.41,3.41,0,0,0-1.65-.09c-.22-.22-.61-.16-1.16.17a.32.32,0,0,0-.49-.17c-.22.11-.39.11-.5,0a1.82,1.82,0,0,0-.82-.16h-4.29a1,1,0,0,0-.66.33.7.7,0,0,0-.66-.25,2,2,0,0,1-.5.08,1.88,1.88,0,0,1-.58-.16q-.41-.16-.57,0h-.83a.67.67,0,0,0-.66.33l-.33-.33a1,1,0,0,1-.91.25c-.38-.06-.63,0-.74.08-.11-.33-.3-.41-.58-.25s-.46.14-.57-.08a1.13,1.13,0,0,1-.83.33h-9.16a.79.79,0,0,0-.57.16.79.79,0,0,1-.58.09,1.27,1.27,0,0,0-.41-.09,2.2,2.2,0,0,1-1.16.17h-2.64l-.33.33-.33-.33a2.68,2.68,0,0,1-1.48.33,13.5,13.5,0,0,0-3.3.08c-1.43.16-2.48.25-3.14.25a5,5,0,0,1-1.48.16,5.75,5.75,0,0,0-1.65.17,6.74,6.74,0,0,1-1.82.16,5.75,5.75,0,0,0-1.65.17,15.07,15.07,0,0,1-2.64.16l-.49.66A.45.45,0,0,1,176.22,182.61Z" style="fill:#7e9a3d"/></g></g><g style="isolation:isolate"><text transform="translate(66.93 148.89)" style="isolation:isolate;font-size:120px;fill:#7e9a3d;font-family:NF-Takhie-Free-Regular, NF-Takhie-Free">ΜΑ<tspan x="87.87" y="0" style="letter-spacing:0.05553792317708333em">Ζ</tspan><tspan x="130.13" y="0">Ι ΜΑΣ</tspan></text></g><g style="isolation:isolate"><text transform="translate(35.65 45.05)" style="isolation:isolate;font-size:53px;fill:#7e9a3d;font-family:AdventPro-Light, Advent Pro;font-weight:300;letter-spacing:0.10000552771226415em">επικοινωνήστε</text></g><g style="isolation:isolate"><g style="isolation:isolate"><path d="M11.91,92.21a8.42,8.42,0,0,0-5.16-2.12c-2.14-.18-3.54-.34-4.21-.47C.88,89.46,0,88.74,0,87.47a3.48,3.48,0,0,1,.73-1.65,2.36,2.36,0,0,1,1-.76c1.77-.51,4.2-.4,7.28.31s5.13,1.73,6.14,3q1.78,2.86.7,4.12C14.91,93.75,13.59,93.64,11.91,92.21Zm-6,37.68a2.19,2.19,0,0,1,.44-3.48q11.13-8,17.28-11.67a2.57,2.57,0,0,1,3.29,1.45c.54.81.17,1.72-1.14,2.73q-2.4,1.65-15.94,11.28A2.73,2.73,0,0,1,5.93,129.89ZM26.27,73.7A5.57,5.57,0,0,0,25,72.63l-13.62-9L9.54,62.2c-1-1.31-1.32-2.34-.89-3.11.63-1.14,1.81-1.47,3.54-1l4.25,3.1,11.09,6.89c2.23,2.23,3.44,3.65,3.61,4.24.34,1.18.18,2-.47,2.53a1.78,1.78,0,0,1-2.12.13A5.06,5.06,0,0,1,26.27,73.7Z" style="fill:#7e9a3d"/></g></g><g style="isolation:isolate"><g style="isolation:isolate"><path d="M413.38,75a1.77,1.77,0,0,1-2.12-.13c-.65-.5-.81-1.35-.47-2.53.17-.59,1.38-2,3.61-4.24l11.09-6.88,4.25-3.1q2.6-.69,3.54,1c.43.76.13,1.79-.89,3.1l-1.84,1.39-13.62,9a5.93,5.93,0,0,0-1.27,1.08A5.06,5.06,0,0,1,413.38,75ZM432,130.24Q418.53,120.6,416.11,119q-2-1.53-1.14-2.73a2.57,2.57,0,0,1,3.29-1.45q6.14,3.67,17.27,11.67a2.2,2.2,0,0,1,.44,3.49A2.74,2.74,0,0,1,432,130.24Zm-6-37.68q-1.06-1.28.7-4.12,1.53-1.95,6.15-3t7.28-.3a2.2,2.2,0,0,1,1,.76,3.4,3.4,0,0,1,.73,1.64c0,1.27-.89,2-2.54,2.15-.67.13-2.07.29-4.21.47A8.42,8.42,0,0,0,430,92.25Q427.48,94.4,426.08,92.56Z" style="fill:#7e9a3d"/></g></g></svg>