<svg xmlns="http://www.w3.org/2000/svg" viewBox="0 0 254.38 46.58"><g style="isolation:isolate"><g style="isolation:isolate"><path d="M86.18,46.44c-.15-.15-.27-.23-.37-.23a1.2,1.2,0,0,1-.76-.15q0-.15.45-.6h.61c.1,0,1.21-.15,3.32-.46l5.13-.45,3.63-.3a10.33,10.33,0,0,1,2-.15,9,9,0,0,0,2-.15,18.14,18.14,0,0,1,2.5-.15,14.93,14.93,0,0,0,2.34-.15.59.59,0,0,0,.6-.31c.2.31.4.41.6.31a6.52,6.52,0,0,1,2-.31h1.44q4.53-.3,7.09-.3t7.25.15a1.23,1.23,0,0,0,.38-.07c.15,0,.23-.13.23-.23h2.56c0,.2.2.25.61.15h5c2.21,0,3.83.05,4.83.15a4.74,4.74,0,0,0,.76-.07,2.59,2.59,0,0,1,1.05.07,4.75,4.75,0,0,0,1.51.3,8.86,8.86,0,0,1,1.82-.15h1.66a8.24,8.24,0,0,1,.9.08,2.27,2.27,0,0,0,1.06-.08.74.74,0,0,1,.53.23.42.42,0,0,0,.53.08.57.57,0,0,1,.53-.08,3.3,3.3,0,0,0,.52.08h2.72a2.6,2.6,0,0,1,.61.07,1.36,1.36,0,0,0,.75-.07,1.15,1.15,0,0,1,.45.15c.21.1.36.1.46,0a.78.78,0,0,1,.38.15.49.49,0,0,0,.52,0h3.17a.92.92,0,0,1,.53.15c.15.1.33,0,.53-.15a.61.61,0,0,1,.38.22c.15.16.28.18.38.08h1.2a2.31,2.31,0,0,1,.46.08.45.45,0,0,0,.45-.08,1.15,1.15,0,0,1,.45.15.51.51,0,0,0,.61-.15q.15.3.75.3h2.27a4.51,4.51,0,0,1,.75.15,1.45,1.45,0,0,1,.91.61v.6h-.3a13.46,13.46,0,0,0-5.29-.45l-.45-.15-.15-.15-.3.3a1.11,1.11,0,0,1-.53-.3c-.26-.2-.43-.16-.53.15a.75.75,0,0,0-.53-.15h-2.49a.56.56,0,0,1-.45-.16.7.7,0,0,0-.46-.15c-.1,0-.25.11-.45.31a1,1,0,0,0-.76-.31h-3.32a5.9,5.9,0,0,1-2.11-.3.78.78,0,0,0-1.21.3.72.72,0,0,0-.75-.37,4.55,4.55,0,0,1-.61.07H145.9a.86.86,0,0,1-.6-.3l-.3.3c-.91-.4-1.56-.4-2,0a.47.47,0,0,0-.46-.07.45.45,0,0,1-.45-.08,4,4,0,0,0-1.21-.15h-4.68a.87.87,0,0,1-.6-.15,4.88,4.88,0,0,1-1.36.3,6.42,6.42,0,0,1-1.66-.23,3.18,3.18,0,0,0-1.51-.07c-.21-.2-.56-.15-1.06.15a.3.3,0,0,0-.45-.15c-.21.1-.36.1-.46,0a1.67,1.67,0,0,0-.75-.15h-3.93a.86.86,0,0,0-.6.3.64.64,0,0,0-.61-.23,1.63,1.63,0,0,1-.45.08,1.74,1.74,0,0,1-.53-.15c-.25-.1-.43-.1-.53,0H121a.6.6,0,0,0-.6.3l-.31-.3a.9.9,0,0,1-.83.22c-.35-.05-.58,0-.68.08-.1-.3-.27-.38-.52-.23s-.43.13-.53-.07a1.06,1.06,0,0,1-.76.3h-8.38a.75.75,0,0,0-.53.15.69.69,0,0,1-.53.08,1.24,1.24,0,0,0-.37-.08,2,2,0,0,1-1.06.15h-2.42l-.3.3-.3-.3a2.49,2.49,0,0,1-1.36.3,12.76,12.76,0,0,0-3,.08,28.53,28.53,0,0,1-2.87.23,4.58,4.58,0,0,1-1.36.15,5.34,5.34,0,0,0-1.51.15,6.07,6.07,0,0,1-1.66.15,5.34,5.34,0,0,0-1.51.15,13.73,13.73,0,0,1-2.41.15l-.46.6A.41.41,0,0,1,86.18,46.44Z" style="fill:#7e9a3d"/></g></g><g style="isolation:isolate"><g style="isolation:isolate"><path d="M10.22,13H3.84L1.65,19.85H0L6.27.25H7.76l6.38,19.6H12.46ZM4.28,11.45H9.8L7,2.69Z" style="fill:#7e9a3d"/><path d="M23.72,3.14V19.85H22.15V.25h1.57L34.36,17V.25h1.56v19.6H34.36Z" style="fill:#7e9a3d"/><path d="M54.07,13H47.68L45.5,19.85H43.85L50.12.25H51.6L58,19.85H56.31Zm-5.94-1.54h5.52l-2.8-8.76Z" style="fill:#7e9a3d"/><path d="M68.85,10.19l-1.34,2.13v7.53H65.94V.22h1.57V9.58L73.78.22H75.6L69.86,8.71l7.19,11.14H75.18Z" style="fill:#7e9a3d"/><path d="M94.14,13H87.75l-2.18,6.86H83.92L90.19.25h1.48l6.39,19.6H96.38ZM88.2,11.45h5.52l-2.8-8.76Z" style="fill:#7e9a3d"/><path d="M111.16,2.69l-5.35,17.16h-1.65L110.43.25h1.49l6.38,19.6h-1.68Z" style="fill:#7e9a3d"/><path d="M136.09,18a4.42,4.42,0,0,0,.49-2.39v-4a4.88,4.88,0,0,1-2,1,8.78,8.78,0,0,1-2.41.35,7,7,0,0,1-4.69-1.47,5.4,5.4,0,0,1-1.72-4.35V.25h1.56v7.2a3.51,3.51,0,0,0,1.35,3,5.62,5.62,0,0,0,3.5,1,5.69,5.69,0,0,0,2.88-.7,3.05,3.05,0,0,0,1.54-2.1V.25h1.6V15.48a5.77,5.77,0,0,1-.77,3.21,3,3,0,0,1-2.17,1.36l-.36-1A2.51,2.51,0,0,0,136.09,18Z" style="fill:#7e9a3d"/><path d="M153.44,13.92h-1.23a5,5,0,0,1-4-1.45,5.73,5.73,0,0,1-1.31-4V.25h1.57V8.76a3.66,3.66,0,0,0,1,2.8,3.74,3.74,0,0,0,2.69,1h1.23V.25h1.62V12.52h1.38a3.73,3.73,0,0,0,2.68-1,3.66,3.66,0,0,0,1-2.8V4.06A8.35,8.35,0,0,0,160,2.28a2.93,2.93,0,0,0-.4-1,6.09,6.09,0,0,0-.71-.84L160.13,0a2.87,2.87,0,0,1,1.09,1.16,4.05,4.05,0,0,1,.41,1.42c.05.48.07,1.12.07,1.9v4a5.77,5.77,0,0,1-1.3,4,5.05,5.05,0,0,1-4,1.45h-1.38v5.93h-1.59Z" style="fill:#7e9a3d"/><path d="M175.47,1.65h-4.76V.25H182v1.4H177v18.2h-1.57Z" style="fill:#7e9a3d"/><path d="M190.68.25H200V1.71h-7.78V8.29h5.34l-.53,1.54h-4.81v8.62H200v1.4h-9.29Z" style="fill:#7e9a3d"/><path d="M226.88,1.65h-4.76V.25h11.26v1.4h-4.93v18.2h-1.57Z" style="fill:#7e9a3d"/><path d="M250.46,13h-6.39l-2.18,6.86h-1.65L246.51.25H248l6.39,19.6H252.7Zm-5.94-1.54H250l-2.8-8.76Z" style="fill:#7e9a3d"/></g></g></svg>