<svg xmlns="http://www.w3.org/2000/svg" viewBox="0 0 194.36 53.6"><g style="isolation:isolate"><g style="isolation:isolate"><path d="M0,.56H7a8.44,8.44,0,0,1,6.38,2.29A8.43,8.43,0,0,1,15.54,9V19.09q0,7.41-7.84,7.4H0ZM12.56,5.09a5.28,5.28,0,0,0-2.31-2,7.07,7.07,0,0,0-2.92-.63H2.07v22.2h5a9,9,0,0,0,4.54-1.05c1.22-.71,1.83-2.08,1.83-4.13V8.58A6.2,6.2,0,0,0,12.56,5.09Z" style="fill:#7e9a3d"/><path d="M30.75,2.48l-2.48-.07V.59h4.55v25.9H30.75Z" style="fill:#7e9a3d"/><path d="M47.41,22.31a6.06,6.06,0,0,0,2.3,1.87,7.47,7.47,0,0,0,3.35.72,8.27,8.27,0,0,0,4.75-1.28,4.52,4.52,0,0,0,1.91-4.05,4.06,4.06,0,0,0-.93-2.72,6.89,6.89,0,0,0-2.29-1.74c-.91-.43-2.16-.93-3.74-1.49A38.33,38.33,0,0,1,48.67,12a7.88,7.88,0,0,1-2.59-2.05,5.14,5.14,0,0,1-1-3.33A5.71,5.71,0,0,1,46,3.5a6.55,6.55,0,0,1,2.8-2.37,10.39,10.39,0,0,1,4.6-.91,14.59,14.59,0,0,1,3,.26,11,11,0,0,1,2.41.85l-.63,2a10.31,10.31,0,0,0-4.7-1.07A7.89,7.89,0,0,0,48.88,3.4a3.79,3.79,0,0,0-1.71,3.3A3.17,3.17,0,0,0,48,8.94a6.37,6.37,0,0,0,2.09,1.46c.82.37,2,.81,3.46,1.33a42.73,42.73,0,0,1,4.36,1.72,8,8,0,0,1,2.83,2.26,5.69,5.69,0,0,1,1.17,3.68,7.16,7.16,0,0,1-2.17,5.46c-1.44,1.36-3.67,2-6.68,2a10,10,0,0,1-4.68-1,7.54,7.54,0,0,1-3-2.63,6.68,6.68,0,0,1-1.09-3.34h2.11A4.74,4.74,0,0,0,47.41,22.31Z" style="fill:#7e9a3d"/><path d="M80.81,26.86a7.79,7.79,0,0,1-5.22-1.7c-1.33-1.13-2-2.95-2-5.44V7.84a9,9,0,0,1,.8-4.25,6.65,6.65,0,0,1,2.42-2.44,8,8,0,0,1,4-.93A11.09,11.09,0,0,1,86,1.44l-.59,1.41a11.51,11.51,0,0,0-4-.78,7.36,7.36,0,0,0-4,1.11c-1.17.74-1.76,2.19-1.76,4.33V19.65A5.47,5.47,0,0,0,77,23.59,5.3,5.3,0,0,0,81,25,17.51,17.51,0,0,0,86.5,23.9L87,25.64A17.6,17.6,0,0,1,80.81,26.86Z" style="fill:#7e9a3d"/><path d="M110.28,25.14a8.69,8.69,0,0,1-5.46,1.76,10,10,0,0,1-3.78-.72,6.44,6.44,0,0,1-2.9-2.35A7.21,7.21,0,0,1,97,19.65V7.73A7.55,7.55,0,0,1,99.1,2a8.08,8.08,0,0,1,5.76-2,7.58,7.58,0,0,1,5.68,2.07,7.84,7.84,0,0,1,2,5.7V19.65Q112.55,23.39,110.28,25.14ZM108.94,3.33a7,7,0,0,0-8.3,0A5.12,5.12,0,0,0,99.08,7.4V19.61a4.91,4.91,0,0,0,1.61,4,6.17,6.17,0,0,0,4.09,1.35,6.31,6.31,0,0,0,4.13-1.32,4.92,4.92,0,0,0,1.61-4.05V7.4A5.1,5.1,0,0,0,108.94,3.33Z" style="fill:#7e9a3d"/><path d="M124.47.59h2.22l6.62,23.35L139.93.59h2.22l-7.4,25.9H131.9Z" style="fill:#7e9a3d"/><path d="M153.66.59H166V2.52H155.73v8.69h7.07l-.71,2h-6.36V24.64h10.21v1.85H153.66Z" style="fill:#7e9a3d"/><path d="M189.1,17.32a9.41,9.41,0,0,1-1.48.11h-7.28v9.06h-2.08V.59h9.11a6.31,6.31,0,0,1,5.23,2.15,8.94,8.94,0,0,1,1.72,5.77,17.9,17.9,0,0,1-.61,4.92,5.25,5.25,0,0,1-2.64,3.26l3.29,9.8h-2.11Zm1.65-3A4.88,4.88,0,0,0,192,11.77a18.86,18.86,0,0,0,.24-3.15A7,7,0,0,0,191,4.07a4.28,4.28,0,0,0-3.48-1.52h-7.17V15.39h7.32A4,4,0,0,0,190.75,14.28Z" style="fill:#7e9a3d"/></g></g><g style="isolation:isolate"><g style="isolation:isolate"><path d="M41.94,53.42a.8.8,0,0,0-.51-.31,1.57,1.57,0,0,1-1-.2c0-.13.21-.4.61-.81h.81q.19,0,4.44-.6l6.87-.61,4.85-.4a14.16,14.16,0,0,1,2.62-.2,11.59,11.59,0,0,0,2.63-.21,24.6,24.6,0,0,1,3.33-.2,19,19,0,0,0,3.13-.2.8.8,0,0,0,.81-.4c.27.4.54.54.81.4a8.61,8.61,0,0,1,2.73-.4H76q6.06-.41,9.49-.41c2.15.14,5.38.2,9.7.2a1.57,1.57,0,0,0,.5-.1q.3-.09.3-.3h3.44c0,.27.27.34.81.2h6.66q4.44,0,6.47.2a6.18,6.18,0,0,0,1-.1,3.72,3.72,0,0,1,1.41.1,6.37,6.37,0,0,0,2,.41,11,11,0,0,1,2.42-.2h2.23a10.21,10.21,0,0,1,1.21.1,3.22,3.22,0,0,0,1.41-.1,1,1,0,0,1,.71.3.56.56,0,0,0,.71.1.76.76,0,0,1,.7-.1,4,4,0,0,0,.71.1h3.64a3.19,3.19,0,0,1,.8.1,1.77,1.77,0,0,0,1-.1,1.61,1.61,0,0,1,.61.2c.27.14.47.14.61,0a1,1,0,0,1,.5.2.65.65,0,0,0,.71,0H140a1.24,1.24,0,0,1,.71.21c.2.13.43.07.7-.21a.85.85,0,0,1,.51.31c.2.2.37.23.5.1h1.62a2.75,2.75,0,0,1,.61.1.6.6,0,0,0,.6-.1,1.66,1.66,0,0,1,.61.2.66.66,0,0,0,.81-.2c.13.27.47.4,1,.4h3a6.68,6.68,0,0,1,1,.2,2,2,0,0,1,1.21.81v.81h-.41a18.06,18.06,0,0,0-7.07-.61l-.6-.2-.2-.2-.41.4a1.56,1.56,0,0,1-.71-.4c-.33-.27-.57-.2-.7.2a1,1,0,0,0-.71-.2H138.8a.84.84,0,0,1-.61-.2.83.83,0,0,0-.6-.2c-.14,0-.34.13-.61.4a1.37,1.37,0,0,0-1-.4h-4.44a7.8,7.8,0,0,1-2.83-.41,1,1,0,0,0-1.62.41,1,1,0,0,0-1-.51,5.56,5.56,0,0,1-.81.1h-3.43a1.16,1.16,0,0,1-.81-.4l-.4.4c-1.21-.53-2.09-.53-2.63,0a.6.6,0,0,0-.6-.1.58.58,0,0,1-.61-.1,5.39,5.39,0,0,0-1.62-.2H108.9a1.22,1.22,0,0,1-.81-.2,6.28,6.28,0,0,1-1.81.4,9.34,9.34,0,0,1-2.23-.3,4.19,4.19,0,0,0-2-.1c-.27-.27-.74-.21-1.41.2a.4.4,0,0,0-.61-.2q-.41.2-.6,0a2.19,2.19,0,0,0-1-.21H93.15a1.16,1.16,0,0,0-.81.41.83.83,0,0,0-.81-.3,3.25,3.25,0,0,1-.61.1,2.21,2.21,0,0,1-.7-.21c-.34-.13-.58-.13-.71,0h-1a.82.82,0,0,0-.81.41l-.4-.41a1.2,1.2,0,0,1-1.11.31c-.48-.07-.78,0-.91.1-.14-.41-.37-.51-.71-.3s-.57.17-.71-.11a1.33,1.33,0,0,1-1,.41H71.63a1,1,0,0,0-.7.2.9.9,0,0,1-.71.1,1.57,1.57,0,0,0-.51-.1c-.13.14-.6.2-1.41.2H65.07l-.41.41-.4-.41a3.29,3.29,0,0,1-1.82.41,16.69,16.69,0,0,0-4,.1,37.87,37.87,0,0,1-3.84.3,5.92,5.92,0,0,1-1.81.2,7.23,7.23,0,0,0-2,.2,7.92,7.92,0,0,1-2.23.21,7.33,7.33,0,0,0-2,.2,18.78,18.78,0,0,1-3.23.2l-.6.81A.57.57,0,0,1,41.94,53.42Z" style="fill:#7e9a3d"/></g></g></svg>