<?xml version="1.0" encoding="utf-8"?>
<!-- Generator: Adobe Illustrator 25.4.1, SVG Export Plug-In . SVG Version: 6.00 Build 0)  -->
<svg version="1.1" id="Layer_1" xmlns="http://www.w3.org/2000/svg" xmlns:xlink="http://www.w3.org/1999/xlink" x="0px" y="0px"
	 viewBox="0 0 21.7 10.9" style="enable-background:new 0 0 21.7 10.9;" xml:space="preserve">
<style type="text/css">
	.st0{fill:#E5E5E5;}
</style>
<path class="st0" d="M21.2,0.5l-10.3,9.9L21.2,0.5z M0.5,0.5l10.3,9.9L0.5,0.5z"/>
<path class="st0" d="M10.8,10.9c-0.1,0-0.1,0-0.2,0l0,0c-0.1,0-0.1-0.1-0.1-0.1L0.2,0.9C0.1,0.8,0,0.6,0,0.5c0-0.1,0.1-0.2,0.1-0.3
	C0.3,0,0.6,0,0.8,0.2c0,0,0,0,0,0l10,9.5l10-9.5C21,0,21.4,0,21.5,0.2c0.1,0.1,0.1,0.2,0.1,0.4c0,0.1-0.1,0.3-0.1,0.4l-10.3,9.9
	c0,0-0.1,0.1-0.1,0.1l0,0C11,10.8,10.9,10.8,10.8,10.9L10.8,10.9L10.8,10.9z"/>
</svg>
