<!-- <svg xmlns="http://www.w3.org/2000/svg" viewBox="0 0 550.8 385.83"><g style="isolation:isolate"><text transform="translate(111.7 84)" style="isolation:isolate;font-size:108px;fill:#7e9a3d;font-family:takhie;letter-spacing:0.19999638310185186em">ΦΡEΣ<tspan x="231.36" y="0" style="letter-spacing:0.17778410734953703em">Κ</tspan><tspan x="289.8" y="0">Α</tspan></text></g><g style="isolation:isolate"><text transform="translate(79.36 366.12)" style="isolation:isolate;font-size:90px;fill:#7e9a3d;font-family:AdventPro-Light, Advent Pro;font-weight:300;letter-spacing:0.01999782986111111em">ΛΑΧΑΝΙΚΑ</text></g><g style="isolation:isolate"><text transform="translate(62.26 179.24)" style="isolation:isolate;font-size:108px;fill:#7e9a3d;font-family:takhie,sans;letter-spacing:0.20000090422453703em">ΜΥΡΩΔΙ<tspan x="330.24" y="0" style="letter-spacing:0.17778410734953703em">Κ</tspan><tspan x="388.68" y="0" style="letter-spacing:0.19999638310185186em">Α</tspan></text></g><g style="isolation:isolate"><text transform="translate(251.17 279.12)" style="isolation:isolate;font-size:89px;fill:#7e9a3d;font-family:AdventPro-Regular, Advent Pro">&amp;</text></g><g style="isolation:isolate"><g style="isolation:isolate"><path d="M13.61,76.53a9.58,9.58,0,0,0-5.9-2.42c-2.44-.21-4-.39-4.81-.54C1,73.39.05,72.57,0,71.11a4,4,0,0,1,.83-1.88A2.6,2.6,0,0,1,2,68.36c2-.58,4.8-.46,8.33.35s5.86,2,7,3.47c1.35,2.18,1.62,3.74.8,4.71Q16.51,79,13.61,76.53ZM6.78,119.61a2.5,2.5,0,0,1,.5-4Q20,106.5,27,102.29A2.94,2.94,0,0,1,30.8,104q.93,1.38-1.3,3.11Q26.76,109,11.27,120C9.77,121.13,8.28,121,6.78,119.61ZM30,55.38a6.35,6.35,0,0,0-1.45-1.23L13,43.81l-2.1-1.59q-1.74-2.23-1-3.55c.72-1.3,2.06-1.69,4-1.16l4.85,3.54,12.68,7.88q3.84,3.84,4.13,4.85c.39,1.35.2,2.32-.54,2.89a2,2,0,0,1-2.43.15A5.84,5.84,0,0,1,30,55.38Z" style="fill:#7e9a3d"/></g></g><g style="isolation:isolate"><g style="isolation:isolate"><path d="M518.18,59.39a2,2,0,0,1-2.43-.14c-.74-.58-.92-1.55-.54-2.9.2-.67,1.58-2.29,4.14-4.84L532,43.63l4.86-3.54c2-.52,3.33-.14,4,1.17q.74,1.31-1,3.54l-2.1,1.59L522.24,56.72A6.67,6.67,0,0,0,520.79,58,5.85,5.85,0,0,1,518.18,59.39Zm21.34,63.15q-15.46-11-18.23-12.91-2.24-1.74-1.3-3.12a2.94,2.94,0,0,1,3.77-1.65q7,4.2,19.74,13.34c1.5,1.17,1.67,2.49.5,4Q541.75,124.28,539.52,122.54ZM532.7,79.46q-1.23-1.44.8-4.7c1.17-1.49,3.5-2.64,7-3.47s6.29-.93,8.32-.35a2.68,2.68,0,0,1,1.12.87,4,4,0,0,1,.83,1.89c0,1.45-1,2.27-2.9,2.45-.77.15-2.37.33-4.81.54a9.58,9.58,0,0,0-5.9,2.42C535.26,80.75,533.76,80.86,532.7,79.46Z" style="fill:#7e9a3d"/></g></g></svg> -->



<svg xmlns="http://www.w3.org/2000/svg" viewBox="0 0 550.8 352.56"><g style="isolation:isolate"><g style="isolation:isolate"><path d="M131.74,70.08a3.43,3.43,0,0,1-1.62-1,2.66,2.66,0,0,1-.54-1.74,18.46,18.46,0,0,0,.06-2.52q-.06-1.08-.06-1.8a25.3,25.3,0,0,1-.12-2.88l.12-3.48q0-1.08-.36-1.38a4.5,4.5,0,0,0-1.8-.54,15.28,15.28,0,0,1-6-2.4,11.07,11.07,0,0,1-3.6-4,23.17,23.17,0,0,1-1.92-5.7,31.08,31.08,0,0,1-.6-5.52,40,40,0,0,1,1.2-9.48,43.78,43.78,0,0,1,3.36-9.24,8.51,8.51,0,0,1,4-4.08,5.1,5.1,0,0,1,2.4-.72,3.88,3.88,0,0,1,3.12,1.68,4,4,0,0,0,1.26,1.2l1.14.72a1.88,1.88,0,0,0,.6-1.56,39.12,39.12,0,0,1,.48-5q.24-1.32.48-3.48a3.49,3.49,0,0,1,1.2-2.4,3.67,3.67,0,0,1,2.52-1,6.56,6.56,0,0,1,1.44.24l1,1.08.6,5.88q.24,2.4.24,2.76a5.7,5.7,0,0,1-.12,1.32v.48q0,1.32,1.68.72a6.62,6.62,0,0,1,1.32-.24,4.11,4.11,0,0,1,3.72,2.28l1.8,4.2q.12.72.6,3.06a21.36,21.36,0,0,1,.48,4.26v2.76a30.74,30.74,0,0,1-.36,5.52L149,42.12,148.78,44l-1.92,7.08a23.64,23.64,0,0,1-2.4,4.68l-3.6,1.08a3.81,3.81,0,0,1-1.08-.24q-.84-.36-.84.48V65a27.53,27.53,0,0,1-.24,3.36q-.12,1.56-1.8,1.44h-.48a5.14,5.14,0,0,0-1.8.36,7.22,7.22,0,0,1-1.2.24A4.24,4.24,0,0,1,131.74,70.08Zm-1.8-22.8q0-1.2.12-4.08t.36-5L131.5,24.6l.12-1.08a4,4,0,0,0-.36-1.8,19.42,19.42,0,0,0-1.26-2q-.9-1.32-1.26-1.92-.48-1.08-1.32-.36a3.77,3.77,0,0,0-1.92,3.12q0,1.56-.24,4.92a48.87,48.87,0,0,0-.24,6.72A31.48,31.48,0,0,0,126.34,42a15.74,15.74,0,0,1,.72,2.46,24.19,24.19,0,0,0,1,3.18q.48,1,1,1Q129.7,48.6,129.94,47.28Zm13.56,5a15.34,15.34,0,0,0,1.56-4.86,45.79,45.79,0,0,0,1-5.88,28.47,28.47,0,0,1,.18-3q.18-1.68.18-2.4.24-2.64.24-3.48a7.15,7.15,0,0,0-.12-1.56,18.14,18.14,0,0,0,.12-2.4,30.41,30.41,0,0,0-.78-6.78q-.78-3.42-2.22-3.54a1.66,1.66,0,0,0-1.38.72,2.19,2.19,0,0,0-.54,1.08A11.78,11.78,0,0,0,140.14,26l-.24,5.76q-.6,12-.6,13.92l.12,6.12a3.4,3.4,0,0,0,.54,2,1.53,1.53,0,0,0,1.26.78Q142.3,54.6,143.5,52.26Z" style="fill:#7e9a3d"/><path d="M178.42,67.68q0-2-.24-6.36,0-1.32-.18-4.74t-.06-6.06a14.72,14.72,0,0,0,.06-2.28q-.06-1.08-.06-1.92V43.68q0-2.52.24-5.76t.36-4.56q.48-4.92.6-7.8.24-3.84,1.2-10.92l.36-2.76q.36-2.64,1.32-7.68a2.66,2.66,0,0,1,1.8-2.52,3.81,3.81,0,0,1,1.08-.24,3.52,3.52,0,0,1,2.82,1.38,4,4,0,0,1,.9,3.18q-.12,1.68-.6,4.8.36-.48,2.88-3.66a21,21,0,0,1,5.34-4.92A10.94,10.94,0,0,1,202.06.48a4,4,0,0,1,4,2.16,11.8,11.8,0,0,1,1,5A39.2,39.2,0,0,1,204.7,19a18.71,18.71,0,0,1-1.56,3.36,37.53,37.53,0,0,1-4,6.66,9,9,0,0,1-5,3.42,24.84,24.84,0,0,1-6.84.36,1,1,0,0,0-.72.24,2.6,2.6,0,0,0-.48,1,72.73,72.73,0,0,1-.36,8l-.12,3.6a28.37,28.37,0,0,0-.06,3.12q.06,1.32.06,2.16v2.64q0,3-.12,4.56a61.82,61.82,0,0,0,.12,6.36q.24,2.16.24,3.12l.12.72q0,.84-1.56,1.68a6.53,6.53,0,0,1-3.12.84Q178.66,70.8,178.42,67.68ZM190.9,27.42A13.37,13.37,0,0,0,194,24.36a15.35,15.35,0,0,1,1.44-1.5,9.74,9.74,0,0,0,1.44-1.62,32.3,32.3,0,0,0,5.64-15.6q0-2.4-1.32-2.4-2.28,0-5.88,4A55.37,55.37,0,0,0,188.14,18a6.07,6.07,0,0,0-1,2.88,19,19,0,0,0-.24,3.48,23.87,23.87,0,0,1-.12,2.76v.72q0,1.08,1,1.08A6.22,6.22,0,0,0,190.9,27.42Z" style="fill:#7e9a3d"/><path d="M239.38,70.44h-.24l-2.16.12a4.62,4.62,0,0,1-3.12-1.14,4.75,4.75,0,0,1-1.56-3.18q-.12-1.92,0-6.06t.48-7.14q.24-2.52.72-5,.12-1.08.36-2.7t.36-3.66l.24-3.36a21.13,21.13,0,0,1,.6-7,6.58,6.58,0,0,0,.12-2.34,11,11,0,0,1,0-2.34q.6-5.16,1.56-17a33.8,33.8,0,0,0,.48-4.68l-.12-2.16A1.67,1.67,0,0,1,237,2,1.44,1.44,0,0,1,237.34.9a1.88,1.88,0,0,1,1.2-.3A24,24,0,0,1,241.9,1H243l5.76-.12A23.87,23.87,0,0,1,251.5,1a10.87,10.87,0,0,0,1.92.12,18.93,18.93,0,0,0,3.72-.36,4.54,4.54,0,0,1,2.52.84q1.68,1,1.92,1.68a1,1,0,0,1,.12.6q0,.84-1,1l-1.92.12-11-1-1.68-.12q-.84,0-.72,1.08a7.45,7.45,0,0,0,.12,1.44A105.61,105.61,0,0,1,246,18.24a17.57,17.57,0,0,0,1.08,5.28v3.72q0,2.76.12,4.2l.12,4.44a20.69,20.69,0,0,1-.12,2.64q0,1.08,1.2,1.08a42.92,42.92,0,0,1,4.68.12q1.08,0,1.08,1a1.07,1.07,0,0,1-1,1.08l-5.16.12A1.34,1.34,0,0,0,246.7,43a75.22,75.22,0,0,0-1.2,9.84l-.72,7.2q-.12.72-.3,1.92a14.1,14.1,0,0,0-.18,2,4.46,4.46,0,0,0,.24,1.92q.24.36,1.32.36h6.36q1.2,0,2.16.06a5.08,5.08,0,0,0,1.44-.06,6,6,0,0,1,3.48,1.08,3.09,3.09,0,0,1,.66.6.72.72,0,0,1,.06.84,2.49,2.49,0,0,1-1.62,1.32,9.69,9.69,0,0,1-2.22.24H254.5L252,70.08l-2.88-.24a13.13,13.13,0,0,0-2.88.48,16.41,16.41,0,0,1-3.6.6A10.21,10.21,0,0,1,239.38,70.44Z" style="fill:#7e9a3d"/><path d="M288.7,69.24q-1.08-.6-.84-1.44a5.52,5.52,0,0,1-1-3.12,9.09,9.09,0,0,1,.72-3.36q.72-1.8,1-2.28a120.42,120.42,0,0,1,8.76-17.16q1.2-1.92,2-3.36t1.26-2.4q1.32-2.64,3.12-5.64,2-2.64,2-3.24,0-1.32-2.46-5t-5.1-7.08q-1.44-1.92-2.34-3.24A10.63,10.63,0,0,1,294.46,9l-1.8-6.72V1.92a3.29,3.29,0,0,1,.24-1.5.71.71,0,0,1,.84-.3,38.78,38.78,0,0,0,5,.24q2.76,0,8.28-.24A14.27,14.27,0,0,1,309.22,0h6.48q2,0,4.8,3.6a4.18,4.18,0,0,1,1,2.88,4.66,4.66,0,0,1-.78,2.7q-.78,1.14-1.5,1.14a2.05,2.05,0,0,1-1-.36,12.45,12.45,0,0,0-6.06-1.44,34.81,34.81,0,0,1-4-.12q-3-.48-6.24-.72l-3.36-.36a7.45,7.45,0,0,0-1.44.12A13.1,13.1,0,0,0,299.62,12a79.91,79.91,0,0,1,8.16,11.64,11.19,11.19,0,0,0,1.74,2.46q1.14,1.26,1.74,1.86a3.35,3.35,0,0,1,.84,2.28,8.78,8.78,0,0,1-.72,2.58,12.26,12.26,0,0,1-1.08,2.34,25.3,25.3,0,0,1-2.16,4.68l-1.32,2.64a24.89,24.89,0,0,0-1.32,3,60.83,60.83,0,0,1-3.84,7.2A28.32,28.32,0,0,0,300,56.22q-1.2,2.82-1.68,4-.24.48,0,.72a.72.72,0,0,0,.72.12,8.86,8.86,0,0,1,2.28-.36l2.4.12a8.08,8.08,0,0,0,1.32-.12l1.56-.24a35.45,35.45,0,0,1,6.36-.84,3,3,0,0,1,2.46.84,3.81,3.81,0,0,1,.66,2.4l-.12,2.76a9.1,9.1,0,0,1-.3,2.7,1.32,1.32,0,0,1-1,1,55.56,55.56,0,0,1-6,.24H302.5q-3.24,0-9.48.24a3.43,3.43,0,0,1-1.8.6A4.22,4.22,0,0,1,288.7,69.24Z" style="fill:#7e9a3d"/><path d="M376.78,70.8a34.69,34.69,0,0,1-3.18-6.24q-1.5-3.72-5.22-14.64l-5-14.64a5.92,5.92,0,0,1-.3-.84,1.82,1.82,0,0,0-.66-1,7.65,7.65,0,0,0-2,2.16q-.36.48-.9,1.38a5.11,5.11,0,0,1-1.14,1.38,1.26,1.26,0,0,0-.48,1.08v.84a16,16,0,0,0,.12,3.24,19.56,19.56,0,0,1,.24,2.52l.12,11.28a35.4,35.4,0,0,1-.72,8.76,3.66,3.66,0,0,1-1.92,2.64q-1.32.6-1.08,1.44a16.48,16.48,0,0,1-3.24.48,5.37,5.37,0,0,1-2.64-.6,1.48,1.48,0,0,0-.36-.84,9.05,9.05,0,0,1-1-3.78,46.29,46.29,0,0,1-.3-5.1V58.44a10.87,10.87,0,0,0-.12-1.92,32.51,32.51,0,0,1-.24-3.36l.12-2.28q.24-2,.3-3.54t.06-2.46q0-3.12.12-4.56t.12-5.16q.84-15.84,1.32-21.48.48-6,.84-9,.12-1.44-.24-1.68l.24-1a14.69,14.69,0,0,1,2.28-.24,17.21,17.21,0,0,1,2.22.12q.9.12,1.5.24a6.31,6.31,0,0,1,1,1.2l.12,1.44.72,2.88q.12.48.36,2.4a18.46,18.46,0,0,1,.12,3.6,12.43,12.43,0,0,0,.06,2.7,20.67,20.67,0,0,1,.18,2.1q.12,2.28.06,3.9t-.06,2.7l.12,2.88q0,.36-.24,2.52a65.05,65.05,0,0,0,6.06-8.1,92.76,92.76,0,0,0,5.34-9.06q1.56-3.12,3.48-6.72T375.34,3q.48,0,1,1.08a4.25,4.25,0,0,1,.54,1.8,3,3,0,0,1-.36,1.32l-5.76,12.36-1.56,3.24q-.6,1.08-2.52,4.2-2.16,3.24-2.16,4.08a3,3,0,0,0,.36,1.32l1.32,3q.84,1.92,2,4.2a19.46,19.46,0,0,1,1.5,3.3q.66,1.86.9,2.46,3.6,10,6.12,17.88L377.86,66q.12.36.78,1.8a6.05,6.05,0,0,1,.66,2.4q0,1.44-2.16,1.08Z" style="fill:#7e9a3d"/><path d="M406.84,69.42q-1.74-1.14-1.74-2.1a83.67,83.67,0,0,1,1-10.32q1.2-8.64,1.92-13a173.76,173.76,0,0,1,4.68-20.76l1-3.6q.6-2.76,1.44-5.4.24-1,1.2-4.2t1.8-5.4a22.91,22.91,0,0,1,1.56-3.36l3.12-.24a4.43,4.43,0,0,1,3.66,2,11.12,11.12,0,0,1,2,4.32l4.68,34.8a127.56,127.56,0,0,1,1.2,14.52,53.8,53.8,0,0,0,1,8.64q.24,1.08.48,2.76a3.12,3.12,0,0,1,.12,1q0,1.32-1.08,1.32a2.66,2.66,0,0,1-2.58-1.86,11.27,11.27,0,0,1-.78-4.38,66.79,66.79,0,0,0-.84-9.6q-.12-1.32-.36-3.3t-.36-4.5q0-1.2-1.08-1.2l-4.68-.12q-.84,0-4,.24a2.08,2.08,0,0,0-1.74,1.14,12.92,12.92,0,0,0-.9,2.16q-.36,1.14-.48,1.62a21.08,21.08,0,0,0-1.26,5.1q-.42,3.06-.54,4.14-.12.6-.6,3.12a31.18,31.18,0,0,1-1.08,4.26q-.6,1.74-1.2,2L410,70.44A5.12,5.12,0,0,1,406.84,69.42ZM429,43.26a1.86,1.86,0,0,0,.6-1.62l-2.52-20.4L426,12.6a15,15,0,0,0-.78,3.78q-.18,2.1-.3,2.82a95.49,95.49,0,0,1-2.28,11.16q-2,8.4-2.52,9.6a5.32,5.32,0,0,0-.24,1.68q0,1.68,1.32,1.68a32.51,32.51,0,0,1,3.36.24l2.52.12A3.41,3.41,0,0,0,429,43.26Z" style="fill:#7e9a3d"/></g></g><g style="isolation:isolate"><g style="isolation:isolate"><path d="M125.89,352.56h-4.32l-18.63-56.7-18.27,56.7H80.44l20.61-63h3.87Z" style="fill:#7e9a3d"/><path d="M175.66,352.56h-4.32l-7.74-23H142l-7.56,23h-4.23l20.7-63h3.78Zm-13.14-27-9.72-29.43-9.54,29.43Z" style="fill:#7e9a3d"/><path d="M209.32,316.65,226,289.56h4.68l-18.9,31,20.34,32-5,.09-17.82-27.9-17.82,27.9h-5l20.43-32-18.72-31h4.5Z" style="fill:#7e9a3d"/><path d="M283.57,352.56h-4.32l-7.74-23h-21.6l-7.56,23h-4.23l20.7-63h3.78Zm-13.14-27-9.72-29.43-9.54,29.43Z" style="fill:#7e9a3d"/><path d="M334.87,345.18V289.56h4v63h-4L298.6,296.85v55.71h-4.05v-63h4.05Z" style="fill:#7e9a3d"/><path d="M364.56,352.56h-4V293.34l-6.49-.18v-3.6h10.53Z" style="fill:#7e9a3d"/><path d="M386.61,321.15l22.32-31.68h4.68L394.8,316.2l23.49,36.36h-4.77L392.28,320l-5.67,8.1v24.48h-4.05V289.47h4.05Z" style="fill:#7e9a3d"/><path d="M469.77,352.56h-4.32l-7.74-23h-21.6l-7.56,23h-4.23l20.7-63h3.78Zm-13.14-27-9.72-29.43-9.54,29.43Z" style="fill:#7e9a3d"/></g></g><g style="isolation:isolate"><g style="isolation:isolate"><path d="M68.62,165.92a1.8,1.8,0,0,1-1.08-1.08A12.94,12.94,0,0,1,65.86,158l.12-6.84q.24-6.84.12-10.2,0-6.48.24-9.72.12-2.28.12-7,.24-2.64,1-8.88l.48-4.2.36-3.48q.24-2.4.48-3.6a18.08,18.08,0,0,1,.42-1.8,18.08,18.08,0,0,0,.42-1.8,2.34,2.34,0,0,0-.3-.84,1.31,1.31,0,0,1-.18-1,2.92,2.92,0,0,1,3-1.68,2.73,2.73,0,0,1,2.28,1.08,17.67,17.67,0,0,1,1.68,2.7q.84,1.62,1.32,2.58,1.92,3.24,6,9.72a12.13,12.13,0,0,1,1,1.68,4.25,4.25,0,0,0,1.32,1.68,39,39,0,0,1,2.88-6.12l1.32-2.76A32.17,32.17,0,0,0,92,103.16a48.81,48.81,0,0,1,2.7-5,2.8,2.8,0,0,1,2.22-1.56,2.88,2.88,0,0,1,1.68.6,1.74,1.74,0,0,1,.84,1.44l-.12,1.92q0,2.16.12,3.72t.24,2.52q.12,3.24.12,9.6v4q-.12,1.68-.12,4.92v5q0,1.2.06,2.94t-.06,4.14a20.69,20.69,0,0,0-.12,2.64q0,9-.24,10.8-.12,2-.12,6.72-.12,1.56-.12,4.68a4,4,0,0,1-.78,2.4q-.78,1.08-1.26,1.08t-.9-1.38a9.49,9.49,0,0,1-.18-2.82l.24-3.48a26.78,26.78,0,0,0-.12-3q0-4.68.12-7.08,0-1.32.06-3.48t-.06-5a48.25,48.25,0,0,1,.12-5.64q.24-2.88.24-4.44V118.4q0-7.08-.36-7.56-.36.36-4.92,10.68-.36,1-2.64,1t-4.2-3.36q-3.48-6-5.52-10.08l-1.44-2.16a11.88,11.88,0,0,1-1.8-2.64q-.12.6-.36,2.1a6.29,6.29,0,0,0,0,2.46,38.78,38.78,0,0,1,.24,5q0,2.64.12,4a6.21,6.21,0,0,1,.12,1.56q0,1.56-.12,2.94t-.12,2.22a18.53,18.53,0,0,1,.12,2.88,21.43,21.43,0,0,1-.12,3L75.1,139l.12,2.28a50.07,50.07,0,0,1,.24,8.76q-.36,3.72-.6,10.92a5.38,5.38,0,0,1-.18,1.68,1.72,1.72,0,0,1-.78.84,2.19,2.19,0,0,0-1.08,1.32,1.75,1.75,0,0,1-2.4,1.44A8.9,8.9,0,0,1,68.62,165.92Z" style="fill:#7e9a3d"/><path d="M141.34,165.8a5,5,0,0,1-2-2.88l.24-18.24V141.8q0-1-.06-2.34a31.82,31.82,0,0,1,.06-3.3q.24-2.4.3-4.68t.18-3.12l-.6-1.32-7.68-16.44a31.43,31.43,0,0,1-1.8-5.28,5.42,5.42,0,0,0-1-2.4,2.09,2.09,0,0,1-.36-.84,2.33,2.33,0,0,1,.48-1.2,10.38,10.38,0,0,1,1.32-1.74,1.35,1.35,0,0,1,1-.24q.66.06,1,.06,2.16,0,2.64,1.44,1.2,2.88,4.92,10l2.52,4.68a6.61,6.61,0,0,0,1.08,1.68,8.07,8.07,0,0,1,.84,1.08l1.92-2.76q2.88-4.32,4.2-6.6Q152,105.8,154.9,101a7.67,7.67,0,0,1,1-1.62q.78-1,1.14-1t1,1.08a4.65,4.65,0,0,1,.48,1.8,3.2,3.2,0,0,1-.36,1.44,101.72,101.72,0,0,0-4.92,9.12q-.48.84-2.4,4.38a40.56,40.56,0,0,0-3,6.9,14,14,0,0,0-.72,4.44v1.08l.12,4q.24,2.88.24,4.2l-.24,2.76-.36,5.4q0,1.92.24,5.76,0,.84.18,3a26.61,26.61,0,0,1,.06,4,42.89,42.89,0,0,1-.42,6.66q-.42,2.58-2.7,2.58A5.17,5.17,0,0,1,141.34,165.8Z" style="fill:#7e9a3d"/><path d="M186.58,162.92q0-2-.24-6.36,0-1.32-.18-4.74t-.06-6.06a14.72,14.72,0,0,0,.06-2.28q-.06-1.08-.06-1.92v-2.64q0-2.52.24-5.76t.36-4.56q.48-4.92.6-7.8.24-3.84,1.2-10.92l.36-2.76q.36-2.64,1.32-7.68a2.66,2.66,0,0,1,1.8-2.52,3.81,3.81,0,0,1,1.08-.24,3.52,3.52,0,0,1,2.82,1.38,4,4,0,0,1,.9,3.18q-.12,1.68-.6,4.8.36-.48,2.88-3.66a21,21,0,0,1,5.34-4.92,10.94,10.94,0,0,1,5.82-1.74,4,4,0,0,1,4,2.16,11.8,11.8,0,0,1,1,5,39.2,39.2,0,0,1-2.28,11.28,18.71,18.71,0,0,1-1.56,3.36,37.53,37.53,0,0,1-4,6.66,9,9,0,0,1-5,3.42,24.84,24.84,0,0,1-6.84.36,1,1,0,0,0-.72.24,2.6,2.6,0,0,0-.48,1,72.73,72.73,0,0,1-.36,8l-.12,3.6a28.37,28.37,0,0,0-.06,3.12q.06,1.32.06,2.16v2.64q0,3-.12,4.56a61.82,61.82,0,0,0,.12,6.36q.24,2.16.24,3.12l.12.72q0,.84-1.56,1.68a6.53,6.53,0,0,1-3.12.84Q186.82,166,186.58,162.92Zm12.48-40.26a13.37,13.37,0,0,0,3.12-3.06,15.35,15.35,0,0,1,1.44-1.5,9.74,9.74,0,0,0,1.44-1.62,32.3,32.3,0,0,0,5.64-15.6q0-2.4-1.32-2.4-2.28,0-5.88,4a55.37,55.37,0,0,0-7.2,10.74,6.07,6.07,0,0,0-1,2.88,19,19,0,0,0-.24,3.48,23.87,23.87,0,0,1-.12,2.76v.72q0,1.08,1,1.08A6.22,6.22,0,0,0,199.06,122.66Z" style="fill:#7e9a3d"/><path d="M262.72,166.46a6.37,6.37,0,0,0-.9-.06,11,11,0,0,0-5.76-.84,19.39,19.39,0,0,1-2.52-.12h-1.32a6.4,6.4,0,0,1-1.44-.12,1.67,1.67,0,0,0-.72-.12,2.13,2.13,0,0,0-1,.24,21.15,21.15,0,0,1-4.8-.48,7.3,7.3,0,0,1-1.32-4,7.9,7.9,0,0,1,1.2-4.38,4.11,4.11,0,0,1,3.72-1.86l1.08.12a9.23,9.23,0,0,0,1.8.06q.84-.06,1.56-.06t1-1.08a10.34,10.34,0,0,1,.12-1.68q.12-.72.24-1.2a25.86,25.86,0,0,0,.12-2.76q0-1.68.12-2.88l.12-1q0-.48-1-1a19.15,19.15,0,0,0-2.1-.84q-1.08-.36-1.92-.72a13.24,13.24,0,0,1-6.72-7.8,27.65,27.65,0,0,1-1.92-10.44q.36-4.2.9-7.38a32.91,32.91,0,0,1,1.62-6.06,68.63,68.63,0,0,1,3.54-7.56,10.12,10.12,0,0,1,3.78-4.2,11,11,0,0,0,1.92-.9,13.69,13.69,0,0,0,2.16-1.38,7.17,7.17,0,0,0,2.76-.6,6.75,6.75,0,0,1,2-.24,5.79,5.79,0,0,1,5.52,3.12q1.68,3.12,2.16,10.44.24,5.52.24,8.76,0,14.52-3.84,22.44-1.32,3-3.72,3.36-1.56.24-1.44,1.56a9.94,9.94,0,0,1,.12,1.8,32.16,32.16,0,0,1-.24,3.24q-.24,2.4-.24,3.48a5.83,5.83,0,0,0,.18,1.92q.18.36,1.38.6a23.82,23.82,0,0,1,4.74,1.5,2.58,2.58,0,0,1,1.62,2.46,7.75,7.75,0,0,1-.18,1.74,5.73,5.73,0,0,0-.18,1.14l-.84,3.72A14,14,0,0,1,262.72,166.46ZM259.06,138a71.94,71.94,0,0,0,2.76-9.48q.48-3.24.66-7t.3-5q0-1.8.24-5.16.24-6.72-2.76-10.68-.72,0-.72.48a24.13,24.13,0,0,1-1.86,3.06l-1.74,2.46a23.72,23.72,0,0,0-2.94,6.72q-.9,3.48-1.86,10a19.88,19.88,0,0,0-.24,3.6q0,1.56.24,4.92a8,8,0,0,0,.66,2.64,20.5,20.5,0,0,0,1.2,2.28q.66,1.08,1,1.56a2.85,2.85,0,0,0,2.52,1.8Q258.22,140.12,259.06,138Z" style="fill:#7e9a3d"/><path d="M308.38,165.56h-4a12.43,12.43,0,0,1-1.86-.12,9.31,9.31,0,0,0-1.38-.12q-.36,0-2,.24a2.66,2.66,0,0,1-1.5-.36,2.38,2.38,0,0,0-1.74-.12l-.6-.48v-.36a4.67,4.67,0,0,0-.36-1.32,4.7,4.7,0,0,1-.36-1.56,4.21,4.21,0,0,1,.12-1.2q1.44-8,3.24-16.32,1.8-7.8,5.52-19.8c.48-1.84,1.15-4,2-6.36.64-1.68,1.27-3.56,1.92-5.64l.72-2.4q.24-.72.9-2.64a34.58,34.58,0,0,1,1.38-3.48,38,38,0,0,0,1.92-4.68q.46-1.56,2.88-1.56a3.8,3.8,0,0,1,1.92.48,12,12,0,0,1,1.62,1.14q.78.66,1.26,1a.88.88,0,0,1,.48.84,4.52,4.52,0,0,0,.24,2.46,8.74,8.74,0,0,1,.48,2.1c.07,1.2.28,3.2.6,6l.48,4.8a44.67,44.67,0,0,0,.48,5.28q1.08,7,2.28,21.12a76.39,76.39,0,0,0,1.08,7.8c.48,3.52.79,6.16,1,7.92a10.91,10.91,0,0,0,.42,2.52,11.47,11.47,0,0,1,.42,2.4,2.27,2.27,0,0,1-.78,1.92,4.85,4.85,0,0,1-2.82.6Zm3-3.36a14.73,14.73,0,0,1,1.92-.24,14.93,14.93,0,0,1,1.92.24q1.68.12,3.66.12h2.82a2.27,2.27,0,0,0,1.26-.42,1.42,1.42,0,0,0,.18-1.14c-.65-5.44-1.16-9.52-1.56-12.24l-1-7q-.25-2.4-.54-4.2t-.54-3q-1.2-7.32-1.44-10.68a7.23,7.23,0,0,0-.54-3.06,14.82,14.82,0,0,1-.66-1.5c-.41,1.12-.72,2.12-1,3q-2.16,6.12-4.32,13.8l-7.44,23.64v-.12a2.85,2.85,0,0,0-.36.78,1.26,1.26,0,0,0-.12.9l.72,1,2.16.24a22.8,22.8,0,0,0,2.28.12Q309.46,162.44,311.38,162.2Z" style="fill:#7e9a3d"/><path d="M359.38,165.56a8.43,8.43,0,0,0-1.32-1.68,7,7,0,0,1-1.14-2.52,18.51,18.51,0,0,1-.42-2.7q-.12-1.38-.12-1.86l-.24-4.92a50.59,50.59,0,0,0-.24-5.76v-1.44a16.93,16.93,0,0,0,.12-2.28,60.17,60.17,0,0,0-.48-6v-6.12a15.74,15.74,0,0,0,.12-2.16c0-3.6,0-5.84.12-6.72l.36-6.36c.31-6.56.72-11.44,1.2-14.64a2.72,2.72,0,0,0,.12-1V97.88l1-2.28,2.28-.48a6.41,6.41,0,0,1,2.28.72l.84,1.44.48,2.52a23.35,23.35,0,0,1,1.32,7.32,23.81,23.81,0,0,0,.36,4q.36,2.1.48,2.94a129.65,129.65,0,0,1,.84,15.24q0,3.6-.24,7.2l-.36,5q-1.2,15.24-2.16,22.32a4.5,4.5,0,0,1-1.5,1,22.31,22.31,0,0,1-3.18.84Z" style="fill:#7e9a3d"/><path d="M426.22,166A33.44,33.44,0,0,1,423,159.8q-1.52-3.72-5.22-14.64l-5.05-14.64a6.24,6.24,0,0,1-.29-.84,1.94,1.94,0,0,0-.66-1,7.65,7.65,0,0,0-2.05,2.16c-.23.32-.53.78-.89,1.38a5.3,5.3,0,0,1-1.14,1.38,1.26,1.26,0,0,0-.48,1.08v.84a15.3,15.3,0,0,0,.12,3.24,21.58,21.58,0,0,1,.24,2.52l.12,11.28a35.4,35.4,0,0,1-.72,8.76A3.71,3.71,0,0,1,405.1,164q-1.34.6-1.08,1.44a16.45,16.45,0,0,1-3.25.48,5.3,5.3,0,0,1-2.63-.6,1.44,1.44,0,0,0-.37-.84,9.08,9.08,0,0,1-1-3.78,46.29,46.29,0,0,1-.3-5.1v-1.92a12,12,0,0,0-.12-1.92,29.89,29.89,0,0,1-.24-3.36l.12-2.28q.22-2,.3-3.54t.06-2.46c0-2.08,0-3.6.12-4.56s.12-2.68.12-5.16q.82-15.84,1.32-21.48c.31-4,.6-7,.84-9,.07-1,0-1.52-.24-1.68l.24-1a14.46,14.46,0,0,1,2.28-.24,17.32,17.32,0,0,1,2.22.12c.6.08,1.09.16,1.5.24a6.23,6.23,0,0,1,.95,1.2l.13,1.44.71,2.88c.08.32.2,1.12.37,2.4a20.17,20.17,0,0,1,.12,3.6,12.43,12.43,0,0,0,.06,2.7c.11,1,.18,1.7.18,2.1.07,1.52.1,2.82.06,3.9s-.06,2-.06,2.7l.12,2.88c0,.24-.09,1.08-.24,2.52a65.13,65.13,0,0,0,6.05-8.1,88.87,88.87,0,0,0,5.34-9.06c1-2.08,2.21-4.32,3.49-6.72s2.11-3.6,2.51-3.6.66.36,1,1.08a4.25,4.25,0,0,1,.54,1.8,3,3,0,0,1-.36,1.32l-5.76,12.36L418.66,118q-.62,1.08-2.52,4.2-2.16,3.24-2.16,4.08a3,3,0,0,0,.36,1.32l1.32,3q.82,1.92,2,4.2a20.28,20.28,0,0,1,1.5,3.3q.65,1.86.9,2.46,3.6,10,6.12,17.88l1.08,2.76a18.59,18.59,0,0,0,.78,1.8,6.23,6.23,0,0,1,.66,2.4q0,1.44-2.16,1.08Z" style="fill:#7e9a3d"/><path d="M456.27,164.66c-1.16-.76-1.73-1.46-1.73-2.1a81.71,81.71,0,0,1,1-10.32q1.19-8.64,1.92-13a171.82,171.82,0,0,1,4.68-20.76l1-3.6a53.55,53.55,0,0,1,1.44-5.4c.15-.64.55-2,1.19-4.2s1.24-4,1.81-5.4a21.9,21.9,0,0,1,1.56-3.36l3.12-.24a4.44,4.44,0,0,1,3.66,2,11.12,11.12,0,0,1,2,4.32l4.68,34.8A129.42,129.42,0,0,1,483.69,152a52.89,52.89,0,0,0,1,8.64q.22,1.08.48,2.76a3.46,3.46,0,0,1,.12,1q0,1.32-1.08,1.32a2.65,2.65,0,0,1-2.58-1.86,11.09,11.09,0,0,1-.78-4.38,68.27,68.27,0,0,0-.84-9.6q-.14-1.32-.36-3.3t-.36-4.5q0-1.2-1.08-1.2l-4.68-.12q-.86,0-4,.24a2.07,2.07,0,0,0-1.74,1.14,12.13,12.13,0,0,0-.9,2.16c-.24.76-.41,1.3-.48,1.62a20.19,20.19,0,0,0-1.26,5.1q-.44,3.06-.54,4.14-.14.6-.6,3.12a31.05,31.05,0,0,1-1.09,4.26c-.4,1.16-.8,1.82-1.19,2l-2.28,1.2A5.15,5.15,0,0,1,456.27,164.66Zm22.15-26.16a1.89,1.89,0,0,0,.6-1.62l-2.52-20.4-1.08-8.64a14.62,14.62,0,0,0-.78,3.78c-.12,1.4-.23,2.34-.3,2.82a97.75,97.75,0,0,1-2.28,11.16q-2.06,8.4-2.52,9.6a5,5,0,0,0-.24,1.68c0,1.12.43,1.68,1.32,1.68a32.69,32.69,0,0,1,3.36.24l2.52.12A3.46,3.46,0,0,0,478.42,138.5Z" style="fill:#7e9a3d"/></g></g><g style="isolation:isolate"><g style="isolation:isolate"><path d="M288.33,263.29a10,10,0,0,1-3-5.47,18.34,18.34,0,0,1-6.32,6.59,17.38,17.38,0,0,1-8.9,2.13,15.34,15.34,0,0,1-8.54-2.31,14.86,14.86,0,0,1-5.43-6.23,19.52,19.52,0,0,1-1.87-8.54,19.72,19.72,0,0,1,2.85-10.86,22.24,22.24,0,0,1,6.72-6.94,66.1,66.1,0,0,1,9.12-4.81,8.44,8.44,0,0,1-5.61-3.69,12.77,12.77,0,0,1-2.4-7.79,12.39,12.39,0,0,1,1.91-6.81,13,13,0,0,1,5.16-4.63,15.43,15.43,0,0,1,7.08-1.64,18.4,18.4,0,0,1,6,1.06l-2.76,4.1a11.59,11.59,0,0,0-3.73-.63,8.5,8.5,0,0,0-6.28,2.45,8,8,0,0,0-2.45,5.83,4.7,4.7,0,0,0,.09,1.07,8.54,8.54,0,0,0,3.38,6,10.6,10.6,0,0,0,6.41,2.09,11.48,11.48,0,0,0,2.41-.27l2.4-.44v-12.2h5.07v11.13l6.5-1.43,1.07,4.72-7.57,1.69V253a12.57,12.57,0,0,0,1.43,6.09,7.45,7.45,0,0,0,4.45,3.61l-1.43,3.82A13.48,13.48,0,0,1,288.33,263.29Zm-21.85-27.72q-7.29,4.63-7.3,13.89a13,13,0,0,0,3,8.9q3,3.38,8.5,3.38a12.16,12.16,0,0,0,7.26-2.27,15.17,15.17,0,0,0,4.89-5.88,17.09,17.09,0,0,0,1.74-7.52V228.54A56.73,56.73,0,0,0,266.48,235.57Z" style="fill:#7e9a3d"/></g></g><g style="isolation:isolate"><g style="isolation:isolate"><path d="M13.61,63a9.64,9.64,0,0,0-5.9-2.42c-2.44-.21-4-.39-4.81-.54C1,59.83.05,59,0,57.55a4,4,0,0,1,.83-1.88A2.6,2.6,0,0,1,2,54.8c2-.58,4.8-.46,8.33.35s5.86,2,7,3.47c1.35,2.18,1.62,3.74.8,4.71Q16.51,65.43,13.61,63ZM6.78,106.05a2.5,2.5,0,0,1,.5-4Q20,92.94,27,88.73a2.94,2.94,0,0,1,3.77,1.66q.93,1.38-1.3,3.11-2.74,1.91-18.23,12.91C9.77,107.57,8.28,107.45,6.78,106.05ZM30,41.82a6.35,6.35,0,0,0-1.45-1.23L13,30.25l-2.1-1.59q-1.74-2.23-1-3.55c.72-1.3,2.06-1.69,4-1.16l4.85,3.54,12.68,7.88q3.84,3.84,4.13,4.85c.39,1.35.2,2.32-.54,2.9a2,2,0,0,1-2.43.14A5.84,5.84,0,0,1,30,41.82Z" style="fill:#7e9a3d"/></g></g><g style="isolation:isolate"><g style="isolation:isolate"><path d="M518.18,45.83a2,2,0,0,1-2.43-.14c-.74-.58-.92-1.55-.54-2.9.2-.67,1.58-2.29,4.14-4.84L532,30.08l4.86-3.54c2-.53,3.33-.15,4,1.16.49.88.15,2.05-1,3.54l-2.1,1.59L522.24,43.16a6.67,6.67,0,0,0-1.45,1.23A5.85,5.85,0,0,1,518.18,45.83ZM539.52,109q-15.46-11-18.23-12.91Q519.05,94.33,520,93a2.94,2.94,0,0,1,3.77-1.66q7,4.2,19.74,13.34c1.5,1.17,1.67,2.49.5,4Q541.75,110.72,539.52,109ZM532.7,65.9q-1.23-1.44.8-4.7c1.17-1.49,3.5-2.64,7-3.46s6.29-.94,8.32-.35a2.56,2.56,0,0,1,1.12.86,4,4,0,0,1,.83,1.89c0,1.45-1,2.27-2.9,2.46-.77.14-2.37.32-4.81.53a9.58,9.58,0,0,0-5.9,2.42Q534.29,68,532.7,65.9Z" style="fill:#7e9a3d"/></g></g></svg>