<svg xmlns="http://www.w3.org/2000/svg" viewBox="0 0 244.9 201.15"><g style="isolation:isolate"><g style="isolation:isolate"><path d="M97.34,113.09h15v2.38H99.87v29.12H97.34Z" style="fill:#7e9a3d"/><path d="M122.72,115.38l-3-.09v-2.2h5.53v31.5h-2.52Z" style="fill:#7e9a3d"/><path d="M147.65,133.56H137.39l-3.51,11h-2.65l10.08-31.5h2.38L154,144.59h-2.7Zm-9.54-2.47H147L142.48,117Z" style="fill:#7e9a3d"/></g></g><g style="isolation:isolate"><g style="isolation:isolate"><path d="M51.18,90.45a2.86,2.86,0,0,1-1.35-.85,2.22,2.22,0,0,1-.45-1.45,17.19,17.19,0,0,0,0-2.1c0-.6,0-1.1,0-1.5a20.47,20.47,0,0,1-.1-2.4l.1-2.9c0-.6-.1-1-.3-1.15a3.64,3.64,0,0,0-1.5-.45,12.77,12.77,0,0,1-5-2,9.16,9.16,0,0,1-3-3.35A19.26,19.26,0,0,1,38,67.55a25.35,25.35,0,0,1-.5-4.6,33.08,33.08,0,0,1,1-7.9,36,36,0,0,1,2.8-7.7,7,7,0,0,1,3.3-3.4,4.24,4.24,0,0,1,2-.6,3.23,3.23,0,0,1,2.6,1.4,3.25,3.25,0,0,0,1,1c.43.26.75.46,1,.6a1.58,1.58,0,0,0,.5-1.3,31.8,31.8,0,0,1,.4-4.2c.13-.74.26-1.7.4-2.9a2.87,2.87,0,0,1,1-2,3,3,0,0,1,2.1-.8,5.19,5.19,0,0,1,1.2.2l.8.9.5,4.9c.13,1.33.2,2.1.2,2.3a5.22,5.22,0,0,1-.1,1.1V45c0,.73.46.93,1.4.6a5,5,0,0,1,1.1-.2,3.43,3.43,0,0,1,3.1,1.9l1.5,3.5c.06.4.23,1.25.5,2.55a18.28,18.28,0,0,1,.4,3.55v2.3a25.67,25.67,0,0,1-.3,4.6l-.3,3.4-.2,1.6-1.6,5.9a20.64,20.64,0,0,1-2,3.9l-3,.9a3.3,3.3,0,0,1-.9-.2c-.47-.2-.7-.07-.7.4v6.6a23.67,23.67,0,0,1-.2,2.8q-.1,1.29-1.5,1.2h-.4a4.26,4.26,0,0,0-1.5.3,6.65,6.65,0,0,1-1,.2A3.49,3.49,0,0,1,51.18,90.45Zm-1.5-19c0-.67,0-1.8.1-3.4s.16-3,.3-4.2l.9-11.3.1-.9a3.34,3.34,0,0,0-.3-1.5,15.84,15.84,0,0,0-1.05-1.7c-.5-.74-.85-1.27-1-1.6-.27-.6-.64-.7-1.1-.3a3.13,3.13,0,0,0-1.6,2.6c0,.86-.07,2.23-.2,4.1a40.17,40.17,0,0,0-.2,5.6,26.07,26.07,0,0,0,1.1,8.2,13.67,13.67,0,0,1,.6,2,18.87,18.87,0,0,0,.8,2.65c.26.53.53.8.8.8S49.54,72.18,49.68,71.45ZM61,75.6a13,13,0,0,0,1.3-4,38.91,38.91,0,0,0,.8-4.9,21.19,21.19,0,0,1,.15-2.5c.1-.94.15-1.6.15-2,.13-1.47.2-2.44.2-2.9a6.37,6.37,0,0,0-.1-1.3,16.5,16.5,0,0,0,.1-2,25.52,25.52,0,0,0-.65-5.65c-.44-1.9-1-2.89-1.85-2.95a1.38,1.38,0,0,0-1.15.6,1.74,1.74,0,0,0-.45.9,9.7,9.7,0,0,0-1.3,4.9l-.2,4.8q-.51,10-.5,11.6l.1,5.1A2.86,2.86,0,0,0,58,76.9a1.29,1.29,0,0,0,1,.65C59.68,77.55,60.31,76.9,61,75.6Z" style="fill:#7e9a3d"/><path d="M72.07,88.45c0-1.14-.06-2.9-.19-5.3,0-.74-.06-2.05-.16-4s-.11-3.59,0-5a11.15,11.15,0,0,0,0-1.9c0-.6,0-1.14,0-1.6v-2.2q0-2.1.21-4.8c.13-1.8.23-3.07.29-3.8.27-2.74.44-4.9.5-6.5q.21-3.21,1-9.1L74,42q.3-2.21,1.1-6.4a2.22,2.22,0,0,1,1.5-2.1,3,3,0,0,1,.9-.2,2.91,2.91,0,0,1,2.35,1.15,3.25,3.25,0,0,1,.75,2.65c-.06.93-.23,2.26-.5,4,.2-.27,1-1.29,2.4-3a17.58,17.58,0,0,1,4.45-4.1,9.12,9.12,0,0,1,4.85-1.45,3.34,3.34,0,0,1,3.3,1.8,9.71,9.71,0,0,1,.81,4.2A32.69,32.69,0,0,1,94,47.85a15.57,15.57,0,0,1-1.3,2.8,30.69,30.69,0,0,1-3.35,5.55,7.52,7.52,0,0,1-4.15,2.85,20.94,20.94,0,0,1-5.7.3.77.77,0,0,0-.59.2,2.12,2.12,0,0,0-.41.8,58.35,58.35,0,0,1-.3,6.7l-.1,3c-.06,1-.08,1.86,0,2.6s0,1.33,0,1.8v2.2c0,1.66,0,2.93-.1,3.8-.06,1.13,0,2.9.1,5.3a24.55,24.55,0,0,1,.2,2.6l.11.6c0,.46-.44.93-1.31,1.4a5.49,5.49,0,0,1-2.6.7C73,91.05,72.21,90.18,72.07,88.45ZM82.47,54.9a11.27,11.27,0,0,0,2.6-2.55,12.84,12.84,0,0,1,1.2-1.25,7.55,7.55,0,0,0,1.2-1.35,26.84,26.84,0,0,0,4.7-13c0-1.34-.36-2-1.1-2-1.26,0-2.9,1.11-4.9,3.35a45.84,45.84,0,0,0-6,8.95,5,5,0,0,0-.79,2.4,15,15,0,0,0-.21,2.9,19.23,19.23,0,0,1-.1,2.3v.6q0,.9.81.9A5.22,5.22,0,0,0,82.47,54.9Z" style="fill:#7e9a3d"/><path d="M104.87,90.75h-.2l-1.8.1a3.88,3.88,0,0,1-2.6-.95A4,4,0,0,1,99,87.25c-.06-1.07-.06-2.75,0-5s.2-4.29.4-6q.21-2.1.6-4.2.11-.9.3-2.25a30.58,30.58,0,0,0,.3-3l.2-2.8a17.86,17.86,0,0,1,.5-5.8,5.26,5.26,0,0,0,.1-1.95,10.2,10.2,0,0,1,0-2q.51-4.3,1.3-14.2a27.83,27.83,0,0,0,.4-3.9l-.1-1.8a1.55,1.55,0,0,1-.1-.6,1.18,1.18,0,0,1,.3-1,1.56,1.56,0,0,1,1-.25,19.92,19.92,0,0,1,2.8.3h.9l4.8-.1a19.12,19.12,0,0,1,2.3.1,9.86,9.86,0,0,0,1.6.1,15.75,15.75,0,0,0,3.1-.3,3.69,3.69,0,0,1,2.1.7c.94.53,1.47,1,1.6,1.4.07.06.1.23.1.5,0,.46-.26.73-.8.8l-1.6.1-9.2-.8-1.4-.1q-.69,0-.6.9a6.91,6.91,0,0,0,.1,1.2,87.12,87.12,0,0,1,.4,9.9,14.66,14.66,0,0,0,.9,4.4v3.1c0,1.53,0,2.7.1,3.5l.1,3.7a16.67,16.67,0,0,1-.1,2.2c0,.6.34.9,1,.9a34.62,34.62,0,0,1,3.9.1c.6,0,.9.26.9.8s-.26.76-.8.9l-4.3.1a1.12,1.12,0,0,0-1.1.9,63.62,63.62,0,0,0-1,8.2l-.6,6c-.06.4-.15.93-.25,1.6a11.64,11.64,0,0,0-.15,1.7,3.79,3.79,0,0,0,.2,1.6c.14.2.5.3,1.1.3h5.3c.67,0,1.27,0,1.8,0a4.61,4.61,0,0,0,1.2,0,5,5,0,0,1,2.9.9,2.35,2.35,0,0,1,.55.5.58.58,0,0,1,0,.7,2.08,2.08,0,0,1-1.35,1.1,8.2,8.2,0,0,1-1.85.2h-1.4l-2.1-.2-2.4-.2a10.8,10.8,0,0,0-2.4.4,13.82,13.82,0,0,1-3,.5A8.7,8.7,0,0,1,104.87,90.75Z" style="fill:#7e9a3d"/><path d="M128,89.75c-.6-.34-.83-.74-.7-1.2a4.63,4.63,0,0,1-.8-2.6,7.56,7.56,0,0,1,.6-2.8c.4-1,.67-1.64.8-1.9a100.52,100.52,0,0,1,7.3-14.3c.67-1.07,1.22-2,1.65-2.8s.79-1.47,1.05-2c.74-1.47,1.6-3,2.6-4.7a8.29,8.29,0,0,0,1.7-2.7q0-1.11-2-4.2t-4.25-5.9q-1.2-1.6-2-2.7a9.15,9.15,0,0,1-1.15-2.4l-1.5-5.6v-.3a2.78,2.78,0,0,1,.2-1.25.58.58,0,0,1,.7-.25,33.08,33.08,0,0,0,4.2.2q2.31,0,6.9-.2a11.46,11.46,0,0,1,1.8-.1h5.4q1.71,0,4,3a3.45,3.45,0,0,1,.8,2.4,3.87,3.87,0,0,1-.65,2.25c-.43.63-.85.95-1.25.95a1.73,1.73,0,0,1-.8-.3,10.36,10.36,0,0,0-5-1.2,30.91,30.91,0,0,1-3.35-.1c-1.66-.27-3.4-.47-5.2-.6l-2.8-.3a6,6,0,0,0-1.2.1,11.2,11.2,0,0,0,2.1,3.8,65.72,65.72,0,0,1,6.8,9.7,9.84,9.84,0,0,0,1.45,2c.64.7,1.12,1.21,1.45,1.55a2.76,2.76,0,0,1,.7,1.9,7.37,7.37,0,0,1-.6,2.15,10.44,10.44,0,0,1-.9,2,21,21,0,0,1-1.8,3.9l-1.1,2.2A20.82,20.82,0,0,0,142,70a50.24,50.24,0,0,1-3.2,6,24.94,24.94,0,0,0-1.4,3c-.66,1.56-1.13,2.68-1.4,3.35q-.19.39,0,.6a.63.63,0,0,0,.6.1,7.45,7.45,0,0,1,1.9-.3l2,.1a7.48,7.48,0,0,0,1.1-.1c.4-.07.84-.14,1.3-.2a29.3,29.3,0,0,1,5.3-.7,2.47,2.47,0,0,1,2.05.7,3.13,3.13,0,0,1,.55,2l-.1,2.3a7.47,7.47,0,0,1-.25,2.25,1.1,1.1,0,0,1-.85.85,47.15,47.15,0,0,1-5,.2h-5.1c-1.8,0-4.43.06-7.9.2a2.87,2.87,0,0,1-1.5.5A3.56,3.56,0,0,1,128,89.75Z" style="fill:#7e9a3d"/><path d="M183.37,91.05a29.81,29.81,0,0,1-2.65-5.2q-1.25-3.1-4.35-12.2l-4.2-12.2a6.76,6.76,0,0,1-.25-.7,1.47,1.47,0,0,0-.55-.8,6.32,6.32,0,0,0-1.7,1.8,13,13,0,0,0-.75,1.15,4.19,4.19,0,0,1-.95,1.15,1.07,1.07,0,0,0-.4.9v.7a14.13,14.13,0,0,0,.1,2.7,15.07,15.07,0,0,1,.2,2.1l.1,9.4a29.56,29.56,0,0,1-.6,7.3,3,3,0,0,1-1.6,2.2q-1.1.5-.9,1.2a14.26,14.26,0,0,1-2.7.4,4.53,4.53,0,0,1-2.2-.5,1.22,1.22,0,0,0-.3-.7,7.6,7.6,0,0,1-.85-3.15,40.34,40.34,0,0,1-.25-4.25v-1.6a8.67,8.67,0,0,0-.1-1.6c-.13-1.2-.2-2.14-.2-2.8l.1-1.9c.14-1.14.22-2.12.25-3s0-1.52,0-2c0-1.74,0-3,.1-3.8s.1-2.24.1-4.3q.7-13.2,1.1-17.9.41-5,.7-7.5c.07-.8,0-1.27-.2-1.4l.2-.8a11.53,11.53,0,0,1,1.9-.2,13.7,13.7,0,0,1,1.85.1c.5.06.92.13,1.25.2a4.74,4.74,0,0,1,.8,1l.1,1.2.6,2.4c.07.26.17.93.3,2a14.61,14.61,0,0,1,.1,3,10.81,10.81,0,0,0,.05,2.25,17,17,0,0,1,.15,1.75c.07,1.26.09,2.35,0,3.25s0,1.65,0,2.25l.1,2.4c0,.2-.06.9-.2,2.1a53.88,53.88,0,0,0,5.05-6.75,76.35,76.35,0,0,0,4.45-7.55c.87-1.74,1.84-3.6,2.9-5.6s1.77-3,2.1-3,.55.3.85.9a3.54,3.54,0,0,1,.45,1.5,2.5,2.5,0,0,1-.3,1.1l-4.8,10.3-1.3,2.7c-.33.6-1,1.76-2.1,3.5s-1.8,2.93-1.8,3.4a2.5,2.5,0,0,0,.3,1.1l1.1,2.5c.47,1.06,1,2.23,1.7,3.5a15.26,15.26,0,0,1,1.25,2.75c.37,1,.62,1.71.75,2q3,8.3,5.1,14.9l.9,2.3c.07.2.29.7.65,1.5a5,5,0,0,1,.55,2q0,1.2-1.8.9Z" style="fill:#7e9a3d"/><path d="M194.67,90.35a6.25,6.25,0,0,1-4.5-4.7,29.28,29.28,0,0,1-1.4-8,15.07,15.07,0,0,0-.2-2.1l-.3-2.1q-.3-3.21-.3-6.3c0-1.8.19-4.74.55-8.8s.72-7.34,1-9.8a39.6,39.6,0,0,1,2.35-9q1.65-4.16,3.65-5.45l2.2-1.9a6.6,6.6,0,0,1,4.7-1.9,10.56,10.56,0,0,1,3.7.75,4.07,4.07,0,0,1,2.6,2.35,6.25,6.25,0,0,0,.9,1.7l1,2.5.6,3.1c0,1,.07,2.56.2,4.7q.1,2-.1,6.2l-.1,2.1a78.84,78.84,0,0,1-.9,8.45q-.69,4.44-.8,5.25l-1.3,9.1a18.83,18.83,0,0,1-2.2,7.8c-.13.2-.4.61-.8,1.25a6,6,0,0,0-.8,1.85,2.11,2.11,0,0,1-1.4,1.5,13.33,13.33,0,0,0-2.3,1.1,5.32,5.32,0,0,1-2.35.55l-2,0A5.18,5.18,0,0,1,194.67,90.35Zm7.4-4.1a19.26,19.26,0,0,0,3-7.8q.3-2,1.1-6l.4-2.3.3-2.1q1.41-8.61,1.7-12.9l.3-3.4a52.61,52.61,0,0,0,.4-5.4q0-1.2-.3-4.2a6.66,6.66,0,0,0,.1-1.3,10.25,10.25,0,0,0-.45-2.85c-.3-1-.61-2-1-3a2.93,2.93,0,0,0-1.1-1.35,2.88,2.88,0,0,0-1.6-.45q-2.59,0-4.3,4.2c-.53,1.2-.86,1.93-1,2.2a17.19,17.19,0,0,0-1.2,2.9,45.52,45.52,0,0,0-1.1,4.8,15.83,15.83,0,0,1-.4,2.3,73.35,73.35,0,0,0-1.3,9.5c0,.13-.1,1-.3,2.6,0,.33-.05,1-.15,1.85a11.84,11.84,0,0,0-.05,2.35,11.83,11.83,0,0,1-.1,2.6,19.66,19.66,0,0,0-.1,2.3,31,31,0,0,1,.2,3.1,33,33,0,0,0,.7,6l-.1,1a13.83,13.83,0,0,0,1.2,4.8,2.79,2.79,0,0,0,1.1,1.6,6.16,6.16,0,0,0,1.9.6C200.77,88,201.47,87.38,202.07,86.25Z" style="fill:#7e9a3d"/></g></g><g style="isolation:isolate"><g style="isolation:isolate"><path d="M39.08,169.52l-3.28,9.63H34.7l-3.25-9.63v9.63h-1v-12.6h1l3.79,11,3.84-11h1v12.6h-1Z" style="fill:#7e9a3d"/><path d="M43.67,166.55h6v.94h-5v4.23h3.43l-.34,1H44.68v5.54h5v.9h-6Z" style="fill:#7e9a3d"/><path d="M52.58,166.55h6v1h-5v11.64h-1Z" style="fill:#7e9a3d"/><path d="M66.87,174.74h-4.1l-1.41,4.41H60.3l4-12.6h1l4.1,12.6H68.31Zm-3.82-1H66.6l-1.8-5.63Z" style="fill:#7e9a3d"/><path d="M75.11,168.12l-3.43,11H70.61l4-12.6h.95l4.1,12.6H78.62Z" style="fill:#7e9a3d"/><path d="M88.44,178a2.9,2.9,0,0,0,.32-1.54v-2.56a3.25,3.25,0,0,1-1.3.66,5.74,5.74,0,0,1-1.55.22,4.48,4.48,0,0,1-3-.94,3.48,3.48,0,0,1-1.11-2.8v-4.45h1v4.63a2.28,2.28,0,0,0,.86,1.92,4.15,4.15,0,0,0,4.11.2,2,2,0,0,0,1-1.35v-5.4h1v9.79a3.73,3.73,0,0,1-.49,2.07,2,2,0,0,1-1.4.87l-.23-.67A1.67,1.67,0,0,0,88.44,178Z" style="fill:#7e9a3d"/><path d="M96.08,167.45H93v-.9h7.24v.9H97.09v11.7h-1Z" style="fill:#7e9a3d"/><path d="M103.16,166.55h6v.94h-5v4.23h3.43l-.34,1h-3.09v5.54h5v.9h-6Z" style="fill:#7e9a3d"/><path d="M112.07,166.55h4.43a3.06,3.06,0,0,1,2.54,1,4.33,4.33,0,0,1,.84,2.8,10.64,10.64,0,0,1-.18,2,3,3,0,0,1-.9,1.6,3,3,0,0,1-2.18.69h-3.54v4.41h-1Zm6.07,6.66a2.32,2.32,0,0,0,.61-1.22,9,9,0,0,0,.12-1.53,3.42,3.42,0,0,0-.61-2.22,2.08,2.08,0,0,0-1.69-.73h-3.49v6.24h3.56A1.94,1.94,0,0,0,118.14,173.21Z" style="fill:#7e9a3d"/><path d="M129.54,172.71h-5.72v6.44h-1v-12.6h1v5.17h5.72v-5.17h1v12.6h-1Z" style="fill:#7e9a3d"/><path d="M144.61,173.86l-3.33,5.29H140l4-6.33-3.64-6.27h1.13l3.1,5.29,3.13-5.29h1.14l-3.66,6.27,3.95,6.33h-1.25Z" style="fill:#7e9a3d"/><path d="M152.06,166.55h4.43a3.07,3.07,0,0,1,2.55,1,4.33,4.33,0,0,1,.84,2.8,11.5,11.5,0,0,1-.18,2,2.83,2.83,0,0,1-3.08,2.29h-3.55v4.41h-1Zm6.08,6.66a2.4,2.4,0,0,0,.61-1.22,9,9,0,0,0,.12-1.53,3.42,3.42,0,0,0-.62-2.22,2.06,2.06,0,0,0-1.69-.73h-3.49v6.24h3.56A2,2,0,0,0,158.14,173.21Z" style="fill:#7e9a3d"/><path d="M168.94,178.5a4.23,4.23,0,0,1-2.66.85,4.85,4.85,0,0,1-1.83-.35,3.16,3.16,0,0,1-1.42-1.14,3.56,3.56,0,0,1-.54-2V170a3.65,3.65,0,0,1,1-2.81,3.92,3.92,0,0,1,2.8-1,3.67,3.67,0,0,1,2.76,1,3.78,3.78,0,0,1,1,2.77v5.78A3.17,3.17,0,0,1,168.94,178.5Zm-.65-10.62a3,3,0,0,0-2-.66,2.93,2.93,0,0,0-2,.66,2.53,2.53,0,0,0-.76,2v5.94a2.37,2.37,0,0,0,.79,1.94,3,3,0,0,0,2,.66,3.1,3.1,0,0,0,2-.64,2.41,2.41,0,0,0,.78-2v-5.93A2.5,2.5,0,0,0,168.29,167.88Z" style="fill:#7e9a3d"/><path d="M174.49,168.41v10.74h-1v-12.6h1l6.84,10.75V166.55h1v12.6h-1Z" style="fill:#7e9a3d"/><path d="M187.16,167.47l-1.2,0v-.88h2.21v12.6h-1Z" style="fill:#7e9a3d"/><path d="M193.62,172.94l-.86,1.37v4.84h-1V166.53h1v6l4-6H198L194.27,172l4.63,7.16h-1.21Z" style="fill:#7e9a3d"/><path d="M208.56,172.71h-5.72v6.44h-1v-12.6h1v5.17h5.72v-5.17h1v12.6h-1Z" style="fill:#7e9a3d"/></g><g style="isolation:isolate"><path d="M88.49,188.55h1l4.11,12.6H84.46Zm-2.7,11.7h6.39L89,190.12Z" style="fill:#7e9a3d"/><path d="M97.2,189.47l-1.21,0v-.88h2.22v12.6h-1Z" style="fill:#7e9a3d"/><path d="M107.17,196.74h-4.1l-1.41,4.41H100.6l4-12.6h1l4.1,12.6h-1.08Zm-3.81-1h3.54l-1.8-5.63Z" style="fill:#7e9a3d"/><path d="M112.1,188.55h4.43a3.07,3.07,0,0,1,2.55,1,4.33,4.33,0,0,1,.84,2.8,10.64,10.64,0,0,1-.18,2,3,3,0,0,1-.9,1.6,3,3,0,0,1-2.18.69h-3.55v4.41h-1Zm6.08,6.66a2.4,2.4,0,0,0,.61-1.22,9,9,0,0,0,.12-1.53,3.48,3.48,0,0,0-.61-2.22,2.1,2.1,0,0,0-1.7-.73h-3.49v6.24h3.57A1.94,1.94,0,0,0,118.18,195.21Z" style="fill:#7e9a3d"/><path d="M124.69,194.94l-.87,1.37v4.84h-1V188.53h1v6l4-6H129L125.33,194l4.63,7.16h-1.21Z" style="fill:#7e9a3d"/><path d="M132.86,188.55h6v.94h-5v4.23h3.43l-.34,1h-3.09v5.54h5v.9h-6Z" style="fill:#7e9a3d"/><path d="M143,189.47l-1.21,0v-.88H144v12.6h-1Z" style="fill:#7e9a3d"/><path d="M153,196.74h-4.1l-1.41,4.41h-1.06l4-12.6h1l4.1,12.6h-1.08Zm-3.81-1h3.54l-1.8-5.63Z" style="fill:#7e9a3d"/></g></g><g style="isolation:isolate"><g style="isolation:isolate"><path d="M95.29,14.85a.73.73,0,0,1-.25-.46v-.12q0-.5-.06-1.41c0-1,0-1.69,0-2.17s0-.81,0-1c.07-1.52.12-2.83.14-3.93A1.33,1.33,0,0,0,95,5.06a.47.47,0,0,0-.46-.21,1.9,1.9,0,0,0-.52.06,2.73,2.73,0,0,1-.66.06,1.71,1.71,0,0,0-.93.2l-.29.06-.34,0a.29.29,0,0,0-.26.14,2.17,2.17,0,0,0-.18.93,1.58,1.58,0,0,0,0,.37,17.66,17.66,0,0,1,.18,2.72,4.86,4.86,0,0,1,0,.75,7.1,7.1,0,0,0,0,.72,3.54,3.54,0,0,0,0,.55,2.15,2.15,0,0,1,0,.41c0,1.08-.09,1.88-.15,2.42a1.37,1.37,0,0,1-.1.45.35.35,0,0,1-.3.19,1.68,1.68,0,0,1-.38,0,1.59,1.59,0,0,1-1.15-.49,2.1,2.1,0,0,1-.44-.9,14.06,14.06,0,0,1-.17-1.67,6,6,0,0,0,0-.7q-.06-1-.06-1.53A34.25,34.25,0,0,1,89,5.78l.06-.26a1.75,1.75,0,0,0,0-.35,1.17,1.17,0,0,0-.26-.69.57.57,0,0,1-.09-.2c0-.16.11-.25.32-.29l2.43-.23q.48,0,1.5,0H94.9a.76.76,0,0,1,.53.16,1.35,1.35,0,0,1,.36.53,4.3,4.3,0,0,1,.32,1.82,5.22,5.22,0,0,1,0,.72c0,.31,0,.78,0,1.42v3.35l0,1.15q0,.53.06,1.62v.06a.58.58,0,0,1-.11.35.38.38,0,0,1-.29.14A.61.61,0,0,1,95.29,14.85Z" style="fill:#7e9a3d"/><path d="M99.06,14.66a1.88,1.88,0,0,1-1-1.08,6.33,6.33,0,0,1-.49-2.52,9.53,9.53,0,0,1,.2-1.79,5.88,5.88,0,0,1,.72-1.87c.31-.64.55-1.12.74-1.45a5.38,5.38,0,0,1,.68-1c.44-.52.83-.78,1.18-.78a.89.89,0,0,1,.35.08,6.61,6.61,0,0,0,.73.19,1.77,1.77,0,0,1,.77.34c.15.11.27.09.35-.06a.49.49,0,0,1,.23-.22.56.56,0,0,1,.29-.1.48.48,0,0,1,.3.11.5.5,0,0,1,.16.29c0,.08,0,.18.06.29s0,.26,0,.44a2,2,0,0,1-.07.44,2.11,2.11,0,0,0-.07.48,2.25,2.25,0,0,0,.09.61,3.63,3.63,0,0,1,.08,1.24c-.09,1-.16,2.14-.2,3.41,0,.15,0,.36-.07.62a5.53,5.53,0,0,0,0,.62,2.92,2.92,0,0,0,0,.49,1.52,1.52,0,0,0,.42-.46,3.54,3.54,0,0,0,.33-.72c.12-.27.22-.48.29-.61s.14-.31.29-.64a4.6,4.6,0,0,0,.35-1,1,1,0,0,1,.17-.27.3.3,0,0,1,.18-.05c.11.08.17.15.17.21a2,2,0,0,1-.06.45q-.06.24-.09.33a14.81,14.81,0,0,1-.72,2.13,7.75,7.75,0,0,1-.46.73l-.35.55a.64.64,0,0,1-.55.26,4.17,4.17,0,0,1-1-.35,1.16,1.16,0,0,1-.51-.69c0-.06,0-.12-.07-.19l-.1-.22a3,3,0,0,0-.52.71,3.05,3.05,0,0,1-.38.56,4.3,4.3,0,0,1-.62.57,1.15,1.15,0,0,1-.65.18A3,3,0,0,1,99.06,14.66Zm1.53-.55a2.14,2.14,0,0,0,.46-.53,7.88,7.88,0,0,0,1.21-2.78,22.58,22.58,0,0,0,.24-2.65c0-.87.08-1.51.14-1.94a1.7,1.7,0,0,0-.25-.75c-.12-.19-.24-.28-.36-.26a.27.27,0,0,0-.24.16,1.65,1.65,0,0,0-.13.22l-.46,1.06A23.36,23.36,0,0,0,100,9.79a13.07,13.07,0,0,0-.35,2c0,.07,0,.18,0,.33a2.77,2.77,0,0,0,0,.39,2.49,2.49,0,0,0,.06.49,1.33,1.33,0,0,1,0,.43v.12a1,1,0,0,0,.15.56c.1.17.19.25.29.25A.89.89,0,0,0,100.59,14.11Z" style="fill:#7e9a3d"/><path d="M108.42,23.66a.93.93,0,0,1-.29-.66c-.12-1-.21-2.29-.29-3.73l0-1c0-.93-.06-1.62-.06-2.08s0-1,0-1.3l0-1c.06-1.56.14-2.9.26-4a12.32,12.32,0,0,1,.75-3.14,3.7,3.7,0,0,1,1.71-2.05,2.6,2.6,0,0,1,1.12-.32,1.54,1.54,0,0,1,.72.18l.9.54a1.58,1.58,0,0,1,.55,1.3l.09.58a6.64,6.64,0,0,1,.11,1,15.34,15.34,0,0,1-1.13,5.57,3.34,3.34,0,0,1-.8,1.07,1.51,1.51,0,0,1-1,.46,1.87,1.87,0,0,1-.71-.17,2.13,2.13,0,0,0-.59-.2,11,11,0,0,0-.14,1.44V17a12.65,12.65,0,0,0,.08,1.42c0,.44.06,1.39.06,2.83a7,7,0,0,0,.09,1.13,3.28,3.28,0,0,1,.06.52,1.91,1.91,0,0,1-.09.55,1.17,1.17,0,0,1-.33.6.33.33,0,0,1-.48.06C108.68,23.84,108.46,23.68,108.42,23.66Zm3.43-9.91a11.33,11.33,0,0,0,.58-1.36c.23-.75.42-1.41.57-2a8.58,8.58,0,0,0,.24-1.73l0-1a2.59,2.59,0,0,0-.69-2.14.76.76,0,0,0-.52-.2q-.65,0-1.14,1.2a11.94,11.94,0,0,0-.77,2.8,17.39,17.39,0,0,0-.26,2.58,2.85,2.85,0,0,0,1,2.31.63.63,0,0,0,.32.15C111.43,14.33,111.66,14.14,111.85,13.75Z" style="fill:#7e9a3d"/><path d="M117,14.66a1.88,1.88,0,0,1-1-1.08,6.33,6.33,0,0,1-.49-2.52,9.53,9.53,0,0,1,.2-1.79,5.88,5.88,0,0,1,.72-1.87c.31-.64.55-1.12.74-1.45a5.38,5.38,0,0,1,.68-1c.44-.52.83-.78,1.18-.78a.89.89,0,0,1,.35.08,7.28,7.28,0,0,0,.73.19,1.77,1.77,0,0,1,.77.34c.15.11.27.09.35-.06a.49.49,0,0,1,.23-.22.56.56,0,0,1,.29-.1.48.48,0,0,1,.3.11.5.5,0,0,1,.16.29c0,.08,0,.18.06.29a2.82,2.82,0,0,1,0,.44,2,2,0,0,1-.07.44,2.11,2.11,0,0,0-.07.48,2.25,2.25,0,0,0,.09.61,3.63,3.63,0,0,1,.08,1.24c-.09,1-.16,2.14-.2,3.41,0,.15,0,.36-.07.62a5.53,5.53,0,0,0,0,.62,4.66,4.66,0,0,0,0,.49,1.52,1.52,0,0,0,.42-.46,3.54,3.54,0,0,0,.33-.72c.12-.27.22-.48.29-.61s.14-.31.29-.64a4.6,4.6,0,0,0,.35-1,1,1,0,0,1,.17-.27.3.3,0,0,1,.18-.05c.11.08.17.15.17.21a2,2,0,0,1-.06.45c0,.16-.07.27-.08.33a16.46,16.46,0,0,1-.73,2.13,7.75,7.75,0,0,1-.46.73l-.35.55a.64.64,0,0,1-.54.26,4.09,4.09,0,0,1-1-.35,1.16,1.16,0,0,1-.51-.69c0-.06,0-.12-.07-.19l-.1-.22a3,3,0,0,0-.52.71,2.61,2.61,0,0,1-.38.56,4.3,4.3,0,0,1-.62.57,1.15,1.15,0,0,1-.65.18A3,3,0,0,1,117,14.66Zm1.53-.55a2.14,2.14,0,0,0,.46-.53,7.7,7.7,0,0,0,1.21-2.78,22.58,22.58,0,0,0,.24-2.65c0-.87.08-1.51.14-1.94a1.7,1.7,0,0,0-.25-.75c-.12-.19-.24-.28-.36-.26a.29.29,0,0,0-.24.16,1.65,1.65,0,0,0-.13.22l-.46,1.06a23.36,23.36,0,0,0-1.19,3.15,12,12,0,0,0-.34,2,2.54,2.54,0,0,0-.06.33,2.77,2.77,0,0,0,0,.39,2.49,2.49,0,0,0,.06.49,1.83,1.83,0,0,1,0,.43v.12a1,1,0,0,0,.14.56c.1.17.19.25.29.25A.89.89,0,0,0,118.5,14.11Z" style="fill:#7e9a3d"/><path d="M126.5,22.53l-.43-.37a.84.84,0,0,1-.32-.67c-.08-.61-.16-1.56-.25-2.83s-.12-2.18-.12-2.74c0-.39,0-1,.05-1.74l.18-4.91a16.59,16.59,0,0,1,.17-3.38,11.53,11.53,0,0,0,.2-1.18c0-.1,0-.34.1-.74a5,5,0,0,1,.25-1.08.52.52,0,0,1,.23-.26.61.61,0,0,1,.35-.15,1.16,1.16,0,0,1,.52.14.8.8,0,0,1,.37.33l.09.16a.39.39,0,0,1,.06.21l-.06.38a22.48,22.48,0,0,0-.23,3.87c0,.9,0,1.58,0,2,0,.95.13,1.79.21,2.53a3.53,3.53,0,0,0,.45,1.55,1.06,1.06,0,0,0,.87.57c.46,0,.88-.35,1.27-1.07a5.38,5.38,0,0,0,.63-2.31V8.35a2,2,0,0,1,.12-.68.42.42,0,0,1,.4-.33.66.66,0,0,1,.35.14,1.81,1.81,0,0,1,.52.51,1.35,1.35,0,0,1,.2.65c0,.44.06,1,.12,1.63s.11,1.11.17,1.4a2.6,2.6,0,0,0,.23.55c.08.17.15.36.22.55a1.53,1.53,0,0,1,.1.52.67.67,0,0,1-.35.61.37.37,0,0,1-.2.08c-.23,0-.53-.28-.89-.84a2.57,2.57,0,0,1-.26-.41c-.08-.15-.17-.3-.26-.45a.9.9,0,0,0-.25.45c-.05.18-.09.33-.13.44a3.58,3.58,0,0,1-1,1.41A2,2,0,0,1,129,15a5.89,5.89,0,0,1-1.65-.37v1.76a11.78,11.78,0,0,0,.06,1.39,11.38,11.38,0,0,1,0,1.35,5.7,5.7,0,0,1,0,.67,5.25,5.25,0,0,0,.09,1.13,3,3,0,0,1,0,.49,1.89,1.89,0,0,1-.13.81,1.71,1.71,0,0,1-.54.54C126.86,22.8,126.71,22.73,126.5,22.53Z" style="fill:#7e9a3d"/><path d="M136.57,14.43a2.58,2.58,0,0,1-1.2-1,2.4,2.4,0,0,1-.37-1.33A5,5,0,0,1,135.89,9c0-.05.09-.13.16-.24a.53.53,0,0,0,.1-.28,5.66,5.66,0,0,0-.33-.7,2.57,2.57,0,0,1-.33-1.09A2.46,2.46,0,0,1,136.12,5a2.84,2.84,0,0,1,1.45-.94,4.3,4.3,0,0,1,.78-.11,2.56,2.56,0,0,1,1.15.27.84.84,0,0,1,.55.77,1,1,0,0,1-.17.52l-.15.08a1.8,1.8,0,0,1-.21-.34,1.55,1.55,0,0,0-.19-.31.33.33,0,0,0-.23-.1,1.73,1.73,0,0,0-1.17.7,1.94,1.94,0,0,0-.65,1.3.68.68,0,0,0,.11.4,1.37,1.37,0,0,0,.72.29,3,3,0,0,1,.71.24.51.51,0,0,1,.22.48c0,.29-.1.46-.29.52a2.13,2.13,0,0,0-1,.74,5.45,5.45,0,0,0-.64,1.28,5.09,5.09,0,0,0-.29,1.51c0,.11,0,.26,0,.43a2.68,2.68,0,0,0,.09.46l.15.32a1,1,0,0,0,.28.4.76.76,0,0,0,.41.18,2.92,2.92,0,0,0,.49,0,1.19,1.19,0,0,0,1-.51,3.09,3.09,0,0,0,.64-1.42.86.86,0,0,1,0-.28c0-.08.07-.13.13-.13a.19.19,0,0,1,.17.15,1.11,1.11,0,0,1,.09.46,1.94,1.94,0,0,1-.33,1,4.69,4.69,0,0,1-.82,1,1.53,1.53,0,0,1-1.07.37A3.66,3.66,0,0,1,136.57,14.43Zm1.78-12.06a1.39,1.39,0,0,1,.17-.64l.06-.2s.11-.23.29-.58a1.7,1.7,0,0,1,.6-.72,1.84,1.84,0,0,1,.7-.23.75.75,0,0,1,.4.14.14.14,0,0,1,.09.15,1.55,1.55,0,0,1-.21.61,4.92,4.92,0,0,1-.2.46,3.08,3.08,0,0,1-.33.59,3.89,3.89,0,0,1-.48.56l-.11.09a1.62,1.62,0,0,1-.39.16l-.22,0C138.47,2.8,138.35,2.66,138.35,2.37Z" style="fill:#7e9a3d"/><path d="M144.47,14.73a2.58,2.58,0,0,1-1.08-1,3.23,3.23,0,0,1-.57-1.44,9.21,9.21,0,0,0-.2-1.16l-.12-.72c-.05-.35-.09-.65-.11-.92,0-.52-.11-1.09-.2-1.69s-.16-1-.18-1.2c-.11-.62-.19-1.08-.23-1.39a1.17,1.17,0,0,1,0-.29c0-.17.11-.29.32-.34a2.25,2.25,0,0,1,.61-.09,1.16,1.16,0,0,1,1.1.78A20.57,20.57,0,0,1,145,10.57c.06.56.11,1,.16,1.36s.14.54.27.58.17-.14.26-.43a18.45,18.45,0,0,0,.84-3.56l.17-1a9.12,9.12,0,0,0,.26-2l0-1.22c0-.25.09-.4.26-.46s.39.32.47.72,0,.8,0,1,0,.27,0,.35c0,.25,0,.59-.06,1l-.15,1.33a11.69,11.69,0,0,1-.31,1.36c-.14.54-.35,1.22-.64,2.05l-.26.93c-.1.34-.19.65-.29.92a5.7,5.7,0,0,1-.5,1,.75.75,0,0,1-.63.36A1.08,1.08,0,0,1,144.47,14.73Z" style="fill:#7e9a3d"/><path d="M150.69,14.43a2.6,2.6,0,0,1-1.19-1,2.41,2.41,0,0,1-.38-1.33A5,5,0,0,1,150,9c0-.05.09-.13.15-.24a.56.56,0,0,0,.11-.28,5.06,5.06,0,0,0-.34-.7,2.57,2.57,0,0,1-.33-1.09A2.42,2.42,0,0,1,150.25,5a2.81,2.81,0,0,1,1.44-.94,4.54,4.54,0,0,1,.78-.11,2.6,2.6,0,0,1,1.16.27.85.85,0,0,1,.55.77.93.93,0,0,1-.18.52l-.14.08a1.82,1.82,0,0,1-.22-.34,1.55,1.55,0,0,0-.19-.31.29.29,0,0,0-.23-.1,1.77,1.77,0,0,0-1.17.7,2,2,0,0,0-.65,1.3.62.62,0,0,0,.12.4,1.29,1.29,0,0,0,.72.29,3.17,3.17,0,0,1,.71.24.53.53,0,0,1,.22.48c0,.29-.1.46-.29.52a2,2,0,0,0-1,.74,5.32,5.32,0,0,0-.94,2.79,3.88,3.88,0,0,0,0,.43,2.68,2.68,0,0,0,.09.46s.06.15.14.32a1,1,0,0,0,.29.4.76.76,0,0,0,.41.18,2.92,2.92,0,0,0,.49,0,1.19,1.19,0,0,0,1-.51,3.16,3.16,0,0,0,.63-1.42.87.87,0,0,1,.05-.28c0-.08.07-.13.13-.13a.2.2,0,0,1,.17.15,1.11,1.11,0,0,1,.09.46,1.87,1.87,0,0,1-.34,1,4.4,4.4,0,0,1-.82,1,1.52,1.52,0,0,1-1.07.37A3.7,3.7,0,0,1,150.69,14.43Z" style="fill:#7e9a3d"/><path d="M156.91,14.55a2,2,0,0,1-.54-1.15c0-.11,0-.25-.06-.4s0-.33-.08-.52a4.82,4.82,0,0,1-.06-.9c0-.3,0-.58,0-.82s0-.45.06-.62l.08-.81c.06-.54.19-1.35.38-2.43L157,5.58l.09-.84c0-.35.11-.52.34-.52a.8.8,0,0,1,.29.08,1.19,1.19,0,0,1,.65.81,5.43,5.43,0,0,1,.16,1.45c0,.29,0,.7-.06,1.24l0,.61c-.11,1.56-.26,3.11-.43,4.65a1.59,1.59,0,0,1,0,.36,1.6,1.6,0,0,0,0,.39,1,1,0,0,0,0,.27.2.2,0,0,0,.17.13.15.15,0,0,0,.16-.1.42.42,0,0,1,.08-.13l.28-.46a.3.3,0,0,1,.41-.06.27.27,0,0,1,.14.35c-.27.83-.68,1.24-1.24,1.24A1.74,1.74,0,0,1,156.91,14.55Z" style="fill:#7e9a3d"/></g></g><g style="isolation:isolate"><g style="isolation:isolate"><path d="M8.73,56.67A6.2,6.2,0,0,0,5,55.12c-1.57-.13-2.6-.25-3.09-.34C.65,54.66,0,54.13,0,53.2A2.59,2.59,0,0,1,.53,52a1.8,1.8,0,0,1,.72-.56,11.18,11.18,0,0,1,5.34.23q3.39.8,4.51,2.22c.86,1.4,1,2.4.51,3C10.93,57.8,10,57.72,8.73,56.67ZM4.35,84.3a1.6,1.6,0,0,1,.32-2.55q8.16-5.85,12.67-8.56a1.88,1.88,0,0,1,2.41,1.07c.4.59.13,1.25-.83,2q-1.77,1.22-11.69,8.28A2,2,0,0,1,4.35,84.3ZM19.26,43.11a3.83,3.83,0,0,0-.93-.79l-10-6.63L7,34.67c-.74-1-1-1.72-.65-2.28.46-.83,1.33-1.08,2.6-.74l3.11,2.27,8.13,5a13.21,13.21,0,0,1,2.65,3.11c.25.87.13,1.49-.34,1.86a1.32,1.32,0,0,1-1.56.09A3.78,3.78,0,0,1,19.26,43.11Z" style="fill:#7e9a3d"/></g></g><g style="isolation:isolate"><g style="isolation:isolate"><path d="M224,58.54a1.32,1.32,0,0,1-1.56-.09c-.47-.37-.59-1-.34-1.86a13.21,13.21,0,0,1,2.65-3.11l8.13-5L236,46.16c1.27-.34,2.14-.09,2.6.75.31.56.09,1.32-.65,2.27l-1.35,1-10,6.63a3.75,3.75,0,0,0-.93.78A3.78,3.78,0,0,1,224,58.54ZM237.66,99Q227.75,92,226,90.76c-1-.74-1.24-1.41-.84-2a1.89,1.89,0,0,1,2.42-1.06q4.5,2.7,12.66,8.56a1.6,1.6,0,0,1,.32,2.55A2,2,0,0,1,237.66,99Zm-4.37-27.63c-.53-.62-.35-1.62.51-3q1.13-1.42,4.51-2.22a11,11,0,0,1,5.34-.22,1.66,1.66,0,0,1,.72.56,2.55,2.55,0,0,1,.53,1.2c0,.93-.65,1.46-1.86,1.58-.49.09-1.52.21-3.09.34a6.2,6.2,0,0,0-3.78,1.55C234.93,72.23,234,72.31,233.29,71.41Z" style="fill:#7e9a3d"/></g></g></svg>