<svg xmlns="http://www.w3.org/2000/svg" viewBox="0 0 292.65 65.24"><g style="isolation:isolate"><g style="isolation:isolate"><path d="M0,37.51H13V41H3.55V48.7H9.44L8.19,52.14H3.55V64.81H0Z" style="fill:#fff"/><path d="M35.8,56.47a4.18,4.18,0,0,1-.9.07h-6v8.27H25.31V37.51h9.36a6.65,6.65,0,0,1,5.66,2.54,10.4,10.4,0,0,1,1.91,6.43,27.22,27.22,0,0,1-.18,3.32,10,10,0,0,1-.86,2.94,6.48,6.48,0,0,1-2.12,2.56l3.2,9.51H38.65ZM37.11,52a4.93,4.93,0,0,0,1.19-2.42,19.21,19.21,0,0,0,.23-3.14c0-2-.42-3.44-1.27-4.23a5.19,5.19,0,0,0-3.68-1.19H28.86v12h5.26A3.82,3.82,0,0,0,37.11,52Z" style="fill:#fff"/><path d="M55.11,37.51h13V41H58.66V48.7h6.08l-1,3.44h-5v9.47h9.39v3.2H55.11Z" style="fill:#fff"/><path d="M84.86,60.52a5.55,5.55,0,0,0,3.75,1.25,6.2,6.2,0,0,0,4-1.17,3.68,3.68,0,0,0,1.45-3,4.63,4.63,0,0,0-.88-2.87A6.56,6.56,0,0,0,91,52.9a37.48,37.48,0,0,0-3.55-1.58,34.1,34.1,0,0,1-3.88-1.74,7.49,7.49,0,0,1-2.48-2.18,5.79,5.79,0,0,1-1-3.53,6,6,0,0,1,1-3.26,7.06,7.06,0,0,1,3-2.51,11.05,11.05,0,0,1,4.88-1,15.35,15.35,0,0,1,3.16.27,12,12,0,0,1,2.53.9l-1.13,3.36A11.82,11.82,0,0,0,89,40.71a6.64,6.64,0,0,0-3.73.88A2.7,2.7,0,0,0,83.93,44a2.39,2.39,0,0,0,.7,1.71,6.21,6.21,0,0,0,1.74,1.27c.68.35,1.67.8,2.94,1.35a37.13,37.13,0,0,1,4.43,2.08,9.77,9.77,0,0,1,3,2.69A7,7,0,0,1,98,57.28,7.66,7.66,0,0,1,95.67,63q-2.31,2.22-7,2.22a10.6,10.6,0,0,1-4.94-1.07,8.06,8.06,0,0,1-3.12-2.77,7.13,7.13,0,0,1-1.15-3.53l3.79-.43A4.59,4.59,0,0,0,84.86,60.52Z" style="fill:#fff"/><path d="M124,52.14h-9.71V64.81h-3.55V37.51h3.55V48.7H124V37.51h3.51v27.3H124Z" style="fill:#fff"/><path d="M173.35,52.14h-9.71V64.81h-3.55V37.51h3.55V48.7h9.71V37.51h3.51v27.3h-3.51Z" style="fill:#fff"/><path d="M190.83,37.51h13V41h-9.48V48.7h6.09l-1.05,3.44h-5v9.47h9.4v3.2H190.83Z" style="fill:#fff"/><path d="M227.25,56.47a4.18,4.18,0,0,1-.9.07h-6v8.27h-3.55V37.51h9.36a6.65,6.65,0,0,1,5.66,2.54,10.4,10.4,0,0,1,1.91,6.43,27.22,27.22,0,0,1-.18,3.32,10,10,0,0,1-.86,2.94,6.48,6.48,0,0,1-2.12,2.56l3.2,9.51H230.1ZM228.56,52a4.93,4.93,0,0,0,1.19-2.42,19.21,19.21,0,0,0,.23-3.14c0-2-.42-3.44-1.27-4.23A5.19,5.19,0,0,0,225,41.06h-4.72v12h5.26A3.82,3.82,0,0,0,228.56,52Z" style="fill:#fff"/><path d="M246.56,37.51h8.19A7.76,7.76,0,0,1,260,39.27,6.3,6.3,0,0,1,262,44.34a8.41,8.41,0,0,1-.51,2.94,5.18,5.18,0,0,1-2.06,2.44l0,.08v0a6.73,6.73,0,0,1,2.86,2.51,7.84,7.84,0,0,1,1.15,4.43,9.71,9.71,0,0,1-.78,3.88,6.61,6.61,0,0,1-2.61,3,8.79,8.79,0,0,1-4.8,1.17h-8.69Zm10.31,10.26a3.73,3.73,0,0,0,1.11-3,3.44,3.44,0,0,0-1.09-2.93,5.18,5.18,0,0,0-3.16-.82H250.1V48.7h3.44A5.09,5.09,0,0,0,256.87,47.77ZM258,60.54c.92-.66,1.39-2,1.39-3.88A4,4,0,0,0,258,53.19a5.75,5.75,0,0,0-3.55-1H250.1v9.39H254A6.89,6.89,0,0,0,258,60.54Z" style="fill:#fff"/><path d="M279.55,60.52a5.52,5.52,0,0,0,3.74,1.25,6.21,6.21,0,0,0,4-1.17,3.69,3.69,0,0,0,1.44-3,4.62,4.62,0,0,0-.87-2.87,6.49,6.49,0,0,0-2.17-1.83,36.34,36.34,0,0,0-3.55-1.58,35.8,35.8,0,0,1-3.88-1.74,7.46,7.46,0,0,1-2.47-2.18,5.79,5.79,0,0,1-1-3.53,6,6,0,0,1,1-3.26,7.06,7.06,0,0,1,3-2.51,11,11,0,0,1,4.88-1,15.42,15.42,0,0,1,3.16.27,12.21,12.21,0,0,1,2.53.9l-1.13,3.36a11.85,11.85,0,0,0-4.52-.94,6.61,6.61,0,0,0-3.73.88A2.71,2.71,0,0,0,278.61,44a2.4,2.4,0,0,0,.71,1.71,6,6,0,0,0,1.73,1.27c.69.35,1.67.8,2.95,1.35a36.18,36.18,0,0,1,4.42,2.08,9.8,9.8,0,0,1,3,2.69,7,7,0,0,1,1.24,4.23,7.62,7.62,0,0,1-2.3,5.74q-2.3,2.22-7,2.22a10.56,10.56,0,0,1-4.93-1.07,7.92,7.92,0,0,1-3.12-2.77,7,7,0,0,1-1.15-3.53l3.78-.43A4.6,4.6,0,0,0,279.55,60.52Z" style="fill:#fff"/></g></g><g style="isolation:isolate"><g style="isolation:isolate"><path d="M88.93,6h2.82A3.4,3.4,0,0,1,94.33,7a3.4,3.4,0,0,1,.9,2.47v4.11q0,3-3.18,3H88.93ZM94,7.85A2.21,2.21,0,0,0,93.08,7a2.85,2.85,0,0,0-1.18-.26H89.77v9h2a3.6,3.6,0,0,0,1.84-.43,1.76,1.76,0,0,0,.74-1.67V9.27A2.6,2.6,0,0,0,94,7.85Z" style="fill:#fff"/><path d="M101.39,6.8l-1,0V6h1.84v10.5h-.84Z" style="fill:#fff"/><path d="M108.15,14.84a2.34,2.34,0,0,0,.93.75,3,3,0,0,0,1.36.3,3.39,3.39,0,0,0,1.92-.52,1.83,1.83,0,0,0,.78-1.64,1.68,1.68,0,0,0-.38-1.11,2.72,2.72,0,0,0-.93-.7,15.9,15.9,0,0,0-1.51-.61,13.71,13.71,0,0,1-1.66-.67,3,3,0,0,1-1-.83,2,2,0,0,1-.43-1.35,2.29,2.29,0,0,1,.38-1.25,2.57,2.57,0,0,1,1.13-1,4.18,4.18,0,0,1,1.87-.37,5.74,5.74,0,0,1,1.21.11,4.4,4.4,0,0,1,1,.34l-.26.8a4.12,4.12,0,0,0-1.9-.44,3.19,3.19,0,0,0-1.85.48,1.54,1.54,0,0,0-.69,1.34,1.25,1.25,0,0,0,.35.9,2.57,2.57,0,0,0,.84.6q.51.22,1.41.54a18.46,18.46,0,0,1,1.77.69,3.18,3.18,0,0,1,1.14.92,2.28,2.28,0,0,1,.48,1.49,2.91,2.91,0,0,1-.88,2.21,3.81,3.81,0,0,1-2.71.84,4,4,0,0,1-1.9-.42,3.11,3.11,0,0,1-1.2-1.06,2.8,2.8,0,0,1-.44-1.36h.86A1.9,1.9,0,0,0,108.15,14.84Z" style="fill:#fff"/><path d="M121.69,16.68a3.16,3.16,0,0,1-2.12-.69,2.73,2.73,0,0,1-.81-2.2V9a3.7,3.7,0,0,1,.32-1.72,2.76,2.76,0,0,1,1-1,3.24,3.24,0,0,1,1.62-.38,4.47,4.47,0,0,1,2.11.5l-.24.57a4.7,4.7,0,0,0-1.62-.32,3,3,0,0,0-1.63.45,1.94,1.94,0,0,0-.71,1.76v4.92a2.19,2.19,0,0,0,.54,1.59,2.13,2.13,0,0,0,1.62.57,7.21,7.21,0,0,0,2.24-.44l.18.71A7.18,7.18,0,0,1,121.69,16.68Z" style="fill:#fff"/><path d="M133.63,16a3.47,3.47,0,0,1-2.21.72,3.94,3.94,0,0,1-1.53-.3,2.59,2.59,0,0,1-1.18-.95,2.93,2.93,0,0,1-.45-1.69V8.93a3.07,3.07,0,0,1,.84-2.34,3.3,3.3,0,0,1,2.34-.8,3.07,3.07,0,0,1,2.3.84,3.19,3.19,0,0,1,.82,2.31v4.82A2.61,2.61,0,0,1,133.63,16Zm-.54-8.84a2.84,2.84,0,0,0-3.36,0,2.08,2.08,0,0,0-.63,1.65v5a2,2,0,0,0,.65,1.61,2.46,2.46,0,0,0,1.66.55,2.59,2.59,0,0,0,1.67-.53,2,2,0,0,0,.65-1.64V8.79A2.06,2.06,0,0,0,133.09,7.14Z" style="fill:#fff"/><path d="M139.39,6h.9L143,15.5,145.66,6h.9l-3,10.5H142.4Z" style="fill:#fff"/><path d="M151.22,6h5v.78h-4.17v3.53h2.87l-.29.82h-2.58v4.62h4.14v.75h-5Z" style="fill:#fff"/><path d="M165.59,12.81a3.64,3.64,0,0,1-.6,0h-3v3.67h-.84V6h3.69A2.56,2.56,0,0,1,167,6.9a3.66,3.66,0,0,1,.7,2.34,7.54,7.54,0,0,1-.25,2,2.13,2.13,0,0,1-1.07,1.32l1.33,4h-.85Zm.67-1.23a2.06,2.06,0,0,0,.51-1,8.08,8.08,0,0,0,.1-1.27,2.85,2.85,0,0,0-.51-1.85A1.73,1.73,0,0,0,165,6.83H162V12h3A1.62,1.62,0,0,0,166.26,11.58Z" style="fill:#fff"/></g></g><path d="M220.45,22.81a3,3,0,0,1-.15-1.19c0-3.82,0-7.65,0-11.47,0-.5,0-1-.1-1.54.05,0,.1,0,.15,0v-.1s-.05.1-.1.2a5.9,5.9,0,0,0-1,2.19,21.08,21.08,0,0,1-2.23,4.76,7.36,7.36,0,0,1-1.79,1.94,2.22,2.22,0,0,1-3.12-.37L212,17a8.59,8.59,0,0,1-1.68-3.68l-.45-1.93c-.75,1.69-1.44,3.37-2.24,5.06a5.19,5.19,0,0,1-1,1.34c-1.29,1.15-2.68,1-3.47-.6a12.76,12.76,0,0,1-1-3.08,21.51,21.51,0,0,1-.25-5.61c0-1.09.15-2.18.25-3.27a2.35,2.35,0,0,0-.1-.6c-.15,0-.25,0-.35,0-1.24,1-2.43,2-3.67,2.88a1.71,1.71,0,0,0-.84,1.73,11.1,11.1,0,0,1-2.09,7.5,7.63,7.63,0,0,1-2.83,2.64A3.93,3.93,0,0,1,186.86,18l0,0a11.52,11.52,0,0,1-1.59-6.11,1.7,1.7,0,0,0-1-1.69c-1.84-.94-1.89-3.13-1.35-4.52a5.35,5.35,0,0,1,2.24-2.53A8.59,8.59,0,0,1,192,1.7a6.53,6.53,0,0,1,3.82,2.78,6.67,6.67,0,0,1,.65,1.24c.25.45.5.45.89.15,1.1-.84,2.19-1.74,3.33-2.58A6.13,6.13,0,0,1,202,2.44a1.12,1.12,0,0,1,1.53.36,1,1,0,0,1,.16.44,9.54,9.54,0,0,1,.25,2.13c-.1,2.39-.3,4.77-.25,7.15A6.22,6.22,0,0,0,205,16.69a3.73,3.73,0,0,0,1.59-1.93,32.38,32.38,0,0,0,2.14-6.36c.34-1.39.64-2.83.94-4.27a3.1,3.1,0,0,1,.15-.6c.2-.7.65-1,1.09-.84a1.2,1.2,0,0,1,.75,1.24c0,1.29-.2,2.58-.2,3.87a17.18,17.18,0,0,0,.89,6.16,7.56,7.56,0,0,0,.75,1.54c.44.79.89.89,1.63.3a2.55,2.55,0,0,0,.7-.8,20.68,20.68,0,0,0,2.69-6c.74-2.53,1.34-5.16,2.18-7.64a3.89,3.89,0,0,1,.25-.75.8.8,0,0,1,.89-.64,1,1,0,0,1,.95.89,5.73,5.73,0,0,1,.05,1.24c-.15,2.19-.2,4.37-.25,6.56a3.93,3.93,0,0,0,0,.84,34.32,34.32,0,0,1,2.88-5.21A10.16,10.16,0,0,1,228.3,1.2a5.06,5.06,0,0,1,4.46-.5c1.84.74,2.93,3.62,2.39,5.46A11.13,11.13,0,0,1,231,12a13.76,13.76,0,0,1-5.12,2.58c-.15.05-.25.2-.4.3A9.12,9.12,0,0,0,234.8,17a6.34,6.34,0,0,0,1.19-.73c.4-.2.84-.3,1.14.15a.9.9,0,0,1-.15,1.14,3.71,3.71,0,0,1-1.79,1.19,10.91,10.91,0,0,1-9.28-1.29c-1-.65-2-1.39-3-2.14a4.82,4.82,0,0,0-.35,1.34c0,1.89.05,3.78.1,5.62,0,.64-.15,1.09-.65,1.24A1.24,1.24,0,0,1,220.45,22.81ZM185.69,8.11c.45-1.24.79-2.53,1.24-3.92A3.75,3.75,0,0,0,184.65,6a1.73,1.73,0,0,0,0,2.28,1,1,0,0,0,.65.35c.1,0,.3-.3.35-.5Zm9.78,1c-.74.35-1.29.6-1.89.85A14.56,14.56,0,0,1,188,11.09c-.89,0-.89.05-.94,1a8.77,8.77,0,0,0,1.09,4.62A2.4,2.4,0,0,0,191.25,18a2.36,2.36,0,0,0,.79-.52,9.75,9.75,0,0,0,3.43-8.34Zm-6.6.15a12.3,12.3,0,0,0,5.86-1.83c.35-.2.45-.35.3-.75a5.12,5.12,0,0,0-3.58-3.38,1.59,1.59,0,0,0-1.19.1c-.64.75-1.54,1.2-1.88,2.24-.25.84-.65,1.74-.95,2.63s-.1,1,.8,1Zm35.75,3.88a12.47,12.47,0,0,0,7.3-4.47,5.52,5.52,0,0,0,1.59-3.63,2.64,2.64,0,0,0-4.22-2.48,8.43,8.43,0,0,0-1.34,1,17.15,17.15,0,0,0-4.62,8.64c-.2.8,0,1.09.8,1a2.84,2.84,0,0,0,.49-.1Z" style="fill:#fff"/><g style="isolation:isolate"><g style="isolation:isolate"><path d="M124.06,27.85c-.09-.08-.15-.12-.21-.12a.7.7,0,0,1-.41-.08c0-.06.08-.17.25-.33H124s.65-.08,1.8-.25l2.79-.24,2-.17a5.94,5.94,0,0,1,1.06-.08,4.65,4.65,0,0,0,1.07-.08,10.43,10.43,0,0,1,1.35-.08,8.63,8.63,0,0,0,1.27-.08.34.34,0,0,0,.33-.17c.11.17.22.22.33.17a3.43,3.43,0,0,1,1.1-.17h.78c1.64-.11,2.93-.16,3.86-.16s2.18.08,3.93.08a.59.59,0,0,0,.21,0q.12,0,.12-.12h1.4c0,.11.1.13.32.08h2.71c1.2,0,2.08,0,2.62.08a2.25,2.25,0,0,0,.41,0,1.48,1.48,0,0,1,.58,0,2.66,2.66,0,0,0,.82.16,4.58,4.58,0,0,1,1-.08h.9l.5,0a1.18,1.18,0,0,0,.57,0,.39.39,0,0,1,.29.13.23.23,0,0,0,.28,0c.06-.06.15-.07.29,0l.29,0h1.47a1.24,1.24,0,0,1,.33,0,.76.76,0,0,0,.41,0,.57.57,0,0,1,.25.08q.17.07.24,0a.43.43,0,0,1,.21.08.25.25,0,0,0,.29,0h1.72a.51.51,0,0,1,.28.08c.09.06.18,0,.29-.08s.12,0,.21.12.15.1.2,0h.66a1.13,1.13,0,0,1,.24.05.26.26,0,0,0,.25-.05.63.63,0,0,1,.25.09.27.27,0,0,0,.32-.09c.06.11.19.17.41.17h1.23a2.88,2.88,0,0,1,.41.08.84.84,0,0,1,.5.33v.33H169a7.1,7.1,0,0,0-2.87-.25l-.24-.08-.09-.08-.16.16a.6.6,0,0,1-.29-.16c-.13-.11-.23-.09-.28.08a.4.4,0,0,0-.29-.08h-1.35a.32.32,0,0,1-.25-.09.37.37,0,0,0-.25-.08s-.13.06-.24.17a.57.57,0,0,0-.41-.17h-1.81a3.14,3.14,0,0,1-1.14-.16.42.42,0,0,0-.66.16.39.39,0,0,0-.41-.2,2,2,0,0,1-.33,0h-1.39a.48.48,0,0,1-.33-.17l-.16.17c-.5-.22-.85-.22-1.07,0a.24.24,0,0,0-.25,0,.24.24,0,0,1-.24,0,2,2,0,0,0-.66-.09h-2.54c-.16,0-.28,0-.33-.08a2.62,2.62,0,0,1-.74.17,3.43,3.43,0,0,1-.9-.13,1.81,1.81,0,0,0-.82,0c-.11-.11-.3-.08-.57.08a.17.17,0,0,0-.25-.08q-.16.09-.24,0a1,1,0,0,0-.41-.08h-2.14a.47.47,0,0,0-.32.16.36.36,0,0,0-.33-.12,1,1,0,0,1-.25,0,.84.84,0,0,1-.29-.08c-.13-.05-.23-.05-.28,0H143a.34.34,0,0,0-.33.16l-.16-.16a.51.51,0,0,1-.46.12c-.19,0-.31,0-.36,0-.06-.16-.16-.2-.29-.12s-.24.07-.29,0a.54.54,0,0,1-.41.16h-4.55a.39.39,0,0,0-.29.09.37.37,0,0,1-.28,0,.63.63,0,0,0-.21,0,1.12,1.12,0,0,1-.57.08h-1.31l-.17.16-.16-.16a1.36,1.36,0,0,1-.74.16,7.21,7.21,0,0,0-1.64,0c-.71.08-1.23.13-1.56.13a2.66,2.66,0,0,1-.74.08,3.13,3.13,0,0,0-.82.08,3.07,3.07,0,0,1-.9.08,3.13,3.13,0,0,0-.82.08,6.74,6.74,0,0,1-1.31.09l-.25.32A.2.2,0,0,1,124.06,27.85Z" style="fill:#fff"/></g></g></svg>