<svg xmlns="http://www.w3.org/2000/svg" viewBox="0 0 322.05 270.4"><g style="isolation:isolate"><g style="isolation:isolate"><path d="M63.68,151.85H67V190.2H85v3H63.68Z" style="fill:#7e9a3d"/><path d="M112.86,191a13.82,13.82,0,0,1-8.71,2.81,15.91,15.91,0,0,1-6-1.15,10.19,10.19,0,0,1-4.63-3.75,11.45,11.45,0,0,1-1.8-6.67v-19c0-4.06,1.11-7.12,3.33-9.21s5.28-3.13,9.17-3.13,6.92,1.11,9.06,3.31,3.22,5.23,3.22,9.08v18.94Q116.49,188.2,112.86,191Zm-2.13-34.78A9.76,9.76,0,0,0,104.1,154a9.65,9.65,0,0,0-6.61,2.18Q95,158.4,95,162.7v19.47a7.83,7.83,0,0,0,2.57,6.35,9.81,9.81,0,0,0,6.52,2.15,10.08,10.08,0,0,0,6.57-2.09c1.72-1.4,2.57-3.55,2.57-6.46V162.7Q113.24,158.4,110.73,156.21Z" style="fill:#7e9a3d"/><path d="M131.24,157.93v35.22h-3.31v-41.3h3.31l22.42,35.22V151.85H157v41.3h-3.3Z" style="fill:#7e9a3d"/><path d="M189.47,190.73q-3.08,3-8.56,3a15.06,15.06,0,0,1-6.13-1.24,10.33,10.33,0,0,1-4.57-3.89,11.77,11.77,0,0,1-1.75-6.61V163.47a14.32,14.32,0,0,1,1.33-6.64,10.55,10.55,0,0,1,3.81-4,12.74,12.74,0,0,1,6.37-1.47,17.75,17.75,0,0,1,8.32,1.94l-.95,2.25a18.32,18.32,0,0,0-6.37-1.24,11.73,11.73,0,0,0-6.4,1.77q-2.81,1.77-2.8,6.9v19.18a7.78,7.78,0,0,0,2.56,6.19,9.55,9.55,0,0,0,6.52,2.24,8.77,8.77,0,0,0,6.38-2.3,8.11,8.11,0,0,0,2.36-6.08v-3.48h-3.9l-1.12-3.24h8.14v17.7h-2.42Z" style="fill:#7e9a3d"/><path d="M203.86,151.85h19.71v3.07h-16.4v13.86h11.27L217.32,172H207.17V190.2h16.28v3H203.86Z" style="fill:#7e9a3d"/><path d="M251.54,178.52a15.48,15.48,0,0,1-2.36.17H237.55v14.46h-3.3v-41.3h14.51q5.61,0,8.35,3.42t2.74,9.2a28.72,28.72,0,0,1-1,7.85,8.31,8.31,0,0,1-4.22,5.19l5.25,15.64h-3.36Zm2.62-4.84a7.85,7.85,0,0,0,2-4,30.62,30.62,0,0,0,.38-5q0-4.83-2-7.26A6.79,6.79,0,0,0,249,155H237.55v20.47h11.68A6.36,6.36,0,0,0,254.16,173.68Z" style="fill:#7e9a3d"/></g></g><g style="isolation:isolate"><g style="isolation:isolate"><path d="M75.79,123.21l-.8-.27c-1.06-.44-1.67-1.5-1.85-3.17a51.32,51.32,0,0,1,.27-7.27l.13-3.71c0-1.67,0-3,.13-3.83q0-5.16.26-7.8l.27-3.57q.26-2.52.53-7.8.12-4.37.92-12.43c.09-1.24.22-2.73.4-4.5s.31-3.83.4-6.21c0-.44,0-1.9.13-4.37a34,34,0,0,1,.92-6.87,8,8,0,0,0,.4-3,8.48,8.48,0,0,1,2.12-2,3.91,3.91,0,0,1,2-.52l2.91.13a16.8,16.8,0,0,1,2.51.13h3a6.54,6.54,0,0,1,1.72.26l1.32.4c2.65,0,4.56,0,5.75.13a7,7,0,0,1,3.11.93,1.46,1.46,0,0,1,.53.92c0,.27-.33.49-1,.67a2.82,2.82,0,0,1-1.39.13l-13.22-.93q-1.73,0-2,.33a3.43,3.43,0,0,0-.14,1.92q-.39,5.29-.39,7.93a74.55,74.55,0,0,0,.39,7.54L85,71.51A13.82,13.82,0,0,0,84.91,74q0,.93.06,2.25a16.63,16.63,0,0,1-.06,2.64l.4,5.42a17,17,0,0,1,.26,2.51c0,1-.09,2.34-.26,4.1,0,.71.06,1.13.19,1.26a2.83,2.83,0,0,0,1.26.33,15.86,15.86,0,0,0,2.45.07c.74,0,1.43-.07,2.05-.07a16.16,16.16,0,0,1,3.43.26l1.06.27.66.93c0,.35-.33.66-1,.92a5,5,0,0,1-1.78.4,7.74,7.74,0,0,1-1.86.13,31.69,31.69,0,0,1-4.49-.27,3.26,3.26,0,0,0-1.85.34c-.27.22-.4.77-.4,1.65-.18,3.7-.26,6.52-.26,8.46s-.09,4.76-.27,8.46a36.78,36.78,0,0,0-.13,3.7,3.75,3.75,0,0,1-.73,2.32,4.87,4.87,0,0,1-2.31,1A3.84,3.84,0,0,0,79,122.28a2.75,2.75,0,0,1-2.12,1.06A3.64,3.64,0,0,1,75.79,123.21Z" style="fill:#7e9a3d"/><path d="M113.8,122.28a5.91,5.91,0,0,1-1.26-1.19,8.74,8.74,0,0,1-1.32-2.78,24.37,24.37,0,0,1-.66-3.7,144.69,144.69,0,0,1-.93-19.17q.8-11.89,1.59-17.72.52-6.07.53-9A98.51,98.51,0,0,1,112.94,57L114.39,49a2.3,2.3,0,0,1,1.13-1.85,5.86,5.86,0,0,1,2.44-.4,4.3,4.3,0,0,1,3.37,1.39,5.4,5.4,0,0,1,1.26,3.77c0,1.94.07,3.55.2,4.82a5.9,5.9,0,0,0,1.12,3.11c.44-.61,1-1.52,1.79-2.71a12.3,12.3,0,0,1,2.18-2.71c.35-.35,1-1,2.05-1.78A9.61,9.61,0,0,1,133,50.88a11.75,11.75,0,0,1,3.7-.53,10.32,10.32,0,0,1,5.15,1.26c1.5.84,2.25,1.78,2.25,2.84a2.79,2.79,0,0,0,.2.93,2.56,2.56,0,0,1,.2.79,11.62,11.62,0,0,1,.26,2,7.25,7.25,0,0,1-.92,3.44,16.44,16.44,0,0,0-1.06,2.51c-.18.44-.46,1.08-.86,1.92a17.23,17.23,0,0,1-1.12,2c-.27.35-.71,1-1.33,2.05a15.71,15.71,0,0,1-1.91,2.58,12.79,12.79,0,0,1-2.18,1.85,4.92,4.92,0,0,0-1,1A2,2,0,0,0,134,76.8a1.39,1.39,0,0,0,.4,1,11.87,11.87,0,0,1,2.31,3.24,40.24,40.24,0,0,1,1.79,4.57A42.27,42.27,0,0,1,140,93.19c0,.35.27,1.9.8,4.63a55.74,55.74,0,0,1,.92,6.48,52.93,52.93,0,0,0,.8,6.41,15.24,15.24,0,0,0,2,5.09,10.75,10.75,0,0,0,2.38,2.91c1.14,1.06,1.94,1.59,2.38,1.59s.9-.4,1.39-1.19.88-1.41,1.19-1.85a.87.87,0,0,1,1.12-.4,1.24,1.24,0,0,1,.4.92,4.42,4.42,0,0,1-1.79,3.38,5,5,0,0,1-3.63,1.38,11.08,11.08,0,0,1-7.08-3.43,12.18,12.18,0,0,1-3.77-7.14q-.39-2-.92-6.22-.66-4.89-1.59-9.25c0-.09-.13-1.1-.39-3a25.16,25.16,0,0,0-2.65-9.39,18.54,18.54,0,0,1-.73-1.79,4.68,4.68,0,0,0-1.12-1.85,1.59,1.59,0,0,0-1.72-.2,2.79,2.79,0,0,1-3-.66,3.31,3.31,0,0,1-1-3q.79-3.16,2.52-4.1,2.77-1.59,6-6.87a39.8,39.8,0,0,0,4.3-8.86,10.61,10.61,0,0,0,.26-1.85c0-1.32-.61-1.77-1.85-1.32a10.79,10.79,0,0,0-4.69,3,35.29,35.29,0,0,0-4,5.68L125.1,64.5A13.86,13.86,0,0,0,123,69.72a61.51,61.51,0,0,0-.8,7.61q-.14,2.51-.66,7.53-.8,8.73-.79,12.83c0,1.85,0,3.46.13,4.82s.13,2.23.13,2.58l-.13,6.35a19.11,19.11,0,0,0,.4,3.83,4.67,4.67,0,0,1-.33,2.65,12.79,12.79,0,0,0-.73,2.51,18.18,18.18,0,0,0-2.12,1.32,4.56,4.56,0,0,1-2.64.93A3,3,0,0,1,113.8,122.28Z" style="fill:#7e9a3d"/><path d="M165.3,122.15H165l-2.38.13a5,5,0,0,1-3.43-1.26,5.14,5.14,0,0,1-1.72-3.5q-.13-2.11,0-6.68T158,103c.17-1.86.44-3.71.79-5.56.09-.79.22-1.78.4-3s.3-2.54.39-4l.27-3.7a23.12,23.12,0,0,1,.66-7.67,7.32,7.32,0,0,0,.13-2.57,11.91,11.91,0,0,1,0-2.58q.66-5.69,1.72-18.78a37.65,37.65,0,0,0,.53-5.16l-.13-2.37a1.85,1.85,0,0,1-.14-.8,1.6,1.6,0,0,1,.4-1.25,2.06,2.06,0,0,1,1.32-.33,26.71,26.71,0,0,1,3.7.39h1.19l6.35-.13a25.92,25.92,0,0,1,3,.13,11.9,11.9,0,0,0,2.12.13,21.27,21.27,0,0,0,4.1-.39,5,5,0,0,1,2.77.92c1.24.71,1.94,1.33,2.12,1.85a1,1,0,0,1,.13.66c0,.62-.35,1-1.06,1.06l-2.11.13L174.55,48.9l-1.85-.14c-.62,0-.88.4-.79,1.19a8.09,8.09,0,0,0,.13,1.59,117,117,0,0,1,.53,13.09,19.47,19.47,0,0,0,1.19,5.82v4.1c0,2,0,3.57.13,4.63l.13,4.89a22.62,22.62,0,0,1-.13,2.91c0,.79.44,1.19,1.32,1.19a47.07,47.07,0,0,1,5.16.13c.79,0,1.19.35,1.19,1.06a1.19,1.19,0,0,1-1.06,1.19l-5.68.13a1.49,1.49,0,0,0-1.46,1.19A85.27,85.27,0,0,0,172,102.71l-.79,7.94c-.09.52-.2,1.23-.33,2.11a14.51,14.51,0,0,0-.2,2.25,5,5,0,0,0,.26,2.11c.18.27.66.4,1.46.4h7c.88,0,1.67,0,2.38.07a5.61,5.61,0,0,0,1.58-.07,6.63,6.63,0,0,1,3.84,1.19,3.71,3.71,0,0,1,.72.66.79.79,0,0,1,.07.93,2.73,2.73,0,0,1-1.79,1.45,10.42,10.42,0,0,1-2.44.27H182l-2.78-.27-3.17-.26a14,14,0,0,0-3.18.53,18.05,18.05,0,0,1-4,.66A11.35,11.35,0,0,1,165.3,122.15Z" style="fill:#7e9a3d"/><path d="M197.82,120.56q-5.15-4.09-5.15-11.5v-1.85a7.27,7.27,0,0,1,.66-3,1.6,1.6,0,0,1,1.45-.93c1.06,0,1.5.62,1.32,1.85a21.35,21.35,0,0,0-.39,3.84,16,16,0,0,0,1.58,6.34q1.59,3.57,3,3.57a3,3,0,0,0,2.32-1.58,9.65,9.65,0,0,0,1.52-3.05c.44-1.76,1.06-3.78,1.85-6.08,1.15-3.52,2-6.56,2.58-9.12a35.16,35.16,0,0,0,.86-7.67A19.2,19.2,0,0,0,208,83.8a10.3,10.3,0,0,0-4.49-5.15A24.52,24.52,0,0,1,196,72.3a18.06,18.06,0,0,1-3.44-10.84,20.16,20.16,0,0,1,2-8.6,18.9,18.9,0,0,1,5.42-6.94,11.93,11.93,0,0,1,7.54-2.71,14.79,14.79,0,0,1,4.16.6,7,7,0,0,1,3.11,1.65L217.26,48a7.39,7.39,0,0,1,2.25,5.42,10.39,10.39,0,0,1-1.59,5.42,1.47,1.47,0,0,1-1.19.8,1.41,1.41,0,0,1-1.19-.53,1.44,1.44,0,0,1-.26-1.19l.66-3.44a6,6,0,0,0,.13-1.32,6.69,6.69,0,0,0-1.72-4.23,4.76,4.76,0,0,0-3.57-2.12,5.4,5.4,0,0,0-3.9,2.12,17,17,0,0,0-3.11,5,11.4,11.4,0,0,0-1.05,4.89,34.52,34.52,0,0,0,1.05,8.6,10.64,10.64,0,0,0,3.44,6,73.52,73.52,0,0,1,6.61,5.88,19.89,19.89,0,0,1,4.1,6.15,22.37,22.37,0,0,1,1.59,8.86,23.6,23.6,0,0,1-1.72,9.39,6.87,6.87,0,0,0-.4,1.65,4.22,4.22,0,0,1-.53,1.65,31.09,31.09,0,0,0-1.58,2.91,67.34,67.34,0,0,1-6,9.32,8,8,0,0,1-6.41,3.37A8.13,8.13,0,0,1,197.82,120.56Z" style="fill:#7e9a3d"/><path d="M248.46,118.05c0-1.94-.17-4.85-.53-8.73s-.57-6.83-.66-8.86v-.39c0-.88,0-2.16.07-3.84s-.13-2.69-.53-3a3.36,3.36,0,0,0-2.18-.53l-4.89-.13a2,2,0,0,0-1.85.86,4.62,4.62,0,0,0-.53,2.45,18,18,0,0,0,.19,2.64,16,16,0,0,1,.2,2.51l-.13,3a24.59,24.59,0,0,0-.13,2.91,54.31,54.31,0,0,0,.53,6.22,20.45,20.45,0,0,1,.39,4,22.35,22.35,0,0,1-.26,3.18,2.47,2.47,0,0,1-.53,1.45,2,2,0,0,1-1.45.4,43.91,43.91,0,0,1-4.5-.13,2.27,2.27,0,0,1-1.59-.66,5,5,0,0,1-.66-1.86,30.65,30.65,0,0,1-.39-3.24c-.09-1.19-.14-2-.14-2.44s0-1.19-.06-2-.16-1.71-.33-2.77q-.27-2.39-.27-12.83,0-12,.4-24.33A129.77,129.77,0,0,1,230.08,55q.13-.93.27-3.24a12.06,12.06,0,0,1,.79-3.9,3.61,3.61,0,0,1,3.7-2.25,4.41,4.41,0,0,1,3.18.93,4.81,4.81,0,0,1,1.06,3.3,6.84,6.84,0,0,1-.14,1.59,58.08,58.08,0,0,0-.26,6.74q-.27,8.73-.79,13.09c-.09,1.15-.14,2.87-.14,5.16a33.06,33.06,0,0,0-.13,3.44l.13,3.44a12.74,12.74,0,0,1-.39,3v1.85c0,.88.24,1.41.72,1.58a7.16,7.16,0,0,0,2.58.14,13.28,13.28,0,0,1,2.12.19l2,.33,1.06.14c1.06,0,1.59-1.37,1.59-4.1,0-.53,0-1.17-.07-1.92a11.25,11.25,0,0,1,.07-2.18c0-1.5.08-3.92.26-7.27l.13-7.14-.13-4.1q0-4.64.26-14.41v-.67a1.31,1.31,0,0,1,1.33-1.45c.53,0,.9.33,1.12,1a5.74,5.74,0,0,1,.33,1.79q0,12.17-.13,14.67-.41,10.71-1.46,18.52L249,85.13l.13,2a28.23,28.23,0,0,1,.07,3.24c0,.92-.07,1.7-.07,2.31a44.31,44.31,0,0,0,.27,6.61l.26,3.57q.79,11.91,1.72,17.85l.13,1.06q0,.8-1.05.93Q248.46,122.68,248.46,118.05Z" style="fill:#7e9a3d"/></g></g><g style="isolation:isolate"><g style="isolation:isolate"><path d="M51.57,222.62h4.7a5.27,5.27,0,0,1,5.8,5.68v6.85q0,5-5.3,5h-5.2Zm8.48,3.07a3.66,3.66,0,0,0-1.56-1.37,4.81,4.81,0,0,0-2-.42H53v15h3.4a6.13,6.13,0,0,0,3.06-.71,3,3,0,0,0,1.24-2.79v-7.35A4.2,4.2,0,0,0,60.05,225.69Z" style="fill:#7e9a3d"/><path d="M77.64,222.62V235.5a4.26,4.26,0,0,1-1.54,3.67,6.58,6.58,0,0,1-7.43,0,4.24,4.24,0,0,1-1.55-3.67V222.62h1.4V235.7a3,3,0,0,0,1.11,2.45,4.11,4.11,0,0,0,2.74.92,4.17,4.17,0,0,0,2.75-.92,3,3,0,0,0,1.12-2.45V222.62Z" style="fill:#7e9a3d"/><path d="M82.62,222.65H91V224H84v5.87h4.77l-.47,1.38H84v7.7h6.9v1.25h-8.3Z" style="fill:#7e9a3d"/><path d="M106,223.9h-4.25v-1.25h10.05v1.25h-4.4v16.25H106Z" style="fill:#7e9a3d"/><path d="M123.08,239.24a5.88,5.88,0,0,1-3.69,1.18,6.8,6.8,0,0,1-2.55-.48,4.4,4.4,0,0,1-2-1.59,4.85,4.85,0,0,1-.76-2.83v-8.05a5.12,5.12,0,0,1,1.41-3.9,5.47,5.47,0,0,1,3.89-1.32,5.07,5.07,0,0,1,3.83,1.4,5.28,5.28,0,0,1,1.37,3.85v8A4.43,4.43,0,0,1,123.08,239.24Zm-.9-14.74a4.12,4.12,0,0,0-2.81-.93,4.06,4.06,0,0,0-2.8.93,3.47,3.47,0,0,0-1,2.75v8.25a3.33,3.33,0,0,0,1.08,2.69,4.73,4.73,0,0,0,5.55,0,3.31,3.31,0,0,0,1.09-2.74v-8.22A3.44,3.44,0,0,0,122.18,224.5Z" style="fill:#7e9a3d"/><path d="M146.25,239.24a5.83,5.83,0,0,1-3.68,1.18,6.8,6.8,0,0,1-2.55-.48,4.42,4.42,0,0,1-2-1.59,4.85,4.85,0,0,1-.76-2.83v-8.05a5.12,5.12,0,0,1,1.41-3.9,5.47,5.47,0,0,1,3.89-1.32,5.09,5.09,0,0,1,3.84,1.4,5.28,5.28,0,0,1,1.36,3.85v8A4.4,4.4,0,0,1,146.25,239.24Zm-.9-14.74a4.11,4.11,0,0,0-2.81-.93,4.06,4.06,0,0,0-2.8.93,3.47,3.47,0,0,0-1.05,2.75v8.25a3.31,3.31,0,0,0,1.09,2.69,4.17,4.17,0,0,0,2.76.91,4.3,4.3,0,0,0,2.79-.89,3.34,3.34,0,0,0,1.09-2.74v-8.22A3.45,3.45,0,0,0,145.35,224.5Z" style="fill:#7e9a3d"/><path d="M163.06,222.62V235.5a4.28,4.28,0,0,1-1.53,3.67,6.59,6.59,0,0,1-7.44,0,4.27,4.27,0,0,1-1.55-3.67V222.62h1.4V235.7a3,3,0,0,0,1.11,2.45,4.13,4.13,0,0,0,2.74.92,4.17,4.17,0,0,0,2.75-.92,3,3,0,0,0,1.13-2.45V222.62Z" style="fill:#7e9a3d"/><path d="M175.36,234a6.11,6.11,0,0,1-1,.07h-4.92v6.13H168v-17.5h6.15a4.27,4.27,0,0,1,3.54,1.45,6.1,6.1,0,0,1,1.16,3.9,12.31,12.31,0,0,1-.41,3.32,3.53,3.53,0,0,1-1.79,2.2l2.23,6.63h-1.43Zm1.12-2a3.31,3.31,0,0,0,.85-1.7,12.49,12.49,0,0,0,.16-2.13,4.7,4.7,0,0,0-.85-3.07,2.9,2.9,0,0,0-2.35-1h-4.85v8.68h4.95A2.71,2.71,0,0,0,176.48,231.9Z" style="fill:#7e9a3d"/><path d="M202,222.62V235.5a4.28,4.28,0,0,1-1.53,3.67,6.59,6.59,0,0,1-7.44,0,4.27,4.27,0,0,1-1.55-3.67V222.62h1.4V235.7a3,3,0,0,0,1.11,2.45,4.13,4.13,0,0,0,2.74.92,4.17,4.17,0,0,0,2.75-.92,3,3,0,0,0,1.12-2.45V222.62Z" style="fill:#7e9a3d"/><path d="M208.39,225.22v14.93H207v-17.5h1.4l9.5,14.92V222.65h1.4v17.5h-1.4Z" style="fill:#7e9a3d"/><path d="M225.86,223.92l-1.67,0v-1.22h3.07v17.5h-1.4Z" style="fill:#7e9a3d"/><path d="M237,240.42a5.93,5.93,0,0,1-3.59-1.25,4.37,4.37,0,0,1-1.49-3.65v-8.05a5.12,5.12,0,0,1,1.42-3.9,5.45,5.45,0,0,1,3.88-1.32,5.09,5.09,0,0,1,3.84,1.4,5.28,5.28,0,0,1,1.36,3.85v8a4.61,4.61,0,0,1-1.13,3.34,5.1,5.1,0,0,1-2.89,1.46,3.28,3.28,0,0,0,2.65.83v1.35Q238.09,242.5,237,240.42Zm3-15.92a4.13,4.13,0,0,0-2.82-.93,4.08,4.08,0,0,0-2.8.93,3.47,3.47,0,0,0-1,2.75v8.25a3.45,3.45,0,0,0,.89,2.51,3.65,3.65,0,0,0,2.34,1.06,8.59,8.59,0,0,1-.1-1.45V235.8h1.4v1.8a9.73,9.73,0,0,0,.07,1.45,3.7,3.7,0,0,0,2.28-1.06,3.49,3.49,0,0,0,.85-2.52v-8.22A3.48,3.48,0,0,0,240,224.5Z" style="fill:#7e9a3d"/><path d="M257.74,222.62V235.5a4.26,4.26,0,0,1-1.54,3.67,6,6,0,0,1-3.71,1.15,6.08,6.08,0,0,1-3.73-1.15,4.27,4.27,0,0,1-1.55-3.67V222.62h1.4V235.7a3,3,0,0,0,1.12,2.45,4.1,4.1,0,0,0,2.73.92,4.15,4.15,0,0,0,2.75-.92,3,3,0,0,0,1.13-2.45V222.62Z" style="fill:#7e9a3d"/><path d="M262.71,222.65h8.35V224h-6.95v5.87h4.78l-.48,1.38h-4.3v7.7H271v1.25h-8.3Z" style="fill:#7e9a3d"/></g><g style="isolation:isolate"><path d="M104.55,252.65h6.15a4.25,4.25,0,0,1,3.54,1.45,6,6,0,0,1,1.16,3.9,14.5,14.5,0,0,1-.25,2.84,4.09,4.09,0,0,1-1.25,2.22,4.2,4.2,0,0,1-3,1H106v6.13h-1.4ZM113,261.9a3.31,3.31,0,0,0,.85-1.7,12.49,12.49,0,0,0,.16-2.13,4.7,4.7,0,0,0-.85-3.07,2.89,2.89,0,0,0-2.35-1H106v8.68h5A2.69,2.69,0,0,0,113,261.9Z" style="fill:#7e9a3d"/><path d="M124.25,264h-5.7l-2,6.13h-1.47l5.6-17.5h1.32l5.7,17.5h-1.5Zm-5.3-1.37h4.93l-2.5-7.83Z" style="fill:#7e9a3d"/><path d="M134.28,270.4a5.24,5.24,0,0,1-3.53-1.15,4.58,4.58,0,0,1-1.35-3.68v-8a6.09,6.09,0,0,1,.54-2.88,4.46,4.46,0,0,1,1.64-1.65,5.44,5.44,0,0,1,2.7-.62,7.46,7.46,0,0,1,3.52.82l-.4.95a7.81,7.81,0,0,0-2.7-.52,5,5,0,0,0-2.71.75,3.19,3.19,0,0,0-1.19,2.92v8.2a3.72,3.72,0,0,0,.9,2.67,3.59,3.59,0,0,0,2.7.93,12.08,12.08,0,0,0,3.73-.72l.3,1.17A12,12,0,0,1,134.28,270.4Z" style="fill:#7e9a3d"/><path d="M144.48,261.52l-1.2,1.9v6.73h-1.4V252.62h1.4V261l5.6-8.35h1.62l-5.12,7.58,6.42,9.95h-1.67Z" style="fill:#7e9a3d"/><path d="M162.45,264h-5.7l-1.95,6.13h-1.47l5.6-17.5h1.32l5.7,17.5h-1.5Zm-5.3-1.37h4.93l-2.5-7.83Z" style="fill:#7e9a3d"/><path d="M176.48,269.12a5,5,0,0,1-3.63,1.28,6.43,6.43,0,0,1-2.6-.53,4.43,4.43,0,0,1-1.94-1.65,5,5,0,0,1-.73-2.8v-7.85a6,6,0,0,1,.56-2.81,4.34,4.34,0,0,1,1.61-1.71,5.39,5.39,0,0,1,2.7-.63,7.5,7.5,0,0,1,3.53.83l-.4.95a7.83,7.83,0,0,0-2.7-.53,5,5,0,0,0-2.72.75c-.79.5-1.18,1.48-1.18,2.93v8.12a3.33,3.33,0,0,0,1.08,2.63,4.09,4.09,0,0,0,2.77.95,3.72,3.72,0,0,0,2.7-1,3.44,3.44,0,0,0,1-2.57V264h-1.65l-.48-1.37h3.45v7.5h-1Z" style="fill:#7e9a3d"/><path d="M184,253.92l-1.67,0v-1.22h3.07v17.5H184Z" style="fill:#7e9a3d"/><path d="M191.83,255.22v14.93h-1.4v-17.5h1.4l9.5,14.92V252.65h1.4v17.5h-1.4Z" style="fill:#7e9a3d"/><path d="M216.5,269.12a5,5,0,0,1-3.62,1.28,6.39,6.39,0,0,1-2.6-.53,4.37,4.37,0,0,1-1.94-1.65,5,5,0,0,1-.74-2.8v-7.85a6.1,6.1,0,0,1,.56-2.81,4.43,4.43,0,0,1,1.62-1.71,5.34,5.34,0,0,1,2.7-.63,7.46,7.46,0,0,1,3.52.83l-.4.95a7.83,7.83,0,0,0-2.7-.53,5,5,0,0,0-2.71.75,3.21,3.21,0,0,0-1.19,2.93v8.12a3.3,3.3,0,0,0,1.09,2.63,4,4,0,0,0,2.76.95,3.72,3.72,0,0,0,2.7-1,3.4,3.4,0,0,0,1-2.57V264H214.9l-.47-1.37h3.45v7.5h-1Z" style="fill:#7e9a3d"/></g></g><g style="isolation:isolate"><g style="isolation:isolate"><path d="M136.09,22a2.44,2.44,0,0,1-.73-1.79,2.34,2.34,0,0,1,.85-1.86q.15-.16.45-.45a3.07,3.07,0,0,1,.56-.45l.6-.33a3.52,3.52,0,0,0,.65-.41.7.7,0,0,0,.23-.5,3.57,3.57,0,0,0-.25-1.17c-.17-.46-.37-1-.59-1.48l-.48-1.12a6.25,6.25,0,0,1-.47-1.95,2.8,2.8,0,0,1,.86-2.1,8.5,8.5,0,0,1,.93-.83,1.36,1.36,0,0,1,.86-.3,1.25,1.25,0,0,1,1.16.72,2.93,2.93,0,0,1-.54,3.6c-.16.16-.29.19-.39.12s-.1-.26,0-.47a4.1,4.1,0,0,1,.31-.74,4.36,4.36,0,0,0,.31-1.09.65.65,0,0,0-.12-.39,4.15,4.15,0,0,0-.73,2.18,3,3,0,0,0,.35,1.4,19.66,19.66,0,0,1,1,2.18,1.27,1.27,0,0,0,.17.31.32.32,0,0,0,.25.12,7.07,7.07,0,0,0,1.29-.43.58.58,0,0,1,.27,0c.16,0,.25.07.27.19v0a.3.3,0,0,1-.17.28.78.78,0,0,1-.22.07,1.74,1.74,0,0,0-.37.18l-.33.21a1.15,1.15,0,0,0-.66,1.13l0,.93a6,6,0,0,1-1.36,3.74,3.44,3.44,0,0,1-1.07.89,2.62,2.62,0,0,1-1.3.35A2.26,2.26,0,0,1,136.09,22Zm2.8-3.38a2.15,2.15,0,0,0-.19-1c-.13,0-.47.24-1,.72a4.79,4.79,0,0,0-1.09,1.22,1.8,1.8,0,0,0-.16.78,1.72,1.72,0,0,0,.33,1c.22.31.46.36.72.16A4.12,4.12,0,0,0,138.89,18.61Z" style="fill:#7e9a3d"/><path d="M148,22a1.1,1.1,0,0,1-.52-.44,5.94,5.94,0,0,1-.8-2.49,23.74,23.74,0,0,1-.25-3.5l0-1.33c0-.46.11-1.68.35-3.65l.11-1.36V8.85c0-.21,0-.33-.11-.37a3.12,3.12,0,0,0-.59-.14l-.35,0a1.1,1.1,0,0,1-.42-.09.25.25,0,0,1-.16-.24.25.25,0,0,1,.12-.25.9.9,0,0,1,.39-.06,3.37,3.37,0,0,0,.52,0,1.56,1.56,0,0,0,.37-.07.48.48,0,0,0,.43-.51,7.29,7.29,0,0,1,.19-1.63l.24-1c.15-.63.26-1.09.31-1.4a10.93,10.93,0,0,1,.39-1.52l.27-1c.1-.36.3-.51.58-.43l.27,0a.7.7,0,0,1,.35.12.43.43,0,0,1,.2.33c0,.1.1.41.23.91a5.89,5.89,0,0,1,.2,1.46l0,.85c.05.73.07,1.29.07,1.68a7.07,7.07,0,0,1-.07,1.2l0,.28a.27.27,0,0,0,.11.25,2.48,2.48,0,0,0,.47.13h.15l.78-.07.47,0c.23,0,.38.14.43.43a.57.57,0,0,1-.2.31,1.18,1.18,0,0,1-.74.38l-.7.12a1.56,1.56,0,0,0-.83.25,1.52,1.52,0,0,0-.22.88L149.86,12l-.12,1.4c-.1,1-.15,1.8-.15,2.29a25.54,25.54,0,0,0,.12,2.88c0,.16,0,.45.09.88a4.65,4.65,0,0,0,.22,1.1,1.54,1.54,0,0,1-.31,1.33,1.42,1.42,0,0,1-.94.31A1.73,1.73,0,0,1,148,22Z" style="fill:#7e9a3d"/><path d="M155.38,21.93A2.52,2.52,0,0,1,154,20.48a8.61,8.61,0,0,1-.66-3.39,13.56,13.56,0,0,1,.27-2.41,8,8,0,0,1,1-2.53c.41-.85.74-1.5,1-1.94a7.16,7.16,0,0,1,.91-1.28c.6-.7,1.13-1,1.6-1a1,1,0,0,1,.46.11,9.53,9.53,0,0,0,1,.26,2.51,2.51,0,0,1,1,.44c.21.16.37.13.47-.07a.75.75,0,0,1,.31-.3.84.84,0,0,1,.39-.13.61.61,0,0,1,.41.15.63.63,0,0,1,.21.39c0,.11.05.23.08.39a3.22,3.22,0,0,1,0,.58,2.75,2.75,0,0,1-.1.61,3.11,3.11,0,0,0-.09.64,2.92,2.92,0,0,0,.11.81,4.82,4.82,0,0,1,.12,1.68q-.19,2-.27,4.59c0,.2-.06.48-.1.83a7.78,7.78,0,0,0-.06.84,5,5,0,0,0,.08.66,2.34,2.34,0,0,0,.56-.62,6.72,6.72,0,0,0,.45-1,8,8,0,0,1,.39-.81c0-.13.18-.42.39-.86a6.91,6.91,0,0,0,.46-1.32,1.19,1.19,0,0,1,.24-.37.37.37,0,0,1,.23-.06c.16.11.23.2.23.28a2.7,2.7,0,0,1-.07.6c-.06.22-.09.37-.12.44a22.09,22.09,0,0,1-1,2.88,11,11,0,0,1-.62,1l-.47.74a.86.86,0,0,1-.74.35,5.23,5.23,0,0,1-1.3-.46,1.46,1.46,0,0,1-.68-.94c0-.07-.06-.16-.1-.25l-.14-.29a5,5,0,0,0-.7.95,4.57,4.57,0,0,1-.5.76,5,5,0,0,1-.84.76,1.51,1.51,0,0,1-.87.25A4.11,4.11,0,0,1,155.38,21.93Zm2.06-.73a2.84,2.84,0,0,0,.63-.72,10.71,10.71,0,0,0,1.63-3.74,30.27,30.27,0,0,0,.31-3.58c.05-1.16.12-2,.2-2.6a2.5,2.5,0,0,0-.34-1c-.16-.26-.33-.38-.48-.35a.39.39,0,0,0-.33.21l-.18.29-.62,1.44a30.67,30.67,0,0,0-1.59,4.24,16.31,16.31,0,0,0-.47,2.72c0,.11,0,.26-.08.45s0,.37,0,.53a3.66,3.66,0,0,0,.08.66,1.56,1.56,0,0,1,0,.58v.16a1.44,1.44,0,0,0,.19.75c.13.22.26.34.39.34A1.24,1.24,0,0,0,157.44,21.2Z" style="fill:#7e9a3d"/><path d="M169.81,32.26c-.05-.47-.08-.83-.08-1.09a10.4,10.4,0,0,1,.59-3.27,13.19,13.19,0,0,1,1.9-3.53,2.1,2.1,0,0,0,.51-1.25l.15-1.63-.19,0-.6.12-.8.11a3.76,3.76,0,0,1-3-1.55,4.69,4.69,0,0,1-1.09-3c-.06-.78-.08-1.36-.08-1.75a21,21,0,0,1,.78-5.64L168.1,9c.05-.18.11-.4.17-.68s.17-.58.3-.95a1.51,1.51,0,0,1,.31-.58.64.64,0,0,1,.46-.16,1.58,1.58,0,0,1,1,.22,1.14,1.14,0,0,1,.29.79,1.59,1.59,0,0,0,0,.37c0,.07,0,.11,0,.14a2.35,2.35,0,0,1-.08.54,2.43,2.43,0,0,0-.16.68,5.71,5.71,0,0,1-.08.65,12,12,0,0,0-.23,2.56c0,.18,0,.45,0,.8s-.05.64-.07.87c-.06.63-.08,1.09-.08,1.41l0,1.86a4.58,4.58,0,0,0,.66,2.49q.47.78,1.05.78a.93.93,0,0,0,.78-.47,3.55,3.55,0,0,0,.54-1.13,15.17,15.17,0,0,0,.31-1.67,54.32,54.32,0,0,1,1.21-5.79.66.66,0,0,1,.27-.35,2.19,2.19,0,0,0,.31-.31.58.58,0,0,1,.47-.24c.39,0,.58.17.58.51v1.44a14.18,14.18,0,0,1-.19,2.45,4.44,4.44,0,0,0-.12,1c-.05.46-.11.83-.16,1.09a12.7,12.7,0,0,0-.29,1.73c-.06.63-.11,1.08-.13,1.34a.78.78,0,0,0,.46-.24.86.86,0,0,1,.55-.23.52.52,0,0,1,.46.22.64.64,0,0,1,.16.4.57.57,0,0,1-.2.39l-.7.7c-.28.29-.51.55-.7.78a3.18,3.18,0,0,0-.6,1.28,8.68,8.68,0,0,0-.17,1.38c0,.48-.06.85-.08,1.11a31.21,31.21,0,0,1-.62,3.5L173.54,31a5.93,5.93,0,0,1-1.71,2.91.9.9,0,0,1-.66.27C170.47,34.16,170,33.53,169.81,32.26Zm1.67.43a4.06,4.06,0,0,0,.82-2.45,20.18,20.18,0,0,1,.12-2.57v-.19a.71.71,0,0,0-.16-.51l-.39.7a7.68,7.68,0,0,0-.54,1,3.18,3.18,0,0,0-.31.82l-.31.74a2.72,2.72,0,0,0-.24.85c0,.29,0,.56,0,.82v.51a.74.74,0,0,0,.12.5,1,1,0,0,0,.43.2C171.16,33.08,171.33,33,171.48,32.69Z" style="fill:#7e9a3d"/><path d="M179.38,22a2.41,2.41,0,0,1-.74-1.79,2.34,2.34,0,0,1,.85-1.86l.45-.45a3.45,3.45,0,0,1,.56-.45l.61-.33a3.76,3.76,0,0,0,.64-.41.7.7,0,0,0,.23-.5,3.57,3.57,0,0,0-.25-1.17c-.17-.46-.36-1-.58-1.48l-.49-1.12a6.54,6.54,0,0,1-.47-1.95,2.8,2.8,0,0,1,.86-2.1,8.5,8.5,0,0,1,.93-.83,1.39,1.39,0,0,1,.86-.3A1.23,1.23,0,0,1,184,8a2.93,2.93,0,0,1-.54,3.6c-.16.16-.29.19-.39.12s-.1-.26,0-.47a5,5,0,0,1,.31-.74,4.36,4.36,0,0,0,.31-1.09.71.71,0,0,0-.11-.39,4.09,4.09,0,0,0-.74,2.18,3,3,0,0,0,.35,1.4,19.66,19.66,0,0,1,1,2.18,1.27,1.27,0,0,0,.17.31.32.32,0,0,0,.26.12,7.1,7.1,0,0,0,1.28-.43.58.58,0,0,1,.27,0c.16,0,.25.07.27.19v0a.28.28,0,0,1-.17.28l-.21.07a1.38,1.38,0,0,0-.37.18l-.33.21a1.14,1.14,0,0,0-.67,1.13l0,.93a6,6,0,0,1-1.36,3.74,3.33,3.33,0,0,1-1.07.89,2.59,2.59,0,0,1-1.3.35A2.22,2.22,0,0,1,179.38,22Zm2.8-3.38a2.15,2.15,0,0,0-.2-1c-.13,0-.46.24-1,.72a5,5,0,0,0-1.09,1.22,1.81,1.81,0,0,0-.15.78,1.72,1.72,0,0,0,.33,1c.22.31.46.36.72.16A4.16,4.16,0,0,0,182.18,18.61Z" style="fill:#7e9a3d"/></g></g><g style="isolation:isolate"><g style="isolation:isolate"><path d="M11.91,85.18a8.42,8.42,0,0,0-5.16-2.11c-2.14-.18-3.54-.34-4.21-.47C.88,82.43,0,81.72,0,80.45A3.39,3.39,0,0,1,.73,78.8a2.2,2.2,0,0,1,1-.76q2.66-.77,7.28.31t6.14,3c1.19,1.9,1.42,3.27.71,4.12C14.91,86.72,13.59,86.62,11.91,85.18Zm-6,37.69a2.2,2.2,0,0,1,.44-3.49q11.13-8,17.28-11.66a2.56,2.56,0,0,1,3.29,1.45c.55.8.17,1.71-1.14,2.72q-2.4,1.67-15.94,11.29A2.74,2.74,0,0,1,5.93,122.87ZM26.27,66.68A5.93,5.93,0,0,0,25,65.6l-13.62-9L9.54,55.17c-1-1.3-1.32-2.34-.89-3.1q.94-1.71,3.54-1l4.25,3.1L27.53,61c2.23,2.24,3.44,3.65,3.61,4.24.34,1.19.18,2-.47,2.54a1.77,1.77,0,0,1-2.12.12A5.06,5.06,0,0,1,26.27,66.68Z" style="fill:#7e9a3d"/></g></g><g style="isolation:isolate"><g style="isolation:isolate"><path d="M293.52,69.79a1.77,1.77,0,0,1-2.12-.13c-.65-.5-.81-1.35-.47-2.53q.26-.88,3.61-4.24L305.63,56l4.25-3.1q2.6-.69,3.54,1c.43.76.13,1.8-.89,3.1l-1.84,1.39-13.62,9a5.57,5.57,0,0,0-1.27,1.07A5.11,5.11,0,0,1,293.52,69.79ZM312.18,125q-13.53-9.65-15.94-11.29c-1.3-1-1.68-1.93-1.13-2.73a2.57,2.57,0,0,1,3.29-1.45q6.14,3.69,17.27,11.67a2.2,2.2,0,0,1,.44,3.49A2.74,2.74,0,0,1,312.18,125Zm-6-37.68c-.72-.85-.48-2.22.7-4.12,1-1.3,3.06-2.31,6.15-3s5.51-.81,7.28-.3a2.2,2.2,0,0,1,1,.76,3.39,3.39,0,0,1,.72,1.64c0,1.28-.88,2-2.53,2.15-.67.13-2.08.29-4.21.47A8.42,8.42,0,0,0,310.15,87Q307.62,89.19,306.22,87.35Z" style="fill:#7e9a3d"/></g></g></svg>