<svg xmlns="http://www.w3.org/2000/svg" viewBox="0 0 382.72 233.74"><g style="isolation:isolate"><text transform="translate(0 129.89)" style="isolation:isolate;font-size:167px;fill:#7e9a3d;font-family:NF-Takhie-Free-Regular, NF-Takhie-Free;letter-spacing:-0.010002456025449101em">Φρ<tspan x="111.52" y="0" style="letter-spacing:-0.032217790980538924em">έ</tspan><tspan x="151.41" y="0" style="letter-spacing:-0.009999532185628742em">σ</tspan><tspan x="199.1" y="0" style="letter-spacing:-0.04332545845808383em">κ</tspan><tspan x="252.72" y="0">α</tspan></text></g><g style="isolation:isolate"><g style="isolation:isolate"><path d="M122.6,154.83a.66.66,0,0,0-.39-.24,1.26,1.26,0,0,1-.78-.15c0-.1.16-.31.47-.62h.62c.1,0,1.24-.16,3.41-.47l5.27-.46,3.72-.31a10.71,10.71,0,0,1,2-.16,9.63,9.63,0,0,0,2-.15,18.71,18.71,0,0,1,2.56-.16,15.6,15.6,0,0,0,2.4-.15.63.63,0,0,0,.62-.31c.2.31.41.41.62.31a6.51,6.51,0,0,1,2.09-.31h1.47q4.65-.32,7.29-.31,2.48.15,7.44.15a1.34,1.34,0,0,0,.39-.07c.15-.06.23-.13.23-.24h2.63c0,.21.21.26.62.16h5.12c2.27,0,3.92,0,5,.15a5,5,0,0,0,.77-.07,2.62,2.62,0,0,1,1.09.07,5,5,0,0,0,1.55.31,8.49,8.49,0,0,1,1.86-.15h1.7a6.64,6.64,0,0,1,.93.08,2.56,2.56,0,0,0,1.09-.08.76.76,0,0,1,.54.23.43.43,0,0,0,.54.08.61.61,0,0,1,.55-.08,3.3,3.3,0,0,0,.54.08h2.79a2.25,2.25,0,0,1,.62.08,1.45,1.45,0,0,0,.77-.08,1.27,1.27,0,0,1,.47.15c.2.11.36.11.46,0a.8.8,0,0,1,.39.16.52.52,0,0,0,.54,0h3.26a1,1,0,0,1,.54.15c.16.11.33.06.54-.15a.6.6,0,0,1,.39.23c.16.16.28.18.39.08H201a1.75,1.75,0,0,1,.46.08.49.49,0,0,0,.47-.08,1.24,1.24,0,0,1,.46.15.49.49,0,0,0,.62-.15c.1.21.36.31.78.31h2.32a5,5,0,0,1,.78.15,1.55,1.55,0,0,1,.93.62v.62h-.31a13.77,13.77,0,0,0-5.43-.46l-.46-.16-.16-.15-.31.31a1.18,1.18,0,0,1-.54-.31q-.39-.31-.54.15a.79.79,0,0,0-.54-.15h-2.56a.61.61,0,0,1-.47-.16.64.64,0,0,0-.46-.15c-.11,0-.26.1-.47.31a1,1,0,0,0-.77-.31h-3.41a5.94,5.94,0,0,1-2.17-.31.8.8,0,0,0-1.24.31.76.76,0,0,0-.78-.39,5.36,5.36,0,0,1-.62.08H183.9a.86.86,0,0,1-.62-.31l-.31.31c-.93-.41-1.61-.41-2,0a.47.47,0,0,0-.46-.08.46.46,0,0,1-.47-.08,4.14,4.14,0,0,0-1.24-.15H174a.86.86,0,0,1-.62-.16,4.83,4.83,0,0,1-1.4.31,6.77,6.77,0,0,1-1.7-.23,3.24,3.24,0,0,0-1.55-.08c-.21-.2-.57-.15-1.09.16a.3.3,0,0,0-.46-.16c-.21.11-.37.11-.47,0a1.76,1.76,0,0,0-.77-.15h-4a.86.86,0,0,0-.62.31.65.65,0,0,0-.62-.24,1.81,1.81,0,0,1-.47.08,1.85,1.85,0,0,1-.54-.15q-.39-.15-.54,0h-.78a.62.62,0,0,0-.62.31l-.31-.31a.94.94,0,0,1-.85.23c-.36-.05-.6,0-.7.08q-.15-.47-.54-.24c-.26.16-.44.14-.54-.07a1.06,1.06,0,0,1-.78.31h-8.6a.76.76,0,0,0-.54.15.68.68,0,0,1-.54.08,1.41,1.41,0,0,0-.39-.08c-.11.11-.47.16-1.09.16h-2.48l-.31.31-.31-.31a2.49,2.49,0,0,1-1.39.31,12.88,12.88,0,0,0-3.1.08c-1.35.15-2.33.23-2.95.23a4.81,4.81,0,0,1-1.39.15,5.49,5.49,0,0,0-1.55.16,6.47,6.47,0,0,1-1.71.15,5.54,5.54,0,0,0-1.55.16,14.51,14.51,0,0,1-2.48.15l-.46.62A.42.42,0,0,1,122.6,154.83Z" style="fill:#7e9a3d"/></g></g><g style="isolation:isolate"><text transform="translate(217.35 217.32)" style="isolation:isolate;font-size:75px;fill:#7e9a3d;font-family:AdventPro-Regular, Advent Pro;letter-spacing:0.2em">Νέα</text></g></svg>