<svg xmlns="http://www.w3.org/2000/svg" viewBox="0 0 361.76 204.41"><g style="isolation:isolate"><g style="isolation:isolate"><path d="M81.73,131.1a.61.61,0,0,0-.39-.24,1.24,1.24,0,0,1-.77-.15c0-.1.15-.31.46-.62h.62c.11,0,1.24-.16,3.41-.47l5.27-.46,3.72-.31a10.91,10.91,0,0,1,2-.16,9.46,9.46,0,0,0,2-.15,18.93,18.93,0,0,1,2.56-.16,15.6,15.6,0,0,0,2.4-.15.62.62,0,0,0,.62-.31c.21.31.42.41.62.31a6.53,6.53,0,0,1,2.1-.31h1.47q4.65-.32,7.28-.31t7.44.15a1.24,1.24,0,0,0,.39-.07c.16-.06.23-.13.23-.24h2.64c0,.21.21.26.62.16h5.11c2.28,0,3.93,0,5,.15a5,5,0,0,0,.78-.07,2.56,2.56,0,0,1,1.08.07,5,5,0,0,0,1.55.31,8.61,8.61,0,0,1,1.86-.15h1.71a8.66,8.66,0,0,1,.93.08,2.51,2.51,0,0,0,1.08-.08.78.78,0,0,1,.55.23.42.42,0,0,0,.54.08.59.59,0,0,1,.54-.08,3.63,3.63,0,0,0,.54.08h2.79a2.15,2.15,0,0,1,.62.08,1.48,1.48,0,0,0,.78-.08,1.18,1.18,0,0,1,.46.15c.21.11.37.11.47,0a.84.84,0,0,1,.39.16.52.52,0,0,0,.54,0H157a1,1,0,0,1,.55.15q.22.17.54-.15a.68.68,0,0,1,.39.23c.15.16.28.18.38.08h1.24a2.27,2.27,0,0,1,.47.08.46.46,0,0,0,.46-.08,1.22,1.22,0,0,1,.47.15.49.49,0,0,0,.62-.15c.1.21.36.31.77.31h2.33a4.78,4.78,0,0,1,.77.15,1.49,1.49,0,0,1,.93.62v.62h-.31a13.71,13.71,0,0,0-5.42-.46l-.47-.16-.15-.15-.31.31a1.13,1.13,0,0,1-.54-.31c-.26-.21-.44-.16-.55.15a.76.76,0,0,0-.54-.15h-2.56a.6.6,0,0,1-.46-.16.65.65,0,0,0-.47-.15c-.1,0-.25.1-.46.31a1.06,1.06,0,0,0-.78-.31h-3.41a6,6,0,0,1-2.17-.31.8.8,0,0,0-1.24.31.74.74,0,0,0-.77-.39,5.36,5.36,0,0,1-.62.08H143a.9.9,0,0,1-.62-.31l-.31.31q-1.4-.61-2,0a.48.48,0,0,0-.47-.08.44.44,0,0,1-.46-.08,4.14,4.14,0,0,0-1.24-.15h-4.81a.87.87,0,0,1-.62-.16,4.78,4.78,0,0,1-1.39.31,6.84,6.84,0,0,1-1.71-.23,3.37,3.37,0,0,0-1.55-.08c-.2-.2-.56-.15-1.08.16a.31.31,0,0,0-.47-.16c-.2.11-.36.11-.46,0a1.81,1.81,0,0,0-.78-.15h-4a.9.9,0,0,0-.62.31.61.61,0,0,0-.62-.23,2,2,0,0,1-.46.07,1.78,1.78,0,0,1-.54-.15c-.26-.1-.44-.1-.55,0h-.77a.62.62,0,0,0-.62.31l-.31-.31a.94.94,0,0,1-.85.23c-.37-.05-.6,0-.7.08-.1-.31-.29-.39-.54-.23s-.44.13-.55-.08a1,1,0,0,1-.77.31h-8.6a.8.8,0,0,0-.55.15.68.68,0,0,1-.54.08A1.29,1.29,0,0,0,103,129c-.1.11-.46.16-1.08.16H99.48l-.31.31-.31-.31a2.53,2.53,0,0,1-1.4.31,12.89,12.89,0,0,0-3.1.08c-1.34.15-2.32.23-2.94.23a4.89,4.89,0,0,1-1.4.15,5.54,5.54,0,0,0-1.55.16,6.38,6.38,0,0,1-1.7.15,5.54,5.54,0,0,0-1.55.16,14.51,14.51,0,0,1-2.48.15l-.47.62A.43.43,0,0,1,81.73,131.1Z" style="fill:#7e9a3d"/></g></g><g style="isolation:isolate"><g style="isolation:isolate"><path d="M146.58,164.89v38.7h-6.82v-52.5h6.82l23.18,38.55V151.09h6.9v52.5h-6.9Z" style="fill:#7e9a3d"/><path d="M203.51,151.09h25.05v6.75H210.33v14.77H222l-2,6.6h-9.68v18.23h18.08v6.15h-24.9Z" style="fill:#7e9a3d"/><path d="M279.56,170.66l-6.83,32.93h-8.47l-10.88-52.5h7.5l7.73,38.4,8-38.4h5.85l8,38.4,7.35-38.4h7.72l-10.8,52.5h-8.32Z" style="fill:#7e9a3d"/><path d="M336.56,195.34a10.61,10.61,0,0,0,7.2,2.4q5,0,7.72-2.25a7.12,7.12,0,0,0,2.78-5.78,8.78,8.78,0,0,0-1.69-5.51,12.55,12.55,0,0,0-4.16-3.53,73,73,0,0,0-6.83-3,65.9,65.9,0,0,1-7.46-3.34,14.59,14.59,0,0,1-4.76-4.2,11.21,11.21,0,0,1-1.95-6.79,11.49,11.49,0,0,1,1.87-6.26,13.56,13.56,0,0,1,5.7-4.84,21.19,21.19,0,0,1,9.38-1.87,29.15,29.15,0,0,1,6.07.52,22,22,0,0,1,4.88,1.73L353.13,159a23,23,0,0,0-8.7-1.8q-4.65,0-7.16,1.68a5.23,5.23,0,0,0-2.51,4.54,4.65,4.65,0,0,0,1.35,3.3,12.17,12.17,0,0,0,3.34,2.44c1.32.67,3.21,1.54,5.66,2.59a70.43,70.43,0,0,1,8.51,4,18.45,18.45,0,0,1,5.74,5.17,13.38,13.38,0,0,1,2.4,8.14,14.67,14.67,0,0,1-4.43,11q-4.43,4.28-13.5,4.27a20.23,20.23,0,0,1-9.48-2.06,15.21,15.21,0,0,1-6-5.33,13.56,13.56,0,0,1-2.22-6.78l7.28-.83A8.85,8.85,0,0,0,336.56,195.34Z" style="fill:#7e9a3d"/></g></g><g style="isolation:isolate"><g style="isolation:isolate"><path d="M16.33,141.58q-2-3.53-2-9.83,0-6.87,1.3-24.68c.37-3.72.55-6.43.55-8.17L16,86.28Q14.85,87,11.13,93a93.52,93.52,0,0,1-6.31,9.1l-.92,1.11A12.22,12.22,0,0,1,2,104.75a1.21,1.21,0,0,1-1.48-.1,1.51,1.51,0,0,1-.56-.92,1.94,1.94,0,0,1,.56-1.21,5.82,5.82,0,0,0,.74-1l4.08-6.31Q10.21,88,15.59,79.42A12.7,12.7,0,0,0,17.26,74q0-18.75.74-28.21a124.65,124.65,0,0,1,2.6-16.51A57.9,57.9,0,0,1,30.06,6.87a16.35,16.35,0,0,1,4.92-5A10.62,10.62,0,0,1,40.82,0q5.38,0,5.38,9.46A28.43,28.43,0,0,1,45.65,15c-.5,3.47-1,6.31-1.49,8.54a31.31,31.31,0,0,1-2.22,6.49L39.71,34.7a54.22,54.22,0,0,0-3.34,6.68,20.75,20.75,0,0,0-1.86,5.75,28.57,28.57,0,0,1-1.3,4.27L32.1,59.75q0,3.9-.18,6.77c-.13,1.92-.25,3.56-.38,4.92l-.37,3.9L31,77a4.3,4.3,0,0,0,.55,1.67,20.25,20.25,0,0,1,8.17-2.23c1.85,0,2.78.8,2.78,2.41a2.68,2.68,0,0,1-.93,1.86L36,83.13q-3.72.38-5,2c-.87,1.11-1.36,3-1.49,5.75q-.37,5.39-1.48,17.63-.56,5-1.39,13.73T25.42,136a7.57,7.57,0,0,1-1.67,5.11q-1.86,2.5-3.9,2.5A4.65,4.65,0,0,1,16.33,141.58ZM38.41,24.22a41.84,41.84,0,0,0,1.48-5.48L41,14.47a18.91,18.91,0,0,0-3.16,6.31A72.92,72.92,0,0,0,36.18,29,22.3,22.3,0,0,0,38.41,24.22Z" style="fill:#7e9a3d"/><path d="M64.57,118.48A22.16,22.16,0,0,1,59.66,111a24.17,24.17,0,0,1-1.95-9.46q0-7.6,3.15-18.74c.25-1,.8-3.18,1.67-6.59a36.53,36.53,0,0,1,2.78-7.88,8.34,8.34,0,0,0,.38-1.3,1.1,1.1,0,0,0-.56-.93,2.63,2.63,0,0,0-1.49-.37,7.79,7.79,0,0,1-5.56-2.6l-1.86,3.15a2,2,0,0,1-1.48.56,1.74,1.74,0,0,1-1.3-.56,1.61,1.61,0,0,1-.56-1.11,5.78,5.78,0,0,1,.37-1.67,14.59,14.59,0,0,0,2.42-5.2c-1.49-3.34-2.23-6-2.23-8A20.52,20.52,0,0,1,54.18,46a1.62,1.62,0,0,1,.74-1.3,2.49,2.49,0,0,1,1.49-.56,1.81,1.81,0,0,1,1.67,1.3q.56,1.11,2,10.39a15.25,15.25,0,0,0,2.78.37A11,11,0,0,0,68,54.92a11.31,11.31,0,0,0,4.17-3.71l.93-.74a3.64,3.64,0,0,1,2.6-.74,30.72,30.72,0,0,1,4.08.19c1.85,0,2.78.8,2.78,2.41a25.29,25.29,0,0,1-.93,5.19q-.56,1.86-2,5.57a76.54,76.54,0,0,0-3.71,11L73.48,85.36l-3.16,12.8c-.12.62-.43,2.1-.92,4.45a32.17,32.17,0,0,0-.75,6.68,20.61,20.61,0,0,0,.56,4.64c.37,1.61.87,2.41,1.49,2.41q2.6,0,5.19-3.15a60.55,60.55,0,0,0,4.73-6.59l3.06-4.92c.38-1,.93-1.35,1.67-1.11a1.6,1.6,0,0,1,.93,1.67c0,1.86-1.2,4.52-3.62,8a57.83,57.83,0,0,1-5.84,7.42c-2,2.48-4.08,3.71-6.31,3.71Q67.54,121.35,64.57,118.48Z" style="fill:#7e9a3d"/><path d="M103.54,115.23A18.66,18.66,0,0,1,97,108.09q-1.77-3.81-2.13-12.16L95.19,92q.56-9.09,1.48-15.22a44,44,0,0,1,3.71-12.06,51.07,51.07,0,0,1,7-12.06q4-5,8.45-5a14.44,14.44,0,0,1,7.33,2.41A18.56,18.56,0,0,1,129.33,56,12.7,12.7,0,0,1,131,62.35q0,4.83-3.71,9.92a148.38,148.38,0,0,1-11,12.9,26.73,26.73,0,0,1-2.69,2.32c-1.05.81-1.82,1.39-2.32,1.76a9.33,9.33,0,0,0-3.89,7.8c0,2-.07,3.68-.19,5.1s-.25,2.63-.37,3.62a12.56,12.56,0,0,0,.83,5c.56,1.23,1.7,1.85,3.44,1.85q4.08,0,7.23-3.89a49.45,49.45,0,0,0,5.2-7.7q2-3.81,2.78-4.92a1.45,1.45,0,0,1,1.3-.56c.74,0,1.18.25,1.3.74a2.12,2.12,0,0,1-.19,1.49c-.49,1-1.64,3.52-3.43,7.61a25.69,25.69,0,0,1-6.21,9.18,12.35,12.35,0,0,1-8.35,3.06A11.56,11.56,0,0,1,103.54,115.23Zm21.52-48.61a7.85,7.85,0,0,0,1.12-3.72,10.1,10.1,0,0,0-1-4.08c-.68-1.48-1.27-2.23-1.77-2.23-1,0-2.35,2-4.08,6.13-.25.49-.53,1.11-.83,1.85a13.19,13.19,0,0,1-1.21,2.23,53.91,53.91,0,0,0-6.87,17.81Q120.42,75.34,125.06,66.62Z" style="fill:#7e9a3d"/><path d="M141.21,115.42a11.6,11.6,0,0,1-3.53-8.54A11.28,11.28,0,0,1,141.76,98l2.14-2.13a12.5,12.5,0,0,1,2.69-2.13c.61-.38,1.57-.9,2.87-1.58a17.39,17.39,0,0,0,3.06-1.95,3.35,3.35,0,0,0,1.12-2.41,17,17,0,0,0-1.21-5.57c-.8-2.23-1.73-4.57-2.78-7s-1.83-4.27-2.32-5.38a29.93,29.93,0,0,1-2.23-9.28,13.25,13.25,0,0,1,4.08-10,44.88,44.88,0,0,1,4.46-4,6.62,6.62,0,0,1,4.08-1.39,6,6,0,0,1,5.57,3.43,14,14,0,0,1-2.6,17.17c-.74.74-1.36.93-1.86.55s-.49-1.23,0-2.22a22.79,22.79,0,0,1,1.49-3.53,21.66,21.66,0,0,0,1.48-5.19,3,3,0,0,0-.55-1.86q-3.54,5.56-3.53,10.39a14.83,14.83,0,0,0,1.67,6.68,86.61,86.61,0,0,1,4.82,10.39,5.57,5.57,0,0,0,.84,1.49,1.5,1.5,0,0,0,1.21.55c.61,0,2.65-.67,6.12-2a3.28,3.28,0,0,1,1.3-.18,1.15,1.15,0,0,1,1.3.92v.19a1.32,1.32,0,0,1-.84,1.3,4,4,0,0,1-1,.37,6.28,6.28,0,0,0-1.76.83l-1.58,1a5.42,5.42,0,0,0-3.15,5.38l.18,4.45A28.48,28.48,0,0,1,160.32,113a16.21,16.21,0,0,1-5.1,4.27,12.94,12.94,0,0,1-6.22,1.67A10.82,10.82,0,0,1,141.21,115.42Zm13.36-16.15a10.34,10.34,0,0,0-.93-4.64q-.93,0-4.83,3.44a23.92,23.92,0,0,0-5.19,5.84,8.77,8.77,0,0,0,.83,8.54q1.58,2.22,3.44.74Q154.57,106.51,154.57,99.27Z" style="fill:#7e9a3d"/><path d="M185.55,119.68a124.42,124.42,0,0,1-2-24.68q0-4.06.37-8.9c.25-2.6.4-4.89.47-6.87s.09-3.58.09-4.82q.38-11.68,1.11-17.44.75-5.94.93-12.81,1.11-17.07,2.41-22.26l1.86-7.43a13.16,13.16,0,0,1,1.39-3.15,1.89,1.89,0,0,1,1.58-.93q2.4,0,4.82,2.88a9.21,9.21,0,0,1,2.23,6.58q-.37,6.69-2.6,23.94-3,21.9-3,32.1,0,4.27.19,6.31.36-.93,3.71-8.35a41,41,0,0,1,8.26-12.34c3.27-3.27,6.58-4.92,9.92-4.92a11.75,11.75,0,0,1,4.08.75l2.23,1.3a16.17,16.17,0,0,1,5.2,12.06,20.71,20.71,0,0,1-.19,3.15l-.55,4.08a67.22,67.22,0,0,0-1.3,11.88l-.56,3a55.73,55.73,0,0,0-3,12.06,30.16,30.16,0,0,0-.37,4.64c0,.49,0,1.08.09,1.76s.09,1.64.09,2.88a7.35,7.35,0,0,1-1.11,4c-.74,1.17-1.48,1.51-2.23,1a29.69,29.69,0,0,1-7.7-5q-2.13-2.24-1.57-7.42A153.11,153.11,0,0,1,213.57,90q.18-1.31.93-4.83c.49-2.35,1-5,1.48-7.79s1-5.63,1.49-8.35l.74-4.27a4.14,4.14,0,0,0-.65-2.41,2.21,2.21,0,0,0-1.95-.93Q211,62.9,206.8,70a54.91,54.91,0,0,0-6.22,17.25q-.93,5-2.6,12.06t-2.78,10.58l-.37,5a12.15,12.15,0,0,1-.46,4.27c-.44,1.6-.9,3.09-1.39,4.45a9.3,9.3,0,0,1-2.79.56C187.84,124.14,186.3,122.65,185.55,119.68Z" style="fill:#7e9a3d"/></g></g></svg>