<svg xmlns="http://www.w3.org/2000/svg" viewBox="0 0 208.43 40.88"><g style="isolation:isolate"><text transform="translate(39.99 31.67)" style="isolation:isolate;font-size:31px;fill:#7e9a3d;font-family:AdventPro-Regular, Advent Pro;letter-spacing:0.2000063004032258em">ΦΡΕΣΚΟ</text></g><g style="isolation:isolate"><g style="isolation:isolate"><path d="M6.66,19.21A4.73,4.73,0,0,0,3.77,18c-1.19-.1-2-.19-2.35-.26-.93-.1-1.4-.5-1.42-1.21a2,2,0,0,1,.41-.92A1.31,1.31,0,0,1,1,15.21,8.51,8.51,0,0,1,5,15.39a6,6,0,0,1,3.44,1.7c.66,1.06.79,1.83.39,2.3C8.34,20.08,7.61,20,6.66,19.21ZM3.32,40.3a1.23,1.23,0,0,1,.24-1.95q6.24-4.45,9.67-6.53a1.45,1.45,0,0,1,1.85.82c.3.45.09,1-.64,1.52q-1.35.93-8.92,6.32A1.53,1.53,0,0,1,3.32,40.3ZM14.7,8.86a3.18,3.18,0,0,0-.71-.6L6.37,3.19l-1-.77c-.57-.73-.74-1.31-.5-1.74q.53-1,2-.57L9.2,1.85,15.41,5.7a10.22,10.22,0,0,1,2,2.38q.29,1-.27,1.41A1,1,0,0,1,16,9.57,3,3,0,0,1,14.7,8.86Z" style="fill:#7e9a3d"/></g></g><g style="isolation:isolate"><g style="isolation:isolate"><path d="M192.46,9.58a1,1,0,0,1-1.19-.07c-.36-.28-.45-.76-.26-1.42a10,10,0,0,1,2-2.37l6.21-3.85L201.61.13c1-.25,1.63-.06,2,.57.24.43.07,1-.5,1.74l-1,.78-7.62,5a3,3,0,0,0-.72.61A2.88,2.88,0,0,1,192.46,9.58ZM202.9,40.49q-7.56-5.39-8.92-6.31-1.09-.85-.63-1.53a1.43,1.43,0,0,1,1.84-.81q3.44,2.06,9.67,6.53a1.23,1.23,0,0,1,.24,2A1.52,1.52,0,0,1,202.9,40.49Zm-3.33-21.08q-.6-.7.39-2.31a6.1,6.1,0,0,1,3.44-1.69,8.4,8.4,0,0,1,4.08-.17,1.24,1.24,0,0,1,.54.42,2,2,0,0,1,.41.92c0,.71-.5,1.12-1.42,1.21-.38.07-1.16.16-2.36.26a4.78,4.78,0,0,0-2.89,1.18C200.82,20,200.09,20.09,199.57,19.41Z" style="fill:#7e9a3d"/></g></g></svg>