<svg xmlns="http://www.w3.org/2000/svg" viewBox="0 0 312.22 111.54"><g style="isolation:isolate"><g style="isolation:isolate"><path d="M109.69,87a24.25,24.25,0,0,1-2.15-4.22q-1-2.51-3.52-9.89L100.61,63a4.74,4.74,0,0,1-.2-.57,1.24,1.24,0,0,0-.45-.65,5.29,5.29,0,0,0-1.38,1.46c-.16.22-.36.53-.61.94a3.53,3.53,0,0,1-.77.93.87.87,0,0,0-.32.73v.57A10.27,10.27,0,0,0,97,68.55a12.78,12.78,0,0,1,.16,1.7l.08,7.63a24.27,24.27,0,0,1-.48,5.92,2.5,2.5,0,0,1-1.3,1.78c-.6.27-.84.6-.73,1a10.9,10.9,0,0,1-2.19.33,3.64,3.64,0,0,1-1.79-.41,1,1,0,0,0-.24-.57,6.18,6.18,0,0,1-.69-2.55,32.71,32.71,0,0,1-.2-3.45V78.6a7.73,7.73,0,0,0-.08-1.29A22,22,0,0,1,89.33,75l.09-1.54c.1-.92.17-1.72.2-2.4s0-1.23,0-1.66c0-1.41,0-2.43.08-3.08s.08-1.81.08-3.49q.57-10.71.89-14.52.33-4.05.57-6.08c0-.65,0-1-.16-1.14l.16-.65a11,11,0,0,1,1.54-.16,12.31,12.31,0,0,1,1.5.08l1,.16a4.66,4.66,0,0,1,.65.82l.08,1,.48,1.95a15.9,15.9,0,0,1,.25,1.62,12.6,12.6,0,0,1,.08,2.43,8.16,8.16,0,0,0,0,1.83A14,14,0,0,1,97,51.6c0,1,.07,1.9,0,2.63s0,1.34,0,1.83L97.12,58c0,.17-.05.73-.16,1.71a45.27,45.27,0,0,0,4.1-5.48,63.71,63.71,0,0,0,3.61-6.12c.7-1.41,1.48-2.92,2.35-4.55s1.43-2.43,1.7-2.43.45.25.69.73a2.94,2.94,0,0,1,.37,1.22,2,2,0,0,1-.25.89l-3.89,8.36-1.06,2.19c-.27.48-.83,1.43-1.7,2.83a8.25,8.25,0,0,0-1.46,2.76,2,2,0,0,0,.24.89l.9,2c.37.87.83,1.81,1.38,2.84a14.05,14.05,0,0,1,1,2.23c.3.84.5,1.39.61,1.66q2.43,6.74,4.13,12.09l.73,1.87c.06.16.23.56.53,1.21a4.07,4.07,0,0,1,.45,1.62c0,.65-.49.9-1.46.73Z" style="fill:#7e9a3d"/><path d="M115.81,85.5a5.56,5.56,0,0,1-2.23-2.43,18.46,18.46,0,0,1-2-8.52,23.6,23.6,0,0,1,.25-3.49,18.94,18.94,0,0,1,1.46-5.43c.16-.33.63-1.41,1.42-3.25a17.39,17.39,0,0,1,2.63-4.46,4,4,0,0,1,2.84-1.7,2.55,2.55,0,0,1,.81.16,13.82,13.82,0,0,0,2,.37,5.18,5.18,0,0,1,2.31.77l1.22,1.13,1,2,.33,1.46.32,2a34,34,0,0,1-.32,7c-.33,1.84-.84,4-1.55,6.49L125.58,80a1.06,1.06,0,0,1-.08.45,1.12,1.12,0,0,0-.08.37l-.81,1.46a20,20,0,0,1-1,1.86,16.58,16.58,0,0,1-2.19,2,2.93,2.93,0,0,1-2.11.4A9.09,9.09,0,0,1,115.81,85.5Zm4.5-1.06a53,53,0,0,0,3.41-5.63,14.69,14.69,0,0,0,1-4.42,25.62,25.62,0,0,0,.17-3.41l.08-5.27c0-3.25-.3-5.27-.9-6.08a2,2,0,0,1-.48-.53c-.16-.25-.33-.37-.49-.37-.59,0-1,.38-1.22,1.14l-1.13,3.32A81.16,81.16,0,0,0,118.28,72a35.43,35.43,0,0,0-.56,7,33.75,33.75,0,0,0,.32,3.41,3.31,3.31,0,0,0,.45,1.62c.29.54.61.81.93.81A1.68,1.68,0,0,0,120.31,84.44Z" style="fill:#7e9a3d"/><path d="M138.72,86.39c-3.95-2.21-6.2-4.49-6.74-6.81a28.11,28.11,0,0,1-.73-6.25,35.72,35.72,0,0,1,1.06-8.27,18.09,18.09,0,0,1,1.38-3.81c.65-1.35,1.05-2.22,1.21-2.6.27-.65,1.27-1,3-1a4.93,4.93,0,0,1,1.13.08,2.43,2.43,0,0,1,1.42.93,2.48,2.48,0,0,1,.2,1.66,45.11,45.11,0,0,1-.73,4.71c-.32,1.73-.54,3-.65,3.89a52,52,0,0,0-.4,6.09,14.31,14.31,0,0,1-.12,1.5,15.7,15.7,0,0,0-.13,1.82,12,12,0,0,0,1.14,5.23c.76,1.6,1.73,2.4,2.92,2.4a2.89,2.89,0,0,0,2-1,7.76,7.76,0,0,0,2-3.2,27.27,27.27,0,0,0,.85-4.5l.24-2.19a35,35,0,0,0,.41-5.68,49,49,0,0,0-1-9.65.54.54,0,0,0-.08-.25.92.92,0,0,1-.08-.4.53.53,0,0,1,.2-.41.68.68,0,0,1,.37-.16.53.53,0,0,1,.57.49,35.09,35.09,0,0,1,1.46,6.08,43.3,43.3,0,0,1,.4,5.6,26.11,26.11,0,0,1-.32,4.3l-.25,1.7a28.3,28.3,0,0,1-1.29,6.53,5.61,5.61,0,0,1-3.49,3.45,6.57,6.57,0,0,1-2.76.56A6,6,0,0,1,138.72,86.39Z" style="fill:#7e9a3d"/><path d="M154.73,111a2.28,2.28,0,0,1-.94-1.46,9.53,9.53,0,0,1-.32-2.68,9.94,9.94,0,0,1,.24-2.35,23.76,23.76,0,0,1,1.38-5,38.65,38.65,0,0,0,1.46-4.22,43.93,43.93,0,0,1,1.95-5.11,3.81,3.81,0,0,0,.32-1.78,4.19,4.19,0,0,0-.32-1.79l-1.71-4.38a16.9,16.9,0,0,0-.89-2,16.09,16.09,0,0,1-1.05-2.36,27.92,27.92,0,0,1-1.14-8.59,32.9,32.9,0,0,1,1.58-9.94q1.59-5,4.59-12.21l1.46-3.49a44.17,44.17,0,0,0,1.94-7.62,4.49,4.49,0,0,0,.17-1A1.29,1.29,0,0,0,162,33.43a4.91,4.91,0,0,0-3.05,1.62,6.2,6.2,0,0,0-2,2.68A3,3,0,0,1,155.74,39a.84.84,0,0,1-.89,0,.67.67,0,0,1-.25-.89,19.82,19.82,0,0,0,.61-2,11.22,11.22,0,0,1,.85-2.23,5.09,5.09,0,0,1,2.15-2,6.5,6.5,0,0,1,3.13-.82,5.87,5.87,0,0,1,4.46,2,8,8,0,0,1,1.86,5.6A40.92,40.92,0,0,1,165.31,51q-2,5.92-3.08,9.81a56.53,56.53,0,0,0-1.7,7.71,29.85,29.85,0,0,0-.33,3.73,26.09,26.09,0,0,0,.81,6c.54,2.25,1,3.18,1.46,2.8a.65.65,0,0,1,1-.08,1,1,0,0,1,.32,1.13,2,2,0,0,1-.32.73,5.92,5.92,0,0,0-.73,3.09,24.29,24.29,0,0,0,.24,3.4c0,.43.11.94.16,1.5s.08,1.26.08,2.07a11.32,11.32,0,0,1-.81,4.38,7.84,7.84,0,0,0-.24,1.5c-.06.62-.11,1.12-.16,1.5a27.54,27.54,0,0,1-2.19,7.79,10,10,0,0,1-1.55,2.39,2.5,2.5,0,0,1-1.86,1A2.71,2.71,0,0,1,154.73,111Zm3.52-5.11a14.55,14.55,0,0,0,.73-2.68,28,28,0,0,0,.57-5.68c0-1-.05-2.16-.16-3.56a31.39,31.39,0,0,0-2.27,6.4A37.84,37.84,0,0,0,156,108a.7.7,0,0,0,.41.73l.32.08C157.25,108.78,157.77,107.81,158.25,105.86Z" style="fill:#7e9a3d"/><path d="M172.32,86a5.61,5.61,0,0,1-1.5-3.21c-.06-.32-.11-.7-.16-1.13s-.14-.92-.25-1.46a14,14,0,0,1-.16-2.52c0-.86,0-1.63.08-2.31s.11-1.26.16-1.74l.25-2.27q.24-2.28,1-6.82l.73-3.73.24-2.35c0-1,.33-1.46,1-1.46a2,2,0,0,1,.81.24,3.33,3.33,0,0,1,1.82,2.27,15.54,15.54,0,0,1,.45,4.06c0,.81,0,2-.16,3.49l-.08,1.7q-.5,6.57-1.22,13.06a4.55,4.55,0,0,1-.12,1,4.94,4.94,0,0,0-.12,1.1,2.71,2.71,0,0,0,.08.77q.08.28.48.36a.44.44,0,0,0,.45-.28,1.58,1.58,0,0,1,.2-.37l.81-1.29a.81.81,0,0,1,1.14-.17.77.77,0,0,1,.41,1q-1.14,3.48-3.49,3.48A4.93,4.93,0,0,1,172.32,86Zm2.07-35.25a4.07,4.07,0,0,1,.48-1.78l.17-.57.81-1.62a4.64,4.64,0,0,1,1.7-2,5,5,0,0,1,1.95-.65,1.94,1.94,0,0,1,1.13.41.38.38,0,0,1,.25.4,4.37,4.37,0,0,1-.57,1.71q-.17.41-.57,1.29a11.21,11.21,0,0,1-.93,1.67,11.39,11.39,0,0,1-1.34,1.58l-.33.24a4.9,4.9,0,0,1-1.09.45l-.61.12C174.74,51.92,174.39,51.51,174.39,50.7Z" style="fill:#7e9a3d"/><path d="M188.09,86.47A7.46,7.46,0,0,1,185,83.55a9.15,9.15,0,0,1-1.58-4,27,27,0,0,0-.57-3.25c0-.37-.16-1-.32-2s-.27-1.84-.32-2.6c-.11-1.46-.3-3-.57-4.75s-.44-2.82-.49-3.36c-.32-1.73-.54-3-.65-3.89a3.72,3.72,0,0,1-.08-.82c0-.48.3-.81.89-1a6.64,6.64,0,0,1,1.71-.24,3.23,3.23,0,0,1,3.08,2.19,56.89,56.89,0,0,1,3.41,15c.16,1.57.31,2.84.44,3.81s.39,1.52.77,1.63c.22,0,.46-.41.73-1.22a52.69,52.69,0,0,0,2.35-10l.49-2.84a26.61,26.61,0,0,0,.73-5.59L195,57.19c0-.7.24-1.13.73-1.3.65.22,1.08.9,1.3,2,0,1.35,0,2.25,0,2.68s0,.76,0,1c0,.7-.06,1.68-.16,2.92l-.41,3.73a31.57,31.57,0,0,1-.89,3.82c-.38,1.51-1,3.43-1.79,5.75l-.73,2.6c-.27,1-.54,1.84-.81,2.59a15.58,15.58,0,0,1-1.42,2.72,2,2,0,0,1-1.74,1A3,3,0,0,1,188.09,86.47Z" style="fill:#7e9a3d"/><path d="M203.89,86.27a5.31,5.31,0,0,1-2.84-3,17.85,17.85,0,0,1-1.37-7.06,28.62,28.62,0,0,1,.56-5,17.23,17.23,0,0,1,2-5.27c.87-1.78,1.56-3.14,2.07-4.06a15.49,15.49,0,0,1,1.91-2.67c1.24-1.46,2.35-2.19,3.32-2.19a2.14,2.14,0,0,1,1,.24,21.29,21.29,0,0,0,2.07.53,5.08,5.08,0,0,1,2.15.93c.44.33.76.27,1-.16a1.51,1.51,0,0,1,.64-.61,1.73,1.73,0,0,1,.82-.28,1.28,1.28,0,0,1,.85.32,1.36,1.36,0,0,1,.44.81c.06.22.11.49.17.81a8.19,8.19,0,0,1,.08,1.22,5.93,5.93,0,0,1-.21,1.26,6.45,6.45,0,0,0-.2,1.34,6.14,6.14,0,0,0,.25,1.7,10.11,10.11,0,0,1,.24,3.49q-.4,4.22-.57,9.57c-.05.43-.12,1-.2,1.74a16.84,16.84,0,0,0-.12,1.75,9.16,9.16,0,0,0,.16,1.37,4.59,4.59,0,0,0,1.17-1.29,12.85,12.85,0,0,0,.94-2A15.79,15.79,0,0,1,221,78c.11-.27.38-.87.81-1.79a13.78,13.78,0,0,0,1-2.76,2.86,2.86,0,0,1,.49-.77.82.82,0,0,1,.49-.12q.48.33.48.57a5.43,5.43,0,0,1-.16,1.26q-.17.69-.24.93a46.6,46.6,0,0,1-2,6,21.1,21.1,0,0,1-1.3,2l-1,1.54a1.81,1.81,0,0,1-1.54.73,10.7,10.7,0,0,1-2.72-1,3.1,3.1,0,0,1-1.42-2c-.05-.16-.12-.34-.2-.53s-.18-.39-.29-.61a10.16,10.16,0,0,0-1.46,2,9,9,0,0,1-1,1.58,11.2,11.2,0,0,1-1.74,1.59,3.2,3.2,0,0,1-1.83.52A8.59,8.59,0,0,1,203.89,86.27Zm4.3-1.54a5.56,5.56,0,0,0,1.3-1.5,22.19,22.19,0,0,0,3.41-7.79,67.6,67.6,0,0,0,.65-7.46c.1-2.43.24-4.25.4-5.43a5,5,0,0,0-.69-2.11c-.35-.54-.69-.79-1-.73a.83.83,0,0,0-.69.44c-.19.3-.31.5-.37.61l-1.29,3a65.55,65.55,0,0,0-3.33,8.84,34.26,34.26,0,0,0-1,5.68,7.22,7.22,0,0,0-.16.93,7.61,7.61,0,0,0-.09,1.1,7.15,7.15,0,0,0,.17,1.38,3.63,3.63,0,0,1,.08,1.21v.33a3.07,3.07,0,0,0,.4,1.58q.41.69.81.69A2.55,2.55,0,0,0,208.19,84.73Z" style="fill:#7e9a3d"/><path d="M247.19,108.37c-.6-.54-1-.89-1.22-1.05a2.3,2.3,0,0,1-.89-1.87q-.33-2.6-.69-8T244,89.8c0-1.08.05-2.71.16-4.87l.49-13.79a48.1,48.1,0,0,1,.48-9.49,30.3,30.3,0,0,0,.57-3.32c.05-.27.15-1,.28-2.07a14.91,14.91,0,0,1,.69-3,1.53,1.53,0,0,1,.65-.73,1.79,1.79,0,0,1,1-.41,3.19,3.19,0,0,1,1.46.37,2.41,2.41,0,0,1,1.05.93q.07.16.24.45a1.19,1.19,0,0,1,.17.6l-.17,1.06a66.29,66.29,0,0,0-.65,10.87c0,2.54,0,4.43.09,5.68q.24,4,.6,7.09a9.79,9.79,0,0,0,1.26,4.34,3,3,0,0,0,2.43,1.62q1.95,0,3.57-3a15,15,0,0,0,1.79-6.49v-7a5.93,5.93,0,0,1,.32-1.91,1.18,1.18,0,0,1,1.14-.93,1.77,1.77,0,0,1,1,.4,5,5,0,0,1,1.46,1.42,4,4,0,0,1,.57,1.83c.05,1.24.16,2.77.32,4.58s.33,3.12.49,3.94a6.76,6.76,0,0,0,.65,1.54c.21.48.42,1,.61,1.54a4.4,4.4,0,0,1,.28,1.46,1.84,1.84,0,0,1-1,1.7,1,1,0,0,1-.57.24c-.65,0-1.49-.78-2.51-2.35a9.07,9.07,0,0,1-.73-1.17c-.22-.41-.46-.83-.74-1.26a2.65,2.65,0,0,0-.68,1.26c-.14.51-.26.93-.37,1.25A10.15,10.15,0,0,1,257.69,86a5.55,5.55,0,0,1-3.52,1.17,16.76,16.76,0,0,1-4.63-1V91.1A33.87,33.87,0,0,0,249.7,95a31.12,31.12,0,0,1,.17,3.81,17.25,17.25,0,0,1,.08,1.87,15.38,15.38,0,0,0,.24,3.16,9.43,9.43,0,0,1,.08,1.38,5.4,5.4,0,0,1-.36,2.27,4.74,4.74,0,0,1-1.5,1.54C248.19,109.13,247.78,108.91,247.19,108.37Z" style="fill:#7e9a3d"/><path d="M273.79,86.27a5.28,5.28,0,0,1-2.84-3,17.85,17.85,0,0,1-1.38-7.06,27.83,27.83,0,0,1,.57-5,17,17,0,0,1,2-5.27c.87-1.78,1.56-3.14,2.07-4.06a16.05,16.05,0,0,1,1.91-2.67c1.24-1.46,2.35-2.19,3.32-2.19a2.21,2.21,0,0,1,1,.24,20.22,20.22,0,0,0,2.06.53,5.08,5.08,0,0,1,2.15.93c.44.33.76.27,1-.16a1.55,1.55,0,0,1,.65-.61,1.66,1.66,0,0,1,.81-.28,1.27,1.27,0,0,1,.85.32,1.43,1.43,0,0,1,.45.81c.05.22.1.49.16.81a8.19,8.19,0,0,1,.08,1.22,6.45,6.45,0,0,1-.2,1.26,6,6,0,0,0-.21,1.34,6.14,6.14,0,0,0,.25,1.7,9.87,9.87,0,0,1,.24,3.49q-.4,4.22-.57,9.57c-.05.43-.12,1-.2,1.74a16.84,16.84,0,0,0-.12,1.75A9.16,9.16,0,0,0,288,83a4.79,4.79,0,0,0,1.18-1.29,13.94,13.94,0,0,0,.93-2,15.79,15.79,0,0,1,.81-1.7c.11-.27.38-.87.81-1.79a13.78,13.78,0,0,0,1-2.76,2.86,2.86,0,0,1,.49-.77.82.82,0,0,1,.49-.12q.48.33.48.57a5.43,5.43,0,0,1-.16,1.26q-.17.69-.24.93a46.6,46.6,0,0,1-2,6,19.33,19.33,0,0,1-1.3,2l-1,1.54a1.81,1.81,0,0,1-1.54.73,10.7,10.7,0,0,1-2.72-1,3.1,3.1,0,0,1-1.42-2c-.05-.16-.12-.34-.2-.53s-.18-.39-.28-.61a9.41,9.41,0,0,0-1.46,2,8.87,8.87,0,0,1-1.06,1.58A11.2,11.2,0,0,1,279,86.68a3.2,3.2,0,0,1-1.83.52A8.51,8.51,0,0,1,273.79,86.27Zm4.29-1.54a5.56,5.56,0,0,0,1.3-1.5,22.19,22.19,0,0,0,3.41-7.79,67.6,67.6,0,0,0,.65-7.46c.11-2.43.24-4.25.4-5.43a5,5,0,0,0-.69-2.11c-.35-.54-.69-.79-1-.73a.83.83,0,0,0-.69.44,6.54,6.54,0,0,0-.36.61l-1.3,3a67,67,0,0,0-3.33,8.84,35.33,35.33,0,0,0-1,5.68,7.22,7.22,0,0,0-.16.93,7.49,7.49,0,0,0-.08,1.1,7,7,0,0,0,.16,1.38,3.38,3.38,0,0,1,.08,1.21v.33a3.07,3.07,0,0,0,.4,1.58c.27.46.54.69.82.69A2.56,2.56,0,0,0,278.08,84.73Z" style="fill:#7e9a3d"/><path d="M301,95.64a2.26,2.26,0,0,1-1.3-2,1.86,1.86,0,0,1,.25-1.13,2.09,2.09,0,0,1,.64-.57,3.19,3.19,0,0,0,.78,1.25,1.76,1.76,0,0,0,1.33.53,4.77,4.77,0,0,0,3-1.42,3.89,3.89,0,0,0,1.62-2.8,2,2,0,0,0-.73-1.54,4.2,4.2,0,0,0-1.58-1c-.57-.19-1.4-.45-2.48-.77a11.51,11.51,0,0,1-3.73-1.46,5.37,5.37,0,0,1-1.58-1.62,17.06,17.06,0,0,1-1-1.91c-.3-.68-.5-1.15-.61-1.42a8,8,0,0,1-.57-3.08A20,20,0,0,1,295.6,73a27.36,27.36,0,0,1,6-12.41,24.23,24.23,0,0,1,6.24-5.27,2,2,0,0,1,.9-.17q2.43,0,2.43,1.14a1.15,1.15,0,0,1-.49.89,18.68,18.68,0,0,0-3,3.08L306,62.46a26.11,26.11,0,0,0-3.57,6.13,17.39,17.39,0,0,0-1.54,6.85,7.74,7.74,0,0,0,4.05,7.3l4.22,1A4.37,4.37,0,0,1,311.45,86a7.46,7.46,0,0,1,.77,3.36,6.6,6.6,0,0,1-1.78,4.46,7.55,7.55,0,0,1-4.22,2.52,5.41,5.41,0,0,1-1.7.24A7.82,7.82,0,0,1,301,95.64Z" style="fill:#7e9a3d"/></g></g><g style="isolation:isolate"><g style="isolation:isolate"><path d="M20.31,37.33a.38.38,0,0,0-.21-.12q-.34,0-.42-.09s.08-.17.25-.33h.34l1.84-.26L25,36.28l2-.17A6.32,6.32,0,0,1,28.08,36,5.47,5.47,0,0,0,29.17,36a9.25,9.25,0,0,1,1.39-.09,9.09,9.09,0,0,0,1.3-.08.33.33,0,0,0,.33-.17c.12.17.23.22.34.17a3.62,3.62,0,0,1,1.13-.17h.8c1.68-.11,3-.17,3.95-.17s2.24.09,4,.09a.63.63,0,0,0,.21-.05c.09,0,.13-.06.13-.12h1.43c0,.11.11.14.33.08h2.77c1.24,0,2.13,0,2.69.09a2.6,2.6,0,0,0,.42-.05,1.55,1.55,0,0,1,.59.05,2.82,2.82,0,0,0,.84.16,4.9,4.9,0,0,1,1-.08h.92a4.12,4.12,0,0,1,.51,0,1.21,1.21,0,0,0,.58,0,.39.39,0,0,1,.3.13.24.24,0,0,0,.29,0,.32.32,0,0,1,.3,0,1.46,1.46,0,0,0,.29,0h1.51a1.32,1.32,0,0,1,.34,0,.81.81,0,0,0,.42,0,.76.76,0,0,1,.25.08c.11.06.2.06.25,0A.37.37,0,0,1,59,36a.32.32,0,0,0,.3,0h1.76a.55.55,0,0,1,.29.08c.09.06.18,0,.3-.08a.38.38,0,0,1,.21.12c.08.09.15.1.21,0h.67a1.08,1.08,0,0,1,.25,0,.23.23,0,0,0,.25,0,.66.66,0,0,1,.26.09.27.27,0,0,0,.33-.09c.06.12.2.17.42.17h1.26a2.24,2.24,0,0,1,.42.09.82.82,0,0,1,.51.33V37H66.3a7.26,7.26,0,0,0-2.94-.25l-.25-.09L63,36.62l-.17.17a.71.71,0,0,1-.29-.17c-.14-.11-.24-.09-.29.08a.47.47,0,0,0-.3-.08H60.59a.34.34,0,0,1-.26-.09.36.36,0,0,0-.25-.08s-.14.06-.25.17a.57.57,0,0,0-.42-.17H57.56a3.08,3.08,0,0,1-1.17-.17.44.44,0,0,0-.68.17.39.39,0,0,0-.42-.21,2.09,2.09,0,0,1-.33,0H53.53a.48.48,0,0,1-.34-.17l-.16.17c-.51-.22-.87-.22-1.1,0a.25.25,0,0,0-.25,0,.26.26,0,0,1-.25,0,2,2,0,0,0-.67-.09H48.15c-.16,0-.28,0-.33-.08a2.8,2.8,0,0,1-.76.17,3.51,3.51,0,0,1-.92-.13,1.9,1.9,0,0,0-.84,0c-.11-.11-.31-.08-.59.08a.17.17,0,0,0-.25-.08c-.11.06-.2.06-.25,0a1.08,1.08,0,0,0-.42-.08H41.6a.47.47,0,0,0-.33.16.36.36,0,0,0-.34-.12,1,1,0,0,1-.25,0,1.11,1.11,0,0,1-.3-.08c-.14-.06-.23-.06-.29,0h-.42a.35.35,0,0,0-.34.16L39.17,36a.53.53,0,0,1-.47.12.47.47,0,0,0-.37,0c-.06-.16-.16-.21-.3-.12s-.24.07-.29,0a.58.58,0,0,1-.42.16H32.66a.41.41,0,0,0-.3.09.39.39,0,0,1-.29,0,.68.68,0,0,0-.21,0,1.22,1.22,0,0,1-.59.08H29.93l-.17.17-.17-.17a1.32,1.32,0,0,1-.76.17,7.57,7.57,0,0,0-1.68,0,14.15,14.15,0,0,1-1.59.13,2.82,2.82,0,0,1-.76.08,2.78,2.78,0,0,0-.84.09,3.66,3.66,0,0,1-.92.08,3.25,3.25,0,0,0-.84.08,7.16,7.16,0,0,1-1.35.09l-.25.33A.22.22,0,0,1,20.31,37.33Z" style="fill:#7e9a3d"/></g></g><g style="isolation:isolate"><g style="isolation:isolate"><path d="M9.36,20.34A1.29,1.29,0,0,1,9,20.25a1.47,1.47,0,0,0-.32-.09,12.65,12.65,0,0,1-3.3.48,6,6,0,0,1-3.87-1.23Q0,18.18,0,15.3V9.75A4.44,4.44,0,0,1,1.23,6.21a4.73,4.73,0,0,1,3.18-1A9.51,9.51,0,0,1,6.5,5.4,10.9,10.9,0,0,1,8.4,6l.36-.93,2.4.72L11,7.11Q11,8.1,11,8.7v9.36a1.88,1.88,0,0,0,.23.56,1.73,1.73,0,0,0,.67.7l-2.46,1ZM6.57,8A6.11,6.11,0,0,0,5,7.71q-2.22,0-2.22,2.13v4.71a4.31,4.31,0,0,0,.66,2.58,2.72,2.72,0,0,0,2.34.9,10.41,10.41,0,0,0,2.46-.36V8.52A11.83,11.83,0,0,0,6.57,8Z" style="fill:#7e9a3d"/><path d="M30.75,20.48a3.28,3.28,0,0,1-1-.95,2.65,2.65,0,0,1-.47-1.65l0-10H23.37V20.37H20.64v-15H32V17.61a1.89,1.89,0,0,0,.21.56,1.64,1.64,0,0,0,.66.7l-1.56,1.86S31.13,20.69,30.75,20.48Z" style="fill:#7e9a3d"/><path d="M52.14,19A5.13,5.13,0,0,1,48,20.67,5.22,5.22,0,0,1,43.75,19a6.13,6.13,0,0,1-1.42-4.15v-4a6,6,0,0,1,1.45-4.36A5.55,5.55,0,0,1,48,5a5.34,5.34,0,0,1,4.08,1.57,6.07,6.07,0,0,1,1.47,4.31v4A6.28,6.28,0,0,1,52.14,19ZM48,7.71a3,3,0,0,0-2.1.72,3.16,3.16,0,0,0-.81,2.46v4.26a2.72,2.72,0,0,0,.81,2.14A3,3,0,0,0,48,18,2.86,2.86,0,0,0,50,17.28a2.82,2.82,0,0,0,.78-2.13V10.89Q50.82,7.71,48,7.71ZM48.6.9a1.32,1.32,0,0,1,.55-.67A1.49,1.49,0,0,1,49.92,0a1,1,0,0,1,.45.09,1.18,1.18,0,0,1,.51.42,1.11,1.11,0,0,1,.18.63,1.43,1.43,0,0,1-.33.9L49.05,4.23H47.16Z" style="fill:#7e9a3d"/><path d="M81.27,19.29a4.5,4.5,0,0,1-.9-2.88V7.92H77.31V5.37h9V7.92H83.1v8.19a3.19,3.19,0,0,0,.45,1.81A2.77,2.77,0,0,0,85,19l-1.08,1.95A4.91,4.91,0,0,1,81.27,19.29Z" style="fill:#7e9a3d"/><path d="M104.16,10.08a2.31,2.31,0,0,0-.77-1.89,3,3,0,0,0-2-.63,5.88,5.88,0,0,0-2.91.81v12h-2.7v-15h2.55l.12.45a4,4,0,0,1,1.33-.51,8.27,8.27,0,0,1,1.76-.18,6.29,6.29,0,0,1,2.76.54,4.16,4.16,0,0,1,1.87,1.62,5.07,5.07,0,0,1,.68,2.73V26.67l-2.7-.72Z" style="fill:#7e9a3d"/><path d="M116.31,5.34h3L122.49,16l3.18-10.62h2.94l-4.71,15h-2.85Z" style="fill:#7e9a3d"/></g></g></svg>