<svg xmlns="http://www.w3.org/2000/svg" viewBox="0 0 546.11 164.1"><g style="isolation:isolate"><g style="isolation:isolate"><path d="M140.64,73.48a.77.77,0,0,0-.47-.28,1.59,1.59,0,0,1-1-.19c0-.13.19-.39.57-.77h.77c.12,0,1.53-.19,4.2-.57l6.49-.57,4.59-.39a13.65,13.65,0,0,1,2.48-.19,11.17,11.17,0,0,0,2.48-.19,23.82,23.82,0,0,1,3.16-.19,18.46,18.46,0,0,0,3-.19.77.77,0,0,0,.76-.38c.25.38.51.51.76.38a8.32,8.32,0,0,1,2.58-.38h1.82q5.73-.39,9-.39c2,.13,5.09.2,9.17.2a1.42,1.42,0,0,0,.48-.1c.19-.06.29-.16.29-.29H195c0,.26.26.32.77.19h6.3q4.2,0,6.11.2a5.48,5.48,0,0,0,1-.1,3.31,3.31,0,0,1,1.33.1,6.45,6.45,0,0,0,1.91.38,10.05,10.05,0,0,1,2.3-.19h2.1a10.75,10.75,0,0,1,1.14.09,2.91,2.91,0,0,0,1.34-.09.92.92,0,0,1,.67.28.53.53,0,0,0,.67.1.71.71,0,0,1,.66-.1,3.54,3.54,0,0,0,.67.1h3.44a3.37,3.37,0,0,1,.77.09,1.64,1.64,0,0,0,.95-.09,1.54,1.54,0,0,1,.57.19c.26.13.45.13.58,0a1,1,0,0,1,.47.19.62.62,0,0,0,.67,0h4a1.23,1.23,0,0,1,.67.19c.19.13.41.07.67-.19a.79.79,0,0,1,.48.29q.28.28.48.09h1.52a3,3,0,0,1,.58.1.57.57,0,0,0,.57-.1,1.6,1.6,0,0,1,.57.19.62.62,0,0,0,.77-.19c.12.26.44.39.95.39h2.87a5.54,5.54,0,0,1,.95.19,1.85,1.85,0,0,1,1.15.76v.76h-.38a17.11,17.11,0,0,0-6.69-.57l-.57-.19-.19-.19-.39.38a1.39,1.39,0,0,1-.66-.38c-.32-.26-.55-.19-.67.19a.93.93,0,0,0-.67-.19h-3.15a.78.78,0,0,1-.58-.19.74.74,0,0,0-.57-.19c-.13,0-.32.12-.57.38a1.28,1.28,0,0,0-1-.38h-4.2a7.52,7.52,0,0,1-2.67-.38,1,1,0,0,0-1.53.38.93.93,0,0,0-1-.48,6.84,6.84,0,0,1-.76.1h-3.25a1.08,1.08,0,0,1-.76-.39l-.38.39q-1.72-.76-2.49,0A.56.56,0,0,0,212,71a.56.56,0,0,1-.57-.1,5.2,5.2,0,0,0-1.53-.19H204a1.07,1.07,0,0,1-.76-.19,5.92,5.92,0,0,1-1.72.38,8.68,8.68,0,0,1-2.1-.28,4.13,4.13,0,0,0-1.91-.1c-.26-.25-.71-.19-1.34.19a.38.38,0,0,0-.57-.19c-.26.13-.45.13-.58,0a2.2,2.2,0,0,0-.95-.19h-5a1.09,1.09,0,0,0-.76.38.79.79,0,0,0-.77-.28,2.67,2.67,0,0,1-.57.09,2.1,2.1,0,0,1-.67-.19c-.32-.12-.54-.12-.67,0h-1a.79.79,0,0,0-.77.38l-.38-.38a1.16,1.16,0,0,1-1.05.29c-.45-.06-.73,0-.86.09-.13-.38-.35-.47-.67-.28s-.54.16-.66-.1a1.3,1.3,0,0,1-1,.38h-10.6a1,1,0,0,0-.67.19.89.89,0,0,1-.67.1,1.73,1.73,0,0,0-.47-.1,2.5,2.5,0,0,1-1.34.2h-3.06l-.38.38-.38-.38a3.18,3.18,0,0,1-1.72.38,15.81,15.81,0,0,0-3.82.09,36.25,36.25,0,0,1-3.63.29,5.68,5.68,0,0,1-1.72.19,7,7,0,0,0-1.91.19,7.57,7.57,0,0,1-2.1.19,7,7,0,0,0-1.91.19,17.16,17.16,0,0,1-3.06.19l-.57.77A.53.53,0,0,1,140.64,73.48Z" style="fill:#7e9a3d"/></g></g><g style="isolation:isolate"><g style="isolation:isolate"><path d="M153.46,135.49l-2,3v24.65H142.6V98.69h8.83V123.9l16.93-25.21h10l-20,29.16,23.92,35.33H172Z" style="fill:#7e9a3d"/><path d="M212.43,106.88l-5.8-.19V98.78h14.26v64.4h-8.46Z" style="fill:#7e9a3d"/><path d="M260.54,107.06H246.47V98.78h37v8.28H268.92v56.12h-8.38Z" style="fill:#7e9a3d"/><path d="M325.86,164.1q-8,0-13-4.23t-5-13.52V116.81q0-7,2-10.58a16.59,16.59,0,0,1,6-6.07,19.87,19.87,0,0,1,9.93-2.3,27.49,27.49,0,0,1,13,3l-2.4,7.17a26.82,26.82,0,0,0-9.47-1.65,12.25,12.25,0,0,0-7.55,2.34q-3.12,2.35-3.12,7.23v30.17q0,9.48,10.76,9.48a42.44,42.44,0,0,0,12.7-2.3l1.38,7.73A44.2,44.2,0,0,1,325.86,164.1Z" style="fill:#7e9a3d"/><path d="M398.45,133.28H375.54v29.9h-8.37V98.78h8.37v26.41h22.91V98.78h8.28v64.4h-8.28Z" style="fill:#7e9a3d"/><path d="M439.67,98.78h30.72v8.28H448v18.13h14.35l-2.48,8.09H448v22.36h22.17v7.54H439.67Z" style="fill:#7e9a3d"/><path d="M509.22,115.71v47.47h-8.37V98.78h8.37l28.43,47.29V98.78h8.46v64.4h-8.46Z" style="fill:#7e9a3d"/></g></g><path d="M19.73,79.69c-.44-8.92-.74-17.84-1-26.61-.15-2.08-.44-4-.59-5.65-3.72-1.34-6.84,2.82-10.41,0,1.49-4.91,6.69-3.87,10.26-6.69,1.19-7.14-.45-14.87,0-23C11.56,17.25,6.65,21,1.3,21.85c-2.09-2.08-1.49-3.56.59-4.46,3.57-1.48,7.29-2.67,11-4,1.49-.45,3-.74,4.16-1.19C19.28,8.33,15.42,3.12,20.47,0c4.32,2.82.15,7.43,3.42,10.71C28.8,10,34.15,8.92,39.51,8.18c3.56-.6,7.13-1,10.55-1.34,2.23-.15,4.46.15,5.5,3.87-5.35,1.93-10.85.89-16.06,2.08s-10.7,1.93-16.35,3V39.55c3.87-1,7.43-1.93,11-3,1.34-.3,2.53-.89,4-1.33,1.79-.45,3,.15,3.27,2.67-5.2,4.17-12.34,4-18.28,7.14,0,4-.15,7.88,0,11.75.3,8,.89,15.9,1.33,23.78.15,2.09-.14,3.87-3.42,4.17A32.76,32.76,0,0,1,19.73,79.69ZM202.46,73.3c.6-10.56,1.64-21.11,2.38-31.82.6-8.47,1.19-17.1,1.49-25.57.15-2.23-.89-4.46-1.34-6.25-3.57-1.34-5.35.45-6.84,2.23-3.72,4.61-7.73,9.07-10.55,14.28-5.2,9.51-9.67,19.47-14.43,29.44-.89,1.93-1.19,4.16-4,4.46-2.53-.6-2.23-2.68-2.23-4.46.3-8.93.74-17.85.89-26.77a60.78,60.78,0,0,0-1.19-8.92l-1.34-.44c-.89,1.18-2.08,2.08-2.82,3.27a109.62,109.62,0,0,0-13.08,28.84A64.66,64.66,0,0,1,147,59.17c-.6,1.34-1.94,2.53-2.68,3.57-3.57-1.34-3.57-3.72-3.57-6.1V21c0-3.12-.3-6.1-2.08-8.77-3.57.45-18.59,11-24.38,17a1.69,1.69,0,0,0,.14.89c10.26,9.37,7.44,26.91.6,35.84-4.61,6.24-11.3,5.64-14.72-1.49a29,29,0,0,1-2.38-15.46c.3-1.94.3-4,.6-6l-.9-.45C96.9,43.26,96,44,95.26,44.9c-2.37,3.27-4.75,6.84-7.43,10.11-5,5.8-10.11,4.76-12.93-2.53-1.94-5.2-2.23-10.55-2.09-16V24.08c-4,1.34-7.73,2.53-11.74,3.87v4.46c.44,13.68-.89,27.06-5.5,40A27.77,27.77,0,0,1,53,77.61c-3.86-.44-3-2.38-2.53-4.46,1.79-7,4-13.83,4.91-21,.89-6.69.59-13.68.74-20.52,0-6.54.3-6.84,6.54-8.92,3.87-1.34,7.59-2.53,11.16-3.72,4,2.53,4.46,3.87,4,8.48-.89,7.28-1.63,14.57.74,21.85a24.42,24.42,0,0,0,2.23,4.31c3.13-.3,4.61-2.23,5.8-4.16,4-6.39,7.88-13.08,11.9-19.48,1.34-2.08,3.27-3.71,5.2-5.65,1.63.75,3,1.49,4.46,2.08,10.85-5.05,18.44-15.16,29.14-19.62,6.39,1,7.29,5.65,7.58,10,.45,8,.15,16.21.3,24.38A9.54,9.54,0,0,0,146,45.5c.74-1.64,1.48-3.27,2.23-4.76,3.86-7.29,7.58-14.42,11.3-21.56A6.45,6.45,0,0,1,161.28,17c3.27-3.42,7.44-2.83,9.37,1.63A22.28,22.28,0,0,1,172,25c.3,4.46.15,9.07.15,13.53V43c.3,0,.74.15,1,.15,2.08-3.72,3.86-7.59,5.94-11.45,4.17-7.58,8.48-15.32,14.72-21.71A31.67,31.67,0,0,1,199,5.35c4.17-2.67,8.77-1.34,10.26,3.27a31.72,31.72,0,0,1,1.79,11C210.34,31.81,209,44,208,56.05c-.44,6-.74,11.89-1.19,17.69-.14,2.23-.14,4.17-3.71,4-.15-1.49-.75-3-.6-4.46ZM112.21,62a29,29,0,0,0,4-18.88c-.45-3.72-1.78-7-4.91-9.22s-5.8-1.49-6.69,2.23c-1,4.76-1.78,9.66-2.53,14.42.6,3.87.9,7.43,1.79,10.85.45,1.49,2.38,3.57,3.72,3.57a6.64,6.64,0,0,0,4.6-3Z" style="fill:#7e9a3d"/><path d="M298.26,62a5.46,5.46,0,0,1-.27-2.12c0-6.79.09-13.58.09-20.37,0-.88-.09-1.85-.18-2.74.09,0,.18-.09.27-.09v-.17c0,.09-.09.17-.18.35-1.06,1.06-1.23,2.56-1.76,3.88a37.2,37.2,0,0,1-4,8.47,13.19,13.19,0,0,1-3.18,3.44c-2.11,1.5-4.23,1-5.82-1.06a15.31,15.31,0,0,1-3-6.53l-.79-3.44c-1.32,3-2.56,6-4,9A9.57,9.57,0,0,1,273.65,53c-2.29,2-4.76,1.76-6.18-1.06a23.29,23.29,0,0,1-1.76-5.47c-.79-3.26-.53-6.7-.44-10,0-1.94.26-3.88.44-5.82a4.2,4.2,0,0,0-.18-1.05c-.26.08-.44,0-.61.08-2.21,1.77-4.32,3.53-6.53,5.12a3.1,3.1,0,0,0-1.5,3.08c.53,4.86-1,9.27-3.7,13.32a13.53,13.53,0,0,1-5,4.68c-4,2.11-7.58.53-9.61-2.56-2.2-3.35-2.64-7.06-2.82-10.85a3,3,0,0,0-1.76-3c-3.27-1.67-3.36-5.55-2.39-8a9.36,9.36,0,0,1,4-4.5c3.79-2.3,7.68-3.62,12.17-2.47,3,.7,5,2.55,6.79,4.94a12.12,12.12,0,0,1,1.15,2.2c.44.79.88.79,1.59.26,1.94-1.5,3.88-3.09,5.91-4.59a10.64,10.64,0,0,1,2.29-1.5,2,2,0,0,1,2.72.63,2,2,0,0,1,.28.79,16.63,16.63,0,0,1,.44,3.79c-.17,4.23-.53,8.47-.44,12.7a11,11,0,0,0,2.38,7.41,6.77,6.77,0,0,0,2.82-3.44,57,57,0,0,0,3.8-11.29c.61-2.47,1.14-5,1.67-7.59a4.85,4.85,0,0,1,.27-1.06c.35-1.23,1.14-1.76,1.94-1.5a2.14,2.14,0,0,1,1.32,2.2c-.09,2.3-.35,4.59-.35,6.88a30.79,30.79,0,0,0,1.58,10.94A13,13,0,0,0,285.21,49c.79,1.41,1.58,1.59,2.91.53a4.63,4.63,0,0,0,1.23-1.41,36.42,36.42,0,0,0,4.76-10.58c1.33-4.5,2.38-9.17,3.88-13.58a7.71,7.71,0,0,1,.45-1.33A1.42,1.42,0,0,1,300,21.46,1.71,1.71,0,0,1,301.7,23a9,9,0,0,1,.09,2.2c-.27,3.88-.36,7.76-.44,11.65a7.52,7.52,0,0,0,0,1.5c1.76-3.36,3-6.53,5.11-9.26a18.11,18.11,0,0,1,5.73-5.56c2.56-1.32,5.12-2,7.94-.88,3.26,1.32,5.2,6.44,4.23,9.7a19.66,19.66,0,0,1-7.4,10.4,24.57,24.57,0,0,1-9.09,4.59c-.26.09-.44.35-.7.53,4.76,4.94,11.64,5.29,16.58,3.7a11,11,0,0,0,2.11-1.32c.71-.36,1.5-.53,2,.26a1.61,1.61,0,0,1-.26,2,6.57,6.57,0,0,1-3.18,2.12A19.39,19.39,0,0,1,308,52.4c-1.85-1.14-3.53-2.46-5.38-3.79A8.53,8.53,0,0,0,302,51c0,3.36.09,6.7.18,10,0,1.15-.26,1.94-1.15,2.2A2.18,2.18,0,0,1,298.26,62ZM236.52,35.84c.79-2.2,1.41-4.5,2.2-7-2,.36-3,1.86-4.06,3.18a3.09,3.09,0,0,0,.09,4.06,1.66,1.66,0,0,0,1.15.61C236.08,36.72,236.43,36.19,236.52,35.84Zm17.37,1.85c-1.32.62-2.29,1.06-3.35,1.5a25.62,25.62,0,0,1-10,1.94c-1.59,0-1.59.09-1.68,1.77a15.75,15.75,0,0,0,1.94,8.2c1.59,2.91,4.5,3.53,7,1.41,4.41-3.79,6.35-8.64,6.08-14.82ZM242.16,38c3.8,0,7.15-1.5,10.41-3.26.62-.36.79-.62.53-1.33a9.06,9.06,0,0,0-6.35-6,2.79,2.79,0,0,0-2.12.18c-1.14,1.32-2.73,2.12-3.35,4-.44,1.5-1.15,3.08-1.67,4.67S239.43,38,241,38Zm63.5,6.88a22.09,22.09,0,0,0,13-7.94c1.41-1.76,2.91-3.79,2.82-6.44.44-4.23-3.7-6.79-7.5-4.41a15.81,15.81,0,0,0-2.38,1.85c-4.41,4.24-6.79,9.53-8.2,15.35-.35,1.41.09,1.94,1.41,1.76a3.71,3.71,0,0,0,.88-.17Z" style="fill:#7e9a3d"/></svg>