<!-- <svg xmlns="http://www.w3.org/2000/svg" viewBox="0 0 226.31 307.85"><g style="isolation:isolate"><text transform="translate(51.8 151.34)" style="isolation:isolate;font-size:43px;fill:#7e9a3d;font-family:AdventPro-Regular, Advent Pro;letter-spacing:0.0499977289244186em">ΓΕΥΣΗ</text></g><g style="isolation:isolate"><text transform="translate(39.25 99.37)" style="isolation:isolate;font-size:87px;fill:#7e9a3d;font-family:NF-Takhie-Free-Regular, NF-Takhie-Free">ΑΡΩΜΑ</text></g><g style="isolation:isolate"><text transform="translate(0 255.43)" style="isolation:isolate;font-size:43px;fill:#7e9a3d;font-family:AdventPro-Regular, Advent Pro;letter-spacing:0.0499977289244186em">ΘΡΕΠΤΙΚΕΣ </text><text transform="translate(42.72 298.43)" style="isolation:isolate;font-size:43px;fill:#7e9a3d;font-family:AdventPro-Regular, Advent Pro;letter-spacing:0.0499977289244186em">ΟΥΣΙΕΣ</text></g><g style="isolation:isolate"><text transform="translate(89.83 19.44)" style="isolation:isolate;font-size:25px;fill:#7e9a3d;font-family:NF-Takhie-Free-Regular, NF-Takhie-Free"><tspan style="letter-spacing:-0.02220703125em">Γ</tspan><tspan x="5.25" y="0">εμ</tspan><tspan x="21.56" y="0" style="letter-spacing:-0.02220703125em">άτ</tspan><tspan x="35.83" y="0">α</tspan></text></g><g style="isolation:isolate"><g style="isolation:isolate"><path d="M20.13,128.77a5.85,5.85,0,0,0-3.61-1.48q-2.23-.2-2.94-.33-1.72-.18-1.77-1.5a2.35,2.35,0,0,1,.51-1.15,1.5,1.5,0,0,1,.68-.53,10.48,10.48,0,0,1,5.09.21q3.22.75,4.29,2.12c.83,1.33,1,2.29.49,2.88C22.22,129.84,21.3,129.77,20.13,128.77ZM16,155.09a1.53,1.53,0,0,1,.31-2.43q7.77-5.58,12.06-8.16a1.82,1.82,0,0,1,2.31,1c.38.56.11,1.2-.8,1.9q-1.68,1.16-11.14,7.89A1.9,1.9,0,0,1,16,155.09Zm14.21-39.25a4.15,4.15,0,0,0-.89-.75l-9.52-6.31-1.28-1c-.71-.91-.92-1.63-.62-2.16.44-.8,1.26-1,2.48-.71l3,2.16L31,111.91a12.69,12.69,0,0,1,2.52,3,1.53,1.53,0,0,1-.33,1.77,1.26,1.26,0,0,1-1.48.09A3.57,3.57,0,0,1,30.16,115.84Z" style="fill:#7e9a3d"/></g></g><g style="isolation:isolate"><g style="isolation:isolate"><path d="M188.6,116.75a1.23,1.23,0,0,1-1.48-.09q-.69-.52-.33-1.77a12.41,12.41,0,0,1,2.52-3l7.75-4.81,3-2.16c1.22-.32,2-.09,2.48.71.3.54.09,1.26-.62,2.17l-1.29,1-9.51,6.31a3.92,3.92,0,0,0-.89.75A3.48,3.48,0,0,1,188.6,116.75Zm13,38.58q-9.45-6.74-11.13-7.89c-.91-.7-1.17-1.34-.79-1.9a1.79,1.79,0,0,1,2.3-1q4.29,2.57,12.06,8.15a1.53,1.53,0,0,1,.31,2.43A1.91,1.91,0,0,1,201.63,155.33ZM197.47,129c-.5-.59-.34-1.54.49-2.87q1.06-1.36,4.29-2.12a10.61,10.61,0,0,1,5.09-.21,1.57,1.57,0,0,1,.68.53,2.39,2.39,0,0,1,.51,1.15q0,1.33-1.77,1.5-.7.14-2.94.33a5.9,5.9,0,0,0-3.61,1.47C199,129.8,198.12,129.87,197.47,129Z" style="fill:#7e9a3d"/></g></g><g style="isolation:isolate"><text transform="translate(91.48 202.39)" style="isolation:isolate;font-size:41px;fill:#7e9a3d;font-family:AdventPro-Regular, Advent Pro;letter-spacing:0.049995236280487805em">&amp;</text></g></svg> -->

<svg xmlns="http://www.w3.org/2000/svg" viewBox="0 0 90.84 132.73"><g style="isolation:isolate"><g style="isolation:isolate"><path d="M22,53h6.44v1H23.08V66.54H22Z" style="fill:#7e9a3d"/><path d="M31.55,53H38v1H32.63v4.53h3.68l-.37,1.06H32.63v5.94H38v1h-6.4Z" style="fill:#7e9a3d"/><path d="M47.87,65.25a3,3,0,0,0,.34-1.65V60.87a3.56,3.56,0,0,1-1.39.7,6.22,6.22,0,0,1-1.66.24,4.84,4.84,0,0,1-3.23-1,3.74,3.74,0,0,1-1.18-3V53h1.08v5a2.42,2.42,0,0,0,.92,2.06,3.94,3.94,0,0,0,2.41.7,4,4,0,0,0,2-.48,2.14,2.14,0,0,0,1.06-1.45V53h1.1v10.5a4,4,0,0,1-.53,2.21,2.05,2.05,0,0,1-1.5.93L47,66A1.74,1.74,0,0,0,47.87,65.25Z" style="fill:#7e9a3d"/><path d="M57.14,59.13l-4-6.13h8.25L61,54H55l3.39,5-3.86,6.48h4.36a2.34,2.34,0,0,0,1.28-.35,2,2,0,0,0,.77-1l.83.31a2.79,2.79,0,0,1-1,1.56,3.06,3.06,0,0,1-1.81.49H52.78Z" style="fill:#7e9a3d"/><path d="M72.16,59.63H66v6.91H65V53H66v5.54h6.13V53h1.08V66.54H72.16Z" style="fill:#7e9a3d"/></g></g><g style="isolation:isolate"><g style="isolation:isolate"><path d="M16.79,42.86c-.41-.28-.62-.53-.62-.76a30.21,30.21,0,0,1,.34-3.73c.29-2.08.52-3.64.7-4.68a61.74,61.74,0,0,1,1.69-7.5l.34-1.31c.15-.66.32-1.31.52-1.95.06-.23.21-.73.44-1.51s.45-1.44.65-2a8.42,8.42,0,0,1,.56-1.21l1.13-.09a1.6,1.6,0,0,1,1.32.74,4.09,4.09,0,0,1,.72,1.56L26.27,33a45.64,45.64,0,0,1,.43,5.24,19.54,19.54,0,0,0,.35,3.12c.06.26.11.6.17,1a1.08,1.08,0,0,1,.05.35q0,.48-.39.48a1,1,0,0,1-.94-.68A4,4,0,0,1,25.66,41a24.49,24.49,0,0,0-.3-3.47c0-.32-.07-.71-.13-1.19s-.1-1-.13-1.63c0-.28-.13-.43-.39-.43l-1.69,0c-.21,0-.68,0-1.43.08a.75.75,0,0,0-.63.42,4.57,4.57,0,0,0-.33.78l-.17.58A7.7,7.7,0,0,0,20,37.91c-.1.74-.16,1.24-.19,1.5s-.1.52-.22,1.13a10.09,10.09,0,0,1-.39,1.54c-.14.42-.29.65-.43.71l-.83.44A2,2,0,0,1,16.79,42.86Zm8-9.46a.64.64,0,0,0,.22-.58l-.91-7.37-.39-3.12a5.45,5.45,0,0,0-.28,1.36c0,.51-.08.85-.11,1a34.63,34.63,0,0,1-.82,4c-.5,2-.8,3.18-.91,3.47a1.91,1.91,0,0,0-.09.61c0,.4.16.61.48.61s.69,0,1.21.08l.91.05A1.13,1.13,0,0,0,24.79,33.4Z" style="fill:#7e9a3d"/><path d="M30,42.23c0-.49,0-1.26-.09-2.3q0-.48-.06-1.71c0-.83-.05-1.56,0-2.19a5.85,5.85,0,0,0,0-.83c0-.26,0-.49,0-.69v-.95c0-.61,0-1.3.08-2.08s.1-1.33.13-1.65c.12-1.19.19-2.13.22-2.82.06-.93.2-2.24.43-4l.13-1c.09-.64.25-1.56.48-2.78a1,1,0,0,1,.65-.91,1.35,1.35,0,0,1,.39-.09,1.27,1.27,0,0,1,1,.5,1.46,1.46,0,0,1,.33,1.15c0,.41-.11,1-.22,1.74.09-.12.43-.56,1-1.33a7.71,7.71,0,0,1,1.93-1.77,4,4,0,0,1,2.1-.63,1.45,1.45,0,0,1,1.43.78,4.28,4.28,0,0,1,.35,1.82,14.4,14.4,0,0,1-.82,4.07A7,7,0,0,1,39,25.84a13.23,13.23,0,0,1-1.45,2.4,3.24,3.24,0,0,1-1.8,1.24,8.68,8.68,0,0,1-2.47.13.34.34,0,0,0-.26.09.81.81,0,0,0-.17.34A28.07,28.07,0,0,1,32.69,33l0,1.3a11.14,11.14,0,0,0,0,1.13c0,.32,0,.58,0,.78v1c0,.72,0,1.27,0,1.65a21.24,21.24,0,0,0,0,2.3,11.07,11.07,0,0,1,.09,1.12l0,.26c0,.21-.19.41-.56.61a2.41,2.41,0,0,1-1.13.31C30.44,43.36,30.1,43,30,42.23Zm4.51-14.55a5,5,0,0,0,1.13-1.1A4.81,4.81,0,0,1,36.2,26a3.64,3.64,0,0,0,.52-.58,11.77,11.77,0,0,0,2-5.64q0-.87-.48-.87c-.55,0-1.26.49-2.13,1.46a20.48,20.48,0,0,0-2.6,3.88,2.15,2.15,0,0,0-.34,1,6.65,6.65,0,0,0-.09,1.26c0,.43,0,.76,0,1v.26c0,.26.11.39.34.39A2.25,2.25,0,0,0,34.55,27.68Z" style="fill:#7e9a3d"/><path d="M49.75,43.51a1.72,1.72,0,0,0-.33,0,3.92,3.92,0,0,0-2.08-.31,7,7,0,0,1-.91,0H46a3.12,3.12,0,0,1-.52,0,.57.57,0,0,0-.26-.05.72.72,0,0,0-.34.09A8,8,0,0,1,43.09,43a2.66,2.66,0,0,1-.48-1.44A2.86,2.86,0,0,1,43.05,40a1.47,1.47,0,0,1,1.34-.67l.39,0a2.88,2.88,0,0,0,.65,0l.57,0c.2,0,.31-.13.34-.39a3.45,3.45,0,0,1,0-.6,3.21,3.21,0,0,1,.08-.44,8.76,8.76,0,0,0,.05-1c0-.41,0-.76,0-1l0-.34c0-.12-.12-.23-.37-.35a6.17,6.17,0,0,0-.75-.3l-.7-.26a4.84,4.84,0,0,1-2.43-2.82A10,10,0,0,1,41.66,28q.14-1.52.33-2.67a11.73,11.73,0,0,1,.58-2.19,23.8,23.8,0,0,1,1.28-2.73,3.63,3.63,0,0,1,1.37-1.52,6.22,6.22,0,0,0,1.47-.82,2.52,2.52,0,0,0,1-.22,2.32,2.32,0,0,1,.73-.09,2.1,2.1,0,0,1,2,1.13,10.07,10.07,0,0,1,.78,3.77c.06,1.33.09,2.39.09,3.17A19.11,19.11,0,0,1,49.9,34a1.81,1.81,0,0,1-1.35,1.21c-.37.06-.55.25-.52.56a3.48,3.48,0,0,1,0,.65A11.34,11.34,0,0,1,48,37.55c-.06.57-.09,1-.09,1.25a2.2,2.2,0,0,0,.07.7c0,.08.21.16.5.21a8.82,8.82,0,0,1,1.71.55.92.92,0,0,1,.59.88,2.88,2.88,0,0,1-.07.63,2.32,2.32,0,0,0-.06.41l-.31,1.35C50,43.53,49.85,43.52,49.75,43.51Zm-1.33-10.3a25.36,25.36,0,0,0,1-3.43,23.41,23.41,0,0,0,.24-2.53c0-.91.08-1.51.11-1.8s0-1.06.09-1.87a6,6,0,0,0-1-3.86c-.18,0-.26.06-.26.18a9.85,9.85,0,0,1-.67,1.1l-.63.89a8.71,8.71,0,0,0-1.07,2.43c-.21.84-.44,2-.67,3.6a7.1,7.1,0,0,0-.08,1.3c0,.38,0,1,.08,1.78a2.89,2.89,0,0,0,.24.95,9.23,9.23,0,0,0,.43.83c.16.26.29.44.37.56a1,1,0,0,0,.91.65C47.92,34,48.22,33.73,48.42,33.21Z" style="fill:#7e9a3d"/><path d="M54.45,43.31a.68.68,0,0,1-.39-.39,4.71,4.71,0,0,1-.61-2.47l0-2.47c0-1.65.07-2.88,0-3.69q0-2.34.09-3.51c0-.55,0-1.39,0-2.51.06-.64.17-1.71.35-3.21l.17-1.52.13-1.26c.06-.57.12-1,.17-1.3a5.46,5.46,0,0,1,.16-.65c.07-.26.12-.48.15-.65a.85.85,0,0,0-.11-.3.56.56,0,0,1-.07-.35,1.08,1.08,0,0,1,1.09-.61,1,1,0,0,1,.82.39,6.45,6.45,0,0,1,.61,1l.48.93q.69,1.17,2.16,3.51a3.87,3.87,0,0,1,.35.61,1.57,1.57,0,0,0,.48.61,13.56,13.56,0,0,1,1-2.21l.48-1a13.76,13.76,0,0,0,.78-1.6,18.73,18.73,0,0,1,1-1.83,1,1,0,0,1,.8-.56,1,1,0,0,1,.61.22.63.63,0,0,1,.3.52l0,.69c0,.52,0,1,0,1.35s.06.68.09.91c0,.78,0,1.93,0,3.46v1.44c0,.4,0,1,0,1.77v1.82c0,.29,0,.65,0,1.07s0,.91,0,1.49a7.54,7.54,0,0,0,0,1c0,2.16,0,3.47-.09,3.9s0,1.3,0,2.43c0,.37-.05.94-.05,1.69a1.46,1.46,0,0,1-.28.87q-.29.39-.45.39c-.15,0-.26-.17-.33-.5a3.5,3.5,0,0,1-.06-1l.08-1.26a9.52,9.52,0,0,0,0-1.08c0-1.13,0-2,0-2.56,0-.32,0-.74,0-1.26s0-1.13,0-1.82a17.08,17.08,0,0,1,0-2c0-.69.08-1.23.08-1.6V26.14a12.32,12.32,0,0,0-.13-2.73c-.08.09-.68,1.37-1.77,3.86-.09.23-.41.35-1,.35s-1.08-.41-1.52-1.22c-.83-1.44-1.5-2.66-2-3.64L57.66,22A4.12,4.12,0,0,1,57,21c0,.14-.07.39-.13.75a2.19,2.19,0,0,0,0,.89A13.64,13.64,0,0,1,57,24.49c0,.64,0,1.12,0,1.44a2.17,2.17,0,0,1,0,.56c0,.38,0,.73,0,1.06s0,.6,0,.8a8.68,8.68,0,0,1,0,1,10.13,10.13,0,0,1,0,1.09l-.18,3.12.05.82a18.59,18.59,0,0,1,.08,3.17c-.08.9-.16,2.21-.21,3.94a2,2,0,0,1-.07.61.58.58,0,0,1-.28.3.83.83,0,0,0-.39.48.64.64,0,0,1-.87.52A3.09,3.09,0,0,1,54.45,43.31Z" style="fill:#7e9a3d"/><path d="M69,42.86c-.42-.28-.62-.53-.62-.76a30.21,30.21,0,0,1,.34-3.73c.29-2.08.52-3.64.7-4.68a61.74,61.74,0,0,1,1.69-7.5l.34-1.31c.15-.66.32-1.31.52-1.95.06-.23.21-.73.44-1.51s.45-1.44.65-2a8.42,8.42,0,0,1,.56-1.21l1.13-.09A1.6,1.6,0,0,1,76,18.9a4.09,4.09,0,0,1,.72,1.56L78.43,33a45.64,45.64,0,0,1,.43,5.24,19.54,19.54,0,0,0,.35,3.12c.06.26.11.6.17,1a1.08,1.08,0,0,1,.05.35c0,.32-.14.48-.39.48a1,1,0,0,1-.94-.68A4,4,0,0,1,77.82,41a24.49,24.49,0,0,0-.3-3.47c0-.32-.07-.71-.13-1.19s-.1-1-.13-1.63c0-.28-.13-.43-.39-.43l-1.69,0c-.21,0-.68,0-1.43.08a.75.75,0,0,0-.63.42,4.57,4.57,0,0,0-.33.78c-.09.27-.14.47-.17.58a7.7,7.7,0,0,0-.46,1.84c-.1.74-.16,1.24-.19,1.5s-.1.52-.22,1.13a13.16,13.16,0,0,1-.39,1.54c-.14.42-.29.65-.43.71l-.83.44A2,2,0,0,1,69,42.86Zm8-9.46a.64.64,0,0,0,.22-.58l-.91-7.37-.39-3.12a5,5,0,0,0-.28,1.36c0,.51-.08.85-.11,1a34.63,34.63,0,0,1-.82,4c-.5,2-.8,3.18-.91,3.47a1.91,1.91,0,0,0-.09.61c0,.4.16.61.48.61s.69,0,1.21.08l.91.05A1.13,1.13,0,0,0,77,33.4Z" style="fill:#7e9a3d"/></g></g><g style="isolation:isolate"><g style="isolation:isolate"><path d="M6.91,112.52a4.5,4.5,0,0,1-2.84.92,5.23,5.23,0,0,1-2-.38,3.38,3.38,0,0,1-1.51-1.22A3.77,3.77,0,0,1,0,109.66v-6.21a3.91,3.91,0,0,1,1.09-3,4.23,4.23,0,0,1,3-1,3.94,3.94,0,0,1,3,1.08,4.08,4.08,0,0,1,1,3v6.19A3.36,3.36,0,0,1,6.91,112.52Zm.13-6.2v-3a2.66,2.66,0,0,0-.82-2.12,3.22,3.22,0,0,0-2.17-.71,3.18,3.18,0,0,0-2.16.71,2.69,2.69,0,0,0-.81,2.12v3Zm-6,1.06v2.26a2.55,2.55,0,0,0,.84,2.07,3.2,3.2,0,0,0,2.13.71,3.28,3.28,0,0,0,2.15-.69A2.55,2.55,0,0,0,7,109.62v-2.24Z" style="fill:#7e9a3d"/><path d="M11.21,99.73H16a3.31,3.31,0,0,1,2.73,1.11,4.67,4.67,0,0,1,.9,3,11.19,11.19,0,0,1-.2,2.19,3,3,0,0,1-3.29,2.46h-3.8v4.73H11.21Zm6.51,7.13a2.51,2.51,0,0,0,.65-1.31,10.1,10.1,0,0,0,.13-1.64,3.64,3.64,0,0,0-.66-2.37,2.22,2.22,0,0,0-1.81-.79H12.29v6.69H16.1A2.1,2.1,0,0,0,17.72,106.86Z" style="fill:#7e9a3d"/><path d="M22.68,99.73h6.44v1H23.76v4.53h3.69l-.37,1.06H23.76v5.94h5.32v1h-6.4Z" style="fill:#7e9a3d"/><path d="M39.48,100.79H33.35v12.44H32.27V99.73h8.29v13.5H39.48Z" style="fill:#7e9a3d"/><path d="M47.68,100.69H44.4v-1h7.75v1H48.76v12.54H47.68Z" style="fill:#7e9a3d"/><path d="M56.59,100.71l-1.29,0v-.94h2.37v13.5H56.59Z" style="fill:#7e9a3d"/><path d="M63.51,106.57,62.59,108v5.19H61.51V99.71h1.08v6.44l4.32-6.44h1.25l-4,5.84,5,7.68H67.87Z" style="fill:#7e9a3d"/><path d="M72.27,99.73h6.44v1H73.35v4.53H77l-.36,1.06H73.35v5.94h5.32v1h-6.4Z" style="fill:#7e9a3d"/><path d="M86.17,105.82l-4-6.13h8.26l-.35,1h-6l3.4,5.05-3.86,6.48H88a2.3,2.3,0,0,0,1.27-.35,1.94,1.94,0,0,0,.77-1l.83.31a2.73,2.73,0,0,1-1,1.56,3,3,0,0,1-1.82.49H81.81Z" style="fill:#7e9a3d"/></g><g style="isolation:isolate"><path d="M24.53,131.81a4.52,4.52,0,0,1-2.84.92,5.2,5.2,0,0,1-2-.38,3.33,3.33,0,0,1-1.51-1.22,3.71,3.71,0,0,1-.59-2.18v-6.21a3.91,3.91,0,0,1,1.09-3,4.2,4.2,0,0,1,3-1,3.94,3.94,0,0,1,3,1.08,4.08,4.08,0,0,1,1,3V129A3.4,3.4,0,0,1,24.53,131.81Zm-.69-11.37a3.17,3.17,0,0,0-2.17-.71,3.13,3.13,0,0,0-2.16.71,2.68,2.68,0,0,0-.81,2.12v6.37a2.55,2.55,0,0,0,.84,2.07,3.2,3.2,0,0,0,2.13.7,3.28,3.28,0,0,0,2.15-.68,2.57,2.57,0,0,0,.84-2.11v-6.35A2.68,2.68,0,0,0,23.84,120.44Z" style="fill:#7e9a3d"/><path d="M36.14,131.23a3,3,0,0,0,.34-1.65v-2.74a3.44,3.44,0,0,1-1.39.71,6.22,6.22,0,0,1-1.66.24,4.84,4.84,0,0,1-3.23-1,3.74,3.74,0,0,1-1.18-3V119H30.1v5a2.43,2.43,0,0,0,.92,2,3.88,3.88,0,0,0,2.41.71,4,4,0,0,0,2-.48,2.13,2.13,0,0,0,1.06-1.45V119h1.1v10.5a4,4,0,0,1-.53,2.2,2,2,0,0,1-1.49.94l-.26-.71A1.74,1.74,0,0,0,36.14,131.23Z" style="fill:#7e9a3d"/><path d="M45.41,125.11l-4-6.14h8.26l-.35,1h-6l3.39,5-3.85,6.48h4.36a2.25,2.25,0,0,0,1.27-.36,1.88,1.88,0,0,0,.77-1l.83.31a2.78,2.78,0,0,1-1,1.56,3.09,3.09,0,0,1-1.82.48H41.05Z" style="fill:#7e9a3d"/><path d="M54.51,120l-1.29,0V119H55.6v13.5H54.51Z" style="fill:#7e9a3d"/><path d="M59.43,119h6.44v1H60.51v4.53H64.2l-.37,1.06H60.51v5.94h5.33v1H59.43Z" style="fill:#7e9a3d"/><path d="M73.34,125.11l-4-6.14h8.25l-.34,1h-6l3.39,5-3.86,6.48h4.36a2.26,2.26,0,0,0,1.28-.36,1.93,1.93,0,0,0,.77-1l.83.31A2.79,2.79,0,0,1,77,132a3.06,3.06,0,0,1-1.81.48H69Z" style="fill:#7e9a3d"/></g></g><g style="isolation:isolate"><g style="isolation:isolate"><path d="M38.6,7.56l-.12,0a.36.36,0,0,1-.12-.08.31.31,0,0,1,0-.15V7.14a1.84,1.84,0,0,0,0-.41c0-.05,0-.11,0-.18a1.55,1.55,0,0,1,0-.23.6.6,0,0,0,0-.12.53.53,0,0,1,0-.13,1.49,1.49,0,0,0,0-.24c0-.09,0-.2,0-.32s0-.22,0-.29,0-.12,0-.2a2.63,2.63,0,0,1,0-.3c0-.49,0-1.09,0-1.79l0-.51c0-.26,0-.51,0-.76l.06-.54a4.71,4.71,0,0,1,.13-.91A.25.25,0,0,1,38.71,0h.54a1.27,1.27,0,0,1,.34,0A2,2,0,0,1,40,.05a.59.59,0,0,1,.26.09l.09.07a.11.11,0,0,1,.06.1.11.11,0,0,1-.07.12.17.17,0,0,0-.09.06A.41.41,0,0,1,40,.55a3.51,3.51,0,0,1-.61-.13.13.13,0,0,0-.1,0,.64.64,0,0,0-.05.15,4.19,4.19,0,0,0,0,.6,6.76,6.76,0,0,0-.05,1.21c0,.42-.07.94-.07,1.54V5.07a6.84,6.84,0,0,0,.08,1.11,2.46,2.46,0,0,1,0,.26c0,.09,0,.16,0,.2l0,.34a1.09,1.09,0,0,1,0,.22.12.12,0,0,1-.1.09.48.48,0,0,0-.2.18c-.06.09-.12.13-.17.13A.19.19,0,0,1,38.6,7.56Z" style="fill:#7e9a3d"/><path d="M41,7.21a1.09,1.09,0,0,1-.51-.46,1,1,0,0,1-.17-.57,2.15,2.15,0,0,1,.39-1.32l.07-.11a.19.19,0,0,0,0-.12l-.14-.3a1,1,0,0,1-.14-.47,1,1,0,0,1,.27-.7,1.23,1.23,0,0,1,.62-.41,2,2,0,0,1,.34,0,1.11,1.11,0,0,1,.5.12.37.37,0,0,1,.23.33.41.41,0,0,1-.07.23l-.06,0a.56.56,0,0,1-.1-.15.74.74,0,0,0-.08-.13.12.12,0,0,0-.1,0,.74.74,0,0,0-.5.3.85.85,0,0,0-.28.56.23.23,0,0,0,0,.17.53.53,0,0,0,.31.13,1.28,1.28,0,0,1,.3.1.22.22,0,0,1,.1.21c0,.12,0,.2-.13.22a.92.92,0,0,0-.44.32,2.43,2.43,0,0,0-.28.56,2.32,2.32,0,0,0-.12.64,1.34,1.34,0,0,0,0,.19,1,1,0,0,0,0,.2.52.52,0,0,0,.06.14.43.43,0,0,0,.12.17.37.37,0,0,0,.18.08l.21,0a.49.49,0,0,0,.43-.22,1.35,1.35,0,0,0,.28-.61.5.5,0,0,1,0-.12s0-.06.05-.06.07,0,.08.06a.65.65,0,0,1,0,.2.77.77,0,0,1-.15.43,1.57,1.57,0,0,1-.35.42.65.65,0,0,1-.46.16A1.65,1.65,0,0,1,41,7.21Z" style="fill:#7e9a3d"/><path d="M43.93,10.7l-.18-.16c-.08,0-.12-.14-.14-.29S43.54,9.58,43.5,9s0-.94,0-1.18,0-.42,0-.75L43.55,5a7.58,7.58,0,0,1,.07-1.45A4.48,4.48,0,0,0,43.71,3s0-.14,0-.31a2.16,2.16,0,0,1,.11-.47.24.24,0,0,1,.1-.11.29.29,0,0,1,.15-.06.44.44,0,0,1,.22,0,.38.38,0,0,1,.16.14.43.43,0,0,1,0,.07.17.17,0,0,1,0,.1l0,.16a10.32,10.32,0,0,0-.1,1.67c0,.39,0,.68,0,.87,0,.41.06.77.1,1.09a1.58,1.58,0,0,0,.19.67.47.47,0,0,0,.38.25c.19,0,.38-.16.54-.46a2.31,2.31,0,0,0,.28-1V4.58a.77.77,0,0,1,0-.29.18.18,0,0,1,.17-.14.29.29,0,0,1,.15.06.81.81,0,0,1,.23.22.61.61,0,0,1,.08.28c0,.19,0,.43,0,.7s.05.48.08.61a.84.84,0,0,0,.1.23l.09.24a.66.66,0,0,1,0,.23.29.29,0,0,1-.15.26l-.08,0q-.15,0-.39-.36a1.08,1.08,0,0,1-.11-.18l-.11-.19a.4.4,0,0,0-.11.19,1.67,1.67,0,0,1-.06.2,1.53,1.53,0,0,1-.41.6.88.88,0,0,1-.54.18,2.44,2.44,0,0,1-.71-.16v.76a4.9,4.9,0,0,0,0,.6,4,4,0,0,1,0,.58c0,.07,0,.16,0,.29a2.8,2.8,0,0,0,0,.48,1.09,1.09,0,0,1,0,.22.82.82,0,0,1-.06.35.71.71,0,0,1-.23.23S44,10.79,43.93,10.7Z" style="fill:#7e9a3d"/><path d="M48.12,7.31a.85.85,0,0,1-.44-.47,2.74,2.74,0,0,1-.21-1.08A4.23,4.23,0,0,1,47.56,5a2.9,2.9,0,0,1,.31-.81c.13-.27.24-.48.32-.62a2.78,2.78,0,0,1,.29-.41c.19-.22.36-.34.51-.34a.42.42,0,0,1,.15,0,2.45,2.45,0,0,0,.32.08.84.84,0,0,1,.33.14c.07,0,.12,0,.15,0A.3.3,0,0,1,50,3a.28.28,0,0,1,.12-.05.19.19,0,0,1,.13.05.24.24,0,0,1,.07.13,1,1,0,0,1,0,.12,1,1,0,0,1,0,.19.89.89,0,0,1,0,.19,1,1,0,0,0,0,.21.82.82,0,0,0,0,.26,1.47,1.47,0,0,1,0,.53c0,.44-.07.93-.08,1.48,0,.06,0,.15,0,.26s0,.2,0,.27a1,1,0,0,0,0,.21.57.57,0,0,0,.18-.2,1.54,1.54,0,0,0,.14-.31L50.75,6l.12-.27A1.84,1.84,0,0,0,51,5.33a1.18,1.18,0,0,1,.08-.12h.07s.08.06.08.08a.75.75,0,0,1,0,.2c0,.07,0,.11,0,.14a7.38,7.38,0,0,1-.32.92,1.84,1.84,0,0,1-.2.31l-.14.24a.3.3,0,0,1-.24.11,1.44,1.44,0,0,1-.42-.15.5.5,0,0,1-.22-.3l0-.08,0-.09a1.56,1.56,0,0,0-.23.3,1.2,1.2,0,0,1-.16.25,1.79,1.79,0,0,1-.27.24.51.51,0,0,1-.28.08A1.4,1.4,0,0,1,48.12,7.31Zm.66-.24a.82.82,0,0,0,.2-.23,3.29,3.29,0,0,0,.52-1.2,8.63,8.63,0,0,0,.1-1.14c0-.38,0-.65.07-.84a.86.86,0,0,0-.11-.32c-.05-.08-.11-.12-.16-.11s-.07,0-.1.07l-.06.09-.2.46a9.53,9.53,0,0,0-.51,1.36,6.6,6.6,0,0,0-.15.87s0,.08,0,.14a1.28,1.28,0,0,0,0,.17.88.88,0,0,0,0,.21.43.43,0,0,1,0,.19v0a.48.48,0,0,0,.06.24c.05.07.09.11.13.11A.38.38,0,0,0,48.78,7.07ZM50,2a.61.61,0,0,1,.07-.28l0-.09s0-.1.12-.24A.79.79,0,0,1,50.51,1a.93.93,0,0,1,.3-.1A.34.34,0,0,1,51,1a.06.06,0,0,1,0,.06.79.79,0,0,1-.08.26l-.09.2a2.15,2.15,0,0,1-.14.26c-.06.07-.13.16-.21.24l0,0a.49.49,0,0,1-.17.06l-.09,0C50.08,2.14,50,2.08,50,2Z" style="fill:#7e9a3d"/><path d="M52.05,7.21a.5.5,0,0,1-.15-.33V6.37l0-1.06V5.13c0-.42,0-.79.08-1.1a4.49,4.49,0,0,1,.18-.9l0-.19a.07.07,0,0,0,0-.07.06.06,0,0,0-.08,0l-.39.07c-.11,0-.16,0-.16-.14s0-.09.11-.11l.47-.12,1-.22.19,0a.5.5,0,0,1,.27.07c.08,0,.12.09.12.14a.13.13,0,0,1-.1.11.34.34,0,0,1-.19,0h-.17c-.18,0-.27.06-.27.11a.2.2,0,0,0,0,.08A.12.12,0,0,1,53,3a5.71,5.71,0,0,1-.06,1.24,6.28,6.28,0,0,0-.06,1c0,.14,0,.35,0,.63l0,.59a4.64,4.64,0,0,1-.1.71.31.31,0,0,1-.14.2.43.43,0,0,1-.25.07A.49.49,0,0,1,52.05,7.21Z" style="fill:#7e9a3d"/><path d="M54.52,7.31a.83.83,0,0,1-.43-.47,2.74,2.74,0,0,1-.21-1.08A5.14,5.14,0,0,1,54,5a2.64,2.64,0,0,1,.32-.81c.13-.27.23-.48.31-.62a2.26,2.26,0,0,1,.3-.41c.19-.22.36-.34.51-.34a.42.42,0,0,1,.15,0,2.24,2.24,0,0,0,.31.08.84.84,0,0,1,.33.14c.07,0,.12,0,.15,0a.3.3,0,0,1,.1-.09.27.27,0,0,1,.13-.05A.21.21,0,0,1,56.7,3a.24.24,0,0,1,.07.13s0,.07,0,.12a1,1,0,0,1,0,.19.89.89,0,0,1,0,.19,1,1,0,0,0,0,.21.82.82,0,0,0,0,.26,1.7,1.7,0,0,1,0,.53c0,.44-.07.93-.09,1.48,0,.06,0,.15,0,.26s0,.2,0,.27,0,.11,0,.21a.72.72,0,0,0,.19-.2A2.44,2.44,0,0,0,57,6.29L57.15,6l.13-.27a3.66,3.66,0,0,0,.15-.43l.07-.12h.08c.05,0,.07.06.07.08a1.5,1.5,0,0,1,0,.2l0,.14a7.09,7.09,0,0,1-.31.92c-.07.12-.14.22-.2.31l-.15.24a.28.28,0,0,1-.24.11,1.69,1.69,0,0,1-.42-.15.49.49,0,0,1-.21-.3l0-.08L56,6.58a1.56,1.56,0,0,0-.22.3l-.16.25a1.79,1.79,0,0,1-.27.24.51.51,0,0,1-.28.08A1.44,1.44,0,0,1,54.52,7.31Zm.66-.24a.69.69,0,0,0,.2-.23,3.53,3.53,0,0,0,.53-1.2A10.76,10.76,0,0,0,56,4.5a6.87,6.87,0,0,1,.06-.84A.71.71,0,0,0,56,3.34c-.05-.08-.1-.12-.15-.11a.13.13,0,0,0-.11.07.21.21,0,0,0-.05.09l-.2.46a9.53,9.53,0,0,0-.51,1.36,4.4,4.4,0,0,0-.15.87,1.06,1.06,0,0,0,0,.14,1.09,1.09,0,0,0,0,.17,1.83,1.83,0,0,0,0,.21.8.8,0,0,1,0,.19v0a.48.48,0,0,0,.06.24c0,.07.08.11.12.11A.38.38,0,0,0,55.18,7.07Z" style="fill:#7e9a3d"/></g></g><g style="isolation:isolate"><g style="isolation:isolate"><path d="M6.29,56.41a2.65,2.65,0,0,0-1.62-.66q-1-.09-1.32-.15c-.52-.05-.78-.28-.79-.67a1,1,0,0,1,.23-.52.75.75,0,0,1,.3-.24,4.78,4.78,0,0,1,2.28.1,3.42,3.42,0,0,1,1.93.95c.37.6.44,1,.22,1.29S6.82,56.86,6.29,56.41ZM4.42,68.22a.68.68,0,0,1,.13-1.09c2.33-1.67,4.13-2.89,5.42-3.66a.81.81,0,0,1,1,.46c.17.25.05.53-.36.85s-2.17,1.52-5,3.54A.86.86,0,0,1,4.42,68.22Zm6.37-17.61a1.77,1.77,0,0,0-.4-.33L6.12,47.44,5.55,47c-.32-.41-.42-.73-.28-1s.56-.47,1.11-.32l1.33,1,3.47,2.16a5.44,5.44,0,0,1,1.13,1.33c.11.37.06.63-.14.79a.57.57,0,0,1-.67,0A1.53,1.53,0,0,1,10.79,50.61Z" style="fill:#7e9a3d"/></g></g><g style="isolation:isolate"><g style="isolation:isolate"><path d="M81.85,51a.54.54,0,0,1-.66,0c-.2-.16-.25-.42-.15-.79a5.72,5.72,0,0,1,1.13-1.33l3.48-2.16,1.33-1c.54-.14.91,0,1.11.32s0,.56-.28,1l-.57.44L83,50.29a1.85,1.85,0,0,0-.4.34A1.51,1.51,0,0,1,81.85,51ZM87.7,68.33c-2.82-2-4.49-3.19-5-3.54s-.53-.6-.36-.85a.81.81,0,0,1,1-.46q1.94,1.16,5.41,3.66a.68.68,0,0,1,.14,1.09A.86.86,0,0,1,87.7,68.33ZM85.83,56.52c-.22-.26-.15-.69.22-1.29A3.42,3.42,0,0,1,88,54.28a4.75,4.75,0,0,1,2.28-.09.62.62,0,0,1,.31.24,1.09,1.09,0,0,1,.23.51c0,.4-.28.62-.8.68-.21,0-.65.09-1.32.14a2.65,2.65,0,0,0-1.62.66C86.54,56.87,86.13,56.91,85.83,56.52Z" style="fill:#7e9a3d"/></g></g><g style="isolation:isolate"><g style="isolation:isolate"><path d="M46,89a2.07,2.07,0,0,1-.61-1.13,3.73,3.73,0,0,1-1.31,1.36,3.53,3.53,0,0,1-1.84.45,3.19,3.19,0,0,1-1.77-.48,3.12,3.12,0,0,1-1.12-1.29,4.16,4.16,0,0,1-.38-1.77,4,4,0,0,1,.59-2.24,4.62,4.62,0,0,1,1.38-1.43,13.75,13.75,0,0,1,1.89-1,1.72,1.72,0,0,1-1.16-.76,2.64,2.64,0,0,1-.5-1.61,2.58,2.58,0,0,1,1.47-2.36,3.11,3.11,0,0,1,1.46-.34,3.72,3.72,0,0,1,1.23.22l-.57.84A2.63,2.63,0,0,0,44,77.3a1.75,1.75,0,0,0-1.3.5,1.64,1.64,0,0,0-.5,1.21,1.35,1.35,0,0,0,0,.22,1.79,1.79,0,0,0,.7,1.24,2.18,2.18,0,0,0,1.33.43,2.12,2.12,0,0,0,.49-.06l.5-.09V78.23h1.05v2.3l1.34-.29.22,1-1.56.35v5.28a2.66,2.66,0,0,0,.29,1.26,1.52,1.52,0,0,0,.92.74l-.29.8A2.82,2.82,0,0,1,46,89Zm-4.51-5.72A3.15,3.15,0,0,0,40,86.1a2.67,2.67,0,0,0,.61,1.84,2.23,2.23,0,0,0,1.76.7,2.48,2.48,0,0,0,1.5-.47,3.14,3.14,0,0,0,1-1.21,3.55,3.55,0,0,0,.36-1.55V81.78A11.58,11.58,0,0,0,41.46,83.24Z" style="fill:#7e9a3d"/></g></g></svg>