<svg xmlns="http://www.w3.org/2000/svg" viewBox="0 0 226.31 307.85"><g style="isolation:isolate"><text transform="translate(51.8 151.34)" style="isolation:isolate;font-size:43px;fill:#7e9a3d;font-family:AdventPro-Regular, Advent Pro;letter-spacing:0.0499977289244186em">ΓΕΥΣΗ</text></g><g style="isolation:isolate"><text transform="translate(39.25 99.37)" style="isolation:isolate;font-size:87px;fill:#7e9a3d;font-family:NF-Takhie-Free-Regular, NF-Takhie-Free">ΑΡΩΜΑ</text></g><g style="isolation:isolate"><text transform="translate(0 255.43)" style="isolation:isolate;font-size:43px;fill:#7e9a3d;font-family:AdventPro-Regular, Advent Pro;letter-spacing:0.0499977289244186em">ΘΡΕΠΤΙΚΕΣ </text><text transform="translate(42.72 298.43)" style="isolation:isolate;font-size:43px;fill:#7e9a3d;font-family:AdventPro-Regular, Advent Pro;letter-spacing:0.0499977289244186em">ΟΥΣΙΕΣ</text></g><g style="isolation:isolate"><text transform="translate(89.83 19.44)" style="isolation:isolate;font-size:25px;fill:#7e9a3d;font-family:NF-Takhie-Free-Regular, NF-Takhie-Free"><tspan style="letter-spacing:-0.02220703125em">Γ</tspan><tspan x="5.25" y="0">εμ</tspan><tspan x="21.56" y="0" style="letter-spacing:-0.02220703125em">άτ</tspan><tspan x="35.83" y="0">α</tspan></text></g><g style="isolation:isolate"><g style="isolation:isolate"><path d="M20.13,128.77a5.85,5.85,0,0,0-3.61-1.48q-2.23-.2-2.94-.33-1.72-.18-1.77-1.5a2.35,2.35,0,0,1,.51-1.15,1.5,1.5,0,0,1,.68-.53,10.48,10.48,0,0,1,5.09.21q3.22.75,4.29,2.12c.83,1.33,1,2.29.49,2.88C22.22,129.84,21.3,129.77,20.13,128.77ZM16,155.09a1.53,1.53,0,0,1,.31-2.43q7.77-5.58,12.06-8.16a1.82,1.82,0,0,1,2.31,1c.38.56.11,1.2-.8,1.9q-1.68,1.16-11.14,7.89A1.9,1.9,0,0,1,16,155.09Zm14.21-39.25a4.15,4.15,0,0,0-.89-.75l-9.52-6.31-1.28-1c-.71-.91-.92-1.63-.62-2.16.44-.8,1.26-1,2.48-.71l3,2.16L31,111.91a12.69,12.69,0,0,1,2.52,3,1.53,1.53,0,0,1-.33,1.77,1.26,1.26,0,0,1-1.48.09A3.57,3.57,0,0,1,30.16,115.84Z" style="fill:#7e9a3d"/></g></g><g style="isolation:isolate"><g style="isolation:isolate"><path d="M188.6,116.75a1.23,1.23,0,0,1-1.48-.09q-.69-.52-.33-1.77a12.41,12.41,0,0,1,2.52-3l7.75-4.81,3-2.16c1.22-.32,2-.09,2.48.71.3.54.09,1.26-.62,2.17l-1.29,1-9.51,6.31a3.92,3.92,0,0,0-.89.75A3.48,3.48,0,0,1,188.6,116.75Zm13,38.58q-9.45-6.74-11.13-7.89c-.91-.7-1.17-1.34-.79-1.9a1.79,1.79,0,0,1,2.3-1q4.29,2.57,12.06,8.15a1.53,1.53,0,0,1,.31,2.43A1.91,1.91,0,0,1,201.63,155.33ZM197.47,129c-.5-.59-.34-1.54.49-2.87q1.06-1.36,4.29-2.12a10.61,10.61,0,0,1,5.09-.21,1.57,1.57,0,0,1,.68.53,2.39,2.39,0,0,1,.51,1.15q0,1.33-1.77,1.5-.7.14-2.94.33a5.9,5.9,0,0,0-3.61,1.47C199,129.8,198.12,129.87,197.47,129Z" style="fill:#7e9a3d"/></g></g><g style="isolation:isolate"><text transform="translate(91.48 202.39)" style="isolation:isolate;font-size:41px;fill:#7e9a3d;font-family:AdventPro-Regular, Advent Pro;letter-spacing:0.049995236280487805em">&amp;</text></g></svg>