<svg xmlns="http://www.w3.org/2000/svg" viewBox="0 0 283.02 383.99"><g style="isolation:isolate"><g style="isolation:isolate"><path d="M78.2,166h-10v-3H91.89v3H81.51v38.34H78.2Z" style="fill:#7e9a3d"/><path d="M111.19,189.89H97.73l-4.6,14.45H89.65L102.87,163H106l13.46,41.3h-3.54Zm-12.51-3.25H110.3l-5.9-18.46Z" style="fill:#7e9a3d"/><path d="M130,197.68a9.71,9.71,0,0,0,3.65,3,12,12,0,0,0,5.34,1.15,13.29,13.29,0,0,0,7.58-2c2-1.35,3-3.51,3-6.46a6.47,6.47,0,0,0-1.47-4.33,10.81,10.81,0,0,0-3.66-2.78c-1.46-.69-3.44-1.48-6-2.39a59.62,59.62,0,0,1-6.52-2.62,12.29,12.29,0,0,1-4.13-3.28,8.12,8.12,0,0,1-1.68-5.31,9,9,0,0,1,1.48-4.92,10.41,10.41,0,0,1,4.45-3.78,16.81,16.81,0,0,1,7.35-1.44,22.61,22.61,0,0,1,4.77.41,17.47,17.47,0,0,1,3.84,1.35l-1,3.13a16.32,16.32,0,0,0-7.5-1.71,12.45,12.45,0,0,0-7.25,1.89,6,6,0,0,0-2.72,5.25,5,5,0,0,0,1.36,3.57,10.22,10.22,0,0,0,3.33,2.33q2,.88,5.52,2.12a67.39,67.39,0,0,1,7,2.75,12.51,12.51,0,0,1,4.51,3.6,9.11,9.11,0,0,1,1.86,5.87,11.43,11.43,0,0,1-3.45,8.7Q146.29,205,139.09,205a15.9,15.9,0,0,1-7.46-1.62,12,12,0,0,1-4.72-4.19,10.76,10.76,0,0,1-1.74-5.34h3.36A7.6,7.6,0,0,0,130,197.68Z" style="fill:#7e9a3d"/><path d="M169.06,166H159v-3h23.72v3H172.37v38.34h-3.31Z" style="fill:#7e9a3d"/><path d="M190.3,163H210v3.07h-16.4V180h11.27l-1.12,3.24H193.61v18.17h16.28v3H190.3Z" style="fill:#7e9a3d"/></g></g><g style="isolation:isolate"><g style="isolation:isolate"><path d="M39,132.22q-1.92-1.26-1.92-2.31a91.25,91.25,0,0,1,1.06-11.37q1.32-9.53,2.11-14.28a191.66,191.66,0,0,1,5.16-22.88l1.06-4q.66-3,1.58-6c.18-.7.62-2.24,1.33-4.62s1.36-4.37,2-6a25.84,25.84,0,0,1,1.72-3.71l3.44-.26a4.88,4.88,0,0,1,4,2.25,12.21,12.21,0,0,1,2.18,4.76l5.16,38.34a141,141,0,0,1,1.32,16,58.74,58.74,0,0,0,1.06,9.52c.17.79.35,1.81.53,3a3.77,3.77,0,0,1,.13,1.06c0,1-.4,1.45-1.19,1.45a2.93,2.93,0,0,1-2.84-2.05,12.24,12.24,0,0,1-.86-4.82,73.35,73.35,0,0,0-.93-10.58c-.09-1-.22-2.18-.4-3.64s-.31-3.1-.39-5c0-.88-.4-1.33-1.19-1.33L58,105.84c-.62,0-2.07.09-4.36.27a2.32,2.32,0,0,0-1.92,1.25,13.87,13.87,0,0,0-1,2.38c-.27.84-.44,1.44-.53,1.79a23.15,23.15,0,0,0-1.39,5.62c-.31,2.25-.51,3.77-.59,4.56-.09.44-.31,1.59-.67,3.44a34.13,34.13,0,0,1-1.19,4.69c-.44,1.28-.88,2-1.32,2.18l-2.51,1.32A5.58,5.58,0,0,1,39,132.22ZM63.37,103.4a2.06,2.06,0,0,0,.66-1.79L61.26,79.13l-1.19-9.52a16.2,16.2,0,0,0-.86,4.17c-.14,1.54-.25,2.58-.33,3.11a106.19,106.19,0,0,1-2.52,12.29q-2.25,9.25-2.77,10.58a5.77,5.77,0,0,0-.27,1.85c0,1.24.49,1.85,1.46,1.85a35.15,35.15,0,0,1,3.7.27l2.78.13A3.73,3.73,0,0,0,63.37,103.4Z" style="fill:#7e9a3d"/><path d="M85.78,133.48a6.43,6.43,0,0,1-1.25-1.19,9,9,0,0,1-1.33-2.78,27.15,27.15,0,0,1-.66-3.7,146.29,146.29,0,0,1-.92-19.17q.8-11.91,1.58-17.72c.36-4.06.53-7,.53-9a102.6,102.6,0,0,1,1.19-11.77l1.46-7.93a2.29,2.29,0,0,1,1.12-1.85A5.91,5.91,0,0,1,90,58a4.31,4.31,0,0,1,3.37,1.39,5.38,5.38,0,0,1,1.26,3.76c0,1.94.06,3.55.19,4.83a6,6,0,0,0,1.13,3.11c.44-.62,1-1.52,1.78-2.71a12.35,12.35,0,0,1,2.18-2.71c.36-.35,1-1,2-1.79A9.87,9.87,0,0,1,105,62.08a11.79,11.79,0,0,1,3.7-.53,10.48,10.48,0,0,1,5.16,1.25q2.25,1.26,2.25,2.85a2.51,2.51,0,0,0,.2.92,2.58,2.58,0,0,1,.19.8,10.88,10.88,0,0,1,.27,2,7.18,7.18,0,0,1-.93,3.44,14.56,14.56,0,0,0-1,2.51c-.18.44-.47,1.08-.86,1.92a17.12,17.12,0,0,1-1.13,2c-.26.35-.7,1-1.32,2a15.76,15.76,0,0,1-1.92,2.57,12.41,12.41,0,0,1-2.18,1.86,5.15,5.15,0,0,0-1,1A2,2,0,0,0,106,88a1.44,1.44,0,0,0,.39,1.06,12,12,0,0,1,2.32,3.24,40.94,40.94,0,0,1,1.78,4.56,43.63,43.63,0,0,1,1.59,7.54c0,.35.26,1.89.79,4.63a56.23,56.23,0,0,1,.93,6.48,53.63,53.63,0,0,0,.79,6.41,15.33,15.33,0,0,0,2,5.09,10.94,10.94,0,0,0,2.38,2.91c1.15,1.05,1.94,1.58,2.38,1.58s.91-.39,1.39-1.19.88-1.41,1.19-1.85a.87.87,0,0,1,1.13-.39,1.26,1.26,0,0,1,.39.92,4.37,4.37,0,0,1-1.78,3.37,5,5,0,0,1-3.64,1.39,11.07,11.07,0,0,1-7.07-3.44,12.06,12.06,0,0,1-3.77-7.14c-.27-1.32-.57-3.39-.93-6.21q-.66-4.89-1.58-9.26c0-.08-.13-1.1-.4-3a25.21,25.21,0,0,0-2.64-9.39,18.09,18.09,0,0,1-.73-1.78,4.61,4.61,0,0,0-1.12-1.85,1.58,1.58,0,0,0-1.72-.2,2.85,2.85,0,0,1-3-.66,3.29,3.29,0,0,1-1-3c.53-2.12,1.37-3.48,2.51-4.1q2.77-1.59,6-6.88a39,39,0,0,0,4.29-8.86,10.8,10.8,0,0,0,.27-1.85c0-1.32-.62-1.76-1.85-1.32a10.92,10.92,0,0,0-4.7,3,36.07,36.07,0,0,0-4,5.69L97.09,75.7A13.74,13.74,0,0,0,95,80.92a61.83,61.83,0,0,0-.79,7.6Q94,91,93.52,96.06q-.8,8.73-.8,12.82c0,1.85,0,3.46.14,4.83s.13,2.23.13,2.58l-.13,6.34a19.86,19.86,0,0,0,.39,3.84,4.47,4.47,0,0,1-.33,2.64,12.68,12.68,0,0,0-.72,2.52A16.89,16.89,0,0,0,90.08,133a4.62,4.62,0,0,1-2.64.92A3,3,0,0,1,85.78,133.48Z" style="fill:#7e9a3d"/><path d="M138.21,132.82q-4.5-1.2-6-6.22A37.69,37.69,0,0,1,130.41,116a21.09,21.09,0,0,0-.27-2.77l-.39-2.78q-.41-4.23-.4-8.33,0-3.57.73-11.64t1.38-13a52.75,52.75,0,0,1,3.11-12c1.46-3.66,3.06-6.06,4.83-7.2q2.78-2.39,2.91-2.52a8.73,8.73,0,0,1,6.21-2.51,14,14,0,0,1,4.89,1,5.4,5.4,0,0,1,3.44,3.11A7.91,7.91,0,0,0,158,59.7l1.32,3.3.8,4.1c0,1.32.08,3.4.26,6.22.09,1.76,0,4.49-.13,8.19l-.13,2.78A108.87,108.87,0,0,1,159,95.46q-.93,5.9-1.06,6.94l-1.72,12q0,4.23-2.91,10.31c-.18.26-.53.82-1.06,1.65a7.65,7.65,0,0,0-1.05,2.45,2.82,2.82,0,0,1-1.86,2,18.49,18.49,0,0,0-3,1.46,6.82,6.82,0,0,1-3.1.72c-1.28.05-2.19.07-2.71.07A6.89,6.89,0,0,1,138.21,132.82Zm9.78-5.43q3.57-5.94,4-10.31c.26-1.76.75-4.41,1.45-7.93l.53-3,.4-2.78q1.84-11.37,2.25-17.06l.39-4.49q.53-4.77.53-7.14c0-1.06-.13-2.91-.39-5.56a9.75,9.75,0,0,0,.13-1.71,13.45,13.45,0,0,0-.6-3.77c-.39-1.37-.81-2.67-1.25-3.9a4,4,0,0,0-1.46-1.79,3.87,3.87,0,0,0-2.11-.59c-2.3,0-4.19,1.85-5.69,5.55q-1.06,2.38-1.32,2.91a21.9,21.9,0,0,0-1.59,3.83A61,61,0,0,0,141.78,76a24,24,0,0,1-.53,3,95.61,95.61,0,0,0-1.72,12.56c0,.18-.13,1.32-.4,3.44,0,.44-.06,1.26-.19,2.45a14.33,14.33,0,0,0-.07,3.1,16.83,16.83,0,0,1-.13,3.44,23.56,23.56,0,0,0-.14,3c.18,1.77.27,3.13.27,4.1a41.81,41.81,0,0,0,.92,7.93l-.13,1.33a18.24,18.24,0,0,0,1.59,6.34,3.63,3.63,0,0,0,1.45,2.12,7.64,7.64,0,0,0,2.52.79C146.27,129.64,147.2,128.89,148,127.39Z" style="fill:#7e9a3d"/><path d="M168.09,133.61a2,2,0,0,1-1.19-1.19,14.31,14.31,0,0,1-1.85-7.54l.13-7.53c.18-5,.22-8.77.13-11.24q0-7.14.27-10.71c.09-1.68.13-4.23.13-7.67q.27-2.91,1.06-9.79l.53-4.62.39-3.84c.18-1.76.36-3.08.53-4a19.06,19.06,0,0,1,.47-2c.21-.79.37-1.45.46-2a2.56,2.56,0,0,0-.33-.93,1.44,1.44,0,0,1-.2-1.06,3.22,3.22,0,0,1,3.31-1.85,3,3,0,0,1,2.51,1.19,20.73,20.73,0,0,1,1.85,3c.61,1.19,1.1,2.14,1.45,2.84q2.12,3.57,6.61,10.71a13.19,13.19,0,0,1,1.06,1.85,4.58,4.58,0,0,0,1.46,1.85A42.45,42.45,0,0,1,190,72.39l1.45-3a34.69,34.69,0,0,0,2.38-4.89,54.94,54.94,0,0,1,3-5.56,3.09,3.09,0,0,1,2.45-1.72,3.21,3.21,0,0,1,1.85.67,1.93,1.93,0,0,1,.92,1.58l-.13,2.12c0,1.58,0,3,.13,4.1s.18,2.07.27,2.77c.08,2.38.13,5.91.13,10.58v4.36c-.09,1.24-.13,3-.13,5.43v5.55q0,1.32.06,3.24c0,1.28,0,2.8-.06,4.56a22.19,22.19,0,0,0-.14,2.91q0,9.92-.26,11.9-.13,2.25-.13,7.4c-.09,1.15-.13,2.87-.13,5.16a4.41,4.41,0,0,1-.86,2.64c-.58.8-1,1.19-1.39,1.19s-.78-.5-1-1.52a10.05,10.05,0,0,1-.2-3.1l.26-3.84a29,29,0,0,0-.13-3.3q0-5.16.13-7.8c0-1,0-2.25.07-3.84s0-3.44-.07-5.55a54.18,54.18,0,0,1,.13-6.22q.27-3.17.27-4.89v-12q0-7.8-.4-8.33-.39.39-5.42,11.77c-.26.7-1.23,1.06-2.91,1.06s-3.3-1.24-4.63-3.71c-2.55-4.4-4.58-8.11-6.08-11.1l-1.58-2.38a12.89,12.89,0,0,1-2-2.91q-.13.66-.39,2.31a6.79,6.79,0,0,0,0,2.71,44.18,44.18,0,0,1,.26,5.55c0,2,0,3.4.13,4.37a6.78,6.78,0,0,1,.13,1.72c0,1.14,0,2.22-.13,3.24s-.13,1.83-.13,2.44a20.41,20.41,0,0,1,.13,3.18,23.37,23.37,0,0,1-.13,3.3l-.53,9.52.13,2.51a56.1,56.1,0,0,1,.27,9.66q-.4,4.09-.66,12a6,6,0,0,1-.2,1.85,1.88,1.88,0,0,1-.86.92,2.4,2.4,0,0,0-1.19,1.46,1.93,1.93,0,0,1-2.65,1.59A9.69,9.69,0,0,1,168.09,133.61Z" style="fill:#7e9a3d"/><path d="M212.32,132.22q-1.92-1.26-1.92-2.31a91.25,91.25,0,0,1,1.06-11.37q1.32-9.53,2.11-14.28a191.66,191.66,0,0,1,5.16-22.88l1.06-4q.66-3,1.59-6,.26-1,1.32-4.62c.7-2.38,1.36-4.37,2-6a25.84,25.84,0,0,1,1.72-3.71l3.44-.26a4.88,4.88,0,0,1,4,2.25,12.21,12.21,0,0,1,2.18,4.76l5.16,38.34a141,141,0,0,1,1.32,16,58.74,58.74,0,0,0,1.06,9.52c.17.79.35,1.81.53,3a3.77,3.77,0,0,1,.13,1.06c0,1-.4,1.45-1.19,1.45a2.93,2.93,0,0,1-2.84-2.05,12.24,12.24,0,0,1-.86-4.82,73.35,73.35,0,0,0-.93-10.58c-.09-1-.22-2.18-.39-3.64s-.31-3.1-.4-5c0-.88-.4-1.33-1.19-1.33l-5.16-.13c-.62,0-2.07.09-4.36.27a2.32,2.32,0,0,0-1.92,1.25,13.87,13.87,0,0,0-1,2.38c-.26.84-.44,1.44-.53,1.79a23.15,23.15,0,0,0-1.39,5.62c-.31,2.25-.51,3.77-.59,4.56-.09.44-.31,1.59-.66,3.44a35.64,35.64,0,0,1-1.19,4.69c-.45,1.28-.89,2-1.33,2.18l-2.51,1.32A5.58,5.58,0,0,1,212.32,132.22Zm24.39-28.82a2.06,2.06,0,0,0,.66-1.79L234.6,79.13l-1.19-9.52a16.63,16.63,0,0,0-.86,4.17c-.13,1.54-.25,2.58-.33,3.11a107.66,107.66,0,0,1-2.51,12.29q-2.25,9.25-2.78,10.58a5.77,5.77,0,0,0-.27,1.85c0,1.24.49,1.85,1.46,1.85a35.15,35.15,0,0,1,3.7.27l2.78.13A3.73,3.73,0,0,0,236.71,103.4Z" style="fill:#7e9a3d"/></g></g><g style="isolation:isolate"><g style="isolation:isolate"><path d="M3.3,348.12v35.22H0V342H3.3l22.42,35.23V342H29v41.3H25.72Z" style="fill:#7e9a3d"/><path d="M65.9,342v30.38c0,4-1.21,6.87-3.63,8.67a14.19,14.19,0,0,1-8.76,2.72A14.34,14.34,0,0,1,44.72,381c-2.44-1.8-3.66-4.7-3.66-8.67V342h3.31v30.85A7.13,7.13,0,0,0,47,378.62a9.76,9.76,0,0,0,6.46,2.19,9.86,9.86,0,0,0,6.49-2.19,7.1,7.1,0,0,0,2.66-5.78V342Z" style="fill:#7e9a3d"/><path d="M83.07,345H73v-3H96.76v3H86.38v38.34H83.07Z" style="fill:#7e9a3d"/><path d="M121.6,368.71a14.24,14.24,0,0,1-2.36.18H107.61v14.45h-3.3V342h14.52c3.73,0,6.51,1.15,8.34,3.43s2.75,5.35,2.75,9.2a28.7,28.7,0,0,1-1,7.85,8.33,8.33,0,0,1-4.21,5.19L130,383.34h-3.37Zm2.62-4.83a7.88,7.88,0,0,0,2-4,30.41,30.41,0,0,0,.38-5q0-4.85-2-7.26a6.83,6.83,0,0,0-5.55-2.42H107.61v20.47H119.3A6.38,6.38,0,0,0,124.22,363.88Z" style="fill:#7e9a3d"/><path d="M143.78,345.05l-3.95-.11V342h7.26v41.3h-3.31Z" style="fill:#7e9a3d"/><path d="M159.06,342h19.71v3.07h-16.4V359h11.26l-1.12,3.24H162.37v18.17h16.28v2.95H159.06Z" style="fill:#7e9a3d"/><path d="M192.75,348.12v35.22h-3.3V342h3.3l22.42,35.23V342h3.3v41.3h-3.3Z" style="fill:#7e9a3d"/><path d="M236.17,345h-10v-3h23.72v3H239.48v38.34h-3.31Z" style="fill:#7e9a3d"/><path d="M259.86,376.68a9.83,9.83,0,0,0,3.66,3,12,12,0,0,0,5.34,1.15,13.29,13.29,0,0,0,7.58-2c2-1.35,3-3.51,3-6.46A6.43,6.43,0,0,0,278,368a10.77,10.77,0,0,0-3.65-2.78c-1.46-.69-3.45-1.48-6-2.39a58.81,58.81,0,0,1-6.52-2.62,12.29,12.29,0,0,1-4.13-3.28,8.12,8.12,0,0,1-1.68-5.31,9.06,9.06,0,0,1,1.47-4.92A10.44,10.44,0,0,1,262,342.9a16.76,16.76,0,0,1,7.34-1.44,22.65,22.65,0,0,1,4.78.41,17.47,17.47,0,0,1,3.84,1.35l-1,3.13a16.28,16.28,0,0,0-7.49-1.71,12.49,12.49,0,0,0-7.26,1.89,6,6,0,0,0-2.71,5.25,5,5,0,0,0,1.36,3.57,10.22,10.22,0,0,0,3.33,2.33q2,.88,5.52,2.12a67.39,67.39,0,0,1,7,2.75,12.59,12.59,0,0,1,4.51,3.6A9.11,9.11,0,0,1,283,372a11.43,11.43,0,0,1-3.45,8.7Q276.12,384,268.92,384a15.9,15.9,0,0,1-7.46-1.62,12,12,0,0,1-4.72-4.19,10.56,10.56,0,0,1-1.74-5.34h3.36A7.67,7.67,0,0,0,259.86,376.68Z" style="fill:#7e9a3d"/></g></g><g style="isolation:isolate"><g style="isolation:isolate"><path d="M93.84,301.74a7.13,7.13,0,0,1-.75-3.28l-.3-9.83v-2.09a5.62,5.62,0,0,0-1.19-3.87,1.59,1.59,0,0,1-.44-1.19,2.57,2.57,0,0,1,1.19-2.09,5.86,5.86,0,0,0,1.79-4.17q1.94-13.86,5.06-22.2a14.65,14.65,0,0,1,2.53-4.32,3.86,3.86,0,0,1,2.84-1.49,3.76,3.76,0,0,1,2.83,1.64,19.62,19.62,0,0,1,2.68,5.36,93.22,93.22,0,0,1,2.68,11.47q1.33,9.24,3.73,27.72v1a17.71,17.71,0,0,1-.3,2.68,3.82,3.82,0,0,1-.9.9,3.08,3.08,0,0,1-1.19.59H114a2,2,0,0,1-1-.29,1.41,1.41,0,0,1-.67-.75,8.23,8.23,0,0,1-1-3c-.3-1.88-.65-5-1-9.24a5.83,5.83,0,0,0-.67-2.46c-.25-.24-1.07-.32-2.46-.22L102,283a5.13,5.13,0,0,0-3.13.89,4.84,4.84,0,0,0-.89,3,32.66,32.66,0,0,0-.07,3.88c0,1.09.07,2,.07,2.68h-.15v5.06a7.07,7.07,0,0,1-.45,3.06,2,2,0,0,1-1.64,1A1.86,1.86,0,0,1,93.84,301.74Zm0-58.78a2.26,2.26,0,0,1-1.19-1.86,1.89,1.89,0,0,1,1-1.56,5.4,5.4,0,0,1,2.61-.82l19.67-.9q11.33-.58,17.13-.59t8.65.15l8.64.14,19.07.45a16.77,16.77,0,0,1,3.73.3,2.64,2.64,0,0,1,1.56,1.12,1.89,1.89,0,0,1,.22,1.71,2.87,2.87,0,0,1-.82,1.27,2.94,2.94,0,0,1-1.26.82,22.52,22.52,0,0,1-3.28.07c-1.29,0-2.24-.07-2.83-.07q-12.82-.6-19.07-.75a41.63,41.63,0,0,0-4.25-.07c-1.24,0-2.26.07-3,.07h-3.58V242q-26.22,1.2-39.34,1.64a.57.57,0,0,0-.44.15.61.61,0,0,1-.45.15A5.6,5.6,0,0,1,93.84,243Zm4.24,68.32a3.51,3.51,0,0,1-1-1.34.87.87,0,0,1-.15-.6c0-.89.59-1.49,1.78-1.79a31.85,31.85,0,0,1,3.73-.74q6-.3,9.24-.6l9.83-.59q6-.3,9.09-.3l4.47-.15v.15h18q6.41,0,19.22.3a11.54,11.54,0,0,0,1.27-.08,5.72,5.72,0,0,1,1.56.08c2.48.3,3.63,1.14,3.43,2.53q-.3,2.39-3.43,2.68a50.17,50.17,0,0,1-6.41-.15l-6.25-.15q-8.35-.28-12.52-.29-6,0-12.07.44a8.34,8.34,0,0,1-2.61-.15,17.35,17.35,0,0,0-2.45-.29q-4.77.15-13.56.74l-13.56.9A36.49,36.49,0,0,1,102,312a19.39,19.39,0,0,1-2.68-.14A2,2,0,0,1,98.08,311.28ZM108,277.16a.84.84,0,0,0,.6-.37c.2-.25.35-.43.45-.53L107,262.56q-.45-2.24-1.64-6.71a2.2,2.2,0,0,0-1-.74.75.75,0,0,0-.37.14.51.51,0,0,0-.23.45l-4.62,20.86q0,.3.6.9c.39.39.69.54.89.44A42.45,42.45,0,0,0,108,277.16Zm15.8,23.24a1.44,1.44,0,0,1-1-.52,4.29,4.29,0,0,1-.82-1.12,5.36,5.36,0,0,1-.45-1.64,11.89,11.89,0,0,1-.15-1.49l-.59-10.58q-.6-7.89-.9-15.64-.15-3-.15-8.79V252a5.6,5.6,0,0,1,.45-2.24c.5-1.69,1.29-2.53,2.38-2.53a3,3,0,0,1,2.39,1.34,16.6,16.6,0,0,1,2.08,3.13l13.71,32.78a7.18,7.18,0,0,0,1,1.94l1-.15q0-6.86.3-20.57c0-1,0-2.18-.08-3.57s0-3,.08-4.92a5.12,5.12,0,0,1,1.19-3.28,1.47,1.47,0,0,1,1.34-.74,1.75,1.75,0,0,1,1.79,1.19,18.1,18.1,0,0,1,.89,4.92q0,4-.3,12.07c-.2,3.57-.29,6.31-.29,8.19v5.51c0,2.49-.06,4.38-.15,5.67a42,42,0,0,1-1,6c-.1,1.39-1,2.28-2.83,2.68l-.59.15c-.9,0-1.64-.7-2.24-2.09a42.61,42.61,0,0,1-2.53-5.51q-8.05-19.67-12.22-29.5l-.74-1.05-.3,1.49a8.4,8.4,0,0,0-.15,1.64l.89,14,.3,10.28.45,7.6v.89a2,2,0,0,1-.3,1.34,5.93,5.93,0,0,1-1.12,1.12,3.45,3.45,0,0,1-1.26.67Zm32.78.9a2.76,2.76,0,0,1-2.16-.9,3.82,3.82,0,0,1-.82-2.68q-.15-3.27-.15-9.83h.15l.89-36.06q.3-4.77,3.73-4.77a8.15,8.15,0,0,1,1.63.3q21.61,6.1,27.42,25a22.58,22.58,0,0,1,1,6.11,16,16,0,0,1-2.53,8.86,22.18,22.18,0,0,1-7,6.78,23.81,23.81,0,0,1-5.37,2.61,74.6,74.6,0,0,1-7.3,2l-3.57.9-4,1.19A4.89,4.89,0,0,1,156.57,301.3Zm8.19-7.75a60.73,60.73,0,0,0,9.69-3q8.34-3.58,8.34-11.77a18.49,18.49,0,0,0-.89-5.52,27.1,27.1,0,0,0-8-12.81,38.54,38.54,0,0,0-14.23-7.6l-.9,36.65a33.06,33.06,0,0,0,.15,3.73c0,1.39.55,1.89,1.64,1.49Z" style="fill:#7e9a3d"/></g></g><g style="isolation:isolate"><g style="isolation:isolate"><path d="M109.74,29.67a4.08,4.08,0,0,1-.43-2.06c0-1,.09-2.68.27-5.17q.12-1.17.12-1.71l0-2.65a7.23,7.23,0,0,0-1,1.4,20.53,20.53,0,0,1-1.32,1.91l-.2.23a1.7,1.7,0,0,1-.39.33.24.24,0,0,1-.31,0,.32.32,0,0,1-.11-.19.42.42,0,0,1,.11-.25,1.06,1.06,0,0,0,.16-.22l.85-1.32c.68-1,1.39-2.11,2.14-3.31a2.6,2.6,0,0,0,.35-1.12c0-2.62.06-4.59.16-5.91a27.11,27.11,0,0,1,.54-3.47,12.22,12.22,0,0,1,2-4.7,3.44,3.44,0,0,1,1-1A2.22,2.22,0,0,1,114.87,0c.75,0,1.13.66,1.13,2a5.81,5.81,0,0,1-.12,1.17c-.1.73-.2,1.32-.31,1.79a6.6,6.6,0,0,1-.46,1.36l-.47,1a11.31,11.31,0,0,0-.7,1.4,4.64,4.64,0,0,0-.39,1.21,7.3,7.3,0,0,1-.27.89L113,12.52c0,.55,0,1,0,1.42s-.06.75-.08,1l-.08.82,0,.35a.89.89,0,0,0,.12.35,4.25,4.25,0,0,1,1.71-.47c.39,0,.58.17.58.51a.55.55,0,0,1-.19.39l-1.17.5a1.47,1.47,0,0,0-1,.43,2.24,2.24,0,0,0-.31,1.21c0,.75-.16,2-.31,3.69-.08.7-.18,1.66-.29,2.88s-.2,2.18-.26,2.88a1.56,1.56,0,0,1-.35,1.07,1.06,1.06,0,0,1-.81.52A1,1,0,0,1,109.74,29.67Zm4.63-24.59a9.3,9.3,0,0,0,.31-1.15l.23-.9a4,4,0,0,0-.66,1.33,13.72,13.72,0,0,0-.35,1.71A5,5,0,0,0,114.37,5.08Z" style="fill:#7e9a3d"/><path d="M125.47,24.6a1.28,1.28,0,0,1-.41-.92,8.52,8.52,0,0,1,.08-1.55c0-.47.08-.78.08-.94a2.43,2.43,0,0,0,0-.46.46.46,0,0,0-.39.21,3.54,3.54,0,0,0-.31.53c-.11.2-.2.36-.27.46a5.48,5.48,0,0,1-1.44,1.56,3.77,3.77,0,0,1-2.38.89,2.26,2.26,0,0,1-1.28-.35,1.75,1.75,0,0,1-.74-1,6.9,6.9,0,0,1-.23-2l0-1.67a32,32,0,0,1,.29-4.07,28.46,28.46,0,0,1,.8-4.14,3.33,3.33,0,0,1,.54-1.12c.1-.13.27-.15.51,0l1,.38c.31.11.54.45.7,1l.11.93a34.42,34.42,0,0,0-1.67,9.18,8.86,8.86,0,0,0,.2,1.9c.83,0,1.6-.56,2.31-1.69a15,15,0,0,0,1.71-4.08,16.62,16.62,0,0,0,.64-4.26,1.94,1.94,0,0,1,.29-1.07.84.84,0,0,1,.69-.45c.41,0,.77.4,1.07,1.21a12.08,12.08,0,0,1,.44,3.81l0,3.93a13.76,13.76,0,0,1-.27,1.79c-.16.72-.27,1.2-.35,1.44a1.68,1.68,0,0,1-.33.77.72.72,0,0,1-.57.24A1.22,1.22,0,0,1,125.47,24.6Z" style="fill:#7e9a3d"/><path d="M132.88,25.88l-.16-.25a5.69,5.69,0,0,1-.89-2.49c0-.47,0-1.83,0-4.08a.34.34,0,0,0-.12-.31.61.61,0,0,0-.43,0c-.18,0-.27-.09-.27-.28a1.31,1.31,0,0,1,.2-.62,1,1,0,0,1,.39-.43,1.29,1.29,0,0,0,.35-.81,38.72,38.72,0,0,1,.38-4.63c.11-.75.17-1.27.2-1.56a36.9,36.9,0,0,1,1.83-8c.15-.36.35-.54.58-.54a1.88,1.88,0,0,1,1.3.46,2.29,2.29,0,0,1,.68,1.4,10.87,10.87,0,0,1,.2,1.54c0,.71.08,1.3.08,1.77A19.12,19.12,0,0,1,136,13.26a2.41,2.41,0,0,1-.18.43l-.17.35a20.71,20.71,0,0,0-.8,1.92,6.45,6.45,0,0,0-.33,1.77,6.63,6.63,0,0,1-.1,1.07c-.06.43-.11.76-.13,1q-.12,1.17-.12,1.95a8.72,8.72,0,0,0,.12,1.55c.07.45.13.72.15.82a1.86,1.86,0,0,1-.25,1.19,1.51,1.51,0,0,1-.88.72.63.63,0,0,1-.23,0C133,26.06,133,26,132.88,25.88Zm2.74-17.83a13.27,13.27,0,0,0,.17-2.1,7.61,7.61,0,0,0-.07-1L135.56,6a29.88,29.88,0,0,0-.39,4A12.87,12.87,0,0,0,135.62,8.05Z" style="fill:#7e9a3d"/><path d="M141.2,25.88l-.16-.25a5.82,5.82,0,0,1-.89-2.49c0-.47,0-1.83,0-4.08a.34.34,0,0,0-.12-.31.58.58,0,0,0-.42,0,.24.24,0,0,1-.28-.28,1.31,1.31,0,0,1,.2-.62,1,1,0,0,1,.39-.43,1.29,1.29,0,0,0,.35-.81,39.18,39.18,0,0,1,.39-4.63c.1-.75.16-1.27.19-1.56a37.5,37.5,0,0,1,1.83-8c.15-.36.35-.54.58-.54a1.88,1.88,0,0,1,1.3.46,2.36,2.36,0,0,1,.69,1.4,11.25,11.25,0,0,1,.19,1.54c0,.71.08,1.3.08,1.77a19.12,19.12,0,0,1-1.13,6.22,2.41,2.41,0,0,1-.18.43L144,14c-.34.73-.6,1.37-.8,1.92a6.45,6.45,0,0,0-.33,1.77,6.63,6.63,0,0,1-.1,1.07c-.06.43-.11.76-.13,1q-.12,1.17-.12,1.95a8.72,8.72,0,0,0,.12,1.55c.08.45.13.72.15.82a1.8,1.8,0,0,1-.25,1.19,1.52,1.52,0,0,1-.87.72.7.7,0,0,1-.24,0C141.35,26.06,141.28,26,141.2,25.88Zm2.74-17.83a13.34,13.34,0,0,0,.18-2.1,7.65,7.65,0,0,0-.08-1L143.88,6a29.88,29.88,0,0,0-.39,4A11.76,11.76,0,0,0,143.94,8.05Z" style="fill:#7e9a3d"/><path d="M157.4,23.76a2.65,2.65,0,0,1-1.07-1.17,8.7,8.7,0,0,1-.94-4.08,11.42,11.42,0,0,1,.12-1.67,9.27,9.27,0,0,1,.7-2.61c.08-.15.3-.67.68-1.55a8.51,8.51,0,0,1,1.26-2.14,1.93,1.93,0,0,1,1.37-.82,1.29,1.29,0,0,1,.38.08,7.61,7.61,0,0,0,1,.18,2.5,2.5,0,0,1,1.11.36l.58.55.47,1,.15.7.16.94a16,16,0,0,1-.16,3.34,30,30,0,0,1-.74,3.11l-.35,1.17a.49.49,0,0,1,0,.21.65.65,0,0,0,0,.18l-.38.7a9,9,0,0,1-.51.89,7.29,7.29,0,0,1-1.05,1,1.43,1.43,0,0,1-1,.2A4.33,4.33,0,0,1,157.4,23.76Zm2.15-.5a26,26,0,0,0,1.64-2.71,7.09,7.09,0,0,0,.5-2.12,11.06,11.06,0,0,0,.08-1.63l0-2.53a5.92,5.92,0,0,0-.43-2.91,1,1,0,0,1-.23-.26c-.08-.11-.16-.17-.23-.17-.29,0-.48.18-.59.54l-.54,1.6a38.7,38.7,0,0,0-1.21,4.24,16.74,16.74,0,0,0-.27,3.34,15.47,15.47,0,0,0,.16,1.63,1.63,1.63,0,0,0,.21.78q.21.39.45.39A.81.81,0,0,0,159.55,23.26Z" style="fill:#7e9a3d"/><path d="M168.54,29.67a4.08,4.08,0,0,1-.43-2.06c0-1,.09-2.68.27-5.17q.12-1.17.12-1.71l0-2.65a6.8,6.8,0,0,0-1,1.4,20.53,20.53,0,0,1-1.32,1.91l-.2.23a1.7,1.7,0,0,1-.39.33.24.24,0,0,1-.31,0,.27.27,0,0,1-.11-.19.37.37,0,0,1,.11-.25,1.06,1.06,0,0,0,.16-.22l.85-1.32c.68-1,1.39-2.11,2.14-3.31a2.6,2.6,0,0,0,.35-1.12q0-3.93.16-5.91a27.11,27.11,0,0,1,.54-3.47,12.22,12.22,0,0,1,2-4.7,3.33,3.33,0,0,1,1-1A2.22,2.22,0,0,1,173.67,0c.75,0,1.13.66,1.13,2a5.81,5.81,0,0,1-.12,1.17c-.1.73-.21,1.32-.31,1.79a6.09,6.09,0,0,1-.47,1.36l-.46,1a11.31,11.31,0,0,0-.7,1.4,4.64,4.64,0,0,0-.39,1.21,7.3,7.3,0,0,1-.27.89l-.24,1.75c0,.55,0,1,0,1.42s-.05.75-.07,1l-.08.82,0,.35a.89.89,0,0,0,.12.35,4.25,4.25,0,0,1,1.71-.47c.39,0,.58.17.58.51a.55.55,0,0,1-.19.39l-1.17.5a1.47,1.47,0,0,0-1,.43,2.15,2.15,0,0,0-.31,1.21c-.05.75-.16,2-.31,3.69-.08.7-.18,1.66-.29,2.88s-.2,2.18-.26,2.88a1.56,1.56,0,0,1-.35,1.07,1.08,1.08,0,0,1-.81.52A1,1,0,0,1,168.54,29.67Zm4.63-24.59a11.48,11.48,0,0,0,.31-1.15l.23-.9a4,4,0,0,0-.66,1.33,13.72,13.72,0,0,0-.35,1.71A5,5,0,0,0,173.17,5.08Z" style="fill:#7e9a3d"/></g></g><g style="isolation:isolate"><g style="isolation:isolate"><path d="M19,184.38a8.42,8.42,0,0,0-5.16-2.12c-2.14-.18-3.54-.34-4.22-.47-1.65-.16-2.49-.88-2.53-2.15A3.48,3.48,0,0,1,7.83,178a2.36,2.36,0,0,1,1-.76,15.27,15.27,0,0,1,7.28.31q4.62,1.08,6.14,3,1.79,2.85.7,4.11C22,185.92,20.69,185.81,19,184.38Zm-6,37.68a2.19,2.19,0,0,1,.44-3.48q11.13-8,17.27-11.67a2.58,2.58,0,0,1,3.3,1.45c.54.81.17,1.72-1.14,2.73Q30.5,212.74,17,222.38A2.73,2.73,0,0,1,13,222.06Zm20.34-56.18a5.88,5.88,0,0,0-1.27-1.08l-13.63-9-1.83-1.39c-1-1.31-1.32-2.34-.89-3.1.63-1.15,1.81-1.48,3.54-1l4.25,3.1,11.09,6.89c2.23,2.24,3.44,3.65,3.61,4.24.34,1.18.18,2-.47,2.53a1.77,1.77,0,0,1-2.12.13A5.06,5.06,0,0,1,33.37,165.88Z" style="fill:#7e9a3d"/></g></g><g style="isolation:isolate"><g style="isolation:isolate"><path d="M236.76,169a1.77,1.77,0,0,1-2.12-.13c-.65-.5-.81-1.35-.47-2.53.17-.59,1.38-2,3.61-4.24l11.09-6.89,4.25-3.09c1.73-.46,2.91-.13,3.54,1,.43.76.13,1.79-.89,3.1l-1.83,1.39-13.63,9a5.65,5.65,0,0,0-1.27,1.08A5.06,5.06,0,0,1,236.76,169Zm18.67,55.24q-13.53-9.64-15.94-11.3c-1.31-1-1.68-1.92-1.14-2.72a2.56,2.56,0,0,1,3.29-1.45q6.15,3.68,17.27,11.67a2.19,2.19,0,0,1,.44,3.48C258,225.14,256.74,225.25,255.43,224.23Zm-6-37.68c-.71-.85-.48-2.22.71-4.12q1.52-2,6.14-3c3.08-.71,5.51-.82,7.28-.31a2.36,2.36,0,0,1,1,.76,3.48,3.48,0,0,1,.73,1.65c0,1.27-.89,2-2.54,2.15-.67.13-2.07.29-4.21.47a8.42,8.42,0,0,0-5.16,2.11C251.7,187.67,250.39,187.77,249.46,186.55Z" style="fill:#7e9a3d"/></g></g></svg>