<svg xmlns="http://www.w3.org/2000/svg" viewBox="0 0 240.6 223.27"><g style="isolation:isolate"><g style="isolation:isolate"><path d="M21.15,182.84a13.8,13.8,0,0,1-8.7,2.8,15.81,15.81,0,0,1-6-1.15,10.16,10.16,0,0,1-4.63-3.74A11.47,11.47,0,0,1,0,174.08v-19q0-6.08,3.33-9.2c2.23-2.09,5.28-3.13,9.18-3.13s6.91,1.1,9,3.3,3.22,5.24,3.22,9.09v18.94Q24.78,180,21.15,182.84ZM19,148.06a9.78,9.78,0,0,0-6.64-2.18,9.67,9.67,0,0,0-6.61,2.18q-2.48,2.19-2.48,6.49V174a7.81,7.81,0,0,0,2.57,6.34,9.77,9.77,0,0,0,6.52,2.16,10.06,10.06,0,0,0,6.58-2.1c1.71-1.39,2.57-3.55,2.57-6.46V154.55Q21.54,150.25,19,148.06Z" style="fill:#7e9a3d"/><path d="M36.23,143.69H50.74q5.61,0,8.35,3.43t2.74,9.2a34.94,34.94,0,0,1-.59,6.7,9.87,9.87,0,0,1-3,5.25q-2.35,2.26-7.14,2.27H39.53V185h-3.3Zm19.91,21.83a7.72,7.72,0,0,0,2-4,29.29,29.29,0,0,0,.39-5q0-4.84-2-7.26A6.81,6.81,0,0,0,51,146.82H39.53v20.47H51.21A6.37,6.37,0,0,0,56.14,165.52Z" style="fill:#7e9a3d"/><path d="M71.33,143.69H91v3.07H74.63v13.87H85.9l-1.12,3.24H74.63V182H90.92v3H71.33Z" style="fill:#7e9a3d"/><path d="M105,149.77V185h-3.3v-41.3H105l22.42,35.23V143.69h3.3V185h-3.3Z" style="fill:#7e9a3d"/><path d="M180,170.54H166.56L162,185h-3.48l13.22-41.3h3.13L188.27,185h-3.54Zm-12.51-3.25h11.62l-5.9-18.46Z" style="fill:#7e9a3d"/><path d="M199.65,146.7l-4-.12v-2.89H203V185h-3.31Z" style="fill:#7e9a3d"/><path d="M232.22,170.36a14.16,14.16,0,0,1-2.36.18H218.24V185h-3.3v-41.3h14.51q5.61,0,8.35,3.43t2.74,9.2a28.72,28.72,0,0,1-1,7.85,8.34,8.34,0,0,1-4.22,5.19L240.6,185h-3.36Zm2.63-4.84a7.72,7.72,0,0,0,2-4,29.29,29.29,0,0,0,.39-5q0-4.84-2-7.26a6.83,6.83,0,0,0-5.54-2.42H218.24v20.47h11.68A6.37,6.37,0,0,0,234.85,165.52Z" style="fill:#7e9a3d"/></g></g><g style="isolation:isolate"><g style="isolation:isolate"><path d="M23.23,77.81a10.27,10.27,0,0,1-3.76-3.5,38.17,38.17,0,0,1-4.63-10,41.86,41.86,0,0,1-1.19-10.78A81.82,81.82,0,0,1,15.5,39.27L16.16,36a40.73,40.73,0,0,1,1.19-5.55l.79-2.51q2.38-7.27,4.3-11.9a44.28,44.28,0,0,1,4.83-8.73,13.51,13.51,0,0,1,4.82-4,12.69,12.69,0,0,1,5.76-1.52,5.48,5.48,0,0,1,5.28,3,36.8,36.8,0,0,1,2,5.29,15.41,15.41,0,0,1,.53,4.89l-.4,2.51c-.18,1-.57,1.46-1.19,1.46a1.43,1.43,0,0,1-1.12-.53,1.76,1.76,0,0,1-.47-1.19c0-.79,0-1.76-.13-2.91a14.14,14.14,0,0,1,0-2.78,11.9,11.9,0,0,0-.73-4c-.48-1.37-1.25-1.83-2.31-1.39a6.17,6.17,0,0,0-2.78,2.58A49.49,49.49,0,0,0,34,13.35a26.5,26.5,0,0,0-2.18,6.22q-.73,3.3-1.39,7.67c-.53,3-1,5.24-1.32,6.74a111.92,111.92,0,0,0-2.38,24.86v3.57q.14,4.64.33,6.61a12.81,12.81,0,0,0,1,3.83,5.42,5.42,0,0,0,1.72,1.92A3.85,3.85,0,0,0,32,75.5a4.37,4.37,0,0,0,4-2.78,32.6,32.6,0,0,0,2.65-11.63,2.39,2.39,0,0,0-.27-1.39,2.84,2.84,0,0,0-1.45-.6,5.77,5.77,0,0,1-3.31-1.85,6,6,0,0,1-1-3.83c0-.8.57-1.19,1.72-1.19.88-.09,2.2-.13,4-.13a20.75,20.75,0,0,1,5.16.52,7.58,7.58,0,0,1,3.7,2.52,7.46,7.46,0,0,0,.66.92,2.69,2.69,0,0,1,.53,1.72c0,.79-.75,1.37-2.25,1.72l-2.38.13a3,3,0,0,0-1.52.53,2,2,0,0,0-.59,1.32c-.71,3.18-1.19,5.56-1.46,7.14a29.92,29.92,0,0,1-1.58,5.69,24.9,24.9,0,0,1-3.64,3.5,7.1,7.1,0,0,1-3.77,1.13,29.24,29.24,0,0,1-3,.26A9.69,9.69,0,0,1,23.23,77.81Z" style="fill:#7e9a3d"/><path d="M59.86,80.13a6.47,6.47,0,0,1-1.26-1.19,9.19,9.19,0,0,1-1.32-2.78,27.15,27.15,0,0,1-.66-3.7,146.29,146.29,0,0,1-.92-19.17q.78-11.91,1.58-17.72c.35-4.06.53-7,.53-9A100.4,100.4,0,0,1,59,14.81l1.46-7.93A2.3,2.3,0,0,1,61.58,5,6.1,6.1,0,0,1,64,4.63,4.32,4.32,0,0,1,67.4,6a5.42,5.42,0,0,1,1.25,3.76c0,1.94.07,3.55.2,4.83A5.94,5.94,0,0,0,70,17.72c.44-.62,1-1.52,1.78-2.71a12.35,12.35,0,0,1,2.18-2.71c.35-.35,1-1,2-1.79A9.58,9.58,0,0,1,79.1,8.73a11.79,11.79,0,0,1,3.7-.53A10.48,10.48,0,0,1,88,9.45q2.25,1.26,2.25,2.85a2.69,2.69,0,0,0,.19.92,2.39,2.39,0,0,1,.2.8,10.88,10.88,0,0,1,.27,2,7.18,7.18,0,0,1-.93,3.44A15.64,15.64,0,0,0,88.88,22c-.17.44-.46,1.08-.86,1.92a15.9,15.9,0,0,1-1.12,2.05q-.41.52-1.32,2a15.45,15.45,0,0,1-1.92,2.58,11.94,11.94,0,0,1-2.18,1.85,4.94,4.94,0,0,0-1,1A2,2,0,0,0,80,34.64a1.45,1.45,0,0,0,.4,1.06,11.72,11.72,0,0,1,2.31,3.24,38.9,38.9,0,0,1,1.79,4.56A43.63,43.63,0,0,1,86.11,51c0,.35.26,1.89.79,4.63a56.43,56.43,0,0,1,.93,6.47,53.55,53.55,0,0,0,.79,6.42,15.33,15.33,0,0,0,2,5.09A10.75,10.75,0,0,0,93,76.56c1.15,1,1.94,1.58,2.38,1.58s.9-.39,1.39-1.19.88-1.41,1.19-1.85a.86.86,0,0,1,1.12-.39,1.24,1.24,0,0,1,.4.92A4.37,4.37,0,0,1,97.68,79,5,5,0,0,1,94,80.39,11.05,11.05,0,0,1,87,77a12,12,0,0,1-3.77-7.14q-.4-2-.93-6.21-.66-4.89-1.58-9.26c0-.08-.14-1.1-.4-3a25.06,25.06,0,0,0-2.65-9.39,18.7,18.7,0,0,1-.72-1.78,4.55,4.55,0,0,0-1.13-1.85,1.58,1.58,0,0,0-1.72-.2,2.84,2.84,0,0,1-3-.66,3.29,3.29,0,0,1-1-3c.53-2.12,1.36-3.48,2.51-4.1q2.77-1.59,6-6.88a39.48,39.48,0,0,0,4.29-8.86,10.8,10.8,0,0,0,.27-1.85c0-1.32-.62-1.76-1.85-1.32a10.92,10.92,0,0,0-4.7,3,35.43,35.43,0,0,0-4,5.69l-1.45,2.25a13.74,13.74,0,0,0-2.12,5.22,61.61,61.61,0,0,0-.79,7.6q-.14,2.52-.66,7.54-.8,8.73-.8,12.82c0,1.85,0,3.46.13,4.83s.14,2.23.14,2.58l-.14,6.34a19.89,19.89,0,0,0,.4,3.84A4.47,4.47,0,0,1,67,75.76a12.84,12.84,0,0,0-.73,2.52,16.92,16.92,0,0,0-2.11,1.32,4.65,4.65,0,0,1-2.65.92A3,3,0,0,1,59.86,80.13Z" style="fill:#7e9a3d"/><path d="M112.29,79.46q-4.5-1.18-6-6.21a38.08,38.08,0,0,1-1.86-10.58,20.68,20.68,0,0,0-.26-2.77l-.4-2.78q-.39-4.23-.39-8.33,0-3.57.72-11.64t1.39-12.95a52.75,52.75,0,0,1,3.11-12q2.17-5.49,4.83-7.21c1.85-1.58,2.82-2.42,2.9-2.51A8.77,8.77,0,0,1,122.6,0a14,14,0,0,1,4.89,1,5.43,5.43,0,0,1,3.44,3.11,7.91,7.91,0,0,0,1.19,2.25l1.32,3.3.79,4.1c0,1.32.09,3.4.27,6.21.09,1.77,0,4.5-.13,8.2l-.14,2.78A103.55,103.55,0,0,1,133,42.11c-.61,3.93-1,6.24-1,6.94l-1.72,12q0,4.23-2.91,10.31c-.18.26-.53.82-1.06,1.65a7.92,7.92,0,0,0-1.06,2.45,2.79,2.79,0,0,1-1.85,2,18.12,18.12,0,0,0-3,1.46,6.83,6.83,0,0,1-3.11.72c-1.28,0-2.18.07-2.71.07A6.54,6.54,0,0,1,112.29,79.46ZM122.07,74q3.57-5.94,4-10.31c.26-1.76.75-4.41,1.45-7.93l.53-3,.4-2.78q1.85-11.37,2.25-17.06l.39-4.49q.52-4.77.53-7.14c0-1.06-.13-2.91-.4-5.56a8.76,8.76,0,0,0,.14-1.71,13.45,13.45,0,0,0-.6-3.77c-.4-1.37-.81-2.67-1.26-3.9A3.7,3.7,0,0,0,125.9,4q-3.44,0-5.68,5.55-1.06,2.38-1.32,2.91a21.58,21.58,0,0,0-1.59,3.83,58.45,58.45,0,0,0-1.45,6.35,24,24,0,0,1-.53,3,93.72,93.72,0,0,0-1.72,12.56c0,.18-.13,1.32-.4,3.44a24.29,24.29,0,0,1-.2,2.45,14.93,14.93,0,0,0-.06,3.1,17,17,0,0,1-.14,3.44,26.15,26.15,0,0,0-.13,3c.18,1.77.27,3.13.27,4.1a41.81,41.81,0,0,0,.92,7.93L113.74,67a18.24,18.24,0,0,0,1.59,6.34,3.59,3.59,0,0,0,1.45,2.12,7.65,7.65,0,0,0,2.51.79C120.35,76.29,121.28,75.54,122.07,74Z" style="fill:#7e9a3d"/><path d="M172.18,77.75a36.12,36.12,0,0,1-2.51-9.13q-1.18-9.92-2.12-10.31a10.39,10.39,0,0,0-1.52,2q-.72,1.26-1,1.65l-3,5.16c-.62,1.23-1.63,3-3,5.29-.18.26-.79,1.43-1.85,3.5s-1.94,3.2-2.65,3.37a12.92,12.92,0,0,1-2.9.4,1.75,1.75,0,0,1-1.86-1.06,36.91,36.91,0,0,1-1.85-5q-1.84-9.53-2.71-17.52t-1-9.46l-.92-9.12a40.44,40.44,0,0,1-.27-5.42q0-4.1-.26-12c-.18-3.53-.27-6.17-.27-7.94l.13-3.7a5.94,5.94,0,0,0-.13-1.58V6.61A1.45,1.45,0,0,1,143,5.49a2.6,2.6,0,0,1,1.32-.6,25.14,25.14,0,0,1,4.1-.26,1.69,1.69,0,0,1,1.72,1.45,18,18,0,0,1,1.72,7.41q.13,5.94,1.45,18.38a196.69,196.69,0,0,1,1.59,20.62v5a53.29,53.29,0,0,0,.53,7.74q.27,2.37.66,4.89c.27,1.67.4,2.6.4,2.77q1.71-3.3,4.23-7.53l3.7-6.61a10.4,10.4,0,0,1,1.32-2.12,4.06,4.06,0,0,0,.53-1.59,2.86,2.86,0,0,1,1.26-2.71,5.36,5.36,0,0,1,2.71-.72c1,0,1.76.61,2.38,1.85a38.83,38.83,0,0,1,4.23,10.71c.26,1.06.64,2.33,1.12,3.83s.86,2.65,1.13,3.44q4.37-12.69,7.53-32.13.66-4.5,1.19-13l.4-6.48.13-2.77c.09-1,.18-2.21.27-3.71s.26-3.21.53-5.15a5.16,5.16,0,0,1,1.39-2.78q1.11-1.19,1.65-.66a1.09,1.09,0,0,1,.46.26,2,2,0,0,1,.53.67,1.35,1.35,0,0,1,.07.92,27.46,27.46,0,0,0-.93,6.08c-.09,2.12-.13,3.4-.13,3.84,0,2.2-.05,3.83-.13,4.89l-.4,4.23q-.93,9.78-1.85,16.07a87.52,87.52,0,0,1-2.65,12.09q-.92,3.31-1.58,7c-.09.62-.29,1.65-.6,3.11a31.67,31.67,0,0,1-1.12,4q-.93,3-2.65,10.45a1.9,1.9,0,0,1-.79,1.32,12.17,12.17,0,0,1-4,1.06Q173.64,80.79,172.18,77.75Z" style="fill:#7e9a3d"/><path d="M219.52,76.29Q219,66.78,219,61.88q0-4.64.26-14.15A16.21,16.21,0,0,0,218.06,43c-.17-.61-.64-2-1.39-4.16a50.28,50.28,0,0,0-2.44-5.89,42.14,42.14,0,0,1-2-4.89,62,62,0,0,0-3.71-7.8l-.13,8.86q0,7.41.4,14.81a10.8,10.8,0,0,1,.13,1.85c0,.71-.05,1.56-.13,2.58a12.27,12.27,0,0,0,0,2.58l-.13,6.87q0,4.09-.53,12.3a2.08,2.08,0,0,0-.14,1.19,13.09,13.09,0,0,1-1.32,6.08A2.51,2.51,0,0,0,206,79.2a7.06,7.06,0,0,1-2.78.93,1.42,1.42,0,0,1-1.19-.53l-.52-.53A7.93,7.93,0,0,1,198.76,73q-.27-5.3-.27-7.8,0-3.18.27-9.52V52.23a33.06,33.06,0,0,1,.13-3.44q.13-2.64.13-8.07c-.09-1.4-.13-3.48-.13-6.21s.2-6.92.6-12.3a78,78,0,0,1,1.25-10.71,5.24,5.24,0,0,0,.13-1.45l-.13-2.65a3.11,3.11,0,0,1,.73-1.78,2.15,2.15,0,0,1,1.78-1,6.77,6.77,0,0,1,2.12.46,6.66,6.66,0,0,0,1.85.46c.53,0,.93.75,1.19,2.25a19.28,19.28,0,0,1,.13,5.16,2.35,2.35,0,0,0,.4,1.06,21.27,21.27,0,0,1,1.32,2.51A13.35,13.35,0,0,0,211.45,19a16.78,16.78,0,0,1,2,4.76,49.69,49.69,0,0,0,2.51,7L217.27,34a11.6,11.6,0,0,1,.6,1.65A4.32,4.32,0,0,0,219,37.55l.4-6.35q.78-10,1.58-14.94T222,9.12l.53-3.57a5.78,5.78,0,0,1,.59-1.72,1.37,1.37,0,0,1,1.26-.52,4.82,4.82,0,0,1,1.19.13,15.1,15.1,0,0,1,3.17,1.06c.44.26.71.92.8,2a62.33,62.33,0,0,1-.14,6.61l-.52,6.61a125.25,125.25,0,0,0-1.06,13.22c-.09,1.68-.13,4.23-.13,7.67l-.27,7.8a24.82,24.82,0,0,0-.07,3c.05.89.07,1.64.07,2.25a35,35,0,0,1,.13,3.57l-.26,6.22c0,.79.09,2.07.26,3.83a7.66,7.66,0,0,1,.14,1.72,21.11,21.11,0,0,1-.14,2.38,22.28,22.28,0,0,0-.13,2.51l.13,1.32v.53a3.45,3.45,0,0,1-1.32,2.32,10.35,10.35,0,0,0-1.45,1.52,1.73,1.73,0,0,1-2.12.66Q219.65,79.06,219.52,76.29Z" style="fill:#7e9a3d"/></g></g><g style="isolation:isolate"><g style="isolation:isolate"><path d="M70.92,102.17l-1.94,0v-1.43h3.57V121H70.92Z" style="fill:#7e9a3d"/><path d="M84.41,103.68V121H82.78v-20.3h1.63l11,17.32V100.69h1.62V121H95.43Z" style="fill:#7e9a3d"/><path d="M124,102.14H119v-1.45h11.66v1.45h-5.1V121H124Z" style="fill:#7e9a3d"/><path d="M149.6,110.61h-9.22V121h-1.63v-20.3h1.63V109h9.22v-8.33h1.62V121H149.6Z" style="fill:#7e9a3d"/><path d="M161.6,100.69h9.69v1.51h-8.06V109h5.54l-.55,1.59h-5v8.93h8V121H161.6Z" style="fill:#7e9a3d"/></g></g><g style="isolation:isolate"><g style="isolation:isolate"><path d="M191,111a.25.25,0,0,0-.15-.09c-.16,0-.26,0-.29-.06s.06-.11.17-.23h.24l1.3-.18,2-.18,1.42-.11a4,4,0,0,1,.77-.06,3.36,3.36,0,0,0,.76-.06,7,7,0,0,1,1-.06,5.67,5.67,0,0,0,.91-.06.24.24,0,0,0,.24-.12c.08.12.15.16.23.12a2.49,2.49,0,0,1,.8-.12h.56c1.18-.08,2.1-.12,2.77-.12s1.58.06,2.83.06l.15,0c.06,0,.09,0,.09-.08h1c0,.07.08.09.24,0h2q1.29,0,1.89.06l.29,0a1,1,0,0,1,.41,0,2,2,0,0,0,.59.12,3.16,3.16,0,0,1,.71-.06h.65l.35,0a1,1,0,0,0,.42,0,.27.27,0,0,1,.2.09.17.17,0,0,0,.21,0,.23.23,0,0,1,.21,0l.2,0h1.06l.24,0a.55.55,0,0,0,.3,0,.43.43,0,0,1,.17.06q.12.06.18,0a.29.29,0,0,1,.15.06.18.18,0,0,0,.2,0h1.24a.37.37,0,0,1,.21.06q.09.06.21-.06a.26.26,0,0,1,.14.09q.09.09.15,0h.47l.18,0a.18.18,0,0,0,.18,0,.38.38,0,0,1,.17.06.21.21,0,0,0,.24-.06c0,.08.14.11.29.11h.89l.3.06a.59.59,0,0,1,.35.24v.24h-.12a5.12,5.12,0,0,0-2.06-.18l-.18-.06-.06-.06-.12.12a.4.4,0,0,1-.2-.12q-.15-.12-.21.06a.29.29,0,0,0-.21-.06h-1a.24.24,0,0,1-.18-.06.24.24,0,0,0-.17-.06s-.1,0-.18.12a.41.41,0,0,0-.3-.12h-1.3a2.25,2.25,0,0,1-.82-.12.31.31,0,0,0-.47.12.3.3,0,0,0-.3-.15.9.9,0,0,1-.23,0h-1a.31.31,0,0,1-.23-.11l-.12.11c-.36-.15-.61-.15-.77,0a.23.23,0,0,0-.17,0,.18.18,0,0,1-.18,0,1.53,1.53,0,0,0-.47-.06h-1.83a.35.35,0,0,1-.24-.06,1.85,1.85,0,0,1-.53.12,2.66,2.66,0,0,1-.65-.09,1.22,1.22,0,0,0-.59,0c-.08-.08-.22-.06-.41.06a.12.12,0,0,0-.18-.06q-.12.06-.18,0a.6.6,0,0,0-.29-.06h-1.53a.35.35,0,0,0-.24.12.25.25,0,0,0-.24-.09l-.17,0a.69.69,0,0,1-.21-.06q-.15-.06-.21,0h-.29a.24.24,0,0,0-.24.12l-.12-.12a.35.35,0,0,1-.32.09q-.21,0-.27,0c0-.12-.1-.15-.2-.09s-.17,0-.21,0a.4.4,0,0,1-.29.12h-3.28a.29.29,0,0,0-.21.06.24.24,0,0,1-.2,0l-.15,0a1,1,0,0,1-.41.05h-.95l-.11.12-.12-.12a1,1,0,0,1-.53.12,4.85,4.85,0,0,0-1.18,0,10.86,10.86,0,0,1-1.12.09,1.79,1.79,0,0,1-.53.06,2,2,0,0,0-.59.06,2.38,2.38,0,0,1-.65.06,2,2,0,0,0-.59.06,5.38,5.38,0,0,1-.95.06l-.17.23A.17.17,0,0,1,191,111Z" style="fill:#7e9a3d"/></g></g><g style="isolation:isolate"><g style="isolation:isolate"><path d="M19,111a.25.25,0,0,0-.15-.09c-.16,0-.26,0-.29-.06s.06-.11.17-.23h.24l1.3-.18,2-.18,1.42-.11a4,4,0,0,1,.77-.06,3.36,3.36,0,0,0,.76-.06,7,7,0,0,1,1-.06,5.67,5.67,0,0,0,.91-.06.24.24,0,0,0,.24-.12c.08.12.15.16.23.12a2.49,2.49,0,0,1,.8-.12h.56c1.18-.08,2.1-.12,2.77-.12s1.58.06,2.83.06l.15,0c.06,0,.09,0,.09-.08h1c0,.07.08.09.24,0h2q1.29,0,1.89.06l.29,0a1,1,0,0,1,.41,0,2,2,0,0,0,.59.12,3.16,3.16,0,0,1,.71-.06h.65l.35,0a1,1,0,0,0,.42,0,.27.27,0,0,1,.2.09.17.17,0,0,0,.21,0,.23.23,0,0,1,.21,0l.2,0h1.06a1,1,0,0,1,.24,0,.55.55,0,0,0,.3,0,.43.43,0,0,1,.17.06q.12.06.18,0a.29.29,0,0,1,.15.06.18.18,0,0,0,.2,0H47.6a.37.37,0,0,1,.21.06q.09.06.21-.06a.26.26,0,0,1,.14.09q.09.09.15,0h.47l.18,0a.18.18,0,0,0,.18,0,.38.38,0,0,1,.17.06.21.21,0,0,0,.24-.06c0,.08.14.11.29.11h.89l.3.06a.59.59,0,0,1,.35.24v.24h-.12a5.12,5.12,0,0,0-2.06-.18l-.18-.06-.06-.06-.12.12a.4.4,0,0,1-.2-.12q-.15-.12-.21.06a.29.29,0,0,0-.21-.06h-1a.24.24,0,0,1-.18-.06.24.24,0,0,0-.17-.06s-.1,0-.18.12a.41.41,0,0,0-.3-.12h-1.3a2.25,2.25,0,0,1-.82-.12.31.31,0,0,0-.47.12.3.3,0,0,0-.3-.15.9.9,0,0,1-.23,0h-1a.31.31,0,0,1-.23-.11l-.12.11c-.36-.15-.61-.15-.77,0a.23.23,0,0,0-.17,0,.18.18,0,0,1-.18,0,1.53,1.53,0,0,0-.47-.06H38.52a.35.35,0,0,1-.24-.06,1.85,1.85,0,0,1-.53.12,2.66,2.66,0,0,1-.65-.09,1.22,1.22,0,0,0-.59,0c-.08-.08-.22-.06-.41.06a.12.12,0,0,0-.18-.06q-.12.06-.18,0a.6.6,0,0,0-.29-.06H33.92a.35.35,0,0,0-.24.12.25.25,0,0,0-.24-.09l-.17,0a.69.69,0,0,1-.21-.06q-.15-.06-.21,0h-.29a.24.24,0,0,0-.24.12l-.12-.12a.35.35,0,0,1-.32.09q-.21,0-.27,0c0-.12-.1-.15-.2-.09s-.17,0-.21,0a.4.4,0,0,1-.29.12H27.63a.29.29,0,0,0-.21.06.24.24,0,0,1-.2,0l-.15,0a1,1,0,0,1-.41.05h-.95l-.11.12-.12-.12a1,1,0,0,1-.53.12,4.85,4.85,0,0,0-1.18,0,10.86,10.86,0,0,1-1.12.09,1.79,1.79,0,0,1-.53.06,2,2,0,0,0-.59.06,2.38,2.38,0,0,1-.65.06,2,2,0,0,0-.59.06,5.38,5.38,0,0,1-.95.06l-.17.23A.17.17,0,0,1,19,111Z" style="fill:#7e9a3d"/></g></g><g style="isolation:isolate"><g style="isolation:isolate"><path d="M11.54,205.47v12.87A4.31,4.31,0,0,1,10,222a6,6,0,0,1-3.71,1.15A6,6,0,0,1,2.56,222,4.29,4.29,0,0,1,1,218.34V205.47h1.4v13.07A3,3,0,0,0,3.52,221a4.13,4.13,0,0,0,2.74.93A4.18,4.18,0,0,0,9,221a3,3,0,0,0,1.12-2.45V205.47Z" style="fill:#7e9a3d"/><path d="M17,208.07V223H15.63v-17.5H17l9.5,14.93V205.49h1.39V223H26.54Z" style="fill:#7e9a3d"/><path d="M32.26,205.47H37a5.27,5.27,0,0,1,5.8,5.67V218c0,3.34-1.77,5-5.3,5h-5.2Zm8.49,3.06a3.6,3.6,0,0,0-1.57-1.36,4.82,4.82,0,0,0-2-.43H33.66v15h3.4a6,6,0,0,0,3.06-.71,2.92,2.92,0,0,0,1.24-2.79v-7.35A4.23,4.23,0,0,0,40.75,208.53Z" style="fill:#7e9a3d"/><path d="M47,205.49h8.35v1.3h-7v5.88h4.78L52.73,214h-4.3v7.7h6.9V223H47Z" style="fill:#7e9a3d"/><path d="M66.36,216.79a6,6,0,0,1-1,.08H60.43V223H59v-17.5h6.15a4.27,4.27,0,0,1,3.54,1.45,6,6,0,0,1,1.16,3.9,12,12,0,0,1-.41,3.33,3.5,3.5,0,0,1-1.79,2.2L69.91,223H68.48Zm1.11-2a3.28,3.28,0,0,0,.85-1.7,12.45,12.45,0,0,0,.16-2.12,4.73,4.73,0,0,0-.85-3.08,2.88,2.88,0,0,0-2.35-1H60.43v8.67h4.95A2.69,2.69,0,0,0,67.47,214.74Z" style="fill:#7e9a3d"/><path d="M83.13,206.74H78.88v-1.25H88.93v1.25h-4.4V223h-1.4Z" style="fill:#7e9a3d"/><path d="M100.61,214h-8v9h-1.4v-17.5h1.4v7.18h8v-7.18H102V223h-1.4Z" style="fill:#7e9a3d"/><path d="M106.33,205.49h8.35v1.3h-7v5.88h4.78L112,214h-4.3v7.7h6.9V223h-8.3Z" style="fill:#7e9a3d"/><path d="M134.23,222a4.93,4.93,0,0,1-3.62,1.27,6.39,6.39,0,0,1-2.6-.52,4.37,4.37,0,0,1-1.94-1.65,5,5,0,0,1-.74-2.8v-7.85a5.94,5.94,0,0,1,.57-2.81,4.43,4.43,0,0,1,1.61-1.72,5.44,5.44,0,0,1,2.7-.62,7.46,7.46,0,0,1,3.52.82l-.4.95a7.81,7.81,0,0,0-2.7-.52,5,5,0,0,0-2.71.75,3.19,3.19,0,0,0-1.19,2.92v8.13a3.3,3.3,0,0,0,1.09,2.62,4,4,0,0,0,2.76.95,3.68,3.68,0,0,0,2.7-1,3.43,3.43,0,0,0,1-2.58v-1.47h-1.65l-.47-1.38h3.45V223h-1Z" style="fill:#7e9a3d"/><path d="M146.78,216.79a6,6,0,0,1-1,.08h-4.92V223h-1.4v-17.5h6.15a4.3,4.3,0,0,1,3.54,1.45,6.1,6.1,0,0,1,1.16,3.9,12.44,12.44,0,0,1-.41,3.33,3.53,3.53,0,0,1-1.79,2.2l2.22,6.62h-1.42Zm1.12-2a3.35,3.35,0,0,0,.85-1.7,13.56,13.56,0,0,0,.16-2.12,4.79,4.79,0,0,0-.85-3.08,2.9,2.9,0,0,0-2.35-1h-4.85v8.67h4.95A2.71,2.71,0,0,0,147.9,214.74Z" style="fill:#7e9a3d"/><path d="M153.93,205.49h8.35v1.3h-6.95v5.88h4.78l-.48,1.37h-4.3v7.7h6.9V223h-8.3Z" style="fill:#7e9a3d"/><path d="M165.93,205.49h8.35v1.3h-6.95v5.88h4.78l-.48,1.37h-4.3v7.7h6.9V223h-8.3Z" style="fill:#7e9a3d"/><path d="M180.56,214.37l-1.2,1.9V223H178V205.47h1.4v8.35l5.6-8.35h1.62L181.46,213l6.42,10h-1.67Z" style="fill:#7e9a3d"/><path d="M198.54,220.17a4.1,4.1,0,0,0,1.56,1.26,5,5,0,0,0,2.26.49,5.69,5.69,0,0,0,3.21-.86,3.07,3.07,0,0,0,1.29-2.74,2.74,2.74,0,0,0-.63-1.84,4.45,4.45,0,0,0-1.55-1.17c-.61-.29-1.46-.63-2.52-1a25.13,25.13,0,0,1-2.76-1.11,5,5,0,0,1-1.75-1.39,3.41,3.41,0,0,1-.72-2.25,3.81,3.81,0,0,1,.63-2.08,4.38,4.38,0,0,1,1.89-1.6,7,7,0,0,1,3.11-.62,9.43,9.43,0,0,1,2,.18,7.73,7.73,0,0,1,1.63.57l-.43,1.33a6.94,6.94,0,0,0-3.17-.73,5.33,5.33,0,0,0-3.08.8,2.59,2.59,0,0,0-1.15,2.23,2.1,2.1,0,0,0,.58,1.51,4.26,4.26,0,0,0,1.41,1q.84.38,2.34.9a29.46,29.46,0,0,1,2.95,1.16,5.44,5.44,0,0,1,1.91,1.53,3.82,3.82,0,0,1,.79,2.48,4.85,4.85,0,0,1-1.46,3.69,6.35,6.35,0,0,1-4.52,1.39,6.73,6.73,0,0,1-3.16-.69,5.18,5.18,0,0,1-2-1.77,4.62,4.62,0,0,1-.74-2.27h1.43A3.27,3.27,0,0,0,198.54,220.17Z" style="fill:#7e9a3d"/><path d="M222.33,205.47v12.87a4.28,4.28,0,0,1-1.54,3.68,6.58,6.58,0,0,1-7.43,0,4.26,4.26,0,0,1-1.55-3.68V205.47h1.4v13.07a3,3,0,0,0,1.11,2.45,4.12,4.12,0,0,0,2.74.93,4.18,4.18,0,0,0,2.75-.93,3,3,0,0,0,1.12-2.45V205.47Z" style="fill:#7e9a3d"/><path d="M227.83,208.07V223h-1.4v-17.5h1.4l9.5,14.93V205.49h1.4V223h-1.4Z" style="fill:#7e9a3d"/></g></g></svg>