<svg xmlns="http://www.w3.org/2000/svg" viewBox="0 0 573.59 250.78"><g style="isolation:isolate"><text transform="translate(244.84 151)" style="isolation:isolate;font-size:151px;fill:#7e9a3d;font-family:AlwaysAndForeverDingbats-Regular, Always And Forever Dingbats">n</text></g><g style="isolation:isolate"><text transform="translate(232.02 81)" style="isolation:isolate;font-size:28px;fill:#7e9a3d;font-family:AdventPro-Regular, Advent Pro;letter-spacing:0.19998604910714285em">ΓΕΜ<tspan x="60.96" y="0" style="letter-spacing:0.19899204799107142em">Α</tspan><tspan x="81.17" y="0" style="letter-spacing:0.20000348772321427em">ΤΑ</tspan></text></g><g style="isolation:isolate"><text transform="translate(237.4 195.8)" style="isolation:isolate;font-size:78px;fill:#7e9a3d;font-family:AdventPro-Regular, Advent Pro;letter-spacing:0.04999874799679487em">&amp;</text></g><g style="isolation:isolate"><g style="isolation:isolate"><path d="M11.91,167.24a8.42,8.42,0,0,0-5.16-2.11c-2.14-.19-3.54-.35-4.21-.48C.88,164.49,0,163.77,0,162.5a3.4,3.4,0,0,1,.73-1.64,2.2,2.2,0,0,1,1-.76q2.66-.76,7.28.31t6.14,3q1.78,2.85.7,4.12C14.91,168.78,13.59,168.68,11.91,167.24Zm-6,37.68a2.19,2.19,0,0,1,.44-3.48q11.13-8,17.28-11.67a2.57,2.57,0,0,1,3.29,1.46c.54.8.17,1.71-1.14,2.72q-2.4,1.65-15.94,11.29A2.73,2.73,0,0,1,5.93,204.92Zm20.34-56.18A5.93,5.93,0,0,0,25,147.66l-13.62-9-1.84-1.39c-1-1.31-1.32-2.34-.89-3.1q.94-1.71,3.54-1l4.25,3.1,11.09,6.89c2.23,2.24,3.44,3.65,3.61,4.24.34,1.18.18,2-.47,2.53a1.77,1.77,0,0,1-2.12.13A5.06,5.06,0,0,1,26.27,148.74Z" style="fill:#7e9a3d"/></g></g><g style="isolation:isolate"><g style="isolation:isolate"><path d="M545.05,151.54a1.78,1.78,0,0,1-2.12-.13c-.65-.51-.81-1.35-.47-2.54q.25-.88,3.61-4.23l11.09-6.89,4.25-3.1q2.6-.69,3.54,1c.43.77.13,1.8-.89,3.1l-1.84,1.39-13.62,9a5.57,5.57,0,0,0-1.27,1.07A5.16,5.16,0,0,1,545.05,151.54Zm18.66,55.23q-13.51-9.65-15.93-11.29-2-1.51-1.14-2.73a2.58,2.58,0,0,1,3.29-1.45Q556.07,195,567.2,203a2.19,2.19,0,0,1,.44,3.48A2.73,2.73,0,0,1,563.71,206.77Zm-6-37.68c-.72-.84-.48-2.21.7-4.11q1.53-2,6.15-3t7.28-.31a2.2,2.2,0,0,1,1,.76,3.43,3.43,0,0,1,.73,1.65c-.05,1.27-.89,2-2.54,2.15-.67.13-2.07.28-4.21.47a8.42,8.42,0,0,0-5.16,2.11C560,170.21,558.68,170.32,557.75,169.09Z" style="fill:#7e9a3d"/></g></g><g style="isolation:isolate"><text transform="translate(295.34 197.8)" style="isolation:isolate;font-size:80px;fill:#7e9a3d;font-family:AdventPro-Regular, Advent Pro;letter-spacing:0.05em">ΓΕΥΣΗ</text></g><g style="isolation:isolate"><text transform="translate(57.8 198)" style="isolation:isolate;font-size:95px;fill:#7e9a3d;font-family:NF-Takhie-Free-Regular, NF-Takhie-Free">ΑΡΩΜΑ</text></g></svg>