<svg xmlns="http://www.w3.org/2000/svg" viewBox="0 0 704.11 250.71"><g style="isolation:isolate"><g style="isolation:isolate"><path d="M242.46,194.48a53.92,53.92,0,0,1-4.92-9.65q-2.31-5.75-8.07-22.64l-7.79-22.63a8.83,8.83,0,0,1-.47-1.3,2.76,2.76,0,0,0-1-1.49,11.91,11.91,0,0,0-3.15,3.34c-.37.5-.84,1.21-1.39,2.14a7.82,7.82,0,0,1-1.77,2.13,2,2,0,0,0-.74,1.67v1.3a24.93,24.93,0,0,0,.19,5,29.68,29.68,0,0,1,.37,3.9l.18,17.44q0,9.84-1.11,13.55a5.67,5.67,0,0,1-3,4.08c-1.36.62-1.92,1.36-1.67,2.22a25.1,25.1,0,0,1-5,.75,8.26,8.26,0,0,1-4.08-.93,2.26,2.26,0,0,0-.56-1.3c-.74-1.11-1.27-3.06-1.57-5.85a71.37,71.37,0,0,1-.47-7.88v-3a17.36,17.36,0,0,0-.18-3,49.58,49.58,0,0,1-.37-5.19l.18-3.53c.25-2.1.4-3.93.47-5.47s.09-2.82.09-3.81c0-3.21.06-5.57.18-7.05s.19-4.14.19-8q1.29-24.5,2-33.21.74-9.28,1.3-13.92c.12-1.48,0-2.35-.37-2.6l.37-1.48a22.32,22.32,0,0,1,3.53-.37,27.52,27.52,0,0,1,3.43.18c.93.13,1.7.25,2.32.37a9.64,9.64,0,0,1,1.48,1.86l.19,2.23,1.11,4.45c.12.5.31,1.73.56,3.71a29.46,29.46,0,0,1,.18,5.57,19.16,19.16,0,0,0,.1,4.17c.18,1.55.27,2.63.27,3.25q.19,3.53.1,6c-.07,1.67-.1,3.06-.1,4.18l.19,4.45c0,.37-.12,1.67-.37,3.89a100.48,100.48,0,0,0,9.37-12.52,144.51,144.51,0,0,0,8.26-14q2.4-4.83,5.38-10.39t3.89-5.57c.5,0,1,.56,1.58,1.67a6.56,6.56,0,0,1,.84,2.79,4.66,4.66,0,0,1-.56,2l-8.91,19.11-2.41,5c-.62,1.11-1.92,3.28-3.9,6.49-2.22,3.34-3.34,5.45-3.34,6.31a4.62,4.62,0,0,0,.56,2l2,4.64q1.31,3,3.16,6.5a31.06,31.06,0,0,1,2.32,5.1c.67,1.92,1.14,3.19,1.39,3.8q5.56,15.41,9.46,27.65l1.67,4.27c.12.37.53,1.3,1.21,2.78a9.42,9.42,0,0,1,1,3.71c0,1.49-1.12,2-3.34,1.67Z" style="fill:#7e9a3d"/><path d="M256.29,191.14a12.75,12.75,0,0,1-5.11-5.56,42.23,42.23,0,0,1-4.45-19.49,56.57,56.57,0,0,1,.56-8,43.3,43.3,0,0,1,3.34-12.43c.37-.74,1.45-3.22,3.24-7.42a39.71,39.71,0,0,1,6-10.21c2.23-2.59,4.39-3.89,6.5-3.89a6,6,0,0,1,1.85.37,30.85,30.85,0,0,0,4.55.83,12.16,12.16,0,0,1,5.29,1.76l2.78,2.6,2.23,4.64.74,3.34.74,4.46a77.2,77.2,0,0,1-.74,16q-1.11,6.31-3.52,14.85l-1.67,5.56a2.77,2.77,0,0,1-.19,1,2.19,2.19,0,0,0-.19.84l-1.85,3.34A42.62,42.62,0,0,1,274,188a38.51,38.51,0,0,1-5,4.64,6.75,6.75,0,0,1-4.83.92A20.64,20.64,0,0,1,256.29,191.14Zm10.29-2.41a121.13,121.13,0,0,0,7.8-12.9,34.33,34.33,0,0,0,2.41-10.11,59.5,59.5,0,0,0,.37-7.79l.19-12.06q0-11.15-2-13.92a4.16,4.16,0,0,1-1.12-1.21c-.37-.55-.74-.83-1.11-.83-1.36,0-2.29.87-2.78,2.6-.38,1.11-1.24,3.65-2.6,7.6A184.44,184.44,0,0,0,262,160.34a79.19,79.19,0,0,0-1.3,16c0,1.24.24,3.83.74,7.79a7.61,7.61,0,0,0,1,3.71q1,1.86,2.13,1.86A4,4,0,0,0,266.58,188.73Z" style="fill:#7e9a3d"/><path d="M308.52,193.18q-13.54-7.6-15.4-15.58a63.07,63.07,0,0,1-1.67-14.29,82.62,82.62,0,0,1,2.41-18.93,42,42,0,0,1,3.15-8.72q2.24-4.64,2.79-5.94c.62-1.48,2.9-2.22,6.86-2.22a11.12,11.12,0,0,1,2.6.18,5.49,5.49,0,0,1,3.25,2.14,5.66,5.66,0,0,1,.46,3.8,108.16,108.16,0,0,1-1.67,10.76c-.74,4-1.24,6.93-1.48,8.91a118.63,118.63,0,0,0-.93,13.92,31,31,0,0,1-.28,3.43,36.71,36.71,0,0,0-.28,4.17,27.59,27.59,0,0,0,2.6,12q2.6,5.47,6.68,5.47a6.58,6.58,0,0,0,4.64-2.22,17.56,17.56,0,0,0,4.55-7.33,61.33,61.33,0,0,0,1.94-10.3l.56-5a79.73,79.73,0,0,0,.93-13A111.91,111.91,0,0,0,328,132.32a1.5,1.5,0,0,0-.18-.56,1.93,1.93,0,0,1-.19-.92,1.13,1.13,0,0,1,.46-.93,1.39,1.39,0,0,1,.84-.37,1.2,1.2,0,0,1,1.3,1.11,79.86,79.86,0,0,1,3.34,13.92,98.69,98.69,0,0,1,.93,12.8,57.45,57.45,0,0,1-.75,9.84l-.55,3.89a64,64,0,0,1-3,14.94,12.78,12.78,0,0,1-8,7.88,14.71,14.71,0,0,1-6.31,1.3A14,14,0,0,1,308.52,193.18Z" style="fill:#7e9a3d"/><path d="M345,249.41a5.2,5.2,0,0,1-2.14-3.34,21.42,21.42,0,0,1-.74-6.13,22.56,22.56,0,0,1,.56-5.38,55.46,55.46,0,0,1,3.15-11.5,89,89,0,0,0,3.34-9.65,99.6,99.6,0,0,1,4.46-11.69,8.63,8.63,0,0,0,.74-4.08,9.34,9.34,0,0,0-.74-4.09l-3.9-10a39.2,39.2,0,0,0-2-4.64,36.28,36.28,0,0,1-2.41-5.38q-2.61-8-2.6-19.67a75,75,0,0,1,3.62-22.73q3.62-11.4,10.48-27.92l3.34-8q2.23-5.56,4.45-17.44a10.35,10.35,0,0,0,.38-2.42c0-2.22-1.12-3.34-3.34-3.34q-3,0-7,3.72t-4.55,6.12a6.83,6.83,0,0,1-2.78,3,2,2,0,0,1-2,0,1.55,1.55,0,0,1-.56-2c.37-1,.84-2.51,1.39-4.55a24.11,24.11,0,0,1,2-5.1A11.57,11.57,0,0,1,353,68.49a14.77,14.77,0,0,1,7.14-1.86,13.42,13.42,0,0,1,10.21,4.64c2.84,3.1,4.27,7.36,4.27,12.81q0,11.69-5.39,28.2-4.45,13.55-7.05,22.45a132.38,132.38,0,0,0-3.89,17.63,69,69,0,0,0-.75,8.54,59.48,59.48,0,0,0,1.86,13.82q1.84,7.69,3.34,6.4a1.47,1.47,0,0,1,2.23-.18,2.28,2.28,0,0,1,.74,2.59,4.31,4.31,0,0,1-.74,1.67,13.48,13.48,0,0,0-1.67,7.05,55.29,55.29,0,0,0,.55,7.8c.12,1,.25,2.13.37,3.43s.19,2.88.19,4.73a25.78,25.78,0,0,1-1.86,10,18.46,18.46,0,0,0-.55,3.44c-.13,1.42-.25,2.56-.37,3.43a62.68,62.68,0,0,1-5,17.81,23.68,23.68,0,0,1-3.53,5.48,5.78,5.78,0,0,1-4.27,2.32A6.31,6.31,0,0,1,345,249.41Zm8.07-11.69a34.7,34.7,0,0,0,1.67-6.13,64.6,64.6,0,0,0,1.3-13c0-2.22-.13-4.95-.37-8.16a72.26,72.26,0,0,0-5.2,14.66,85.39,85.39,0,0,0-2.6,17.44,1.6,1.6,0,0,0,.93,1.67l.74.19Q351.38,244.4,353.05,237.72Z" style="fill:#7e9a3d"/><path d="M385.06,192.16a12.89,12.89,0,0,1-3.44-7.33c-.12-.74-.24-1.6-.37-2.6s-.31-2.1-.55-3.34a31.85,31.85,0,0,1-.37-5.75c0-2,.06-3.74.18-5.29s.25-2.87.37-4l.56-5.2q.56-5.19,2.41-15.59l1.67-8.53.56-5.38c0-2.23.74-3.34,2.22-3.34a4.36,4.36,0,0,1,1.86.55,7.66,7.66,0,0,1,4.17,5.2,35.55,35.55,0,0,1,1,9.28q0,2.77-.38,8l-.18,3.9q-1.11,15-2.78,29.88a10.71,10.71,0,0,1-.28,2.32,10.83,10.83,0,0,0-.28,2.5,6.83,6.83,0,0,0,.18,1.76,1.28,1.28,0,0,0,1.12.84,1,1,0,0,0,1-.65,3.19,3.19,0,0,1,.46-.84l1.86-3a1.84,1.84,0,0,1,2.6-.38,1.73,1.73,0,0,1,.92,2.23q-2.6,8-8,8A11.34,11.34,0,0,1,385.06,192.16Zm4.73-80.62a9.23,9.23,0,0,1,1.11-4.08l.37-1.3c.12-.25.75-1.49,1.86-3.71a10.57,10.57,0,0,1,3.9-4.64,11.36,11.36,0,0,1,4.45-1.49,4.47,4.47,0,0,1,2.6.93.87.87,0,0,1,.55.93,10,10,0,0,1-1.3,3.9c-.25.62-.68,1.6-1.29,3a24,24,0,0,1-5.2,7.43l-.74.55a10.68,10.68,0,0,1-2.51,1c-.43.07-.9.16-1.39.28C390.59,114.32,389.79,113.39,389.79,111.54Z" style="fill:#7e9a3d"/><path d="M421,193.37q-3.72-1.68-7-6.68a20.8,20.8,0,0,1-3.62-9.28,65.14,65.14,0,0,0-1.3-7.42c-.12-.87-.37-2.41-.74-4.64s-.62-4.2-.74-5.94q-.37-5-1.3-10.85t-1.11-7.7q-1.11-5.94-1.49-8.91a8,8,0,0,1-.18-1.86q0-1.67,2-2.22a14.87,14.87,0,0,1,3.9-.56q4.82,0,7.05,5,5.37,13,7.79,34.33c.37,3.59.71,6.49,1,8.72s.9,3.46,1.76,3.71c.5,0,1.05-.93,1.67-2.78a120.89,120.89,0,0,0,5.38-22.83l1.12-6.49a61.78,61.78,0,0,0,1.67-12.8l-.19-7.8c0-1.6.56-2.59,1.67-3q2.24.75,3,4.64,0,4.65.09,6.13c.06,1,.1,1.73.1,2.22,0,1.61-.13,3.84-.37,6.68l-.93,8.54a73.77,73.77,0,0,1-2,8.72c-.87,3.46-2.23,7.86-4.09,13.17l-1.67,5.94c-.62,2.23-1.23,4.21-1.85,5.94a37.59,37.59,0,0,1-3.25,6.22,4.69,4.69,0,0,1-4,2.31A7.24,7.24,0,0,1,421,193.37Z" style="fill:#7e9a3d"/><path d="M457,192.9a12.18,12.18,0,0,1-6.5-7,40.91,40.91,0,0,1-3.15-16.15,63.51,63.51,0,0,1,1.3-11.5,38.67,38.67,0,0,1,4.64-12.06q3-6.12,4.73-9.28a35.34,35.34,0,0,1,4.36-6.12q4.26-5,7.61-5a4.92,4.92,0,0,1,2.22.55,45.9,45.9,0,0,0,4.73,1.21,11.56,11.56,0,0,1,4.92,2.13c1,.74,1.73.62,2.23-.37a3.58,3.58,0,0,1,1.48-1.39,4,4,0,0,1,1.86-.65,2.88,2.88,0,0,1,1.95.74,3.19,3.19,0,0,1,1,1.86c.12.49.24,1.11.37,1.85a18,18,0,0,1,.18,2.79,13.74,13.74,0,0,1-.46,2.87,14,14,0,0,0-.46,3.06,14.84,14.84,0,0,0,.55,3.9,22.54,22.54,0,0,1,.56,8q-.93,9.64-1.3,21.9c-.12,1-.28,2.32-.46,4a37,37,0,0,0-.28,4,21.65,21.65,0,0,0,.37,3.16,11.09,11.09,0,0,0,2.69-3,27.83,27.83,0,0,0,2.13-4.64,42.07,42.07,0,0,1,1.86-3.9c.25-.61.86-2,1.85-4.08a31.53,31.53,0,0,0,2.23-6.31,6.18,6.18,0,0,1,1.11-1.76,1.83,1.83,0,0,1,1.12-.28c.74.5,1.11.93,1.11,1.3a12.49,12.49,0,0,1-.37,2.88c-.25,1.05-.43,1.76-.56,2.13A103.58,103.58,0,0,1,498,181.49a51.47,51.47,0,0,1-3,4.64l-2.23,3.53a4.17,4.17,0,0,1-3.53,1.67A24.44,24.44,0,0,1,483,189.1a7.08,7.08,0,0,1-3.25-4.45c-.12-.37-.28-.77-.46-1.21s-.41-.9-.65-1.39a21.72,21.72,0,0,0-3.34,4.55,22.14,22.14,0,0,1-2.41,3.61,24.5,24.5,0,0,1-4,3.62,7.21,7.21,0,0,1-4.17,1.21A19.4,19.4,0,0,1,457,192.9Zm9.83-3.52a13.35,13.35,0,0,0,3-3.43q6.5-10.22,7.79-17.82A150,150,0,0,0,479,151.06q.36-8.34.93-12.43a11.51,11.51,0,0,0-1.58-4.83c-.81-1.23-1.58-1.79-2.32-1.67a1.88,1.88,0,0,0-1.58,1c-.43.68-.71,1.14-.83,1.39l-3,6.86a150,150,0,0,0-7.61,20.23,79.53,79.53,0,0,0-2.23,13,20.24,20.24,0,0,0-.37,2.13,19.72,19.72,0,0,0-.18,2.51,16.24,16.24,0,0,0,.37,3.15,7.7,7.7,0,0,1,.18,2.78V186a7,7,0,0,0,.93,3.61c.62,1.06,1.24,1.58,1.86,1.58S465.43,190.56,466.79,189.38Z" style="fill:#7e9a3d"/><path d="M555.67,243.47c-1.36-1.24-2.29-2-2.78-2.41-1.12-.62-1.8-2.05-2-4.27q-.75-5.94-1.58-18.19T548.43,201q0-3.72.37-11.14l1.12-31.54q-.37-13.55,1.11-21.71a71.29,71.29,0,0,0,1.3-7.61c.12-.62.34-2.19.65-4.73a32.45,32.45,0,0,1,1.58-7,3.45,3.45,0,0,1,1.48-1.67,4.09,4.09,0,0,1,2.23-.93,7.41,7.41,0,0,1,3.34.84,5.52,5.52,0,0,1,2.41,2.13c.12.25.31.59.56,1a2.86,2.86,0,0,1,.37,1.39l-.37,2.42a148.7,148.7,0,0,0-1.49,24.86q0,8.73.19,13,.56,9.09,1.39,16.24c.56,4.76,1.51,8.07,2.88,9.92,1.6,2.48,3.46,3.71,5.56,3.71q4.46,0,8.17-6.86a34.27,34.27,0,0,0,4.08-14.85V152.36a13.31,13.31,0,0,1,.74-4.36,2.68,2.68,0,0,1,2.6-2.13,4.15,4.15,0,0,1,2.23.92,11.54,11.54,0,0,1,3.34,3.25,9,9,0,0,1,1.29,4.18c.13,2.84.38,6.34.75,10.48s.74,7.14,1.11,9a15.47,15.47,0,0,0,1.48,3.52c.5,1.12,1,2.3,1.4,3.53a10.33,10.33,0,0,1,.65,3.34,4.25,4.25,0,0,1-2.23,3.9,2.3,2.3,0,0,1-1.3.55q-2.22,0-5.75-5.38a22.7,22.7,0,0,1-1.67-2.69c-.5-.93-1-1.88-1.67-2.87a6.14,6.14,0,0,0-1.58,2.87c-.31,1.18-.59,2.14-.83,2.88-1.86,4.2-3.93,7.21-6.22,9a12.72,12.72,0,0,1-8.07,2.69q-3.35,0-10.58-2.41v11.31a77.74,77.74,0,0,0,.37,8.91,72.6,72.6,0,0,1,.37,8.72,35.33,35.33,0,0,1,.19,4.27,34.12,34.12,0,0,0,.56,7.24,21,21,0,0,1,.18,3.15,12.36,12.36,0,0,1-.83,5.2,10.76,10.76,0,0,1-3.44,3.52C558,245.2,557,244.7,555.67,243.47Z" style="fill:#7e9a3d"/><path d="M616.34,192.9a12.19,12.19,0,0,1-6.49-7,40.91,40.91,0,0,1-3.15-16.15,63.51,63.51,0,0,1,1.3-11.5,38.66,38.66,0,0,1,4.63-12.06q3-6.12,4.74-9.28a35.34,35.34,0,0,1,4.36-6.12q4.26-5,7.6-5a4.93,4.93,0,0,1,2.23.55,45.22,45.22,0,0,0,4.73,1.21,11.62,11.62,0,0,1,4.92,2.13c1,.74,1.73.62,2.23-.37a3.58,3.58,0,0,1,1.48-1.39,4,4,0,0,1,1.86-.65,2.83,2.83,0,0,1,1.94.74,3.15,3.15,0,0,1,1,1.86c.12.49.24,1.11.37,1.85a18,18,0,0,1,.18,2.79,13.74,13.74,0,0,1-.46,2.87,14.17,14.17,0,0,0-.47,3.06,14.87,14.87,0,0,0,.56,3.9,22.78,22.78,0,0,1,.56,8q-.93,9.64-1.3,21.9c-.13,1-.28,2.32-.47,4a39.25,39.25,0,0,0-.27,4,21.65,21.65,0,0,0,.37,3.16,11.09,11.09,0,0,0,2.69-3,27.83,27.83,0,0,0,2.13-4.64,39.61,39.61,0,0,1,1.86-3.9c.24-.61.86-2,1.85-4.08a32.16,32.16,0,0,0,2.23-6.31,6,6,0,0,1,1.11-1.76,1.83,1.83,0,0,1,1.12-.28c.74.5,1.11.93,1.11,1.3a13.07,13.07,0,0,1-.37,2.88c-.25,1.05-.44,1.76-.56,2.13a105.07,105.07,0,0,1-4.64,13.73,49.33,49.33,0,0,1-3,4.64l-2.22,3.53a4.18,4.18,0,0,1-3.53,1.67,24.3,24.3,0,0,1-6.21-2.23,7.08,7.08,0,0,1-3.25-4.45c-.13-.37-.28-.77-.47-1.21s-.4-.9-.65-1.39a22.45,22.45,0,0,0-3.34,4.55,20.86,20.86,0,0,1-2.41,3.61,24.09,24.09,0,0,1-4,3.62,7.21,7.21,0,0,1-4.17,1.21A19.44,19.44,0,0,1,616.34,192.9Zm9.84-3.52a13.35,13.35,0,0,0,3-3.43q6.5-10.22,7.79-17.82a152.33,152.33,0,0,0,1.49-17.07q.36-8.34.92-12.43a11.51,11.51,0,0,0-1.57-4.83c-.81-1.23-1.58-1.79-2.32-1.67a1.88,1.88,0,0,0-1.58,1c-.43.68-.71,1.14-.84,1.39l-3,6.86a150,150,0,0,0-7.61,20.23,79.53,79.53,0,0,0-2.23,13,20.24,20.24,0,0,0-.37,2.13,19.72,19.72,0,0,0-.18,2.51,16.24,16.24,0,0,0,.37,3.15,7.93,7.93,0,0,1,.18,2.78V186a7,7,0,0,0,.93,3.61c.62,1.06,1.23,1.58,1.86,1.58S624.82,190.56,626.18,189.38Z" style="fill:#7e9a3d"/><path d="M678.51,214.34a5.15,5.15,0,0,1-3-4.64,4.5,4.5,0,0,1,.55-2.6,5,5,0,0,1,1.49-1.3,7.35,7.35,0,0,0,1.76,2.88,4.16,4.16,0,0,0,3.06,1.2q3.15,0,6.87-3.24c2.47-2.17,3.71-4.3,3.71-6.41a4.57,4.57,0,0,0-1.67-3.52,9.13,9.13,0,0,0-3.62-2.32c-1.3-.44-3.19-1-5.66-1.76-4-1-6.8-2.11-8.53-3.34a12.09,12.09,0,0,1-3.62-3.71,40.63,40.63,0,0,1-2.23-4.37c-.68-1.54-1.14-2.62-1.39-3.24a18.3,18.3,0,0,1-1.3-7.05,47,47,0,0,1,1.11-8.35,62.88,62.88,0,0,1,13.73-28.39q4.83-6.13,14.29-12.06a4.61,4.61,0,0,1,2-.38q5.57,0,5.57,2.6a2.66,2.66,0,0,1-1.11,2,41.09,41.09,0,0,0-6.87,7.05q-3.15,4.09-3.89,5a59.22,59.22,0,0,0-8.17,14,40,40,0,0,0-3.53,15.68q0,11.51,9.28,16.7l9.65,2.23a10.15,10.15,0,0,1,5.29,5.1,17.42,17.42,0,0,1,1.76,7.7A15.15,15.15,0,0,1,700,210.07a17.12,17.12,0,0,1-9.65,5.75,12.32,12.32,0,0,1-3.89.56A17.77,17.77,0,0,1,678.51,214.34Z" style="fill:#7e9a3d"/></g></g><g style="isolation:isolate"><g style="isolation:isolate"><path d="M43.68,88.42a.83.83,0,0,0-.5-.3c-.54,0-.87-.06-1-.2s.2-.4.6-.8h.8c.13,0,1.6-.2,4.4-.6l6.8-.6,4.8-.4a14,14,0,0,1,2.6-.19,11.4,11.4,0,0,0,2.6-.21,24.13,24.13,0,0,1,3.3-.2,18.81,18.81,0,0,0,3.1-.2.82.82,0,0,0,.8-.39c.26.39.53.53.8.39a8.71,8.71,0,0,1,2.7-.39h1.9q6-.4,9.4-.41c2.13.14,5.33.2,9.6.2a1.57,1.57,0,0,0,.5-.1q.3-.09.3-.3h3.4c0,.27.26.34.8.2H108q4.39,0,6.4.2a6,6,0,0,0,1-.1,3.67,3.67,0,0,1,1.4.1,6.44,6.44,0,0,0,2,.4,11,11,0,0,1,2.4-.19h2.2a12,12,0,0,1,1.2.09,3.18,3.18,0,0,0,1.4-.09,1,1,0,0,1,.7.29.53.53,0,0,0,.7.1c.13-.13.36-.16.7-.1a3.76,3.76,0,0,0,.7.1h3.6a3.21,3.21,0,0,1,.8.11,1.85,1.85,0,0,0,1-.11,1.63,1.63,0,0,1,.6.2q.39.21.6,0a1,1,0,0,1,.5.2.63.63,0,0,0,.7,0h4.2a1.2,1.2,0,0,1,.7.21c.2.13.43.06.7-.21a.83.83,0,0,1,.5.3c.2.2.36.24.5.1h1.6a3.3,3.3,0,0,1,.6.1.58.58,0,0,0,.6-.1,1.63,1.63,0,0,1,.6.2.64.64,0,0,0,.8-.2c.13.27.46.4,1,.4h3a6.65,6.65,0,0,1,1,.2,2,2,0,0,1,1.2.8v.8h-.4a17.91,17.91,0,0,0-7-.6l-.6-.2-.2-.2-.4.4a1.46,1.46,0,0,1-.7-.4c-.34-.26-.57-.2-.7.2a1,1,0,0,0-.7-.2h-3.3a.78.78,0,0,1-.6-.2.85.85,0,0,0-.6-.19q-.21,0-.6.39a1.38,1.38,0,0,0-1-.39h-4.4a7.66,7.66,0,0,1-2.8-.41,1,1,0,0,0-1.6.41.94.94,0,0,0-1-.5,6.86,6.86,0,0,1-.8.09h-3.4a1.12,1.12,0,0,1-.8-.4l-.4.4c-1.2-.53-2.07-.53-2.6,0a.6.6,0,0,0-.6-.09.59.59,0,0,1-.6-.11,5.34,5.34,0,0,0-1.6-.2H110a1.18,1.18,0,0,1-.8-.19,6.49,6.49,0,0,1-1.8.39,9.11,9.11,0,0,1-2.2-.3,4.1,4.1,0,0,0-2-.09c-.27-.27-.74-.21-1.4.19a.39.39,0,0,0-.6-.19q-.41.19-.6,0a2.15,2.15,0,0,0-1-.21h-5.2a1.16,1.16,0,0,0-.8.4.87.87,0,0,0-.8-.3,2.76,2.76,0,0,1-.6.11,2.14,2.14,0,0,1-.7-.21c-.34-.13-.57-.13-.7,0h-1a.81.81,0,0,0-.8.4l-.4-.4a1.21,1.21,0,0,1-1.1.3c-.47-.06-.77,0-.9.1-.14-.4-.37-.5-.7-.3s-.57.17-.7-.1a1.35,1.35,0,0,1-1,.4H73.08a1,1,0,0,0-.7.2.92.92,0,0,1-.7.11,1.62,1.62,0,0,0-.5-.11c-.14.14-.6.2-1.4.2h-3.2l-.4.41-.4-.41a3.24,3.24,0,0,1-1.8.41,16.26,16.26,0,0,0-4,.09,37.29,37.29,0,0,1-3.8.3,5.85,5.85,0,0,1-1.8.2,7.11,7.11,0,0,0-2,.2,7.71,7.71,0,0,1-2.2.21,7.2,7.2,0,0,0-2,.19,17.56,17.56,0,0,1-3.2.2l-.6.8A.55.55,0,0,1,43.68,88.42Z" style="fill:#7e9a3d"/></g></g><g style="isolation:isolate"><g style="isolation:isolate"><path d="M26.14,50.66a7.62,7.62,0,0,0-1.54,0L23,50.77l-3.42.31c-1.72.14-3.26.22-4.61.22q-7,0-11-2.81T0,38.25V24.38q0-6.07,3-8.82a11.49,11.49,0,0,1,8-2.73,23.92,23.92,0,0,1,6.18.86,30.32,30.32,0,0,1,6,2.21l1.43-3.07,3.3,1.64c0,.56-.15,1.65-.3,3.3s-.22,3-.22,4v23.4a5.22,5.22,0,0,0,2.24,3.15l-2,2.47A13.25,13.25,0,0,1,26.14,50.66Zm-15-33.94q-7,0-7,7.88V38.77C4.12,42,5,44.3,6.75,45.6s4.4,1.95,8,1.95a60.3,60.3,0,0,0,8.47-.67V19.8C18,17.75,14,16.72,11.17,16.72Z" style="fill:#7e9a3d"/><path d="M79.31,50.89a6.2,6.2,0,0,1-2.21-2.06,6.69,6.69,0,0,1-1-3.83l.07-28.12h-20v34H52V13.35H80.4v32.4a4.85,4.85,0,0,0,.53,1.39,4.1,4.1,0,0,0,1.65,1.76l-2,2.48C80.55,51.47,80.14,51.31,79.31,50.89Z" style="fill:#7e9a3d"/><path d="M130.72,47.55q-3.45,4.13-10.42,4.12t-10.54-4.16a15.42,15.42,0,0,1-3.56-10.39v-9.9q0-7.11,3.64-10.91t10.46-3.79q6.53,0,10.2,3.94t3.67,10.76v9.9A15.69,15.69,0,0,1,130.72,47.55ZM127.39,19a9.55,9.55,0,0,0-7.09-2.62A9.88,9.88,0,0,0,113,19c-1.75,1.76-2.62,4.5-2.62,8.25V37.88a10.08,10.08,0,0,0,2.66,7.27,9.57,9.57,0,0,0,7.24,2.77q4.65,0,7.16-2.73A10.39,10.39,0,0,0,130,37.88V27.22C130,23.47,129.11,20.73,127.39,19ZM122.1,1.72A2.61,2.61,0,0,1,124.65,0a2.3,2.3,0,0,1,1.8.75,2.41,2.41,0,0,1,.67,1.65,2.32,2.32,0,0,1-.37,1.27l-5.18,6.91h-3.3Z" style="fill:#7e9a3d"/><path d="M204.22,48.08A11.91,11.91,0,0,1,202.35,41V17.4h-9v-4h22.57v4h-9.37V41q0,6,4.95,7.65l-1.2,3.23A10.78,10.78,0,0,1,204.22,48.08Z" style="fill:#7e9a3d"/><path d="M262.8,25.2q0-4.57-2.66-6.64a11,11,0,0,0-6.87-2.06,19.87,19.87,0,0,0-5.17.71,21,21,0,0,0-4.65,1.84V50.92h-4.2V13.35h4.2l-.3,2.55a11.58,11.58,0,0,1,4.57-2.36,20.9,20.9,0,0,1,5.78-.79,16.73,16.73,0,0,1,7.05,1.35,10.48,10.48,0,0,1,4.69,4A12.72,12.72,0,0,1,266.92,25v41.7l-4.12-1.79Z" style="fill:#7e9a3d"/><path d="M290.25,13.35h4.42l10,33.23L314.7,13.35h4.42L307.5,50.92h-5.78Z" style="fill:#7e9a3d"/></g></g></svg>