<svg xmlns="http://www.w3.org/2000/svg" viewBox="0 0 681.77 322.1"><g style="isolation:isolate"><text transform="translate(76.55 203.25)" style="isolation:isolate;font-size:167px;fill:#7e9a3d;font-family:NF-Takhie-Free-Regular, NF-Takhie-Free;letter-spacing:-0.032217790980538924em">Κ<tspan x="55.3" y="0" style="letter-spacing:-0.04332545845808383em">α</tspan><tspan x="111.7" y="0" style="letter-spacing:-0.010002456025449101em">λλιέργει</tspan><tspan x="446.99" y="0">ε</tspan><tspan x="486.89" y="0" style="letter-spacing:-0.010002456025449101em">ς</tspan></text></g><g style="isolation:isolate"><text transform="translate(460.44 280.18)" style="isolation:isolate;font-size:155px;fill:#7e9a3d;font-family:AlwaysAndForeverDingbats-Regular, Always And Forever Dingbats">n</text></g><g style="isolation:isolate"><text transform="translate(453.66 305.68)" style="isolation:isolate;font-size:75px;fill:#7e9a3d;font-family:AdventPro-Regular, Advent Pro;letter-spacing:0.2em">μ<tspan x="53.85" y="0" style="letter-spacing:0.19901041666666666em">α</tspan><tspan x="106.72" y="0">ς</tspan></text></g><g style="isolation:isolate"><text transform="translate(342.11 63.75)" style="isolation:isolate;font-size:75px;fill:#7e9a3d;font-family:AdventPro-Regular, Advent Pro;letter-spacing:0.2em">η</text></g><g style="isolation:isolate"><g style="isolation:isolate"><path d="M12.76,158.67a9,9,0,0,0-5.53-2.26c-2.29-.2-3.79-.37-4.51-.51C1,155.73,0,155,0,153.6a3.79,3.79,0,0,1,.78-1.77A2.35,2.35,0,0,1,1.83,151q2.85-.83,7.8.33c3.31.77,5.5,1.85,6.59,3.25q1.91,3.06.75,4.41Q15.47,161,12.76,158.67ZM6.35,199.05a2.35,2.35,0,0,1,.48-3.73q11.93-8.55,18.51-12.5a2.76,2.76,0,0,1,3.53,1.56c.58.86.18,1.83-1.22,2.91q-2.58,1.78-17.09,12.1Q8.46,201,6.35,199.05Zm21.8-60.21a6.38,6.38,0,0,0-1.36-1.15L12.19,128l-2-1.49c-1.09-1.39-1.41-2.5-1-3.32.67-1.22,1.94-1.59,3.8-1.09l4.55,3.32L29.5,132.8q3.6,3.6,3.87,4.55c.36,1.27.19,2.17-.51,2.71a1.89,1.89,0,0,1-2.27.14A5.45,5.45,0,0,1,28.15,138.84Z" style="fill:#7e9a3d"/></g></g><g style="isolation:isolate"><g style="isolation:isolate"><path d="M651.19,141.58a1.92,1.92,0,0,1-2.28-.13c-.69-.54-.87-1.45-.5-2.72.18-.63,1.48-2.14,3.87-4.54l11.89-7.38,4.55-3.32q2.79-.73,3.79,1.09c.46.83.14,1.93-1,3.33l-2,1.49L655,139.08a6.09,6.09,0,0,0-1.36,1.15A5.36,5.36,0,0,1,651.19,141.58Zm20,59.19q-14.51-10.32-17.08-12.1c-1.4-1.08-1.8-2.06-1.22-2.92a2.75,2.75,0,0,1,3.53-1.55q6.57,3.95,18.51,12.51a2.35,2.35,0,0,1,.47,3.73C674,201.75,672.59,201.87,671.19,200.77ZM664.8,160.4q-1.15-1.36.75-4.41c1.09-1.4,3.28-2.48,6.59-3.25s5.9-.87,7.8-.33a2.45,2.45,0,0,1,1,.82,3.71,3.71,0,0,1,.78,1.76c0,1.36-.95,2.13-2.72,2.31-.72.13-2.22.3-4.51.5a9,9,0,0,0-5.53,2.26C667.2,161.6,665.79,161.71,664.8,160.4Z" style="fill:#7e9a3d"/></g></g></svg>