<svg xmlns="http://www.w3.org/2000/svg" width="288.866" height="171.396" viewBox="0 0 288.866 171.396"><g transform="translate(-442.52 -12521.503)"><path d="M17.8.508H272.711a16.55,16.55,0,0,1,16.5,16.5V154.445a16.55,16.55,0,0,1-16.5,16.5H17.8a16.55,16.55,0,0,1-16.5-16.5V17.008A16.55,16.55,0,0,1,17.8.508" transform="translate(441.695 12521.475)" fill="none" fill-rule="evenodd"/><path d="M272.711-.575H17.8a16.771,16.771,0,0,1-6.594-1.34,17.011,17.011,0,0,1-5.4-3.647,17.011,17.011,0,0,1-3.647-5.4,16.771,16.771,0,0,1-1.34-6.594V-154.992a16.771,16.771,0,0,1,1.34-6.594,17.011,17.011,0,0,1,3.647-5.4,17.011,17.011,0,0,1,5.4-3.647,16.771,16.771,0,0,1,6.594-1.34H272.711a16.771,16.771,0,0,1,6.594,1.34,17.011,17.011,0,0,1,5.4,3.647,17.01,17.01,0,0,1,3.647,5.4,16.77,16.77,0,0,1,1.34,6.594V-17.555a16.77,16.77,0,0,1-1.34,6.594,17.011,17.011,0,0,1-3.647,5.4,17.011,17.011,0,0,1-5.4,3.647A16.771,16.771,0,0,1,272.711-.575ZM17.8-171.012a15.816,15.816,0,0,0-6.219,1.264,16.055,16.055,0,0,0-5.095,3.443,16.055,16.055,0,0,0-3.443,5.095,15.816,15.816,0,0,0-1.264,6.219V-17.555a15.816,15.816,0,0,0,1.264,6.219A16.055,16.055,0,0,0,6.491-6.241,16.055,16.055,0,0,0,11.586-2.8,15.816,15.816,0,0,0,17.8-1.535H272.711A15.816,15.816,0,0,0,278.93-2.8a16.055,16.055,0,0,0,5.095-3.443,16.054,16.054,0,0,0,3.443-5.095,15.816,15.816,0,0,0,1.264-6.219V-154.992a15.816,15.816,0,0,0-1.264-6.219,16.054,16.054,0,0,0-3.443-5.095,16.055,16.055,0,0,0-5.095-3.443,15.816,15.816,0,0,0-6.219-1.264Z" transform="translate(441.695 12693.475)" fill="#797979"/><path d="M127.867,145.09V124.633h13.2v3.4h-8.812v4.934h8.219v3.4h-8.219v8.727h-4.391" transform="translate(441.695 12521.475)" fill="#d8d8d8"/><path d="M150.059,145.512c-4.648,0-7.426-3.059-7.426-7.535s2.777-7.535,7.426-7.535,7.422,3.059,7.422,7.535S154.7,145.512,150.059,145.512Zm0-2.828c2.605,0,3.031-2.441,3.031-4.707s-.426-4.7-3.031-4.7-3.031,2.434-3.031,4.7.422,4.707,3.031,4.707" transform="translate(441.695 12521.475)" fill="#d8d8d8"/><path d="M167.094,145.512c-4.648,0-7.426-3.059-7.426-7.535s2.777-7.535,7.426-7.535,7.426,3.059,7.426,7.535S171.738,145.512,167.094,145.512Zm0-2.828c2.605,0,3.031-2.441,3.031-4.707s-.426-4.7-3.031-4.7-3.031,2.434-3.031,4.7.422,4.707,3.031,4.707" transform="translate(441.695 12521.475)" fill="#d8d8d8"/><path d="M76.742,44.789H95.828l9.539,16.531L95.828,77.848H76.742L67.2,61.32l9.543-16.531" transform="translate(441.695 12521.475)" fill="#d8d8d8"/><path d="M76.648,83.3H95.734l9.539,16.527-9.539,16.527H76.648L67.105,99.824,76.648,83.3" transform="translate(441.695 12521.475)" fill="#d8d8d8"/><path d="M44.77,23.871H63.855L73.395,40.4,63.855,56.93H44.77L35.227,40.4,44.77,23.871" transform="translate(441.695 12521.475)" fill="#d8d8d8"/><path d="M141.57,108H128.156V45.52H141.57V108" transform="translate(441.695 12521.475)" fill="#d8d8d8"/><path d="M158.492,108V45.516h40.336V55.9H171.91V70.953h25.1V81.344h-25.1V108H158.492" transform="translate(441.695 12521.475)" fill="#d8d8d8"/></g></svg>