<svg xmlns="http://www.w3.org/2000/svg" viewBox="0 0 256.18 94.48"><g style="isolation:isolate"><g style="isolation:isolate"><path d="M0,59.84H8.41a7.13,7.13,0,0,1,4.91,1.6,6.18,6.18,0,0,1,1.79,4.87,8,8,0,0,1-.49,2.82,5,5,0,0,1-2,2.36l0,.08v0a6.63,6.63,0,0,1,2.8,2.48,8,8,0,0,1,1.12,4.45,9,9,0,0,1-1.77,5.62c-1.18,1.56-3.16,2.34-6,2.34H0Zm11.69,9.78a4.31,4.31,0,0,0,1.21-3.31c0-3-1.59-4.45-4.79-4.45h-6v8.91H8.34A4.68,4.68,0,0,0,11.69,69.62Zm1,13.48c1-.91,1.49-2.49,1.49-4.72a5.46,5.46,0,0,0-1.45-4.09,4.7,4.7,0,0,0-3.42-1.43H2.13V84.47H8.68A5.72,5.72,0,0,0,12.71,83.1Z" style="fill:#7e9a3d"/><path d="M27.86,67.42H30V86.49H27.86Z" style="fill:#7e9a3d"/><path d="M58.81,70.82a4.2,4.2,0,0,0-2.32-1.69l1.22-1.67a5.64,5.64,0,0,1,3,2.57,8.69,8.69,0,0,1,1,4.39v4.91q0,7.62-6.13,7.62a5.37,5.37,0,0,1-2.24-.48,4,4,0,0,1-1.76-1.54,4.47,4.47,0,0,1-1.78,1.52,5.24,5.24,0,0,1-2.21.5q-6.13,0-6.13-7.62V74.42a8.69,8.69,0,0,1,1-4.39,5.64,5.64,0,0,1,3-2.57l1.22,1.67a4.2,4.2,0,0,0-2.32,1.69A5.64,5.64,0,0,0,43.66,74v5.67a5.83,5.83,0,0,0,1.12,3.94,3.55,3.55,0,0,0,2.76,1.28,2.45,2.45,0,0,0,2.25-1.11,6.87,6.87,0,0,0,.76-3.35V75.11h2.21v5.36a6.59,6.59,0,0,0,.72,3.35,2.48,2.48,0,0,0,2.29,1.11,3.55,3.55,0,0,0,2.76-1.28,5.88,5.88,0,0,0,1.12-3.94V74A5.64,5.64,0,0,0,58.81,70.82Z" style="fill:#7e9a3d"/><path d="M80.93,87.21q-3.62,0-5.39-2a7.79,7.79,0,0,1-1.77-5.42V73a5.21,5.21,0,0,1,1.81-4.45,7.46,7.46,0,0,1,4.62-1.37,9.32,9.32,0,0,1,1.49.08,21.92,21.92,0,0,0,2.36.19,6.24,6.24,0,0,0,2.21-.37,6.62,6.62,0,0,0,2-1.27l1.56.57a6.54,6.54,0,0,1-1.58,1.92,5.37,5.37,0,0,1-2,1,4,4,0,0,1,1.28,2A10.41,10.41,0,0,1,88,74.69v5.14Q88,87.21,80.93,87.21ZM85.4,71.87a6.86,6.86,0,0,0-1-1.83c-.35-.43-.57-.63-.67-.61a19.4,19.4,0,0,0-3.46-.38,5.1,5.1,0,0,0-3.26.94,3.82,3.82,0,0,0-1.16,3.14v7.08A5,5,0,0,0,77.27,84a4.93,4.93,0,0,0,8.57-3.8V74.69A8.19,8.19,0,0,0,85.4,71.87Z" style="fill:#7e9a3d"/><path d="M101.18,67.42h2.13V86.49h-2.13Z" style="fill:#7e9a3d"/><path d="M129,86.45a2.37,2.37,0,0,1-.86-.91A5.92,5.92,0,0,1,123.75,87c-.38,0-.67,0-.88,0a12,12,0,0,1-2.79-.63,12.45,12.45,0,0,1-1.79-.8,8.79,8.79,0,0,0-.82-.44v9.44l-2.17-.34V67.42h2.17V82.49a10.74,10.74,0,0,0,2.32,1.56,8,8,0,0,0,3.88.92c2.62,0,3.92-1.44,3.92-4.31V67.53l2.17-.45V83.86a2.36,2.36,0,0,0,.23.72,1.93,1.93,0,0,0,.8.88l-1,1.26A1.71,1.71,0,0,1,129,86.45Z" style="fill:#7e9a3d"/><path d="M155.08,84.78a6.52,6.52,0,0,1-5.29,2.09,6.64,6.64,0,0,1-5.35-2.11,7.82,7.82,0,0,1-1.81-5.28v-5a7.69,7.69,0,0,1,1.85-5.54A7,7,0,0,1,149.79,67,6.73,6.73,0,0,1,155,69a7.65,7.65,0,0,1,1.87,5.46v5A8,8,0,0,1,155.08,84.78Zm-1.7-14.51a4.79,4.79,0,0,0-3.59-1.33,5,5,0,0,0-3.7,1.33,5.77,5.77,0,0,0-1.33,4.19v5.41a5.11,5.11,0,0,0,1.35,3.69A4.86,4.86,0,0,0,149.79,85a4.7,4.7,0,0,0,3.63-1.39,5.29,5.29,0,0,0,1.28-3.71V74.46A5.77,5.77,0,0,0,153.38,70.27Zm-2.68-8.75a1.32,1.32,0,0,1,1.29-.88,1.18,1.18,0,0,1,.92.38,1.24,1.24,0,0,1,.34.84,1.2,1.2,0,0,1-.19.65L150.43,66h-1.67Z" style="fill:#7e9a3d"/><path d="M174.19,85a6,6,0,0,1-1-3.58v-12h-4.56v-2h11.45v2h-4.75v12c0,2,.83,3.33,2.51,3.89L177.27,87A5.41,5.41,0,0,1,174.19,85Z" style="fill:#7e9a3d"/><path d="M203.92,73.43a4,4,0,0,0-1.36-3.37,5.56,5.56,0,0,0-3.48-1,10.09,10.09,0,0,0-2.63.36,10.75,10.75,0,0,0-2.36.93V86.49H192V67.42h2.13l-.15,1.29a6,6,0,0,1,2.32-1.2,11,11,0,0,1,2.93-.4,8.44,8.44,0,0,1,3.58.69,5.24,5.24,0,0,1,2.38,2,6.47,6.47,0,0,1,.86,3.47V94.48l-2.09-.91Z" style="fill:#7e9a3d"/><path d="M223.37,85a6,6,0,0,1-1-3.58v-12h-4.57v-2H229.3v2h-4.75v12c0,2,.83,3.33,2.51,3.89L226.45,87A5.41,5.41,0,0,1,223.37,85Z" style="fill:#7e9a3d"/><path d="M254.41,86.36a3,3,0,0,0-.78,0l-.8.07-1.73.15q-1.32.12-2.34.12a9.6,9.6,0,0,1-5.58-1.43q-2-1.43-2-5.19V73a5.14,5.14,0,0,1,5.6-5.86,12.42,12.42,0,0,1,3.14.44,15.37,15.37,0,0,1,3,1.12l.73-1.56,1.67.84c0,.28-.07.84-.15,1.67s-.11,1.51-.11,2V83.56a2.63,2.63,0,0,0,1.14,1.6l-1,1.25C255,86.41,254.75,86.39,254.41,86.36Zm-7.6-17.23q-3.57,0-3.57,4v7.19a4.05,4.05,0,0,0,1.33,3.47,6.74,6.74,0,0,0,4,1,30.45,30.45,0,0,0,4.3-.35V70.69A18,18,0,0,0,246.81,69.13Z" style="fill:#7e9a3d"/></g></g><g style="isolation:isolate"><g style="isolation:isolate"><path d="M70.52,21c-.36-.24-.53-.45-.53-.65a24.85,24.85,0,0,1,.29-3.17c.25-1.77.44-3.09.59-4a53.92,53.92,0,0,1,1.44-6.37l.29-1.11c.12-.56.27-1.12.44-1.66,0-.19.18-.62.37-1.29s.38-1.21.56-1.65a7.77,7.77,0,0,1,.47-1l1-.07a1.37,1.37,0,0,1,1.13.63A3.35,3.35,0,0,1,77.13,2l1.44,10.69a38.3,38.3,0,0,1,.37,4.46,17.14,17.14,0,0,0,.29,2.65c0,.22.1.51.15.85a.78.78,0,0,1,0,.29c0,.28-.11.41-.33.41a.81.81,0,0,1-.79-.57,3.46,3.46,0,0,1-.24-1.35,20.69,20.69,0,0,0-.26-2.94c0-.27-.06-.61-.11-1s-.09-.86-.11-1.38c0-.25-.11-.37-.33-.37l-1.44,0c-.17,0-.58,0-1.22.08a.63.63,0,0,0-.53.35,3.85,3.85,0,0,0-.28.66l-.15.5a6.33,6.33,0,0,0-.38,1.57c-.09.62-.15,1.05-.17,1.27s-.09.44-.18,1a8.46,8.46,0,0,1-.34,1.31c-.12.36-.24.56-.36.61l-.7.37A1.63,1.63,0,0,1,70.52,21Zm6.8-8a.56.56,0,0,0,.18-.49l-.77-6.27L76.4,3.54a4,4,0,0,0-.24,1.16c0,.43-.07.72-.09.86A31.1,31.1,0,0,1,75.37,9c-.42,1.72-.68,2.7-.78,2.95a1.64,1.64,0,0,0-.07.52c0,.34.13.51.4.51s.59,0,1,.07l.77,0A1,1,0,0,0,77.32,13Z" style="fill:#7e9a3d"/><path d="M89.24,21.34a.93.93,0,0,1-.31-.59V20.6c0-.42,0-1-.08-1.81,0-1.22-.07-2.15-.07-2.76s0-1,0-1.33c.09-1.94.16-3.61.18-5a1.82,1.82,0,0,0-.15-.85.62.62,0,0,0-.59-.25,2.42,2.42,0,0,0-.66.07,3.73,3.73,0,0,1-.85.07A2.13,2.13,0,0,0,85.57,9l-.37.08-.44,0a.37.37,0,0,0-.33.18,2.79,2.79,0,0,0-.22,1.18,1.88,1.88,0,0,0,0,.48,24.23,24.23,0,0,1,.22,3.46,5.47,5.47,0,0,1,0,1c0,.25,0,.56,0,.92a5.23,5.23,0,0,0,0,.7,2.43,2.43,0,0,1,0,.52c0,1.38-.11,2.41-.19,3.1a1.6,1.6,0,0,1-.13.57.46.46,0,0,1-.38.24,2.72,2.72,0,0,1-.48,0,2,2,0,0,1-1.48-.62,2.71,2.71,0,0,1-.55-1.15A15.75,15.75,0,0,1,81,17.47a6.61,6.61,0,0,0,0-.89c0-.88-.07-1.53-.07-1.95a43,43,0,0,1,.33-4.86c0-.1,0-.21.08-.34a2.76,2.76,0,0,0,0-.44A1.46,1.46,0,0,0,81,8.11a.75.75,0,0,1-.11-.26c0-.2.13-.32.41-.37l3.09-.29c.42,0,1.06,0,1.92,0h2.39a1,1,0,0,1,.68.2,1.91,1.91,0,0,1,.46.68,5.5,5.5,0,0,1,.41,2.33,6.11,6.11,0,0,1,0,.92q0,.59,0,1.8v4.28l0,1.47c0,.44,0,1.13.07,2.06V21a.72.72,0,0,1-.14.44.47.47,0,0,1-.37.18A.76.76,0,0,1,89.24,21.34Z" style="fill:#7e9a3d"/><path d="M93.33,20.75a2.54,2.54,0,0,1-1-1.11,8.36,8.36,0,0,1-.89-3.87,11.64,11.64,0,0,1,.11-1.58,8.81,8.81,0,0,1,.67-2.47c.07-.15.29-.64.64-1.48a7.92,7.92,0,0,1,1.2-2,1.79,1.79,0,0,1,1.29-.78,1.24,1.24,0,0,1,.37.08,5.88,5.88,0,0,0,.9.16,2.58,2.58,0,0,1,1,.35l.55.52.45.92.14.66L99,11a15.11,15.11,0,0,1-.15,3.17,28.76,28.76,0,0,1-.7,3l-.33,1.1a.45.45,0,0,1,0,.2.61.61,0,0,0,0,.17l-.37.66a6.78,6.78,0,0,1-.48.85,7.17,7.17,0,0,1-1,.92,1.31,1.31,0,0,1-.95.19A4.33,4.33,0,0,1,93.33,20.75Zm2-.48a23.62,23.62,0,0,0,1.54-2.56,6.88,6.88,0,0,0,.48-2,11.6,11.6,0,0,0,.08-1.55l0-2.4A5.71,5.71,0,0,0,97.11,9a.74.74,0,0,1-.22-.24c-.08-.11-.15-.16-.22-.16-.27,0-.46.17-.56.51s-.24.73-.51,1.51a40,40,0,0,0-1.15,4,16,16,0,0,0-.25,3.17c0,.24,0,.76.14,1.55a1.45,1.45,0,0,0,.21.73c.13.25.27.37.42.37A.84.84,0,0,0,95.38,20.27Z" style="fill:#7e9a3d"/><path d="M102.36,20.4A4.82,4.82,0,0,1,100.94,18a4,4,0,0,1-.26-1.43,11.22,11.22,0,0,1,.22-1.77,13.8,13.8,0,0,1,2.8-5.94,12.74,12.74,0,0,1,3-2.5s.19-.08.44-.08c.76,0,1.14.18,1.14.52a.54.54,0,0,1-.22.44L106.8,8.33q-.3.3-.48.51a.69.69,0,0,0-.18.41.74.74,0,0,0,.14.41c.1.14.24.31.41.51a3.11,3.11,0,0,1,.74,1.95c0,.59.09,1,.14,1.33a19.37,19.37,0,0,1,.15,2,4.71,4.71,0,0,1,0,.74,12.59,12.59,0,0,1-.57,2.91c-.33,1.08-.77,1.73-1.31,1.95a3.1,3.1,0,0,1-1.29.3A3.18,3.18,0,0,1,102.36,20.4Zm2.82-.21a1.18,1.18,0,0,0,.2-.27,2.91,2.91,0,0,1,.17-.28,15.32,15.32,0,0,0,1.06-4.24,11.79,11.79,0,0,0,0-1.18,9.24,9.24,0,0,0-.22-2.17c0-.05-.12-.44-.29-1.16s-.39-1-.63-.87a1.42,1.42,0,0,0-.46.45,3.24,3.24,0,0,0-.3.59c-.08.22-.16.41-.24.58a10.92,10.92,0,0,0-.66,7.45,3.5,3.5,0,0,0,.19.59,5.5,5.5,0,0,0,.4.48.54.54,0,0,0,.41.14A.44.44,0,0,0,105.18,20.19Z" style="fill:#7e9a3d"/><path d="M111.42,20.8a1.52,1.52,0,0,1-.46-1V18.31l0-3.13v-.51c0-1.26.12-2.34.22-3.26a13.85,13.85,0,0,1,.55-2.68l.07-.55a.23.23,0,0,0-.11-.22.23.23,0,0,0-.25,0,8.36,8.36,0,0,1-1.15.22c-.32,0-.48-.13-.48-.4s.11-.29.34-.34c.39-.12.86-.24,1.4-.36l2.87-.63a3,3,0,0,1,.55-.07,1.53,1.53,0,0,1,.8.2c.23.13.35.27.35.42s-.1.26-.3.33a1,1,0,0,1-.55.11h-.52c-.51.08-.77.19-.77.34A.53.53,0,0,0,114,8a.54.54,0,0,1,.08.22,18.45,18.45,0,0,1-.19,3.65,18.12,18.12,0,0,0-.18,2.83c0,.42,0,1.05.07,1.88l0,1.73a11.16,11.16,0,0,1-.3,2.11.88.88,0,0,1-.4.58,1.3,1.3,0,0,1-.74.23A1.38,1.38,0,0,1,111.42,20.8Z" style="fill:#7e9a3d"/><path d="M118.39,20.75a2.54,2.54,0,0,1-1-1.11,8.36,8.36,0,0,1-.89-3.87,11.64,11.64,0,0,1,.11-1.58,8.76,8.76,0,0,1,.66-2.47c.08-.15.29-.64.65-1.48a7.92,7.92,0,0,1,1.2-2,1.79,1.79,0,0,1,1.29-.78,1.24,1.24,0,0,1,.37.08,5.64,5.64,0,0,0,.9.16,2.58,2.58,0,0,1,1,.35l.55.52.44.92.15.66L124,11a15.11,15.11,0,0,1-.15,3.17c-.15.83-.38,1.82-.7,3l-.33,1.1a.45.45,0,0,1,0,.2.61.61,0,0,0,0,.17l-.37.66a8.33,8.33,0,0,1-.48.85,7.17,7.17,0,0,1-1,.92,1.33,1.33,0,0,1-1,.19A4.34,4.34,0,0,1,118.39,20.75Zm2-.48A24.26,24.26,0,0,0,122,17.71a6.88,6.88,0,0,0,.48-2,12,12,0,0,0,.07-1.55l0-2.4a5.71,5.71,0,0,0-.4-2.76.89.89,0,0,1-.23-.24c-.07-.11-.14-.16-.22-.16-.27,0-.45.17-.55.51s-.25.73-.52,1.51a39.3,39.3,0,0,0-1.14,4,15.94,15.94,0,0,0-.26,3.17c0,.24,0,.76.15,1.55a1.54,1.54,0,0,0,.2.73c.14.25.28.37.43.37A.78.78,0,0,0,120.43,20.27Z" style="fill:#7e9a3d"/><path d="M122.13,24.73l-.08-.19c0-.12.15-.3.43-.53a7.84,7.84,0,0,1,.94-.68c.54-.4.88-.67,1-.81a38.26,38.26,0,0,0,3.13-3.62,12,12,0,0,0,1.94-3.63,15,15,0,0,0,.49-4.18,5.86,5.86,0,0,0-.18-1.69,1.72,1.72,0,0,0-.48-.85,1.08,1.08,0,0,0-.74-.3,1.45,1.45,0,0,0-1,.48,5,5,0,0,0-.89,1.13c-.27.45-.45.77-.55.94s-.08.14-.16.29a.65.65,0,0,1-.39.3c-.22.1-.33,0-.33-.19a3,3,0,0,1,.24-.92,8.44,8.44,0,0,1,.38-.88,4.06,4.06,0,0,1,2.69-1.88,1.69,1.69,0,0,1,.48,0,5.6,5.6,0,0,1,1.18.13,2.39,2.39,0,0,1,1,.39,3.06,3.06,0,0,1,.92,1.32,10.84,10.84,0,0,1,.44,3.5l0,2.62a35.19,35.19,0,0,1-.37,5.16,1.41,1.41,0,0,1-.41.92c-.81.07-1.46.11-1.95.11a1.12,1.12,0,0,1-.74-.66,2.39,2.39,0,0,1-.11-.78,8.78,8.78,0,0,1,.06-1q.06-.55.09-.78l.18-.62a1.39,1.39,0,0,0-.25.4,27,27,0,0,1-4.72,5.53,13.06,13.06,0,0,1-1,.79,1.91,1.91,0,0,1-.79.39A.39.39,0,0,1,122.13,24.73Z" style="fill:#7e9a3d"/><path d="M141.35,22.83a2.06,2.06,0,0,1-.46-1.46,40.66,40.66,0,0,1,.36-5.6c.15-1.08.3-2.37.46-3.87s.24-2.42.24-2.76a1.16,1.16,0,0,0-.07-.52c0-.07-.15-.08-.29,0A1.93,1.93,0,0,0,141,9l-.62,1-1,1.47a12.37,12.37,0,0,0-1.29,3.23,14.19,14.19,0,0,0-.48,3.55c0,.5-.05,1.21-.15,2.14-.1.64-.35,1-.77,1a1.93,1.93,0,0,1-.66-.18,1.66,1.66,0,0,1-1-1.29,14.47,14.47,0,0,1-.15-2.14V16.8c0-1.62-.07-2.83-.07-3.64l0-1.85,0-.92a8.65,8.65,0,0,0,0-.88V9.29c0-.45.3-.67.92-.67a.85.85,0,0,1,.62.26,1.92,1.92,0,0,1,.67,1.51,11.06,11.06,0,0,0,.07,1.77,9.28,9.28,0,0,1,.07,1,1,1,0,0,1,0,.25.71.71,0,0,0,0,.26.62.62,0,0,0,.11.37c.22-.44.58-1.26,1.07-2.47a24.75,24.75,0,0,1,1.47-3.09,2,2,0,0,1,1.81-1.15h.15a1.63,1.63,0,0,1,.55-.11,1,1,0,0,1,.77.3,2.21,2.21,0,0,1,.92,1.62,11.55,11.55,0,0,1,.19,2,9.35,9.35,0,0,1-.19,1.8c0,.32,0,.78,0,1.37l-.15,1.84q-.15,1.37-.18,1.95a13.87,13.87,0,0,1-.56,2.77,1.25,1.25,0,0,0-.11.55l.08,1.36v.11c0,.3-.13.45-.37.45A1.78,1.78,0,0,1,141.35,22.83ZM139.71,5.12a1.83,1.83,0,0,1,.22-.81l.07-.26.37-.73a2.08,2.08,0,0,1,.77-.92,2.27,2.27,0,0,1,.89-.3.88.88,0,0,1,.51.18c.08,0,.11.09.11.19a1.94,1.94,0,0,1-.25.77c-.05.13-.14.32-.26.59a5.13,5.13,0,0,1-.43.76,6,6,0,0,1-.6.72l-.15.11a2.12,2.12,0,0,1-.5.2l-.27,0C139.87,5.67,139.71,5.49,139.71,5.12Z" style="fill:#7e9a3d"/><path d="M155.7,31.14c-.27-.25-.46-.41-.55-.48a1,1,0,0,1-.41-.85c-.1-.78-.2-2-.31-3.61s-.17-2.79-.17-3.5c0-.49,0-1.23.08-2.21l.22-6.27a21.45,21.45,0,0,1,.22-4.31A14.53,14.53,0,0,0,155,8.4c0-.12.06-.43.13-.94a6.34,6.34,0,0,1,.31-1.38.64.64,0,0,1,.29-.33.84.84,0,0,1,.45-.19,1.47,1.47,0,0,1,.66.17,1.11,1.11,0,0,1,.48.42,2.28,2.28,0,0,0,.11.21.52.52,0,0,1,.07.27l-.07.48a30.22,30.22,0,0,0-.3,4.94c0,1.16,0,2,0,2.58.07,1.2.17,2.28.28,3.22a4.41,4.41,0,0,0,.57,2,1.34,1.34,0,0,0,1.1.73c.59,0,1.13-.45,1.62-1.36a6.69,6.69,0,0,0,.82-2.95V13a2.54,2.54,0,0,1,.14-.86.54.54,0,0,1,.52-.43.85.85,0,0,1,.44.19,2.13,2.13,0,0,1,.66.64,1.73,1.73,0,0,1,.26.83c0,.57.08,1.26.15,2.09s.15,1.41.22,1.78a3,3,0,0,0,.3.7c.09.22.19.46.27.7a2,2,0,0,1,.13.67.84.84,0,0,1-.44.77.5.5,0,0,1-.26.11c-.29,0-.68-.35-1.14-1.07a4.23,4.23,0,0,1-.33-.53q-.15-.28-.33-.57a1.14,1.14,0,0,0-.32.57c-.06.23-.12.42-.16.57A4.55,4.55,0,0,1,160.47,21a2.55,2.55,0,0,1-1.6.53,7.61,7.61,0,0,1-2.1-.48v2.25a15.47,15.47,0,0,0,.07,1.77,14,14,0,0,1,.08,1.73c0,.2,0,.48,0,.85a7.21,7.21,0,0,0,.11,1.44,3.29,3.29,0,0,1,0,.62,2.4,2.4,0,0,1-.17,1,1.92,1.92,0,0,1-.68.7C156.15,31.48,156,31.38,155.7,31.14Z" style="fill:#7e9a3d"/><path d="M167.75,21.1a2.45,2.45,0,0,1-1.29-1.39,8,8,0,0,1-.63-3.2,13,13,0,0,1,.26-2.29,7.83,7.83,0,0,1,.92-2.39c.4-.81.71-1.43.94-1.84a7,7,0,0,1,.87-1.22,2.25,2.25,0,0,1,1.51-1,.9.9,0,0,1,.44.11c.22.07.54.15.94.24a2.21,2.21,0,0,1,1,.42c.19.15.34.12.44-.07a.78.78,0,0,1,.29-.28.75.75,0,0,1,.37-.13.56.56,0,0,1,.39.15.59.59,0,0,1,.2.37,3.72,3.72,0,0,1,.08.37,4.11,4.11,0,0,1,0,.55,2.86,2.86,0,0,1-.09.57,2.88,2.88,0,0,0-.09.61,3.11,3.11,0,0,0,.11.77,4.54,4.54,0,0,1,.11,1.58c-.12,1.28-.21,2.73-.26,4.35,0,.2-.05.46-.09.8a6.86,6.86,0,0,0-.06.79,4.48,4.48,0,0,0,.08.62,2,2,0,0,0,.53-.59,5.05,5.05,0,0,0,.43-.92c.14-.34.27-.6.36-.77s.18-.39.37-.81a6.5,6.5,0,0,0,.45-1.25.93.93,0,0,1,.22-.35.34.34,0,0,1,.22-.06c.15.1.22.19.22.26a3.15,3.15,0,0,1-.07.57,3.12,3.12,0,0,1-.12.42,19,19,0,0,1-.92,2.73,8.61,8.61,0,0,1-.59.92l-.44.7a.79.79,0,0,1-.7.33,4.8,4.8,0,0,1-1.23-.44,1.38,1.38,0,0,1-.65-.88,1.17,1.17,0,0,0-.09-.24l-.13-.28a4.37,4.37,0,0,0-.66.9,3.81,3.81,0,0,1-.48.72,5.3,5.3,0,0,1-.79.72,1.45,1.45,0,0,1-.83.24A3.88,3.88,0,0,1,167.75,21.1Zm1.95-.7a2.56,2.56,0,0,0,.59-.69,10,10,0,0,0,1.55-3.53,27.72,27.72,0,0,0,.29-3.39c.05-1.11.12-1.93.19-2.47a2.31,2.31,0,0,0-.31-1c-.16-.25-.32-.36-.47-.33a.38.38,0,0,0-.31.2c-.08.14-.14.23-.16.28l-.59,1.36a29.05,29.05,0,0,0-1.51,4,15.5,15.5,0,0,0-.45,2.58c0,.1-.05.24-.07.42a3.13,3.13,0,0,0,0,.5,3.19,3.19,0,0,0,.08.62,1.41,1.41,0,0,1,0,.56v.14a1.29,1.29,0,0,0,.19.72c.12.21.24.32.37.32A1.2,1.2,0,0,0,169.7,20.4Z" style="fill:#7e9a3d"/><path d="M180.1,25.35a1,1,0,0,1-.59-.92.82.82,0,0,1,.11-.51.92.92,0,0,1,.29-.26,1.4,1.4,0,0,0,.35.57.82.82,0,0,0,.61.24,2.15,2.15,0,0,0,1.36-.65,1.77,1.77,0,0,0,.74-1.27.91.91,0,0,0-.33-.7,1.88,1.88,0,0,0-.72-.46L180.79,21a5.21,5.21,0,0,1-1.69-.66,2.4,2.4,0,0,1-.72-.74,7.71,7.71,0,0,1-.44-.86c-.14-.31-.23-.53-.28-.65a3.68,3.68,0,0,1-.26-1.4,9.3,9.3,0,0,1,.23-1.66,12.5,12.5,0,0,1,2.72-5.64A11.24,11.24,0,0,1,183.19,7,.9.9,0,0,1,183.6,7c.73,0,1.1.18,1.1.52a.53.53,0,0,1-.22.41,7.87,7.87,0,0,0-1.36,1.4l-.78,1a12,12,0,0,0-1.62,2.78,7.94,7.94,0,0,0-.7,3.12,3.52,3.52,0,0,0,1.84,3.31l1.92.45a2,2,0,0,1,1.05,1,3.5,3.5,0,0,1,.35,1.53,3,3,0,0,1-.81,2,3.43,3.43,0,0,1-1.92,1.14,2.55,2.55,0,0,1-.77.11A3.51,3.51,0,0,1,180.1,25.35Z" style="fill:#7e9a3d"/></g></g><g style="isolation:isolate"><g style="isolation:isolate"><path d="M56.63,42.39a.35.35,0,0,0-.19-.11.66.66,0,0,1-.4-.08c0-.05.08-.16.24-.32h.31l1.74-.23L61,41.41l1.89-.16a5.74,5.74,0,0,1,1-.08,4.22,4.22,0,0,0,1-.08,9.88,9.88,0,0,1,1.3-.07,7.9,7.9,0,0,0,1.22-.08.33.33,0,0,0,.32-.16c.1.16.21.21.31.16a3.25,3.25,0,0,1,1.07-.16h.75c1.57-.11,2.8-.16,3.7-.16s2.1.08,3.78.08a.5.5,0,0,0,.19,0c.08,0,.12-.06.12-.12H79c0,.11.11.13.32.08H82c1.15,0,2,0,2.52.08a2.13,2.13,0,0,0,.39,0,1.34,1.34,0,0,1,.55,0,2.5,2.5,0,0,0,.79.16,4.32,4.32,0,0,1,1-.08H88a3.38,3.38,0,0,1,.47,0,1.27,1.27,0,0,0,.56,0,.37.37,0,0,1,.27.12.23.23,0,0,0,.28,0c.05-.06.14-.07.27,0l.28,0h1.42a1.1,1.1,0,0,1,.31,0,.84.84,0,0,0,.4,0,.48.48,0,0,1,.23.08q.17.07.24,0a.4.4,0,0,1,.2.07.22.22,0,0,0,.27,0h1.66a.5.5,0,0,1,.27.08c.08.06.17,0,.28-.08s.11,0,.19.12.15.09.2,0h.63l.24,0a.22.22,0,0,0,.23,0,.72.72,0,0,1,.24.08.25.25,0,0,0,.31-.08c.06.11.19.16.4.16h1.18a2.83,2.83,0,0,1,.39.08.81.81,0,0,1,.48.31v.32h-.16A7.1,7.1,0,0,0,97,41.88l-.23-.08-.08-.08-.16.16a.58.58,0,0,1-.28-.16c-.13-.1-.22-.07-.27.08a.43.43,0,0,0-.28-.08H94.4a.32.32,0,0,1-.23-.07.32.32,0,0,0-.24-.08q-.08,0-.24.15a.53.53,0,0,0-.39-.15H91.57a3.22,3.22,0,0,1-1.11-.16.4.4,0,0,0-.63.16.36.36,0,0,0-.39-.2l-.32,0H87.79a.45.45,0,0,1-.32-.16l-.16.16q-.7-.31-1,0a.24.24,0,0,0-.24,0,.22.22,0,0,1-.23,0,2.15,2.15,0,0,0-.63-.08H82.74a.41.41,0,0,1-.31-.08,2.38,2.38,0,0,1-.71.16,3.62,3.62,0,0,1-.87-.12,1.64,1.64,0,0,0-.78,0c-.11-.1-.29-.08-.55.08a.17.17,0,0,0-.24-.08q-.16.09-.24,0a.87.87,0,0,0-.39-.08H76.6a.45.45,0,0,0-.31.16.36.36,0,0,0-.32-.12.9.9,0,0,1-.24,0,.72.72,0,0,1-.27-.08c-.13-.05-.23-.05-.28,0h-.39a.34.34,0,0,0-.32.16l-.15-.16a.47.47,0,0,1-.44.12c-.18,0-.3,0-.35,0,0-.16-.15-.2-.28-.12s-.22.07-.27,0a.54.54,0,0,1-.4.16H68.21a.38.38,0,0,0-.27.08.37.37,0,0,1-.28,0,.54.54,0,0,0-.2,0,1,1,0,0,1-.55.08H65.65l-.16.16-.15-.16a1.36,1.36,0,0,1-.71.16,6.19,6.19,0,0,0-1.58,0c-.68.07-1.18.11-1.49.11a2.19,2.19,0,0,1-.71.08,2.87,2.87,0,0,0-.79.08,3.31,3.31,0,0,1-.87.08,2.87,2.87,0,0,0-.79.08,7.32,7.32,0,0,1-1.26.08l-.23.31A.21.21,0,0,1,56.63,42.39Z" style="fill:#7e9a3d"/></g></g><g style="isolation:isolate"><g style="isolation:isolate"><path d="M154.82,42.39a.37.37,0,0,0-.2-.11.62.62,0,0,1-.39-.08c0-.05.07-.16.23-.32h.32l1.73-.23,2.68-.24,1.89-.16a5.53,5.53,0,0,1,1-.08,4.31,4.31,0,0,0,1-.08,9.78,9.78,0,0,1,1.3-.07,8.09,8.09,0,0,0,1.22-.08.32.32,0,0,0,.31-.16c.11.16.21.21.32.16a3.19,3.19,0,0,1,1.06-.16h.75c1.57-.11,2.81-.16,3.7-.16s2.1.08,3.78.08a.58.58,0,0,0,.2,0c.08,0,.12-.06.12-.12h1.34c0,.11.1.13.31.08h2.6c1.15,0,2,0,2.52.08a2,2,0,0,0,.39,0,1.39,1.39,0,0,1,.56,0,2.4,2.4,0,0,0,.78.16,4.39,4.39,0,0,1,1-.08h.87a3.5,3.5,0,0,1,.47,0,1.23,1.23,0,0,0,.55,0,.39.39,0,0,1,.28.12.21.21,0,0,0,.27,0c.05-.06.14-.07.28,0l.27,0h1.42a1.22,1.22,0,0,1,.32,0,.81.81,0,0,0,.39,0,.54.54,0,0,1,.24.08c.1,0,.18,0,.23,0a.4.4,0,0,1,.2.07.22.22,0,0,0,.27,0h1.66a.48.48,0,0,1,.27.08c.08.06.17,0,.28-.08a.34.34,0,0,1,.2.12c.08.08.14.09.19,0h.63l.24,0a.24.24,0,0,0,.24,0,.62.62,0,0,1,.23.08.26.26,0,0,0,.32-.08c.05.11.18.16.39.16h1.18a2.6,2.6,0,0,1,.4.08.79.79,0,0,1,.47.31v.32h-.16a7.07,7.07,0,0,0-2.75-.24L195,41.8l-.08-.08-.16.16a.57.57,0,0,1-.27-.16c-.13-.1-.23-.07-.28.08a.38.38,0,0,0-.27-.08h-1.3a.33.33,0,0,1-.24-.07.29.29,0,0,0-.24-.08c-.05,0-.13,0-.23.15a.57.57,0,0,0-.4-.15h-1.73a3.16,3.16,0,0,1-1.1-.16.4.4,0,0,0-.63.16.38.38,0,0,0-.4-.2,1.81,1.81,0,0,1-.31,0H186a.45.45,0,0,1-.32-.16l-.15.16c-.48-.21-.82-.21-1,0a.22.22,0,0,0-.23,0,.24.24,0,0,1-.24,0,2.15,2.15,0,0,0-.63-.08h-2.44c-.16,0-.27,0-.32-.08a2.32,2.32,0,0,1-.71.16,3.48,3.48,0,0,1-.86-.12,1.68,1.68,0,0,0-.79,0c-.11-.1-.29-.08-.55.08a.16.16,0,0,0-.24-.08c-.1.06-.18.06-.23,0a1,1,0,0,0-.4-.08h-2.05a.47.47,0,0,0-.31.16.36.36,0,0,0-.32-.12.84.84,0,0,1-.23,0,.71.71,0,0,1-.28-.08q-.19-.08-.27,0H173a.31.31,0,0,0-.31.16l-.16-.16a.46.46,0,0,1-.43.12c-.19,0-.31,0-.36,0q-.08-.24-.27-.12c-.14.08-.23.07-.28,0a.53.53,0,0,1-.39.16H166.4a.39.39,0,0,0-.28.08.37.37,0,0,1-.28,0,.5.5,0,0,0-.19,0,1.1,1.1,0,0,1-.55.08h-1.27l-.15.16-.16-.16a1.33,1.33,0,0,1-.71.16,6.11,6.11,0,0,0-1.57,0c-.69.07-1.19.11-1.5.11a2.15,2.15,0,0,1-.71.08,2.87,2.87,0,0,0-.79.08,3.22,3.22,0,0,1-.86.08,2.87,2.87,0,0,0-.79.08,7.32,7.32,0,0,1-1.26.08l-.24.31A.2.2,0,0,1,154.82,42.39Z" style="fill:#7e9a3d"/></g></g><g style="isolation:isolate"><g style="isolation:isolate"><path d="M129.82,41.8a2,2,0,0,0-.67-1.66,2.69,2.69,0,0,0-1.72-.52,4.91,4.91,0,0,0-1.3.18,5.19,5.19,0,0,0-1.17.46v8h-1V38.83h1l-.07.64a2.92,2.92,0,0,1,1.15-.6,5.29,5.29,0,0,1,1.45-.19,4.3,4.3,0,0,1,1.77.33,2.73,2.73,0,0,1,1.18,1,3.25,3.25,0,0,1,.42,1.72V52.22l-1-.45Z" style="fill:#7e9a3d"/></g></g></svg>