<svg xmlns="http://www.w3.org/2000/svg" viewBox="0 0 289.48 144.94"><g style="isolation:isolate"><text transform="translate(44.87 110.78)" style="isolation:isolate;font-size:45px;fill:#7e9a3d;font-family:AdventPro-Regular, Advent Pro;letter-spacing:0.04901258680555556em">Π<tspan x="28.35" y="0" style="letter-spacing:0.05em">ΟΙ</tspan></text><text transform="translate(114.48 110.78)" style="isolation:isolate;font-size:45px;fill:#7e9a3d;font-family:AdventPro-Regular, Advent Pro;letter-spacing:0.05em">O</text><text transform="translate(141.44 110.78)" style="isolation:isolate;font-size:45px;fill:#7e9a3d;font-family:AdventPro-Regular, Advent Pro;letter-spacing:0.05em">ΤΗΤΑ</text></g><g style="isolation:isolate"><text transform="translate(24.08 70.78)" style="isolation:isolate;font-size:91px;fill:#7e9a3d;font-family:NF-Takhie-Free-Regular, NF-Takhie-Free">ΕΓΓ<tspan x="70.17" y="0" style="letter-spacing:-0.022214114010989012em">Υ</tspan><tspan x="98.38" y="0">ΗΜΕΝΗ</tspan></text></g><g style="isolation:isolate"><g style="isolation:isolate"><path d="M277.1,47.36a.59.59,0,0,1-.49-.23v-.4l.63-1.13,1.08-1.93a.3.3,0,0,1,.4-.18,4.44,4.44,0,0,1,.9.49,9.84,9.84,0,0,1,1.22.9,1.15,1.15,0,0,1,.27.27.74.74,0,0,1,.09.32.41.41,0,0,1-.23.36,2,2,0,0,1-.49.31l-2.43,1-.81.27Zm2.61-8.28a.47.47,0,0,1,0-.45L280,38l1.58-2.7.13-.18c.12-.15.23-.22.32-.22s.21.07.27.22c.27.3.5.59.7.86s.36.49.51.67l.5.59a.94.94,0,0,1,.22.49c0,.15-.13.3-.4.45-.78.3-1.37.51-1.76.63a7.91,7.91,0,0,1-1.93.5A.48.48,0,0,1,279.71,39.08ZM285.29,46H285a.64.64,0,0,1-.5-.27.57.57,0,0,1,0-.54l.77-1.53,2-3.33a1,1,0,0,1,.13-.22.33.33,0,0,1,.27-.12.36.36,0,0,1,.23.21L289.3,44a2.79,2.79,0,0,1,.18.54v.13a.62.62,0,0,1-.45.59c-.36.09-.83.19-1.4.31l-2.34.41Z" style="fill:#7e9a3d"/></g></g><g style="isolation:isolate"><g style="isolation:isolate"><path d="M.5,47.36a.6.6,0,0,1-.5-.23v-.4L.63,45.6l1.08-1.93a.31.31,0,0,1,.41-.18A5,5,0,0,1,3,44a10.07,10.07,0,0,1,1.21.9,1.15,1.15,0,0,1,.27.27.74.74,0,0,1,.09.32.42.42,0,0,1-.22.36,2.33,2.33,0,0,1-.5.31l-2.43,1-.81.27Zm2.6-8.28a.49.49,0,0,1,0-.45L3.38,38,5,35.25l.13-.18c.12-.15.23-.22.32-.22s.21.07.27.22c.27.3.5.59.7.86a7.57,7.57,0,0,0,.52.67l.49.59a.94.94,0,0,1,.22.49c0,.15-.13.3-.4.45-.78.3-1.37.51-1.75.63a8.07,8.07,0,0,1-1.94.5A.5.5,0,0,1,3.1,39.08ZM8.69,46H8.37a.62.62,0,0,1-.49-.27.57.57,0,0,1,0-.54l.76-1.53,2-3.33a1.76,1.76,0,0,1,.13-.22A.36.36,0,0,1,11,40a.34.34,0,0,1,.23.21L12.69,44a2.79,2.79,0,0,1,.18.54v.13a.62.62,0,0,1-.45.59c-.36.09-.83.19-1.4.31L8.69,46Z" style="fill:#7e9a3d"/></g></g><g style="isolation:isolate"><text transform="translate(59.3 140.78)" style="isolation:isolate;font-size:19px;fill:#7e9a3d;font-family:AdventPro-Regular, Advent Pro;letter-spacing:0.015008223684210526em">ME </text><text transform="translate(87.46 140.78)" style="isolation:isolate;font-size:19px;fill:#7e9a3d;font-family:AdventPro-Regular, Advent Pro;letter-spacing:0.014982524671052632em">ΔΙΕΘΝΗ ΠΡΟΤΥΠΑ</text></g></svg>