<svg xmlns="http://www.w3.org/2000/svg" viewBox="0 0 393.75 229.46"><g style="isolation:isolate"><g style="isolation:isolate"><path d="M93.12,186.84a14.15,14.15,0,0,1-8.47-3q-3.51-2.77-3.51-8.62v-19q0-6.08,3.33-9.2c2.23-2.08,5.28-3.13,9.18-3.13s6.91,1.1,9.06,3.31,3.21,5.23,3.21,9.08v18.94q0,5.13-2.68,7.88a12.13,12.13,0,0,1-6.82,3.45c1.1,1.34,3.19,2,6.26,2v3.18Q95.6,191.73,93.12,186.84Zm7-37.59a9.78,9.78,0,0,0-6.64-2.18,9.68,9.68,0,0,0-6.61,2.18q-2.48,2.19-2.47,6.49v19.47a8.11,8.11,0,0,0,2.09,5.93,8.65,8.65,0,0,0,5.52,2.51,20.77,20.77,0,0,1-.24-3.42v-4.31h3.3v4.25a22.17,22.17,0,0,0,.18,3.42,8.59,8.59,0,0,0,5.37-2.51,8.21,8.21,0,0,0,2-5.93V155.74Q102.68,151.44,100.17,149.25Z" style="fill:#7e9a3d"/><path d="M142,144.83v30.38q0,6-3.63,8.68a15.56,15.56,0,0,1-17.55,0q-3.66-2.71-3.66-8.68V144.83h3.3v30.85a7.17,7.17,0,0,0,2.63,5.79,9.79,9.79,0,0,0,6.46,2.18,9.9,9.9,0,0,0,6.49-2.18,7.14,7.14,0,0,0,2.66-5.79V144.83Z" style="fill:#7e9a3d"/><path d="M167.34,171.73H153.89l-4.6,14.46h-3.48L159,144.89h3.13l13.45,41.3h-3.54Zm-12.51-3.24h11.63L160.56,150Z" style="fill:#7e9a3d"/><path d="M183.74,144.89h3.31v38.35h18v2.95h-21.3Z" style="fill:#7e9a3d"/><path d="M215.9,147.9l-4-.12v-2.89h7.26v41.3h-3.3Z" style="fill:#7e9a3d"/><path d="M236.6,147.84h-10v-3h23.71v3H239.91v38.35H236.6Z" style="fill:#7e9a3d"/><path d="M278.58,182.26a9.38,9.38,0,0,0,1-5v-8.38a10.63,10.63,0,0,1-4.25,2.15,18.64,18.64,0,0,1-5.08.74q-6.26,0-9.88-3.1t-3.63-9.17V144.89h3.31v15.16a7.39,7.39,0,0,0,2.83,6.28,11.82,11.82,0,0,0,7.37,2.16,12,12,0,0,0,6.08-1.48,6.5,6.5,0,0,0,3.25-4.42v-17.7H283V177a12.16,12.16,0,0,1-1.62,6.76,6.33,6.33,0,0,1-4.58,2.86l-.76-2.18A5.4,5.4,0,0,0,278.58,182.26Z" style="fill:#7e9a3d"/></g></g><g style="isolation:isolate"><g style="isolation:isolate"><path d="M9.59,76.09a10.22,10.22,0,0,1-3.77-3.5,38.17,38.17,0,0,1-4.63-10A42.3,42.3,0,0,1,0,51.83,82.82,82.82,0,0,1,1.85,37.55l.66-3.3A42.09,42.09,0,0,1,3.7,28.69l.8-2.51q2.37-7.28,4.29-11.9a44.85,44.85,0,0,1,4.83-8.73,13.56,13.56,0,0,1,4.83-4A12.65,12.65,0,0,1,24.2,0a5.51,5.51,0,0,1,5.29,3,36.65,36.65,0,0,1,2,5.29A15.44,15.44,0,0,1,32,13.22l-.4,2.51c-.18,1-.57,1.46-1.19,1.46a1.43,1.43,0,0,1-1.12-.53,1.76,1.76,0,0,1-.47-1.19c0-.79,0-1.76-.13-2.91a14.15,14.15,0,0,1,0-2.78,11.9,11.9,0,0,0-.73-4c-.48-1.36-1.25-1.83-2.31-1.39a6.21,6.21,0,0,0-2.77,2.58,46.33,46.33,0,0,0-2.52,4.7,26.43,26.43,0,0,0-2.18,6.21c-.48,2.2-.95,4.76-1.39,7.67s-1,5.24-1.32,6.74a111.92,111.92,0,0,0-2.38,24.86v3.57q.13,4.64.33,6.61a13,13,0,0,0,1,3.84,5.47,5.47,0,0,0,1.72,1.91,3.89,3.89,0,0,0,2.25.73,4.17,4.17,0,0,0,2.31-.73,4.24,4.24,0,0,0,1.66-2A32.78,32.78,0,0,0,25,59.37,2.5,2.5,0,0,0,24.73,58a2.94,2.94,0,0,0-1.46-.6A5.66,5.66,0,0,1,20,55.53a6,6,0,0,1-1.06-3.83c0-.79.57-1.19,1.72-1.19.88-.09,2.2-.13,4-.13a20.23,20.23,0,0,1,5.16.53,7.51,7.51,0,0,1,3.7,2.51,6.76,6.76,0,0,0,.66.92,2.71,2.71,0,0,1,.53,1.72c0,.8-.75,1.37-2.25,1.72L30,57.91a3,3,0,0,0-1.52.53,2.09,2.09,0,0,0-.59,1.32c-.71,3.18-1.19,5.56-1.46,7.14a29.92,29.92,0,0,1-1.58,5.69,24.37,24.37,0,0,1-3.64,3.5,7.08,7.08,0,0,1-3.77,1.13,26.64,26.64,0,0,1-3,.26A9.68,9.68,0,0,1,9.59,76.09Z" style="fill:#7e9a3d"/><path d="M53.68,77.81a8.07,8.07,0,0,1-3.7-3.5,18.21,18.21,0,0,1-3-4.63,32.57,32.57,0,0,1-1.91-6c-.18-.61-.55-2-1.13-4.16s-1-4.19-1.32-6.09a47.15,47.15,0,0,1-.59-5.22q-.13-2.25-.14-6.87c0-3.71.09-6.48.27-8.33.35-3.35.53-5.87.53-7.54a73.75,73.75,0,0,1,1.06-10.31c.08-.44.17-1,.26-1.79a15.14,15.14,0,0,0,.13-1.65c.27-2.82.53-4.89.8-6.22a6.8,6.8,0,0,1,1.58-3.3A4.39,4.39,0,0,1,50,.93a7.91,7.91,0,0,1,5,1.65,4.07,4.07,0,0,1,1.59,4.3,31.08,31.08,0,0,0-.53,6.61V18a93.16,93.16,0,0,1-1.45,11.64c-.09.62-.36,2.14-.8,4.56A38.17,38.17,0,0,0,53.15,41q-.26,7.14-.26,10.58l-.13,4.1a71.39,71.39,0,0,0,.66,9.25q.91,10.18,8.2,10.18,4.23,0,6.34-4.23a13,13,0,0,0,1.32-3.57c.27-1.23.49-2.47.67-3.7s.3-2.16.39-2.78q.52-4.49.66-6.74l.4-4.5q.39-3.44.53-6c.09-1.72.17-3.15.26-4.3l.14-3.44q1-12.42,1-18.51,0-1.85-.39-6.21c-.27-2.91-.4-4.54-.4-4.9,0-1,.15-1.56.46-1.78A4.12,4.12,0,0,1,74.84,4c.88,0,1.45.66,1.72,2q.52,5,.52,6.74c0,.8-.08,2.25-.26,4.37s-.26,5-.26,9c-.09,1-.14,2.47-.14,4.49a49.31,49.31,0,0,1-.52,5.69,54.79,54.79,0,0,0-.53,6.48A115.2,115.2,0,0,1,73.91,60c-.18.88-.53,2.56-1.06,5-.79,2.74-1.27,4.54-1.45,5.42a8.82,8.82,0,0,1-4.1,6.35,14.87,14.87,0,0,1-7.8,2A14.57,14.57,0,0,1,53.68,77.81Z" style="fill:#7e9a3d"/><path d="M83.63,77.15q-1.92-1.26-1.92-2.31a91.25,91.25,0,0,1,1.06-11.37q1.32-9.53,2.12-14.28A189.87,189.87,0,0,1,90,26.31l1.06-4c.44-2,1-4,1.59-6,.17-.71.61-2.25,1.32-4.63s1.37-4.37,2-5.95a25.14,25.14,0,0,1,1.72-3.7l3.44-.27a4.87,4.87,0,0,1,4,2.25,12.27,12.27,0,0,1,2.18,4.76l5.16,38.34a141,141,0,0,1,1.32,16,58.63,58.63,0,0,0,1.06,9.52c.18.8.35,1.81.53,3a3.43,3.43,0,0,1,.13,1.06c0,1-.39,1.46-1.19,1.46a2.94,2.94,0,0,1-2.84-2,12.33,12.33,0,0,1-.86-4.83,73.35,73.35,0,0,0-.93-10.58c-.08-1-.22-2.18-.39-3.63s-.31-3.11-.4-5c0-.88-.4-1.32-1.19-1.32l-5.16-.14c-.61,0-2.07.09-4.36.27a2.32,2.32,0,0,0-1.92,1.25,15.68,15.68,0,0,0-1,2.38c-.26.84-.44,1.44-.53,1.79a23.15,23.15,0,0,0-1.39,5.62c-.31,2.25-.5,3.77-.59,4.56-.09.44-.31,1.59-.66,3.44A35.23,35.23,0,0,1,91,74.77c-.44,1.28-.88,2-1.32,2.18l-2.52,1.33A5.7,5.7,0,0,1,83.63,77.15ZM108,48.33a2.07,2.07,0,0,0,.67-1.79l-2.78-22.48-1.19-9.52a16.63,16.63,0,0,0-.86,4.17c-.13,1.54-.24,2.58-.33,3.11A107.66,107.66,0,0,1,101,34.11q-2.25,9.26-2.78,10.58A5.78,5.78,0,0,0,98,46.54c0,1.24.48,1.85,1.45,1.85a35,35,0,0,1,3.7.27l2.78.13A3.73,3.73,0,0,0,108,48.33Z" style="fill:#7e9a3d"/><path d="M130.44,78.41a6.18,6.18,0,0,1-1.26-1.19,8.74,8.74,0,0,1-1.32-2.78,24.37,24.37,0,0,1-.66-3.7,144.83,144.83,0,0,1-.93-19.17q.8-11.91,1.59-17.72c.35-4.06.53-7,.53-9a98.3,98.3,0,0,1,1.19-11.77L131,5.16a2.3,2.3,0,0,1,1.13-1.85,5.86,5.86,0,0,1,2.44-.4A4.31,4.31,0,0,1,138,4.3a5.39,5.39,0,0,1,1.26,3.77,46.07,46.07,0,0,0,.2,4.82A5.9,5.9,0,0,0,140.55,16c.44-.62,1-1.52,1.79-2.71a12,12,0,0,1,2.18-2.71c.35-.35,1-.95,2-1.79A9.83,9.83,0,0,1,149.67,7a11.86,11.86,0,0,1,3.71-.53,10.47,10.47,0,0,1,5.15,1.25q2.25,1.26,2.25,2.85a2.74,2.74,0,0,0,.2.92,2.67,2.67,0,0,1,.2.8,11.62,11.62,0,0,1,.26,2,7.28,7.28,0,0,1-.92,3.44,15.11,15.11,0,0,0-1.06,2.51c-.18.44-.46,1.08-.86,1.92a17.23,17.23,0,0,1-1.12,2.05c-.27.35-.71,1-1.33,2.05a15.19,15.19,0,0,1-1.91,2.57,12.12,12.12,0,0,1-2.19,1.86,5.15,5.15,0,0,0-1,1,2,2,0,0,0-.46,1.25A1.39,1.39,0,0,0,151,34a11.72,11.72,0,0,1,2.31,3.24,40.75,40.75,0,0,1,1.79,4.56,43.45,43.45,0,0,1,1.58,7.54c0,.35.27,1.89.8,4.63a58,58,0,0,1,.92,6.48,55.77,55.77,0,0,0,.79,6.41,15.48,15.48,0,0,0,2,5.09,10.75,10.75,0,0,0,2.38,2.91c1.14,1.06,1.94,1.58,2.38,1.58s.9-.39,1.39-1.19.88-1.4,1.19-1.85a.86.86,0,0,1,1.12-.39,1.27,1.27,0,0,1,.4.92,4.39,4.39,0,0,1-1.79,3.37,5,5,0,0,1-3.63,1.39,11.1,11.1,0,0,1-7.08-3.44,12.06,12.06,0,0,1-3.77-7.14q-.39-2-.92-6.21-.66-4.89-1.59-9.26c0-.08-.13-1.1-.4-3a24.93,24.93,0,0,0-2.64-9.38c-.18-.36-.42-1-.73-1.79a4.61,4.61,0,0,0-1.12-1.85,1.58,1.58,0,0,0-1.72-.2,2.85,2.85,0,0,1-3-.66,3.34,3.34,0,0,1-1-3c.53-2.12,1.37-3.48,2.52-4.1q2.78-1.59,6-6.88a39.55,39.55,0,0,0,4.3-8.85,11.66,11.66,0,0,0,.26-1.86c0-1.32-.61-1.76-1.85-1.32a10.83,10.83,0,0,0-4.69,3,34.81,34.81,0,0,0-4,5.69l-1.46,2.25a14,14,0,0,0-2.12,5.22,63.88,63.88,0,0,0-.79,7.6Q138.7,36,138.17,41q-.79,8.73-.79,12.82c0,1.86,0,3.46.13,4.83s.13,2.23.13,2.58l-.13,6.35a19.11,19.11,0,0,0,.4,3.83,4.63,4.63,0,0,1-.33,2.64,12.84,12.84,0,0,0-.73,2.52,16.89,16.89,0,0,0-2.12,1.32,4.62,4.62,0,0,1-2.64.92A3,3,0,0,1,130.44,78.41Z" style="fill:#7e9a3d"/><path d="M175.92,77.15Q174,75.89,174,74.84a91.25,91.25,0,0,1,1.06-11.37q1.32-9.53,2.12-14.28a189.87,189.87,0,0,1,5.15-22.88l1.06-4c.44-2,1-4,1.59-6,.17-.71.61-2.25,1.32-4.63s1.37-4.37,2-5.95A25.14,25.14,0,0,1,190,2.12l3.44-.27a4.87,4.87,0,0,1,4,2.25,12.27,12.27,0,0,1,2.18,4.76l5.16,38.34a141,141,0,0,1,1.32,16,58.63,58.63,0,0,0,1.06,9.52c.18.8.35,1.81.53,3a3.43,3.43,0,0,1,.13,1.06c0,1-.39,1.46-1.19,1.46a2.94,2.94,0,0,1-2.84-2A12.33,12.33,0,0,1,203,71.4,73.35,73.35,0,0,0,202,60.82c-.08-1-.22-2.18-.39-3.63s-.31-3.11-.4-5c0-.88-.4-1.32-1.19-1.32l-5.16-.14c-.61,0-2.07.09-4.36.27a2.32,2.32,0,0,0-1.92,1.25,15.68,15.68,0,0,0-1,2.38c-.26.84-.44,1.44-.53,1.79a23.15,23.15,0,0,0-1.39,5.62c-.31,2.25-.5,3.77-.59,4.56-.09.44-.31,1.59-.66,3.44a35.23,35.23,0,0,1-1.19,4.69c-.44,1.28-.88,2-1.32,2.18l-2.52,1.33A5.7,5.7,0,0,1,175.92,77.15Zm24.39-28.82a2.07,2.07,0,0,0,.67-1.79L198.2,24.06,197,14.54a16.63,16.63,0,0,0-.86,4.17c-.13,1.54-.24,2.58-.33,3.11a107.66,107.66,0,0,1-2.51,12.29q-2.25,9.26-2.78,10.58a5.78,5.78,0,0,0-.26,1.85c0,1.24.48,1.85,1.45,1.85a35,35,0,0,1,3.7.27l2.78.13A3.73,3.73,0,0,0,200.31,48.33Z" style="fill:#7e9a3d"/><path d="M235.49,74.57Q235,65.06,235,60.16q0-4.62.26-14.15A16.54,16.54,0,0,0,234,41.25c-.18-.61-.64-2-1.39-4.16a50.28,50.28,0,0,0-2.44-5.89,42.26,42.26,0,0,1-2-4.89,62.25,62.25,0,0,0-3.7-7.8l-.13,8.86q0,7.41.4,14.81a10.8,10.8,0,0,1,.13,1.85c0,.71,0,1.57-.13,2.58a12.27,12.27,0,0,0,0,2.58l-.14,6.87q0,4.09-.53,12.3a2.05,2.05,0,0,0-.13,1.19,13.07,13.07,0,0,1-1.32,6.08,2.51,2.51,0,0,0-.66,1.85,7.11,7.11,0,0,1-2.78.93,1.41,1.41,0,0,1-1.19-.53l-.53-.53a8,8,0,0,1-2.77-6.08q-.27-5.3-.27-7.8,0-3.18.27-9.52V50.51a33.06,33.06,0,0,1,.13-3.44Q215,44.43,215,39c-.09-1.41-.13-3.49-.13-6.22s.2-6.92.59-12.3a79.11,79.11,0,0,1,1.26-10.71,5.19,5.19,0,0,0,.13-1.45l-.13-2.64a3.11,3.11,0,0,1,.73-1.79,2.13,2.13,0,0,1,1.78-1,6.77,6.77,0,0,1,2.12.46,6.59,6.59,0,0,0,1.85.46c.53,0,.92.75,1.19,2.25a19.7,19.7,0,0,1,.13,5.16,2.23,2.23,0,0,0,.4,1.06,21.27,21.27,0,0,1,1.32,2.51,13.05,13.05,0,0,0,1.19,2.51,16.48,16.48,0,0,1,2,4.76,49.53,49.53,0,0,0,2.52,7l1.32,3.17a12.08,12.08,0,0,1,.59,1.66A4.4,4.4,0,0,0,235,35.83l.39-6.34q.79-10,1.59-14.95T238,7.4l.53-3.57a5.6,5.6,0,0,1,.59-1.71,1.35,1.35,0,0,1,1.26-.53,4.88,4.88,0,0,1,1.19.13,15.1,15.1,0,0,1,3.17,1.06c.44.26.71.92.79,2a59.07,59.07,0,0,1-.13,6.61L244.87,18a128,128,0,0,0-1.06,13.22c-.08,1.68-.13,4.24-.13,7.67l-.26,7.8a24.94,24.94,0,0,0-.07,3c.05.88.07,1.63.07,2.24.08.8.13,2,.13,3.57l-.26,6.22c0,.79.08,2.07.26,3.83a7.87,7.87,0,0,1,.13,1.72,21.09,21.09,0,0,1-.13,2.38,22.28,22.28,0,0,0-.13,2.51l.13,1.33V74a3.45,3.45,0,0,1-1.32,2.32,11.44,11.44,0,0,0-1.46,1.52,1.71,1.71,0,0,1-2.11.66C236.63,77.75,235.57,76.42,235.49,74.57Z" style="fill:#7e9a3d"/><path d="M256.77,77.28a4.68,4.68,0,0,1-1.19-2.57l.13-4-.13-5.69c-.09-.79-.13-2.07-.13-3.83,0-2.12,0-4,.13-5.82.09-1.06.13-2.69.13-4.89.18-5,.44-8.81.8-11.37a17.92,17.92,0,0,0,.33-2.91c0-1.15.06-2,.06-2.65l.27-5.29c0-1.23.08-3,.26-5.28q0-2.78.27-8.07l.13-8.06V5.55A1,1,0,0,0,257,4.43a11.57,11.57,0,0,0-2.52-.2A11.1,11.1,0,0,1,251.75,4a1.23,1.23,0,0,1-.93-1.33,1.61,1.61,0,0,1,.93-1.45,10.36,10.36,0,0,1,2.91-.66,28.11,28.11,0,0,1,3.43-.27l1.33.14a45.27,45.27,0,0,0,5.81-.14l3.84-.13q5.82,0,5.82,2a2.91,2.91,0,0,1-.67,1.45c-.79.71-2.16,1.06-4.1,1.06a8.72,8.72,0,0,0-1.85.13c-.35.09-.52.35-.52.79a8.17,8.17,0,0,0,.39,2.25,7.63,7.63,0,0,1,.4,2.12,6.77,6.77,0,0,1-.13,1.45,4.28,4.28,0,0,0-.27,1.32,12.19,12.19,0,0,0,.13,1.66,12.31,12.31,0,0,1,.14,1.91c0,.71-.09,1.85-.27,3.44a118.75,118.75,0,0,0-.79,14.15,23.33,23.33,0,0,1-.2,2.44,10.57,10.57,0,0,1-.46,2.32,13.9,13.9,0,0,0-.8,4.36l.14,3.31c0-1.32-.09-1.13-.27.59s-.33,4.15-.46,7.27-.2,6.46-.2,10q0,6.08.13,9a5,5,0,0,1-1.85,4.23,6,6,0,0,1-4.49,1.19A2.9,2.9,0,0,1,256.77,77.28Z" style="fill:#7e9a3d"/><path d="M286.79,78.28h-.27l-2.38.13a5.09,5.09,0,0,1-3.44-1.26,5.25,5.25,0,0,1-1.72-3.5q-.12-2.12,0-6.68t.53-7.87c.18-1.85.44-3.7.8-5.55.08-.79.22-1.79.39-3s.31-2.54.4-4l.26-3.7a23.38,23.38,0,0,1,.67-7.67,7.64,7.64,0,0,0,.13-2.58,11.91,11.91,0,0,1,0-2.58q.66-5.67,1.72-18.77a37.65,37.65,0,0,0,.53-5.16l-.14-2.38a1.79,1.79,0,0,1-.13-.79,1.57,1.57,0,0,1,.4-1.26,2.06,2.06,0,0,1,1.32-.33,25.71,25.71,0,0,1,3.7.4h1.19l6.35-.13a26,26,0,0,1,3,.13,11.77,11.77,0,0,0,2.11.13,20.44,20.44,0,0,0,4.1-.4,5.15,5.15,0,0,1,2.78.93c1.23.71,1.94,1.32,2.12,1.85a1.12,1.12,0,0,1,.13.66c0,.62-.36,1-1.06,1.06l-2.11.13L296,5l-1.85-.13c-.62,0-.88.4-.79,1.19a8.09,8.09,0,0,0,.13,1.59,116.88,116.88,0,0,1,.53,13.09,19.16,19.16,0,0,0,1.19,5.82v4.1c0,2,0,3.57.13,4.62l.13,4.9a22.34,22.34,0,0,1-.13,2.9c0,.8.44,1.19,1.32,1.19a45.7,45.7,0,0,1,5.16.14c.79,0,1.19.35,1.19,1A1.18,1.18,0,0,1,302,46.67l-5.69.14A1.48,1.48,0,0,0,294.85,48a81.57,81.57,0,0,0-1.32,10.84l-.79,7.93c-.09.53-.2,1.24-.34,2.12a15.68,15.68,0,0,0-.19,2.25,4.85,4.85,0,0,0,.26,2.11c.18.27.66.4,1.45.4h7c.88,0,1.68,0,2.38.06a5.38,5.38,0,0,0,1.59-.06,6.51,6.51,0,0,1,3.83,1.19,3.24,3.24,0,0,1,.73.66.79.79,0,0,1,.07.92,2.77,2.77,0,0,1-1.79,1.46,10.44,10.44,0,0,1-2.44.26h-1.86l-2.77-.26-3.17-.27a14.64,14.64,0,0,0-3.18.53,18.05,18.05,0,0,1-4,.66A11.27,11.27,0,0,1,286.79,78.28Z" style="fill:#7e9a3d"/><path d="M323.28,78.28H323l-2.38.13a5.09,5.09,0,0,1-3.44-1.26,5.19,5.19,0,0,1-1.71-3.5q-.14-2.12,0-6.68c.08-3,.26-5.66.52-7.87.18-1.85.44-3.7.8-5.55.08-.79.22-1.79.39-3s.31-2.54.4-4l.27-3.7a23.12,23.12,0,0,1,.66-7.67,7.39,7.39,0,0,0,.13-2.58,11.91,11.91,0,0,1,0-2.58q.66-5.67,1.72-18.77a37.65,37.65,0,0,0,.53-5.16l-.14-2.38a2,2,0,0,1-.13-.79,1.57,1.57,0,0,1,.4-1.26,2.06,2.06,0,0,1,1.32-.33,25.71,25.71,0,0,1,3.7.4h1.19l6.35-.13a26,26,0,0,1,3,.13,11.9,11.9,0,0,0,2.12.13,20.51,20.51,0,0,0,4.1-.4,5.12,5.12,0,0,1,2.77.93c1.24.71,1.94,1.32,2.12,1.85a1,1,0,0,1,.13.66c0,.62-.35,1-1.06,1.06l-2.11.13L332.53,5l-1.85-.13c-.62,0-.88.4-.79,1.19A8.09,8.09,0,0,0,330,7.67a116.88,116.88,0,0,1,.53,13.09,19.47,19.47,0,0,0,1.19,5.82v4.1c0,2,0,3.57.13,4.62l.13,4.9a22.34,22.34,0,0,1-.13,2.9c0,.8.44,1.19,1.32,1.19a45.56,45.56,0,0,1,5.16.14c.79,0,1.19.35,1.19,1a1.17,1.17,0,0,1-1.06,1.19l-5.68.14A1.48,1.48,0,0,0,331.34,48,83.27,83.27,0,0,0,330,58.84l-.79,7.93c-.09.53-.2,1.24-.33,2.12a14.51,14.51,0,0,0-.2,2.25,5,5,0,0,0,.26,2.11c.18.27.66.4,1.46.4h7c.88,0,1.68,0,2.38.06a5.38,5.38,0,0,0,1.59-.06,6.56,6.56,0,0,1,3.84,1.19,3.42,3.42,0,0,1,.72.66.79.79,0,0,1,.07.92,2.75,2.75,0,0,1-1.79,1.46,10.44,10.44,0,0,1-2.44.26h-1.85l-2.78-.26L334,77.61a14.64,14.64,0,0,0-3.18.53,18.05,18.05,0,0,1-4,.66A11.27,11.27,0,0,1,323.28,78.28Z" style="fill:#7e9a3d"/><path d="M356.07,77a9.13,9.13,0,0,1-1.19-3.37,31.49,31.49,0,0,1-.27-4.56,29.32,29.32,0,0,1-.06-3.44c0-1,.06-1.8.06-2.51a31.41,31.41,0,0,0,0-5.82l.27-5.68c0-2.21-.05-3.88-.13-5a9.34,9.34,0,0,1-.14-2,33,33,0,0,1,.27-4.63c.17-1.14.28-2.14.33-3s.06-1.52.06-2.05c0-1.15.09-2.78.27-4.9l.79-7.66q1.07-10,2-15.34l.27-2.78c.53-1.06.88-1.74,1.06-2.05s.61-.5,1.32-.59l2.64.79L364.4,4a8.15,8.15,0,0,0,.39,2.77,23.72,23.72,0,0,1,12-2.91c3.61.18,6.21,1,7.8,2.38s3.12,3.84,4.62,7.28A26.66,26.66,0,0,1,391,21.82l.4,2.77a5.32,5.32,0,0,0,1.12,2.32,6.7,6.7,0,0,1,1.26,3.1,8,8,0,0,1-.53,3.18,15.76,15.76,0,0,0-.79,4.1,15.78,15.78,0,0,1-.8,4.1,54.87,54.87,0,0,1-8.06,13.22l-9.92,11.63a32.45,32.45,0,0,1-4.23,4l-3.57,3.31-.92.92a7.75,7.75,0,0,1-3.57,1.19H360l.14,1.19c0,1.06-.27,1.65-.8,1.79a7.8,7.8,0,0,1-1.85.19A9.29,9.29,0,0,0,356.07,77Zm10.11-14.67A23.1,23.1,0,0,0,368,58.84q3-5.69,4.49-8.53a58.12,58.12,0,0,0,2.65-6q1.45-3.69,4.36-10.31a42.88,42.88,0,0,0,3.17-13.22l-.53-6.48A5.23,5.23,0,0,0,380.4,11a7,7,0,0,0-4-.86,14.75,14.75,0,0,0-3.51.4,33.1,33.1,0,0,0-3.5,1.06L365.85,13q0,2.77.27,5.55c.17,1.85.3,3.17.39,4q.4,4.89.4,9.91a211.45,211.45,0,0,1-3,32.4A15.68,15.68,0,0,0,366.18,62.28Z" style="fill:#7e9a3d"/></g></g><g style="isolation:isolate"><g style="isolation:isolate"><path d="M111.73,101.89h7.14a5,5,0,0,1,4.1,1.68,7,7,0,0,1,1.35,4.52,17.21,17.21,0,0,1-.29,3.29,4.54,4.54,0,0,1-5,3.7h-5.71v7.11h-1.63Zm9.79,10.73a3.88,3.88,0,0,0,1-2,15.25,15.25,0,0,0,.18-2.46,5.49,5.49,0,0,0-1-3.57,3.37,3.37,0,0,0-2.73-1.19h-5.62v10.07h5.74A3.13,3.13,0,0,0,121.52,112.62Z" style="fill:#7e9a3d"/><path d="M141.83,115a6.75,6.75,0,0,1-1.16.09H135v7.11h-1.62v-20.3h7.13a5,5,0,0,1,4.11,1.68,7.07,7.07,0,0,1,1.34,4.52,14.52,14.52,0,0,1-.47,3.86,4.12,4.12,0,0,1-2.08,2.55l2.58,7.69H144.3Zm1.29-2.37a3.74,3.74,0,0,0,1-2,14.13,14.13,0,0,0,.19-2.46,5.49,5.49,0,0,0-1-3.57,3.34,3.34,0,0,0-2.72-1.19H135v10.07h5.74A3.11,3.11,0,0,0,143.12,112.62Z" style="fill:#7e9a3d"/><path d="M155.49,101.89h9.69v1.5h-8.06v6.82h5.54l-.55,1.59h-5v8.94h8v1.45h-9.63Z" style="fill:#7e9a3d"/><path d="M188.7,106.67l-5.28,15.52h-1.77l-5.25-15.52v15.52h-1.62v-20.3h1.62l6.12,17.8,6.18-17.8h1.62v20.3H188.7Z" style="fill:#7e9a3d"/><path d="M202.3,103.37l-1.94-.06v-1.42h3.56v20.3H202.3Z" style="fill:#7e9a3d"/><path d="M226.25,101.86v14.93a5,5,0,0,1-1.78,4.27,7.66,7.66,0,0,1-8.63,0,5,5,0,0,1-1.8-4.27V101.86h1.63V117a3.53,3.53,0,0,0,1.29,2.85,4.82,4.82,0,0,0,3.17,1.07,4.88,4.88,0,0,0,3.19-1.07,3.52,3.52,0,0,0,1.31-2.85V101.86Z" style="fill:#7e9a3d"/><path d="M250.29,106.67,245,122.19h-1.77L238,106.67v15.52h-1.63v-20.3H238l6.12,17.8,6.17-17.8h1.63v20.3h-1.63Z" style="fill:#7e9a3d"/></g></g><g style="isolation:isolate"><g style="isolation:isolate"><path d="M278.07,119.69a.77.77,0,0,1-.65-.3v-.53l.82-1.47,1.42-2.54a.4.4,0,0,1,.53-.24,6.29,6.29,0,0,1,1.18.65,12.4,12.4,0,0,1,1.59,1.18,1.53,1.53,0,0,1,.36.36.9.9,0,0,1,.12.41.53.53,0,0,1-.3.47,2.36,2.36,0,0,1-.65.41l-3.19,1.24-1.06.36Zm3.42-10.86a.6.6,0,0,1-.06-.59l.41-.88,2.07-3.54.17-.24c.16-.2.3-.29.42-.29s.27.09.35.29a13.47,13.47,0,0,1,.92,1.12c.25.36.48.65.67.89l.65.76a1.31,1.31,0,0,1,.3.65c0,.2-.18.4-.53.59-1,.4-1.79.67-2.3.83a10.63,10.63,0,0,1-2.54.65A.61.61,0,0,1,281.49,108.83Zm7.31,9h-.41a.83.83,0,0,1-.65-.36.72.72,0,0,1,0-.7l1-2,2.59-4.37a1.52,1.52,0,0,1,.18-.29.4.4,0,0,1,.35-.15.43.43,0,0,1,.3.27l1.88,5.07a3.58,3.58,0,0,1,.24.71v.18a.79.79,0,0,1-.59.76q-.7.18-1.83.42l-3.07.53Z" style="fill:#7e9a3d"/></g></g><g style="isolation:isolate"><g style="isolation:isolate"><path d="M69.88,118.83a.75.75,0,0,1-.64-.29V118l.82-1.48L71.48,114a.39.39,0,0,1,.53-.24,6.62,6.62,0,0,1,1.18.65,13.19,13.19,0,0,1,1.59,1.18,1.72,1.72,0,0,1,.36.35,1.09,1.09,0,0,1,.11.42.55.55,0,0,1-.29.47,2.84,2.84,0,0,1-.65.41l-3.19,1.24-1.06.35ZM73.31,108a.61.61,0,0,1-.06-.59l.41-.89L75.73,103l.17-.23q.24-.3.42-.3c.15,0,.27.1.35.3a13.23,13.23,0,0,1,.91,1.12c.26.35.49.65.68.88l.65.77a1.27,1.27,0,0,1,.3.65c0,.2-.18.39-.53.59-1,.39-1.8.67-2.31.83a9.9,9.9,0,0,1-2.53.64A.6.6,0,0,1,73.31,108Zm7.31,9h-.41a.81.81,0,0,1-.65-.36.74.74,0,0,1,0-.71l1-2,2.6-4.37a1.52,1.52,0,0,1,.18-.29.39.39,0,0,1,.35-.15.44.44,0,0,1,.3.26l1.88,5.08a3.58,3.58,0,0,1,.24.71v.17a.81.81,0,0,1-.59.77c-.47.12-1.08.26-1.83.41l-3.07.54Z" style="fill:#7e9a3d"/></g></g><g style="isolation:isolate"><g style="isolation:isolate"><path d="M40.6,213l-1.67-.05v-1.22H42v17.5H40.6Z" style="fill:#7e9a3d"/><path d="M47.6,214.26v14.93H46.2v-17.5h1.4l9.5,14.92V211.69h1.4v17.5H57.1Z" style="fill:#7e9a3d"/><path d="M65.13,212.94H60.88v-1.25H70.93v1.25h-4.4v16.25h-1.4Z" style="fill:#7e9a3d"/><path d="M73.25,211.69H81.6V213H74.65v5.87h4.78L79,220.24h-4.3v7.7h6.9v1.25h-8.3Z" style="fill:#7e9a3d"/><path d="M92.58,223a6.11,6.11,0,0,1-1,.07H86.65v6.13h-1.4v-17.5H91.4a4.24,4.24,0,0,1,3.54,1.45A6,6,0,0,1,96.1,217a11.92,11.92,0,0,1-.41,3.32,3.5,3.5,0,0,1-1.79,2.2l2.23,6.63H94.7Zm1.11-2.05a3.31,3.31,0,0,0,.85-1.7,12.57,12.57,0,0,0,.16-2.13,4.7,4.7,0,0,0-.85-3.07,2.86,2.86,0,0,0-2.35-1H86.65v8.68H91.6A2.69,2.69,0,0,0,93.69,220.94Z" style="fill:#7e9a3d"/><path d="M101.13,214.26v14.93h-1.4v-17.5h1.4l9.5,14.92V211.69H112v17.5h-1.4Z" style="fill:#7e9a3d"/><path d="M122.93,223.06h-5.7l-2,6.13H113.8l5.6-17.5h1.33l5.7,17.5h-1.5Zm-5.3-1.37h4.92l-2.5-7.83Z" style="fill:#7e9a3d"/><path d="M129,212.94h-4.25v-1.25H134.8v1.25h-4.4v16.25H129Z" style="fill:#7e9a3d"/><path d="M138.5,213l-1.67-.05v-1.22h3.07v17.5h-1.4Z" style="fill:#7e9a3d"/><path d="M152.69,228.27a5.79,5.79,0,0,1-3.69,1.19,6.62,6.62,0,0,1-2.55-.49,4.31,4.31,0,0,1-2-1.58,4.87,4.87,0,0,1-.76-2.83v-8.05a5.1,5.1,0,0,1,1.41-3.9,5.47,5.47,0,0,1,3.89-1.32,5.09,5.09,0,0,1,3.84,1.4,5.3,5.3,0,0,1,1.36,3.85v8A4.37,4.37,0,0,1,152.69,228.27Zm-.9-14.73a4.12,4.12,0,0,0-2.81-.93,4.06,4.06,0,0,0-2.8.93,3.46,3.46,0,0,0-1.05,2.75v8.25a3.27,3.27,0,0,0,1.09,2.68,4.12,4.12,0,0,0,2.76.92,4.3,4.3,0,0,0,2.79-.89,3.33,3.33,0,0,0,1.08-2.74v-8.22A3.43,3.43,0,0,0,151.79,213.54Z" style="fill:#7e9a3d"/><path d="M159.6,214.26v14.93h-1.4v-17.5h1.4l9.5,14.92V211.69h1.4v17.5h-1.4Z" style="fill:#7e9a3d"/><path d="M181.4,223.06h-5.7l-1.95,6.13h-1.47l5.6-17.5h1.32l5.7,17.5h-1.5Zm-5.3-1.37H181l-2.5-7.83Z" style="fill:#7e9a3d"/><path d="M187.48,211.69h1.4v16.25h7.62v1.25h-9Z" style="fill:#7e9a3d"/><path d="M207.21,226.36a4.14,4.14,0,0,0,1.55,1.26,5,5,0,0,0,2.27.49,5.69,5.69,0,0,0,3.21-.86,3.07,3.07,0,0,0,1.29-2.74,2.76,2.76,0,0,0-.63-1.84,4.45,4.45,0,0,0-1.55-1.17c-.61-.29-1.46-.63-2.52-1a23.08,23.08,0,0,1-2.76-1.12,5.07,5.07,0,0,1-1.75-1.38,3.45,3.45,0,0,1-.72-2.25,3.81,3.81,0,0,1,.63-2.09,4.38,4.38,0,0,1,1.89-1.6,7,7,0,0,1,3.11-.61,10.21,10.21,0,0,1,2,.17,7.25,7.25,0,0,1,1.63.58l-.43,1.32a6.94,6.94,0,0,0-3.17-.72,5.25,5.25,0,0,0-3.08.8,2.56,2.56,0,0,0-1.15,2.22,2.08,2.08,0,0,0,.58,1.51,4.26,4.26,0,0,0,1.41,1q.84.38,2.34.9c1.21.42,2.2.81,3,1.16a5.44,5.44,0,0,1,1.91,1.53,3.9,3.9,0,0,1,.79,2.49,4.84,4.84,0,0,1-1.46,3.68,6.35,6.35,0,0,1-4.52,1.39,6.7,6.7,0,0,1-3.16-.69,5,5,0,0,1-2-1.77,4.62,4.62,0,0,1-.74-2.26h1.43A3.28,3.28,0,0,0,207.21,226.36Z" style="fill:#7e9a3d"/><path d="M222.88,212.94h-4.25v-1.25h10.05v1.25h-4.4v16.25h-1.4Z" style="fill:#7e9a3d"/><path d="M236,223.06h-5.7l-1.95,6.13h-1.48l5.6-17.5h1.33l5.7,17.5H238Zm-5.3-1.37h4.92l-2.5-7.83Z" style="fill:#7e9a3d"/><path d="M243.45,214.26v14.93h-1.4v-17.5h1.4l9.5,14.92V211.69h1.4v17.5H253Z" style="fill:#7e9a3d"/><path d="M258.68,211.66h4.7a5.27,5.27,0,0,1,5.8,5.68v6.85q0,5-5.3,5h-5.2Zm8.49,3.06a3.67,3.67,0,0,0-1.57-1.36,4.81,4.81,0,0,0-2-.42h-3.55v15h3.4a6,6,0,0,0,3.06-.72,2.93,2.93,0,0,0,1.24-2.78v-7.35A4.34,4.34,0,0,0,267.17,214.72Z" style="fill:#7e9a3d"/><path d="M279,223.06h-5.7l-1.95,6.13H269.9l5.6-17.5h1.33l5.7,17.5H281Zm-5.3-1.37h4.92l-2.5-7.83Z" style="fill:#7e9a3d"/><path d="M292.43,223a6.19,6.19,0,0,1-1,.07H286.5v6.13h-1.4v-17.5h6.15a4.27,4.27,0,0,1,3.54,1.45A6.06,6.06,0,0,1,296,217a12.31,12.31,0,0,1-.41,3.32,3.53,3.53,0,0,1-1.79,2.2l2.23,6.63h-1.43Zm1.11-2.05a3.31,3.31,0,0,0,.85-1.7,12.57,12.57,0,0,0,.16-2.13,4.7,4.7,0,0,0-.85-3.07,2.86,2.86,0,0,0-2.35-1H286.5v8.68h4.95A2.69,2.69,0,0,0,293.54,220.94Z" style="fill:#7e9a3d"/><path d="M299.58,211.66h4.7a5.27,5.27,0,0,1,5.8,5.68v6.85q0,5-5.3,5h-5.2Zm8.48,3.06a3.64,3.64,0,0,0-1.56-1.36,4.81,4.81,0,0,0-2-.42H301v15h3.4a6,6,0,0,0,3.06-.72,2.93,2.93,0,0,0,1.24-2.78v-7.35A4.26,4.26,0,0,0,308.06,214.72Z" style="fill:#7e9a3d"/><path d="M315.39,226.36a4,4,0,0,0,1.55,1.26,5,5,0,0,0,2.26.49,5.67,5.67,0,0,0,3.21-.86,3.07,3.07,0,0,0,1.29-2.74,2.8,2.8,0,0,0-.62-1.84,4.64,4.64,0,0,0-1.55-1.17c-.62-.29-1.46-.63-2.53-1a23.08,23.08,0,0,1-2.76-1.12,5.16,5.16,0,0,1-1.75-1.38,3.44,3.44,0,0,1-.71-2.25,3.8,3.8,0,0,1,.62-2.09,4.5,4.5,0,0,1,1.89-1.6,7.07,7.07,0,0,1,3.11-.61,10.32,10.32,0,0,1,2,.17,7.36,7.36,0,0,1,1.62.58l-.42,1.32a7,7,0,0,0-3.18-.72,5.22,5.22,0,0,0-3.07.8,2.54,2.54,0,0,0-1.15,2.22,2.12,2.12,0,0,0,.57,1.51,4.37,4.37,0,0,0,1.41,1q.84.38,2.34.9a31,31,0,0,1,2.95,1.16,5.35,5.35,0,0,1,1.91,1.53,3.85,3.85,0,0,1,.79,2.49,4.84,4.84,0,0,1-1.46,3.68,6.34,6.34,0,0,1-4.51,1.39,6.75,6.75,0,0,1-3.17-.69,5.1,5.1,0,0,1-2-1.77,4.61,4.61,0,0,1-.73-2.26h1.42A3.2,3.2,0,0,0,315.39,226.36Z" style="fill:#7e9a3d"/></g></g></svg>