<!-- <svg xmlns="http://www.w3.org/2000/svg" viewBox="0 0 289.48 144.94"><g style="isolation:isolate"><text transform="translate(44.87 110.78)" style="isolation:isolate;font-size:45px;fill:#7e9a3d;font-family:AdventPro-Regular, Advent Pro;letter-spacing:0.04901258680555556em">Π<tspan x="28.35" y="0" style="letter-spacing:0.05em">ΟΙ</tspan></text><text transform="translate(114.48 110.78)" style="isolation:isolate;font-size:45px;fill:#7e9a3d;font-family:AdventPro-Regular, Advent Pro;letter-spacing:0.05em">O</text><text transform="translate(141.44 110.78)" style="isolation:isolate;font-size:45px;fill:#7e9a3d;font-family:AdventPro-Regular, Advent Pro;letter-spacing:0.05em">ΤΗΤΑ</text></g><g style="isolation:isolate"><text transform="translate(24.08 70.78)" style="isolation:isolate;font-size:91px;fill:#7e9a3d;font-family:NF-Takhie-Free-Regular, NF-Takhie-Free">ΕΓΓ<tspan x="70.17" y="0" style="letter-spacing:-0.022214114010989012em">Υ</tspan><tspan x="98.38" y="0">ΗΜΕΝΗ</tspan></text></g><g style="isolation:isolate"><g style="isolation:isolate"><path d="M277.1,47.36a.59.59,0,0,1-.49-.23v-.4l.63-1.13,1.08-1.93a.3.3,0,0,1,.4-.18,4.44,4.44,0,0,1,.9.49,9.84,9.84,0,0,1,1.22.9,1.15,1.15,0,0,1,.27.27.74.74,0,0,1,.09.32.41.41,0,0,1-.23.36,2,2,0,0,1-.49.31l-2.43,1-.81.27Zm2.61-8.28a.47.47,0,0,1,0-.45L280,38l1.58-2.7.13-.18c.12-.15.23-.22.32-.22s.21.07.27.22c.27.3.5.59.7.86s.36.49.51.67l.5.59a.94.94,0,0,1,.22.49c0,.15-.13.3-.4.45-.78.3-1.37.51-1.76.63a7.91,7.91,0,0,1-1.93.5A.48.48,0,0,1,279.71,39.08ZM285.29,46H285a.64.64,0,0,1-.5-.27.57.57,0,0,1,0-.54l.77-1.53,2-3.33a1,1,0,0,1,.13-.22.33.33,0,0,1,.27-.12.36.36,0,0,1,.23.21L289.3,44a2.79,2.79,0,0,1,.18.54v.13a.62.62,0,0,1-.45.59c-.36.09-.83.19-1.4.31l-2.34.41Z" style="fill:#7e9a3d"/></g></g><g style="isolation:isolate"><g style="isolation:isolate"><path d="M.5,47.36a.6.6,0,0,1-.5-.23v-.4L.63,45.6l1.08-1.93a.31.31,0,0,1,.41-.18A5,5,0,0,1,3,44a10.07,10.07,0,0,1,1.21.9,1.15,1.15,0,0,1,.27.27.74.74,0,0,1,.09.32.42.42,0,0,1-.22.36,2.33,2.33,0,0,1-.5.31l-2.43,1-.81.27Zm2.6-8.28a.49.49,0,0,1,0-.45L3.38,38,5,35.25l.13-.18c.12-.15.23-.22.32-.22s.21.07.27.22c.27.3.5.59.7.86a7.57,7.57,0,0,0,.52.67l.49.59a.94.94,0,0,1,.22.49c0,.15-.13.3-.4.45-.78.3-1.37.51-1.75.63a8.07,8.07,0,0,1-1.94.5A.5.5,0,0,1,3.1,39.08ZM8.69,46H8.37a.62.62,0,0,1-.49-.27.57.57,0,0,1,0-.54l.76-1.53,2-3.33a1.76,1.76,0,0,1,.13-.22A.36.36,0,0,1,11,40a.34.34,0,0,1,.23.21L12.69,44a2.79,2.79,0,0,1,.18.54v.13a.62.62,0,0,1-.45.59c-.36.09-.83.19-1.4.31L8.69,46Z" style="fill:#7e9a3d"/></g></g><g style="isolation:isolate"><text transform="translate(59.3 140.78)" style="isolation:isolate;font-size:19px;fill:#7e9a3d;font-family:AdventPro-Regular, Advent Pro;letter-spacing:0.015008223684210526em">ME </text><text transform="translate(87.46 140.78)" style="isolation:isolate;font-size:19px;fill:#7e9a3d;font-family:AdventPro-Regular, Advent Pro;letter-spacing:0.014982524671052632em">ΔΙΕΘΝΗ ΠΡΟΤΥΠΑ</text></g></svg> -->

<svg xmlns="http://www.w3.org/2000/svg" viewBox="0 0 174.44 78.3"><g style="isolation:isolate"><g style="isolation:isolate"><path d="M39,42.84H30.29V60.52H28.76V41.34H40.54V60.52H39Z" style="fill:#7e9a3d"/><path d="M55.36,59.52a6.44,6.44,0,0,1-4,1.3,7.25,7.25,0,0,1-2.79-.53,4.74,4.74,0,0,1-2.15-1.74,5.3,5.3,0,0,1-.84-3.1V46.63a5.59,5.59,0,0,1,1.55-4.28,6,6,0,0,1,4.26-1.45,5.62,5.62,0,0,1,4.21,1.53A5.83,5.83,0,0,1,57,46.65v8.8A4.82,4.82,0,0,1,55.36,59.52Zm-1-16.16a4.57,4.57,0,0,0-3.08-1,4.49,4.49,0,0,0-3.07,1,3.82,3.82,0,0,0-1.16,3v9a3.63,3.63,0,0,0,1.2,2.95,4.52,4.52,0,0,0,3,1,4.65,4.65,0,0,0,3.05-1,3.63,3.63,0,0,0,1.19-3v-9A3.79,3.79,0,0,0,54.37,43.36Z" style="fill:#7e9a3d"/><path d="M64.11,42.73l-1.83,0V41.34h3.37V60.52H64.11Z" style="fill:#7e9a3d"/></g><g style="isolation:isolate"><path d="M80.52,59.52a6.41,6.41,0,0,1-4,1.3,7.3,7.3,0,0,1-2.8-.53,4.79,4.79,0,0,1-2.15-1.74,5.3,5.3,0,0,1-.84-3.1V46.63a5.59,5.59,0,0,1,1.55-4.28A6,6,0,0,1,76.5,40.9a5.62,5.62,0,0,1,4.21,1.53,5.79,5.79,0,0,1,1.49,4.22v8.8A4.82,4.82,0,0,1,80.52,59.52Zm-1-16.16a5.19,5.19,0,0,0-6.15,0,3.82,3.82,0,0,0-1.15,3v9a3.62,3.62,0,0,0,1.19,2.95,4.52,4.52,0,0,0,3,1,4.65,4.65,0,0,0,3-1,3.64,3.64,0,0,0,1.2-3v-9A3.8,3.8,0,0,0,79.53,43.36Z" style="fill:#7e9a3d"/></g><g style="isolation:isolate"><path d="M92.18,42.71H87.52V41.34h11v1.37H93.72V60.52H92.18Z" style="fill:#7e9a3d"/><path d="M113.26,50.71h-8.72v9.81H103V41.34h1.53V49.2h8.72V41.34h1.53V60.52h-1.53Z" style="fill:#7e9a3d"/><path d="M124.91,42.71h-4.66V41.34h11v1.37h-4.83V60.52h-1.53Z" style="fill:#7e9a3d"/><path d="M143.88,53.81h-6.25l-2.14,6.71h-1.62L140,41.34h1.45l6.25,19.18h-1.64Zm-5.82-1.51h5.4l-2.74-8.58Z" style="fill:#7e9a3d"/></g></g><g style="isolation:isolate"><g style="isolation:isolate"><path d="M19.62,36.36H19.5l-1.11.07a2.38,2.38,0,0,1-1.6-.59A2.42,2.42,0,0,1,16,34.21c0-.65,0-1.68,0-3.1s.12-2.63.24-3.65c.08-.86.21-1.72.37-2.58q.06-.55.18-1.38A18.61,18.61,0,0,0,17,21.62l.12-1.72a10.75,10.75,0,0,1,.31-3.56,3.48,3.48,0,0,0,.06-1.2,5.81,5.81,0,0,1,0-1.2c.2-1.76.47-4.66.8-8.72a17.6,17.6,0,0,0,.24-2.39l-.06-1.11a.86.86,0,0,1-.06-.37.71.71,0,0,1,.19-.58,1,1,0,0,1,.61-.16A13,13,0,0,1,20.91.8h.55L24.41.74A12.29,12.29,0,0,1,25.82.8a5.84,5.84,0,0,0,1,.06,9.87,9.87,0,0,0,1.9-.18A2.3,2.3,0,0,1,30,1.11c.57.32.9.61,1,.86a.46.46,0,0,1,.07.3c0,.29-.17.45-.5.49l-1,.07-5.65-.5-.86-.06c-.29,0-.41.19-.37.56a3.84,3.84,0,0,0,.06.73A52.38,52.38,0,0,1,23,9.64a9,9,0,0,0,.55,2.71v1.9c0,.94,0,1.66.06,2.15l.06,2.27A11,11,0,0,1,23.61,20c0,.36.21.55.62.55a22.33,22.33,0,0,1,2.39.06c.37,0,.56.16.56.49s-.17.47-.5.55L24,21.75a.67.67,0,0,0-.67.55,38.94,38.94,0,0,0-.62,5L22.38,31c0,.25-.09.57-.15,1a7.42,7.42,0,0,0-.09,1,2.31,2.31,0,0,0,.12,1c.08.12.31.18.68.18h3.25c.41,0,.78,0,1.11,0a2.29,2.29,0,0,0,.74,0,3.08,3.08,0,0,1,1.78.56,1.88,1.88,0,0,1,.34.3.37.37,0,0,1,0,.43,1.3,1.3,0,0,1-.83.68,5.11,5.11,0,0,1-1.14.12h-.86l-1.29-.12-1.47-.12a6.93,6.93,0,0,0-1.48.24,8.12,8.12,0,0,1-1.84.31A5,5,0,0,1,19.62,36.36Z" style="fill:#7e9a3d"/><path d="M36.21,37.29l-.59-.22a1.18,1.18,0,0,1-.58-.4,1.24,1.24,0,0,1-.19-.74l.07-.73a11.27,11.27,0,0,0-.19-2c0-.25-.08-.53-.12-.86a9.88,9.88,0,0,1-.06-1.17,3,3,0,0,0-.06-.55,2.84,2.84,0,0,1-.07-.68,7.59,7.59,0,0,0,.07-1.16c0-.45,0-1-.07-1.6s-.08-1.08-.12-1.41-.08-.57-.12-1-.06-.9-.06-1.47q-.06-3.62.24-8.84l.13-2.52q0-1.9.18-3.75L35,5.53A28.09,28.09,0,0,1,35.59,1,1.24,1.24,0,0,1,36.76.18l1.72.07A3.75,3.75,0,0,0,39.4.18,7.47,7.47,0,0,1,41.06,0a9,9,0,0,1,2.06.25,3.39,3.39,0,0,1,1.26.43A3.41,3.41,0,0,0,44.8,1a.63.63,0,0,1,.31.53.57.57,0,0,1-.34.58,1.61,1.61,0,0,0-.46.28,1.86,1.86,0,0,1-1.1.3,25.6,25.6,0,0,1-3-.61.55.55,0,0,0-.49.18,2.27,2.27,0,0,0-.25.74,19.35,19.35,0,0,0-.12,3,34.72,34.72,0,0,0-.25,6q-.3,3.14-.3,7.61L38.72,25a34.79,34.79,0,0,0,.37,5.47A9.77,9.77,0,0,1,39,31.76a8.43,8.43,0,0,0-.09,1l.18,1.66A4.94,4.94,0,0,1,39,35.5a.52.52,0,0,1-.46.43,2.57,2.57,0,0,0-1,.9c-.31.43-.59.64-.83.64A1,1,0,0,1,36.21,37.29Z" style="fill:#7e9a3d"/><path d="M49,37.29l-.58-.22a1,1,0,0,1-.77-1.14l.06-.73a11.27,11.27,0,0,0-.18-2c0-.25-.08-.53-.12-.86a8,8,0,0,1-.07-1.17,3,3,0,0,0-.06-.55,3.51,3.51,0,0,1-.06-.68,7.92,7.92,0,0,0,.06-1.16c0-.45,0-1-.06-1.6s-.08-1.08-.12-1.41-.08-.57-.12-1A12.36,12.36,0,0,1,47,23.28q-.06-3.62.25-8.84l.12-2.52a35.66,35.66,0,0,1,.19-3.75l.3-2.64A27.5,27.5,0,0,1,48.43,1,1.22,1.22,0,0,1,49.6.18l1.72.07a3.81,3.81,0,0,0,.92-.07A7.47,7.47,0,0,1,53.9,0,8.83,8.83,0,0,1,56,.25a3.23,3.23,0,0,1,1.26.43,3.72,3.72,0,0,0,.43.33.63.63,0,0,1,.31.53.57.57,0,0,1-.34.58,1.47,1.47,0,0,0-.46.28,1.88,1.88,0,0,1-1.1.3,24.86,24.86,0,0,1-3-.61.58.58,0,0,0-.5.18A2.61,2.61,0,0,0,52.3,3a18.15,18.15,0,0,0-.12,3,34.72,34.72,0,0,0-.25,6q-.32,3.14-.31,7.61L51.56,25a33.62,33.62,0,0,0,.37,5.47,9.77,9.77,0,0,1-.09,1.29,8.43,8.43,0,0,0-.09,1l.18,1.66a4.94,4.94,0,0,1-.09,1.1.53.53,0,0,1-.46.43,2.66,2.66,0,0,0-1,.9c-.3.43-.58.64-.83.64A1.09,1.09,0,0,1,49,37.29Z" style="fill:#7e9a3d"/><path d="M65.07,36.43A2.53,2.53,0,0,1,64,35l.12-9.33V24.14q0-.5,0-1.2a16.71,16.71,0,0,1,0-1.69c.08-.82.14-1.61.16-2.39s0-1.31.09-1.6l-.31-.67L60.16,8.17a15.55,15.55,0,0,1-.92-2.7,2.84,2.84,0,0,0-.49-1.23,1,1,0,0,1-.19-.43,1.19,1.19,0,0,1,.25-.62,6.25,6.25,0,0,1,.67-.89A.73.73,0,0,1,60,2.18l.52,0c.74,0,1.19.25,1.35.74q.61,1.47,2.52,5.1l1.29,2.39a3.28,3.28,0,0,0,.55.86,3.38,3.38,0,0,1,.43.56l1-1.42c1-1.47,1.7-2.6,2.15-3.38S71,4.89,72,3.26a3.4,3.4,0,0,1,.52-.83c.26-.35.46-.53.58-.53s.33.19.49.56a2.27,2.27,0,0,1,.25.92,1.6,1.6,0,0,1-.19.74,50.53,50.53,0,0,0-2.51,4.66q-.25.44-1.23,2.25a20.14,20.14,0,0,0-1.54,3.53A7.29,7.29,0,0,0,68,16.83v.55l.06,2c.09,1,.13,1.7.13,2.15L68.08,23l-.18,2.77c0,.65,0,1.64.12,3,0,.28,0,.8.1,1.53a14,14,0,0,1,0,2,22.32,22.32,0,0,1-.22,3.41Q67.72,37,66.55,37A2.75,2.75,0,0,1,65.07,36.43Z" style="fill:#7e9a3d"/><path d="M86.39,34.46c0-.9-.08-2.25-.25-4.05s-.26-3.18-.3-4.12v-.18c0-.41,0-1,0-1.79s-.06-1.24-.25-1.41a1.57,1.57,0,0,0-1-.24l-2.27-.07a.94.94,0,0,0-.86.4,2.14,2.14,0,0,0-.25,1.14,8.48,8.48,0,0,0,.09,1.23,8.09,8.09,0,0,1,.09,1.17L81.35,28a11.83,11.83,0,0,0-.06,1.35,24.87,24.87,0,0,0,.25,2.89A9.56,9.56,0,0,1,81.72,34a10.8,10.8,0,0,1-.12,1.47,1.11,1.11,0,0,1-.25.68,1,1,0,0,1-.67.18,20.84,20.84,0,0,1-2.09-.06,1,1,0,0,1-.74-.3,2.48,2.48,0,0,1-.31-.86,14.93,14.93,0,0,1-.18-1.51q-.06-.83-.06-1.14c0-.24,0-.55,0-.92a10.25,10.25,0,0,0-.16-1.29q-.12-1.09-.12-6,0-5.58.19-11.3a59.73,59.73,0,0,1,.67-7.86c0-.29.08-.79.12-1.51a5.67,5.67,0,0,1,.37-1.81,1.68,1.68,0,0,1,1.72-1,2,2,0,0,1,1.48.43A2.27,2.27,0,0,1,82,2.76,3.34,3.34,0,0,1,82,3.5a24.23,24.23,0,0,0-.13,3.13c-.08,2.71-.2,4.73-.36,6.09,0,.53-.07,1.33-.07,2.39a16,16,0,0,0-.06,1.6l.06,1.6a5.93,5.93,0,0,1-.18,1.41v.86c0,.41.11.65.34.74a3.35,3.35,0,0,0,1.2.06,6.24,6.24,0,0,1,1,.09l.92.15.49.06c.49,0,.74-.63.74-1.9,0-.25,0-.54,0-.89a5.6,5.6,0,0,1,0-1c0-.7,0-1.83.12-3.38l.06-3.32L86,9.28q0-2.16.12-6.7V2.27a.61.61,0,0,1,.62-.67c.24,0,.42.15.52.46a2.71,2.71,0,0,1,.15.83q0,5.65-.06,6.82c-.12,3.31-.35,6.18-.67,8.6l-.06.86.06.92a13.07,13.07,0,0,1,0,1.5q0,.64,0,1.08a20.91,20.91,0,0,0,.12,3.07l.12,1.66c.25,3.68.51,6.45.8,8.29l.06.49c0,.25-.16.39-.49.43C86.7,36.61,86.39,35.89,86.39,34.46Z" style="fill:#7e9a3d"/><path d="M92.9,36.49a.9.9,0,0,1-.55-.56,6.53,6.53,0,0,1-.86-3.5l.06-3.5q.12-3.49.06-5.22,0-3.32.12-5c0-.77.06-2,.06-3.56.09-.9.25-2.41.5-4.54l.24-2.15.19-1.78c.08-.82.16-1.44.24-1.85a7.79,7.79,0,0,1,.22-.92A9.24,9.24,0,0,0,93.39,3a1.26,1.26,0,0,0-.15-.43.63.63,0,0,1-.09-.49,1.48,1.48,0,0,1,1.53-.86,1.41,1.41,0,0,1,1.17.55,10.13,10.13,0,0,1,.86,1.38l.67,1.32c.66,1.11,1.68,2.77,3.08,5a6.89,6.89,0,0,1,.49.86,2.14,2.14,0,0,0,.67.86,19.13,19.13,0,0,1,1.48-3.13l.67-1.42a16.31,16.31,0,0,0,1.11-2.27,23.6,23.6,0,0,1,1.38-2.58A1.45,1.45,0,0,1,107.4,1a1.54,1.54,0,0,1,.86.31.91.91,0,0,1,.43.74l-.06,1c0,.74,0,1.37.06,1.9s.08,1,.12,1.29q.06,1.66.06,4.92v2c0,.57-.06,1.41-.06,2.51v2.58c0,.41,0,.92,0,1.51s0,1.3,0,2.12a10.68,10.68,0,0,0-.06,1.35c0,3.07,0,4.91-.12,5.53s-.07,1.84-.07,3.44c0,.53-.06,1.33-.06,2.39a2,2,0,0,1-.4,1.23c-.26.37-.48.55-.64.55s-.36-.23-.46-.7a4.67,4.67,0,0,1-.09-1.45l.12-1.78A14,14,0,0,0,107,30.9q0-2.4.06-3.63c0-.45,0-1,0-1.78s0-1.59,0-2.58a25.18,25.18,0,0,1,.06-2.88q.12-1.49.12-2.28V12.16A18.23,18.23,0,0,0,107,8.29q-.18.2-2.52,5.47c-.12.33-.57.49-1.35.49s-1.54-.57-2.15-1.72q-1.79-3.07-2.83-5.16l-.73-1.1a6.22,6.22,0,0,1-.93-1.36q-.06.31-.18,1.08a3.3,3.3,0,0,0,0,1.26,20.25,20.25,0,0,1,.12,2.58c0,.9,0,1.58.06,2a3,3,0,0,1,.07.79c0,.54,0,1-.07,1.51s-.06.85-.06,1.14a9.59,9.59,0,0,1,.06,1.47,11.35,11.35,0,0,1-.06,1.54l-.24,4.42.06,1.17a26.16,26.16,0,0,1,.12,4.48c-.12,1.27-.22,3.13-.31,5.59a2.8,2.8,0,0,1-.09.86.86.86,0,0,1-.4.43,1.13,1.13,0,0,0-.55.67.89.89,0,0,1-1.23.74A4.68,4.68,0,0,1,92.9,36.49Z" style="fill:#7e9a3d"/><path d="M116.24,36.36h-.12l-1.11.07a2.35,2.35,0,0,1-1.59-.59,2.43,2.43,0,0,1-.8-1.63c0-.65,0-1.68,0-3.1s.12-2.63.24-3.65c.09-.86.21-1.72.37-2.58,0-.37.1-.83.19-1.38s.14-1.18.18-1.88l.12-1.72a10.75,10.75,0,0,1,.31-3.56,3.48,3.48,0,0,0,.06-1.2,5.81,5.81,0,0,1,0-1.2c.21-1.76.47-4.66.8-8.72a18,18,0,0,0,.25-2.39l-.06-1.11a.71.71,0,0,1-.07-.37.74.74,0,0,1,.19-.58,1,1,0,0,1,.61-.16,13,13,0,0,1,1.72.19h.55l3-.06a12.61,12.61,0,0,1,1.42.06,5.62,5.62,0,0,0,1,.06,9.87,9.87,0,0,0,1.9-.18,2.3,2.3,0,0,1,1.29.43c.58.32.9.61,1,.86a.47.47,0,0,1,.06.3c0,.29-.17.45-.49.49l-1,.07-5.65-.5-.86-.06c-.28,0-.41.19-.37.56a3.12,3.12,0,0,0,.07.73,55.35,55.35,0,0,1,.24,6.08,9,9,0,0,0,.55,2.71v1.9c0,.94,0,1.66.06,2.15l.07,2.27a9,9,0,0,1-.07,1.36c0,.36.21.55.62.55a22.33,22.33,0,0,1,2.39.06c.37,0,.56.16.56.49a.55.55,0,0,1-.49.55l-2.64.07a.68.68,0,0,0-.68.55,37.4,37.4,0,0,0-.61,5L119,31c0,.25-.1.57-.16,1a7.42,7.42,0,0,0-.09,1,2.31,2.31,0,0,0,.12,1c.09.12.31.18.68.18h3.26c.4,0,.77,0,1.1,0a2.29,2.29,0,0,0,.74,0,3.06,3.06,0,0,1,1.78.56,1.88,1.88,0,0,1,.34.3.37.37,0,0,1,0,.43,1.28,1.28,0,0,1-.83.68,5.11,5.11,0,0,1-1.14.12H124l-1.29-.12-1.47-.12a6.93,6.93,0,0,0-1.48.24,8.12,8.12,0,0,1-1.84.31A5.08,5.08,0,0,1,116.24,36.36Z" style="fill:#7e9a3d"/><path d="M138.66,34.64c-.16-2.94-.24-5.18-.24-6.69s0-3.63.12-6.57a7.5,7.5,0,0,0-.55-2.21c-.09-.29-.3-.94-.65-1.94a25.28,25.28,0,0,0-1.13-2.73,21.06,21.06,0,0,1-.93-2.28,28.49,28.49,0,0,0-1.72-3.62l-.06,4.12q0,3.44.19,6.88a4.7,4.7,0,0,1,.06.86c0,.32,0,.72-.06,1.19a6,6,0,0,0,0,1.2l-.06,3.2c0,1.26-.09,3.17-.25,5.71a1,1,0,0,0-.06.55,6.16,6.16,0,0,1-.62,2.83,1.17,1.17,0,0,0-.3.86,3.49,3.49,0,0,1-1.29.43.68.68,0,0,1-.56-.25l-.24-.25A3.67,3.67,0,0,1,129,33.11c-.08-1.64-.12-2.85-.12-3.62,0-1,0-2.46.12-4.43V23.47a16,16,0,0,1,.06-1.6q.06-1.23.06-3.75c0-.65-.06-1.62-.06-2.89s.09-3.21.28-5.71a34.9,34.9,0,0,1,.58-5,2.59,2.59,0,0,0,.06-.68l-.06-1.23a1.45,1.45,0,0,1,.34-.83,1,1,0,0,1,.83-.46,3,3,0,0,1,1,.22,3.24,3.24,0,0,0,.86.21c.25,0,.43.35.55,1.05a8.47,8.47,0,0,1,.06,2.39,1.09,1.09,0,0,0,.19.49,10.43,10.43,0,0,1,.61,1.17,6.38,6.38,0,0,0,.56,1.17,8,8,0,0,1,.92,2.21A22.91,22.91,0,0,0,137,13.51l.62,1.48a4.91,4.91,0,0,1,.27.77,2.18,2.18,0,0,0,.53.89l.18-2.95c.25-3.11.49-5.43.74-6.94s.41-2.58.49-3.32l.25-1.66a2.81,2.81,0,0,1,.27-.8.65.65,0,0,1,.59-.24,2.38,2.38,0,0,1,.55.06,6.89,6.89,0,0,1,1.47.49c.21.12.33.43.37.92a28.8,28.8,0,0,1-.06,3.07L143,8.35a61.26,61.26,0,0,0-.49,6.15c0,.78-.06,2-.06,3.56l-.12,3.62a11.7,11.7,0,0,0,0,1.42c0,.41,0,.75,0,1s.06.92.06,1.66l-.12,2.89c0,.36,0,1,.12,1.78a3.73,3.73,0,0,1,.06.8,10.14,10.14,0,0,1-.06,1.1,10.9,10.9,0,0,0-.06,1.17l.06.61v.25a1.6,1.6,0,0,1-.61,1.07,5.3,5.3,0,0,0-.68.71.79.79,0,0,1-1,.31A2,2,0,0,1,138.66,34.64Z" style="fill:#7e9a3d"/><path d="M157.09,34.46c0-.9-.08-2.25-.25-4.05s-.26-3.18-.3-4.12v-.18c0-.41,0-1,0-1.79s-.06-1.24-.25-1.41a1.57,1.57,0,0,0-1-.24L153,22.6a.94.94,0,0,0-.86.4,2.14,2.14,0,0,0-.25,1.14,8.48,8.48,0,0,0,.09,1.23,8.09,8.09,0,0,1,.09,1.17L152.05,28A11.83,11.83,0,0,0,152,29.3a24.87,24.87,0,0,0,.25,2.89,9.56,9.56,0,0,1,.18,1.84,10.8,10.8,0,0,1-.12,1.47,1.11,1.11,0,0,1-.25.68,1,1,0,0,1-.67.18,20.84,20.84,0,0,1-2.09-.06,1,1,0,0,1-.74-.3,2.48,2.48,0,0,1-.31-.86,14.93,14.93,0,0,1-.18-1.51q-.06-.83-.06-1.14c0-.24,0-.55,0-.92a10.25,10.25,0,0,0-.16-1.29q-.12-1.09-.12-6,0-5.58.19-11.3a59.73,59.73,0,0,1,.67-7.86c0-.29.08-.79.12-1.51A5.67,5.67,0,0,1,149,1.84a1.68,1.68,0,0,1,1.72-1,2,2,0,0,1,1.48.43,2.27,2.27,0,0,1,.49,1.53,3.34,3.34,0,0,1-.06.74,26.27,26.27,0,0,0-.13,3.13c-.08,2.71-.2,4.73-.36,6.09-.05.53-.07,1.33-.07,2.39a16,16,0,0,0-.06,1.6l.06,1.6a5.93,5.93,0,0,1-.18,1.41v.86c0,.41.11.65.34.74a3.35,3.35,0,0,0,1.2.06,6.24,6.24,0,0,1,1,.09l.92.15.49.06c.49,0,.74-.63.74-1.9,0-.25,0-.54,0-.89a5.6,5.6,0,0,1,0-1c0-.7,0-1.83.12-3.38l.06-3.32-.06-1.9q0-2.16.12-6.7V2.27a.61.61,0,0,1,.62-.67c.24,0,.42.15.52.46a2.71,2.71,0,0,1,.15.83q0,5.65-.06,6.82c-.12,3.31-.35,6.18-.67,8.6l-.06.86.06.92a13.07,13.07,0,0,1,0,1.5q0,.64,0,1.08a20.91,20.91,0,0,0,.12,3.07l.12,1.66c.25,3.68.51,6.45.8,8.29l.06.49c0,.25-.16.39-.49.43C157.4,36.61,157.09,35.89,157.09,34.46Z" style="fill:#7e9a3d"/></g></g><g style="isolation:isolate"><g style="isolation:isolate"><path d="M166.9,22.22a.38.38,0,0,1-.3-.13v-.25l.39-.69.65-1.17a.19.19,0,0,1,.25-.11,2.49,2.49,0,0,1,.55.3,4.62,4.62,0,0,1,.74.55.6.6,0,0,1,.16.16.41.41,0,0,1,.06.19.25.25,0,0,1-.14.22.91.91,0,0,1-.3.19l-1.48.58-.49.16Zm1.59-5a.28.28,0,0,1,0-.27l.19-.42,1-1.64.08-.11c.07-.09.14-.14.19-.14a.2.2,0,0,1,.17.14c.16.18.3.36.42.52a4.24,4.24,0,0,0,.32.41l.3.36a.59.59,0,0,1,.13.3q0,.14-.24.27c-.48.19-.83.31-1.07.39a5,5,0,0,1-1.18.3A.31.31,0,0,1,168.49,17.18Zm3.4,4.19h-.19a.35.35,0,0,1-.3-.16.32.32,0,0,1,0-.33l.46-.93,1.21-2a1.09,1.09,0,0,1,.08-.14.25.25,0,0,1,.17-.07.22.22,0,0,1,.14.13l.87,2.35a2.1,2.1,0,0,1,.11.33v.09a.37.37,0,0,1-.27.35c-.22.06-.51.12-.85.19l-1.43.25Z" style="fill:#7e9a3d"/></g></g><g style="isolation:isolate"><g style="isolation:isolate"><path d="M.3,22.22a.35.35,0,0,1-.3-.13v-.25l.38-.69L1,20a.19.19,0,0,1,.25-.11,2.74,2.74,0,0,1,.55.3,5.15,5.15,0,0,1,.74.55.8.8,0,0,1,.16.16.41.41,0,0,1,.06.19.25.25,0,0,1-.14.22,1.2,1.2,0,0,1-.3.19l-1.48.58-.5.16Zm1.59-5a.31.31,0,0,1,0-.27l.2-.42L3,14.85l.09-.11c.07-.09.13-.14.19-.14a.18.18,0,0,1,.16.14,5.87,5.87,0,0,1,.43.52c.12.17.22.3.31.41L4.5,16a.59.59,0,0,1,.13.3q0,.14-.24.27c-.48.19-.84.31-1.07.39a5.15,5.15,0,0,1-1.18.3A.31.31,0,0,1,1.89,17.18Zm3.4,4.19H5.1a.35.35,0,0,1-.3-.16.32.32,0,0,1,0-.33L5.26,20l1.21-2a.51.51,0,0,1,.08-.14.25.25,0,0,1,.17-.07.19.19,0,0,1,.13.13l.88,2.35a2.1,2.1,0,0,1,.11.33v.09a.36.36,0,0,1-.28.35c-.21.06-.5.12-.84.19l-1.43.25Z" style="fill:#7e9a3d"/></g></g><g style="isolation:isolate"><g style="isolation:isolate"><path d="M42.26,72l-2.11,6.22h-.71L37.34,72v6.22h-.65V70.05h.65l2.45,7.13,2.47-7.13h.65v8.13h-.65Z" style="fill:#7e9a3d"/><path d="M44.92,70.05H48.8v.6H45.57v2.73h2.22l-.22.64h-2V77.6h3.21v.58H44.92Z" style="fill:#7e9a3d"/></g><g style="isolation:isolate"><path d="M55.73,70.05h.62L59,78.18H53.13ZM54,77.6h4.12L56,71.06Z" style="fill:#7e9a3d"/><path d="M61,70.64l-.78,0v-.57H61.6v8.13H61Z" style="fill:#7e9a3d"/><path d="M63.5,70.05h3.88v.6H64.15v2.73h2.22l-.22.64h-2V77.6h3.21v.58H63.5Z" style="fill:#7e9a3d"/><path d="M73.75,77.75A2.68,2.68,0,0,1,72,78.3a3.1,3.1,0,0,1-1.18-.22,2,2,0,0,1-.92-.74A2.3,2.3,0,0,1,69.59,76V72.29a2.35,2.35,0,0,1,.66-1.81,2.52,2.52,0,0,1,1.8-.62,2.37,2.37,0,0,1,1.78.65,2.42,2.42,0,0,1,.64,1.79V76A2,2,0,0,1,73.75,77.75ZM73.83,74V72.18a1.58,1.58,0,0,0-.5-1.27,2.18,2.18,0,0,0-2.6,0,1.58,1.58,0,0,0-.49,1.27V74Zm-3.59.64V76a1.51,1.51,0,0,0,.51,1.24,1.87,1.87,0,0,0,1.28.43,2,2,0,0,0,1.29-.41A1.55,1.55,0,0,0,73.83,76V74.66Z" style="fill:#7e9a3d"/><path d="M76.6,71.24v6.94H76V70.05h.65L81,77V70.05h.65v8.13H81Z" style="fill:#7e9a3d"/><path d="M87.94,74H84.25v4.16H83.6V70.05h.65v3.33h3.69V70.05h.65v8.13h-.65Z" style="fill:#7e9a3d"/><path d="M98.26,70.69H94.57v7.49h-.65V70.05h5v8.13h-.66Z" style="fill:#7e9a3d"/><path d="M100.82,70.05h2.86a2,2,0,0,1,1.64.67,2.81,2.81,0,0,1,.54,1.81,6.6,6.6,0,0,1-.12,1.32,1.85,1.85,0,0,1-.58,1,1.93,1.93,0,0,1-1.4.45h-2.29v2.85h-.65Zm3.92,4.29a1.52,1.52,0,0,0,.39-.79,5.8,5.8,0,0,0,.08-1,2.22,2.22,0,0,0-.39-1.43,1.35,1.35,0,0,0-1.1-.48h-2.25v4h2.3A1.23,1.23,0,0,0,104.74,74.34Z" style="fill:#7e9a3d"/><path d="M111.3,77.75a2.7,2.7,0,0,1-1.71.55,3.18,3.18,0,0,1-1.19-.22,2,2,0,0,1-.91-.74,2.3,2.3,0,0,1-.35-1.31V72.29a2.38,2.38,0,0,1,.65-1.81,2.55,2.55,0,0,1,1.81-.62,2.37,2.37,0,0,1,1.78.65A2.42,2.42,0,0,1,112,72.3V76A2,2,0,0,1,111.3,77.75Zm-.42-6.84a2.18,2.18,0,0,0-2.6,0,1.58,1.58,0,0,0-.49,1.27V76a1.53,1.53,0,0,0,.5,1.24,1.92,1.92,0,0,0,1.29.43,2,2,0,0,0,1.29-.41,1.55,1.55,0,0,0,.51-1.28V72.18A1.58,1.58,0,0,0,110.88,70.91Z" style="fill:#7e9a3d"/><path d="M115.78,70.63h-2v-.58h4.67v.58h-2v7.55h-.65Z" style="fill:#7e9a3d"/><path d="M124,77.4a1.88,1.88,0,0,0,.2-1V74.76a2.1,2.1,0,0,1-.83.43,4.08,4.08,0,0,1-1,.14,2.9,2.9,0,0,1-2-.61,2.26,2.26,0,0,1-.71-1.8V70.05h.65v3a1.44,1.44,0,0,0,.56,1.24,2.33,2.33,0,0,0,1.45.42,2.31,2.31,0,0,0,1.19-.29,1.25,1.25,0,0,0,.64-.87V70.05h.66v6.31a2.4,2.4,0,0,1-.31,1.33,1.26,1.26,0,0,1-.9.57l-.16-.43A1.05,1.05,0,0,0,124,77.4Z" style="fill:#7e9a3d"/><path d="M130.94,70.69h-3.7v7.49h-.65V70.05h5v8.13h-.65Z" style="fill:#7e9a3d"/><path d="M137,75.33h-2.64l-.91,2.85h-.69l2.61-8.13h.61l2.65,8.13h-.7Zm-2.46-.64h2.29l-1.16-3.63Z" style="fill:#7e9a3d"/></g></g></svg>