<svg xmlns="http://www.w3.org/2000/svg" viewBox="0 0 294.3 77.26"><g style="isolation:isolate"><g style="isolation:isolate"><path d="M15.37,21.62,1.09,0h29.1l-1.9,6.19H12.44L22.71,21.42,10.47,42.09h10a7.17,7.17,0,0,0,4-.92,6.26,6.26,0,0,0,2.21-3.29l5.16,2.65A9.79,9.79,0,0,1,28.36,46a10.84,10.84,0,0,1-6.4,1.7H0Z" style="fill:#7e9a3d"/><path d="M62.42,42.16q1.36-1.56,1.36-5.3V31A12.84,12.84,0,0,1,60,32.67a16.5,16.5,0,0,1-4.69.65q-7.07,0-11.32-3.88T39.78,18.7V.14H46V18.5c0,2.9.81,5.07,2.45,6.52s3.94,2.18,6.93,2.18A11.56,11.56,0,0,0,61,26a5.85,5.85,0,0,0,2.82-3V.14H70v37q0,5.23-2.14,8.16c-1.43,2-3.75,3.1-7,3.47L59,44.13A5.91,5.91,0,0,0,62.42,42.16Z" style="fill:#7e9a3d"/><path d="M86.5,12.65V47.74H80.31V.14H86.5l21,35V.14h6.25v47.6h-6.25Z" style="fill:#7e9a3d"/><path d="M135.66,6.26H125.25V.14h27.34V6.26H141.85V47.74h-6.19Z" style="fill:#7e9a3d"/><path d="M180.67,33.8H168.16l-3.6,13.94h-6.87L170.27.14h8.09l13.26,47.6h-7.21Zm-11-6.46h9.52l-4.9-17Z" style="fill:#7e9a3d"/><path d="M198.69.14h22.72V6.26H205V47.74h-6.26Z" style="fill:#7e9a3d"/><path d="M230.59.14H253.3V6.26H236.77V19.65h10.61l-1.83,6h-8.78V42.16h16.39v5.58H230.59Z" style="fill:#7e9a3d"/><path d="M277.84,21.62,263.56,0h29.11l-1.91,6.19H274.92l10.27,15.23L273,42.09h10a7.15,7.15,0,0,0,4-.92,6.15,6.15,0,0,0,2.21-3.29l5.17,2.65A9.8,9.8,0,0,1,290.83,46a10.78,10.78,0,0,1-6.39,1.7h-22Z" style="fill:#7e9a3d"/></g></g><g style="isolation:isolate"><g style="isolation:isolate"><path d="M77,77a1.15,1.15,0,0,0-.69-.42,2.21,2.21,0,0,1-1.38-.27c0-.19.28-.56.83-1.11h1.1c.18,0,2.21-.27,6.07-.83l9.39-.82L99,73a19.37,19.37,0,0,1,3.59-.27,16,16,0,0,0,3.59-.28,33.22,33.22,0,0,1,4.55-.27,27.32,27.32,0,0,0,4.28-.28,1.1,1.1,0,0,0,1.1-.55c.37.55.74.73,1.11.55a11.64,11.64,0,0,1,3.72-.55h2.63q8.28-.56,13-.55,4.41.27,13.25.27a2.1,2.1,0,0,0,.69-.14c.27-.09.41-.23.41-.41h4.69c0,.37.37.46,1.11.28h9.1c4,0,7,.09,8.84.27a8,8,0,0,0,1.38-.14,4.9,4.9,0,0,1,1.93.14,9,9,0,0,0,2.76.55,15,15,0,0,1,3.31-.27h3a13,13,0,0,1,1.65.14,4.44,4.44,0,0,0,1.93-.14,1.36,1.36,0,0,1,1,.41.77.77,0,0,0,1,.14,1,1,0,0,1,1-.14,5.07,5.07,0,0,0,1,.14h5a4.67,4.67,0,0,1,1.1.14,2.58,2.58,0,0,0,1.38-.14,2.08,2.08,0,0,1,.83.28c.37.18.64.18.83,0a1.38,1.38,0,0,1,.69.27.88.88,0,0,0,1,0H211a1.7,1.7,0,0,1,1,.28c.28.18.6.09,1-.28a1.15,1.15,0,0,1,.69.42c.28.27.5.32.69.13h2.21a4,4,0,0,1,.83.14.78.78,0,0,0,.82-.14,2.2,2.2,0,0,1,.83.28.91.91,0,0,0,1.11-.28c.18.37.64.56,1.38.56h4.14a8.63,8.63,0,0,1,1.38.27A2.69,2.69,0,0,1,228.67,75v1.1h-.55a24.33,24.33,0,0,0-9.66-.83l-.83-.27-.27-.28-.56.55a2.1,2.1,0,0,1-1-.55c-.46-.37-.79-.28-1,.28a1.31,1.31,0,0,0-1-.28h-4.56a1.11,1.11,0,0,1-.83-.28,1.13,1.13,0,0,0-.82-.27c-.19,0-.47.18-.83.55a1.87,1.87,0,0,0-1.38-.55h-6.07a10.73,10.73,0,0,1-3.87-.55,1.42,1.42,0,0,0-2.21.55,1.33,1.33,0,0,0-1.38-.69,9,9,0,0,1-1.1.14h-4.69a1.61,1.61,0,0,1-1.11-.56l-.55.56c-1.65-.74-2.85-.74-3.59,0a.8.8,0,0,0-.82-.14.84.84,0,0,1-.83-.14,7.29,7.29,0,0,0-2.21-.28H168.5a1.61,1.61,0,0,1-1.1-.27,8.64,8.64,0,0,1-2.48.55,12.82,12.82,0,0,1-3-.41,5.8,5.8,0,0,0-2.76-.14c-.37-.37-1-.28-1.93.27a.55.55,0,0,0-.83-.27c-.37.18-.65.18-.83,0a3.14,3.14,0,0,0-1.38-.28H147a1.63,1.63,0,0,0-1.11.55,1.17,1.17,0,0,0-1.1-.41,4,4,0,0,1-.83.14,3,3,0,0,1-1-.28q-.69-.27-1,0h-1.38a1.14,1.14,0,0,0-1.11.55l-.55-.55a1.69,1.69,0,0,1-1.52.42c-.64-.09-1.06,0-1.24.13-.18-.55-.51-.69-1-.41s-.79.23-1-.14a1.87,1.87,0,0,1-1.38.55H117.58a1.34,1.34,0,0,0-1,.28,1.3,1.3,0,0,1-1,.14,2.39,2.39,0,0,0-.69-.14,3.71,3.71,0,0,1-1.93.28h-4.42l-.55.55-.55-.55a4.51,4.51,0,0,1-2.49.55,23.51,23.51,0,0,0-5.52.13,50.54,50.54,0,0,1-5.24.42,8.46,8.46,0,0,1-2.48.28,9.87,9.87,0,0,0-2.76.27,10.91,10.91,0,0,1-3,.28,9.87,9.87,0,0,0-2.76.27,24.35,24.35,0,0,1-4.42.28L78,77.15A.77.77,0,0,1,77,77Z" style="fill:#7e9a3d"/></g></g></svg>