<svg xmlns="http://www.w3.org/2000/svg" viewBox="0 0 335.82 117.42"><g style="isolation:isolate"><g style="isolation:isolate"><path d="M27.17,50.1a10.44,10.44,0,0,1-2.32.2H9.19V71.71H0V1H24.24q9.69,0,14.65,6.57t4.94,16.66a72.8,72.8,0,0,1-.45,8.59,26.13,26.13,0,0,1-2.22,7.62,16.77,16.77,0,0,1-5.51,6.62l8.29,24.64h-9.4Zm3.38-11.47a12.45,12.45,0,0,0,3.08-6.26,47.29,47.29,0,0,0,.61-8.13q0-7.87-3.28-11T21.41,10.2H9.19V41.41H22.83C26.33,41.41,28.9,40.49,30.55,38.63Z" style="fill:#7e9a3e"/><path d="M59,1H92.72V10.1H68.17V30H83.93L81.2,38.88h-13V63.43H92.52v8.28H59Z" style="fill:#7e9a3e"/><path d="M126.45,72.72q-8.79,0-14.24-4.65t-5.45-14.84V20.81q0-7.68,2.17-11.62a18.15,18.15,0,0,1,6.61-6.66A21.74,21.74,0,0,1,126.45,0a30.24,30.24,0,0,1,14.24,3.33l-2.62,7.88a29.48,29.48,0,0,0-10.41-1.82A13.39,13.39,0,0,0,119.38,12q-3.43,2.58-3.43,7.93V53q0,10.39,11.81,10.4A46.23,46.23,0,0,0,141.7,60.9l1.52,8.49A48.49,48.49,0,0,1,126.45,72.72Z" style="fill:#7e9a3e"/><path d="M158.47,9.9l-6.37-.2V1h15.66v70.7h-9.29Z" style="fill:#7e9a3e"/><path d="M185.53,1h23.64q10.2,0,15.2,6.46t5,16.67a42.64,42.64,0,0,1-3.69,18.28Q222,50.3,210.08,50.3H194.73V71.71h-9.2Zm30.81,37.62a11.29,11.29,0,0,0,3.28-6.16,51.75,51.75,0,0,0,.56-8.23q0-7.87-3.23-11t-9.5-3.13H194.73V41.41h13.13C211.69,41.41,214.52,40.49,216.34,38.63Z" style="fill:#7e9a3e"/><path d="M243,1h33.74V10.1H252.19V30H268l-2.73,8.88h-13V63.43h24.35v8.28H243Z" style="fill:#7e9a3e"/><path d="M301.89,60.6a14.25,14.25,0,0,0,9.69,3.23q6.68,0,10.4-3A9.57,9.57,0,0,0,325.72,53a11.93,11.93,0,0,0-2.27-7.43,17,17,0,0,0-5.61-4.75,97.68,97.68,0,0,0-9.19-4.09,87,87,0,0,1-10-4.49,19.48,19.48,0,0,1-6.41-5.66,15.06,15.06,0,0,1-2.63-9.14A15.46,15.46,0,0,1,292.09,9a18.25,18.25,0,0,1,7.67-6.51A28.46,28.46,0,0,1,312.39,0a39.29,39.29,0,0,1,8.18.71A29.58,29.58,0,0,1,327.14,3l-2.93,8.69a30.92,30.92,0,0,0-11.72-2.43c-4.18,0-7.39.76-9.65,2.27a7,7,0,0,0-3.38,6.11,6.28,6.28,0,0,0,1.82,4.45,16.33,16.33,0,0,0,4.49,3.28q2.69,1.37,7.63,3.49a95.06,95.06,0,0,1,11.46,5.4,25,25,0,0,1,7.73,7,18,18,0,0,1,3.23,11q0,9.09-6,14.84t-18.18,5.76A27.21,27.21,0,0,1,298.91,70a20.49,20.49,0,0,1-8.08-7.17,18.23,18.23,0,0,1-3-9.14l9.79-1.11A11.87,11.87,0,0,0,301.89,60.6Z" style="fill:#7e9a3e"/></g></g><g style="isolation:isolate"><g style="isolation:isolate"><path d="M59.06,117.06a1.65,1.65,0,0,0-1-.6,3.19,3.19,0,0,1-2-.4c0-.27.4-.8,1.2-1.6h1.6c.26,0,3.2-.4,8.8-1.2l13.6-1.2,9.6-.8a27.08,27.08,0,0,1,5.2-.4,24.29,24.29,0,0,0,5.2-.4,46.71,46.71,0,0,1,6.6-.4,39.87,39.87,0,0,0,6.2-.4,1.62,1.62,0,0,0,1.6-.8c.53.8,1.06,1.06,1.6.8a16.84,16.84,0,0,1,5.4-.8h3.8q12-.81,18.8-.8,6.39.39,19.2.4a3.44,3.44,0,0,0,1-.2q.6-.21.6-.6h6.8c0,.53.53.66,1.6.4h13.2q8.79,0,12.8.4a13,13,0,0,0,2-.2,6.77,6.77,0,0,1,2.8.2,13.25,13.25,0,0,0,4,.8,21,21,0,0,1,4.8-.4h4.4a19.84,19.84,0,0,1,2.4.2,6.5,6.5,0,0,0,2.8-.2,1.92,1.92,0,0,1,1.4.6,1.12,1.12,0,0,0,1.4.2,1.48,1.48,0,0,1,1.4-.2,8.66,8.66,0,0,0,1.4.2h7.2a6.32,6.32,0,0,1,1.6.2,3.75,3.75,0,0,0,2-.2,3.08,3.08,0,0,1,1.2.4q.8.39,1.2,0a1.94,1.94,0,0,1,1,.4,1.35,1.35,0,0,0,1.4,0h8.4a2.45,2.45,0,0,1,1.4.4c.4.26.86.13,1.4-.4a1.65,1.65,0,0,1,1,.6c.4.4.73.46,1,.2h3.2a5.19,5.19,0,0,1,1.2.2,1.22,1.22,0,0,0,1.2-.2,3.08,3.08,0,0,1,1.2.4,1.32,1.32,0,0,0,1.6-.4c.26.53.93.8,2,.8h6a11.85,11.85,0,0,1,2,.4,3.89,3.89,0,0,1,2.4,1.6v1.6h-.8a35.08,35.08,0,0,0-14-1.2l-1.2-.4-.4-.4-.8.8a3.05,3.05,0,0,1-1.4-.8c-.67-.54-1.14-.4-1.4.4a2,2,0,0,0-1.4-.4h-6.6a1.64,1.64,0,0,1-1.2-.4,1.63,1.63,0,0,0-1.2-.4c-.27,0-.67.26-1.2.8a2.7,2.7,0,0,0-2-.8h-8.8a15.64,15.64,0,0,1-5.6-.8,2.06,2.06,0,0,0-3.2.8,1.92,1.92,0,0,0-2-1,13.07,13.07,0,0,1-1.6.2h-6.8a2.3,2.3,0,0,1-1.6-.8l-.8.8c-2.4-1.07-4.14-1.07-5.2,0a1.17,1.17,0,0,0-1.2-.2,1.21,1.21,0,0,1-1.2-.2,10.32,10.32,0,0,0-3.2-.4h-12.4a2.34,2.34,0,0,1-1.6-.4,12.82,12.82,0,0,1-3.6.8,18.22,18.22,0,0,1-4.4-.6,8.35,8.35,0,0,0-4-.2c-.54-.54-1.47-.4-2.8.4a.79.79,0,0,0-1.2-.4q-.81.39-1.2,0a4.43,4.43,0,0,0-2-.4h-10.4a2.26,2.26,0,0,0-1.6.8,1.64,1.64,0,0,0-1.6-.6,5.82,5.82,0,0,1-1.2.2,4.71,4.71,0,0,1-1.4-.4c-.67-.27-1.14-.27-1.4,0h-2a1.6,1.6,0,0,0-1.6.8l-.8-.8a2.47,2.47,0,0,1-2.2.6c-.94-.14-1.54-.07-1.8.2-.27-.8-.74-1-1.4-.6s-1.14.33-1.4-.2a2.74,2.74,0,0,1-2,.8h-22.2a1.92,1.92,0,0,0-1.4.4,1.87,1.87,0,0,1-1.4.2,3.13,3.13,0,0,0-1-.2c-.27.26-1.2.4-2.8.4h-6.4l-.8.8-.8-.8a6.58,6.58,0,0,1-3.6.8,33.24,33.24,0,0,0-8,.2,74.38,74.38,0,0,1-7.6.6,12.36,12.36,0,0,1-3.6.4,13.9,13.9,0,0,0-4,.4,16.39,16.39,0,0,1-4.4.4,13.9,13.9,0,0,0-4,.4,37,37,0,0,1-6.4.4l-1.2,1.6A1.12,1.12,0,0,1,59.06,117.06Z" style="fill:#7e9a3e"/></g></g></svg>