<svg xmlns="http://www.w3.org/2000/svg" viewBox="0 0 99.67 49.75"><g style="isolation:isolate"><g style="isolation:isolate"><path d="M1.28,7.71a1.93,1.93,0,0,0,.72.6,2.39,2.39,0,0,0,1.06.23,2.54,2.54,0,0,0,1.51-.42,1.42,1.42,0,0,0,.59-1.23,1.48,1.48,0,0,0-.31-1,2.32,2.32,0,0,0-.77-.61c-.3-.15-.72-.32-1.25-.52a13.17,13.17,0,0,1-1.36-.58,2.59,2.59,0,0,1-.88-.73A1.86,1.86,0,0,1,.23,2.31,2,2,0,0,1,.56,1.23a2.32,2.32,0,0,1,1-.83A3.6,3.6,0,0,1,3.16.08a5.13,5.13,0,0,1,1,.09,3.77,3.77,0,0,1,.85.3l-.29.88A4,4,0,0,0,3.19,1a2.45,2.45,0,0,0-1.45.37,1.12,1.12,0,0,0-.52,1,.91.91,0,0,0,.28.67,2.42,2.42,0,0,0,.67.47A10.49,10.49,0,0,0,3.26,4a12.3,12.3,0,0,1,1.51.65,3,3,0,0,1,1,.84,2.18,2.18,0,0,1,.4,1.35,2.54,2.54,0,0,1-.75,1.92,3.28,3.28,0,0,1-2.35.73,3.53,3.53,0,0,1-1.65-.36,2.68,2.68,0,0,1-1-.92A2.49,2.49,0,0,1,0,7l1-.06A1.45,1.45,0,0,0,1.28,7.71Z" style="fill:#797979"/><path d="M12.81,9.44A2.73,2.73,0,0,1,11,8.84a2.38,2.38,0,0,1-.7-1.91V2.76a3.15,3.15,0,0,1,.28-1.5A2.41,2.41,0,0,1,11.4.4,2.88,2.88,0,0,1,12.81.08a3.86,3.86,0,0,1,1.83.43l-.27.74A3.81,3.81,0,0,0,13,1a2.19,2.19,0,0,0-1.25.36,1.44,1.44,0,0,0-.54,1.29V6.9a1.54,1.54,0,0,0,.45,1.22A1.87,1.87,0,0,0,13,8.53a5.8,5.8,0,0,0,1.83-.35L15,9A6.36,6.36,0,0,1,12.81,9.44Z" style="fill:#797979"/><path d="M22.33,6.29l-.41,0H19.6v3h-.93V.21h3.16A2.2,2.2,0,0,1,23.69,1a3.3,3.3,0,0,1,.62,2.08,6.83,6.83,0,0,1-.2,1.72A2,2,0,0,1,23.21,6l1.11,3.32h-1ZM22.84,5a1.59,1.59,0,0,0,.42-.85,5.7,5.7,0,0,0,.09-1.07c0-1.33-.56-2-1.67-2H19.6V5.41h2.2A1.36,1.36,0,0,0,22.84,5Z" style="fill:#797979"/><path d="M32.6,8.83a3,3,0,0,1-1.92.62,3.5,3.5,0,0,1-1.33-.25,2.34,2.34,0,0,1-1-.83,2.55,2.55,0,0,1-.39-1.47V2.72a2.64,2.64,0,0,1,.73-2,2.83,2.83,0,0,1,2-.69,2.64,2.64,0,0,1,2,.73,2.74,2.74,0,0,1,.71,2V6.9A2.29,2.29,0,0,1,32.6,8.83ZM32,1.42A1.76,1.76,0,0,0,30.67,1a1.82,1.82,0,0,0-1.34.46,1.89,1.89,0,0,0-.46,1.37v4a1.6,1.6,0,0,0,.5,1.27,2.14,2.14,0,0,0,2.6,0,1.62,1.62,0,0,0,.49-1.29v-4A1.84,1.84,0,0,0,32,1.42Z" style="fill:#797979"/><path d="M37.87.21h.93V8.46h3.76v.85H37.87Z" style="fill:#797979"/><path d="M46.19.21h.93V8.46h3.76v.85H46.19Z" style="fill:#797979"/><path d="M60.72.19h2.45A3,3,0,0,1,65.41,1a3,3,0,0,1,.77,2.15V6.71c0,1.73-.92,2.6-2.75,2.6H60.72Zm4,1.38a2.07,2.07,0,0,0-1.38-.48H61.66V8.46h1.56a3,3,0,0,0,1.45-.32,1.37,1.37,0,0,0,.58-1.3V3A1.77,1.77,0,0,0,64.68,1.57Z" style="fill:#797979"/><path d="M75.28,8.83a3,3,0,0,1-1.92.62A3.5,3.5,0,0,1,72,9.2a2.34,2.34,0,0,1-1-.83,2.55,2.55,0,0,1-.39-1.47V2.72a2.64,2.64,0,0,1,.73-2,2.83,2.83,0,0,1,2-.69,2.66,2.66,0,0,1,2,.73,2.74,2.74,0,0,1,.71,2V6.9A2.29,2.29,0,0,1,75.28,8.83Zm-.6-7.41A1.76,1.76,0,0,0,73.35,1,1.8,1.8,0,0,0,72,1.41a1.89,1.89,0,0,0-.46,1.37v4a1.6,1.6,0,0,0,.5,1.27,2.14,2.14,0,0,0,2.6,0,1.66,1.66,0,0,0,.49-1.29v-4A1.84,1.84,0,0,0,74.68,1.42Z" style="fill:#797979"/><path d="M84.69,2.48,83.46,9.31H82.19l-2-9.1h1L82.8,7.7,84.19.21h1L86.59,7.7,88.17.21h1l-2,9.1H85.94Z" style="fill:#797979"/><path d="M94.21,2V9.31h-.94V.21h.94l4.51,7.26V.21h1v9.1h-1Z" style="fill:#797979"/></g></g><polygon points="50.12 49.75 49.46 49.52 49.46 49.52 49.45 49.51 49.45 49.52 44.11 47.64 44.13 47.63 18.95 38.69 20.28 34.92 50.12 45.51 79.95 34.92 81.28 38.69 56.09 47.63 56.12 47.64 50.12 49.75" style="fill:#d7d7d7"/></svg>