<svg xmlns="http://www.w3.org/2000/svg" width="882.846" height="4664.846" viewBox="0 0 882.846 4664.846">
  <g id="Group_259" data-name="Group 259" transform="translate(-509.034 -1598.154)">
    <path id="Path_2" data-name="Path 2" d="M-21747.312-19797.893c-22.691,363.543,236.637,345.395,338.211,443.371s96.66,264.643,86.221,453.326-168.844,304.463-442.578,333.086-368.572,93.76-386.15,179.816-62.654,513.943,65.648,669.566,393.18,22.1,542.021,92.035,150.807,179.119,154.156,363.209,4.664,272.016,0,400.213-140.459,147.764-420.4,230.682-322.348,184.613-350.437,261.743-27.477,302.048-21.213,489.43,208.168,255.362,246.828,274.94,276.824,141.312,236.518,447.219" transform="translate(22702 21404)" fill="none" stroke="#f0f0f0" stroke-linecap="round" stroke-linejoin="round" stroke-width="15"/>
    <g id="Group_215" data-name="Group 215" transform="translate(661.596 1500.299)">
      <path id="Path_109" data-name="Path 109" d="M385.11,216.931c1.466-10.242-.385-20.752-3.923-30.474-.553-1.519-1.148-3.025-1.83-4.49-2.663,6.2-8.977,10.014-15.26,12.485s-12.357,3.654-17.985,7.383a35.333,35.333,0,0,0-12.759,15.839,42.721,42.721,0,0,0,.742,31.758c12.068-34.176,43.182-53.733,43.182-53.733S352,217.035,337.4,250.562a75.427,75.427,0,0,0-4.868,13.9c4.531-5.71,11.378-9.035,18.15-11.734s13.833-5.026,19.664-9.4C378.622,237.121,383.644,227.173,385.11,216.931Z" fill="#f0f0f0"/>
      <g id="Group_214" data-name="Group 214" transform="translate(332.912 191.47)">
        <path id="Path_110" data-name="Path 110" d="M403.492,236.587c-.293-1.59-.629-3.174-1.058-4.732a18.039,18.039,0,0,1-5.5,5.357,59.146,59.146,0,0,1,.51,23.376c-1.979,10.155-7.494,19.838-16.072,25.622-6.044,4.075-13.213,6.045-20.111,8.4s-13.9,5.333-18.716,10.808c5.417-4.877,12.722-7.018,19.848-8.554s14.476-2.656,20.953-6c9.194-4.745,15.8-13.72,18.948-23.575S405.365,246.762,403.492,236.587Z" transform="translate(-342.546 -231.855)" fill="#f0f0f0"/>
      </g>
    </g>
    <g id="Group_216" data-name="Group 216" transform="matrix(-0.809, -0.588, 0.588, -0.809, 1122.227, 2304.656)">
      <path id="Path_109-2" data-name="Path 109" d="M385.11,216.931c1.466-10.242-.385-20.752-3.923-30.474-.553-1.519-1.148-3.025-1.83-4.49-2.663,6.2-8.977,10.014-15.26,12.485s-12.357,3.654-17.985,7.383a35.333,35.333,0,0,0-12.759,15.839,42.721,42.721,0,0,0,.742,31.758c12.068-34.176,43.182-53.733,43.182-53.733S352,217.035,337.4,250.562a75.427,75.427,0,0,0-4.868,13.9c4.531-5.71,11.378-9.035,18.15-11.734s13.833-5.026,19.664-9.4C378.622,237.121,383.644,227.173,385.11,216.931Z" fill="#f0f0f0"/>
      <g id="Group_214-2" data-name="Group 214" transform="translate(332.912 191.47)">
        <path id="Path_110-2" data-name="Path 110" d="M403.492,236.587c-.293-1.59-.629-3.174-1.058-4.732a18.039,18.039,0,0,1-5.5,5.357,59.146,59.146,0,0,1,.51,23.376c-1.979,10.155-7.494,19.838-16.072,25.622-6.044,4.075-13.213,6.045-20.111,8.4s-13.9,5.333-18.716,10.808c5.417-4.877,12.722-7.018,19.848-8.554s14.476-2.656,20.953-6c9.194-4.745,15.8-13.72,18.948-23.575S405.365,246.762,403.492,236.587Z" transform="translate(-342.546 -231.855)" fill="#f0f0f0"/>
      </g>
    </g>
    <g id="Group_218" data-name="Group 218" transform="translate(876.021 3597.127) rotate(8)">
      <path id="Path_109-3" data-name="Path 109" d="M371.278,208.051c1.094-7.641-.287-15.481-2.927-22.734-.413-1.133-.856-2.256-1.366-3.35-1.987,4.628-6.7,7.471-11.385,9.314s-9.219,2.726-13.417,5.508a26.36,26.36,0,0,0-9.519,11.817,31.871,31.871,0,0,0,.553,23.693c9-25.5,32.215-40.086,32.215-40.086a123.752,123.752,0,0,0-29.749,40.928,56.27,56.27,0,0,0-3.632,10.37c3.38-4.26,8.489-6.741,13.54-8.754s10.32-3.749,14.67-7.012C366.437,223.113,370.184,215.692,371.278,208.051Z" fill="#f0f0f0"/>
      <g id="Group_214-3" data-name="Group 214" transform="translate(332.336 189.057)">
        <path id="Path_110-3" data-name="Path 110" d="M388.013,235.385c-.218-1.186-.469-2.368-.79-3.53a13.457,13.457,0,0,1-4.1,4,44.125,44.125,0,0,1,.38,17.439c-1.476,7.576-5.591,14.8-11.99,19.115-4.509,3.04-9.857,4.509-15,6.267s-10.373,3.978-13.963,8.063c4.041-3.639,9.491-5.236,14.807-6.381s10.8-1.982,15.632-4.476c6.859-3.54,11.787-10.235,14.136-17.588S389.411,242.976,388.013,235.385Z" transform="translate(-342.546 -231.855)" fill="#f0f0f0"/>
      </g>
    </g>
    <g id="Group_219" data-name="Group 219" transform="translate(910.529 3556.967)">
      <path id="Path_109-4" data-name="Path 109" d="M385.11,216.931c1.466-10.242-.385-20.752-3.923-30.474-.553-1.519-1.148-3.025-1.83-4.49-2.663,6.2-8.977,10.014-15.26,12.485s-12.357,3.654-17.985,7.383a35.333,35.333,0,0,0-12.759,15.839,42.721,42.721,0,0,0,.742,31.758c12.068-34.176,43.182-53.733,43.182-53.733S352,217.035,337.4,250.562a75.427,75.427,0,0,0-4.868,13.9c4.531-5.71,11.378-9.035,18.15-11.734s13.833-5.026,19.664-9.4C378.622,237.121,383.644,227.173,385.11,216.931Z" fill="#f0f0f0"/>
      <g id="Group_214-4" data-name="Group 214" transform="translate(332.912 191.47)">
        <path id="Path_110-4" data-name="Path 110" d="M403.492,236.587c-.293-1.59-.629-3.174-1.058-4.732a18.039,18.039,0,0,1-5.5,5.357,59.146,59.146,0,0,1,.51,23.376c-1.979,10.155-7.494,19.838-16.072,25.622-6.044,4.075-13.213,6.045-20.111,8.4s-13.9,5.333-18.716,10.808c5.417-4.877,12.722-7.018,19.848-8.554s14.476-2.656,20.953-6c9.194-4.745,15.8-13.72,18.948-23.575S405.365,246.762,403.492,236.587Z" transform="translate(-342.546 -231.855)" fill="#f0f0f0"/>
      </g>
    </g>
    <g id="Group_220" data-name="Group 220" transform="translate(869.781 4478.049) rotate(75)">
      <path id="Path_109-5" data-name="Path 109" d="M376.59,215.376c1.237-9.786-.325-19.829-3.31-29.118-.467-1.452-.968-2.89-1.544-4.291-2.246,5.928-7.573,9.569-12.873,11.93s-10.424,3.491-15.171,7.055a33.316,33.316,0,0,0-10.763,15.135,45.87,45.87,0,0,0,.626,30.346c10.18-32.655,36.426-51.342,36.426-51.342a157.779,157.779,0,0,0-33.638,52.421,78.669,78.669,0,0,0-4.107,13.282c3.822-5.456,9.6-8.633,15.31-11.212s11.669-4.8,16.588-8.981C371.116,234.667,375.353,225.162,376.59,215.376Z" transform="translate(0)" fill="#f0f0f0"/>
      <g id="Group_214-5" data-name="Group 214" transform="translate(332.912 191.47)">
        <path id="Path_110-5" data-name="Path 110" d="M395.073,236.351c-.252-1.511-.542-3.015-.912-4.5a16.375,16.375,0,0,1-4.738,5.09,61.834,61.834,0,0,1,.439,22.21C388.156,268.8,383.4,278,376.01,283.5c-5.209,3.872-11.388,5.743-17.333,7.981s-11.983,5.067-16.131,10.269c4.669-4.634,10.965-6.668,17.106-8.127s12.476-2.524,18.059-5.7c7.924-4.509,13.617-13.035,16.33-22.4S396.687,246.019,395.073,236.351Z" transform="translate(-342.546 -231.855)" fill="#f0f0f0"/>
      </g>
    </g>
    <g id="Group_221" data-name="Group 221" transform="translate(329.467 5156.008) rotate(-81)">
      <path id="Path_109-6" data-name="Path 109" d="M385.11,216.931c1.466-10.242-.385-20.752-3.923-30.474-.553-1.519-1.148-3.025-1.83-4.49-2.663,6.2-8.977,10.014-15.26,12.485s-12.357,3.654-17.985,7.383a35.333,35.333,0,0,0-12.759,15.839,42.721,42.721,0,0,0,.742,31.758c12.068-34.176,43.182-53.733,43.182-53.733S352,217.035,337.4,250.562a75.427,75.427,0,0,0-4.868,13.9c4.531-5.71,11.378-9.035,18.15-11.734s13.833-5.026,19.664-9.4C378.622,237.121,383.644,227.173,385.11,216.931Z" fill="#f0f0f0"/>
      <g id="Group_214-6" data-name="Group 214" transform="translate(332.912 191.47)">
        <path id="Path_110-6" data-name="Path 110" d="M403.492,236.587c-.293-1.59-.629-3.174-1.058-4.732a18.039,18.039,0,0,1-5.5,5.357,59.146,59.146,0,0,1,.51,23.376c-1.979,10.155-7.494,19.838-16.072,25.622-6.044,4.075-13.213,6.045-20.111,8.4s-13.9,5.333-18.716,10.808c5.417-4.877,12.722-7.018,19.848-8.554s14.476-2.656,20.953-6c9.194-4.745,15.8-13.72,18.948-23.575S405.365,246.762,403.492,236.587Z" transform="translate(-342.546 -231.855)" fill="#f0f0f0"/>
      </g>
    </g>
    <g id="Group_222" data-name="Group 222" transform="translate(682.107 5819.393)">
      <path id="Path_109-7" data-name="Path 109" d="M371.545,208.223c1.1-7.691-.289-15.583-2.946-22.884-.415-1.141-.862-2.271-1.375-3.372-2,4.659-6.742,7.52-11.46,9.376s-9.279,2.744-13.505,5.544a26.533,26.533,0,0,0-9.581,11.895,32.081,32.081,0,0,0,.557,23.849c9.063-25.664,32.427-40.35,32.427-40.35a124.567,124.567,0,0,0-29.944,41.2,56.641,56.641,0,0,0-3.656,10.438c3.4-4.288,8.544-6.785,13.629-8.812s10.388-3.774,14.767-7.058C366.673,223.384,370.444,215.914,371.545,208.223Z" fill="#f0f0f0"/>
      <g id="Group_214-7" data-name="Group 214" transform="translate(332.347 189.103)">
        <path id="Path_110-7" data-name="Path 110" d="M388.313,235.409c-.22-1.194-.472-2.383-.795-3.554a13.546,13.546,0,0,1-4.128,4.023,44.415,44.415,0,0,1,.383,17.554c-1.486,7.626-5.627,14.9-12.069,19.241-4.539,3.06-9.922,4.539-15.1,6.308s-10.441,4-14.055,8.116c4.068-3.663,9.554-5.27,14.9-6.423s10.87-1.995,15.734-4.505c6.9-3.563,11.865-10.3,14.229-17.7S389.72,243.05,388.313,235.409Z" transform="translate(-342.546 -231.855)" fill="#f0f0f0"/>
      </g>
    </g>
    <g id="Group_223" data-name="Group 223" transform="matrix(-0.809, -0.588, 0.588, -0.809, 1112.227, 6604.563)">
      <path id="Path_109-8" data-name="Path 109" d="M385.11,216.931c1.466-10.242-.385-20.752-3.923-30.474-.553-1.519-1.148-3.025-1.83-4.49-2.663,6.2-8.977,10.014-15.26,12.485s-12.357,3.654-17.985,7.383a35.333,35.333,0,0,0-12.759,15.839,42.721,42.721,0,0,0,.742,31.758c12.068-34.176,43.182-53.733,43.182-53.733S352,217.035,337.4,250.562a75.427,75.427,0,0,0-4.868,13.9c4.531-5.71,11.378-9.035,18.15-11.734s13.833-5.026,19.664-9.4C378.622,237.121,383.644,227.173,385.11,216.931Z" fill="#f0f0f0"/>
      <g id="Group_214-8" data-name="Group 214" transform="translate(332.912 191.47)">
        <path id="Path_110-8" data-name="Path 110" d="M403.492,236.587c-.293-1.59-.629-3.174-1.058-4.732a18.039,18.039,0,0,1-5.5,5.357,59.146,59.146,0,0,1,.51,23.376c-1.979,10.155-7.494,19.838-16.072,25.622-6.044,4.075-13.213,6.045-20.111,8.4s-13.9,5.333-18.716,10.808c5.417-4.877,12.722-7.018,19.848-8.554s14.476-2.656,20.953-6c9.194-4.745,15.8-13.72,18.948-23.575S405.365,246.762,403.492,236.587Z" transform="translate(-342.546 -231.855)" fill="#f0f0f0"/>
      </g>
    </g>
  </g>
</svg>
