<svg xmlns="http://www.w3.org/2000/svg" viewBox="0 0 1530.17 5142.95"><path d="M723.72,496.81C701,860.35,960.36,842.21,1061.93,940.18s96.66,264.64,86.22,453.33S979.31,1698,705.57,1726.59,337,1820.35,319.42,1906.41,256.77,2420.35,385.07,2576s393.18,22.1,542,92,150.81,179.12,154.16,363.21,4.66,272,0,400.21-140.46,147.77-420.4,230.69S338.5,3846.73,310.41,3923.86s-27.48,302-21.21,489.43S497.37,4668.65,536,4688.23s276.82,141.31,236.51,447.22" style="fill:none;stroke:#f0f0f0;stroke-linecap:round;stroke-linejoin:round;stroke-width:15px"/><rect x="881.03" y="1112.7" width="345" height="343" style="fill:#fff"/><rect x="886.03" y="2995.7" width="345" height="375" style="fill:#fff"/><rect x="250.03" y="1873.7" width="345" height="521" style="fill:#fff"/><rect x="117.03" y="3931.7" width="345" height="380" style="fill:#fff"/><g style="isolation:isolate"><text transform="translate(1220.98 1307.7)" style="isolation:isolate;font-size:59px;fill:#7e9a3e;font-family:AdventPro-Regular, Advent Pro;letter-spacing:0.0499950344279661em">ΥΠΑΙΘΡΟ</text></g><g style="isolation:isolate"><text transform="translate(1144.88 1202.7)" style="isolation:isolate;font-size:119px;fill:#7e9a3e;font-family:NF-Takhie-Free-Regular, NF-Takhie-Free">ΜΕΓΑ<tspan x="151.26" y="0" style="letter-spacing:-0.022218848476890755em">Λ</tspan><tspan x="191.98" y="0" style="letter-spacing:-0.000004103203781512605em">ΩΜΕ</tspan><tspan x="309.79" y="0" style="letter-spacing:-0.022214745273109245em">Ν</tspan><tspan x="343.5" y="0" style="letter-spacing:0.000004103203781512605em">Α</tspan></text></g><g style="isolation:isolate"><text transform="translate(1294.25 1243.7)" style="isolation:isolate;font-size:29px;fill:#7e9a3e;font-family:AdventPro-Regular, Advent Pro;letter-spacing:0.1999932650862069em">ΣΤΗΝ</text></g><g style="isolation:isolate"><text transform="translate(1405.92 1250.7)" style="isolation:isolate;font-size:59px;fill:#7e9a3e;font-family:AlwaysAndForeverDingbats-Regular, Always And Forever Dingbats">n</text></g><g style="isolation:isolate"><text transform="translate(1233.92 1250.7)" style="isolation:isolate;font-size:59px;fill:#7e9a3e;font-family:AlwaysAndForeverDingbats-Regular, Always And Forever Dingbats">n</text></g><g style="isolation:isolate"><text transform="translate(1196.42 1345.7)" style="isolation:isolate;font-size:25px;fill:#7e9a3e;font-family:AdventPro-Regular, Advent Pro;letter-spacing:0.015em">με π<tspan x="45.57" y="0" style="letter-spacing:0.01400390625em">α</tspan><tspan x="58.57" y="0" style="letter-spacing:0.01501953125em">ρ</tspan><tspan x="71.05" y="0" style="letter-spacing:0.01400390625em">α</tspan><tspan x="84.05" y="0" style="letter-spacing:0.01501953125em">δ</tspan><tspan x="96.52" y="0" style="letter-spacing:0.01400390625em">ο</tspan><tspan x="108.97" y="0">σι</tspan><tspan x="127" y="0" style="letter-spacing:0.01400390625em">α</tspan><tspan x="140" y="0">κές μεθόδ</tspan><tspan x="245.1" y="0" style="letter-spacing:0.0140234375em">ο</tspan><tspan x="257.55" y="0">υς</tspan></text></g><g style="isolation:isolate"><text transform="translate(350.26 2140.7)" style="isolation:isolate;font-size:59px;fill:#7e9a3e;font-family:AdventPro-Regular, Advent Pro;letter-spacing:0.050003310381355935em">ΓΕΥΣΗ</text></g><g style="isolation:isolate"><text transform="translate(332.61 2069.7)" style="isolation:isolate;font-size:119px;fill:#7e9a3e;font-family:NF-Takhie-Free-Regular, NF-Takhie-Free">ΑΡΩΜΑ</text></g><g style="isolation:isolate"><text transform="translate(279.25 2282.7)" style="isolation:isolate;font-size:59px;fill:#7e9a3e;font-family:AdventPro-Regular, Advent Pro;letter-spacing:0.050003310381355935em">ΘΡΕΠΤΙΚΕΣ </text><text transform="translate(337.87 2341.7)" style="isolation:isolate;font-size:59px;fill:#7e9a3e;font-family:AdventPro-Regular, Advent Pro;letter-spacing:0.0499950344279661em">ΟΥΣΙΕΣ</text></g><g style="isolation:isolate"><text transform="translate(401.28 1960.7)" style="isolation:isolate;font-size:35px;fill:#7e9a3e;font-family:NF-Takhie-Free-Regular, NF-Takhie-Free"><tspan style="letter-spacing:-0.02222377232142857em">Γ</tspan><tspan x="7.35" y="0">εμ</tspan><tspan x="30.18" y="0" style="letter-spacing:-0.02222377232142857em">άτ</tspan><tspan x="50.17" y="0">α</tspan></text></g><g style="isolation:isolate"><text transform="translate(325.51 2262) rotate(-16)" style="isolation:isolate;font-size:461px;fill:#7e9a3e;font-family:AlwaysAndForeverDingbats-Regular, Always And Forever Dingbats;letter-spacing:0.20000042367136658em">Y</text></g><g style="isolation:isolate"><text transform="matrix(-0.96, -0.28, -0.28, 0.96, 531.58, 2263.83)" style="isolation:isolate;font-size:460.9301452636719px;fill:#7e9a3e;font-family:AlwaysAndForeverDingbats-Regular, Always And Forever Dingbats;letter-spacing:0.19999895390279995em">Y</text></g><g style="isolation:isolate"><text transform="translate(404.87 2211.7)" style="isolation:isolate;font-size:59px;fill:#7e9a3e;font-family:AdventPro-Regular, Advent Pro;letter-spacing:0.0499950344279661em">&amp;</text></g><g style="isolation:isolate"><text transform="translate(948.16 3194.17)" style="isolation:isolate;font-size:59px;fill:#7e9a3e;font-family:AdventPro-Regular, Advent Pro;letter-spacing:0.04900192002118644em">Π<tspan x="37.17" y="0" style="letter-spacing:0.050003310381355935em">ΟΙ</tspan></text><text transform="translate(1039.43 3194.17)" style="isolation:isolate;font-size:59px;fill:#7e9a3e;font-family:AdventPro-Regular, Advent Pro;letter-spacing:0.050003310381355935em">O</text><text transform="translate(1074.77 3194.17)" style="isolation:isolate;font-size:59px;fill:#7e9a3e;font-family:AdventPro-Regular, Advent Pro;letter-spacing:0.050003310381355935em">ΤΗΤΑ</text></g><g style="isolation:isolate"><text transform="translate(921.32 3142.17)" style="isolation:isolate;font-size:119px;fill:#7e9a3e;font-family:NF-Takhie-Free-Regular, NF-Takhie-Free">ΕΓΓ<tspan x="91.76" y="0" style="letter-spacing:-0.022218848476890755em">Υ</tspan><tspan x="128.65" y="0" style="letter-spacing:-0.000004103203781512605em">ΗΜΕΝΗ</tspan></text></g><g style="isolation:isolate"><text transform="translate(1248.42 3121.23)" style="isolation:isolate;font-size:59px;fill:#7e9a3e;font-family:AlwaysAndForeverDingbats-Regular, Always And Forever Dingbats">y</text></g><g style="isolation:isolate"><text transform="translate(889.8 3121.23)" style="isolation:isolate;font-size:59px;fill:#7e9a3e;font-family:AlwaysAndForeverDingbats-Regular, Always And Forever Dingbats">y</text></g><g style="isolation:isolate"><text transform="translate(968 3232.17)" style="isolation:isolate;font-size:25px;fill:#7e9a3e;font-family:AdventPro-Regular, Advent Pro;letter-spacing:0.015em">ME </text><text transform="translate(1005.05 3232.17)" style="isolation:isolate;font-size:25px;fill:#7e9a3e;font-family:AdventPro-Regular, Advent Pro;letter-spacing:0.015em">ΔΙΕΘΝΗ ΠΡΟΤΥΠΑ</text></g><g style="isolation:isolate"><text transform="translate(222.44 4170.39)" style="isolation:isolate;font-size:59px;fill:#7e9a3e;font-family:AdventPro-Regular, Advent Pro;letter-spacing:0.050003310381355935em">ΓΙΑ</text></g><g style="isolation:isolate"><text transform="translate(143.36 4099.39)" style="isolation:isolate;font-size:119px;fill:#7e9a3e;font-family:NF-Takhie-Free-Regular, NF-Takhie-Free">ΦΡEΣ<tspan x="159.72" y="0" style="letter-spacing:-0.03332622111344538em">Κ</tspan><tspan x="198.99" y="0">Ο</tspan></text></g><g style="isolation:isolate"><text transform="translate(135.75 4217.39)" style="isolation:isolate;font-size:25px;fill:#7e9a3e;font-family:AdventPro-Regular, Advent Pro;letter-spacing:0.05em">ΜΕΓΑΛΥΤΕΡΗ ΧΡΟΝΙΚΗ</text><text transform="translate(212.47 4247.39)" style="isolation:isolate;font-size:25px;fill:#7e9a3e;font-family:AdventPro-Regular, Advent Pro;letter-spacing:0.05em">ΔΙΑΡΚΕΙΑ</text></g><g style="isolation:isolate"><text transform="translate(213.87 3999.39)" style="isolation:isolate;font-size:35px;fill:#7e9a3e;font-family:NF-Takhie-Free-Regular, NF-Takhie-Free">παρ<tspan x="35.93" y="0" style="letter-spacing:-0.02220982142857143em">α</tspan><tspan x="48.49" y="0" style="letter-spacing:-0.000013950892857142857em">μένει</tspan></text></g><g style="isolation:isolate"><text transform="translate(127.07 4203.69) rotate(-16)" style="isolation:isolate;font-size:461px;fill:#7e9a3e;font-family:AlwaysAndForeverDingbats-Regular, Always And Forever Dingbats;letter-spacing:0.20000042367136658em">Y</text></g><g style="isolation:isolate"><text transform="matrix(-0.96, -0.28, -0.28, 0.96, 396.99, 4205.52)" style="isolation:isolate;font-size:460.9301452636719px;fill:#7e9a3e;font-family:AlwaysAndForeverDingbats-Regular, Always And Forever Dingbats;letter-spacing:0.19999895390279995em">Y</text></g><g style="isolation:isolate"><text transform="translate(541.81 84)" style="isolation:isolate;font-size:108px;fill:#7e9a3e;font-family:NF-Takhie-Free-Regular, NF-Takhie-Free;letter-spacing:0.19999638310185186em">ΦΡEΣ<tspan x="231.36" y="0" style="letter-spacing:0.17778410734953703em">Κ</tspan><tspan x="289.8" y="0">Α</tspan></text></g><g style="isolation:isolate"><text transform="translate(509.47 366.12)" style="isolation:isolate;font-size:90px;fill:#7e9a3e;font-family:AdventPro-Light, Advent Pro;font-weight:300;letter-spacing:0.01999782986111111em">ΛΑΧΑΝΙΚΑ</text></g><g style="isolation:isolate"><text transform="translate(492.37 179.24)" style="isolation:isolate;font-size:108px;fill:#7e9a3e;font-family:NF-Takhie-Free-Regular, NF-Takhie-Free;letter-spacing:0.20000090422453703em">ΜΥΡΩΔΙ<tspan x="330.24" y="0" style="letter-spacing:0.17778410734953703em">Κ</tspan><tspan x="388.68" y="0" style="letter-spacing:0.19999638310185186em">Α</tspan></text></g><g style="isolation:isolate"><text transform="translate(681.28 279.12)" style="isolation:isolate;font-size:89px;fill:#7e9a3e;font-family:AdventPro-Regular, Advent Pro">&amp;</text></g><g style="isolation:isolate"><g style="isolation:isolate"><path d="M443.72,76.53a9.58,9.58,0,0,0-5.9-2.42c-2.44-.21-4-.39-4.81-.54-1.89-.18-2.85-1-2.9-2.46a4,4,0,0,1,.83-1.88,2.6,2.6,0,0,1,1.12-.87c2-.58,4.8-.46,8.33.35s5.86,2,7,3.47c1.35,2.18,1.62,3.74.8,4.71Q446.62,79,443.72,76.53Zm-6.83,43.08a2.5,2.5,0,0,1,.5-4q12.72-9.13,19.75-13.34a2.94,2.94,0,0,1,3.77,1.66q.93,1.38-1.3,3.11Q456.85,109,441.38,120C439.88,121.13,438.39,121,436.89,119.61Zm23.24-64.23a6.13,6.13,0,0,0-1.44-1.23L443.11,43.81,441,42.22q-1.74-2.23-1-3.55c.72-1.3,2.06-1.69,4.05-1.16l4.85,3.54,12.68,7.88q3.82,3.84,4.13,4.85c.39,1.35.2,2.32-.54,2.89a2,2,0,0,1-2.43.15A5.94,5.94,0,0,1,460.13,55.38Z" style="fill:#7e9a3e"/></g></g><g style="isolation:isolate"><g style="isolation:isolate"><path d="M948.29,59.39a2,2,0,0,1-2.43-.14c-.74-.58-.93-1.55-.54-2.9.2-.67,1.58-2.29,4.14-4.84l12.67-7.88L967,40.09c2-.52,3.33-.14,4,1.17.48.87.15,2.05-1,3.54l-2.1,1.59L952.34,56.72A6.91,6.91,0,0,0,950.89,58,5.84,5.84,0,0,1,948.29,59.39Zm21.33,63.15q-15.47-11-18.22-12.91-2.24-1.74-1.3-3.12a3,3,0,0,1,3.77-1.66q7,4.22,19.74,13.35c1.5,1.17,1.67,2.49.5,4C972.61,123.58,971.12,123.7,969.62,122.54Zm-6.81-43.08q-1.23-1.44.8-4.7c1.16-1.49,3.5-2.64,7-3.47s6.29-.93,8.32-.35a2.68,2.68,0,0,1,1.12.87,4,4,0,0,1,.83,1.89c0,1.45-1,2.27-2.9,2.45-.77.15-2.37.33-4.81.54a9.64,9.64,0,0,0-5.91,2.42C965.37,80.75,963.87,80.86,962.81,79.46Z" style="fill:#7e9a3e"/></g></g><path d="M815.74,607.93c1.46-10.24-.39-20.75-3.92-30.47-.56-1.52-1.15-3-1.83-4.49-2.67,6.2-9,10-15.26,12.48s-12.36,3.66-18,7.39A35.32,35.32,0,0,0,764,608.68a42.72,42.72,0,0,0,.74,31.75c12.07-34.17,43.19-53.73,43.19-53.73S782.63,608,768,641.56a76.14,76.14,0,0,0-4.87,13.9c4.53-5.71,11.38-9,18.15-11.73s13.83-5,19.66-9.4C809.25,628.12,814.27,618.17,815.74,607.93Z" style="fill:#f0f0f0"/><path d="M824.49,587.2c-.3-1.59-.63-3.17-1.06-4.73a18,18,0,0,1-5.5,5.36,59.14,59.14,0,0,1,.51,23.37c-2,10.16-7.5,19.84-16.07,25.63-6,4.07-13.22,6-20.11,8.4s-13.9,5.33-18.72,10.8c5.42-4.87,12.72-7,19.85-8.55s14.47-2.66,21-6c9.19-4.74,15.8-13.72,18.95-23.57S826.36,597.38,824.49,587.2Z" style="fill:#f0f0f0"/><path d="M707.26,793.42c-7.21,7.42-11.89,17-14.75,27-.44,1.55-.84,3.12-1.15,4.71,5.8-3.45,13.15-2.83,19.68-1.13s12.15,4.31,18.89,4.6a35.32,35.32,0,0,0,19.64-5.31,42.7,42.7,0,0,0,18.07-26.13c-29.86,20.55-66.53,18.08-66.53,18.08s33-2.4,64.52-20.94a75.28,75.28,0,0,0,12.11-8.38c-7,2-14.51.62-21.58-1.18s-14.15-4.07-21.43-4C724.38,780.9,714.47,786,707.26,793.42Z" style="fill:#f0f0f0"/><path d="M688,805c-.69,1.46-1.35,2.94-1.92,4.45a18.19,18.19,0,0,1,7.6-1.1A59.24,59.24,0,0,1,707,789.18c7.57-7,17.73-11.64,28.07-11.27,7.28.25,14.24,2.87,21.21,5s14.38,3.85,21.49,2.26c-7.25.76-14.42-1.81-21.08-4.75s-13.28-6.37-20.48-7.47c-10.23-1.57-20.85,1.81-29.19,7.93S692.46,795.71,688,805Z" style="fill:#f0f0f0"/><path d="M983.76,2745.53c2.15-7.42,1.87-15.37.27-22.92-.25-1.18-.54-2.36-.89-3.51-2.61,4.31-7.67,6.47-12.57,7.64s-9.51,1.42-14.05,3.59a26.31,26.31,0,0,0-11.07,10.37,31.84,31.84,0,0,0-2.75,23.54c12.46-24,37.48-35.21,37.48-35.21A123.83,123.83,0,0,0,945,2765.42a56.69,56.69,0,0,0-5,9.76c3.94-3.74,9.35-5.49,14.63-6.78s10.74-2.28,15.5-4.9C976.87,2759.77,981.62,2752.94,983.76,2745.53Z" style="fill:#f0f0f0"/><path d="M992.38,2731.12c0-1.2-.14-2.41-.29-3.6a13.57,13.57,0,0,1-4.62,3.39,44.22,44.22,0,0,1-2.05,17.32c-2.52,7.3-7.6,13.88-14.54,17.26-4.88,2.38-10.38,3.09-15.72,4.12s-10.83,2.49-14.95,6c4.51-3,10.13-3.86,15.55-4.26s11-.46,16.1-2.26c7.29-2.55,13.1-8.49,16.45-15.44S992.7,2738.83,992.38,2731.12Z" style="fill:#f0f0f0"/><path d="M1064.67,2664.6c1.47-10.24-.38-20.75-3.92-30.47-.55-1.52-1.15-3-1.83-4.49-2.66,6.2-9,10-15.26,12.48s-12.36,3.66-18,7.38a35.43,35.43,0,0,0-12.76,15.84,42.75,42.75,0,0,0,.75,31.76c12.06-34.17,43.18-53.73,43.18-53.73s-25.28,21.33-39.88,54.86a76.14,76.14,0,0,0-4.87,13.9c4.53-5.71,11.38-9,18.15-11.73s13.84-5,19.67-9.4C1058.18,2684.79,1063.21,2674.84,1064.67,2664.6Z" style="fill:#f0f0f0"/><path d="M1073.42,2643.87c-.29-1.59-.63-3.17-1.06-4.73a18,18,0,0,1-5.5,5.36,59,59,0,0,1,.51,23.37c-2,10.16-7.49,19.84-16.07,25.62-6,4.08-13.21,6.05-20.11,8.4s-13.9,5.34-18.72,10.81c5.42-4.87,12.72-7,19.85-8.55s14.48-2.66,21-6c9.2-4.75,15.8-13.72,19-23.58S1075.29,2654.05,1073.42,2643.87Z" style="fill:#f0f0f0"/><path d="M528.25,3788.25c9.77-1.33,19.06-5.44,27.26-10.73,1.29-.83,2.55-1.68,3.75-2.6-6.31-.64-11.2-4.84-14.86-9.35s-6.07-9.16-10.74-12.83a33.38,33.38,0,0,0-17.4-6.48,45.89,45.89,0,0,0-29.15,8.46c34.18,1.38,59,21.9,59,21.9a157.73,157.73,0,0,0-59.34-18.92,77.81,77.81,0,0,0-13.9-.53c6.26,2.28,10.83,7,14.8,11.88s7.65,10,13,13.7C508.19,3788,518.47,3789.59,528.25,3788.25Z" style="fill:#f0f0f0"/><path d="M549.28,3791.78c1.4-.64,2.78-1.31,4.11-2.05a16.27,16.27,0,0,1-6.14-3.26,61.72,61.72,0,0,1-21.34,6.17c-9.76.85-19.88-1.36-27.1-7.07-5.09-4-8.5-9.52-12.2-14.68s-8-10.26-14.09-12.92c5.68,3.31,9.28,8.86,12.28,14.42s5.66,11.39,10.18,16c6.4,6.49,16.11,9.78,25.86,10S540.36,3795.84,549.28,3791.78Z" style="fill:#f0f0f0"/><path d="M373,3700.28c-9.88-3.05-20.55-2.87-30.71-.89-1.59.3-3.17.66-4.72,1.1,5.71,3.6,8.49,10.43,9.94,17s1.68,12.77,4.48,18.91a35.35,35.35,0,0,0,13.65,15.08,42.69,42.69,0,0,0,31.48,4.24c-31.86-17.27-46.31-51.06-46.31-51.06s17.12,28.31,47.95,48a74.33,74.33,0,0,0,13,7c-4.94-5.36-7.15-12.65-8.76-19.76s-2.8-14.45-6.2-20.89C391.93,3709.84,382.89,3703.33,373,3700.28Z" style="fill:#f0f0f0"/><path d="M353.9,3688.39c-1.62.05-3.23.13-4.84.31a18.09,18.09,0,0,1,4.43,6.27,59.21,59.21,0,0,1,23.17,3.15c9.72,3.55,18.42,10.51,22.79,19.89,3.08,6.6,3.9,14,5.15,21.17s3.09,14.57,7.75,20.18c-4-6.11-4.94-13.66-5.35-20.94s-.35-14.72-2.64-21.64c-3.25-9.82-11.08-17.75-20.32-22.4S364.24,3688.14,353.9,3688.39Z" style="fill:#f0f0f0"/><path d="M822.68,4918.32c1.1-7.69-.28-15.58-2.94-22.89-.42-1.14-.86-2.27-1.38-3.37-2,4.66-6.74,7.52-11.46,9.38s-9.28,2.74-13.5,5.54a26.55,26.55,0,0,0-9.58,11.9,32.09,32.09,0,0,0,.55,23.85c9.07-25.67,32.43-40.35,32.43-40.35a124.43,124.43,0,0,0-29.94,41.2A56.61,56.61,0,0,0,783.2,4954c3.4-4.28,8.55-6.78,13.63-8.81s10.39-3.77,14.77-7.06C817.81,4933.48,821.58,4926,822.68,4918.32Z" style="fill:#f0f0f0"/><path d="M829.25,4902.75c-.22-1.19-.47-2.38-.79-3.55a13.54,13.54,0,0,1-4.13,4,44.19,44.19,0,0,1,.38,17.56c-1.48,7.62-5.62,14.9-12.07,19.24-4.53,3.06-9.92,4.54-15.1,6.3s-10.44,4-14,8.12c4.07-3.66,9.55-5.27,14.9-6.42s10.87-2,15.73-4.51c6.9-3.56,11.87-10.3,14.23-17.7S830.66,4910.39,829.25,4902.75Z" style="fill:#f0f0f0"/><path d="M697.26,5093.32c-7.21,7.43-11.89,17-14.74,27-.45,1.56-.85,3.13-1.16,4.71,5.8-3.45,13.15-2.82,19.68-1.12s12.15,4.3,18.89,4.6a35.41,35.41,0,0,0,19.64-5.31A42.73,42.73,0,0,0,757.64,5097c-29.86,20.55-66.53,18.08-66.53,18.08s33-2.4,64.52-20.94a75.28,75.28,0,0,0,12.11-8.38c-7,1.95-14.51.62-21.58-1.18s-14.14-4.07-21.43-4C714.38,5080.81,704.47,5085.9,697.26,5093.32Z" style="fill:#f0f0f0"/><path d="M678,5105c-.7,1.46-1.36,2.94-1.93,4.45a18,18,0,0,1,7.6-1.1A59,59,0,0,1,697,5089.09c7.57-7.05,17.73-11.64,28.07-11.28,7.28.26,14.24,2.88,21.21,5s14.38,3.86,21.49,2.26c-7.25.76-14.41-1.8-21.08-4.75s-13.28-6.36-20.48-7.46c-10.23-1.57-20.85,1.8-29.19,7.93S682.46,5095.62,678,5105Z" style="fill:#f0f0f0"/></svg>