<svg xmlns="http://www.w3.org/2000/svg" viewBox="0 0 34.7 80.93"><g style="isolation:isolate"><g style="isolation:isolate"><path d="M29.1,17.53a6.28,6.28,0,0,0-1.4-1.19l-15.1-10-2-1.54C9.43,3.34,9.1,2.2,9.57,1.35c.7-1.27,2-1.64,3.93-1.13l4.71,3.43L30.5,11.29c2.48,2.47,3.82,4,4,4.69.37,1.31.19,2.25-.53,2.81a2,2,0,0,1-2.35.14A5.7,5.7,0,0,1,29.1,17.53ZM6.59,79.81A2.42,2.42,0,0,1,7.08,76Q19.41,67.1,26.22,63a2.84,2.84,0,0,1,3.65,1.6c.6.89.19,1.9-1.26,3Q26,69.49,10.94,80.16C9.49,81.29,8,81.18,6.59,79.81ZM13.2,38.05a9.34,9.34,0,0,0-5.72-2.34c-2.37-.21-3.92-.38-4.67-.52C1,35,.05,34.21,0,32.8A3.85,3.85,0,0,1,.8,31a2.55,2.55,0,0,1,1.09-.85c2-.56,4.66-.44,8.07.34s5.69,1.92,6.81,3.36q2,3.16.78,4.56Q16,40.43,13.2,38.05Z" style="fill:#7e9a3e"/></g></g></svg>