<svg xmlns="http://www.w3.org/2000/svg" viewBox="0 0 385.29 241.03"><g style="isolation:isolate"><text transform="translate(76.1 197.55)" style="isolation:isolate;font-size:59px;fill:#7e9a3d;font-family:AdventPro-Regular, Advent Pro;letter-spacing:0.0499950344279661em">ΥΠΑΙΘΡΟ</text></g><g style="isolation:isolate"><text transform="translate(0 92.55)" style="isolation:isolate;font-size:119px;fill:#7e9a3d;font-family:NF-Takhie-Free-Regular, NF-Takhie-Free">ΜΕΓΑ<tspan x="151.26" y="0" style="letter-spacing:-0.022218848476890755em">Λ</tspan><tspan x="191.98" y="0" style="letter-spacing:-0.000004103203781512605em">ΩΜΕ</tspan><tspan x="309.79" y="0" style="letter-spacing:-0.022214745273109245em">Ν</tspan><tspan x="343.5" y="0">Α</tspan></text></g><g style="isolation:isolate"><text transform="translate(149.37 133.55)" style="isolation:isolate;font-size:29px;fill:#7e9a3d;font-family:AdventPro-Regular, Advent Pro;letter-spacing:0.1999932650862069em">ΣΤΗΝ</text></g><g style="isolation:isolate"><g style="isolation:isolate"><path d="M262.66,123.59a.25.25,0,0,0-.15-.09c-.16,0-.25,0-.29-.06s.06-.11.17-.23h.24l1.3-.18,2-.18,1.42-.11a4,4,0,0,1,.77-.06,3.36,3.36,0,0,0,.76-.06,7,7,0,0,1,1-.06,5.58,5.58,0,0,0,.91-.06.24.24,0,0,0,.24-.12c.08.12.16.16.23.12a2.53,2.53,0,0,1,.8-.12h.56c1.18-.08,2.1-.12,2.77-.12s1.58.06,2.84.06l.14,0c.06,0,.09,0,.09-.08h1c0,.08.07.09.23.05h1.95c.86,0,1.49,0,1.89.06l.29,0a1.19,1.19,0,0,1,.41,0,2,2,0,0,0,.59.12,3.16,3.16,0,0,1,.71-.06h.65l.35,0a1,1,0,0,0,.42,0,.27.27,0,0,1,.2.09.17.17,0,0,0,.21,0,.23.23,0,0,1,.21,0l.2,0h1.07l.23,0a.55.55,0,0,0,.3,0,.43.43,0,0,1,.17.06q.12.06.18,0a.29.29,0,0,1,.15.06.18.18,0,0,0,.2,0h1.24a.37.37,0,0,1,.21.06q.09.06.21-.06a.21.21,0,0,1,.14.09q.09.09.15,0h.47l.18,0a.18.18,0,0,0,.18,0,.38.38,0,0,1,.17.06.21.21,0,0,0,.24-.06c0,.08.14.11.3.11h.88l.3.06a.59.59,0,0,1,.35.24v.24H295a5.12,5.12,0,0,0-2.06-.18l-.18-.06-.06-.06-.12.12a.4.4,0,0,1-.2-.12q-.15-.12-.21.06a.29.29,0,0,0-.21-.06h-1a.24.24,0,0,1-.18-.06.24.24,0,0,0-.17-.06s-.1,0-.18.12a.41.41,0,0,0-.3-.12h-1.29a2.28,2.28,0,0,1-.83-.12.31.31,0,0,0-.47.12.28.28,0,0,0-.3-.14,1.22,1.22,0,0,1-.23,0h-1a.33.33,0,0,1-.23-.11l-.12.11c-.35-.15-.61-.15-.77,0a.19.19,0,0,0-.17,0,.21.21,0,0,1-.18,0,1.53,1.53,0,0,0-.47-.06h-1.83a.35.35,0,0,1-.24-.06,1.79,1.79,0,0,1-.53.12,2.66,2.66,0,0,1-.65-.09,1.22,1.22,0,0,0-.59,0c-.08-.08-.21-.06-.41.06a.12.12,0,0,0-.18-.06c-.08,0-.14,0-.17,0a.67.67,0,0,0-.3-.06h-1.53a.35.35,0,0,0-.24.12.25.25,0,0,0-.24-.09l-.17,0a.69.69,0,0,1-.21-.06q-.15-.06-.21,0h-.29a.24.24,0,0,0-.24.12l-.11-.12a.37.37,0,0,1-.33.09q-.21,0-.27,0c0-.12-.1-.15-.2-.09s-.17,0-.21,0a.4.4,0,0,1-.29.12h-3.28a.27.27,0,0,0-.2.06.33.33,0,0,1-.21,0l-.15,0a1,1,0,0,1-.41,0h-.94l-.12.12-.12-.12a1,1,0,0,1-.53.12,4.85,4.85,0,0,0-1.18,0,10.86,10.86,0,0,1-1.12.09,1.79,1.79,0,0,1-.53.06,2,2,0,0,0-.59.06,2.38,2.38,0,0,1-.65.06,2,2,0,0,0-.59.06,5.31,5.31,0,0,1-.95.06l-.17.23A.17.17,0,0,1,262.66,123.59Z" style="fill:#7e9a3d"/></g></g><g style="isolation:isolate"><g style="isolation:isolate"><path d="M90.66,123.59a.25.25,0,0,0-.15-.09c-.16,0-.25,0-.29-.06s.06-.11.17-.23h.24l1.3-.18,2-.18,1.42-.11a4,4,0,0,1,.77-.06,3.36,3.36,0,0,0,.76-.06,7,7,0,0,1,1-.06,5.58,5.58,0,0,0,.91-.06.24.24,0,0,0,.24-.12c.08.12.16.16.23.12a2.53,2.53,0,0,1,.8-.12h.56c1.18-.08,2.1-.12,2.77-.12s1.58.06,2.84.06l.14,0c.06,0,.09,0,.09-.08h1c0,.08.07.09.23.05h1.95c.86,0,1.49,0,1.89.06l.29,0a1.19,1.19,0,0,1,.41,0,2,2,0,0,0,.59.12,3.16,3.16,0,0,1,.71-.06h.65l.35,0a1,1,0,0,0,.42,0,.25.25,0,0,1,.2.09.17.17,0,0,0,.21,0,.23.23,0,0,1,.21,0l.2,0h1.07l.23,0a.55.55,0,0,0,.3,0,.43.43,0,0,1,.17.06q.12.06.18,0a.29.29,0,0,1,.15.06.18.18,0,0,0,.2,0h1.24a.37.37,0,0,1,.21.06q.09.06.21-.06a.21.21,0,0,1,.14.09q.09.09.15,0h.47l.18,0a.18.18,0,0,0,.18,0,.46.46,0,0,1,.18.06.2.2,0,0,0,.23-.06c0,.08.14.11.3.11h.88l.3.06a.59.59,0,0,1,.35.24v.24H123a5.12,5.12,0,0,0-2.06-.18l-.18-.06-.06-.06-.12.12a.4.4,0,0,1-.2-.12q-.15-.12-.21.06a.29.29,0,0,0-.21-.06h-1a.24.24,0,0,1-.18-.06.24.24,0,0,0-.17-.06s-.1,0-.18.12a.41.41,0,0,0-.3-.12h-1.29a2.28,2.28,0,0,1-.83-.12.31.31,0,0,0-.47.12.28.28,0,0,0-.3-.14,1.22,1.22,0,0,1-.23,0h-1a.33.33,0,0,1-.23-.11l-.12.11c-.35-.15-.61-.15-.77,0a.19.19,0,0,0-.17,0,.21.21,0,0,1-.18,0,1.53,1.53,0,0,0-.47-.06h-1.83a.35.35,0,0,1-.24-.06,1.79,1.79,0,0,1-.53.12,2.66,2.66,0,0,1-.65-.09,1.22,1.22,0,0,0-.59,0c-.08-.08-.21-.06-.41.06a.12.12,0,0,0-.18-.06c-.08,0-.14,0-.17,0a.67.67,0,0,0-.3-.06h-1.53a.35.35,0,0,0-.24.12.25.25,0,0,0-.24-.09l-.17,0a.69.69,0,0,1-.21-.06q-.15-.06-.21,0h-.29a.24.24,0,0,0-.24.12l-.11-.12a.37.37,0,0,1-.33.09q-.21,0-.27,0c0-.12-.1-.15-.2-.09s-.17,0-.21,0a.38.38,0,0,1-.29.12H99.33a.27.27,0,0,0-.2.06.33.33,0,0,1-.21,0l-.15,0a.93.93,0,0,1-.41,0h-.94l-.12.12-.12-.12a1,1,0,0,1-.53.12,4.85,4.85,0,0,0-1.18,0,10.86,10.86,0,0,1-1.12.09,1.79,1.79,0,0,1-.53.06,2,2,0,0,0-.59.06,2.38,2.38,0,0,1-.65.06,2,2,0,0,0-.59.06,5.31,5.31,0,0,1-.95.06l-.17.23A.17.17,0,0,1,90.66,123.59Z" style="fill:#7e9a3d"/></g></g><g style="isolation:isolate"><text transform="translate(51.53 235.55)" style="isolation:isolate;font-size:25px;fill:#7e9a3d;font-family:AdventPro-Regular, Advent Pro;letter-spacing:0.015em">με π<tspan x="45.57" y="0" style="letter-spacing:0.01400390625em">α</tspan><tspan x="58.57" y="0" style="letter-spacing:0.01501953125em">ρ</tspan><tspan x="71.05" y="0" style="letter-spacing:0.01400390625em">α</tspan><tspan x="84.05" y="0" style="letter-spacing:0.01501953125em">δ</tspan><tspan x="96.52" y="0" style="letter-spacing:0.01400390625em">ο</tspan><tspan x="108.97" y="0">σι</tspan><tspan x="127" y="0" style="letter-spacing:0.01400390625em">α</tspan><tspan x="140" y="0">κές μεθόδ</tspan><tspan x="245.1" y="0" style="letter-spacing:0.0140234375em">ο</tspan><tspan x="257.55" y="0">υς</tspan></text></g></svg>