<!-- <svg xmlns="http://www.w3.org/2000/svg" viewBox="0 0 382.72 233.74"><g style="isolation:isolate"><text transform="translate(0 129.89)" style="isolation:isolate;font-size:167px;fill:#7e9a3d;font-family:NF-Takhie-Free-Regular, NF-Takhie-Free;letter-spacing:-0.010002456025449101em">Φρ<tspan x="111.52" y="0" style="letter-spacing:-0.032217790980538924em">έ</tspan><tspan x="151.41" y="0" style="letter-spacing:-0.009999532185628742em">σ</tspan><tspan x="199.1" y="0" style="letter-spacing:-0.04332545845808383em">κ</tspan><tspan x="252.72" y="0">α</tspan></text></g><g style="isolation:isolate"><text transform="translate(118.33 199.39)" style="isolation:isolate;font-size:155px;fill:#7e9a3d;font-family:AlwaysAndForeverDingbats-Regular, Always And Forever Dingbats">n</text></g><g style="isolation:isolate"><text transform="translate(217.35 217.31)" style="isolation:isolate;font-size:75px;fill:#7e9a3d;font-family:AdventPro-Regular, Advent Pro;letter-spacing:0.2em">Νέα</text></g></svg> -->


<svg xmlns="http://www.w3.org/2000/svg" viewBox="0 0 98.46 52.4"><g style="isolation:isolate"><g style="isolation:isolate"><path d="M7,28.09a1.52,1.52,0,0,1-.69-.43A1.15,1.15,0,0,1,6,26.92a6.66,6.66,0,0,0,0-1.07c0-.3,0-.55,0-.76a11.65,11.65,0,0,1,0-1.22L6,22.4c0-.3,0-.5-.15-.58a1.81,1.81,0,0,0-.76-.23,6.41,6.41,0,0,1-2.54-1,4.54,4.54,0,0,1-1.52-1.7,10,10,0,0,1-.82-2.41A13.16,13.16,0,0,1,0,14.12a16.83,16.83,0,0,1,.51-4A18.55,18.55,0,0,1,1.93,6.2,3.61,3.61,0,0,1,3.61,4.47a2.17,2.17,0,0,1,1-.3,1.62,1.62,0,0,1,1.32.71,1.73,1.73,0,0,0,.54.5L7,5.69A.8.8,0,0,0,7.21,5,15.79,15.79,0,0,1,7.42,2.9c.06-.38.13-.87.2-1.48a1.44,1.44,0,0,1,.51-1A1.55,1.55,0,0,1,9.19,0,2.58,2.58,0,0,1,9.8.1l.41.46.25,2.49c.07.68.11,1.06.11,1.17a2,2,0,0,1-.06.55V5q0,.55.72.3a2.56,2.56,0,0,1,.55-.1,1.73,1.73,0,0,1,1.58,1l.76,1.77c0,.21.12.64.26,1.3a9.42,9.42,0,0,1,.2,1.8v1.17a13.27,13.27,0,0,1-.15,2.34l-.16,1.72-.1.82-.81,3a9.82,9.82,0,0,1-1,2l-1.52.46a1.59,1.59,0,0,1-.46-.1c-.24-.1-.35,0-.35.2V26a13.44,13.44,0,0,1-.1,1.42c0,.44-.29.64-.77.61h-.2a2.18,2.18,0,0,0-.76.15,2.71,2.71,0,0,1-.51.1A1.81,1.81,0,0,1,7,28.09ZM6.2,18.44c0-.34,0-.92,0-1.73s.08-1.52.15-2.13l.46-5.74,0-.46a1.72,1.72,0,0,0-.15-.76,9.13,9.13,0,0,0-.54-.86c-.25-.38-.43-.65-.53-.82s-.32-.35-.56-.15a1.59,1.59,0,0,0-.81,1.32c0,.44,0,1.14-.1,2.08A20.16,20.16,0,0,0,4.11,12a13.32,13.32,0,0,0,.56,4.16A7.08,7.08,0,0,1,5,17.25a10.74,10.74,0,0,0,.4,1.34c.14.27.27.41.41.41S6.13,18.81,6.2,18.44Zm5.74,2.11a6.7,6.7,0,0,0,.66-2.06A18.77,18.77,0,0,0,13,16a12.51,12.51,0,0,1,.08-1.27c.05-.47.08-.81.08-1,.06-.74.1-1.23.1-1.47a3.37,3.37,0,0,0,0-.66,8.38,8.38,0,0,0,0-1,12.84,12.84,0,0,0-.33-2.87c-.22-1-.54-1.47-.94-1.5a.72.72,0,0,0-.59.3,1,1,0,0,0-.23.46,5,5,0,0,0-.66,2.49l-.1,2.44c-.17,3.38-.25,5.35-.25,5.89l.05,2.59a1.46,1.46,0,0,0,.23.84.65.65,0,0,0,.53.33C11.28,21.54,11.6,21.21,11.94,20.55Z" style="fill:#7e9a3d"/><path d="M18.08,43.79a1.69,1.69,0,0,1-.51-1.17q-.3-2.74-.5-6.56L17,34.24c-.07-1.63-.11-2.85-.11-3.66,0-1,0-1.78.06-2.29L17,26.57c.1-2.75.25-5.09.45-7A21.55,21.55,0,0,1,18.79,14a6.51,6.51,0,0,1,3-3.61,4.61,4.61,0,0,1,2-.56,2.83,2.83,0,0,1,1.27.31c.58.34,1.1.66,1.58,1a2.79,2.79,0,0,1,1,2.29l.15,1a9.9,9.9,0,0,1,.21,1.67,27.37,27.37,0,0,1-2,9.81,6,6,0,0,1-1.43,1.88,2.64,2.64,0,0,1-1.67.81,3,3,0,0,1-1.25-.31,4.15,4.15,0,0,0-1-.35,20,20,0,0,0-.25,2.54v1.67a19.6,19.6,0,0,0,.15,2.49c.07.78.1,2.44.1,5a12.81,12.81,0,0,0,.15,2,6.09,6.09,0,0,1,.11.92,3.44,3.44,0,0,1-.16,1,2,2,0,0,1-.58,1.07.6.6,0,0,1-.84.1C18.54,44.11,18.15,43.82,18.08,43.79Zm6.05-17.43a23.69,23.69,0,0,0,1-2.38c.41-1.33.74-2.49,1-3.51a14.58,14.58,0,0,0,.44-3l.05-1.83c0-1.89-.41-3.15-1.22-3.76a1.39,1.39,0,0,0-.92-.35c-.74,0-1.41.7-2,2.11a21.48,21.48,0,0,0-1.35,4.92,30.54,30.54,0,0,0-.46,4.55,5,5,0,0,0,1.68,4.06,1.11,1.11,0,0,0,.56.26C23.38,27.38,23.79,27,24.13,26.36Z" style="fill:#7e9a3d"/><path d="M33.3,27.56a4.53,4.53,0,0,1-2.11-1.86,4.16,4.16,0,0,1-.66-2.33A8.83,8.83,0,0,1,32.1,18l.28-.43a1,1,0,0,0,.18-.48A9.54,9.54,0,0,0,32,15.82a4.4,4.4,0,0,1-.59-1.9,4.26,4.26,0,0,1,1.12-2.87A4.81,4.81,0,0,1,35.05,9.4a6.71,6.71,0,0,1,1.37-.21,4.37,4.37,0,0,1,2,.49,1.49,1.49,0,0,1,1,1.34,1.69,1.69,0,0,1-.31.92l-.25.15a3.19,3.19,0,0,1-.38-.61,2.76,2.76,0,0,0-.33-.53.52.52,0,0,0-.41-.18A3.07,3.07,0,0,0,35.68,12a3.48,3.48,0,0,0-1.14,2.28,1.11,1.11,0,0,0,.2.71,2.32,2.32,0,0,0,1.27.51,5,5,0,0,1,1.25.43.92.92,0,0,1,.38.84c0,.51-.17.82-.51.92A3.56,3.56,0,0,0,35.33,19a9.5,9.5,0,0,0-1.15,2.26,9.66,9.66,0,0,0-.5,2.64,5.88,5.88,0,0,0,0,.77,4.5,4.5,0,0,0,.15.81c0,.07.12.25.25.56a2.06,2.06,0,0,0,.51.71,1.3,1.3,0,0,0,.71.3,5.81,5.81,0,0,0,.87.1A2.07,2.07,0,0,0,38,26.21a5.43,5.43,0,0,0,1.12-2.49,1.51,1.51,0,0,1,.08-.48c.05-.15.12-.23.23-.23a.33.33,0,0,1,.3.25,2.1,2.1,0,0,1,.15.82,3.36,3.36,0,0,1-.58,1.75,7.52,7.52,0,0,1-1.45,1.7,2.65,2.65,0,0,1-1.88.66A6.48,6.48,0,0,1,33.3,27.56ZM36.42,6.35a2.58,2.58,0,0,1,.3-1.12l.11-.35.5-1A3,3,0,0,1,38.4,2.59a3.15,3.15,0,0,1,1.22-.41,1.22,1.22,0,0,1,.71.26.23.23,0,0,1,.15.25,2.79,2.79,0,0,1-.35,1.07q-.1.26-.36.81a7,7,0,0,1-.58,1,7.15,7.15,0,0,1-.84,1l-.2.16a3.07,3.07,0,0,1-.69.28,2.79,2.79,0,0,0-.38.07C36.64,7.11,36.42,6.86,36.42,6.35Z" style="fill:#7e9a3d"/><path d="M43.76,27a6.7,6.7,0,0,1-2-3.33,5.57,5.57,0,0,1-.35-2,14.89,14.89,0,0,1,.3-2.44,18.9,18.9,0,0,1,3.86-8.18,17.81,17.81,0,0,1,4.12-3.45c.07-.07.27-.1.61-.1,1,0,1.57.23,1.57.71a.77.77,0,0,1-.3.61l-1.73,1.52c-.27.27-.49.51-.66.71a.91.91,0,0,0-.25.56,1,1,0,0,0,.2.56,6.28,6.28,0,0,0,.56.71,4.29,4.29,0,0,1,1,2.69q.1,1.23.21,1.83c.13,1.22.2,2.12.2,2.7a8.38,8.38,0,0,1,0,1,17.13,17.13,0,0,1-.79,4q-.69,2.23-1.8,2.7A4.17,4.17,0,0,1,43.76,27Zm3.89-.28a1.61,1.61,0,0,0,.27-.38c.09-.16.16-.28.23-.38a21.45,21.45,0,0,0,1.48-5.84c0-.38,0-.92,0-1.63a12.63,12.63,0,0,0-.31-3c0-.07-.17-.6-.4-1.6s-.53-1.39-.87-1.19a1.94,1.94,0,0,0-.63.61,4.38,4.38,0,0,0-.41.81q-.18.47-.33.81a14.76,14.76,0,0,0-1.42,6.3,15,15,0,0,0,.51,4,4.18,4.18,0,0,0,.25.82c.24.3.42.52.56.66a.77.77,0,0,0,.56.2A.65.65,0,0,0,47.65,26.72Z" style="fill:#7e9a3d"/><path d="M54.55,26.62l0-1.63,0-1.42a62.88,62.88,0,0,1,1.83-11.48c.1-.27.22-.56.36-.86a8.1,8.1,0,0,0,.35-1,.61.61,0,0,1,.61-.51c.31,0,.68.3,1.12.89a2.94,2.94,0,0,1,.66,1.75,8.18,8.18,0,0,1-.25,2.39c.17.14.28.12.35-.05a11.32,11.32,0,0,1,1.83-2l1.32-1.12a3.61,3.61,0,0,1,2.74-.81,2,2,0,0,1,1.43.71,2.36,2.36,0,0,1,.56,1.57,3.89,3.89,0,0,1-.36,1.58,6.56,6.56,0,0,1-1.47,2.23c-.88.89-1.53,1.56-1.93,2l-1,1a1,1,0,0,0-.25.76,6.71,6.71,0,0,0,2,4.47,9.59,9.59,0,0,0,1.57,1.17,3.64,3.64,0,0,0,1.63.46.69.69,0,0,1,.66.46.28.28,0,0,1-.18.2.72.72,0,0,0-.18.1,1.72,1.72,0,0,1-1.32.61,2.69,2.69,0,0,1-1.37-.41,17.86,17.86,0,0,1-3.73-2.36,9,9,0,0,1-2.31-3.22,4.56,4.56,0,0,1-.46-2.09,11.59,11.59,0,0,1,.2-1.93.89.89,0,0,1,1-.81,4.06,4.06,0,0,0,2.23-.61,14,14,0,0,0,2.19-1.78c.4-.44.76-.85,1.06-1.24a2.12,2.12,0,0,0,.51-1,1.59,1.59,0,0,0,.1-.46c0-.27-.08-.45-.25-.53a1.07,1.07,0,0,0-.51-.13,1.59,1.59,0,0,0-.46.1,17.15,17.15,0,0,0-2,1.42,15.82,15.82,0,0,0-1.82,1.73c-.55.61-1.26,1.49-2.14,2.64a2.93,2.93,0,0,0-.4,1.27A34.9,34.9,0,0,0,58.11,24l0,1c-.07.75-.1,1.3-.1,1.68a2.35,2.35,0,0,0,0,.66,1.45,1.45,0,0,1,.05.4,2.08,2.08,0,0,1-.31,1.12.77.77,0,0,1-.76.41A2.57,2.57,0,0,1,54.55,26.62Z" style="fill:#7e9a3d"/><path d="M71.32,28a3.33,3.33,0,0,1-1.78-1.9,11.14,11.14,0,0,1-.87-4.42A17.22,17.22,0,0,1,69,18.49a10.56,10.56,0,0,1,1.27-3.3c.54-1.12,1-2,1.3-2.54A9.22,9.22,0,0,1,72.79,11c.78-.91,1.47-1.37,2.08-1.37a1.37,1.37,0,0,1,.61.15c.31.1.74.21,1.3.33a3.19,3.19,0,0,1,1.34.59c.27.2.48.17.61-.1a1,1,0,0,1,.41-.39,1.13,1.13,0,0,1,.51-.17.79.79,0,0,1,.53.2.84.84,0,0,1,.28.51c0,.13.07.3.1.51a5.15,5.15,0,0,1,0,.76,3.57,3.57,0,0,1-.13.79,4,4,0,0,0-.12.83,4.12,4.12,0,0,0,.15,1.07,6.11,6.11,0,0,1,.15,2.18q-.25,2.64-.35,6c0,.27-.08.63-.13,1.09A10.89,10.89,0,0,0,80.1,25a6.23,6.23,0,0,0,.11.87,3,3,0,0,0,.73-.82,7.39,7.39,0,0,0,.59-1.27,11.43,11.43,0,0,1,.5-1.06c.07-.17.24-.55.51-1.12a8.52,8.52,0,0,0,.61-1.73,1.66,1.66,0,0,1,.31-.48.47.47,0,0,1,.3-.08c.2.14.31.26.31.36a3.4,3.4,0,0,1-.11.79,4.42,4.42,0,0,1-.15.58,29.15,29.15,0,0,1-1.27,3.76,14.05,14.05,0,0,1-.81,1.27l-.61,1a1.14,1.14,0,0,1-1,.46,6.74,6.74,0,0,1-1.7-.61,2,2,0,0,1-.89-1.22,3.43,3.43,0,0,0-.12-.33c0-.12-.11-.24-.18-.38a6.14,6.14,0,0,0-.92,1.25,5.7,5.7,0,0,1-.66,1,6.57,6.57,0,0,1-1.09,1,2,2,0,0,1-1.14.33A5.3,5.3,0,0,1,71.32,28ZM74,27a3.7,3.7,0,0,0,.81-.94A13.61,13.61,0,0,0,77,21.18a40.39,40.39,0,0,0,.41-4.67c.07-1.53.15-2.66.25-3.4a3,3,0,0,0-.43-1.33c-.22-.33-.43-.49-.63-.45a.49.49,0,0,0-.43.28,3.1,3.1,0,0,0-.23.38l-.82,1.88A41.54,41.54,0,0,0,73,19.4,22.1,22.1,0,0,0,72.38,23a5.54,5.54,0,0,0-.1.58,6.21,6.21,0,0,0,0,.69,4.28,4.28,0,0,0,.1.86,1.93,1.93,0,0,1,0,.76v.21a1.92,1.92,0,0,0,.26,1c.17.29.33.43.5.43A1.58,1.58,0,0,0,74,27Z" style="fill:#7e9a3d"/></g></g><g style="isolation:isolate"><g style="isolation:isolate"><path d="M32,35.07C32,35,32,35,31.93,35s-.18,0-.21,0,0-.08.13-.17H32l.93-.12,1.44-.13,1-.09a3.78,3.78,0,0,1,.55,0,2.39,2.39,0,0,0,.55,0,4.81,4.81,0,0,1,.7,0,3.86,3.86,0,0,0,.66,0c.09,0,.14,0,.17-.08s.11.11.17.08a2,2,0,0,1,.57-.08h.41c.84-.06,1.51-.09,2-.09s1.13,0,2,0l.1,0s.07,0,.07-.06h.72c0,.06,0,.07.17,0h1.4c.62,0,1.07,0,1.36,0l.21,0a.77.77,0,0,1,.29,0,1.65,1.65,0,0,0,.43.08,2.16,2.16,0,0,1,.51,0H49l.25,0a.74.74,0,0,0,.3,0,.24.24,0,0,1,.15.06.11.11,0,0,0,.14,0,.22.22,0,0,1,.15,0,.5.5,0,0,0,.15,0h.76l.17,0a.35.35,0,0,0,.22,0l.12,0a.14.14,0,0,0,.13,0,.21.21,0,0,1,.11,0,.14.14,0,0,0,.15,0h.89a.28.28,0,0,1,.15,0s.09,0,.14,0a.17.17,0,0,1,.11.06s.08,0,.11,0h.34l.12,0a.12.12,0,0,0,.13,0,.36.36,0,0,1,.13,0,.15.15,0,0,0,.17,0c0,.06.1.09.21.09h.64l.21,0a.42.42,0,0,1,.25.17v.17h-.08a3.92,3.92,0,0,0-1.49-.13l-.12,0,0,0-.08.08a.36.36,0,0,1-.15-.08c-.07-.06-.12,0-.15,0a.21.21,0,0,0-.15,0h-.7a.25.25,0,0,1-.13,0,.15.15,0,0,0-.12-.05s-.07,0-.13.09a.29.29,0,0,0-.21-.09h-.94a1.58,1.58,0,0,1-.59-.08.22.22,0,0,0-.34.08.2.2,0,0,0-.21-.1l-.17,0h-.72a.22.22,0,0,1-.17-.09l-.09.09c-.25-.11-.44-.11-.55,0a.12.12,0,0,0-.13,0,.16.16,0,0,1-.12,0,1.06,1.06,0,0,0-.34,0H46.1a.25.25,0,0,1-.17,0,1.24,1.24,0,0,1-.38.09,2.14,2.14,0,0,1-.47-.07.88.88,0,0,0-.42,0c-.06-.06-.16,0-.3,0s-.07-.07-.12,0-.1,0-.13,0a.46.46,0,0,0-.21,0H42.79a.29.29,0,0,0-.17.08.19.19,0,0,0-.17-.06l-.12,0a.41.41,0,0,1-.15,0q-.1,0-.15,0h-.21c-.09,0-.15,0-.17.08l-.09-.08a.22.22,0,0,1-.23.06.31.31,0,0,0-.19,0q0-.12-.15-.06c-.07,0-.12,0-.15,0a.28.28,0,0,1-.21.08H38.27a.17.17,0,0,0-.14,0,.28.28,0,0,1-.15,0,.26.26,0,0,0-.11,0,.71.71,0,0,1-.3,0H36.9l-.09.08-.08-.08a.71.71,0,0,1-.39.08,4.22,4.22,0,0,0-.85,0,6.26,6.26,0,0,1-.8.07,1.25,1.25,0,0,1-.38,0,1.51,1.51,0,0,0-.43,0,1.62,1.62,0,0,1-.46,0,1.43,1.43,0,0,0-.43.05,3.75,3.75,0,0,1-.68,0l-.12.17A.12.12,0,0,1,32,35.07Z" style="fill:#7e9a3d"/></g></g><g style="isolation:isolate"><g style="isolation:isolate"><path d="M60.77,39.92V52.18H59.62V37.8h1.15l7.8,12.26V37.8h1.15V52.18H68.57Z" style="fill:#7e9a3d"/><path d="M83.35,51.93a12.59,12.59,0,0,1-1.26.32,8.46,8.46,0,0,1-1.61.15A3.66,3.66,0,0,1,78,51.56a3.05,3.05,0,0,1-1-2.09l0-.39a2.55,2.55,0,0,1,1.54-2.63,2.18,2.18,0,0,1-.78-.85,2.77,2.77,0,0,1-.35-1.35c0-.08,0-.22,0-.41a2.15,2.15,0,0,1,1.07-1.63,4.27,4.27,0,0,1,2.18-.53,6,6,0,0,1,2,.31v1a6.79,6.79,0,0,0-1.93-.29,3,3,0,0,0-1.52.35,1.21,1.21,0,0,0-.6,1.13,1.94,1.94,0,0,0,.42,1.22,1.38,1.38,0,0,0,1.17.55h2.44l-.39,1.1H80.07a2,2,0,0,0-1.5.54A2,2,0,0,0,78,49.1a2.15,2.15,0,0,0,.64,1.65,2.73,2.73,0,0,0,1.91.58,6.53,6.53,0,0,0,1.4-.15,9.34,9.34,0,0,0,1.1-.31c.29-.1.48-.17.56-.21l.33,1C83.88,51.74,83.68,51.82,83.35,51.93ZM81,38.71a.7.7,0,0,1,.7-.47.61.61,0,0,1,.49.2.68.68,0,0,1,.18.45.62.62,0,0,1-.1.35L80.8,41.13h-.9Z" style="fill:#7e9a3d"/><path d="M97.51,52.1a2.07,2.07,0,0,0-.42,0l-.44,0-.93.09q-.7.06-1.26.06a5.18,5.18,0,0,1-3-.77,3.2,3.2,0,0,1-1.1-2.8v-3.8a3.11,3.11,0,0,1,.83-2.41,3.16,3.16,0,0,1,2.19-.75,6.92,6.92,0,0,1,1.69.23,8.58,8.58,0,0,1,1.64.61l.39-.84.9.45c0,.15,0,.45-.08.9s-.06.82-.06,1.09v6.4A1.14,1.14,0,0,0,98,51a1.27,1.27,0,0,0,.46.49l-.55.67Zm-4.1-9.29c-1.29,0-1.93.72-1.93,2.16v3.88a2.19,2.19,0,0,0,.72,1.87,3.68,3.68,0,0,0,2.18.53,17.15,17.15,0,0,0,2.32-.18V43.66A9.57,9.57,0,0,0,93.41,42.81Z" style="fill:#7e9a3d"/></g></g></svg>