<svg xmlns="http://www.w3.org/2000/svg" viewBox="0 0 828.71 121.25"><g style="isolation:isolate"><g style="isolation:isolate"><path d="M0,69.75H23.71v6.39H6.46v14H17.18l-2.27,6.25H6.46v23.07H0Z" style="fill:#7e9a3d"/><path d="M65.18,104.26a7,7,0,0,1-1.64.14h-11v15H46.08V69.75h17q6.81,0,10.29,4.62a18.91,18.91,0,0,1,3.48,11.71,49.07,49.07,0,0,1-.32,6A18.13,18.13,0,0,1,75,97.48a11.78,11.78,0,0,1-3.87,4.65L77,119.45h-6.6Zm2.37-8.06a8.75,8.75,0,0,0,2.17-4.4,34.12,34.12,0,0,0,.43-5.72c0-3.69-.77-6.25-2.31-7.7s-3.78-2.16-6.71-2.16H52.54V98.15h9.58Q65.81,98.15,67.55,96.2Z" style="fill:#7e9a3d"/><path d="M100.32,69.75H124v6.39H106.78v14h11.08l-1.92,6.25h-9.16v17.25h17.11v5.82H100.32Z" style="fill:#7e9a3d"/><path d="M154.49,111.64a10,10,0,0,0,6.82,2.28q4.68,0,7.31-2.13a6.73,6.73,0,0,0,2.63-5.47,8.34,8.34,0,0,0-1.6-5.22,12,12,0,0,0-3.94-3.34,69.37,69.37,0,0,0-6.46-2.87,61.88,61.88,0,0,1-7.06-3.16,13.62,13.62,0,0,1-4.51-4,10.59,10.59,0,0,1-1.85-6.42,10.87,10.87,0,0,1,1.78-5.93A12.83,12.83,0,0,1,153,70.82,20.13,20.13,0,0,1,161.88,69a27.69,27.69,0,0,1,5.75.5,21.06,21.06,0,0,1,4.61,1.63l-2.05,6.11a21.71,21.71,0,0,0-8.24-1.7,12.14,12.14,0,0,0-6.78,1.59,4.94,4.94,0,0,0-2.38,4.3,4.41,4.41,0,0,0,1.28,3.12,11.37,11.37,0,0,0,3.16,2.31q1.88,1,5.36,2.45a68.8,68.8,0,0,1,8.06,3.8,17.68,17.68,0,0,1,5.43,4.9,12.68,12.68,0,0,1,2.27,7.7,13.89,13.89,0,0,1-4.19,10.44q-4.18,4.05-12.78,4a19.15,19.15,0,0,1-9-2,14.39,14.39,0,0,1-5.68-5,13,13,0,0,1-2.1-6.42l6.89-.78A8.36,8.36,0,0,0,154.49,111.64Z" style="fill:#7e9a3d"/><path d="M225.71,96.38H208v23.07h-6.46V69.75H208V90.13h17.68V69.75h6.39v49.7h-6.39Z" style="fill:#7e9a3d"/><path d="M264,82.82v36.63h-6.46V69.75H264l21.94,36.5V69.75h6.54v49.7h-6.54Z" style="fill:#7e9a3d"/><path d="M317.86,69.75h23.72v6.39H324.32v14H335.4l-1.92,6.25h-9.16v17.25h17.12v5.82H317.86Z" style="fill:#7e9a3d"/><path d="M372,111.64a10,10,0,0,0,6.81,2.28c3.13,0,5.56-.71,7.32-2.13a6.72,6.72,0,0,0,2.62-5.47,8.4,8.4,0,0,0-1.59-5.22,12,12,0,0,0-3.95-3.34,69.37,69.37,0,0,0-6.46-2.87,61.88,61.88,0,0,1-7.06-3.16,13.62,13.62,0,0,1-4.51-4,10.59,10.59,0,0,1-1.84-6.42,10.94,10.94,0,0,1,1.77-5.93,12.83,12.83,0,0,1,5.39-4.58A20.13,20.13,0,0,1,379.42,69a27.63,27.63,0,0,1,5.75.5,21.14,21.14,0,0,1,4.62,1.63l-2.06,6.11a21.71,21.71,0,0,0-8.24-1.7,12.18,12.18,0,0,0-6.78,1.59,4.94,4.94,0,0,0-2.38,4.3,4.41,4.41,0,0,0,1.28,3.12,11.52,11.52,0,0,0,3.16,2.31q1.88,1,5.36,2.45a68,68,0,0,1,8.06,3.8,17.56,17.56,0,0,1,5.43,4.9,12.68,12.68,0,0,1,2.27,7.7,13.85,13.85,0,0,1-4.19,10.44q-4.18,4.05-12.78,4a19.17,19.17,0,0,1-9-2,14.45,14.45,0,0,1-5.68-5,12.88,12.88,0,0,1-2.09-6.42l6.88-.78A8.37,8.37,0,0,0,372,111.64Z" style="fill:#7e9a3d"/><path d="M426.07,111.64a10,10,0,0,0,6.81,2.28c3.13,0,5.56-.71,7.32-2.13a6.72,6.72,0,0,0,2.62-5.47,8.34,8.34,0,0,0-1.6-5.22,12,12,0,0,0-3.93-3.34c-1.57-.82-3.72-1.78-6.47-2.87a61.88,61.88,0,0,1-7.06-3.16,13.62,13.62,0,0,1-4.51-4,10.59,10.59,0,0,1-1.85-6.42,11,11,0,0,1,1.78-5.93,12.8,12.8,0,0,1,5.4-4.58A20.06,20.06,0,0,1,433.45,69a27.63,27.63,0,0,1,5.75.5,21.14,21.14,0,0,1,4.62,1.63l-2.06,6.11a21.71,21.71,0,0,0-8.24-1.7,12.18,12.18,0,0,0-6.78,1.59,4.94,4.94,0,0,0-2.38,4.3,4.41,4.41,0,0,0,1.28,3.12,11.37,11.37,0,0,0,3.16,2.31q1.88,1,5.36,2.45a68,68,0,0,1,8.06,3.8,17.68,17.68,0,0,1,5.43,4.9,12.62,12.62,0,0,1,2.27,7.7,13.85,13.85,0,0,1-4.19,10.44q-4.19,4.05-12.78,4a19.17,19.17,0,0,1-9-2,14.45,14.45,0,0,1-5.68-5,12.88,12.88,0,0,1-2.09-6.42l6.88-.78A8.33,8.33,0,0,0,426.07,111.64Z" style="fill:#7e9a3d"/></g></g><g style="isolation:isolate"><g style="isolation:isolate"><path d="M493.18,108.2a3.53,3.53,0,0,1-.37-1.63l-.15-4.88v-1a2.83,2.83,0,0,0-.59-1.92.78.78,0,0,1-.22-.59,1.27,1.27,0,0,1,.59-1,2.91,2.91,0,0,0,.89-2.07,53.87,53.87,0,0,1,2.51-11,7.45,7.45,0,0,1,1.26-2.14,1.91,1.91,0,0,1,1.41-.74,1.85,1.85,0,0,1,1.4.81,9.26,9.26,0,0,1,1.33,2.67,46.37,46.37,0,0,1,1.34,5.69q.66,4.59,1.85,13.77v.52a8.82,8.82,0,0,1-.15,1.33,1.89,1.89,0,0,1-.45.44,1.57,1.57,0,0,1-.59.3h-.07a1,1,0,0,1-.48-.15.67.67,0,0,1-.34-.37,4,4,0,0,1-.51-1.48c-.15-.94-.33-2.47-.52-4.59a2.93,2.93,0,0,0-.33-1.22c-.13-.12-.53-.16-1.23-.11l-2.51.15a2.6,2.6,0,0,0-1.56.44,2.43,2.43,0,0,0-.44,1.48,18.72,18.72,0,0,0,0,1.93c0,.54,0,1,0,1.33h-.07v2.51a3.48,3.48,0,0,1-.23,1.52,1,1,0,0,1-.81.48A.93.93,0,0,1,493.18,108.2Zm0-29.19a1.12,1.12,0,0,1-.59-.93.94.94,0,0,1,.48-.77,2.69,2.69,0,0,1,1.29-.41l9.77-.44q5.63-.3,8.51-.3c1.92,0,3.36,0,4.29.07l4.29.08,9.48.22a8.26,8.26,0,0,1,1.85.15,1.3,1.3,0,0,1,.77.55.93.93,0,0,1,.11.85,1.76,1.76,0,0,1-1,1,11.8,11.8,0,0,1-1.63,0c-.64,0-1.11,0-1.41,0q-6.36-.3-9.47-.37c-.79,0-1.49-.06-2.11,0s-1.12,0-1.51,0h-1.78v-.22q-13,.59-19.54.81a.31.31,0,0,0-.22.08.29.29,0,0,1-.22.07A2.81,2.81,0,0,1,493.18,79Zm2.11,33.93a1.7,1.7,0,0,1-.48-.67.42.42,0,0,1-.08-.29c0-.45.3-.74.89-.89a14.81,14.81,0,0,1,1.85-.37q3-.15,4.59-.3l4.88-.29c2-.1,3.48-.15,4.52-.15l2.22-.08V110h9q3.18,0,9.55.15c.19,0,.4,0,.63,0a2.6,2.6,0,0,1,.77,0c1.24.14,1.8.56,1.7,1.25s-.66,1.24-1.7,1.34a24.92,24.92,0,0,1-3.18-.08l-3.11-.07q-4.14-.15-6.21-.15-3,0-6,.22a4,4,0,0,1-1.29-.07,8.18,8.18,0,0,0-1.22-.15q-2.37.08-6.74.37l-6.73.44a16.07,16.07,0,0,1-1.85.08,8.48,8.48,0,0,1-1.33-.08A1,1,0,0,1,495.29,112.94Zm4.92-17a.38.38,0,0,0,.29-.18,2.48,2.48,0,0,1,.23-.26l-1-6.81q-.22-1.11-.81-3.33a1.13,1.13,0,0,0-.52-.37.5.5,0,0,0-.19.07.27.27,0,0,0-.11.23L495.77,95.7c0,.1.1.24.29.44s.35.27.45.22A21,21,0,0,0,500.21,96Zm7.84,11.55a.72.72,0,0,1-.48-.26,2.36,2.36,0,0,1-.41-.56,3,3,0,0,1-.22-.81,5.71,5.71,0,0,1-.07-.74l-.3-5.26q-.29-3.91-.44-7.77c-.05-1-.08-2.44-.08-4.36V83.49a2.72,2.72,0,0,1,.23-1.11c.24-.84.64-1.26,1.18-1.26a1.48,1.48,0,0,1,1.18.66,7.91,7.91,0,0,1,1,1.56l6.81,16.28a3.6,3.6,0,0,0,.52,1l.51-.07q0-3.41.15-10.22,0-.74,0-1.77c0-.69,0-1.51,0-2.44a2.55,2.55,0,0,1,.59-1.63.72.72,0,0,1,.67-.37.87.87,0,0,1,.89.59,9.09,9.09,0,0,1,.44,2.44q0,2-.15,6c-.1,1.77-.14,3.13-.14,4.07v2.73c0,1.24,0,2.18-.08,2.82a20.64,20.64,0,0,1-.52,3c0,.69-.51,1.13-1.4,1.33l-.3.07c-.44,0-.81-.34-1.11-1a23.21,23.21,0,0,1-1.26-2.74q-4-9.76-6.06-14.65l-.37-.52-.15.74a4.12,4.12,0,0,0-.08.81l.45,7,.15,5.1.22,3.78V106a1,1,0,0,1-.15.67,2.86,2.86,0,0,1-.55.55,1.79,1.79,0,0,1-.63.34Zm16.28.44a1.4,1.4,0,0,1-1.07-.44,1.94,1.94,0,0,1-.41-1.34c-.05-1.08-.07-2.71-.07-4.88h.07l.45-17.91c.09-1.58.71-2.37,1.85-2.37a4,4,0,0,1,.81.15q10.72,3,13.62,12.43a11.36,11.36,0,0,1,.51,3,8,8,0,0,1-1.25,4.4,11.12,11.12,0,0,1-3.48,3.37,12.18,12.18,0,0,1-2.67,1.29,34,34,0,0,1-3.62,1l-1.78.45-2,.59A2.37,2.37,0,0,1,524.33,108Zm4.07-3.85a28.33,28.33,0,0,0,4.81-1.48c2.76-1.18,4.15-3.13,4.15-5.84a9,9,0,0,0-.45-2.74,13.44,13.44,0,0,0-4-6.37,19.23,19.23,0,0,0-7.06-3.77l-.45,18.2a15.94,15.94,0,0,0,.08,1.85c0,.7.27.94.81.74Z" style="fill:#7e9a3d"/></g></g><g style="isolation:isolate"><g style="isolation:isolate"><path d="M594.07,105.69H580.82L577,120.45h-7.27l13.32-50.4h8.57l14,50.4H598ZM582.4,98.85h10.08l-5.18-18Z" style="fill:#7e9a3d"/><path d="M645.76,105.05a7.67,7.67,0,0,1-1.66.14H632.94v15.26h-6.55V70.05h17.28q6.92,0,10.44,4.68t3.53,11.88a52.45,52.45,0,0,1-.32,6.12,18.7,18.7,0,0,1-1.59,5.44,12,12,0,0,1-3.92,4.72l5.9,17.56H651Zm2.41-8.18a8.87,8.87,0,0,0,2.2-4.46,34.08,34.08,0,0,0,.43-5.8q0-5.61-2.34-7.81t-6.8-2.19h-8.72V98.85h9.73C645.16,98.85,647,98.2,648.17,96.87Z" style="fill:#7e9a3d"/><path d="M703.54,117.83a16.85,16.85,0,0,1-10.62,3.42,19.22,19.22,0,0,1-7.34-1.41,12.47,12.47,0,0,1-5.66-4.57,14,14,0,0,1-2.19-8.14V84q0-7.41,4.07-11.23T693,68.9q7.13,0,11,4T708,84v23.11Q708,114.41,703.54,117.83Zm-4.1-39.57q-2-2.45-6.59-2.45t-6.59,2.42c-1.32,1.61-2,4-2,7.16V106.2a8.39,8.39,0,0,0,2.27,6.26,9.86,9.86,0,0,0,12.53,0,8.39,8.39,0,0,0,2.34-6.3V85.46Q701.42,80.71,699.44,78.26Z" style="fill:#7e9a3d"/><path d="M764.78,89.64,754.7,120.45h-5.48l-9.93-30.74v30.74h-6.55V70.05h6.55L752,107.21l12.82-37.16h6.55v50.4h-6.55Z" style="fill:#7e9a3d"/><path d="M817.12,105.69H803.87l-3.81,14.76h-7.28l13.32-50.4h8.57l14,50.4h-7.63Zm-11.66-6.84h10.08l-5.19-18Z" style="fill:#7e9a3d"/></g></g><g style="isolation:isolate"><g style="isolation:isolate"><path d="M306.77,14.83H312a6.41,6.41,0,0,1,4.83,1.73,6.41,6.41,0,0,1,1.67,4.62v7.67c0,3.74-2,5.6-5.94,5.6h-5.82Zm9.51,3.43a4.14,4.14,0,0,0-1.75-1.53,5.34,5.34,0,0,0-2.22-.48h-4v16.8h3.81a6.83,6.83,0,0,0,3.43-.79c.92-.54,1.38-1.58,1.38-3.13V20.9A4.79,4.79,0,0,0,316.28,18.26Z" style="fill:#7e9a3d"/><path d="M330,16.28l-1.88-.05V14.85h3.45v19.6H330Z" style="fill:#7e9a3d"/><path d="M342.65,31.29a4.55,4.55,0,0,0,1.74,1.41,5.54,5.54,0,0,0,2.53.55,6.28,6.28,0,0,0,3.6-1A3.41,3.41,0,0,0,352,29.22a3.06,3.06,0,0,0-.7-2.06,5.28,5.28,0,0,0-1.73-1.32c-.7-.32-1.64-.7-2.83-1.13a27.26,27.26,0,0,1-3.1-1.25,5.84,5.84,0,0,1-2-1.55,3.86,3.86,0,0,1-.8-2.52,4.37,4.37,0,0,1,.7-2.34,5,5,0,0,1,2.12-1.79,7.88,7.88,0,0,1,3.48-.69,10.9,10.9,0,0,1,2.27.2,8.43,8.43,0,0,1,1.82.64l-.47,1.49a7.77,7.77,0,0,0-3.56-.81,6,6,0,0,0-3.44.89,2.87,2.87,0,0,0-1.29,2.49,2.38,2.38,0,0,0,.64,1.7,4.81,4.81,0,0,0,1.59,1.1c.62.28,1.49.62,2.61,1a32.41,32.41,0,0,1,3.31,1.3,6.12,6.12,0,0,1,2.14,1.71,4.33,4.33,0,0,1,.88,2.79A5.44,5.44,0,0,1,352,33.21,7.13,7.13,0,0,1,347,34.76a7.46,7.46,0,0,1-3.54-.77,5.6,5.6,0,0,1-2.24-2,5,5,0,0,1-.83-2.53h1.6A3.57,3.57,0,0,0,342.65,31.29Z" style="fill:#7e9a3d"/><path d="M367.92,34.73A5.94,5.94,0,0,1,364,33.45a5.12,5.12,0,0,1-1.51-4.12v-9a6.85,6.85,0,0,1,.6-3.22,5.09,5.09,0,0,1,1.84-1.85,6.1,6.1,0,0,1,3-.7,8.34,8.34,0,0,1,3.95.93l-.45,1.06a8.78,8.78,0,0,0-3-.59,5.58,5.58,0,0,0-3,.84c-.89.56-1.33,1.66-1.33,3.28v9.18a4.16,4.16,0,0,0,1,3,4,4,0,0,0,3,1.05,13.1,13.1,0,0,0,4.17-.82l.34,1.32A13.31,13.31,0,0,1,367.92,34.73Z" style="fill:#7e9a3d"/><path d="M390.22,33.43a6.53,6.53,0,0,1-4.13,1.33,7.53,7.53,0,0,1-2.85-.54,4.89,4.89,0,0,1-2.2-1.78,5.44,5.44,0,0,1-.86-3.17v-9a5.7,5.7,0,0,1,1.59-4.37,6.09,6.09,0,0,1,4.35-1.48,5.74,5.74,0,0,1,4.3,1.56,5.93,5.93,0,0,1,1.52,4.32v9A4.91,4.91,0,0,1,390.22,33.43Zm-1-16.5a4.62,4.62,0,0,0-3.15-1,4.57,4.57,0,0,0-3.13,1A3.86,3.86,0,0,0,381.75,20v9.24a3.72,3.72,0,0,0,1.22,3,4.64,4.64,0,0,0,3.09,1,4.76,4.76,0,0,0,3.13-1,3.71,3.71,0,0,0,1.21-3.06V20A3.83,3.83,0,0,0,389.21,16.93Z" style="fill:#7e9a3d"/><path d="M401,14.85h1.68l5,17.67,5-17.67h1.68l-5.6,19.6h-2.15Z" style="fill:#7e9a3d"/><path d="M423.05,14.85h9.35v1.46h-7.78v6.58H430l-.53,1.54h-4.82v8.62h7.73v1.4h-9.3Z" style="fill:#7e9a3d"/><path d="M449.88,27.51a6.48,6.48,0,0,1-1.12.08h-5.52v6.86h-1.57V14.85h6.89a4.79,4.79,0,0,1,4,1.63,6.77,6.77,0,0,1,1.3,4.37,13.52,13.52,0,0,1-.46,3.72,3.94,3.94,0,0,1-2,2.46l2.49,7.42h-1.59Zm1.24-2.3a3.69,3.69,0,0,0,.95-1.9,13.27,13.27,0,0,0,.19-2.38,5.25,5.25,0,0,0-1-3.44,3.21,3.21,0,0,0-2.63-1.15h-5.43v9.71h5.54A3,3,0,0,0,451.12,25.21Z" style="fill:#7e9a3d"/></g></g><path d="M475,37.83c-.15-1.22-.36-2.38-.43-3.6q-.33-9.61-.65-19.24H474c0-2.74-.07-5.48,0-8.14,0-1.3-.07-1.73-1.66-1.66-2.38.15-4.68.15-7.06.15a6.09,6.09,0,0,1-1.59-.15,1.6,1.6,0,0,1-1.37-1.79c0-.1,0-.2.07-.3a1.39,1.39,0,0,1,1.3-.5,7.77,7.77,0,0,0,3.82.43c1.8-.07,3.6-.36,5.4-.43.65-.07,1-.21,1.08-.86A2.84,2.84,0,0,1,474,1a1.18,1.18,0,0,1,1.3-1,1.72,1.72,0,0,1,1.08.93c.29.44.14,1.23.43,1.37s1-.14,1.51-.14c3.89-.29,7.71-.43,11.53-.65,1.88-.14,3.75-.36,5.62-.58.22,0,.44-.07.65-.07a1.12,1.12,0,0,1,1.35.83.43.43,0,0,1,0,.11,1.28,1.28,0,0,1-.86,1.44,3.86,3.86,0,0,1-1.3.22c-4,.64-8.15.64-12.18.93l-5.4.43c-1.23.08-1.44.22-1.44,1.52-.07,1.87-.15,3.74-.07,5.62.07,3.6.28,7.2.43,10.88.14,4.54.36,9.15.5,13.76,0,.36.07.8.07,1.16,0,.72-.29,1.15-1.08,1.15A1.13,1.13,0,0,1,475,37.87Zm11.6-2.66a6.55,6.55,0,0,1-.43-1.73c-.44-3.25-.65-6.42-.94-9.66a13,13,0,0,0-.43-1.51c-.08-.36-.29-.72-.22-1,.65-3.24,0-6.34-.5-9.44l-.22-.65c-.21-.94,0-1.51.65-1.66a1.35,1.35,0,0,1,1.66.8,20.25,20.25,0,0,1,.79,3.53c.22,1.87.44,3.74.5,5.69.08.72.29,1.08,1,1.22,1.44.29,3,.65,4.4.87s1.73,0,1.8-1.51c.15-2.38.07-4.69.07-7.07V10.09a3.55,3.55,0,0,1,.44-1.45,1.11,1.11,0,0,1,.86-.5,1.08,1.08,0,0,1,.87.58,6.57,6.57,0,0,1,.28,2c0,3.17,0,6.27-.14,9.44-.07,1.51.07,1.58,1.44,1.44s2.88-.65,4.25-.79c1-.15,1-.72,1.08-1.37a56.12,56.12,0,0,1,.94-6.06,21,21,0,0,1,3.39-7.85,15.7,15.7,0,0,1,2.23-2.16,4.11,4.11,0,0,1,5,.14,5.41,5.41,0,0,1,2,3.46A11.3,11.3,0,0,1,515,16.14a19.15,19.15,0,0,1-6.55,5.19,11,11,0,0,0-1.8.94,1.35,1.35,0,0,0-.58,1.08c.36,2.95.58,6,2.59,8.5,1.59,1.94,3.1,2.16,5.12.65a14.59,14.59,0,0,0,4.11-4.76,5.35,5.35,0,0,1,.93-1.51c.44-.36.94-.58,1.45-.07.36.36.79.72.43,1.37-1.44,2.88-3.17,5.62-6.06,7.42a5.67,5.67,0,0,1-7.71-1.3,15.72,15.72,0,0,1-3.17-8.36V24.21c-.07-.58-.43-.79-1-.72-1.58.21-3.24.57-4.9.79-.79.14-.93.58-.93,1.23,0,1.94.07,3.81,0,5.69a5,5,0,0,1-.22,1.8,2,2,0,0,1-1.3.72c-.22,0-.72-.58-.72-.94a28.82,28.82,0,0,1-.14-3.6c0-1.15.14-2.3.14-3.39-.07-1.3-.29-1.58-1.59-1.8-1.73-.21-3.38-.43-5.33-.64a64.26,64.26,0,0,0,1.08,11.24c.07.72.36,1.37-.65,1.58-.79.29-1.36-.07-1.65-1Zm27.17-21.48a23.49,23.49,0,0,0,1.65-4.47A18.93,18.93,0,0,0,514.24,6a1.58,1.58,0,0,0-2-.88,1.63,1.63,0,0,0-.62.45,12.22,12.22,0,0,0-2.37,3,29.25,29.25,0,0,0-2.89,9.94c-.14.87.15,1.08.94.72a14.77,14.77,0,0,0,6.49-5.55Z" style="fill:#7e9a3d"/><g style="isolation:isolate"><g style="isolation:isolate"><path d="M371,54a.61.61,0,0,0-.38-.22c-.4,0-.65,0-.75-.16s.15-.3.45-.6h.61c.1,0,1.21-.15,3.32-.45l5.13-.46,3.63-.3a10.33,10.33,0,0,1,2-.15,9,9,0,0,0,2-.15,18.14,18.14,0,0,1,2.5-.15,14.93,14.93,0,0,0,2.34-.15.6.6,0,0,0,.6-.3q.3.45.6.3a6.52,6.52,0,0,1,2-.3h1.44c3-.2,5.38-.31,7.09-.31s4,.16,7.25.16a1.29,1.29,0,0,0,.38-.08c.15,0,.23-.12.23-.23H414c0,.21.2.26.61.15h5c2.21,0,3.82.06,4.83.16a5,5,0,0,0,.76-.08,2.61,2.61,0,0,1,1.05.08,5,5,0,0,0,1.51.3,8.14,8.14,0,0,1,1.82-.15h1.66a7.69,7.69,0,0,1,.9.07,2.43,2.43,0,0,0,1.06-.07.73.73,0,0,1,.53.22.42.42,0,0,0,.53.08.56.56,0,0,1,.52-.08,3.38,3.38,0,0,0,.53.08H438a2.6,2.6,0,0,1,.61.07,1.27,1.27,0,0,0,.75-.07,1.15,1.15,0,0,1,.45.15c.2.1.35.1.46,0a.72.72,0,0,1,.37.15.5.5,0,0,0,.53,0h3.17a.94.94,0,0,1,.53.15c.15.1.33,0,.53-.15a.64.64,0,0,1,.38.23c.15.15.27.17.37.07h1.21a2.31,2.31,0,0,1,.46.08.45.45,0,0,0,.45-.08,1.15,1.15,0,0,1,.45.15.51.51,0,0,0,.61-.15q.15.3.75.3h2.27a6,6,0,0,1,.75.15,1.53,1.53,0,0,1,.91.61v.6h-.3a13.46,13.46,0,0,0-5.29-.45l-.45-.15-.15-.15-.31.3a1.14,1.14,0,0,1-.52-.3c-.26-.2-.43-.15-.53.15a.75.75,0,0,0-.53-.15h-2.49a.62.62,0,0,1-.46-.15.61.61,0,0,0-.45-.15q-.15,0-.45.3a1,1,0,0,0-.76-.3H438a5.66,5.66,0,0,1-2.11-.31.78.78,0,0,0-1.21.31.72.72,0,0,0-.76-.38,4.3,4.3,0,0,1-.6.07h-2.57a.86.86,0,0,1-.6-.3l-.3.3c-.91-.4-1.56-.4-2,0a.45.45,0,0,0-.45-.07A.45.45,0,0,1,427,52a4,4,0,0,0-1.21-.15h-4.68a.9.9,0,0,1-.61-.15,4.76,4.76,0,0,1-1.35.3,6.84,6.84,0,0,1-1.66-.22,3.2,3.2,0,0,0-1.51-.08c-.21-.2-.56-.15-1.06.15a.3.3,0,0,0-.45-.15c-.21.1-.36.1-.46,0a1.67,1.67,0,0,0-.75-.15h-3.93a.86.86,0,0,0-.6.3.64.64,0,0,0-.61-.22,2,2,0,0,1-.45.07,1.74,1.74,0,0,1-.53-.15c-.25-.1-.43-.1-.53,0h-.75a.62.62,0,0,0-.61.3l-.3-.3a.93.93,0,0,1-.83.23c-.35-.05-.58,0-.68.07-.1-.3-.28-.38-.53-.22s-.43.12-.52-.08a1.06,1.06,0,0,1-.76.3h-8.38a.75.75,0,0,0-.53.15.7.7,0,0,1-.53.08,1.24,1.24,0,0,0-.37-.08,2.07,2.07,0,0,1-1.06.15H388.3l-.3.31-.3-.31a2.4,2.4,0,0,1-1.36.31,12.64,12.64,0,0,0-3,.07,28.75,28.75,0,0,1-2.87.23,4.58,4.58,0,0,1-1.36.15,5.34,5.34,0,0,0-1.51.15,6.12,6.12,0,0,1-1.66.15,5.3,5.3,0,0,0-1.51.15,13.78,13.78,0,0,1-2.42.15l-.45.61A.42.42,0,0,1,371,54Z" style="fill:#7e9a3d"/></g></g></svg>