<svg xmlns="http://www.w3.org/2000/svg" viewBox="0 0 454.3 251.38"><g style="isolation:isolate"><g style="isolation:isolate"><path d="M0,.86H18V5.72H4.91V16.36h8.16l-1.73,4.75H4.91V38.66H0Z" style="fill:#7e9a3d"/><path d="M60.37,27.11a5.52,5.52,0,0,1-1.24.11H50.76V38.66H45.85V.86h13q5.17,0,7.83,3.51a14.41,14.41,0,0,1,2.64,8.91A38.85,38.85,0,0,1,69,17.87,13.75,13.75,0,0,1,67.85,22a8.9,8.9,0,0,1-2.94,3.54l4.43,13.17h-5ZM62.18,21a6.75,6.75,0,0,0,1.65-3.35,26.31,26.31,0,0,0,.32-4.35c0-2.8-.58-4.76-1.75-5.86a7.23,7.23,0,0,0-5.11-1.64H50.76V22.46h7.29A5.26,5.26,0,0,0,62.18,21Z" style="fill:#7e9a3d"/><path d="M97.9.86h18V5.72H102.82V16.36h8.42l-1.46,4.75h-7V34.24h13v4.42H97.9Z" style="fill:#7e9a3d"/><path d="M153.68,39.15a12.15,12.15,0,0,1-6.91-2.78c-2-1.64-3-4.2-3-7.7V11.29q0-5.56,3-8.43T155.25,0c3.56,0,6.33,1,8.29,3s2.94,4.79,2.94,8.32V28.67q0,4.59-2.32,7a9.88,9.88,0,0,1-5.45,3.05,3.37,3.37,0,0,0,1.8,1.16,11.57,11.57,0,0,0,3.11.25l-.49,4.32Q156,44.65,153.68,39.15ZM160,6.86q-1.54-1.73-4.89-1.73-6.42,0-6.43,6.05V28.62a7.86,7.86,0,0,0,1,3.78,3.36,3.36,0,0,0,3,1.89,12.58,12.58,0,0,1-.11-1.73V29.27h5v3.56c0,.61,0,1.08.05,1.41a3.43,3.43,0,0,0,3-1.79,7.75,7.75,0,0,0,.95-3.88V11.18A6.28,6.28,0,0,0,160,6.86Z" style="fill:#7e9a3d"/><path d="M217.83.81V28.62c0,3.64-1.1,6.28-3.32,7.94a13,13,0,0,1-8,2.48,13.15,13.15,0,0,1-8.05-2.48c-2.23-1.66-3.35-4.3-3.35-7.94V.81H200V27.22q0,7.06,6.42,7.07t6.48-7.07V.81Z" style="fill:#7e9a3d"/><path d="M247.48.86h18V5.72H252.4V16.36h8.42l-1.46,4.75h-7V34.24h13v4.42H247.48Z" style="fill:#7e9a3d"/><path d="M299.1,10.8V38.66h-4.91V.86h4.91l16.69,27.76V.86h5v37.8h-5Z" style="fill:#7e9a3d"/><path d="M354.94,5.72h-8.26V.86h21.71V5.72h-8.54V38.66h-4.91Z" style="fill:#7e9a3d"/><path d="M394.2.86h4.91V34.18h14.58v4.48H394.2Z" style="fill:#7e9a3d"/><path d="M448.31,34.24c.72-.83,1.08-2.24,1.08-4.22V25.38a10.47,10.47,0,0,1-3,1.32,13.13,13.13,0,0,1-3.73.52,12.84,12.84,0,0,1-9-3.08,11,11,0,0,1-3.38-8.53V.86h4.92V15.44a6.6,6.6,0,0,0,1.94,5.19,8,8,0,0,0,5.51,1.73,9.1,9.1,0,0,0,4.45-.95,4.66,4.66,0,0,0,2.25-2.35V.86h4.91V30.24a10.83,10.83,0,0,1-1.7,6.48,7.49,7.49,0,0,1-5.54,2.75l-1.45-3.67A4.74,4.74,0,0,0,448.31,34.24Z" style="fill:#7e9a3d"/></g></g><g style="isolation:isolate"><g style="isolation:isolate"><path d="M140.72,103.65q-.87-.57-.87-1.05a41.83,41.83,0,0,1,.48-5.16q.6-4.32,1-6.48a86.88,86.88,0,0,1,2.34-10.38l.48-1.8q.3-1.38.72-2.7.12-.48.6-2.1t.9-2.7a11.45,11.45,0,0,1,.78-1.68l1.56-.12a2.21,2.21,0,0,1,1.83,1,5.56,5.56,0,0,1,1,2.16l2.34,17.4a63.78,63.78,0,0,1,.6,7.26,26.9,26.9,0,0,0,.48,4.32q.12.54.24,1.38a1.56,1.56,0,0,1,.06.48q0,.66-.54.66a1.33,1.33,0,0,1-1.29-.93A5.64,5.64,0,0,1,153,101a33.4,33.4,0,0,0-.42-4.8q-.06-.66-.18-1.65t-.18-2.25q0-.6-.54-.6l-2.34-.06q-.42,0-2,.12a1,1,0,0,0-.87.57,6.46,6.46,0,0,0-.45,1.08q-.18.57-.24.81a10.54,10.54,0,0,0-.63,2.55q-.21,1.53-.27,2.07l-.3,1.56a15.59,15.59,0,0,1-.54,2.13q-.3.87-.6,1l-1.14.6A2.56,2.56,0,0,1,140.72,103.65Zm11.07-13.08a.93.93,0,0,0,.3-.81l-1.26-10.2-.54-4.32a7.52,7.52,0,0,0-.39,1.89q-.09,1.05-.15,1.41a47.74,47.74,0,0,1-1.14,5.58q-1,4.2-1.26,4.8a2.66,2.66,0,0,0-.12.84q0,.84.66.84a16.25,16.25,0,0,1,1.68.12l1.26.06A1.71,1.71,0,0,0,151.79,90.57Z" style="fill:#7e9a3d"/><path d="M182.21,103.44a6.29,6.29,0,0,1-2.34-5.22v-.84a3.15,3.15,0,0,1,.3-1.38.72.72,0,0,1,.66-.42q.72,0,.6.84a9.52,9.52,0,0,0-.18,1.74A7.23,7.23,0,0,0,182,101q.72,1.62,1.38,1.62a1.38,1.38,0,0,0,1.05-.72,4.45,4.45,0,0,0,.69-1.38q.3-1.2.84-2.76c.52-1.6.9-3,1.17-4.14a15.87,15.87,0,0,0,.39-3.48,8.69,8.69,0,0,0-.66-3.42,4.74,4.74,0,0,0-2-2.34,11.07,11.07,0,0,1-3.42-2.88,8.19,8.19,0,0,1-1.56-4.92,9.1,9.1,0,0,1,.9-3.9,8.47,8.47,0,0,1,2.46-3.15,5.4,5.4,0,0,1,3.42-1.23,6.8,6.8,0,0,1,1.89.27,3.24,3.24,0,0,1,1.41.75L191,70.5a3.35,3.35,0,0,1,1,2.46,4.73,4.73,0,0,1-.72,2.46.67.67,0,0,1-.54.36.63.63,0,0,1-.54-.24.62.62,0,0,1-.12-.54l.3-1.56a3.18,3.18,0,0,0,.06-.6,3.1,3.1,0,0,0-.78-1.92,2.15,2.15,0,0,0-1.62-1,2.44,2.44,0,0,0-1.77,1,7.7,7.7,0,0,0-1.41,2.28,5.17,5.17,0,0,0-.48,2.22,15.1,15.1,0,0,0,.48,3.9,4.81,4.81,0,0,0,1.56,2.7,33.17,33.17,0,0,1,3,2.67,9.15,9.15,0,0,1,1.86,2.79,10.17,10.17,0,0,1,.72,4,10.66,10.66,0,0,1-.78,4.26,2.75,2.75,0,0,0-.18.75,2.14,2.14,0,0,1-.24.75,14.09,14.09,0,0,0-.72,1.32,32.76,32.76,0,0,1-2.73,4.23,3.45,3.45,0,0,1-5.19.63Z" style="fill:#7e9a3d"/><path d="M232,104.34a17.36,17.36,0,0,1-1.58-3.12c-.5-1.24-1.38-3.68-2.61-7.32l-2.52-7.32a3,3,0,0,1-.15-.42,1,1,0,0,0-.33-.48,3.69,3.69,0,0,0-1,1.08c-.12.16-.27.39-.46.69a2.54,2.54,0,0,1-.56.69.61.61,0,0,0-.24.54v.42a7.84,7.84,0,0,0,.05,1.62,8.55,8.55,0,0,1,.13,1.26l.06,5.64a17.7,17.7,0,0,1-.36,4.38,1.86,1.86,0,0,1-1,1.32q-.67.3-.54.72a8.24,8.24,0,0,1-1.62.24A2.72,2.72,0,0,1,218,104a.72.72,0,0,0-.17-.42,4.38,4.38,0,0,1-.51-1.89,21,21,0,0,1-.16-2.55v-1a7,7,0,0,0-.05-1,13.84,13.84,0,0,1-.12-1.68l.05-1.14c.08-.68.13-1.27.16-1.77s0-.91,0-1.23q0-1.56.06-2.28c0-.48.06-1.34.06-2.58q.41-7.92.65-10.74c.16-2,.31-3.5.43-4.5,0-.48,0-.76-.12-.84l.12-.48a7.35,7.35,0,0,1,1.14-.12,8.83,8.83,0,0,1,1.11.06l.75.12a3.6,3.6,0,0,1,.48.6l0,.72.37,1.44c0,.16.09.56.17,1.2a10.13,10.13,0,0,1,.07,1.8,6.22,6.22,0,0,0,0,1.35,10.34,10.34,0,0,1,.09,1.05c0,.76,0,1.41,0,1.95s0,1,0,1.35l.06,1.44c0,.12,0,.54-.13,1.26a32.45,32.45,0,0,0,3-4.05,50.83,50.83,0,0,0,2.67-4.53q.77-1.56,1.74-3.36c.64-1.2,1.05-1.8,1.26-1.8s.33.18.5.54a2,2,0,0,1,.28.9,1.64,1.64,0,0,1-.18.66L229,78.72l-.77,1.62c-.21.36-.63,1.06-1.27,2.1a6.15,6.15,0,0,0-1.07,2,1.49,1.49,0,0,0,.18.66l.66,1.5q.41,1,1,2.1a10.58,10.58,0,0,1,.75,1.65q.31.93.45,1.23,1.8,5,3.05,8.94l.54,1.38c0,.12.17.42.4.9a3.21,3.21,0,0,1,.33,1.2q0,.72-1.08.54Z" style="fill:#7e9a3d"/><path d="M261.17,104.16H261l-1.08.06a2.28,2.28,0,0,1-1.55-.57,2.34,2.34,0,0,1-.79-1.59q-.06-1,0-3c0-1.38.13-2.57.25-3.57a24.22,24.22,0,0,1,.35-2.52c0-.36.1-.81.19-1.35s.13-1.15.17-1.83l.13-1.68A10.32,10.32,0,0,1,259,84.6a3.29,3.29,0,0,0,.06-1.17,5.51,5.51,0,0,1,0-1.17q.3-2.58.78-8.52a16.9,16.9,0,0,0,.24-2.34L260,70.32A.84.84,0,0,1,260,70a.72.72,0,0,1,.18-.57,1,1,0,0,1,.61-.15,11.9,11.9,0,0,1,1.67.18H263l2.88-.06a11.82,11.82,0,0,1,1.38.06,5.44,5.44,0,0,0,1,.06A9.39,9.39,0,0,0,270,69.3a2.27,2.27,0,0,1,1.26.42q.84.48,1,.84a.46.46,0,0,1,.07.3c0,.28-.16.44-.49.48l-1,.06-5.51-.48-.85-.06c-.28,0-.4.18-.35.54a3.8,3.8,0,0,0,.05.72,52.8,52.8,0,0,1,.24,5.94A8.79,8.79,0,0,0,265,80.7v1.86q0,1.38.06,2.1l.06,2.22a10.34,10.34,0,0,1-.06,1.32c0,.36.2.54.61.54a21.34,21.34,0,0,1,2.33.06c.37,0,.54.16.54.48a.54.54,0,0,1-.48.54l-2.57.06a.66.66,0,0,0-.66.54,35.84,35.84,0,0,0-.61,4.92l-.35,3.6c-.05.24-.1.56-.16,1a8.84,8.84,0,0,0-.09,1,2,2,0,0,0,.13,1q.11.18.66.18h3.17c.4,0,.76,0,1.09,0a2.49,2.49,0,0,0,.71,0,3,3,0,0,1,1.74.54,1.59,1.59,0,0,1,.34.3.39.39,0,0,1,0,.42,1.29,1.29,0,0,1-.82.66,4.84,4.84,0,0,1-1.11.12h-.84l-1.26-.12-1.44-.12a6.56,6.56,0,0,0-1.44.24,8.23,8.23,0,0,1-1.79.3A5,5,0,0,1,261.17,104.16Z" style="fill:#7e9a3d"/><path d="M297.64,103.56a4.25,4.25,0,0,1-.54-1.53A14.59,14.59,0,0,1,297,100a14.18,14.18,0,0,1,0-1.56q0-.66,0-1.14a14.54,14.54,0,0,0,0-2.64L297.1,92q0-1.5-.06-2.28a4.4,4.4,0,0,1-.06-.9,15.26,15.26,0,0,1,.12-2.1q.12-.78.15-1.35t0-.93q0-.78.12-2.22l.36-3.48q.48-4.56.91-7l.11-1.26q.36-.72.48-.93t.6-.27l1.2.36.36.72a3.66,3.66,0,0,0,.18,1.26,10.72,10.72,0,0,1,5.46-1.32,5.72,5.72,0,0,1,3.54,1.08,9.57,9.57,0,0,1,2.1,3.3,12.19,12.19,0,0,1,.78,3.78l.19,1.26a2.39,2.39,0,0,0,.5,1,3,3,0,0,1,.57,1.41,3.6,3.6,0,0,1-.24,1.44,7.21,7.21,0,0,0-.36,1.86,7.21,7.21,0,0,1-.36,1.86,24.91,24.91,0,0,1-3.66,6l-4.5,5.28a14.78,14.78,0,0,1-1.92,1.8l-1.62,1.5-.41.42A3.55,3.55,0,0,1,300,103h-.6l.06.54q0,.72-.36.81a3.49,3.49,0,0,1-.84.09A4,4,0,0,0,297.64,103.56Zm4.59-6.66a10.48,10.48,0,0,0,.81-1.56q1.38-2.58,2-3.87a26.14,26.14,0,0,0,1.2-2.73q.66-1.68,2-4.68a19.42,19.42,0,0,0,1.44-6l-.24-2.94a2.38,2.38,0,0,0-.78-1.47,3.16,3.16,0,0,0-1.8-.39,6.79,6.79,0,0,0-1.59.18,15.51,15.51,0,0,0-1.59.48l-1.62.6q0,1.26.12,2.52t.18,1.8q.18,2.22.18,4.5A95.56,95.56,0,0,1,301.18,98,6.73,6.73,0,0,0,302.23,96.9Z" style="fill:#7e9a3d"/></g></g><g style="isolation:isolate"><g style="isolation:isolate"><path d="M30,170a12.12,12.12,0,0,1-6.91-2.78c-2-1.64-3-4.2-3-7.7V142.1q0-5.57,3.06-8.43c2-1.9,4.83-2.86,8.39-2.86s6.33,1,8.29,3,2.95,4.78,2.95,8.31v17.33c0,3.07-.78,5.41-2.33,7.05a9.82,9.82,0,0,1-5.45,3.05,3.34,3.34,0,0,0,1.81,1.16A11.49,11.49,0,0,0,40,171l-.48,4.32Q32.34,175.47,30,170Zm6.34-32.29q-1.53-1.72-4.88-1.73-6.43,0-6.43,6.05v17.44a7.75,7.75,0,0,0,1,3.78,3.3,3.3,0,0,0,3,1.89,12.71,12.71,0,0,1-.1-1.73v-3.29h5v3.56a12.9,12.9,0,0,0,0,1.41,3.43,3.43,0,0,0,3-1.78,7.81,7.81,0,0,0,.94-3.89V142A6.23,6.23,0,0,0,36.37,137.67Z" style="fill:#7e9a3d"/><path d="M94.18,131.62v27.81c0,3.64-1.11,6.28-3.32,7.94a14.26,14.26,0,0,1-16.07,0c-2.23-1.66-3.34-4.3-3.34-7.94V131.62h4.91V158q0,7.07,6.43,7.07T89.26,158V131.62Z" style="fill:#7e9a3d"/><path d="M123.82,131.68h18v4.85H128.74v10.64h8.42l-1.46,4.76h-7v13.12h13v4.43H123.82Z" style="fill:#7e9a3d"/><path d="M175.83,163.53a7.6,7.6,0,0,0,5.18,1.73,8.59,8.59,0,0,0,5.56-1.62,5.12,5.12,0,0,0,2-4.16,6.33,6.33,0,0,0-1.21-4,9,9,0,0,0-3-2.54,52,52,0,0,0-4.92-2.19,45.72,45.72,0,0,1-5.37-2.4,10.45,10.45,0,0,1-3.43-3,8.06,8.06,0,0,1-1.4-4.88,8.28,8.28,0,0,1,1.35-4.51,9.91,9.91,0,0,1,4.1-3.49,15.41,15.41,0,0,1,6.75-1.34,21.28,21.28,0,0,1,4.38.37,16.11,16.11,0,0,1,3.51,1.25l-1.57,4.64a16.41,16.41,0,0,0-6.26-1.3,9.19,9.19,0,0,0-5.16,1.22,3.75,3.75,0,0,0-1.81,3.27,3.32,3.32,0,0,0,1,2.37,8.68,8.68,0,0,0,2.41,1.76c1,.48,2.31,1.1,4.07,1.86a51,51,0,0,1,6.13,2.89,13.4,13.4,0,0,1,4.13,3.72,9.65,9.65,0,0,1,1.73,5.86,10.53,10.53,0,0,1-3.19,7.94q-3.18,3.07-9.72,3.08a14.56,14.56,0,0,1-6.83-1.49,11,11,0,0,1-4.32-3.83,9.8,9.8,0,0,1-1.59-4.89l5.24-.59A6.32,6.32,0,0,0,175.83,163.53Z" style="fill:#7e9a3d"/><path d="M225,136.53h-8.26v-4.85h21.71v4.85h-8.54v32.95H225Z" style="fill:#7e9a3d"/><path d="M266.87,136.43l-3.4-.11v-4.64h8.37v37.8h-5Z" style="fill:#7e9a3d"/><path d="M320.41,167.5a12.64,12.64,0,0,1-8,2.57,14.52,14.52,0,0,1-5.51-1,9.44,9.44,0,0,1-4.24-3.43,10.49,10.49,0,0,1-1.65-6.11V142.1q0-5.57,3.05-8.43c2-1.9,4.84-2.86,8.4-2.86s6.33,1,8.29,3,2.94,4.78,2.94,8.31v17.33Q323.73,164.94,320.41,167.5Zm-3.08-29.67c-1-1.22-2.64-1.84-4.94-1.84s-3.95.61-4.94,1.81a8.34,8.34,0,0,0-1.49,5.38v15.6a6.26,6.26,0,0,0,1.71,4.7,7.38,7.38,0,0,0,9.39,0,6.25,6.25,0,0,0,1.76-4.72v-15.5A8.44,8.44,0,0,0,317.33,137.83Z" style="fill:#7e9a3d"/><path d="M358,141.61v27.87h-4.91v-37.8H358l16.69,27.75V131.68h5v37.8h-5Z" style="fill:#7e9a3d"/><path d="M415.1,163.53a7.6,7.6,0,0,0,5.18,1.73,8.59,8.59,0,0,0,5.56-1.62,5.09,5.09,0,0,0,2-4.16,6.33,6.33,0,0,0-1.21-4,9,9,0,0,0-3-2.54,52.76,52.76,0,0,0-4.91-2.19,45.22,45.22,0,0,1-5.38-2.4,10.32,10.32,0,0,1-3.42-3,8,8,0,0,1-1.41-4.88,8.28,8.28,0,0,1,1.35-4.51,9.91,9.91,0,0,1,4.1-3.49,15.41,15.41,0,0,1,6.75-1.34,21.21,21.21,0,0,1,4.38.37,16.11,16.11,0,0,1,3.51,1.25L427,137.4a16.41,16.41,0,0,0-6.26-1.3,9.24,9.24,0,0,0-5.16,1.22,3.77,3.77,0,0,0-1.81,3.27,3.36,3.36,0,0,0,1,2.37,8.68,8.68,0,0,0,2.41,1.76c.95.48,2.31,1.1,4.07,1.86a51,51,0,0,1,6.13,2.89,13.29,13.29,0,0,1,4.13,3.72,9.58,9.58,0,0,1,1.73,5.86,10.56,10.56,0,0,1-3.18,7.94q-3.19,3.07-9.72,3.08a14.53,14.53,0,0,1-6.83-1.49,11,11,0,0,1-4.32-3.83,9.81,9.81,0,0,1-1.6-4.89l5.24-.59A6.36,6.36,0,0,0,415.1,163.53Z" style="fill:#7e9a3d"/></g></g><path d="M356.72,84.36c0-1.24.68-2,1.77-2s2,1.16,1.91,2.7a1.82,1.82,0,0,1-1.65,2h-.15C357.45,87,356.7,86,356.72,84.36Z" style="fill:#7e9a3d"/><path d="M99.53,84.36c0-1.24.67-2,1.77-2s2,1.16,1.91,2.7a1.83,1.83,0,0,1-1.65,2h-.15C100.25,87,99.5,86,99.53,84.36Z" style="fill:#7e9a3d"/><g style="isolation:isolate"><g style="isolation:isolate"><path d="M181.84,251.23a.64.64,0,0,0-.41-.25,1.31,1.31,0,0,1-.83-.17c0-.1.17-.33.5-.66h.66c.11,0,1.32-.16,3.63-.49l5.61-.5,4-.33a12.22,12.22,0,0,1,2.14-.16,9.21,9.21,0,0,0,2.15-.17,21.3,21.3,0,0,1,2.72-.16,14.91,14.91,0,0,0,2.56-.17.65.65,0,0,0,.66-.33c.22.33.44.45.66.33a7.31,7.31,0,0,1,2.23-.33h1.57q4.95-.33,7.75-.33,2.64.17,7.92.17a1.46,1.46,0,0,0,.41-.08c.17-.06.25-.14.25-.25h2.81c0,.22.21.27.66.16h5.44c2.42,0,4.18.06,5.28.17a5.86,5.86,0,0,0,.83-.08,2.75,2.75,0,0,1,1.15.08,5.43,5.43,0,0,0,1.65.33,8.74,8.74,0,0,1,2-.17h1.81a8,8,0,0,1,1,.09,2.56,2.56,0,0,0,1.16-.09.83.83,0,0,1,.58.25.44.44,0,0,0,.58.08.65.65,0,0,1,.57-.08,3,3,0,0,0,.58.08h3a2.5,2.5,0,0,1,.66.09,1.46,1.46,0,0,0,.82-.09,1.31,1.31,0,0,1,.5.17c.22.11.38.11.5,0a.94.94,0,0,1,.41.16.51.51,0,0,0,.58,0H262a1,1,0,0,1,.58.17c.16.11.35.06.57-.17a.74.74,0,0,1,.42.25c.16.17.3.2.41.08h1.32a2.2,2.2,0,0,1,.5.09.48.48,0,0,0,.49-.09,1.37,1.37,0,0,1,.5.17.53.53,0,0,0,.66-.17c.1.23.38.33.82.33h2.48a5.44,5.44,0,0,1,.82.17,1.6,1.6,0,0,1,1,.66v.66h-.33a14.54,14.54,0,0,0-5.77-.5l-.5-.16-.16-.17-.33.33a1.12,1.12,0,0,1-.58-.33c-.28-.22-.47-.16-.58.17a.8.8,0,0,0-.58-.17H261a.64.64,0,0,1-.49-.16.7.7,0,0,0-.5-.17c-.11,0-.28.11-.49.33a1.15,1.15,0,0,0-.83-.33H255a6.21,6.21,0,0,1-2.31-.33.86.86,0,0,0-1.32.33.79.79,0,0,0-.82-.41,4.3,4.3,0,0,1-.66.08H247.1a.91.91,0,0,1-.66-.33l-.33.33c-1-.43-1.71-.43-2.14,0a.55.55,0,0,0-.5-.08A.47.47,0,0,1,243,249a4.32,4.32,0,0,0-1.32-.17h-5.12a1,1,0,0,1-.66-.16,5.21,5.21,0,0,1-1.48.33,7.28,7.28,0,0,1-1.82-.25,3.52,3.52,0,0,0-1.65-.08c-.22-.22-.61-.17-1.15.16a.33.33,0,0,0-.5-.16c-.22.11-.39.11-.49,0a1.89,1.89,0,0,0-.83-.17h-4.29a1,1,0,0,0-.66.33.69.69,0,0,0-.66-.24,2.6,2.6,0,0,1-.5.08,1.62,1.62,0,0,1-.57-.17c-.28-.1-.47-.1-.58,0h-.82a.67.67,0,0,0-.66.33l-.33-.33a1,1,0,0,1-.91.25c-.39-.05-.64,0-.74.08-.12-.33-.31-.41-.58-.24s-.47.14-.58-.09a1.09,1.09,0,0,1-.83.33H206.1a.8.8,0,0,0-.58.17.73.73,0,0,1-.58.08,1.46,1.46,0,0,0-.41-.08c-.11.11-.49.16-1.15.16h-2.64l-.33.33-.33-.33a2.63,2.63,0,0,1-1.49.33,14.14,14.14,0,0,0-3.3.09c-1.43.16-2.47.24-3.13.24a5,5,0,0,1-1.49.17,6.24,6.24,0,0,0-1.65.16,6.59,6.59,0,0,1-1.81.17,6.18,6.18,0,0,0-1.65.16,15,15,0,0,1-2.64.17l-.5.66A.47.47,0,0,1,181.84,251.23Z" style="fill:#7e9a3d"/></g></g></svg>