<svg xmlns="http://www.w3.org/2000/svg" viewBox="0 0 244.9 210.5"><g style="isolation:isolate"><text transform="translate(93.84 149.99)" style="isolation:isolate;font-size:45px;fill:#7e9a3d;font-family:AdventPro-Regular, Advent Pro;letter-spacing:0.05em">ΓΙΑ</text></g><g style="isolation:isolate"><text transform="translate(34.48 96.15)" style="isolation:isolate;font-size:90px;fill:#7e9a3d;font-family:NF-Takhie-Free-Regular, NF-Takhie-Free">ΦΡEΣ<tspan x="120.8" y="0" style="letter-spacing:-0.03332248263888889em">Κ</tspan><tspan x="150.5" y="0">Ο</tspan></text></g><g style="isolation:isolate"><text transform="translate(29 184.55)" style="isolation:isolate;font-size:18px;fill:#7e9a3d;font-family:AdventPro-Regular, Advent Pro;letter-spacing:0.05002170138888889em">ΜΕΓΑΛΥΤΕΡΗ ΧΡΟΝΙΚΗ</text><text transform="translate(84.24 206.55)" style="isolation:isolate;font-size:18px;fill:#7e9a3d;font-family:AdventPro-Regular, Advent Pro;letter-spacing:0.049994574652777776em">ΔΙΑΡΚΕΙΑ</text></g><g style="isolation:isolate"><text transform="translate(88.2 20.22)" style="isolation:isolate;font-size:26px;fill:#7e9a3d;font-family:NF-Takhie-Free-Regular, NF-Takhie-Free">παρ<tspan x="26.69" y="0" style="letter-spacing:-0.022216796875em">α</tspan><tspan x="36.02" y="0">μένει</tspan></text></g><g style="isolation:isolate"><g style="isolation:isolate"><path d="M8.73,62.07A6.2,6.2,0,0,0,5,60.52c-1.57-.13-2.6-.25-3.09-.34C.65,60.06,0,59.53,0,58.6a2.59,2.59,0,0,1,.53-1.21,1.9,1.9,0,0,1,.72-.56,11.18,11.18,0,0,1,5.34.23q3.39.8,4.51,2.23c.86,1.39,1,2.39.51,3C10.93,63.2,10,63.13,8.73,62.07ZM4.35,89.7a1.6,1.6,0,0,1,.32-2.55q8.16-5.85,12.67-8.56a1.88,1.88,0,0,1,2.41,1.07c.4.59.13,1.26-.83,2q-1.77,1.2-11.69,8.27A2,2,0,0,1,4.35,89.7ZM19.26,48.51a4.07,4.07,0,0,0-.93-.79l-10-6.63L7,40.07c-.74-1-1-1.71-.65-2.28.46-.83,1.33-1.08,2.6-.74l3.11,2.27,8.13,5a13.21,13.21,0,0,1,2.65,3.11c.25.87.13,1.49-.34,1.86a1.3,1.3,0,0,1-1.56.09A3.78,3.78,0,0,1,19.26,48.51Z" style="fill:#7e9a3d"/></g></g><g style="isolation:isolate"><g style="isolation:isolate"><path d="M224,63.94a1.32,1.32,0,0,1-1.56-.09c-.47-.37-.59-1-.34-1.86a13.21,13.21,0,0,1,2.65-3.11l8.13-5.05L236,51.56c1.27-.33,2.14-.09,2.6.75.31.56.09,1.32-.65,2.27l-1.35,1-10,6.63a4,4,0,0,0-.93.78A3.68,3.68,0,0,1,224,63.94Zm13.68,40.5q-9.91-7.06-11.68-8.28c-1-.74-1.24-1.41-.84-2a1.89,1.89,0,0,1,2.42-1.06q4.5,2.7,12.66,8.56a1.6,1.6,0,0,1,.32,2.55A2,2,0,0,1,237.66,104.44Zm-4.37-27.63c-.53-.62-.35-1.62.51-3q1.13-1.44,4.51-2.23a11.15,11.15,0,0,1,5.34-.22,1.66,1.66,0,0,1,.72.56,2.55,2.55,0,0,1,.53,1.2c0,.94-.65,1.46-1.86,1.58-.49.1-1.52.21-3.09.34a6.2,6.2,0,0,0-3.78,1.55C234.93,77.64,234,77.71,233.29,76.81Z" style="fill:#7e9a3d"/></g></g></svg>