<svg xmlns="http://www.w3.org/2000/svg" viewBox="0 0 457.5 199.98"><g style="isolation:isolate"><g style="isolation:isolate"><path d="M37.25,187.48a14.13,14.13,0,0,0,9.6,3.2q6.6,0,10.3-3a9.45,9.45,0,0,0,3.7-7.7,11.78,11.78,0,0,0-2.25-7.35,16.79,16.79,0,0,0-5.55-4.7,93,93,0,0,0-9.1-4.05,86,86,0,0,1-10-4.45,19.21,19.21,0,0,1-6.35-5.6,15,15,0,0,1-2.6-9.05,15.33,15.33,0,0,1,2.5-8.35,18.19,18.19,0,0,1,7.6-6.45,28.19,28.19,0,0,1,12.5-2.5,38.61,38.61,0,0,1,8.1.7,29.3,29.3,0,0,1,6.5,2.3l-2.9,8.6a30.63,30.63,0,0,0-11.6-2.4c-4.13,0-7.32.75-9.55,2.25a7,7,0,0,0-3.35,6,6.19,6.19,0,0,0,1.8,4.4,16,16,0,0,0,4.45,3.25c1.77.9,4.28,2.05,7.55,3.45A95.48,95.48,0,0,1,60,161.43a24.6,24.6,0,0,1,7.65,6.9,17.78,17.78,0,0,1,3.2,10.85q0,9-5.9,14.7t-18,5.7a27,27,0,0,1-12.65-2.75,20.31,20.31,0,0,1-8-7.1,18.3,18.3,0,0,1-2.95-9l9.7-1.1A11.79,11.79,0,0,0,37.25,187.48Z" style="fill:#7e9a3d"/><path d="M128.35,137.48h-15.3v-9h40.2v9h-15.8v61h-9.1Z" style="fill:#7e9a3d"/><path d="M233.4,194.83a23.4,23.4,0,0,1-14.75,4.75,26.84,26.84,0,0,1-10.2-2,17.34,17.34,0,0,1-7.85-6.35q-3-4.4-3-11.3v-32.2q0-10.31,5.65-15.6t15.55-5.3q9.9,0,15.35,5.6t5.45,15.4V180Q239.55,190.08,233.4,194.83Zm-5.7-55q-2.74-3.39-9.15-3.4t-9.15,3.35q-2.75,3.34-2.75,9.95v28.9q0,5.59,3.15,8.7t8.75,3.1a11.89,11.89,0,0,0,8.65-3.15q3.26-3.15,3.25-8.75v-28.7Q230.45,143.28,227.7,139.88Z" style="fill:#7e9a3d"/><path d="M320.85,177.08a10.24,10.24,0,0,1-2.3.2h-15.5v21.2H294v-70h24q9.6,0,14.5,6.5t4.9,16.5a71.2,71.2,0,0,1-.45,8.5,25.66,25.66,0,0,1-2.2,7.55,16.41,16.41,0,0,1-5.45,6.55l8.2,24.4h-9.3Zm3.35-11.35a12.38,12.38,0,0,0,3.05-6.2,47.48,47.48,0,0,0,.6-8.05q0-7.8-3.25-10.85t-9.45-3h-12.1v30.9h13.5Q321.76,168.48,324.2,165.73Z" style="fill:#7e9a3d"/><path d="M418.45,190.28c1.34-1.53,2-4.13,2-7.8v-8.6a19,19,0,0,1-5.5,2.45,24.94,24.94,0,0,1-6.9.95q-10.4,0-16.65-5.7t-6.25-15.8v-27.3h9.1v27q0,6.41,3.6,9.6t10.2,3.2a16.89,16.89,0,0,0,8.25-1.75,8.62,8.62,0,0,0,4.15-4.35v-33.7h9.1v54.4q0,7.69-3.15,12T416.15,200l-2.7-6.8A8.72,8.72,0,0,0,418.45,190.28Z" style="fill:#7e9a3d"/></g></g><path d="M265.51,99.85A10.83,10.83,0,0,1,265,95.7c0-13.3.17-26.61.17-39.91,0-1.73-.17-3.63-.34-5.36.17,0,.34-.17.51-.17v-.35c0,.17-.17.35-.34.69-2.07,2.07-2.42,5-3.46,7.6-2.07,5.7-4.32,11.58-7.77,16.59a25.93,25.93,0,0,1-6.22,6.74c-4.15,2.94-8.3,1.9-11.4-2.07a29.88,29.88,0,0,1-5.88-12.79c-.52-2.25-1-4.5-1.55-6.74-2.6,5.87-5,11.75-7.78,17.62a18.92,18.92,0,0,1-3.63,4.67c-4.49,4-9.33,3.46-12.09-2.07-1.73-3.29-2.6-7.09-3.46-10.72-1.55-6.39-1-13.13-.86-19.52,0-3.8.51-7.6.86-11.4a8.62,8.62,0,0,0-.35-2.08c-.51.18-.86,0-1.2.18-4.32,3.45-8.47,6.91-12.79,10-2.08,1.55-3.28,3.28-2.94,6,1,9.5-1.9,18.14-7.26,26.09a26.55,26.55,0,0,1-9.84,9.16c-8,4.14-14.86,1-18.84-5-4.32-6.57-5.18-13.83-5.53-21.26-.17-2.93-.86-4.49-3.45-5.87-6.4-3.28-6.57-10.89-4.67-15.73a18.43,18.43,0,0,1,7.78-8.81c7.43-4.49,15-7.08,23.84-4.84,5.88,1.39,9.85,5,13.3,9.68a25,25,0,0,1,2.25,4.32c.86,1.56,1.73,1.56,3.11.52,3.8-2.94,7.6-6,11.58-9A20.17,20.17,0,0,1,201.23,29c2.76-1.21,5-.35,5.87,2.76A33.23,33.23,0,0,1,208,39.2c-.35,8.3-1,16.59-.87,24.88,0,6.74,1.39,9.68,4.67,14.52a13.3,13.3,0,0,0,5.53-6.74,112,112,0,0,0,7.43-22.12c1.21-4.84,2.24-9.85,3.28-14.86a8.73,8.73,0,0,1,.52-2.07c.69-2.42,2.25-3.46,3.8-2.94,1.55.35,2.59,2.25,2.59,4.32-.17,4.49-.69,9-.69,13.48a60.15,60.15,0,0,0,3.11,21.42,25.48,25.48,0,0,0,2.59,5.36c1.56,2.77,3.11,3.11,5.7,1a9.19,9.19,0,0,0,2.42-2.77c4.49-6.39,7.09-13.47,9.33-20.73,2.59-8.81,4.67-18,7.6-26.61a14.6,14.6,0,0,1,.87-2.59A2.81,2.81,0,0,1,269,20.54a3.36,3.36,0,0,1,3.28,3.11,17.86,17.86,0,0,1,.17,4.32c-.52,7.6-.69,15.21-.86,22.81a16,16,0,0,0,0,2.94c3.45-6.57,5.87-12.79,10-18.15,3.11-4.32,6.56-8.29,11.23-10.88,5-2.59,10-4,15.55-1.73,6.39,2.59,10.2,12.61,8.3,19a38.62,38.62,0,0,1-14.52,20.39c-5.36,4-11.06,7.43-17.8,9-.52.18-.86.69-1.38,1,9.33,9.68,22.81,10.37,32.48,7.26,1.56-.52,2.77-1.73,4.15-2.6,1.38-.69,2.94-1,4,.52a3.17,3.17,0,0,1-.51,4,12.84,12.84,0,0,1-6.22,4.14c-11.58,3.46-22.29,1.73-32.32-4.49-3.63-2.25-6.91-4.84-10.54-7.43-.52,1.73-1.21,3.11-1.21,4.67,0,6.56.18,13.13.35,19.52,0,2.25-.52,3.8-2.25,4.32C269,103,266,101.92,265.51,99.85ZM144.56,48.7c1.55-4.32,2.76-8.81,4.32-13.65-4,.69-5.88,3.63-7.95,6.22-2.08,2.42-1.73,5.53.17,7.95a3.25,3.25,0,0,0,2.25,1.21C143.69,50.43,144.38,49.39,144.56,48.7Zm34,3.63c-2.6,1.21-4.5,2.07-6.57,2.94a50.48,50.48,0,0,1-19.53,3.8c-3.11,0-3.11.17-3.28,3.45A30.74,30.74,0,0,0,153,78.59c3.11,5.7,8.81,6.92,13.65,2.77,8.64-7.43,12.45-16.93,11.93-29Zm-23,.52c7.44,0,14-2.94,20.39-6.39,1.21-.7,1.56-1.21,1-2.6A17.74,17.74,0,0,0,164.6,32.11c-1.38-.34-3.46-.34-4.15.35-2.24,2.59-5.35,4.15-6.56,7.77-.87,2.94-2.25,6.05-3.28,9.16-.87,2.94-.35,3.46,2.76,3.46ZM280,66.33c10.36-2.08,18.66-7.43,25.4-15.55,2.76-3.46,5.7-7.43,5.53-12.62.86-8.29-7.26-13.3-14.69-8.64a30.92,30.92,0,0,0-4.67,3.63c-8.64,8.29-13.3,18.66-16.07,30.07-.69,2.76.18,3.8,2.77,3.45a8,8,0,0,0,1.73-.34Z" style="fill:#7e9a3d"/><g style="isolation:isolate"><g style="isolation:isolate"><path d="M13.2,38.05a9.34,9.34,0,0,0-5.72-2.34c-2.37-.2-3.92-.38-4.67-.52C1,35,.05,34.21,0,32.8A3.86,3.86,0,0,1,.81,31a2.48,2.48,0,0,1,1.08-.85q3-.84,8.07.35t6.82,3.36q2,3.16.77,4.56C16.52,39.76,15.07,39.65,13.2,38.05ZM6.57,79.82A2.43,2.43,0,0,1,7.06,76Q19.41,67.13,26.21,63a2.84,2.84,0,0,1,3.65,1.61q.91,1.33-1.26,3-2.66,1.83-17.68,12.51C9.47,81.3,8,81.19,6.57,79.82ZM29.12,17.54a6.53,6.53,0,0,0-1.41-1.19l-15.1-10-2-1.54c-1.13-1.45-1.45-2.59-1-3.44.7-1.27,2-1.64,3.93-1.13l4.7,3.44L30.51,11.3c2.48,2.47,3.82,4,4,4.69.37,1.32.2,2.26-.52,2.81a2,2,0,0,1-2.36.15A5.7,5.7,0,0,1,29.12,17.54Z" style="fill:#7e9a3d"/></g></g><g style="isolation:isolate"><g style="isolation:isolate"><path d="M425.87,22.46a2,2,0,0,1-2.35-.15c-.72-.55-.9-1.49-.52-2.8.19-.66,1.52-2.22,4-4.7l12.3-7.63L444,3.74c1.93-.51,3.23-.13,3.93,1.13.47.85.14,2-1,3.44l-2,1.54-15.1,10a6,6,0,0,0-1.41,1.19A5.74,5.74,0,0,1,425.87,22.46Zm20.69,61.22q-15-10.68-17.67-12.51-2.16-1.68-1.26-3a2.86,2.86,0,0,1,3.66-1.61q6.79,4.08,19.14,12.94a2.43,2.43,0,0,1,.48,3.86C449.46,84.7,448,84.82,446.56,83.68ZM440,41.92q-1.18-1.41.78-4.56c1.13-1.45,3.39-2.57,6.81-3.36s6.11-.91,8.07-.34a2.51,2.51,0,0,1,1.09.84,3.75,3.75,0,0,1,.8,1.83c0,1.4-1,2.2-2.81,2.38-.74.14-2.3.32-4.66.52a9.37,9.37,0,0,0-5.73,2.34Q441.5,44,440,41.92Z" style="fill:#7e9a3d"/></g></g></svg>