<svg xmlns="http://www.w3.org/2000/svg" viewBox="0 0 711.13 263.53"><g style="isolation:isolate"><text transform="translate(0 241.41)" style="isolation:isolate;font-size:101px;fill:#7e9a3d;font-family:AdventPro-Regular, Advent Pro;letter-spacing:0.20000193378712872em">Βιωσιμότητα</text></g><g style="isolation:isolate"><text transform="translate(190.64 68.44)" style="isolation:isolate;font-size:88px;fill:#7e9a3d;font-family:NF-Takhie-Free-Regular, NF-Takhie-Free;letter-spacing:-0.010004216974431818em">Α<tspan x="30.02" y="0" style="letter-spacing:-0.03221546519886364em">π</tspan><tspan x="56.91" y="0" style="letter-spacing:-0.009998668323863636em">οσ</tspan><tspan x="106.58" y="0" style="letter-spacing:-0.04332386363636364em">τ</tspan><tspan x="123.39" y="0" style="letter-spacing:-0.03221546519886364em">ο</tspan><tspan x="145.98" y="0">λή μ</tspan><tspan x="255.29" y="0" style="letter-spacing:-0.04332386363636364em">α</tspan><tspan x="285.02" y="0" style="letter-spacing:-0.009998668323863636em">ς</tspan></text></g><g style="isolation:isolate"><g style="isolation:isolate"><path d="M158.14,124.41a.84.84,0,0,0-.52-.31c-.56,0-.91-.07-1-.21s.2-.42.62-.84H158c.14,0,1.67-.2,4.6-.62l7.1-.63,5-.42a15.08,15.08,0,0,1,2.72-.21,12.36,12.36,0,0,0,2.71-.21,26.41,26.41,0,0,1,3.45-.2,20.37,20.37,0,0,0,3.24-.21.85.85,0,0,0,.84-.42c.27.42.55.56.83.42a8.89,8.89,0,0,1,2.82-.42h2q6.27-.42,9.82-.42,3.34.21,10,.21a1.51,1.51,0,0,0,.53-.11c.21-.06.31-.17.31-.31h3.55q0,.42.84.21h6.9q4.59,0,6.68.21a5.67,5.67,0,0,0,1-.11,3.79,3.79,0,0,1,1.46.11,6.86,6.86,0,0,0,2.09.42,11.09,11.09,0,0,1,2.51-.21h2.3a10.74,10.74,0,0,1,1.25.1,3.19,3.19,0,0,0,1.47-.1,1,1,0,0,1,.73.31.58.58,0,0,0,.73.11.78.78,0,0,1,.73-.11,4.56,4.56,0,0,0,.73.11h3.76a3.44,3.44,0,0,1,.84.1,1.87,1.87,0,0,0,1-.1,1.61,1.61,0,0,1,.63.21q.42.21.63,0a1.07,1.07,0,0,1,.52.2.68.68,0,0,0,.73,0h4.39a1.36,1.36,0,0,1,.73.21c.21.14.45.08.74-.21a.89.89,0,0,1,.52.32c.21.21.38.24.52.1h1.67a3,3,0,0,1,.63.11.63.63,0,0,0,.63-.11,1.63,1.63,0,0,1,.62.21.69.69,0,0,0,.84-.21c.14.28.49.42,1,.42h3.14a6.09,6.09,0,0,1,1,.21,2,2,0,0,1,1.26.84v.83h-.42a18.76,18.76,0,0,0-7.32-.63l-.62-.2-.21-.21-.42.41a1.55,1.55,0,0,1-.73-.41c-.35-.28-.59-.21-.73.21a1,1,0,0,0-.73-.21h-3.45a.86.86,0,0,1-.63-.21.86.86,0,0,0-.63-.21c-.14,0-.35.14-.62.42a1.42,1.42,0,0,0-1.05-.42h-4.6a8.06,8.06,0,0,1-2.92-.42,1.07,1.07,0,0,0-1.67.42,1,1,0,0,0-1.05-.52,6.14,6.14,0,0,1-.84.1H240.8a1.17,1.17,0,0,1-.83-.42l-.42.42c-1.26-.55-2.16-.55-2.72,0a.63.63,0,0,0-.63-.1.6.6,0,0,1-.62-.11,5.46,5.46,0,0,0-1.68-.21h-6.47a1.22,1.22,0,0,1-.84-.21,6.62,6.62,0,0,1-1.88.42,9.49,9.49,0,0,1-2.3-.31,4.51,4.51,0,0,0-2.09-.11c-.28-.27-.77-.21-1.46.21a.42.42,0,0,0-.63-.21q-.42.21-.63,0a2.43,2.43,0,0,0-1-.21h-5.44a1.19,1.19,0,0,0-.83.42.87.87,0,0,0-.84-.31,2.81,2.81,0,0,1-.62.1,2.35,2.35,0,0,1-.74-.21c-.35-.13-.59-.13-.73,0h-1a.85.85,0,0,0-.84.42l-.42-.42a1.25,1.25,0,0,1-1.15.32c-.49-.07-.8,0-.94.1-.14-.42-.38-.52-.73-.31s-.59.18-.73-.11a1.39,1.39,0,0,1-1,.42H188.87a1,1,0,0,0-.74.21,1,1,0,0,1-.73.11,1.73,1.73,0,0,0-.52-.11,2.77,2.77,0,0,1-1.46.21h-3.35l-.42.42-.41-.42a3.42,3.42,0,0,1-1.88.42,17.32,17.32,0,0,0-4.18.1,39.31,39.31,0,0,1-4,.32,6.37,6.37,0,0,1-1.89.21,7.82,7.82,0,0,0-2.09.2,8.28,8.28,0,0,1-2.29.21,7.62,7.62,0,0,0-2.09.21,19,19,0,0,1-3.35.21l-.63.84A.58.58,0,0,1,158.14,124.41Z" style="fill:#7e9a3d"/></g></g><g style="isolation:isolate"><g style="isolation:isolate"><path d="M418.65,124.41a.81.81,0,0,0-.52-.31c-.56,0-.91-.07-1-.21s.21-.42.62-.84h.84c.14,0,1.67-.2,4.6-.62l7.1-.63,5-.42a15.16,15.16,0,0,1,2.72-.21,12.3,12.3,0,0,0,2.71-.21,26.53,26.53,0,0,1,3.45-.2,20.2,20.2,0,0,0,3.24-.21.85.85,0,0,0,.84-.42c.28.42.55.56.83.42a8.91,8.91,0,0,1,2.83-.42h2q6.27-.42,9.82-.42,3.35.21,10,.21a1.51,1.51,0,0,0,.52-.11c.21-.06.31-.17.31-.31h3.56c0,.28.27.35.83.21h6.9q4.59,0,6.69.21a5.66,5.66,0,0,0,1-.11,3.78,3.78,0,0,1,1.46.11,6.91,6.91,0,0,0,2.09.42,11.15,11.15,0,0,1,2.51-.21h2.3a10.87,10.87,0,0,1,1.26.1,3.16,3.16,0,0,0,1.46-.1,1,1,0,0,1,.73.31.58.58,0,0,0,.73.11.78.78,0,0,1,.73-.11,4.56,4.56,0,0,0,.73.11h3.77a3.42,3.42,0,0,1,.83.1,1.91,1.91,0,0,0,1.05-.1,1.63,1.63,0,0,1,.62.21q.42.21.63,0a1.07,1.07,0,0,1,.52.2.7.7,0,0,0,.74,0h4.38a1.39,1.39,0,0,1,.74.21c.2.14.45.08.73-.21a.89.89,0,0,1,.52.32c.21.21.38.24.52.1h1.67a3,3,0,0,1,.63.11.63.63,0,0,0,.63-.11,1.66,1.66,0,0,1,.63.21.68.68,0,0,0,.83-.21q.21.42,1.05.42h3.13a6.31,6.31,0,0,1,1,.21,2,2,0,0,1,1.25.84v.83h-.42a18.71,18.71,0,0,0-7.31-.63l-.63-.2-.21-.21-.42.41a1.55,1.55,0,0,1-.73-.41c-.35-.28-.59-.21-.73.21a1,1,0,0,0-.73-.21h-3.45a.86.86,0,0,1-.63-.21.85.85,0,0,0-.62-.21q-.21,0-.63.42a1.42,1.42,0,0,0-1-.42h-4.59a8.12,8.12,0,0,1-2.93-.42,1.07,1.07,0,0,0-1.67.42,1,1,0,0,0-1.05-.52,6.05,6.05,0,0,1-.83.1h-3.56a1.19,1.19,0,0,1-.83-.42l-.42.42c-1.25-.55-2.16-.55-2.72,0a.61.61,0,0,0-.62-.1.63.63,0,0,1-.63-.11,5.44,5.44,0,0,0-1.67-.21h-6.48a1.22,1.22,0,0,1-.84-.21,6.55,6.55,0,0,1-1.88.42,9.49,9.49,0,0,1-2.3-.31,4.5,4.5,0,0,0-2.09-.11c-.28-.27-.77-.21-1.46.21a.42.42,0,0,0-.63-.21c-.28.14-.49.14-.62,0a2.51,2.51,0,0,0-1.05-.21h-5.43a1.21,1.21,0,0,0-.84.42.87.87,0,0,0-.84-.31,2.81,2.81,0,0,1-.62.1,2.32,2.32,0,0,1-.73-.21c-.35-.13-.6-.13-.74,0h-1a.85.85,0,0,0-.84.42l-.41-.42a1.27,1.27,0,0,1-1.15.32c-.49-.07-.81,0-.94.1-.15-.42-.39-.52-.74-.31s-.59.18-.73-.11a1.37,1.37,0,0,1-1,.42h-11.6a1,1,0,0,0-.73.21,1,1,0,0,1-.74.11,1.67,1.67,0,0,0-.52-.11,2.74,2.74,0,0,1-1.46.21h-3.34l-.42.42-.42-.42a3.42,3.42,0,0,1-1.88.42,17.32,17.32,0,0,0-4.18.1,39.1,39.1,0,0,1-4,.32,6.34,6.34,0,0,1-1.88.21,7.72,7.72,0,0,0-2.09.2,8.42,8.42,0,0,1-2.3.21,7.67,7.67,0,0,0-2.09.21,19,19,0,0,1-3.35.21l-.62.84A.59.59,0,0,1,418.65,124.41Z" style="fill:#7e9a3d"/></g></g><g style="isolation:isolate"><text transform="translate(332.74 140)" style="isolation:isolate;font-size:50px;fill:#7e9a3d;font-family:AdventPro-Regular, Advent Pro;letter-spacing:0.4em">η</text></g></svg>