<svg xmlns="http://www.w3.org/2000/svg" viewBox="0 0 588.88 302.53"><g style="isolation:isolate"><text transform="translate(167.67 209.75)" style="isolation:isolate;font-size:167px;fill:#7e9a3d;font-family:NF-Takhie-Free-Regular, NF-Takhie-Free;letter-spacing:-0.05887443862275449em">Κ<tspan x="50.84" y="0" style="letter-spacing:-0.009999532185628742em">ον</tspan><tspan x="141.21" y="0" style="letter-spacing:-0.03221486714071856em">τ</tspan><tspan x="174.98" y="0" style="letter-spacing:-0.009999532185628742em">ά σ</tspan><tspan x="320.08" y="0" style="letter-spacing:-0.04332253461826347em">α</tspan><tspan x="376.49" y="0" style="letter-spacing:-0.009999532185628742em">ς</tspan></text></g><g style="isolation:isolate"><g style="isolation:isolate"><path d="M247.8,98.25a.83.83,0,0,0-.5-.3,1.61,1.61,0,0,1-1-.2c0-.13.2-.4.6-.8h.8c.13,0,1.6-.2,4.4-.6l6.8-.6,4.8-.4a14,14,0,0,1,2.6-.2,12.11,12.11,0,0,0,2.6-.2,24.13,24.13,0,0,1,3.3-.2,19.89,19.89,0,0,0,3.1-.2.8.8,0,0,0,.8-.4c.27.4.53.53.8.4a8.42,8.42,0,0,1,2.7-.4h1.9q6-.41,9.4-.4,3.19.19,9.6.2a1.57,1.57,0,0,0,.5-.1q.3-.1.3-.3h3.4c0,.27.27.33.8.2h6.6c2.93,0,5.07.07,6.4.2a5.89,5.89,0,0,0,1-.1,3.47,3.47,0,0,1,1.4.1,6.5,6.5,0,0,0,2,.4,10.82,10.82,0,0,1,2.4-.2h2.2a9.77,9.77,0,0,1,1.2.1,3.17,3.17,0,0,0,1.4-.1,1,1,0,0,1,.7.3.56.56,0,0,0,.7.1.76.76,0,0,1,.7-.1,3.87,3.87,0,0,0,.7.1h3.6a3.13,3.13,0,0,1,.8.1,1.82,1.82,0,0,0,1-.1,1.63,1.63,0,0,1,.6.2q.41.19.6,0a1,1,0,0,1,.5.2.67.67,0,0,0,.7,0h4.2a1.25,1.25,0,0,1,.7.2c.2.13.43.07.7-.2a.83.83,0,0,1,.5.3c.2.2.37.23.5.1h1.6a2.6,2.6,0,0,1,.6.1.59.59,0,0,0,.6-.1,1.63,1.63,0,0,1,.6.2.65.65,0,0,0,.8-.2c.13.27.47.4,1,.4h3a6.41,6.41,0,0,1,1,.2,2,2,0,0,1,1.2.8v.8h-.4a17.54,17.54,0,0,0-7-.6l-.6-.2-.2-.2-.4.4a1.5,1.5,0,0,1-.7-.4c-.33-.27-.57-.2-.7.2a1,1,0,0,0-.7-.2h-3.3a.82.82,0,0,1-.6-.2.82.82,0,0,0-.6-.2c-.13,0-.33.13-.6.4a1.35,1.35,0,0,0-1-.4h-4.4a7.73,7.73,0,0,1-2.8-.4,1,1,0,0,0-1.6.4,1,1,0,0,0-1-.5,5.63,5.63,0,0,1-.8.1h-3.4a1.14,1.14,0,0,1-.8-.4l-.4.4c-1.2-.53-2.07-.53-2.6,0a.59.59,0,0,0-.6-.1.59.59,0,0,1-.6-.1,5.29,5.29,0,0,0-1.6-.2h-6.2a1.17,1.17,0,0,1-.8-.2,6.23,6.23,0,0,1-1.8.4,9.11,9.11,0,0,1-2.2-.3,4.24,4.24,0,0,0-2-.1c-.27-.27-.73-.2-1.4.2a.39.39,0,0,0-.6-.2q-.41.19-.6,0a2.28,2.28,0,0,0-1-.2h-5.2a1.14,1.14,0,0,0-.8.4.82.82,0,0,0-.8-.3,2.6,2.6,0,0,1-.6.1,2.4,2.4,0,0,1-.7-.2c-.33-.13-.57-.13-.7,0h-1a.8.8,0,0,0-.8.4l-.4-.4a1.21,1.21,0,0,1-1.1.3c-.47-.07-.77,0-.9.1-.13-.4-.37-.5-.7-.3s-.57.17-.7-.1a1.35,1.35,0,0,1-1,.4H277.2a1,1,0,0,0-.7.2.91.91,0,0,1-.7.1,1.57,1.57,0,0,0-.5-.1,2.69,2.69,0,0,1-1.4.2h-3.2l-.4.4-.4-.4a3.24,3.24,0,0,1-1.8.4,16.89,16.89,0,0,0-4,.1,37.09,37.09,0,0,1-3.8.3,6.18,6.18,0,0,1-1.8.2,7.16,7.16,0,0,0-2,.2,8.17,8.17,0,0,1-2.2.2,7.16,7.16,0,0,0-2,.2,18.46,18.46,0,0,1-3.2.2l-.6.8A.56.56,0,0,1,247.8,98.25Z" style="fill:#7e9a3d"/></g></g><g style="isolation:isolate"><text transform="translate(0 63.75)" style="isolation:isolate;font-size:75px;fill:#7e9a3d;font-family:AdventPro-Regular, Advent Pro;letter-spacing:0.2em">ΒΡΕΙΤΕ ΤΑ</text></g></svg>