<!-- <svg xmlns="http://www.w3.org/2000/svg" viewBox="0 0 573.59 250.78"><g style="isolation:isolate"><text transform="translate(244.84 151)" style="isolation:isolate;font-size:151px;fill:#7e9a3d;font-family:AlwaysAndForeverDingbats-Regular, Always And Forever Dingbats">n</text></g><g style="isolation:isolate"><text transform="translate(232.02 81)" style="isolation:isolate;font-size:28px;fill:#7e9a3d;font-family:advent-pro-regular;letter-spacing:0.19998604910714285em">ΓΕΜ<tspan x="60.96" y="0" style="letter-spacing:0.19899204799107142em">Α</tspan><tspan x="81.17" y="0" style="letter-spacing:0.20000348772321427em">ΤΑ</tspan></text></g><g style="isolation:isolate"><text transform="translate(237.4 195.8)" style="isolation:isolate;font-size:78px;fill:#7e9a3d;font-family:advent-pro-regular;letter-spacing:0.04999874799679487em">&amp;</text></g><g style="isolation:isolate"><g style="isolation:isolate"><path d="M11.91,167.24a8.42,8.42,0,0,0-5.16-2.11c-2.14-.19-3.54-.35-4.21-.48C.88,164.49,0,163.77,0,162.5a3.4,3.4,0,0,1,.73-1.64,2.2,2.2,0,0,1,1-.76q2.66-.76,7.28.31t6.14,3q1.78,2.85.7,4.12C14.91,168.78,13.59,168.68,11.91,167.24Zm-6,37.68a2.19,2.19,0,0,1,.44-3.48q11.13-8,17.28-11.67a2.57,2.57,0,0,1,3.29,1.46c.54.8.17,1.71-1.14,2.72q-2.4,1.65-15.94,11.29A2.73,2.73,0,0,1,5.93,204.92Zm20.34-56.18A5.93,5.93,0,0,0,25,147.66l-13.62-9-1.84-1.39c-1-1.31-1.32-2.34-.89-3.1q.94-1.71,3.54-1l4.25,3.1,11.09,6.89c2.23,2.24,3.44,3.65,3.61,4.24.34,1.18.18,2-.47,2.53a1.77,1.77,0,0,1-2.12.13A5.06,5.06,0,0,1,26.27,148.74Z" style="fill:#7e9a3d"/></g></g><g style="isolation:isolate"><g style="isolation:isolate"><path d="M545.05,151.54a1.78,1.78,0,0,1-2.12-.13c-.65-.51-.81-1.35-.47-2.54q.25-.88,3.61-4.23l11.09-6.89,4.25-3.1q2.6-.69,3.54,1c.43.77.13,1.8-.89,3.1l-1.84,1.39-13.62,9a5.57,5.57,0,0,0-1.27,1.07A5.16,5.16,0,0,1,545.05,151.54Zm18.66,55.23q-13.51-9.65-15.93-11.29-2-1.51-1.14-2.73a2.58,2.58,0,0,1,3.29-1.45Q556.07,195,567.2,203a2.19,2.19,0,0,1,.44,3.48A2.73,2.73,0,0,1,563.71,206.77Zm-6-37.68c-.72-.84-.48-2.21.7-4.11q1.53-2,6.15-3t7.28-.31a2.2,2.2,0,0,1,1,.76,3.43,3.43,0,0,1,.73,1.65c-.05,1.27-.89,2-2.54,2.15-.67.13-2.07.28-4.21.47a8.42,8.42,0,0,0-5.16,2.11C560,170.21,558.68,170.32,557.75,169.09Z" style="fill:#7e9a3d"/></g></g><g style="isolation:isolate"><text transform="translate(295.34 197.8)" style="isolation:isolate;font-size:80px;fill:#7e9a3d;font-family:advent-pro-regular;letter-spacing:0.05em">ΓΕΥΣΗ</text></g><g style="isolation:isolate"><text transform="translate(57.8 198)" style="isolation:isolate;font-size:95px;fill:#7e9a3d;font-family:NF-Takhie-Free-Regular, NF-Takhie-Free">ΑΡΩΜΑ</text></g></svg> -->

<svg xmlns="http://www.w3.org/2000/svg" viewBox="0 0 573.59 146.06"><g style="isolation:isolate"><g style="isolation:isolate"><path d="M249,46.19a.64.64,0,0,0-.38-.23,1.19,1.19,0,0,1-.75-.15q0-.15.45-.6h.61c.09,0,1.2-.16,3.32-.46l5.13-.45L261,44a10.33,10.33,0,0,1,2-.15,9,9,0,0,0,2-.15,17.74,17.74,0,0,1,2.49-.16,13.65,13.65,0,0,0,2.34-.15.61.61,0,0,0,.61-.3c.2.3.4.41.6.3a6.44,6.44,0,0,1,2-.3h1.43q4.53-.3,7.1-.3,2.42.15,7.25.15a1.23,1.23,0,0,0,.38-.07c.15,0,.22-.13.22-.23H292q0,.3.6.15h5q3.31,0,4.83.15a4.63,4.63,0,0,0,.75-.07,2.63,2.63,0,0,1,1.06.07,5,5,0,0,0,1.51.3,8.1,8.1,0,0,1,1.81-.15h1.66a8.38,8.38,0,0,1,.91.08,2.43,2.43,0,0,0,1.06-.08.75.75,0,0,1,.53.23.4.4,0,0,0,.52.07.58.58,0,0,1,.53-.07,3,3,0,0,0,.53.07H316a2.47,2.47,0,0,1,.6.08,1.32,1.32,0,0,0,.76-.08,1.35,1.35,0,0,1,.45.15q.3.16.45,0a.77.77,0,0,1,.38.16.5.5,0,0,0,.53,0h3.17a.94.94,0,0,1,.53.15c.15.1.32,0,.53-.15a.63.63,0,0,1,.38.22c.15.15.27.18.37.08h1.21a2,2,0,0,1,.45.07.46.46,0,0,0,.46-.07,1.15,1.15,0,0,1,.45.15.49.49,0,0,0,.6-.15c.1.2.36.3.76.3h2.26a4.55,4.55,0,0,1,.76.15,1.51,1.51,0,0,1,.91.6v.61h-.31a13.21,13.21,0,0,0-5.28-.45l-.45-.16-.16-.15-.3.31a1.12,1.12,0,0,1-.53-.31c-.25-.2-.43-.15-.52.15a.82.82,0,0,0-.53-.15h-2.5a.61.61,0,0,1-.45-.15.61.61,0,0,0-.45-.15q-.15,0-.45.3a1.06,1.06,0,0,0-.76-.3H316a5.87,5.87,0,0,1-2.11-.3.78.78,0,0,0-1.21.3.74.74,0,0,0-.76-.38,3.46,3.46,0,0,1-.6.08h-2.57a.86.86,0,0,1-.6-.3l-.3.3c-.91-.4-1.57-.4-2,0a.45.45,0,0,0-.45-.08.43.43,0,0,1-.45-.07,4,4,0,0,0-1.21-.15h-4.68a.9.9,0,0,1-.61-.15,4.74,4.74,0,0,1-1.36.3,7,7,0,0,1-1.66-.23,3.18,3.18,0,0,0-1.51-.07q-.3-.3-1.05.15a.31.31,0,0,0-.46-.15q-.3.15-.45,0a1.69,1.69,0,0,0-.76-.15h-3.92a.86.86,0,0,0-.6.3.65.65,0,0,0-.61-.23,2.13,2.13,0,0,1-.45.08,1.74,1.74,0,0,1-.53-.15c-.25-.1-.43-.1-.53,0h-.75a.61.61,0,0,0-.61.3l-.3-.3a.93.93,0,0,1-.83.22c-.35-.05-.58,0-.68.08-.1-.3-.28-.38-.53-.23s-.43.13-.53-.07a1,1,0,0,1-.75.3h-8.38a.73.73,0,0,0-.53.15.65.65,0,0,1-.53.07,1.23,1.23,0,0,0-.38-.07,2,2,0,0,1-1.05.15h-2.42l-.3.3-.3-.3a2.52,2.52,0,0,1-1.36.3,12.75,12.75,0,0,0-3,.08,28,28,0,0,1-2.87.22,4.63,4.63,0,0,1-1.36.15,5.21,5.21,0,0,0-1.51.16,6.12,6.12,0,0,1-1.66.15,5.3,5.3,0,0,0-1.51.15,13.86,13.86,0,0,1-2.42.15l-.45.6A.42.42,0,0,1,249,46.19Z" style="fill:#7e9a3d"/></g></g><g style="isolation:isolate"><g style="isolation:isolate"><path d="M234.21,0h9.35V1.48h-7.79V19.6h-1.56Z" style="fill:#7e9a3d"/><path d="M252.27,0h9.35V1.46h-7.79V8h5.35l-.53,1.54h-4.82V18.2h7.73v1.4h-9.29Z" style="fill:#7e9a3d"/><path d="M283.82,4.62l-5.09,15H277L272,4.62v15h-1.57V0H272l5.91,17.19,6-17.19h1.57V19.6h-1.57Z" style="fill:#7e9a3d"/><path d="M303.53,12.74h-6.38L295,19.6h-1.66L299.59,0h1.48l6.38,19.6h-1.68ZM297.6,11.2h5.51l-2.8-8.76Z" style="fill:#7e9a3d"/><path d="M320.14,1.4h-4.76V0h11.25V1.4h-4.92V19.6h-1.57Z" style="fill:#7e9a3d"/><path d="M343.71,12.74h-6.38l-2.19,6.86h-1.65L339.77,0h1.48l6.38,19.6H346Zm-5.93-1.54h5.51l-2.8-8.76Z" style="fill:#7e9a3d"/></g></g><g style="isolation:isolate"><g style="isolation:isolate"><path d="M270,132.41a8.84,8.84,0,0,1-2.61-4.8,16,16,0,0,1-5.54,5.77,15.17,15.17,0,0,1-7.8,1.88,13.47,13.47,0,0,1-7.49-2,13.15,13.15,0,0,1-4.76-5.46,18.8,18.8,0,0,1,.86-17,19.94,19.94,0,0,1,5.89-6.08,58.4,58.4,0,0,1,8-4.21,7.38,7.38,0,0,1-4.92-3.24,11.17,11.17,0,0,1-2.1-6.82,10.78,10.78,0,0,1,1.67-6,11.48,11.48,0,0,1,4.53-4.06,13.5,13.5,0,0,1,6.2-1.44,15.94,15.94,0,0,1,5.22.94l-2.41,3.58a10.48,10.48,0,0,0-3.28-.54,7.44,7.44,0,0,0-5.5,2.14,7,7,0,0,0-2.14,5.11,4.42,4.42,0,0,0,.07.94,7.46,7.46,0,0,0,3,5.26,9.18,9.18,0,0,0,5.61,1.84,9.83,9.83,0,0,0,2.11-.24l2.11-.39V86.9h4.44v9.75l5.7-1.25.93,4.13L271.09,101V123.4a11,11,0,0,0,1.25,5.34,6.49,6.49,0,0,0,3.9,3.16L275,135.26A12,12,0,0,1,270,132.41Zm-19.15-24.3q-6.39,4.06-6.39,12.17a11.38,11.38,0,0,0,2.61,7.8c1.74,2,4.22,3,7.45,3a10.62,10.62,0,0,0,6.35-2,13.37,13.37,0,0,0,4.29-5.15,14.94,14.94,0,0,0,1.53-6.59V102A49.52,49.52,0,0,0,250.81,108.11Z" style="fill:#7e9a3d"/></g></g><g style="isolation:isolate"><g style="isolation:isolate"><path d="M11.91,105.84a8.42,8.42,0,0,0-5.16-2.11c-2.14-.19-3.54-.35-4.21-.48C.88,103.09,0,102.37,0,101.1a3.4,3.4,0,0,1,.73-1.64,2.2,2.2,0,0,1,1-.76Q4.37,97.94,9,99t6.14,3q1.78,2.85.7,4.11C14.91,107.38,13.59,107.28,11.91,105.84Zm-6,37.68A2.19,2.19,0,0,1,6.37,140q11.13-8,17.28-11.67a2.57,2.57,0,0,1,3.29,1.46c.54.8.17,1.71-1.14,2.72q-2.4,1.65-15.94,11.29A2.73,2.73,0,0,1,5.93,143.52ZM26.27,87.34A5.65,5.65,0,0,0,25,86.26l-13.62-9L9.54,75.83c-1-1.31-1.32-2.34-.89-3.1q.94-1.71,3.54-1l4.25,3.1L27.53,81.7c2.23,2.24,3.44,3.65,3.61,4.24.34,1.18.18,2-.47,2.53a1.77,1.77,0,0,1-2.12.13A5.06,5.06,0,0,1,26.27,87.34Z" style="fill:#7e9a3d"/></g></g><g style="isolation:isolate"><g style="isolation:isolate"><path d="M545.05,90.13a1.77,1.77,0,0,1-2.12-.12c-.65-.51-.81-1.35-.47-2.54q.25-.89,3.61-4.23l11.09-6.89,4.25-3.1q2.6-.69,3.54,1c.43.77.13,1.8-.89,3.1l-1.84,1.39-13.62,9a5.57,5.57,0,0,0-1.27,1.07A5.06,5.06,0,0,1,545.05,90.13Zm18.66,55.24q-13.51-9.65-15.93-11.29-2-1.52-1.14-2.73a2.58,2.58,0,0,1,3.29-1.45q6.14,3.69,17.27,11.68a2.19,2.19,0,0,1,.44,3.48A2.73,2.73,0,0,1,563.71,145.37Zm-6-37.68c-.72-.84-.48-2.21.7-4.11q1.53-2,6.15-3t7.28-.3a2.2,2.2,0,0,1,1,.76,3.43,3.43,0,0,1,.73,1.65c-.05,1.27-.89,2-2.54,2.15-.67.12-2.07.28-4.21.47a8.42,8.42,0,0,0-5.16,2.11C560,108.81,558.68,108.92,557.75,107.69Z" style="fill:#7e9a3d"/></g></g><g style="isolation:isolate"><g style="isolation:isolate"><path d="M301.58,80.4H328.3v4.24H306.06V136.4h-4.48Z" style="fill:#7e9a3d"/><path d="M341.18,80.4H367.9v4.16H345.66v18.8h15.28l-1.52,4.4H345.66V132.4h22.08v4H341.18Z" style="fill:#7e9a3d"/><path d="M408.9,131.08q1.39-2.12,1.4-6.84V112.88a14.33,14.33,0,0,1-5.76,2.92,25.55,25.55,0,0,1-6.88,1q-8.48,0-13.4-4.2t-4.92-12.44V80.4h4.48V101q0,5.6,3.84,8.52t10,2.92a16.43,16.43,0,0,0,8.24-2,8.76,8.76,0,0,0,4.4-6v-24h4.56v43.52c0,3.89-.73,7-2.2,9.16a8.56,8.56,0,0,1-6.2,3.88l-1-3A7.27,7.27,0,0,0,408.9,131.08Z" style="fill:#7e9a3d"/><path d="M447.34,105.68l-16.8-25.44h34.24l-1.44,4.24H438.62l14.08,21-16,26.88h18.08a9.32,9.32,0,0,0,5.28-1.48,8.14,8.14,0,0,0,3.2-4.2l3.44,1.28a11.44,11.44,0,0,1-4.08,6.48,12.72,12.72,0,0,1-7.52,2H429.26Z" style="fill:#7e9a3d"/><path d="M509.66,107.76H484.22V136.4h-4.48v-56h4.48v23h25.44v-23h4.48v56h-4.48Z" style="fill:#7e9a3d"/></g></g><g style="isolation:isolate"><g style="isolation:isolate"><path d="M62.5,135.7c-1-.67-1.54-1.28-1.54-1.84a74.48,74.48,0,0,1,.85-9.08q1-7.61,1.69-11.4a152.83,152.83,0,0,1,4.11-18.26L68.46,92q.53-2.43,1.27-4.75c.14-.56.49-1.79,1-3.7s1.09-3.48,1.58-4.75a20.06,20.06,0,0,1,1.38-3l2.74-.21a3.9,3.9,0,0,1,3.22,1.79,9.82,9.82,0,0,1,1.74,3.8l4.12,30.61a112.82,112.82,0,0,1,1,12.78,46.67,46.67,0,0,0,.85,7.6c.14.63.28,1.44.42,2.42a2.78,2.78,0,0,1,.11.85c0,.77-.32,1.16-.95,1.16A2.32,2.32,0,0,1,84.77,135a9.84,9.84,0,0,1-.69-3.85,59,59,0,0,0-.74-8.44c-.07-.78-.17-1.75-.31-2.91s-.25-2.48-.32-4c0-.7-.32-1-.95-1l-4.12-.11c-.49,0-1.65.07-3.48.22a1.82,1.82,0,0,0-1.53,1,11,11,0,0,0-.79,1.9c-.21.67-.36,1.14-.43,1.42a18.53,18.53,0,0,0-1.1,4.49c-.25,1.79-.41,3-.48,3.64-.07.35-.25,1.27-.53,2.74a27.43,27.43,0,0,1-1,3.75q-.52,1.53-1,1.74l-2,1.06A4.47,4.47,0,0,1,62.5,135.7Zm19.47-23a1.63,1.63,0,0,0,.53-1.42l-2.22-18-1-7.6a13.62,13.62,0,0,0-.69,3.33c-.1,1.23-.19,2.06-.26,2.48a84.46,84.46,0,0,1-2,9.81q-1.8,7.39-2.22,8.45a4.68,4.68,0,0,0-.21,1.48c0,1,.38,1.47,1.16,1.47a29.18,29.18,0,0,1,3,.22l2.22.1A3,3,0,0,0,82,112.69Z" style="fill:#7e9a3d"/><path d="M94.74,134.17c0-1.19-.07-3.06-.21-5.59,0-.78,0-2.17-.16-4.17s-.12-3.78-.05-5.33a12.44,12.44,0,0,0,.05-2c0-.63-.05-1.19-.05-1.69v-2.32q0-2.22.21-5.07c.14-1.9.25-3.23.32-4,.28-2.88.45-5.17.53-6.86q.21-3.37,1.05-9.6l.32-2.43c.21-1.55.59-3.8,1.16-6.76a2.33,2.33,0,0,1,1.58-2.21,3.36,3.36,0,0,1,1-.21,3.09,3.09,0,0,1,2.48,1.21,3.49,3.49,0,0,1,.79,2.8c-.07,1-.24,2.39-.52,4.22.21-.28,1-1.36,2.53-3.22a18.49,18.49,0,0,1,4.7-4.33,9.62,9.62,0,0,1,5.12-1.53A3.52,3.52,0,0,1,119,77a10.45,10.45,0,0,1,.84,4.43,34.67,34.67,0,0,1-2,9.93,16.82,16.82,0,0,1-1.37,3,33.32,33.32,0,0,1-3.54,5.86,8,8,0,0,1-4.38,3,21.94,21.94,0,0,1-6,.32.86.86,0,0,0-.63.21,2.28,2.28,0,0,0-.42.84,64,64,0,0,1-.32,7.07l-.1,3.17a24,24,0,0,0-.06,2.74c0,.78.06,1.41.06,1.9v2.33c0,1.76,0,3.09-.11,4a52.11,52.11,0,0,0,.11,5.59c.14,1.27.21,2.18.21,2.75l.1.63c0,.49-.46,1-1.37,1.48a5.8,5.8,0,0,1-2.75.74C95.73,136.92,94.88,136,94.74,134.17Zm11-35.41a11.69,11.69,0,0,0,2.74-2.69,12.13,12.13,0,0,1,1.27-1.32A8.87,8.87,0,0,0,111,93.32a28.44,28.44,0,0,0,5-13.72c0-1.41-.39-2.11-1.16-2.11q-2,0-5.17,3.53a48.39,48.39,0,0,0-6.34,9.45,5.4,5.4,0,0,0-.84,2.53,16.92,16.92,0,0,0-.21,3.07,20.76,20.76,0,0,1-.11,2.42v.64c0,.63.28,1,.85,1A5.49,5.49,0,0,0,105.72,98.76Z" style="fill:#7e9a3d"/><path d="M142.72,137.29a5.1,5.1,0,0,0-.8-.06,9.65,9.65,0,0,0-5.06-.74,17.33,17.33,0,0,1-2.22-.1h-1.16a5.64,5.64,0,0,1-1.27-.11,1.47,1.47,0,0,0-.63-.1,1.86,1.86,0,0,0-.84.21,18.79,18.79,0,0,1-4.23-.42,6.47,6.47,0,0,1-1.16-3.49,6.88,6.88,0,0,1,1.06-3.85,3.61,3.61,0,0,1,3.27-1.64l.95.11a7.74,7.74,0,0,0,1.58.05c.49,0,.95-.05,1.38-.05s.77-.32.84-.95a8.12,8.12,0,0,1,.11-1.48,10.17,10.17,0,0,1,.21-1,23.26,23.26,0,0,0,.1-2.43c0-1,0-1.83.11-2.53l.1-.85c0-.28-.3-.56-.89-.84a17.4,17.4,0,0,0-1.85-.74c-.63-.21-1.2-.43-1.69-.64a11.58,11.58,0,0,1-5.91-6.86A24.27,24.27,0,0,1,123,99.55c.21-2.46.48-4.63.79-6.49a28.6,28.6,0,0,1,1.43-5.33,59,59,0,0,1,3.11-6.65,8.94,8.94,0,0,1,3.33-3.7,9.31,9.31,0,0,0,1.68-.79,12,12,0,0,0,1.9-1.21,6.32,6.32,0,0,0,2.43-.53,6,6,0,0,1,1.8-.21,5.08,5.08,0,0,1,4.85,2.74q1.49,2.75,1.9,9.19.21,4.84.21,7.7,0,12.78-3.37,19.74c-.78,1.76-1.87,2.74-3.28,3-.91.14-1.33.6-1.26,1.37a8.86,8.86,0,0,1,.1,1.58,28.57,28.57,0,0,1-.21,2.85q-.21,2.12-.21,3.06a5,5,0,0,0,.16,1.69c.1.21.51.39,1.21.53a20.63,20.63,0,0,1,4.17,1.32,2.27,2.27,0,0,1,1.43,2.16,7,7,0,0,1-.16,1.53,4.84,4.84,0,0,0-.16,1l-.74,3.27A13.73,13.73,0,0,1,142.72,137.29Zm-3.22-25.07a63.78,63.78,0,0,0,2.42-8.34q.42-2.85.59-6.18c.1-2.21.19-3.67.26-4.38,0-1,.07-2.57.21-4.54q.21-5.91-2.43-9.39-.63,0-.63.42a20.48,20.48,0,0,1-1.64,2.69l-1.53,2.17a20.81,20.81,0,0,0-2.58,5.91,88.08,88.08,0,0,0-1.64,8.76,17.52,17.52,0,0,0-.21,3.16c0,.92.07,2.36.21,4.33a7,7,0,0,0,.58,2.33,18.06,18.06,0,0,0,1.06,2c.38.63.68,1.09.89,1.37a2.52,2.52,0,0,0,2.22,1.59C138.27,114.12,139,113.48,139.5,112.22Z" style="fill:#7e9a3d"/><path d="M154.17,136.81a1.59,1.59,0,0,1-.95-.95,11.34,11.34,0,0,1-1.48-6l.11-6q.21-6,.1-9c0-3.81.07-6.65.21-8.56q.1-2,.11-6.12c.14-1.54.42-4.15.84-7.81l.42-3.69.32-3.06c.14-1.41.28-2.47.42-3.17.07-.42.2-1,.37-1.58a14.77,14.77,0,0,0,.37-1.59,2.21,2.21,0,0,0-.26-.74,1.13,1.13,0,0,1-.16-.84,2.56,2.56,0,0,1,2.64-1.48,2.41,2.41,0,0,1,2,1,14.71,14.71,0,0,1,1.48,2.38c.49,1,.88,1.7,1.16,2.27q1.69,2.85,5.28,8.55a11.52,11.52,0,0,1,.85,1.47,3.61,3.61,0,0,0,1.16,1.48,33.55,33.55,0,0,1,2.53-5.38l1.16-2.43a27.81,27.81,0,0,0,1.9-3.9,44.28,44.28,0,0,1,2.38-4.44,2.46,2.46,0,0,1,2-1.37,2.58,2.58,0,0,1,1.48.53,1.53,1.53,0,0,1,.74,1.26l-.11,1.69c0,1.27,0,2.36.11,3.27s.14,1.66.21,2.22q.11,2.85.1,8.45V96.7c-.07,1-.1,2.43-.1,4.33v4.43c0,.71,0,1.57.05,2.59s0,2.23-.05,3.64a18.06,18.06,0,0,0-.11,2.32q0,7.92-.21,9.5-.1,1.8-.1,5.91c-.08.92-.11,2.29-.11,4.12a3.51,3.51,0,0,1-.69,2.11c-.46.63-.82.95-1.11.95s-.61-.4-.79-1.21a8.57,8.57,0,0,1-.16-2.48l.22-3.07a23.25,23.25,0,0,0-.11-2.63c0-2.75,0-4.82.11-6.23,0-.78,0-1.8.05-3.06s0-2.75-.05-4.44a42.41,42.41,0,0,1,.1-5q.21-2.53.21-3.9V95q0-6.23-.31-6.65-.33.31-4.33,9.39c-.21.57-1,.85-2.32.85s-2.64-1-3.7-3q-3.06-5.26-4.85-8.86L162,84.88a10.15,10.15,0,0,1-1.58-2.33c-.07.36-.18,1-.32,1.85a5.6,5.6,0,0,0,0,2.17,34.18,34.18,0,0,1,.21,4.43c0,1.55,0,2.71.11,3.48a5.61,5.61,0,0,1,.1,1.38c0,.91,0,1.77-.1,2.58s-.11,1.46-.11,2a16.25,16.25,0,0,1,.11,2.54,18.7,18.7,0,0,1-.11,2.64l-.42,7.6.1,2a43.34,43.34,0,0,1,.21,7.71q-.31,3.27-.52,9.6a4.88,4.88,0,0,1-.16,1.48,1.56,1.56,0,0,1-.69.74,1.93,1.93,0,0,0-.95,1.16,1.54,1.54,0,0,1-2.11,1.27A7.81,7.81,0,0,1,154.17,136.81Z" style="fill:#7e9a3d"/><path d="M189.48,135.7c-1-.67-1.53-1.28-1.53-1.84a74,74,0,0,1,.84-9.08q1.05-7.61,1.69-11.4a150.76,150.76,0,0,1,4.12-18.26l.84-3.17q.52-2.43,1.27-4.75c.14-.56.49-1.79,1-3.7s1.09-3.48,1.59-4.75a20.18,20.18,0,0,1,1.37-3l2.74-.21a3.9,3.9,0,0,1,3.22,1.79,9.82,9.82,0,0,1,1.74,3.8l4.12,30.61a113.35,113.35,0,0,1,1.06,12.78,47.59,47.59,0,0,0,.84,7.6c.14.63.28,1.44.42,2.42a2.78,2.78,0,0,1,.11.85c0,.77-.32,1.16-.95,1.16a2.33,2.33,0,0,1-2.27-1.64,9.84,9.84,0,0,1-.69-3.85,59,59,0,0,0-.74-8.44c-.07-.78-.17-1.75-.31-2.91s-.25-2.48-.32-4c0-.7-.32-1-.95-1l-4.12-.11c-.49,0-1.65.07-3.48.22a1.83,1.83,0,0,0-1.53,1,11,11,0,0,0-.79,1.9c-.21.67-.35,1.14-.42,1.42a18,18,0,0,0-1.11,4.49c-.25,1.79-.41,3-.48,3.64-.07.35-.25,1.27-.53,2.74a26,26,0,0,1-.95,3.75q-.53,1.53-1.05,1.74l-2,1.06A4.49,4.49,0,0,1,189.48,135.7Zm19.47-23a1.63,1.63,0,0,0,.53-1.42l-2.22-18-.95-7.6a13.18,13.18,0,0,0-.68,3.33c-.11,1.23-.2,2.06-.27,2.48a84.46,84.46,0,0,1-2,9.81q-1.8,7.39-2.22,8.45a4.68,4.68,0,0,0-.21,1.48c0,1,.38,1.47,1.16,1.47a29.53,29.53,0,0,1,3,.22l2.21.1A3,3,0,0,0,209,112.69Z" style="fill:#7e9a3d"/></g></g></svg>